<?xml version="1.0" encoding="utf-8"?>
<!-- Generator: Adobe Illustrator 16.0.0, SVG Export Plug-In . SVG Version: 6.00 Build 0)  -->
<!DOCTYPE svg PUBLIC "-//W3C//DTD SVG 1.1//EN" "http://www.w3.org/Graphics/SVG/1.1/DTD/svg11.dtd">
<svg version="1.1" id="Layer_1" xmlns="http://www.w3.org/2000/svg" xmlns:xlink="http://www.w3.org/1999/xlink" x="0px" y="0px"
	 width="425.2px" height="425.2px" viewBox="0 0 425.2 425.2" enable-background="new 0 0 425.2 425.2" xml:space="preserve">
<g>
	<g>
		<path style="fill:rgba(255,255,255,0.8);" d="M212.601,423.7C96.199,423.7,1.5,329.001,1.5,212.6S96.199,1.5,212.601,1.5
			c116.4,0,211.1,94.699,211.1,211.1S329.001,423.7,212.601,423.7z"/>
		<path fill="#231F20" d="M212.601,3c28.297,0,55.746,5.542,81.584,16.47c24.959,10.557,47.375,25.67,66.625,44.92
			c19.25,19.25,34.363,41.666,44.92,66.625c10.93,25.839,16.471,53.288,16.471,81.585c0,28.297-5.541,55.747-16.471,81.585
			c-10.557,24.958-25.67,47.375-44.92,66.625c-19.25,19.25-41.666,34.364-66.625,44.92c-25.838,10.929-53.287,16.47-81.584,16.47
			s-55.746-5.542-81.585-16.47c-24.959-10.556-47.374-25.669-66.625-44.92c-19.251-19.25-34.364-41.666-44.921-66.625
			C8.542,268.347,3,240.897,3,212.6s5.542-55.746,16.47-81.585c10.557-24.958,25.67-47.375,44.921-66.625
			c19.251-19.25,41.666-34.364,66.625-44.92C156.854,8.542,184.304,3,212.601,3 M212.601,0C95.185,0,0,95.185,0,212.6
			c0,117.417,95.185,212.6,212.601,212.6c117.415,0,212.6-95.183,212.6-212.6C425.2,95.185,330.016,0,212.601,0L212.601,0z"/>
	</g>
	<g>
		
			<circle fill="none" stroke="#231F20" stroke-width="12.546" stroke-miterlimit="10" stroke-dasharray="2.942,5.884" cx="212.6" cy="212.6" r="196.651"/>
	</g>
</g>
<g>
	<path d="M89.223,103.145h2.853l6.768,18.649h-2.768l-1.946-5.586h-7.317l-2.021,5.586H82.2L89.223,103.145z M93.411,114.151
		l-2.871-8.239l-2.982,8.239H93.411z"/>
	<path d="M101.274,104.401h2.311v3.796h2.171v1.866h-2.171v8.874c0,0.474,0.16,0.792,0.482,0.952c0.178,0.093,0.475,0.14,0.889,0.14
		c0.109,0,0.229-0.003,0.355-0.008s0.275-0.02,0.444-0.042v1.815c-0.263,0.076-0.535,0.131-0.819,0.165
		c-0.283,0.034-0.59,0.051-0.92,0.051c-1.066,0-1.79-0.273-2.171-0.819s-0.571-1.255-0.571-2.126v-9.001h-1.841v-1.866h1.841
		V104.401z"/>
	<path d="M108.104,108.197h2.171v2.349c0.178-0.457,0.614-1.014,1.308-1.669s1.494-0.984,2.399-0.984
		c0.042,0,0.114,0.004,0.216,0.013s0.275,0.025,0.521,0.051v2.412c-0.136-0.025-0.261-0.042-0.374-0.051
		c-0.115-0.008-0.24-0.013-0.375-0.013c-1.15,0-2.035,0.37-2.653,1.111s-0.927,1.593-0.927,2.558v7.82h-2.285V108.197z"/>
	<path d="M125.098,108.572c0.899,0.453,1.585,1.039,2.057,1.758c0.454,0.686,0.757,1.485,0.908,2.399
		c0.135,0.626,0.202,1.625,0.202,2.996h-9.89c0.042,1.383,0.365,2.493,0.97,3.329c0.605,0.836,1.541,1.254,2.809,1.254
		c1.185,0,2.129-0.396,2.835-1.186c0.395-0.459,0.675-0.99,0.839-1.594h2.247c-0.06,0.5-0.256,1.056-0.591,1.669
		c-0.334,0.614-0.707,1.115-1.118,1.504c-0.688,0.677-1.542,1.134-2.558,1.371c-0.547,0.135-1.164,0.203-1.853,0.203
		c-1.683,0-3.107-0.616-4.276-1.847c-1.17-1.231-1.754-2.956-1.754-5.173c0-2.184,0.589-3.957,1.767-5.319
		c1.177-1.363,2.717-2.044,4.618-2.044C123.269,107.893,124.197,108.119,125.098,108.572z M125.916,113.91
		c-0.093-0.99-0.307-1.782-0.642-2.374c-0.621-1.1-1.658-1.65-3.109-1.65c-1.041,0-1.914,0.379-2.619,1.136s-1.078,1.72-1.12,2.888
		H125.916z M125.002,102.726l-3.39,3.669h-1.752l2.323-3.669H125.002z"/>
	<path d="M132.282,108.197l3.631,11.07l3.783-11.07h2.502l-5.119,13.597h-2.436l-5.014-13.597H132.282z"/>
	<path d="M152.558,108.572c0.9,0.453,1.586,1.039,2.057,1.758c0.454,0.686,0.757,1.485,0.908,2.399
		c0.135,0.626,0.202,1.625,0.202,2.996h-9.89c0.042,1.383,0.365,2.493,0.971,3.329c0.604,0.836,1.54,1.254,2.809,1.254
		c1.184,0,2.129-0.396,2.834-1.186c0.395-0.459,0.674-0.99,0.839-1.594h2.247c-0.059,0.5-0.256,1.056-0.59,1.669
		c-0.335,0.614-0.708,1.115-1.119,1.504c-0.689,0.677-1.541,1.134-2.558,1.371c-0.546,0.135-1.163,0.203-1.853,0.203
		c-1.682,0-3.107-0.616-4.277-1.847c-1.168-1.231-1.753-2.956-1.753-5.173c0-2.184,0.589-3.957,1.767-5.319s2.717-2.044,4.617-2.044
		C150.728,107.893,151.657,108.119,152.558,108.572z M153.376,113.91c-0.092-0.99-0.307-1.782-0.643-2.374
		c-0.621-1.1-1.657-1.65-3.109-1.65c-1.04,0-1.913,0.379-2.618,1.136c-0.704,0.757-1.078,1.72-1.12,2.888H153.376z"/>
	<path d="M159.076,104.401h2.311v3.796h2.171v1.866h-2.171v8.874c0,0.474,0.161,0.792,0.482,0.952
		c0.178,0.093,0.474,0.14,0.889,0.14c0.11,0,0.229-0.003,0.355-0.008s0.274-0.02,0.444-0.042v1.815
		c-0.262,0.076-0.535,0.131-0.818,0.165c-0.284,0.034-0.591,0.051-0.921,0.051c-1.066,0-1.79-0.273-2.171-0.819
		s-0.571-1.255-0.571-2.126v-9.001h-1.841v-1.866h1.841V104.401z"/>
	<path d="M174.241,108.572c0.9,0.453,1.586,1.039,2.057,1.758c0.454,0.686,0.757,1.485,0.908,2.399
		c0.135,0.626,0.202,1.625,0.202,2.996h-9.89c0.042,1.383,0.365,2.493,0.971,3.329c0.604,0.836,1.54,1.254,2.809,1.254
		c1.184,0,2.129-0.396,2.834-1.186c0.395-0.459,0.674-0.99,0.839-1.594h2.247c-0.059,0.5-0.256,1.056-0.59,1.669
		c-0.335,0.614-0.708,1.115-1.119,1.504c-0.689,0.677-1.541,1.134-2.558,1.371c-0.546,0.135-1.163,0.203-1.853,0.203
		c-1.682,0-3.107-0.616-4.277-1.847c-1.168-1.231-1.753-2.956-1.753-5.173c0-2.184,0.589-3.957,1.767-5.319s2.717-2.044,4.617-2.044
		C172.411,107.893,173.341,108.119,174.241,108.572z M175.06,113.91c-0.092-0.99-0.307-1.782-0.643-2.374
		c-0.621-1.1-1.657-1.65-3.109-1.65c-1.04,0-1.913,0.379-2.618,1.136c-0.704,0.757-1.078,1.72-1.12,2.888H175.06z"/>
	<path d="M194.813,113.565c0.525-0.067,0.876-0.287,1.054-0.659c0.102-0.204,0.152-0.497,0.152-0.879
		c0-0.781-0.276-1.349-0.83-1.701s-1.345-0.529-2.376-0.529c-1.19,0-2.035,0.323-2.533,0.97c-0.279,0.357-0.461,0.889-0.545,1.595
		h-2.133c0.043-1.681,0.586-2.85,1.629-3.507c1.045-0.658,2.256-0.987,3.633-0.987c1.598,0,2.896,0.305,3.894,0.914
		c0.989,0.609,1.483,1.557,1.483,2.844v7.833c0,0.237,0.049,0.428,0.146,0.571c0.097,0.144,0.303,0.215,0.615,0.215
		c0.102,0,0.216-0.006,0.343-0.019s0.263-0.032,0.406-0.057v1.688c-0.355,0.102-0.626,0.165-0.812,0.19s-0.44,0.038-0.762,0.038
		c-0.787,0-1.358-0.279-1.714-0.838c-0.186-0.296-0.317-0.715-0.394-1.256c-0.466,0.609-1.134,1.138-2.006,1.586
		c-0.872,0.449-1.833,0.673-2.882,0.673c-1.262,0-2.291-0.383-3.092-1.147c-0.799-0.765-1.199-1.722-1.199-2.872
		c0-1.259,0.394-2.236,1.181-2.929c0.787-0.693,1.819-1.12,3.098-1.281L194.813,113.565z M190.002,119.739
		c0.482,0.38,1.054,0.57,1.714,0.57c0.805,0,1.582-0.186,2.336-0.558c1.27-0.617,1.904-1.626,1.904-3.029v-1.838
		c-0.279,0.178-0.638,0.327-1.077,0.446c-0.438,0.119-0.87,0.204-1.292,0.254l-1.381,0.177c-0.828,0.11-1.451,0.283-1.867,0.52
		c-0.707,0.397-1.061,1.03-1.061,1.9C189.278,118.839,189.52,119.358,190.002,119.739z"/>
	<path d="M209.02,108.261h2.234v1.803c0.458-0.618,0.959-1.096,1.502-1.435c0.772-0.508,1.681-0.762,2.724-0.762
		c1.545,0,2.855,0.59,3.934,1.771c1.077,1.181,1.616,2.867,1.616,5.059c0,2.962-0.777,5.078-2.333,6.348
		c-0.984,0.804-2.133,1.206-3.44,1.206c-1.028,0-1.891-0.224-2.587-0.673c-0.408-0.254-0.863-0.69-1.364-1.308v6.944h-2.285V108.261
		z M217.617,118.918c0.709-0.893,1.063-2.228,1.063-4.005c0-1.083-0.157-2.014-0.471-2.793c-0.596-1.498-1.682-2.247-3.262-2.247
		c-1.588,0-2.676,0.792-3.262,2.374c-0.313,0.846-0.471,1.921-0.471,3.225c0,1.049,0.157,1.942,0.471,2.679
		c0.595,1.405,1.682,2.107,3.262,2.107C216.019,120.258,216.907,119.812,217.617,118.918z"/>
	<path d="M230.957,113.565c0.524-0.067,0.876-0.287,1.054-0.659c0.102-0.204,0.152-0.497,0.152-0.879
		c0-0.781-0.277-1.349-0.83-1.701s-1.346-0.529-2.375-0.529c-1.191,0-2.036,0.323-2.534,0.97c-0.278,0.357-0.46,0.889-0.545,1.595
		h-2.133c0.042-1.681,0.585-2.85,1.63-3.507c1.043-0.658,2.254-0.987,3.633-0.987c1.598,0,2.895,0.305,3.893,0.914
		c0.988,0.609,1.483,1.557,1.483,2.844v7.833c0,0.237,0.049,0.428,0.146,0.571c0.098,0.144,0.303,0.215,0.616,0.215
		c0.102,0,0.216-0.006,0.343-0.019s0.262-0.032,0.406-0.057v1.688c-0.355,0.102-0.627,0.165-0.812,0.19s-0.439,0.038-0.762,0.038
		c-0.787,0-1.358-0.279-1.714-0.838c-0.187-0.296-0.317-0.715-0.394-1.256c-0.465,0.609-1.135,1.138-2.006,1.586
		c-0.871,0.449-1.832,0.673-2.882,0.673c-1.261,0-2.292-0.383-3.091-1.147c-0.801-0.765-1.2-1.722-1.2-2.872
		c0-1.259,0.394-2.236,1.181-2.929c0.787-0.693,1.82-1.12,3.098-1.281L230.957,113.565z M226.146,119.739
		c0.482,0.38,1.054,0.57,1.714,0.57c0.804,0,1.583-0.186,2.336-0.558c1.27-0.617,1.904-1.626,1.904-3.029v-1.838
		c-0.278,0.178-0.638,0.327-1.077,0.446c-0.439,0.119-0.869,0.204-1.292,0.254l-1.382,0.177c-0.827,0.11-1.449,0.283-1.867,0.52
		c-0.706,0.397-1.06,1.03-1.06,1.9C225.422,118.839,225.663,119.358,226.146,119.739z"/>
	<path d="M239.488,117.528c0.069,0.762,0.263,1.346,0.583,1.752c0.588,0.736,1.607,1.104,3.059,1.104
		c0.863,0,1.623-0.184,2.279-0.552c0.657-0.368,0.985-0.938,0.985-1.708c0-0.584-0.263-1.028-0.787-1.333
		c-0.335-0.186-0.997-0.402-1.987-0.647l-1.845-0.457c-1.179-0.288-2.047-0.609-2.606-0.965c-0.997-0.618-1.496-1.473-1.496-2.564
		c0-1.287,0.47-2.328,1.408-3.123c0.939-0.795,2.203-1.193,3.789-1.193c2.076,0,3.572,0.601,4.49,1.803
		c0.574,0.762,0.854,1.583,0.837,2.463h-2.158c-0.044-0.513-0.229-0.98-0.559-1.401c-0.538-0.598-1.469-0.896-2.794-0.896
		c-0.885,0-1.553,0.165-2.008,0.493c-0.455,0.329-0.683,0.764-0.683,1.303c0,0.59,0.299,1.062,0.896,1.417
		c0.345,0.211,0.854,0.397,1.526,0.558l1.539,0.368c1.673,0.398,2.794,0.783,3.363,1.155c0.889,0.584,1.333,1.502,1.333,2.755
		c0,1.21-0.465,2.255-1.395,3.136s-2.346,1.32-4.248,1.32c-2.048,0-3.498-0.459-4.351-1.377c-0.854-0.918-1.309-2.055-1.369-3.409
		H239.488z"/>
	<path d="M258.417,113.565c0.525-0.067,0.876-0.287,1.054-0.659c0.102-0.204,0.152-0.497,0.152-0.879
		c0-0.781-0.276-1.349-0.83-1.701s-1.345-0.529-2.376-0.529c-1.19,0-2.035,0.323-2.533,0.97c-0.279,0.357-0.461,0.889-0.545,1.595
		h-2.133c0.043-1.681,0.586-2.85,1.629-3.507c1.045-0.658,2.256-0.987,3.633-0.987c1.598,0,2.896,0.305,3.894,0.914
		c0.989,0.609,1.483,1.557,1.483,2.844v7.833c0,0.237,0.049,0.428,0.146,0.571c0.097,0.144,0.303,0.215,0.615,0.215
		c0.102,0,0.216-0.006,0.343-0.019s0.263-0.032,0.406-0.057v1.688c-0.355,0.102-0.626,0.165-0.812,0.19s-0.44,0.038-0.762,0.038
		c-0.787,0-1.358-0.279-1.714-0.838c-0.186-0.296-0.317-0.715-0.394-1.256c-0.466,0.609-1.134,1.138-2.006,1.586
		c-0.872,0.449-1.833,0.673-2.882,0.673c-1.262,0-2.291-0.383-3.092-1.147c-0.799-0.765-1.199-1.722-1.199-2.872
		c0-1.259,0.394-2.236,1.181-2.929c0.787-0.693,1.819-1.12,3.098-1.281L258.417,113.565z M253.605,119.739
		c0.482,0.38,1.054,0.57,1.714,0.57c0.805,0,1.582-0.186,2.336-0.558c1.27-0.617,1.904-1.626,1.904-3.029v-1.838
		c-0.279,0.178-0.638,0.327-1.077,0.446c-0.438,0.119-0.87,0.204-1.292,0.254l-1.381,0.177c-0.828,0.11-1.451,0.283-1.867,0.52
		c-0.707,0.397-1.061,1.03-1.061,1.9C252.882,118.839,253.123,119.358,253.605,119.739z"/>
	<path d="M265.653,108.197h2.171v2.349c0.178-0.457,0.614-1.014,1.308-1.669s1.494-0.984,2.399-0.984
		c0.042,0,0.114,0.004,0.216,0.013s0.275,0.025,0.521,0.051v2.412c-0.136-0.025-0.261-0.042-0.374-0.051
		c-0.115-0.008-0.24-0.013-0.375-0.013c-1.15,0-2.035,0.37-2.653,1.111s-0.927,1.593-0.927,2.558v7.82h-2.285V108.197z"/>
	<path d="M283.757,108.197v9.026c0,0.694,0.107,1.261,0.322,1.701c0.395,0.812,1.133,1.219,2.213,1.219
		c1.549,0,2.604-0.711,3.164-2.133c0.306-0.762,0.458-1.807,0.458-3.136v-6.678h2.285v13.597h-2.158l0.025-2.006
		c-0.291,0.516-0.652,0.952-1.085,1.308c-0.854,0.711-1.893,1.066-3.113,1.066c-1.902,0-3.197-0.647-3.887-1.942
		c-0.373-0.694-0.561-1.621-0.561-2.78v-9.242H283.757z"/>
	<path d="M295.932,108.197h2.171v1.93c0.643-0.795,1.324-1.367,2.044-1.714s1.519-0.521,2.399-0.521c1.93,0,3.232,0.673,3.91,2.019
		c0.373,0.736,0.559,1.79,0.559,3.161v8.722h-2.323v-8.569c0-0.83-0.122-1.498-0.368-2.006c-0.406-0.846-1.143-1.27-2.209-1.27
		c-0.541,0-0.986,0.055-1.333,0.165c-0.626,0.186-1.177,0.559-1.65,1.117c-0.381,0.449-0.628,0.912-0.743,1.39
		c-0.113,0.478-0.171,1.162-0.171,2.05v7.122h-2.285V108.197z"/>
	<path d="M318.682,104.046c0.533-0.779,1.562-1.168,3.085-1.168c0.145,0,0.292,0.004,0.444,0.013s0.325,0.021,0.521,0.038v2.082
		c-0.24-0.017-0.413-0.027-0.52-0.032c-0.107-0.004-0.208-0.006-0.303-0.006c-0.701,0-1.121,0.18-1.258,0.54
		s-0.205,1.276-0.205,2.749h2.285v1.803h-2.285v11.73h-2.26v-11.73h-1.892v-1.803h1.892v-2.133
		C318.22,105.18,318.386,104.486,318.682,104.046z"/>
	<path d="M324.839,103.145h2.323v2.59h-2.323V103.145z M324.839,108.261h2.323v13.533h-2.323V108.261z"/>
	<path d="M330.615,108.197h2.171v1.93c0.643-0.795,1.324-1.367,2.044-1.714s1.519-0.521,2.399-0.521c1.93,0,3.232,0.673,3.91,2.019
		c0.373,0.736,0.559,1.79,0.559,3.161v8.722h-2.323v-8.569c0-0.83-0.122-1.498-0.368-2.006c-0.406-0.846-1.143-1.27-2.209-1.27
		c-0.541,0-0.986,0.055-1.333,0.165c-0.626,0.186-1.177,0.559-1.65,1.117c-0.381,0.449-0.628,0.912-0.743,1.39
		c-0.113,0.478-0.171,1.162-0.171,2.05v7.122h-2.285V108.197z"/>
	<path d="M74.327,139.816c0.405,0.254,0.865,0.698,1.379,1.333v-6.868h2.196v18.713h-2.057v-1.892
		c-0.531,0.838-1.159,1.443-1.884,1.815c-0.727,0.373-1.557,0.559-2.492,0.559c-1.51,0-2.816-0.637-3.92-1.911
		c-1.105-1.274-1.657-2.969-1.657-5.084c0-1.98,0.503-3.696,1.511-5.148s2.447-2.177,4.319-2.177
		C72.76,139.156,73.628,139.376,74.327,139.816z M69.227,150.011c0.614,0.982,1.601,1.473,2.956,1.473
		c1.053,0,1.918-0.455,2.596-1.365s1.017-2.215,1.017-3.917c0-1.718-0.35-2.99-1.048-3.815c-0.699-0.825-1.562-1.238-2.59-1.238
		c-1.146,0-2.074,0.44-2.785,1.32c-0.712,0.88-1.067,2.175-1.067,3.885C68.305,147.81,68.612,149.029,69.227,150.011z"/>
	<path d="M89.716,139.772c0.9,0.453,1.586,1.039,2.057,1.758c0.454,0.686,0.757,1.485,0.908,2.399
		c0.135,0.626,0.202,1.625,0.202,2.996h-9.89c0.042,1.383,0.365,2.493,0.971,3.329c0.604,0.836,1.54,1.254,2.809,1.254
		c1.184,0,2.129-0.396,2.834-1.186c0.395-0.459,0.674-0.99,0.839-1.594h2.247c-0.059,0.5-0.256,1.056-0.59,1.669
		c-0.335,0.614-0.708,1.115-1.119,1.504c-0.689,0.677-1.541,1.134-2.558,1.371c-0.546,0.135-1.163,0.203-1.853,0.203
		c-1.682,0-3.107-0.616-4.277-1.847c-1.168-1.231-1.753-2.956-1.753-5.173c0-2.184,0.589-3.957,1.767-5.319s2.717-2.044,4.617-2.044
		C87.886,139.093,88.815,139.319,89.716,139.772z M90.534,145.11c-0.092-0.99-0.307-1.782-0.643-2.374
		c-0.621-1.1-1.657-1.65-3.109-1.65c-1.04,0-1.913,0.379-2.618,1.136c-0.704,0.757-1.078,1.72-1.12,2.888H90.534z"/>
	<path d="M104.359,148.729c0.069,0.762,0.263,1.346,0.583,1.752c0.588,0.736,1.607,1.104,3.059,1.104
		c0.863,0,1.623-0.184,2.279-0.552c0.657-0.368,0.985-0.938,0.985-1.708c0-0.584-0.263-1.028-0.787-1.333
		c-0.335-0.186-0.997-0.402-1.987-0.647l-1.845-0.457c-1.179-0.288-2.047-0.609-2.606-0.965c-0.997-0.618-1.496-1.473-1.496-2.564
		c0-1.287,0.47-2.328,1.408-3.123c0.939-0.795,2.203-1.193,3.789-1.193c2.076,0,3.572,0.601,4.49,1.803
		c0.574,0.762,0.854,1.583,0.837,2.463h-2.158c-0.044-0.513-0.229-0.98-0.559-1.401c-0.538-0.598-1.469-0.896-2.794-0.896
		c-0.885,0-1.553,0.165-2.008,0.493c-0.455,0.329-0.683,0.764-0.683,1.303c0,0.59,0.299,1.062,0.896,1.417
		c0.345,0.211,0.854,0.397,1.526,0.558l1.539,0.368c1.673,0.398,2.794,0.783,3.363,1.155c0.889,0.584,1.333,1.502,1.333,2.755
		c0,1.21-0.465,2.255-1.395,3.136s-2.346,1.32-4.248,1.32c-2.048,0-3.498-0.459-4.351-1.377c-0.854-0.918-1.309-2.055-1.369-3.409
		H104.359z"/>
	<path d="M124.399,139.772c0.9,0.453,1.586,1.039,2.057,1.758c0.454,0.686,0.757,1.485,0.908,2.399
		c0.135,0.626,0.202,1.625,0.202,2.996h-9.89c0.042,1.383,0.365,2.493,0.971,3.329c0.604,0.836,1.54,1.254,2.809,1.254
		c1.184,0,2.129-0.396,2.834-1.186c0.395-0.459,0.674-0.99,0.839-1.594h2.247c-0.059,0.5-0.256,1.056-0.59,1.669
		c-0.335,0.614-0.708,1.115-1.119,1.504c-0.689,0.677-1.541,1.134-2.558,1.371c-0.546,0.135-1.163,0.203-1.853,0.203
		c-1.682,0-3.107-0.616-4.277-1.847c-1.168-1.231-1.753-2.956-1.753-5.173c0-2.184,0.589-3.957,1.767-5.319s2.717-2.044,4.617-2.044
		C122.569,139.093,123.499,139.319,124.399,139.772z M125.218,145.11c-0.092-0.99-0.307-1.782-0.643-2.374
		c-0.621-1.1-1.657-1.65-3.109-1.65c-1.04,0-1.913,0.379-2.618,1.136c-0.704,0.757-1.078,1.72-1.12,2.888H125.218z"/>
	<path d="M130.461,139.397h2.26v1.93c0.542-0.668,1.032-1.155,1.473-1.46c0.753-0.516,1.608-0.774,2.564-0.774
		c1.083,0,1.955,0.267,2.615,0.8c0.372,0.305,0.711,0.753,1.016,1.346c0.508-0.728,1.104-1.268,1.79-1.619s1.455-0.527,2.311-0.527
		c1.828,0,3.072,0.66,3.732,1.98c0.355,0.711,0.533,1.667,0.533,2.869v9.052h-2.374v-9.445c0-0.906-0.227-1.528-0.679-1.866
		c-0.453-0.338-1.006-0.508-1.657-0.508c-0.897,0-1.669,0.3-2.317,0.901c-0.646,0.601-0.971,1.604-0.971,3.009v7.909h-2.323v-8.874
		c0-0.922-0.11-1.595-0.33-2.019c-0.347-0.635-0.995-0.952-1.942-0.952c-0.863,0-1.648,0.334-2.355,1.003
		c-0.706,0.668-1.06,1.879-1.06,3.631v7.211h-2.285V139.397z"/>
	<path d="M159.406,144.766c0.524-0.067,0.876-0.287,1.054-0.659c0.102-0.204,0.152-0.497,0.152-0.879
		c0-0.781-0.277-1.349-0.83-1.701s-1.346-0.529-2.375-0.529c-1.191,0-2.036,0.323-2.534,0.97c-0.278,0.357-0.46,0.889-0.545,1.595
		h-2.133c0.042-1.681,0.585-2.85,1.63-3.507c1.043-0.658,2.254-0.987,3.633-0.987c1.598,0,2.895,0.305,3.893,0.914
		c0.988,0.609,1.483,1.557,1.483,2.844v7.833c0,0.237,0.049,0.428,0.146,0.571c0.098,0.144,0.303,0.215,0.616,0.215
		c0.102,0,0.216-0.006,0.343-0.019s0.262-0.032,0.406-0.057v1.688c-0.355,0.102-0.627,0.165-0.812,0.19s-0.439,0.038-0.762,0.038
		c-0.787,0-1.358-0.279-1.714-0.838c-0.187-0.296-0.317-0.715-0.394-1.256c-0.465,0.609-1.135,1.138-2.006,1.586
		c-0.871,0.449-1.832,0.673-2.882,0.673c-1.261,0-2.292-0.383-3.091-1.147c-0.801-0.765-1.2-1.722-1.2-2.872
		c0-1.259,0.394-2.236,1.181-2.929c0.787-0.693,1.82-1.12,3.098-1.281L159.406,144.766z M154.595,150.939
		c0.482,0.38,1.054,0.57,1.714,0.57c0.804,0,1.583-0.186,2.336-0.558c1.27-0.617,1.904-1.626,1.904-3.029v-1.838
		c-0.278,0.178-0.638,0.327-1.077,0.446c-0.439,0.119-0.869,0.204-1.292,0.254l-1.382,0.177c-0.827,0.11-1.449,0.283-1.867,0.52
		c-0.706,0.397-1.06,1.03-1.06,1.9C153.871,150.04,154.112,150.559,154.595,150.939z"/>
	<path d="M166.579,139.397h2.171v1.93c0.644-0.795,1.325-1.367,2.044-1.714s1.52-0.521,2.399-0.521c1.93,0,3.233,0.673,3.91,2.019
		c0.372,0.736,0.559,1.79,0.559,3.161v8.722h-2.323v-8.569c0-0.83-0.123-1.498-0.368-2.006c-0.406-0.846-1.143-1.27-2.209-1.27
		c-0.542,0-0.985,0.055-1.333,0.165c-0.627,0.186-1.176,0.559-1.65,1.117c-0.381,0.449-0.629,0.912-0.742,1.39
		c-0.115,0.478-0.172,1.162-0.172,2.05v7.122h-2.285V139.397z"/>
	<path d="M188.326,144.766c0.524-0.067,0.876-0.287,1.054-0.659c0.102-0.204,0.152-0.497,0.152-0.879
		c0-0.781-0.277-1.349-0.83-1.701s-1.346-0.529-2.375-0.529c-1.191,0-2.036,0.323-2.534,0.97c-0.278,0.357-0.46,0.889-0.545,1.595
		h-2.133c0.042-1.681,0.585-2.85,1.63-3.507c1.043-0.658,2.254-0.987,3.633-0.987c1.598,0,2.895,0.305,3.893,0.914
		c0.988,0.609,1.483,1.557,1.483,2.844v7.833c0,0.237,0.049,0.428,0.146,0.571c0.098,0.144,0.303,0.215,0.616,0.215
		c0.102,0,0.216-0.006,0.343-0.019s0.262-0.032,0.406-0.057v1.688c-0.355,0.102-0.627,0.165-0.812,0.19s-0.439,0.038-0.762,0.038
		c-0.787,0-1.358-0.279-1.714-0.838c-0.187-0.296-0.317-0.715-0.394-1.256c-0.465,0.609-1.135,1.138-2.006,1.586
		c-0.871,0.449-1.832,0.673-2.882,0.673c-1.261,0-2.292-0.383-3.091-1.147c-0.801-0.765-1.2-1.722-1.2-2.872
		c0-1.259,0.394-2.236,1.181-2.929c0.787-0.693,1.82-1.12,3.098-1.281L188.326,144.766z M183.515,150.939
		c0.482,0.38,1.054,0.57,1.714,0.57c0.804,0,1.583-0.186,2.336-0.558c1.27-0.617,1.904-1.626,1.904-3.029v-1.838
		c-0.278,0.178-0.638,0.327-1.077,0.446c-0.439,0.119-0.869,0.204-1.292,0.254l-1.382,0.177c-0.827,0.11-1.449,0.283-1.867,0.52
		c-0.706,0.397-1.06,1.03-1.06,1.9C182.791,150.04,183.032,150.559,183.515,150.939z"/>
	<path d="M211.121,139.772c0.899,0.453,1.585,1.039,2.057,1.758c0.454,0.686,0.757,1.485,0.908,2.399
		c0.135,0.626,0.202,1.625,0.202,2.996h-9.89c0.042,1.383,0.365,2.493,0.97,3.329c0.605,0.836,1.541,1.254,2.809,1.254
		c1.185,0,2.129-0.396,2.835-1.186c0.395-0.459,0.675-0.99,0.839-1.594h2.247c-0.06,0.5-0.256,1.056-0.591,1.669
		c-0.334,0.614-0.707,1.115-1.118,1.504c-0.688,0.677-1.542,1.134-2.558,1.371c-0.547,0.135-1.164,0.203-1.853,0.203
		c-1.683,0-3.107-0.616-4.276-1.847c-1.17-1.231-1.754-2.956-1.754-5.173c0-2.184,0.589-3.957,1.767-5.319
		c1.177-1.363,2.717-2.044,4.618-2.044C209.292,139.093,210.221,139.319,211.121,139.772z M211.939,145.11
		c-0.093-0.99-0.307-1.782-0.642-2.374c-0.621-1.1-1.658-1.65-3.109-1.65c-1.041,0-1.914,0.379-2.619,1.136s-1.078,1.72-1.12,2.888
		H211.939z"/>
	<path d="M215.888,139.397h2.958l3.123,4.786l3.161-4.786l2.78,0.063l-4.583,6.563l4.786,6.97h-2.92l-3.377-5.104l-3.275,5.104
		h-2.895l4.786-6.97L215.888,139.397z"/>
	<path d="M230.64,135.602h2.311v3.796h2.171v1.866h-2.171v8.874c0,0.474,0.16,0.792,0.482,0.952c0.178,0.093,0.475,0.14,0.889,0.14
		c0.109,0,0.229-0.003,0.355-0.008s0.275-0.02,0.444-0.042v1.815c-0.263,0.076-0.535,0.131-0.819,0.165
		c-0.283,0.034-0.59,0.051-0.92,0.051c-1.066,0-1.79-0.273-2.171-0.819s-0.571-1.255-0.571-2.126v-9.001h-1.841v-1.866h1.841
		V135.602z"/>
	<path d="M237.47,139.397h2.171v2.349c0.178-0.457,0.614-1.014,1.308-1.669s1.494-0.984,2.399-0.984
		c0.042,0,0.114,0.004,0.216,0.013s0.275,0.025,0.521,0.051v2.412c-0.136-0.025-0.261-0.042-0.374-0.051
		c-0.115-0.008-0.24-0.013-0.375-0.013c-1.15,0-2.035,0.37-2.653,1.111s-0.927,1.593-0.927,2.558v7.82h-2.285V139.397z"/>
	<path d="M253.352,144.766c0.524-0.067,0.876-0.287,1.054-0.659c0.102-0.204,0.152-0.497,0.152-0.879
		c0-0.781-0.277-1.349-0.83-1.701s-1.346-0.529-2.375-0.529c-1.191,0-2.036,0.323-2.534,0.97c-0.278,0.357-0.46,0.889-0.545,1.595
		h-2.133c0.042-1.681,0.585-2.85,1.63-3.507c1.043-0.658,2.254-0.987,3.633-0.987c1.598,0,2.895,0.305,3.893,0.914
		c0.988,0.609,1.483,1.557,1.483,2.844v7.833c0,0.237,0.049,0.428,0.146,0.571c0.098,0.144,0.303,0.215,0.616,0.215
		c0.102,0,0.216-0.006,0.343-0.019s0.262-0.032,0.406-0.057v1.688c-0.355,0.102-0.627,0.165-0.812,0.19s-0.439,0.038-0.762,0.038
		c-0.787,0-1.358-0.279-1.714-0.838c-0.187-0.296-0.317-0.715-0.394-1.256c-0.465,0.609-1.135,1.138-2.006,1.586
		c-0.871,0.449-1.832,0.673-2.882,0.673c-1.261,0-2.292-0.383-3.091-1.147c-0.801-0.765-1.2-1.722-1.2-2.872
		c0-1.259,0.394-2.236,1.181-2.929c0.787-0.693,1.82-1.12,3.098-1.281L253.352,144.766z M248.54,150.939
		c0.482,0.38,1.054,0.57,1.714,0.57c0.804,0,1.583-0.186,2.336-0.558c1.27-0.617,1.904-1.626,1.904-3.029v-1.838
		c-0.278,0.178-0.638,0.327-1.077,0.446c-0.439,0.119-0.869,0.204-1.292,0.254l-1.382,0.177c-0.827,0.11-1.449,0.283-1.867,0.52
		c-0.706,0.397-1.06,1.03-1.06,1.9C247.816,150.04,248.058,150.559,248.54,150.939z"/>
	<path d="M270.376,140.754c1.201,1.167,1.803,2.883,1.803,5.149c0,2.19-0.529,4-1.588,5.429c-1.06,1.429-2.703,2.144-4.93,2.144
		c-1.857,0-3.332-0.632-4.425-1.896s-1.639-2.962-1.639-5.093c0-2.283,0.575-4.102,1.728-5.455c1.15-1.353,2.697-2.029,4.639-2.029
		C267.704,139.004,269.175,139.587,270.376,140.754z M268.957,149.791c0.557-1.145,0.835-2.419,0.835-3.823
		c0-1.268-0.201-2.299-0.603-3.094c-0.636-1.251-1.732-1.877-3.289-1.877c-1.381,0-2.386,0.533-3.013,1.598
		c-0.627,1.065-0.941,2.35-0.941,3.855c0,1.445,0.314,2.65,0.941,3.614c0.627,0.963,1.623,1.445,2.988,1.445
		C267.374,151.509,268.4,150.936,268.957,149.791z"/>
	<path d="M275.048,139.397h2.171v2.349c0.178-0.457,0.614-1.014,1.308-1.669s1.494-0.984,2.399-0.984
		c0.042,0,0.114,0.004,0.216,0.013s0.275,0.025,0.521,0.051v2.412c-0.136-0.025-0.261-0.042-0.374-0.051
		c-0.115-0.008-0.24-0.013-0.375-0.013c-1.15,0-2.035,0.37-2.653,1.111s-0.927,1.593-0.927,2.558v7.82h-2.285V139.397z"/>
	<path d="M291.112,139.816c0.405,0.254,0.865,0.698,1.379,1.333v-6.868h2.196v18.713h-2.057v-1.892
		c-0.531,0.838-1.159,1.443-1.884,1.815c-0.727,0.373-1.557,0.559-2.492,0.559c-1.51,0-2.816-0.637-3.92-1.911
		c-1.105-1.274-1.657-2.969-1.657-5.084c0-1.98,0.503-3.696,1.511-5.148s2.447-2.177,4.319-2.177
		C289.545,139.156,290.413,139.376,291.112,139.816z M286.012,150.011c0.614,0.982,1.601,1.473,2.956,1.473
		c1.053,0,1.918-0.455,2.596-1.365s1.017-2.215,1.017-3.917c0-1.718-0.35-2.99-1.048-3.815c-0.699-0.825-1.562-1.238-2.59-1.238
		c-1.146,0-2.074,0.44-2.785,1.32c-0.712,0.88-1.067,2.175-1.067,3.885C285.09,147.81,285.397,149.029,286.012,150.011z"/>
	<path d="M298.103,134.345h2.323v2.59h-2.323V134.345z M298.103,139.461h2.323v13.533h-2.323V139.461z"/>
	<path d="M303.879,139.397h2.171v1.93c0.643-0.795,1.324-1.367,2.044-1.714s1.519-0.521,2.399-0.521c1.93,0,3.232,0.673,3.91,2.019
		c0.373,0.736,0.559,1.79,0.559,3.161v8.722h-2.323v-8.569c0-0.83-0.122-1.498-0.368-2.006c-0.406-0.846-1.143-1.27-2.209-1.27
		c-0.541,0-0.986,0.055-1.333,0.165c-0.626,0.186-1.177,0.559-1.65,1.117c-0.381,0.449-0.628,0.912-0.743,1.39
		c-0.113,0.478-0.171,1.162-0.171,2.05v7.122h-2.285V139.397z"/>
	<path d="M325.626,144.766c0.525-0.067,0.876-0.287,1.054-0.659c0.102-0.204,0.152-0.497,0.152-0.879
		c0-0.781-0.276-1.349-0.83-1.701s-1.345-0.529-2.376-0.529c-1.19,0-2.035,0.323-2.533,0.97c-0.279,0.357-0.461,0.889-0.545,1.595
		h-2.133c0.043-1.681,0.586-2.85,1.629-3.507c1.045-0.658,2.256-0.987,3.633-0.987c1.598,0,2.896,0.305,3.894,0.914
		c0.989,0.609,1.483,1.557,1.483,2.844v7.833c0,0.237,0.049,0.428,0.146,0.571c0.097,0.144,0.303,0.215,0.615,0.215
		c0.102,0,0.216-0.006,0.343-0.019s0.263-0.032,0.406-0.057v1.688c-0.355,0.102-0.626,0.165-0.812,0.19s-0.44,0.038-0.762,0.038
		c-0.787,0-1.358-0.279-1.714-0.838c-0.186-0.296-0.317-0.715-0.394-1.256c-0.466,0.609-1.134,1.138-2.006,1.586
		c-0.872,0.449-1.833,0.673-2.882,0.673c-1.262,0-2.291-0.383-3.092-1.147c-0.799-0.765-1.199-1.722-1.199-2.872
		c0-1.259,0.394-2.236,1.181-2.929c0.787-0.693,1.819-1.12,3.098-1.281L325.626,144.766z M320.814,150.939
		c0.482,0.38,1.054,0.57,1.714,0.57c0.805,0,1.582-0.186,2.336-0.558c1.27-0.617,1.904-1.626,1.904-3.029v-1.838
		c-0.279,0.178-0.638,0.327-1.077,0.446c-0.438,0.119-0.87,0.204-1.292,0.254l-1.381,0.177c-0.828,0.11-1.451,0.283-1.867,0.52
		c-0.707,0.397-1.061,1.03-1.061,1.9C320.091,150.04,320.332,150.559,320.814,150.939z"/>
	<path d="M332.862,139.397h2.171v2.349c0.178-0.457,0.614-1.014,1.308-1.669s1.494-0.984,2.399-0.984
		c0.042,0,0.114,0.004,0.216,0.013s0.275,0.025,0.521,0.051v2.412c-0.136-0.025-0.261-0.042-0.374-0.051
		c-0.115-0.008-0.24-0.013-0.375-0.013c-1.15,0-2.035,0.37-2.653,1.111s-0.927,1.593-0.927,2.558v7.82h-2.285V139.397z"/>
	<path d="M341.457,134.345h2.323v2.59h-2.323V134.345z M341.457,139.461h2.323v13.533h-2.323V139.461z"/>
	<path d="M357.085,140.754c1.201,1.167,1.803,2.883,1.803,5.149c0,2.19-0.529,4-1.588,5.429c-1.06,1.429-2.703,2.144-4.93,2.144
		c-1.857,0-3.332-0.632-4.425-1.896s-1.639-2.962-1.639-5.093c0-2.283,0.575-4.102,1.728-5.455c1.15-1.353,2.697-2.029,4.639-2.029
		C354.413,139.004,355.884,139.587,357.085,140.754z M355.666,149.791c0.557-1.145,0.835-2.419,0.835-3.823
		c0-1.268-0.201-2.299-0.603-3.094c-0.636-1.251-1.732-1.877-3.289-1.877c-1.381,0-2.386,0.533-3.013,1.598
		c-0.627,1.065-0.941,2.35-0.941,3.855c0,1.445,0.314,2.65,0.941,3.614c0.627,0.963,1.623,1.445,2.988,1.445
		C354.083,151.509,355.109,150.936,355.666,149.791z"/>
	<path d="M42.127,170.597h2.526c-0.322,0.872-1.037,2.862-2.146,5.97c-0.829,2.337-1.523,4.242-2.082,5.715
		c-1.319,3.467-2.249,5.582-2.79,6.343c-0.541,0.761-1.472,1.142-2.791,1.142c-0.321,0-0.568-0.013-0.742-0.038
		c-0.173-0.025-0.387-0.072-0.641-0.14v-2.082c0.397,0.11,0.686,0.178,0.862,0.203s0.333,0.038,0.47,0.038
		c0.422,0,0.732-0.07,0.931-0.209c0.198-0.14,0.366-0.311,0.501-0.513c0.042-0.068,0.193-0.414,0.456-1.039
		c0.262-0.625,0.452-1.09,0.57-1.394l-5.027-13.997h2.59l3.644,11.075L42.127,170.597z"/>
	<path d="M54.975,170.597l3.631,11.07l3.783-11.07h2.501l-5.119,13.597h-2.435l-5.015-13.597H54.975z"/>
	<path d="M66.851,165.544h2.324v2.59h-2.324V165.544z M66.851,170.661h2.324v13.533h-2.324V170.661z"/>
	<path d="M73.751,170.597l3.631,11.07l3.783-11.07h2.501l-5.118,13.597h-2.436l-5.015-13.597H73.751z"/>
	<path d="M94.026,170.972c0.899,0.453,1.585,1.039,2.057,1.758c0.453,0.686,0.756,1.485,0.908,2.399
		c0.135,0.626,0.201,1.625,0.201,2.996h-9.889c0.041,1.383,0.365,2.493,0.97,3.329s1.54,1.254,2.809,1.254
		c1.185,0,2.129-0.396,2.835-1.186c0.395-0.459,0.674-0.99,0.838-1.594h2.248c-0.06,0.5-0.256,1.056-0.591,1.669
		s-0.708,1.115-1.118,1.504c-0.689,0.677-1.542,1.134-2.559,1.371c-0.546,0.135-1.163,0.203-1.852,0.203
		c-1.683,0-3.107-0.616-4.277-1.847c-1.169-1.231-1.754-2.956-1.754-5.173c0-2.184,0.59-3.957,1.768-5.319
		c1.177-1.363,2.717-2.044,4.617-2.044C92.196,170.292,93.126,170.519,94.026,170.972z M94.845,176.31
		c-0.093-0.99-0.307-1.782-0.643-2.374c-0.621-1.1-1.658-1.65-3.109-1.65c-1.041,0-1.914,0.379-2.619,1.136
		c-0.704,0.757-1.078,1.72-1.119,2.888H94.845z"/>
	<path d="M107.374,165.544h2.285v18.649h-2.285V165.544z"/>
	<path d="M120.374,175.965c0.525-0.067,0.877-0.287,1.055-0.659c0.102-0.204,0.152-0.497,0.152-0.879
		c0-0.781-0.277-1.349-0.83-1.701c-0.554-0.353-1.346-0.529-2.376-0.529c-1.19,0-2.036,0.323-2.534,0.97
		c-0.278,0.357-0.46,0.889-0.545,1.595h-2.133c0.043-1.681,0.586-2.85,1.63-3.507s2.255-0.987,3.633-0.987
		c1.598,0,2.896,0.305,3.894,0.914c0.988,0.609,1.482,1.557,1.482,2.844v7.833c0,0.237,0.049,0.428,0.146,0.571
		s0.303,0.215,0.615,0.215c0.102,0,0.217-0.006,0.344-0.019s0.262-0.032,0.406-0.057v1.688c-0.355,0.102-0.627,0.165-0.812,0.19
		c-0.187,0.025-0.44,0.038-0.762,0.038c-0.787,0-1.359-0.279-1.715-0.838c-0.186-0.296-0.316-0.715-0.393-1.256
		c-0.466,0.609-1.135,1.138-2.006,1.586c-0.872,0.449-1.833,0.673-2.883,0.673c-1.261,0-2.291-0.383-3.091-1.147
		c-0.8-0.765-1.2-1.722-1.2-2.872c0-1.259,0.395-2.236,1.182-2.929c0.787-0.693,1.819-1.12,3.098-1.281L120.374,175.965z
		 M115.563,182.139c0.482,0.38,1.053,0.57,1.713,0.57c0.805,0,1.583-0.186,2.336-0.558c1.27-0.617,1.904-1.626,1.904-3.029v-1.838
		c-0.278,0.178-0.637,0.327-1.076,0.446c-0.439,0.119-0.87,0.204-1.293,0.254l-1.381,0.177c-0.828,0.11-1.45,0.283-1.867,0.52
		c-0.707,0.397-1.061,1.03-1.061,1.9C114.839,181.239,115.081,181.758,115.563,182.139z"/>
	<path d="M143.169,170.972c0.9,0.453,1.586,1.039,2.057,1.758c0.455,0.686,0.758,1.485,0.908,2.399
		c0.135,0.626,0.203,1.625,0.203,2.996h-9.891c0.043,1.383,0.365,2.493,0.971,3.329c0.604,0.836,1.541,1.254,2.809,1.254
		c1.184,0,2.129-0.396,2.834-1.186c0.395-0.459,0.675-0.99,0.84-1.594h2.246c-0.059,0.5-0.256,1.056-0.59,1.669
		s-0.707,1.115-1.119,1.504c-0.688,0.677-1.541,1.134-2.557,1.371c-0.547,0.135-1.164,0.203-1.854,0.203
		c-1.682,0-3.107-0.616-4.276-1.847s-1.753-2.956-1.753-5.173c0-2.184,0.588-3.957,1.766-5.319s2.717-2.044,4.618-2.044
		C141.34,170.292,142.269,170.519,143.169,170.972z M143.987,176.31c-0.092-0.99-0.307-1.782-0.642-2.374
		c-0.621-1.1-1.657-1.65-3.109-1.65c-1.04,0-1.913,0.379-2.618,1.136s-1.078,1.72-1.121,2.888H143.987z"/>
	<path d="M147.937,170.597h2.957l3.123,4.786l3.162-4.786l2.779,0.063l-4.582,6.563l4.785,6.97h-2.92l-3.377-5.104l-3.275,5.104
		h-2.895l4.787-6.97L147.937,170.597z"/>
	<path d="M162.04,170.661h2.234v1.803c0.459-0.618,0.959-1.096,1.502-1.435c0.772-0.508,1.681-0.762,2.725-0.762
		c1.544,0,2.855,0.59,3.933,1.771s1.616,2.867,1.616,5.059c0,2.962-0.777,5.078-2.332,6.348c-0.985,0.804-2.133,1.206-3.441,1.206
		c-1.027,0-1.891-0.224-2.587-0.673c-0.407-0.254-0.862-0.69-1.364-1.308v6.944h-2.285V170.661z M170.638,181.318
		c0.709-0.893,1.064-2.228,1.064-4.005c0-1.083-0.158-2.014-0.472-2.793c-0.595-1.498-1.682-2.247-3.261-2.247
		c-1.588,0-2.676,0.792-3.262,2.374c-0.314,0.846-0.471,1.921-0.471,3.225c0,1.049,0.156,1.942,0.471,2.679
		c0.594,1.405,1.682,2.107,3.262,2.107C169.039,182.658,169.929,182.211,170.638,181.318z"/>
	<path d="M185.089,170.972c0.9,0.453,1.586,1.039,2.057,1.758c0.455,0.686,0.758,1.485,0.908,2.399
		c0.135,0.626,0.203,1.625,0.203,2.996h-9.891c0.043,1.383,0.365,2.493,0.971,3.329c0.604,0.836,1.541,1.254,2.809,1.254
		c1.184,0,2.129-0.396,2.834-1.186c0.395-0.459,0.675-0.99,0.84-1.594h2.246c-0.059,0.5-0.256,1.056-0.59,1.669
		s-0.707,1.115-1.119,1.504c-0.688,0.677-1.541,1.134-2.557,1.371c-0.547,0.135-1.164,0.203-1.854,0.203
		c-1.682,0-3.107-0.616-4.276-1.847s-1.753-2.956-1.753-5.173c0-2.184,0.588-3.957,1.766-5.319s2.717-2.044,4.618-2.044
		C183.26,170.292,184.188,170.519,185.089,170.972z M185.907,176.31c-0.092-0.99-0.307-1.782-0.642-2.374
		c-0.621-1.1-1.657-1.65-3.109-1.65c-1.04,0-1.913,0.379-2.618,1.136s-1.078,1.72-1.121,2.888H185.907z"/>
	<path d="M191.214,170.597h2.172v2.349c0.178-0.457,0.613-1.014,1.307-1.669c0.694-0.656,1.494-0.984,2.4-0.984
		c0.042,0,0.113,0.004,0.215,0.013s0.275,0.025,0.521,0.051v2.412c-0.136-0.025-0.261-0.042-0.375-0.051s-0.239-0.013-0.375-0.013
		c-1.15,0-2.035,0.37-2.652,1.111c-0.618,0.741-0.928,1.593-0.928,2.558v7.82h-2.285V170.597z"/>
	<path d="M199.81,165.544h2.322v2.59h-2.322V165.544z M199.81,170.661h2.322v13.533h-2.322V170.661z"/>
	<path d="M213.983,170.972c0.9,0.453,1.586,1.039,2.057,1.758c0.455,0.686,0.758,1.485,0.908,2.399
		c0.135,0.626,0.203,1.625,0.203,2.996h-9.891c0.043,1.383,0.365,2.493,0.971,3.329c0.604,0.836,1.541,1.254,2.809,1.254
		c1.184,0,2.129-0.396,2.834-1.186c0.395-0.459,0.675-0.99,0.84-1.594h2.246c-0.059,0.5-0.256,1.056-0.59,1.669
		s-0.707,1.115-1.119,1.504c-0.688,0.677-1.541,1.134-2.557,1.371c-0.547,0.135-1.164,0.203-1.854,0.203
		c-1.682,0-3.107-0.616-4.276-1.847s-1.753-2.956-1.753-5.173c0-2.184,0.588-3.957,1.766-5.319s2.717-2.044,4.618-2.044
		C212.154,170.292,213.083,170.519,213.983,170.972z M214.802,176.31c-0.092-0.99-0.307-1.782-0.642-2.374
		c-0.621-1.1-1.657-1.65-3.109-1.65c-1.04,0-1.913,0.379-2.618,1.136s-1.078,1.72-1.121,2.888H214.802z"/>
	<path d="M220.046,170.597h2.17v1.93c0.644-0.795,1.325-1.367,2.045-1.714c0.719-0.347,1.519-0.521,2.398-0.521
		c1.93,0,3.233,0.673,3.91,2.019c0.373,0.736,0.559,1.79,0.559,3.161v8.722h-2.322v-8.569c0-0.83-0.123-1.498-0.369-2.006
		c-0.406-0.846-1.143-1.27-2.209-1.27c-0.541,0-0.985,0.055-1.332,0.165c-0.627,0.186-1.177,0.559-1.65,1.117
		c-0.381,0.449-0.629,0.912-0.743,1.39s-0.171,1.162-0.171,2.05v7.122h-2.285V170.597z"/>
	<path d="M243.487,171.321c0.961,0.745,1.538,2.027,1.732,3.847h-2.221c-0.136-0.838-0.445-1.534-0.928-2.088
		s-1.256-0.832-2.322-0.832c-1.456,0-2.497,0.71-3.123,2.13c-0.406,0.921-0.609,2.058-0.609,3.411c0,1.361,0.287,2.506,0.863,3.437
		c0.575,0.93,1.48,1.395,2.717,1.395c0.947,0,1.699-0.289,2.253-0.866s0.938-1.368,1.149-2.371h2.221
		c-0.254,1.803-0.889,3.121-1.904,3.955s-2.314,1.25-3.896,1.25c-1.777,0-3.195-0.649-4.254-1.949
		c-1.058-1.299-1.586-2.922-1.586-4.869c0-2.387,0.579-4.245,1.738-5.573c1.16-1.329,2.637-1.993,4.432-1.993
		C241.28,170.204,242.526,170.576,243.487,171.321z"/>
	<path d="M247.505,165.544h2.324v2.59h-2.324V165.544z M247.505,170.661h2.324v13.533h-2.324V170.661z"/>
	<path d="M260.569,175.965c0.524-0.067,0.875-0.287,1.053-0.659c0.102-0.204,0.152-0.497,0.152-0.879
		c0-0.781-0.276-1.349-0.83-1.701c-0.553-0.353-1.345-0.529-2.375-0.529c-1.191,0-2.035,0.323-2.533,0.97
		c-0.279,0.357-0.461,0.889-0.545,1.595h-2.133c0.042-1.681,0.585-2.85,1.629-3.507s2.255-0.987,3.633-0.987
		c1.598,0,2.896,0.305,3.893,0.914c0.989,0.609,1.484,1.557,1.484,2.844v7.833c0,0.237,0.049,0.428,0.146,0.571
		s0.303,0.215,0.616,0.215c0.102,0,0.215-0.006,0.342-0.019s0.263-0.032,0.406-0.057v1.688c-0.355,0.102-0.626,0.165-0.812,0.19
		c-0.186,0.025-0.439,0.038-0.762,0.038c-0.787,0-1.357-0.279-1.713-0.838c-0.187-0.296-0.318-0.715-0.395-1.256
		c-0.465,0.609-1.134,1.138-2.006,1.586c-0.871,0.449-1.832,0.673-2.881,0.673c-1.262,0-2.292-0.383-3.092-1.147
		c-0.8-0.765-1.199-1.722-1.199-2.872c0-1.259,0.393-2.236,1.18-2.929c0.787-0.693,1.82-1.12,3.098-1.281L260.569,175.965z
		 M255.757,182.139c0.482,0.38,1.055,0.57,1.715,0.57c0.804,0,1.582-0.186,2.336-0.558c1.27-0.617,1.904-1.626,1.904-3.029v-1.838
		c-0.279,0.178-0.639,0.327-1.078,0.446c-0.438,0.119-0.869,0.204-1.291,0.254l-1.382,0.177c-0.827,0.11-1.45,0.283-1.867,0.52
		c-0.706,0.397-1.06,1.03-1.06,1.9C255.034,181.239,255.274,181.758,255.757,182.139z"/>
	<path d="M282.436,171.016c0.405,0.254,0.864,0.698,1.378,1.333v-6.868h2.197v18.713h-2.057v-1.892
		c-0.531,0.838-1.16,1.443-1.885,1.815c-0.726,0.373-1.556,0.559-2.492,0.559c-1.509,0-2.815-0.637-3.92-1.911
		s-1.656-2.969-1.656-5.084c0-1.98,0.503-3.696,1.511-5.148c1.007-1.452,2.446-2.177,4.319-2.177
		C280.868,170.356,281.735,170.576,282.436,171.016z M277.335,181.21c0.614,0.982,1.6,1.473,2.955,1.473
		c1.053,0,1.918-0.455,2.596-1.365s1.018-2.215,1.018-3.917c0-1.718-0.35-2.99-1.049-3.815s-1.562-1.238-2.59-1.238
		c-1.145,0-2.073,0.44-2.785,1.32c-0.711,0.88-1.066,2.175-1.066,3.885C276.413,179.01,276.72,180.229,277.335,181.21z"/>
	<path d="M297.823,170.972c0.9,0.453,1.586,1.039,2.057,1.758c0.455,0.686,0.758,1.485,0.908,2.399
		c0.135,0.626,0.203,1.625,0.203,2.996h-9.891c0.043,1.383,0.365,2.493,0.971,3.329c0.604,0.836,1.541,1.254,2.809,1.254
		c1.184,0,2.129-0.396,2.834-1.186c0.395-0.459,0.675-0.99,0.84-1.594h2.246c-0.059,0.5-0.256,1.056-0.59,1.669
		s-0.707,1.115-1.119,1.504c-0.688,0.677-1.541,1.134-2.557,1.371c-0.547,0.135-1.164,0.203-1.854,0.203
		c-1.682,0-3.107-0.616-4.276-1.847s-1.753-2.956-1.753-5.173c0-2.184,0.588-3.957,1.766-5.319s2.717-2.044,4.618-2.044
		C295.994,170.292,296.923,170.519,297.823,170.972z M298.642,176.31c-0.092-0.99-0.307-1.782-0.642-2.374
		c-0.621-1.1-1.657-1.65-3.109-1.65c-1.04,0-1.913,0.379-2.618,1.136s-1.078,1.72-1.121,2.888H298.642z"/>
	<path d="M303.948,165.544h2.285v18.649h-2.285V165.544z"/>
	<path d="M325.867,171.321c0.96,0.745,1.538,2.027,1.733,3.847h-2.223c-0.135-0.838-0.443-1.534-0.926-2.088
		s-1.258-0.832-2.324-0.832c-1.455,0-2.496,0.71-3.123,2.13c-0.406,0.921-0.609,2.058-0.609,3.411c0,1.361,0.288,2.506,0.863,3.437
		c0.576,0.93,1.481,1.395,2.717,1.395c0.948,0,1.699-0.289,2.254-0.866s0.938-1.368,1.148-2.371h2.223
		c-0.254,1.803-0.889,3.121-1.904,3.955s-2.315,1.25-3.898,1.25c-1.777,0-3.194-0.649-4.252-1.949
		c-1.059-1.299-1.588-2.922-1.588-4.869c0-2.387,0.58-4.245,1.74-5.573c1.159-1.329,2.636-1.993,4.43-1.993
		C323.66,170.204,324.907,170.576,325.867,171.321z"/>
	<path d="M337.173,175.965c0.524-0.067,0.875-0.287,1.053-0.659c0.102-0.204,0.152-0.497,0.152-0.879
		c0-0.781-0.276-1.349-0.83-1.701c-0.553-0.353-1.345-0.529-2.375-0.529c-1.191,0-2.035,0.323-2.533,0.97
		c-0.279,0.357-0.461,0.889-0.545,1.595h-2.133c0.042-1.681,0.585-2.85,1.629-3.507s2.255-0.987,3.633-0.987
		c1.598,0,2.896,0.305,3.893,0.914c0.989,0.609,1.484,1.557,1.484,2.844v7.833c0,0.237,0.049,0.428,0.146,0.571
		s0.303,0.215,0.616,0.215c0.102,0,0.215-0.006,0.342-0.019s0.263-0.032,0.406-0.057v1.688c-0.355,0.102-0.626,0.165-0.812,0.19
		c-0.186,0.025-0.439,0.038-0.762,0.038c-0.787,0-1.357-0.279-1.713-0.838c-0.187-0.296-0.318-0.715-0.395-1.256
		c-0.465,0.609-1.134,1.138-2.006,1.586c-0.871,0.449-1.832,0.673-2.881,0.673c-1.262,0-2.292-0.383-3.092-1.147
		c-0.8-0.765-1.199-1.722-1.199-2.872c0-1.259,0.393-2.236,1.18-2.929c0.787-0.693,1.82-1.12,3.098-1.281L337.173,175.965z
		 M332.36,182.139c0.482,0.38,1.055,0.57,1.715,0.57c0.804,0,1.582-0.186,2.336-0.558c1.27-0.617,1.904-1.626,1.904-3.029v-1.838
		c-0.279,0.178-0.639,0.327-1.078,0.446c-0.438,0.119-0.869,0.204-1.291,0.254l-1.382,0.177c-0.827,0.11-1.45,0.283-1.867,0.52
		c-0.706,0.397-1.06,1.03-1.06,1.9C331.638,181.239,331.878,181.758,332.36,182.139z"/>
	<path d="M344.345,170.597h2.26v1.93c0.542-0.668,1.033-1.155,1.473-1.46c0.754-0.516,1.608-0.774,2.564-0.774
		c1.084,0,1.955,0.267,2.615,0.8c0.373,0.305,0.711,0.753,1.016,1.346c0.508-0.728,1.105-1.268,1.791-1.619s1.455-0.527,2.311-0.527
		c1.828,0,3.072,0.66,3.732,1.98c0.355,0.711,0.533,1.667,0.533,2.869v9.052h-2.375v-9.445c0-0.906-0.227-1.528-0.679-1.866
		s-1.005-0.508-1.657-0.508c-0.896,0-1.669,0.3-2.316,0.901s-0.971,1.604-0.971,3.009v7.909h-2.324v-8.874
		c0-0.922-0.109-1.595-0.33-2.019c-0.347-0.635-0.994-0.952-1.941-0.952c-0.863,0-1.648,0.334-2.355,1.003s-1.061,1.879-1.061,3.631
		v7.211h-2.285V170.597z"/>
	<path d="M365.813,170.661h2.234v1.803c0.457-0.618,0.959-1.096,1.502-1.435c0.771-0.508,1.68-0.762,2.723-0.762
		c1.545,0,2.855,0.59,3.934,1.771s1.617,2.867,1.617,5.059c0,2.962-0.777,5.078-2.333,6.348c-0.985,0.804-2.133,1.206-3.44,1.206
		c-1.029,0-1.891-0.224-2.588-0.673c-0.408-0.254-0.862-0.69-1.363-1.308v6.944h-2.285V170.661z M374.411,181.318
		c0.709-0.893,1.062-2.228,1.062-4.005c0-1.083-0.156-2.014-0.471-2.793c-0.595-1.498-1.682-2.247-3.262-2.247
		c-1.588,0-2.675,0.792-3.261,2.374c-0.313,0.846-0.472,1.921-0.472,3.225c0,1.049,0.158,1.942,0.472,2.679
		c0.595,1.405,1.682,2.107,3.261,2.107C372.812,182.658,373.701,182.211,374.411,181.318z"/>
	<path d="M390.315,171.954c1.201,1.167,1.803,2.883,1.803,5.149c0,2.19-0.53,4-1.589,5.429c-1.06,1.429-2.702,2.144-4.929,2.144
		c-1.857,0-3.332-0.632-4.426-1.896c-1.092-1.264-1.639-2.962-1.639-5.093c0-2.283,0.576-4.102,1.728-5.455
		c1.151-1.353,2.698-2.029,4.64-2.029C387.643,170.204,389.113,170.787,390.315,171.954z M388.896,180.99
		c0.557-1.145,0.836-2.419,0.836-3.823c0-1.268-0.201-2.299-0.604-3.094c-0.636-1.251-1.732-1.877-3.289-1.877
		c-1.381,0-2.385,0.533-3.012,1.598c-0.628,1.065-0.941,2.35-0.941,3.855c0,1.445,0.313,2.65,0.941,3.614
		c0.627,0.963,1.623,1.445,2.987,1.445C387.312,182.708,388.339,182.136,388.896,180.99z"/>
	<path d="M57.069,202.521c0.961,0.745,1.538,2.027,1.732,3.847h-2.221c-0.136-0.838-0.445-1.534-0.928-2.088
		s-1.256-0.832-2.322-0.832c-1.456,0-2.497,0.71-3.123,2.13c-0.406,0.921-0.609,2.058-0.609,3.411c0,1.361,0.287,2.506,0.863,3.437
		c0.575,0.93,1.48,1.395,2.717,1.395c0.947,0,1.699-0.289,2.253-0.866s0.938-1.368,1.149-2.371h2.221
		c-0.254,1.803-0.889,3.121-1.904,3.955s-2.314,1.25-3.896,1.25c-1.777,0-3.195-0.649-4.254-1.949
		c-1.058-1.299-1.586-2.922-1.586-4.869c0-2.387,0.579-4.245,1.738-5.573c1.16-1.329,2.637-1.993,4.432-1.993
		C54.862,201.404,56.108,201.776,57.069,202.521z"/>
	<path d="M70.938,203.154c1.202,1.167,1.803,2.883,1.803,5.149c0,2.19-0.529,4-1.588,5.429s-2.702,2.144-4.93,2.144
		c-1.857,0-3.332-0.632-4.424-1.896c-1.094-1.264-1.639-2.962-1.639-5.093c0-2.283,0.575-4.102,1.727-5.455
		c1.151-1.353,2.697-2.029,4.639-2.029C68.267,201.404,69.737,201.987,70.938,203.154z M69.521,212.19
		c0.557-1.145,0.834-2.419,0.834-3.823c0-1.268-0.201-2.299-0.602-3.094c-0.637-1.251-1.732-1.877-3.289-1.877
		c-1.381,0-2.386,0.533-3.014,1.598c-0.627,1.065-0.941,2.35-0.941,3.855c0,1.445,0.314,2.65,0.941,3.614
		c0.628,0.963,1.624,1.445,2.988,1.445C67.937,213.909,68.964,213.336,69.521,212.19z"/>
	<path d="M75.548,201.797h2.17v1.93c0.644-0.795,1.325-1.367,2.045-1.714c0.719-0.347,1.519-0.521,2.398-0.521
		c1.93,0,3.233,0.673,3.91,2.019c0.373,0.736,0.559,1.79,0.559,3.161v8.722h-2.322v-8.569c0-0.83-0.123-1.498-0.369-2.006
		c-0.406-0.846-1.143-1.27-2.209-1.27c-0.541,0-0.985,0.055-1.332,0.165c-0.627,0.186-1.177,0.559-1.65,1.117
		c-0.381,0.449-0.629,0.912-0.743,1.39s-0.171,1.162-0.171,2.05v7.122h-2.285V201.797z"/>
	<path d="M97.688,198.001h2.311v3.796h2.17v1.866h-2.17v8.874c0,0.474,0.16,0.792,0.482,0.952c0.178,0.093,0.474,0.14,0.889,0.14
		c0.109,0,0.229-0.003,0.355-0.008s0.274-0.02,0.443-0.042v1.815c-0.262,0.076-0.535,0.131-0.818,0.165s-0.59,0.051-0.92,0.051
		c-1.066,0-1.791-0.273-2.172-0.819s-0.57-1.255-0.57-2.126v-9.001h-1.842v-1.866h1.842V198.001z"/>
	<path d="M106.739,201.797v9.026c0,0.694,0.107,1.261,0.322,1.701c0.396,0.812,1.133,1.219,2.213,1.219
		c1.549,0,2.604-0.711,3.165-2.133c0.306-0.762,0.458-1.807,0.458-3.136v-6.678h2.285v13.597h-2.158l0.025-2.006
		c-0.291,0.516-0.652,0.952-1.085,1.308c-0.854,0.711-1.894,1.066-3.114,1.066c-1.901,0-3.197-0.647-3.887-1.942
		c-0.373-0.694-0.561-1.621-0.561-2.78v-9.242H106.739z"/>
	<path d="M127.204,197.646c0.533-0.779,1.562-1.168,3.086-1.168c0.144,0,0.291,0.004,0.443,0.013s0.326,0.021,0.521,0.038v2.082
		c-0.24-0.017-0.414-0.027-0.521-0.032s-0.208-0.006-0.302-0.006c-0.701,0-1.121,0.18-1.258,0.54s-0.205,1.276-0.205,2.749h2.285
		v1.803h-2.285v11.73h-2.26v-11.73h-1.893v-1.803h1.893v-2.133C126.743,198.78,126.908,198.086,127.204,197.646z"/>
	<path d="M140.649,207.166c0.524-0.067,0.875-0.287,1.053-0.659c0.102-0.204,0.152-0.497,0.152-0.879
		c0-0.781-0.276-1.349-0.83-1.701c-0.553-0.353-1.345-0.529-2.375-0.529c-1.191,0-2.035,0.323-2.533,0.97
		c-0.279,0.357-0.461,0.889-0.545,1.595h-2.133c0.042-1.681,0.585-2.85,1.629-3.507s2.255-0.987,3.633-0.987
		c1.598,0,2.896,0.305,3.893,0.914c0.989,0.609,1.484,1.557,1.484,2.844v7.833c0,0.237,0.049,0.428,0.146,0.571
		s0.303,0.215,0.616,0.215c0.102,0,0.215-0.006,0.342-0.019s0.263-0.032,0.406-0.057v1.688c-0.355,0.102-0.626,0.165-0.812,0.19
		c-0.186,0.025-0.439,0.038-0.762,0.038c-0.787,0-1.357-0.279-1.713-0.838c-0.187-0.296-0.318-0.715-0.395-1.256
		c-0.465,0.609-1.134,1.138-2.006,1.586c-0.871,0.449-1.832,0.673-2.881,0.673c-1.262,0-2.292-0.383-3.092-1.147
		c-0.8-0.765-1.199-1.722-1.199-2.872c0-1.259,0.393-2.236,1.18-2.929c0.787-0.693,1.82-1.12,3.098-1.281L140.649,207.166z
		 M135.837,213.339c0.482,0.38,1.055,0.57,1.715,0.57c0.804,0,1.582-0.186,2.336-0.558c1.27-0.617,1.904-1.626,1.904-3.029v-1.838
		c-0.279,0.178-0.639,0.327-1.078,0.446c-0.438,0.119-0.869,0.204-1.291,0.254l-1.382,0.177c-0.827,0.11-1.45,0.283-1.867,0.52
		c-0.706,0.397-1.06,1.03-1.06,1.9C135.114,212.439,135.354,212.958,135.837,213.339z"/>
	<path d="M147.821,201.797h2.26v1.93c0.542-0.668,1.033-1.155,1.473-1.46c0.754-0.516,1.608-0.774,2.564-0.774
		c1.084,0,1.955,0.267,2.615,0.8c0.373,0.305,0.711,0.753,1.016,1.346c0.508-0.728,1.105-1.268,1.791-1.619s1.455-0.527,2.311-0.527
		c1.828,0,3.072,0.66,3.732,1.98c0.355,0.711,0.533,1.667,0.533,2.869v9.052h-2.375v-9.445c0-0.906-0.227-1.528-0.679-1.866
		s-1.005-0.508-1.657-0.508c-0.896,0-1.669,0.3-2.316,0.901s-0.971,1.604-0.971,3.009v7.909h-2.324v-8.874
		c0-0.922-0.109-1.595-0.33-2.019c-0.347-0.635-0.994-0.952-1.941-0.952c-0.863,0-1.648,0.334-2.355,1.003s-1.061,1.879-1.061,3.631
		v7.211h-2.285V201.797z"/>
	<path d="M169.479,196.745h2.324v2.59h-2.324V196.745z M169.479,201.861h2.324v13.533h-2.324V201.861z"/>
	<path d="M175.319,196.745h2.285v18.649h-2.285V196.745z"/>
	<path d="M181.032,196.745h2.324v2.59h-2.324V196.745z M181.032,201.861h2.324v13.533h-2.324V201.861z"/>
	<path d="M194.097,207.166c0.524-0.067,0.875-0.287,1.053-0.659c0.102-0.204,0.152-0.497,0.152-0.879
		c0-0.781-0.276-1.349-0.83-1.701c-0.553-0.353-1.345-0.529-2.375-0.529c-1.191,0-2.035,0.323-2.533,0.97
		c-0.279,0.357-0.461,0.889-0.545,1.595h-2.133c0.042-1.681,0.585-2.85,1.629-3.507s2.255-0.987,3.633-0.987
		c1.598,0,2.896,0.305,3.893,0.914c0.989,0.609,1.484,1.557,1.484,2.844v7.833c0,0.237,0.049,0.428,0.146,0.571
		s0.303,0.215,0.616,0.215c0.102,0,0.215-0.006,0.342-0.019s0.263-0.032,0.406-0.057v1.688c-0.355,0.102-0.626,0.165-0.812,0.19
		c-0.186,0.025-0.439,0.038-0.762,0.038c-0.787,0-1.357-0.279-1.713-0.838c-0.187-0.296-0.318-0.715-0.395-1.256
		c-0.465,0.609-1.134,1.138-2.006,1.586c-0.871,0.449-1.832,0.673-2.881,0.673c-1.262,0-2.292-0.383-3.092-1.147
		c-0.8-0.765-1.199-1.722-1.199-2.872c0-1.259,0.393-2.236,1.18-2.929c0.787-0.693,1.82-1.12,3.098-1.281L194.097,207.166z
		 M189.284,213.339c0.482,0.38,1.055,0.57,1.715,0.57c0.804,0,1.582-0.186,2.336-0.558c1.27-0.617,1.904-1.626,1.904-3.029v-1.838
		c-0.279,0.178-0.639,0.327-1.078,0.446c-0.438,0.119-0.869,0.204-1.291,0.254l-1.382,0.177c-0.827,0.11-1.45,0.283-1.867,0.52
		c-0.706,0.397-1.06,1.03-1.06,1.9C188.562,212.439,188.802,212.958,189.284,213.339z"/>
	<path d="M209.616,201.797l3.631,11.07l3.783-11.07h2.501l-5.118,13.597h-2.436l-5.015-13.597H209.616z"/>
	<path d="M229.892,202.172c0.899,0.453,1.585,1.039,2.057,1.758c0.453,0.686,0.756,1.485,0.908,2.399
		c0.135,0.626,0.201,1.625,0.201,2.996h-9.889c0.041,1.383,0.365,2.493,0.97,3.329s1.54,1.254,2.809,1.254
		c1.185,0,2.129-0.396,2.835-1.186c0.395-0.459,0.674-0.99,0.838-1.594h2.248c-0.06,0.5-0.256,1.056-0.591,1.669
		s-0.708,1.115-1.118,1.504c-0.689,0.677-1.542,1.134-2.559,1.371c-0.546,0.135-1.163,0.203-1.852,0.203
		c-1.683,0-3.107-0.616-4.277-1.847c-1.169-1.231-1.754-2.956-1.754-5.173c0-2.184,0.59-3.957,1.768-5.319
		c1.177-1.363,2.717-2.044,4.617-2.044C228.062,201.493,228.991,201.719,229.892,202.172z M230.71,207.51
		c-0.093-0.99-0.307-1.782-0.643-2.374c-0.621-1.1-1.658-1.65-3.109-1.65c-1.041,0-1.914,0.379-2.619,1.136
		c-0.704,0.757-1.078,1.72-1.119,2.888H230.71z"/>
	<path d="M235.952,201.797h2.172v1.93c0.643-0.795,1.324-1.367,2.043-1.714c0.72-0.347,1.52-0.521,2.4-0.521
		c1.93,0,3.232,0.673,3.91,2.019c0.372,0.736,0.559,1.79,0.559,3.161v8.722h-2.324v-8.569c0-0.83-0.122-1.498-0.367-2.006
		c-0.406-0.846-1.143-1.27-2.209-1.27c-0.542,0-0.986,0.055-1.334,0.165c-0.626,0.186-1.176,0.559-1.65,1.117
		c-0.381,0.449-0.628,0.912-0.742,1.39s-0.172,1.162-0.172,2.05v7.122h-2.285V201.797z"/>
	<path d="M266.136,201.797h2.526c-0.321,0.872-1.036,2.862-2.146,5.97c-0.83,2.337-1.523,4.242-2.082,5.715
		c-1.319,3.467-2.249,5.582-2.791,6.343c-0.541,0.761-1.471,1.142-2.789,1.142c-0.322,0-0.569-0.013-0.742-0.038
		c-0.174-0.025-0.388-0.072-0.641-0.14v-2.082c0.396,0.11,0.684,0.178,0.861,0.203s0.334,0.038,0.469,0.038
		c0.422,0,0.732-0.07,0.932-0.209c0.199-0.14,0.365-0.311,0.501-0.513c0.042-0.068,0.194-0.414,0.456-1.039s0.451-1.09,0.57-1.394
		l-5.027-13.997h2.59l3.644,11.075L266.136,201.797z"/>
	<path d="M278.983,201.797l3.631,11.07l3.783-11.07h2.501l-5.118,13.597h-2.436l-5.015-13.597H278.983z"/>
	<path d="M290.86,196.745h2.322v2.59h-2.322V196.745z M290.86,201.861h2.322v13.533h-2.322V201.861z"/>
	<path d="M297.995,211.128c0.068,0.762,0.263,1.346,0.582,1.752c0.588,0.736,1.607,1.104,3.059,1.104
		c0.863,0,1.623-0.184,2.28-0.552s0.985-0.938,0.985-1.708c0-0.584-0.263-1.028-0.787-1.333c-0.336-0.186-0.998-0.402-1.987-0.647
		l-1.845-0.457c-1.179-0.288-2.047-0.609-2.606-0.965c-0.997-0.618-1.497-1.473-1.497-2.564c0-1.287,0.471-2.328,1.409-3.123
		s2.202-1.193,3.789-1.193c2.075,0,3.572,0.601,4.489,1.803c0.575,0.762,0.854,1.583,0.838,2.463h-2.158
		c-0.044-0.513-0.23-0.98-0.559-1.401c-0.538-0.598-1.469-0.896-2.795-0.896c-0.884,0-1.553,0.165-2.008,0.493
		c-0.455,0.329-0.682,0.764-0.682,1.303c0,0.59,0.299,1.062,0.896,1.417c0.344,0.211,0.854,0.397,1.525,0.558l1.539,0.368
		c1.674,0.398,2.795,0.783,3.363,1.155c0.889,0.584,1.334,1.502,1.334,2.755c0,1.21-0.465,2.255-1.395,3.136s-2.346,1.32-4.248,1.32
		c-2.049,0-3.498-0.459-4.352-1.377c-0.853-0.918-1.309-2.055-1.369-3.409H297.995z"/>
	<path d="M314.409,196.326l-3.389,3.669h-1.752l2.322-3.669H314.409z M310.36,201.861h2.322v13.533h-2.322V201.861z"/>
	<path d="M317.317,198.001h2.311v3.796h2.17v1.866h-2.17v8.874c0,0.474,0.16,0.792,0.482,0.952c0.178,0.093,0.474,0.14,0.889,0.14
		c0.109,0,0.229-0.003,0.355-0.008s0.274-0.02,0.443-0.042v1.815c-0.262,0.076-0.535,0.131-0.818,0.165s-0.59,0.051-0.92,0.051
		c-1.066,0-1.791-0.273-2.172-0.819s-0.57-1.255-0.57-2.126v-9.001h-1.842v-1.866h1.842V198.001z"/>
	<path d="M331.37,207.166c0.525-0.067,0.877-0.287,1.055-0.659c0.102-0.204,0.152-0.497,0.152-0.879c0-0.781-0.277-1.349-0.83-1.701
		c-0.554-0.353-1.346-0.529-2.376-0.529c-1.19,0-2.036,0.323-2.534,0.97c-0.278,0.357-0.46,0.889-0.545,1.595h-2.133
		c0.043-1.681,0.586-2.85,1.63-3.507s2.255-0.987,3.633-0.987c1.598,0,2.896,0.305,3.894,0.914c0.988,0.609,1.482,1.557,1.482,2.844
		v7.833c0,0.237,0.049,0.428,0.146,0.571s0.303,0.215,0.615,0.215c0.102,0,0.217-0.006,0.344-0.019s0.262-0.032,0.406-0.057v1.688
		c-0.355,0.102-0.627,0.165-0.812,0.19c-0.187,0.025-0.44,0.038-0.762,0.038c-0.787,0-1.359-0.279-1.715-0.838
		c-0.186-0.296-0.316-0.715-0.393-1.256c-0.466,0.609-1.135,1.138-2.006,1.586c-0.872,0.449-1.833,0.673-2.883,0.673
		c-1.261,0-2.291-0.383-3.091-1.147c-0.8-0.765-1.2-1.722-1.2-2.872c0-1.259,0.395-2.236,1.182-2.929
		c0.787-0.693,1.819-1.12,3.098-1.281L331.37,207.166z M326.56,213.339c0.482,0.38,1.053,0.57,1.713,0.57
		c0.805,0,1.583-0.186,2.336-0.558c1.27-0.617,1.904-1.626,1.904-3.029v-1.838c-0.278,0.178-0.637,0.327-1.076,0.446
		c-0.439,0.119-0.87,0.204-1.293,0.254l-1.381,0.177c-0.828,0.11-1.45,0.283-1.867,0.52c-0.707,0.397-1.061,1.03-1.061,1.9
		C325.835,212.439,326.077,212.958,326.56,213.339z"/>
	<path d="M338.544,201.797h2.17v1.93c0.644-0.795,1.325-1.367,2.045-1.714c0.719-0.347,1.519-0.521,2.398-0.521
		c1.93,0,3.233,0.673,3.91,2.019c0.373,0.736,0.559,1.79,0.559,3.161v8.722h-2.322v-8.569c0-0.83-0.123-1.498-0.369-2.006
		c-0.406-0.846-1.143-1.27-2.209-1.27c-0.541,0-0.985,0.055-1.332,0.165c-0.627,0.186-1.177,0.559-1.65,1.117
		c-0.381,0.449-0.629,0.912-0.743,1.39s-0.171,1.162-0.171,2.05v7.122h-2.285V201.797z"/>
	<path d="M362.854,203.154c1.202,1.167,1.803,2.883,1.803,5.149c0,2.19-0.529,4-1.588,5.429s-2.702,2.144-4.93,2.144
		c-1.857,0-3.332-0.632-4.424-1.896c-1.094-1.264-1.639-2.962-1.639-5.093c0-2.283,0.575-4.102,1.727-5.455
		c1.151-1.353,2.697-2.029,4.639-2.029C360.183,201.404,361.653,201.987,362.854,203.154z M361.437,212.19
		c0.557-1.145,0.834-2.419,0.834-3.823c0-1.268-0.201-2.299-0.602-3.094c-0.637-1.251-1.732-1.877-3.289-1.877
		c-1.381,0-2.386,0.533-3.014,1.598c-0.627,1.065-0.941,2.35-0.941,3.855c0,1.445,0.314,2.65,0.941,3.614
		c0.628,0.963,1.624,1.445,2.988,1.445C359.853,213.909,360.88,213.336,361.437,212.19z"/>
	<path d="M368.821,211.128c0.069,0.762,0.264,1.346,0.584,1.752c0.587,0.736,1.606,1.104,3.058,1.104
		c0.864,0,1.624-0.184,2.28-0.552s0.984-0.938,0.984-1.708c0-0.584-0.262-1.028-0.787-1.333c-0.335-0.186-0.997-0.402-1.986-0.647
		l-1.846-0.457c-1.178-0.288-2.047-0.609-2.605-0.965c-0.998-0.618-1.496-1.473-1.496-2.564c0-1.287,0.469-2.328,1.408-3.123
		s2.202-1.193,3.789-1.193c2.076,0,3.572,0.601,4.49,1.803c0.574,0.762,0.854,1.583,0.836,2.463h-2.158
		c-0.043-0.513-0.229-0.98-0.559-1.401c-0.537-0.598-1.469-0.896-2.794-0.896c-0.884,0-1.553,0.165-2.008,0.493
		c-0.454,0.329-0.683,0.764-0.683,1.303c0,0.59,0.299,1.062,0.896,1.417c0.346,0.211,0.854,0.397,1.527,0.558l1.539,0.368
		c1.672,0.398,2.793,0.783,3.363,1.155c0.889,0.584,1.332,1.502,1.332,2.755c0,1.21-0.465,2.255-1.395,3.136s-2.346,1.32-4.248,1.32
		c-2.047,0-3.498-0.459-4.35-1.377c-0.854-0.918-1.31-2.055-1.369-3.409H368.821z"/>
	<path d="M50.899,233.372c0.9,0.453,1.586,1.039,2.057,1.758c0.455,0.686,0.758,1.485,0.908,2.399
		c0.135,0.626,0.203,1.625,0.203,2.996h-9.891c0.043,1.383,0.365,2.493,0.971,3.329c0.604,0.836,1.541,1.254,2.809,1.254
		c1.184,0,2.129-0.396,2.834-1.186c0.395-0.459,0.675-0.99,0.84-1.594h2.246c-0.059,0.5-0.256,1.056-0.59,1.669
		s-0.707,1.115-1.119,1.504c-0.688,0.677-1.541,1.134-2.557,1.371c-0.547,0.135-1.164,0.203-1.854,0.203
		c-1.682,0-3.107-0.616-4.276-1.847s-1.753-2.956-1.753-5.173c0-2.184,0.588-3.957,1.766-5.319s2.717-2.044,4.618-2.044
		C49.07,232.692,49.999,232.919,50.899,233.372z M51.718,238.71c-0.092-0.99-0.307-1.782-0.642-2.374
		c-0.621-1.1-1.657-1.65-3.109-1.65c-1.04,0-1.913,0.379-2.618,1.136s-1.078,1.72-1.121,2.888H51.718z"/>
	<path d="M56.962,232.997h2.17v1.93c0.644-0.795,1.325-1.367,2.045-1.714c0.719-0.347,1.519-0.521,2.398-0.521
		c1.93,0,3.233,0.673,3.91,2.019c0.373,0.736,0.559,1.79,0.559,3.161v8.722h-2.322v-8.569c0-0.83-0.123-1.498-0.369-2.006
		c-0.406-0.846-1.143-1.27-2.209-1.27c-0.541,0-0.985,0.055-1.332,0.165c-0.627,0.186-1.177,0.559-1.65,1.117
		c-0.381,0.449-0.629,0.912-0.743,1.39s-0.171,1.162-0.171,2.05v7.122h-2.285V232.997z"/>
	<path d="M92.14,229.303c1.289,1.244,2.004,2.658,2.146,4.24h-2.463c-0.275-1.202-0.821-2.154-1.641-2.856
		c-0.818-0.703-1.967-1.054-3.447-1.054c-1.803,0-3.26,0.646-4.369,1.938c-1.109,1.292-1.664,3.272-1.664,5.94
		c0,2.186,0.5,3.958,1.502,5.318c1.002,1.359,2.496,2.039,4.483,2.039c1.829,0,3.222-0.715,4.179-2.146
		c0.506-0.753,0.885-1.744,1.135-2.971h2.463c-0.219,1.963-0.938,3.61-2.158,4.938c-1.465,1.6-3.439,2.399-5.924,2.399
		c-2.143,0-3.941-0.656-5.396-1.969c-1.916-1.736-2.873-4.417-2.873-8.042c0-2.752,0.719-5.009,2.158-6.771
		c1.555-1.914,3.701-2.871,6.437-2.871C89.04,227.437,90.852,228.059,92.14,229.303z"/>
	<path d="M104.708,238.365c0.525-0.067,0.877-0.287,1.055-0.659c0.102-0.204,0.152-0.497,0.152-0.879
		c0-0.781-0.277-1.349-0.83-1.701c-0.554-0.353-1.346-0.529-2.376-0.529c-1.19,0-2.036,0.323-2.534,0.97
		c-0.278,0.357-0.46,0.889-0.545,1.595h-2.133c0.043-1.681,0.586-2.85,1.63-3.507s2.255-0.987,3.633-0.987
		c1.598,0,2.896,0.305,3.894,0.914c0.988,0.609,1.482,1.557,1.482,2.844v7.833c0,0.237,0.049,0.428,0.146,0.571
		s0.303,0.215,0.615,0.215c0.102,0,0.217-0.006,0.344-0.019s0.262-0.032,0.406-0.057v1.688c-0.355,0.102-0.627,0.165-0.812,0.19
		c-0.187,0.025-0.44,0.038-0.762,0.038c-0.787,0-1.359-0.279-1.715-0.838c-0.186-0.296-0.316-0.715-0.393-1.256
		c-0.466,0.609-1.135,1.138-2.006,1.586c-0.872,0.449-1.833,0.673-2.883,0.673c-1.261,0-2.291-0.383-3.091-1.147
		c-0.8-0.765-1.2-1.722-1.2-2.872c0-1.259,0.395-2.236,1.182-2.929c0.787-0.693,1.819-1.12,3.098-1.281L104.708,238.365z
		 M99.897,244.539c0.482,0.38,1.053,0.57,1.713,0.57c0.805,0,1.583-0.186,2.336-0.558c1.27-0.617,1.904-1.626,1.904-3.029v-1.838
		c-0.278,0.178-0.637,0.327-1.076,0.446c-0.439,0.119-0.87,0.204-1.293,0.254l-1.381,0.177c-0.828,0.11-1.45,0.283-1.867,0.52
		c-0.707,0.397-1.061,1.03-1.061,1.9C99.173,243.639,99.415,244.158,99.897,244.539z"/>
	<path d="M111.69,227.881h2.223v6.767c0.501-0.652,1.1-1.149,1.797-1.492c0.696-0.343,1.453-0.514,2.268-0.514
		c1.699,0,3.078,0.582,4.137,1.746c1.058,1.164,1.586,2.88,1.586,5.148c0,2.15-0.521,3.936-1.567,5.357
		c-1.045,1.422-2.493,2.133-4.346,2.133c-1.036,0-1.911-0.25-2.625-0.749c-0.425-0.296-0.88-0.77-1.364-1.422v1.739h-2.107V227.881z
		 M120.429,243.534c0.615-0.982,0.924-2.277,0.924-3.885c0-1.43-0.309-2.615-0.924-3.555s-1.522-1.409-2.72-1.409
		c-1.044,0-1.96,0.385-2.745,1.155s-1.178,2.04-1.178,3.809c0,1.278,0.16,2.315,0.483,3.11c0.603,1.498,1.728,2.247,3.376,2.247
		C118.885,245.007,119.813,244.516,120.429,243.534z"/>
	<path d="M133.628,238.365c0.525-0.067,0.877-0.287,1.055-0.659c0.102-0.204,0.152-0.497,0.152-0.879
		c0-0.781-0.277-1.349-0.83-1.701c-0.554-0.353-1.346-0.529-2.376-0.529c-1.19,0-2.036,0.323-2.534,0.97
		c-0.278,0.357-0.46,0.889-0.545,1.595h-2.133c0.043-1.681,0.586-2.85,1.63-3.507s2.255-0.987,3.633-0.987
		c1.598,0,2.896,0.305,3.894,0.914c0.988,0.609,1.482,1.557,1.482,2.844v7.833c0,0.237,0.049,0.428,0.146,0.571
		s0.303,0.215,0.615,0.215c0.102,0,0.217-0.006,0.344-0.019s0.262-0.032,0.406-0.057v1.688c-0.355,0.102-0.627,0.165-0.812,0.19
		c-0.187,0.025-0.44,0.038-0.762,0.038c-0.787,0-1.359-0.279-1.715-0.838c-0.186-0.296-0.316-0.715-0.393-1.256
		c-0.466,0.609-1.135,1.138-2.006,1.586c-0.872,0.449-1.833,0.673-2.883,0.673c-1.261,0-2.291-0.383-3.091-1.147
		c-0.8-0.765-1.2-1.722-1.2-2.872c0-1.259,0.395-2.236,1.182-2.929c0.787-0.693,1.819-1.12,3.098-1.281L133.628,238.365z
		 M128.817,244.539c0.482,0.38,1.053,0.57,1.713,0.57c0.805,0,1.583-0.186,2.336-0.558c1.27-0.617,1.904-1.626,1.904-3.029v-1.838
		c-0.278,0.178-0.637,0.327-1.076,0.446c-0.439,0.119-0.87,0.204-1.293,0.254l-1.381,0.177c-0.828,0.11-1.45,0.283-1.867,0.52
		c-0.707,0.397-1.061,1.03-1.061,1.9C128.093,243.639,128.335,244.158,128.817,244.539z"/>
	<path d="M140.802,232.997h2.17v1.93c0.644-0.795,1.325-1.367,2.045-1.714c0.719-0.347,1.519-0.521,2.398-0.521
		c1.93,0,3.233,0.673,3.91,2.019c0.373,0.736,0.559,1.79,0.559,3.161v8.722h-2.322v-8.569c0-0.83-0.123-1.498-0.369-2.006
		c-0.406-0.846-1.143-1.27-2.209-1.27c-0.541,0-0.985,0.055-1.332,0.165c-0.627,0.186-1.177,0.559-1.65,1.117
		c-0.381,0.449-0.629,0.912-0.743,1.39s-0.171,1.162-0.171,2.05v7.122h-2.285V232.997z M147.517,228.782
		c0.237,0.102,0.453,0.182,0.648,0.241c0.194,0.059,0.393,0.089,0.596,0.089c0.475,0,0.812-0.148,1.016-0.444
		c0.11-0.161,0.187-0.402,0.229-0.724h1.334c-0.178,1.075-0.52,1.815-1.022,2.222s-1.056,0.609-1.657,0.609
		c-0.186,0-0.423-0.034-0.711-0.102c-0.287-0.068-0.541-0.144-0.762-0.229l-0.672-0.241c-0.398-0.144-0.723-0.252-0.972-0.324
		s-0.493-0.108-0.729-0.108c-0.297,0-0.54,0.097-0.73,0.292s-0.319,0.491-0.387,0.889h-1.244c0.109-0.668,0.291-1.214,0.545-1.638
		c0.482-0.779,1.198-1.168,2.146-1.168c0.287,0,0.607,0.042,0.958,0.127S146.925,228.528,147.517,228.782z"/>
	<path d="M162.548,238.365c0.525-0.067,0.877-0.287,1.055-0.659c0.102-0.204,0.152-0.497,0.152-0.879
		c0-0.781-0.277-1.349-0.83-1.701c-0.554-0.353-1.346-0.529-2.376-0.529c-1.19,0-2.036,0.323-2.534,0.97
		c-0.278,0.357-0.46,0.889-0.545,1.595h-2.133c0.043-1.681,0.586-2.85,1.63-3.507s2.255-0.987,3.633-0.987
		c1.598,0,2.896,0.305,3.894,0.914c0.988,0.609,1.482,1.557,1.482,2.844v7.833c0,0.237,0.049,0.428,0.146,0.571
		s0.303,0.215,0.615,0.215c0.102,0,0.217-0.006,0.344-0.019s0.262-0.032,0.406-0.057v1.688c-0.355,0.102-0.627,0.165-0.812,0.19
		c-0.187,0.025-0.44,0.038-0.762,0.038c-0.787,0-1.359-0.279-1.715-0.838c-0.186-0.296-0.316-0.715-0.393-1.256
		c-0.466,0.609-1.135,1.138-2.006,1.586c-0.872,0.449-1.833,0.673-2.883,0.673c-1.261,0-2.291-0.383-3.091-1.147
		c-0.8-0.765-1.2-1.722-1.2-2.872c0-1.259,0.395-2.236,1.182-2.929c0.787-0.693,1.819-1.12,3.098-1.281L162.548,238.365z
		 M157.737,244.539c0.482,0.38,1.053,0.57,1.713,0.57c0.805,0,1.583-0.186,2.336-0.558c1.27-0.617,1.904-1.626,1.904-3.029v-1.838
		c-0.278,0.178-0.637,0.327-1.076,0.446c-0.439,0.119-0.87,0.204-1.293,0.254l-1.381,0.177c-0.828,0.11-1.45,0.283-1.867,0.52
		c-0.707,0.397-1.061,1.03-1.061,1.9C157.013,243.639,157.255,244.158,157.737,244.539z"/>
	<path d="M171.079,242.328c0.069,0.762,0.264,1.346,0.584,1.752c0.587,0.736,1.606,1.104,3.058,1.104
		c0.864,0,1.624-0.184,2.28-0.552s0.984-0.938,0.984-1.708c0-0.584-0.262-1.028-0.787-1.333c-0.335-0.186-0.997-0.402-1.986-0.647
		l-1.846-0.457c-1.178-0.288-2.047-0.609-2.605-0.965c-0.998-0.618-1.496-1.473-1.496-2.564c0-1.287,0.469-2.328,1.408-3.123
		s2.202-1.193,3.789-1.193c2.076,0,3.572,0.601,4.49,1.803c0.574,0.762,0.854,1.583,0.836,2.463h-2.158
		c-0.043-0.513-0.229-0.98-0.559-1.401c-0.537-0.598-1.469-0.896-2.794-0.896c-0.884,0-1.553,0.165-2.008,0.493
		c-0.454,0.329-0.683,0.764-0.683,1.303c0,0.59,0.299,1.062,0.896,1.417c0.346,0.211,0.854,0.397,1.527,0.558l1.539,0.368
		c1.672,0.398,2.793,0.783,3.363,1.155c0.889,0.584,1.332,1.502,1.332,2.755c0,1.21-0.465,2.255-1.395,3.136s-2.346,1.32-4.248,1.32
		c-2.047,0-3.498-0.459-4.35-1.377c-0.854-0.918-1.31-2.055-1.369-3.409H171.079z"/>
	<path d="M203.351,227.944v2.222h-6.283v16.428h-2.553v-16.428h-6.283v-2.222H203.351z"/>
	<path d="M209.774,238.365c0.525-0.067,0.877-0.287,1.055-0.659c0.102-0.204,0.152-0.497,0.152-0.879
		c0-0.781-0.277-1.349-0.83-1.701c-0.554-0.353-1.346-0.529-2.376-0.529c-1.19,0-2.036,0.323-2.534,0.97
		c-0.278,0.357-0.46,0.889-0.545,1.595h-2.133c0.043-1.681,0.586-2.85,1.63-3.507s2.255-0.987,3.633-0.987
		c1.598,0,2.896,0.305,3.894,0.914c0.988,0.609,1.482,1.557,1.482,2.844v7.833c0,0.237,0.049,0.428,0.146,0.571
		s0.303,0.215,0.615,0.215c0.102,0,0.217-0.006,0.344-0.019s0.262-0.032,0.406-0.057v1.688c-0.355,0.102-0.627,0.165-0.812,0.19
		c-0.187,0.025-0.44,0.038-0.762,0.038c-0.787,0-1.359-0.279-1.715-0.838c-0.186-0.296-0.316-0.715-0.393-1.256
		c-0.466,0.609-1.135,1.138-2.006,1.586c-0.872,0.449-1.833,0.673-2.883,0.673c-1.261,0-2.291-0.383-3.091-1.147
		c-0.8-0.765-1.2-1.722-1.2-2.872c0-1.259,0.395-2.236,1.182-2.929c0.787-0.693,1.819-1.12,3.098-1.281L209.774,238.365z
		 M204.964,244.539c0.482,0.38,1.053,0.57,1.713,0.57c0.805,0,1.583-0.186,2.336-0.558c1.27-0.617,1.904-1.626,1.904-3.029v-1.838
		c-0.278,0.178-0.637,0.327-1.076,0.446c-0.439,0.119-0.87,0.204-1.293,0.254l-1.381,0.177c-0.828,0.11-1.45,0.283-1.867,0.52
		c-0.707,0.397-1.061,1.03-1.061,1.9C204.239,243.639,204.481,244.158,204.964,244.539z"/>
	<path d="M225.93,233.721c0.96,0.745,1.538,2.027,1.733,3.847h-2.223c-0.135-0.838-0.443-1.534-0.926-2.088
		s-1.258-0.832-2.324-0.832c-1.455,0-2.496,0.71-3.123,2.13c-0.406,0.921-0.609,2.058-0.609,3.411c0,1.361,0.288,2.506,0.863,3.437
		c0.576,0.93,1.481,1.395,2.717,1.395c0.948,0,1.699-0.289,2.254-0.866s0.938-1.368,1.148-2.371h2.223
		c-0.254,1.803-0.889,3.121-1.904,3.955s-2.315,1.25-3.898,1.25c-1.777,0-3.194-0.649-4.252-1.949
		c-1.059-1.299-1.588-2.922-1.588-4.869c0-2.387,0.58-4.245,1.74-5.573c1.159-1.329,2.636-1.993,4.43-1.993
		C223.723,232.604,224.97,232.976,225.93,233.721z"/>
	<path d="M232.233,232.997v9.026c0,0.694,0.106,1.261,0.321,1.701c0.396,0.812,1.133,1.219,2.213,1.219
		c1.55,0,2.604-0.711,3.165-2.133c0.305-0.762,0.457-1.807,0.457-3.136v-6.678h2.285v13.597h-2.158l0.025-2.006
		c-0.291,0.516-0.652,0.952-1.084,1.308c-0.855,0.711-1.893,1.066-3.113,1.066c-1.902,0-3.198-0.647-3.887-1.942
		c-0.374-0.694-0.561-1.621-0.561-2.78v-9.242H232.233z"/>
	<path d="M244.407,227.944h2.324v2.59h-2.324V227.944z M244.407,233.061h2.324v13.533h-2.324V233.061z"/>
	<path d="M259.166,233.721c0.96,0.745,1.538,2.027,1.733,3.847h-2.223c-0.135-0.838-0.443-1.534-0.926-2.088
		s-1.258-0.832-2.324-0.832c-1.455,0-2.496,0.71-3.123,2.13c-0.406,0.921-0.609,2.058-0.609,3.411c0,1.361,0.288,2.506,0.863,3.437
		c0.576,0.93,1.481,1.395,2.717,1.395c0.948,0,1.699-0.289,2.254-0.866s0.938-1.368,1.148-2.371h2.223
		c-0.254,1.803-0.889,3.121-1.904,3.955s-2.315,1.25-3.898,1.25c-1.777,0-3.194-0.649-4.252-1.949
		c-1.059-1.299-1.588-2.922-1.588-4.869c0-2.387,0.58-4.245,1.74-5.573c1.159-1.329,2.636-1.993,4.43-1.993
		C256.959,232.604,258.206,232.976,259.166,233.721z"/>
	<path d="M263.185,227.881h2.285v6.957c0.541-0.686,1.027-1.168,1.459-1.447c0.736-0.482,1.655-0.724,2.756-0.724
		c1.972,0,3.309,0.69,4.012,2.069c0.381,0.753,0.57,1.798,0.57,3.136v8.722h-2.348v-8.569c0-0.999-0.127-1.731-0.381-2.196
		c-0.415-0.745-1.193-1.117-2.336-1.117c-0.948,0-1.808,0.326-2.578,0.978c-0.77,0.652-1.154,1.883-1.154,3.694v7.211h-2.285
		V227.881z"/>
	<path d="M284.931,238.365c0.525-0.067,0.877-0.287,1.055-0.659c0.102-0.204,0.152-0.497,0.152-0.879
		c0-0.781-0.277-1.349-0.83-1.701c-0.554-0.353-1.346-0.529-2.376-0.529c-1.19,0-2.036,0.323-2.534,0.97
		c-0.278,0.357-0.46,0.889-0.545,1.595h-2.133c0.043-1.681,0.586-2.85,1.63-3.507s2.255-0.987,3.633-0.987
		c1.598,0,2.896,0.305,3.894,0.914c0.988,0.609,1.482,1.557,1.482,2.844v7.833c0,0.237,0.049,0.428,0.146,0.571
		s0.303,0.215,0.615,0.215c0.102,0,0.217-0.006,0.344-0.019s0.262-0.032,0.406-0.057v1.688c-0.355,0.102-0.627,0.165-0.812,0.19
		c-0.187,0.025-0.44,0.038-0.762,0.038c-0.787,0-1.359-0.279-1.715-0.838c-0.186-0.296-0.316-0.715-0.393-1.256
		c-0.466,0.609-1.135,1.138-2.006,1.586c-0.872,0.449-1.833,0.673-2.883,0.673c-1.261,0-2.291-0.383-3.091-1.147
		c-0.8-0.765-1.2-1.722-1.2-2.872c0-1.259,0.395-2.236,1.182-2.929c0.787-0.693,1.819-1.12,3.098-1.281L284.931,238.365z
		 M280.12,244.539c0.482,0.38,1.053,0.57,1.713,0.57c0.805,0,1.583-0.186,2.336-0.558c1.27-0.617,1.904-1.626,1.904-3.029v-1.838
		c-0.278,0.178-0.637,0.327-1.076,0.446c-0.439,0.119-0.87,0.204-1.293,0.254l-1.381,0.177c-0.828,0.11-1.45,0.283-1.867,0.52
		c-0.707,0.397-1.061,1.03-1.061,1.9C279.396,243.639,279.638,244.158,280.12,244.539z"/>
	<path d="M292.104,232.997h2.26v1.93c0.541-0.668,1.032-1.155,1.473-1.46c0.753-0.516,1.607-0.774,2.564-0.774
		c1.083,0,1.955,0.267,2.615,0.8c0.372,0.305,0.711,0.753,1.016,1.346c0.508-0.728,1.104-1.268,1.789-1.619s1.456-0.527,2.311-0.527
		c1.828,0,3.072,0.66,3.732,1.98c0.355,0.711,0.533,1.667,0.533,2.869v9.052h-2.373v-9.445c0-0.906-0.227-1.528-0.68-1.866
		s-1.005-0.508-1.656-0.508c-0.897,0-1.67,0.3-2.317,0.901s-0.972,1.604-0.972,3.009v7.909h-2.322v-8.874
		c0-0.922-0.11-1.595-0.33-2.019c-0.348-0.635-0.995-0.952-1.943-0.952c-0.863,0-1.648,0.334-2.354,1.003s-1.06,1.879-1.06,3.631
		v7.211h-2.285V232.997z"/>
	<path d="M323.614,234.354c1.201,1.167,1.803,2.883,1.803,5.149c0,2.19-0.53,4-1.589,5.429c-1.06,1.429-2.702,2.144-4.929,2.144
		c-1.857,0-3.332-0.632-4.426-1.896c-1.092-1.264-1.639-2.962-1.639-5.093c0-2.283,0.576-4.102,1.728-5.455
		c1.151-1.353,2.698-2.029,4.64-2.029C320.941,232.604,322.412,233.187,323.614,234.354z M322.194,243.39
		c0.557-1.145,0.836-2.419,0.836-3.823c0-1.268-0.201-2.299-0.604-3.094c-0.636-1.251-1.732-1.877-3.289-1.877
		c-1.381,0-2.385,0.533-3.012,1.598c-0.628,1.065-0.941,2.35-0.941,3.855c0,1.445,0.313,2.65,0.941,3.614
		c0.627,0.963,1.623,1.445,2.987,1.445C320.611,245.108,321.638,244.536,322.194,243.39z"/>
	<path d="M328.222,232.997h2.172v1.93c0.643-0.795,1.324-1.367,2.043-1.714c0.72-0.347,1.52-0.521,2.4-0.521
		c1.93,0,3.232,0.673,3.91,2.019c0.372,0.736,0.559,1.79,0.559,3.161v8.722h-2.324v-8.569c0-0.83-0.122-1.498-0.367-2.006
		c-0.406-0.846-1.143-1.27-2.209-1.27c-0.542,0-0.986,0.055-1.334,0.165c-0.626,0.186-1.176,0.559-1.65,1.117
		c-0.381,0.449-0.628,0.912-0.742,1.39s-0.172,1.162-0.172,2.05v7.122h-2.285V232.997z"/>
	<path d="M349.97,238.365c0.524-0.067,0.875-0.287,1.053-0.659c0.102-0.204,0.152-0.497,0.152-0.879c0-0.781-0.276-1.349-0.83-1.701
		c-0.553-0.353-1.345-0.529-2.375-0.529c-1.191,0-2.035,0.323-2.533,0.97c-0.279,0.357-0.461,0.889-0.545,1.595h-2.133
		c0.042-1.681,0.585-2.85,1.629-3.507s2.255-0.987,3.633-0.987c1.598,0,2.896,0.305,3.893,0.914
		c0.989,0.609,1.484,1.557,1.484,2.844v7.833c0,0.237,0.049,0.428,0.146,0.571s0.303,0.215,0.616,0.215
		c0.102,0,0.215-0.006,0.342-0.019s0.263-0.032,0.406-0.057v1.688c-0.355,0.102-0.626,0.165-0.812,0.19
		c-0.186,0.025-0.439,0.038-0.762,0.038c-0.787,0-1.357-0.279-1.713-0.838c-0.187-0.296-0.318-0.715-0.395-1.256
		c-0.465,0.609-1.134,1.138-2.006,1.586c-0.871,0.449-1.832,0.673-2.881,0.673c-1.262,0-2.292-0.383-3.092-1.147
		c-0.8-0.765-1.199-1.722-1.199-2.872c0-1.259,0.393-2.236,1.18-2.929c0.787-0.693,1.82-1.12,3.098-1.281L349.97,238.365z
		 M345.157,244.539c0.482,0.38,1.055,0.57,1.715,0.57c0.804,0,1.582-0.186,2.336-0.558c1.27-0.617,1.904-1.626,1.904-3.029v-1.838
		c-0.279,0.178-0.639,0.327-1.078,0.446c-0.438,0.119-0.869,0.204-1.291,0.254l-1.382,0.177c-0.827,0.11-1.45,0.283-1.867,0.52
		c-0.706,0.397-1.06,1.03-1.06,1.9C344.435,243.639,344.675,244.158,345.157,244.539z"/>
	<path d="M364.823,229.201h2.311v3.796h2.17v1.866h-2.17v8.874c0,0.474,0.16,0.792,0.482,0.952c0.178,0.093,0.474,0.14,0.889,0.14
		c0.109,0,0.229-0.003,0.355-0.008s0.274-0.02,0.443-0.042v1.815c-0.262,0.076-0.535,0.131-0.818,0.165s-0.59,0.051-0.92,0.051
		c-1.066,0-1.791-0.273-2.172-0.819s-0.57-1.255-0.57-2.126v-9.001h-1.842v-1.866h1.842V229.201z"/>
	<path d="M379.987,233.372c0.9,0.453,1.586,1.039,2.057,1.758c0.455,0.686,0.758,1.485,0.908,2.399
		c0.135,0.626,0.203,1.625,0.203,2.996h-9.891c0.043,1.383,0.365,2.493,0.971,3.329c0.604,0.836,1.541,1.254,2.809,1.254
		c1.184,0,2.129-0.396,2.834-1.186c0.395-0.459,0.675-0.99,0.84-1.594h2.246c-0.059,0.5-0.256,1.056-0.59,1.669
		s-0.707,1.115-1.119,1.504c-0.688,0.677-1.541,1.134-2.557,1.371c-0.547,0.135-1.164,0.203-1.854,0.203
		c-1.682,0-3.107-0.616-4.276-1.847s-1.753-2.956-1.753-5.173c0-2.184,0.588-3.957,1.766-5.319s2.717-2.044,4.618-2.044
		C378.158,232.692,379.087,232.919,379.987,233.372z M380.806,238.71c-0.092-0.99-0.307-1.782-0.642-2.374
		c-0.621-1.1-1.657-1.65-3.109-1.65c-1.04,0-1.913,0.379-2.618,1.136s-1.078,1.72-1.121,2.888H380.806z"/>
	<path d="M47.415,264.197h2.17v2.349c0.178-0.457,0.614-1.014,1.309-1.669c0.693-0.656,1.493-0.984,2.398-0.984
		c0.043,0,0.115,0.004,0.217,0.013s0.274,0.025,0.52,0.051v2.412c-0.135-0.025-0.26-0.042-0.374-0.051s-0.239-0.013-0.374-0.013
		c-1.151,0-2.036,0.37-2.654,1.111c-0.617,0.741-0.926,1.593-0.926,2.558v7.82h-2.285V264.197z"/>
	<path d="M64.407,264.572c0.9,0.453,1.586,1.039,2.057,1.758c0.455,0.686,0.758,1.485,0.908,2.399
		c0.135,0.626,0.203,1.625,0.203,2.996h-9.891c0.043,1.383,0.365,2.493,0.971,3.329c0.604,0.836,1.541,1.254,2.809,1.254
		c1.184,0,2.129-0.396,2.834-1.186c0.395-0.459,0.675-0.99,0.84-1.594h2.246c-0.059,0.5-0.256,1.056-0.59,1.669
		s-0.707,1.115-1.119,1.504c-0.688,0.677-1.541,1.134-2.557,1.371c-0.547,0.135-1.164,0.203-1.854,0.203
		c-1.682,0-3.107-0.616-4.276-1.847s-1.753-2.956-1.753-5.173c0-2.184,0.588-3.957,1.766-5.319s2.717-2.044,4.618-2.044
		C62.578,263.893,63.507,264.119,64.407,264.572z M65.226,269.91c-0.092-0.99-0.307-1.782-0.642-2.374
		c-0.621-1.1-1.657-1.65-3.109-1.65c-1.04,0-1.913,0.379-2.618,1.136s-1.078,1.72-1.121,2.888H65.226z"/>
	<path d="M79.451,264.921c0.96,0.745,1.538,2.027,1.733,3.847h-2.223c-0.135-0.838-0.443-1.534-0.926-2.088
		s-1.258-0.832-2.324-0.832c-1.455,0-2.496,0.71-3.123,2.13c-0.406,0.921-0.609,2.058-0.609,3.411c0,1.361,0.288,2.506,0.863,3.437
		c0.576,0.93,1.481,1.395,2.717,1.395c0.948,0,1.699-0.289,2.254-0.866s0.938-1.368,1.148-2.371h2.223
		c-0.254,1.803-0.889,3.121-1.904,3.955s-2.315,1.25-3.898,1.25c-1.777,0-3.194-0.649-4.252-1.949
		c-1.059-1.299-1.588-2.922-1.588-4.869c0-2.387,0.58-4.245,1.74-5.573c1.159-1.329,2.636-1.993,4.43-1.993
		C77.244,263.804,78.491,264.176,79.451,264.921z"/>
	<path d="M83.47,259.145h2.322v2.59H83.47V259.145z M83.47,264.261h2.322v13.533H83.47V264.261z"/>
	<path d="M89.056,259.081h2.221v6.767c0.502-0.652,1.101-1.149,1.797-1.492c0.697-0.343,1.453-0.514,2.27-0.514
		c1.699,0,3.078,0.582,4.135,1.746c1.059,1.164,1.588,2.88,1.588,5.148c0,2.15-0.523,3.936-1.568,5.357s-2.494,2.133-4.346,2.133
		c-1.037,0-1.912-0.25-2.625-0.749c-0.426-0.296-0.879-0.77-1.363-1.422v1.739h-2.107V259.081z M97.792,274.734
		c0.617-0.982,0.924-2.277,0.924-3.885c0-1.43-0.307-2.615-0.924-3.555c-0.615-0.939-1.521-1.409-2.719-1.409
		c-1.045,0-1.959,0.385-2.745,1.155s-1.179,2.04-1.179,3.809c0,1.278,0.162,2.315,0.484,3.11c0.604,1.498,1.729,2.247,3.375,2.247
		C96.249,276.207,97.177,275.716,97.792,274.734z"/>
	<path d="M103.706,259.145h2.322v2.59h-2.322V259.145z M103.706,264.261h2.322v13.533h-2.322V264.261z"/>
	<path d="M109.481,264.197h2.26v1.93c0.542-0.668,1.033-1.155,1.473-1.46c0.754-0.516,1.608-0.774,2.564-0.774
		c1.084,0,1.955,0.267,2.615,0.8c0.373,0.305,0.711,0.753,1.016,1.346c0.508-0.728,1.105-1.268,1.791-1.619s1.455-0.527,2.311-0.527
		c1.828,0,3.072,0.66,3.732,1.98c0.355,0.711,0.533,1.667,0.533,2.869v9.052h-2.375v-9.445c0-0.906-0.227-1.528-0.679-1.866
		s-1.005-0.508-1.657-0.508c-0.896,0-1.669,0.3-2.316,0.901s-0.971,1.604-0.971,3.009v7.909h-2.324v-8.874
		c0-0.922-0.109-1.595-0.33-2.019c-0.347-0.635-0.994-0.952-1.941-0.952c-0.863,0-1.648,0.334-2.355,1.003s-1.061,1.879-1.061,3.631
		v7.211h-2.285V264.197z"/>
	<path d="M140.991,265.554c1.202,1.167,1.803,2.883,1.803,5.149c0,2.19-0.529,4-1.588,5.429s-2.702,2.144-4.93,2.144
		c-1.857,0-3.332-0.632-4.424-1.896c-1.094-1.264-1.639-2.962-1.639-5.093c0-2.283,0.575-4.102,1.727-5.455
		c1.151-1.353,2.697-2.029,4.639-2.029C138.319,263.804,139.79,264.387,140.991,265.554z M139.573,274.59
		c0.557-1.145,0.834-2.419,0.834-3.823c0-1.268-0.201-2.299-0.602-3.094c-0.637-1.251-1.732-1.877-3.289-1.877
		c-1.381,0-2.386,0.533-3.014,1.598c-0.627,1.065-0.941,2.35-0.941,3.855c0,1.445,0.314,2.65,0.941,3.614
		c0.628,0.963,1.624,1.445,2.988,1.445C137.989,276.309,139.017,275.736,139.573,274.59z"/>
	<path d="M146.958,273.528c0.069,0.762,0.264,1.346,0.584,1.752c0.587,0.736,1.606,1.104,3.058,1.104
		c0.864,0,1.624-0.184,2.28-0.552s0.984-0.938,0.984-1.708c0-0.584-0.262-1.028-0.787-1.333c-0.335-0.186-0.997-0.402-1.986-0.647
		l-1.846-0.457c-1.178-0.288-2.047-0.609-2.605-0.965c-0.998-0.618-1.496-1.473-1.496-2.564c0-1.287,0.469-2.328,1.408-3.123
		s2.202-1.193,3.789-1.193c2.076,0,3.572,0.601,4.49,1.803c0.574,0.762,0.854,1.583,0.836,2.463h-2.158
		c-0.043-0.513-0.229-0.98-0.559-1.401c-0.537-0.598-1.469-0.896-2.794-0.896c-0.884,0-1.553,0.165-2.008,0.493
		c-0.454,0.329-0.683,0.764-0.683,1.303c0,0.59,0.299,1.062,0.896,1.417c0.346,0.211,0.854,0.397,1.527,0.558l1.539,0.368
		c1.672,0.398,2.793,0.783,3.363,1.155c0.889,0.584,1.332,1.502,1.332,2.755c0,1.21-0.465,2.255-1.395,3.136s-2.346,1.32-4.248,1.32
		c-2.047,0-3.498-0.459-4.35-1.377c-0.854-0.918-1.31-2.055-1.369-3.409H146.958z"/>
	<path d="M174.806,264.921c0.961,0.745,1.538,2.027,1.732,3.847h-2.221c-0.136-0.838-0.445-1.534-0.928-2.088
		s-1.256-0.832-2.322-0.832c-1.456,0-2.497,0.71-3.123,2.13c-0.406,0.921-0.609,2.058-0.609,3.411c0,1.361,0.287,2.506,0.863,3.437
		c0.575,0.93,1.48,1.395,2.717,1.395c0.947,0,1.699-0.289,2.253-0.866s0.938-1.368,1.149-2.371h2.221
		c-0.254,1.803-0.889,3.121-1.904,3.955s-2.314,1.25-3.896,1.25c-1.777,0-3.195-0.649-4.254-1.949
		c-1.058-1.299-1.586-2.922-1.586-4.869c0-2.387,0.579-4.245,1.738-5.573c1.16-1.329,2.637-1.993,4.432-1.993
		C172.599,263.804,173.845,264.176,174.806,264.921z"/>
	<path d="M188.675,265.554c1.202,1.167,1.803,2.883,1.803,5.149c0,2.19-0.529,4-1.588,5.429s-2.702,2.144-4.93,2.144
		c-1.857,0-3.332-0.632-4.424-1.896c-1.094-1.264-1.639-2.962-1.639-5.093c0-2.283,0.575-4.102,1.727-5.455
		c1.151-1.353,2.697-2.029,4.639-2.029C186.003,263.804,187.474,264.387,188.675,265.554z M187.257,274.59
		c0.557-1.145,0.834-2.419,0.834-3.823c0-1.268-0.201-2.299-0.602-3.094c-0.637-1.251-1.732-1.877-3.289-1.877
		c-1.381,0-2.386,0.533-3.014,1.598c-0.627,1.065-0.941,2.35-0.941,3.855c0,1.445,0.314,2.65,0.941,3.614
		c0.628,0.963,1.624,1.445,2.988,1.445C185.673,276.309,186.7,275.736,187.257,274.59z"/>
	<path d="M193.284,264.197h2.17v1.93c0.644-0.795,1.325-1.367,2.045-1.714c0.719-0.347,1.519-0.521,2.398-0.521
		c1.93,0,3.233,0.673,3.91,2.019c0.373,0.736,0.559,1.79,0.559,3.161v8.722h-2.322v-8.569c0-0.83-0.123-1.498-0.369-2.006
		c-0.406-0.846-1.143-1.27-2.209-1.27c-0.541,0-0.985,0.055-1.332,0.165c-0.627,0.186-1.177,0.559-1.65,1.117
		c-0.381,0.449-0.629,0.912-0.743,1.39s-0.171,1.162-0.171,2.05v7.122h-2.285V264.197z"/>
	<path d="M215.03,259.145h2.285v18.649h-2.285V259.145z"/>
	<path d="M228.03,269.565c0.525-0.067,0.877-0.287,1.055-0.659c0.102-0.204,0.152-0.497,0.152-0.879c0-0.781-0.277-1.349-0.83-1.701
		c-0.554-0.353-1.346-0.529-2.376-0.529c-1.19,0-2.036,0.323-2.534,0.97c-0.278,0.357-0.46,0.889-0.545,1.595h-2.133
		c0.043-1.681,0.586-2.85,1.63-3.507s2.255-0.987,3.633-0.987c1.598,0,2.896,0.305,3.894,0.914c0.988,0.609,1.482,1.557,1.482,2.844
		v7.833c0,0.237,0.049,0.428,0.146,0.571s0.303,0.215,0.615,0.215c0.102,0,0.217-0.006,0.344-0.019s0.262-0.032,0.406-0.057v1.688
		c-0.355,0.102-0.627,0.165-0.812,0.19c-0.187,0.025-0.44,0.038-0.762,0.038c-0.787,0-1.359-0.279-1.715-0.838
		c-0.186-0.296-0.316-0.715-0.393-1.256c-0.466,0.609-1.135,1.138-2.006,1.586c-0.872,0.449-1.833,0.673-2.883,0.673
		c-1.261,0-2.291-0.383-3.091-1.147c-0.8-0.765-1.2-1.722-1.2-2.872c0-1.259,0.395-2.236,1.182-2.929
		c0.787-0.693,1.819-1.12,3.098-1.281L228.03,269.565z M223.22,275.739c0.482,0.38,1.053,0.57,1.713,0.57
		c0.805,0,1.583-0.186,2.336-0.558c1.27-0.617,1.904-1.626,1.904-3.029v-1.838c-0.278,0.178-0.637,0.327-1.076,0.446
		c-0.439,0.119-0.87,0.204-1.293,0.254l-1.381,0.177c-0.828,0.11-1.45,0.283-1.867,0.52c-0.707,0.397-1.061,1.03-1.061,1.9
		C222.495,274.839,222.737,275.358,223.22,275.739z"/>
	<path d="M242.427,259.081h2.285v6.957c0.542-0.686,1.029-1.168,1.461-1.447c0.736-0.482,1.654-0.724,2.754-0.724
		c1.973,0,3.31,0.69,4.012,2.069c0.381,0.753,0.572,1.798,0.572,3.136v8.722h-2.35v-8.569c0-0.999-0.127-1.731-0.381-2.196
		c-0.414-0.745-1.193-1.117-2.336-1.117c-0.947,0-1.807,0.326-2.576,0.978c-0.771,0.652-1.156,1.883-1.156,3.694v7.211h-2.285
		V259.081z"/>
	<path d="M266.739,265.554c1.201,1.167,1.803,2.883,1.803,5.149c0,2.19-0.53,4-1.589,5.429c-1.06,1.429-2.702,2.144-4.929,2.144
		c-1.857,0-3.332-0.632-4.426-1.896c-1.092-1.264-1.639-2.962-1.639-5.093c0-2.283,0.576-4.102,1.728-5.455
		c1.151-1.353,2.698-2.029,4.64-2.029C264.066,263.804,265.537,264.387,266.739,265.554z M265.319,274.59
		c0.557-1.145,0.836-2.419,0.836-3.823c0-1.268-0.201-2.299-0.604-3.094c-0.636-1.251-1.732-1.877-3.289-1.877
		c-1.381,0-2.385,0.533-3.012,1.598c-0.628,1.065-0.941,2.35-0.941,3.855c0,1.445,0.313,2.65,0.941,3.614
		c0.627,0.963,1.623,1.445,2.987,1.445C263.736,276.309,264.763,275.736,265.319,274.59z"/>
	<path d="M272.706,273.528c0.068,0.762,0.263,1.346,0.582,1.752c0.588,0.736,1.607,1.104,3.059,1.104
		c0.863,0,1.623-0.184,2.28-0.552s0.985-0.938,0.985-1.708c0-0.584-0.263-1.028-0.787-1.333c-0.336-0.186-0.998-0.402-1.987-0.647
		l-1.845-0.457c-1.179-0.288-2.047-0.609-2.606-0.965c-0.997-0.618-1.497-1.473-1.497-2.564c0-1.287,0.471-2.328,1.409-3.123
		s2.202-1.193,3.789-1.193c2.075,0,3.572,0.601,4.489,1.803c0.575,0.762,0.854,1.583,0.838,2.463h-2.158
		c-0.044-0.513-0.23-0.98-0.559-1.401c-0.538-0.598-1.469-0.896-2.795-0.896c-0.884,0-1.553,0.165-2.008,0.493
		c-0.455,0.329-0.682,0.764-0.682,1.303c0,0.59,0.299,1.062,0.896,1.417c0.344,0.211,0.854,0.397,1.525,0.558l1.539,0.368
		c1.674,0.398,2.795,0.783,3.363,1.155c0.889,0.584,1.334,1.502,1.334,2.755c0,1.21-0.465,2.255-1.395,3.136s-2.346,1.32-4.248,1.32
		c-2.049,0-3.498-0.459-4.352-1.377c-0.853-0.918-1.309-2.055-1.369-3.409H272.706z"/>
	<path d="M284.157,264.261h2.234v1.803c0.457-0.618,0.959-1.096,1.502-1.435c0.771-0.508,1.68-0.762,2.723-0.762
		c1.545,0,2.855,0.59,3.934,1.771s1.617,2.867,1.617,5.059c0,2.962-0.777,5.078-2.333,6.348c-0.985,0.804-2.133,1.206-3.44,1.206
		c-1.029,0-1.891-0.224-2.588-0.673c-0.408-0.254-0.862-0.69-1.363-1.308v6.944h-2.285V264.261z M292.755,274.918
		c0.709-0.893,1.062-2.228,1.062-4.005c0-1.083-0.156-2.014-0.471-2.793c-0.595-1.498-1.682-2.247-3.262-2.247
		c-1.588,0-2.675,0.792-3.261,2.374c-0.313,0.846-0.472,1.921-0.472,3.225c0,1.049,0.158,1.942,0.472,2.679
		c0.595,1.405,1.682,2.107,3.261,2.107C291.155,276.258,292.045,275.812,292.755,274.918z"/>
	<path d="M298.808,259.145h2.322v2.59h-2.322V259.145z M298.808,264.261h2.322v13.533h-2.322V264.261z"/>
	<path d="M305.04,260.401h2.311v3.796h2.172v1.866h-2.172v8.874c0,0.474,0.161,0.792,0.482,0.952c0.178,0.093,0.475,0.14,0.889,0.14
		c0.11,0,0.229-0.003,0.355-0.008s0.275-0.02,0.445-0.042v1.815c-0.263,0.076-0.535,0.131-0.819,0.165s-0.591,0.051-0.921,0.051
		c-1.066,0-1.789-0.273-2.17-0.819s-0.572-1.255-0.572-2.126v-9.001h-1.84v-1.866h1.84V260.401z"/>
	<path d="M319.095,269.565c0.524-0.067,0.875-0.287,1.053-0.659c0.102-0.204,0.152-0.497,0.152-0.879
		c0-0.781-0.276-1.349-0.83-1.701c-0.553-0.353-1.345-0.529-2.375-0.529c-1.191,0-2.035,0.323-2.533,0.97
		c-0.279,0.357-0.461,0.889-0.545,1.595h-2.133c0.042-1.681,0.585-2.85,1.629-3.507s2.255-0.987,3.633-0.987
		c1.598,0,2.896,0.305,3.893,0.914c0.989,0.609,1.484,1.557,1.484,2.844v7.833c0,0.237,0.049,0.428,0.146,0.571
		s0.303,0.215,0.616,0.215c0.102,0,0.215-0.006,0.342-0.019s0.263-0.032,0.406-0.057v1.688c-0.355,0.102-0.626,0.165-0.812,0.19
		c-0.186,0.025-0.439,0.038-0.762,0.038c-0.787,0-1.357-0.279-1.713-0.838c-0.187-0.296-0.318-0.715-0.395-1.256
		c-0.465,0.609-1.134,1.138-2.006,1.586c-0.871,0.449-1.832,0.673-2.881,0.673c-1.262,0-2.292-0.383-3.092-1.147
		c-0.8-0.765-1.199-1.722-1.199-2.872c0-1.259,0.393-2.236,1.18-2.929c0.787-0.693,1.82-1.12,3.098-1.281L319.095,269.565z
		 M314.282,275.739c0.482,0.38,1.055,0.57,1.715,0.57c0.804,0,1.582-0.186,2.336-0.558c1.27-0.617,1.904-1.626,1.904-3.029v-1.838
		c-0.279,0.178-0.639,0.327-1.078,0.446c-0.438,0.119-0.869,0.204-1.291,0.254l-1.382,0.177c-0.827,0.11-1.45,0.283-1.867,0.52
		c-0.706,0.397-1.06,1.03-1.06,1.9C313.56,274.839,313.8,275.358,314.282,275.739z"/>
	<path d="M326.331,259.145h2.285v18.649h-2.285V259.145z"/>
	<path d="M332.044,259.145h2.322v2.59h-2.322V259.145z M332.044,264.261h2.322v13.533h-2.322V264.261z"/>
	<path d="M345.29,264.616c0.404,0.254,0.864,0.698,1.379,1.333v-6.868h2.195v18.713h-2.057v-1.892
		c-0.531,0.838-1.159,1.443-1.884,1.815c-0.726,0.373-1.556,0.559-2.491,0.559c-1.51,0-2.816-0.637-3.921-1.911
		s-1.657-2.969-1.657-5.084c0-1.98,0.504-3.696,1.512-5.148s2.447-2.177,4.318-2.177
		C343.722,263.956,344.591,264.176,345.29,264.616z M340.188,274.811c0.615,0.982,1.601,1.473,2.957,1.473
		c1.052,0,1.917-0.455,2.596-1.365c0.678-0.91,1.016-2.215,1.016-3.917c0-1.718-0.35-2.99-1.048-3.815
		c-0.699-0.825-1.562-1.238-2.589-1.238c-1.146,0-2.074,0.44-2.785,1.32c-0.713,0.88-1.068,2.175-1.068,3.885
		C339.267,272.61,339.574,273.829,340.188,274.811z"/>
	<path d="M359.567,269.565c0.524-0.067,0.875-0.287,1.053-0.659c0.102-0.204,0.152-0.497,0.152-0.879
		c0-0.781-0.276-1.349-0.83-1.701c-0.553-0.353-1.345-0.529-2.375-0.529c-1.191,0-2.035,0.323-2.533,0.97
		c-0.279,0.357-0.461,0.889-0.545,1.595h-2.133c0.042-1.681,0.585-2.85,1.629-3.507s2.255-0.987,3.633-0.987
		c1.598,0,2.896,0.305,3.893,0.914c0.989,0.609,1.484,1.557,1.484,2.844v7.833c0,0.237,0.049,0.428,0.146,0.571
		s0.303,0.215,0.616,0.215c0.102,0,0.215-0.006,0.342-0.019s0.263-0.032,0.406-0.057v1.688c-0.355,0.102-0.626,0.165-0.812,0.19
		c-0.186,0.025-0.439,0.038-0.762,0.038c-0.787,0-1.357-0.279-1.713-0.838c-0.187-0.296-0.318-0.715-0.395-1.256
		c-0.465,0.609-1.134,1.138-2.006,1.586c-0.871,0.449-1.832,0.673-2.881,0.673c-1.262,0-2.292-0.383-3.092-1.147
		c-0.8-0.765-1.199-1.722-1.199-2.872c0-1.259,0.393-2.236,1.18-2.929c0.787-0.693,1.82-1.12,3.098-1.281L359.567,269.565z
		 M354.755,275.739c0.482,0.38,1.055,0.57,1.715,0.57c0.804,0,1.582-0.186,2.336-0.558c1.27-0.617,1.904-1.626,1.904-3.029v-1.838
		c-0.279,0.178-0.639,0.327-1.078,0.446c-0.438,0.119-0.869,0.204-1.291,0.254l-1.382,0.177c-0.827,0.11-1.45,0.283-1.867,0.52
		c-0.706,0.397-1.06,1.03-1.06,1.9C354.032,274.839,354.272,275.358,354.755,275.739z"/>
	<path d="M374.21,264.616c0.404,0.254,0.864,0.698,1.379,1.333v-6.868h2.195v18.713h-2.057v-1.892
		c-0.531,0.838-1.159,1.443-1.884,1.815c-0.726,0.373-1.556,0.559-2.491,0.559c-1.51,0-2.816-0.637-3.921-1.911
		s-1.657-2.969-1.657-5.084c0-1.98,0.504-3.696,1.512-5.148s2.447-2.177,4.318-2.177
		C372.642,263.956,373.511,264.176,374.21,264.616z M369.108,274.811c0.615,0.982,1.601,1.473,2.957,1.473
		c1.052,0,1.917-0.455,2.596-1.365c0.678-0.91,1.016-2.215,1.016-3.917c0-1.718-0.35-2.99-1.048-3.815
		c-0.699-0.825-1.562-1.238-2.589-1.238c-1.146,0-2.074,0.44-2.785,1.32c-0.713,0.88-1.068,2.175-1.068,3.885
		C368.187,272.61,368.494,273.829,369.108,274.811z"/>
	<path d="M58.04,295.397h2.527c-0.322,0.872-1.037,2.862-2.146,5.97c-0.829,2.337-1.523,4.242-2.082,5.715
		c-1.318,3.467-2.248,5.582-2.79,6.343c-0.541,0.761-1.472,1.142-2.79,1.142c-0.322,0-0.568-0.013-0.742-0.038
		s-0.387-0.072-0.641-0.14v-2.082c0.396,0.11,0.685,0.178,0.861,0.203c0.178,0.025,0.334,0.038,0.47,0.038
		c0.422,0,0.732-0.07,0.931-0.209c0.199-0.14,0.366-0.311,0.502-0.513c0.041-0.068,0.193-0.414,0.455-1.039s0.452-1.09,0.57-1.394
		l-5.027-13.997h2.59l3.645,11.075L58.04,295.397z"/>
	<path d="M78.163,295.772c0.9,0.453,1.586,1.039,2.057,1.758c0.454,0.686,0.757,1.485,0.908,2.399
		c0.135,0.626,0.202,1.625,0.202,2.996h-9.89c0.042,1.383,0.365,2.493,0.971,3.329c0.604,0.836,1.54,1.254,2.809,1.254
		c1.184,0,2.129-0.396,2.834-1.186c0.395-0.459,0.674-0.99,0.839-1.594h2.247c-0.059,0.5-0.256,1.056-0.59,1.669
		c-0.335,0.614-0.708,1.115-1.119,1.504c-0.689,0.677-1.541,1.134-2.558,1.371c-0.546,0.135-1.163,0.203-1.853,0.203
		c-1.682,0-3.107-0.616-4.277-1.847c-1.168-1.231-1.753-2.956-1.753-5.173c0-2.184,0.589-3.957,1.767-5.319s2.717-2.044,4.617-2.044
		C76.333,295.093,77.263,295.319,78.163,295.772z M78.981,301.11c-0.092-0.99-0.307-1.782-0.643-2.374
		c-0.621-1.1-1.657-1.65-3.109-1.65c-1.04,0-1.913,0.379-2.618,1.136c-0.704,0.757-1.078,1.72-1.12,2.888H78.981z"/>
	<path d="M84.288,290.345h2.285v18.649h-2.285V290.345z"/>
	<path d="M98.583,304.729c0.068,0.762,0.264,1.346,0.583,1.752c0.587,0.736,1.606,1.104,3.058,1.104
		c0.864,0,1.624-0.184,2.281-0.552c0.656-0.368,0.984-0.938,0.984-1.708c0-0.584-0.262-1.028-0.787-1.333
		c-0.336-0.186-0.998-0.402-1.986-0.647l-1.846-0.457c-1.178-0.288-2.047-0.609-2.605-0.965c-0.998-0.618-1.497-1.473-1.497-2.564
		c0-1.287,0.47-2.328,1.409-3.123c0.938-0.795,2.201-1.193,3.789-1.193c2.075,0,3.572,0.601,4.489,1.803
		c0.575,0.762,0.854,1.583,0.837,2.463h-2.158c-0.043-0.513-0.229-0.98-0.559-1.401c-0.537-0.598-1.469-0.896-2.795-0.896
		c-0.883,0-1.553,0.165-2.008,0.493c-0.454,0.329-0.682,0.764-0.682,1.303c0,0.59,0.299,1.062,0.896,1.417
		c0.345,0.211,0.854,0.397,1.526,0.558l1.539,0.368c1.673,0.398,2.794,0.783,3.363,1.155c0.889,0.584,1.333,1.502,1.333,2.755
		c0,1.21-0.465,2.255-1.395,3.136s-2.346,1.32-4.248,1.32c-2.048,0-3.498-0.459-4.351-1.377s-1.31-2.055-1.369-3.409H98.583z"/>
	<path d="M118.623,295.772c0.899,0.453,1.585,1.039,2.057,1.758c0.454,0.686,0.757,1.485,0.908,2.399
		c0.135,0.626,0.202,1.625,0.202,2.996h-9.89c0.042,1.383,0.365,2.493,0.97,3.329c0.605,0.836,1.541,1.254,2.809,1.254
		c1.185,0,2.129-0.396,2.835-1.186c0.395-0.459,0.675-0.99,0.839-1.594h2.247c-0.06,0.5-0.256,1.056-0.591,1.669
		c-0.334,0.614-0.707,1.115-1.118,1.504c-0.688,0.677-1.542,1.134-2.558,1.371c-0.547,0.135-1.164,0.203-1.853,0.203
		c-1.683,0-3.107-0.616-4.276-1.847c-1.17-1.231-1.754-2.956-1.754-5.173c0-2.184,0.589-3.957,1.767-5.319
		c1.177-1.363,2.717-2.044,4.618-2.044C116.794,295.093,117.723,295.319,118.623,295.772z M119.441,301.11
		c-0.093-0.99-0.307-1.782-0.642-2.374c-0.621-1.1-1.658-1.65-3.109-1.65c-1.041,0-1.914,0.379-2.619,1.136s-1.078,1.72-1.12,2.888
		H119.441z"/>
	<path d="M124.748,295.397h2.171v2.349c0.178-0.457,0.613-1.014,1.308-1.669s1.493-0.984,2.399-0.984
		c0.043,0,0.114,0.004,0.216,0.013s0.274,0.025,0.521,0.051v2.412c-0.135-0.025-0.26-0.042-0.375-0.051
		c-0.113-0.008-0.238-0.013-0.374-0.013c-1.151,0-2.036,0.37-2.653,1.111s-0.927,1.593-0.927,2.558v7.82h-2.285V295.397z"/>
	<path d="M134.466,295.397l3.631,11.07l3.783-11.07h2.502l-5.119,13.597h-2.436l-5.014-13.597H134.466z"/>
	<path d="M146.343,290.345h2.323v2.59h-2.323V290.345z M146.343,295.461h2.323v13.533h-2.323V295.461z"/>
	<path d="M161.101,296.121c0.961,0.745,1.539,2.027,1.733,3.847h-2.222c-0.135-0.838-0.444-1.534-0.927-2.088
		s-1.257-0.832-2.323-0.832c-1.455,0-2.496,0.71-3.123,2.13c-0.406,0.921-0.609,2.058-0.609,3.411c0,1.361,0.287,2.506,0.863,3.437
		c0.576,0.93,1.48,1.395,2.717,1.395c0.947,0,1.699-0.289,2.254-0.866c0.554-0.578,0.938-1.368,1.148-2.371h2.222
		c-0.254,1.803-0.889,3.121-1.904,3.955s-2.315,1.25-3.897,1.25c-1.777,0-3.195-0.649-4.253-1.949s-1.587-2.922-1.587-4.869
		c0-2.387,0.58-4.245,1.739-5.573s2.636-1.993,4.431-1.993C158.894,295.004,160.141,295.376,161.101,296.121z"/>
	<path d="M165.119,290.345h2.323v2.59h-2.323V290.345z M165.119,295.461h2.323v13.533h-2.323V295.461z"/>
	<path d="M180.747,296.754c1.201,1.167,1.803,2.883,1.803,5.149c0,2.19-0.529,4-1.588,5.429c-1.06,1.429-2.703,2.144-4.93,2.144
		c-1.857,0-3.332-0.632-4.425-1.896s-1.639-2.962-1.639-5.093c0-2.283,0.575-4.102,1.728-5.455c1.15-1.353,2.697-2.029,4.639-2.029
		C178.075,295.004,179.546,295.587,180.747,296.754z M179.328,305.791c0.557-1.145,0.835-2.419,0.835-3.823
		c0-1.268-0.201-2.299-0.603-3.094c-0.636-1.251-1.732-1.877-3.289-1.877c-1.381,0-2.386,0.533-3.013,1.598
		c-0.627,1.065-0.941,2.35-0.941,3.855c0,1.445,0.314,2.65,0.941,3.614c0.627,0.963,1.623,1.445,2.988,1.445
		C177.745,307.509,178.771,306.936,179.328,305.791z"/>
	<path d="M200.249,295.943c0.422,0.305,0.828,0.753,1.217,1.346v-1.892h2.158v19.018h-2.285v-6.982
		c-0.381,0.609-0.906,1.094-1.578,1.454s-1.512,0.54-2.518,0.54c-1.445,0-2.738-0.567-3.879-1.701
		c-1.142-1.134-1.712-2.861-1.712-5.18c0-2.175,0.534-3.961,1.604-5.357c1.068-1.396,2.453-2.095,4.152-2.095
		C198.532,295.093,199.479,295.376,200.249,295.943z M194.533,305.338c0.583,1.414,1.626,2.12,3.13,2.12
		c1.589,0,2.684-0.745,3.283-2.234c0.329-0.821,0.494-1.871,0.494-3.148c0-1.176-0.182-2.158-0.545-2.945
		c-0.617-1.346-1.703-2.019-3.258-2.019c-0.988,0-1.835,0.43-2.541,1.289c-0.705,0.859-1.058,2.186-1.058,3.98
		C194.039,303.556,194.204,304.542,194.533,305.338z"/>
	<path d="M209.324,295.397v9.026c0,0.694,0.106,1.261,0.321,1.701c0.396,0.812,1.133,1.219,2.213,1.219
		c1.55,0,2.605-0.711,3.166-2.133c0.305-0.762,0.457-1.807,0.457-3.136v-6.678h2.285v13.597h-2.158l0.025-2.006
		c-0.291,0.516-0.652,0.952-1.084,1.308c-0.855,0.711-1.894,1.066-3.114,1.066c-1.901,0-3.198-0.647-3.887-1.942
		c-0.374-0.694-0.561-1.621-0.561-2.78v-9.242H209.324z"/>
	<path d="M229.897,295.772c0.9,0.453,1.586,1.039,2.057,1.758c0.454,0.686,0.757,1.485,0.908,2.399
		c0.135,0.626,0.202,1.625,0.202,2.996h-9.89c0.042,1.383,0.365,2.493,0.971,3.329c0.604,0.836,1.54,1.254,2.809,1.254
		c1.184,0,2.129-0.396,2.834-1.186c0.395-0.459,0.674-0.99,0.839-1.594h2.247c-0.059,0.5-0.256,1.056-0.59,1.669
		c-0.335,0.614-0.708,1.115-1.119,1.504c-0.689,0.677-1.541,1.134-2.558,1.371c-0.546,0.135-1.163,0.203-1.853,0.203
		c-1.682,0-3.107-0.616-4.277-1.847c-1.168-1.231-1.753-2.956-1.753-5.173c0-2.184,0.589-3.957,1.767-5.319s2.717-2.044,4.617-2.044
		C228.067,295.093,228.997,295.319,229.897,295.772z M230.716,301.11c-0.092-0.99-0.307-1.782-0.643-2.374
		c-0.621-1.1-1.657-1.65-3.109-1.65c-1.04,0-1.913,0.379-2.618,1.136c-0.704,0.757-1.078,1.72-1.12,2.888H230.716z"/>
	<path d="M243.64,291.602h2.311v3.796h2.171v1.866h-2.171v8.874c0,0.474,0.16,0.792,0.482,0.952c0.178,0.093,0.475,0.14,0.889,0.14
		c0.109,0,0.229-0.003,0.355-0.008s0.275-0.02,0.444-0.042v1.815c-0.263,0.076-0.535,0.131-0.819,0.165
		c-0.283,0.034-0.59,0.051-0.92,0.051c-1.066,0-1.79-0.273-2.171-0.819s-0.571-1.255-0.571-2.126v-9.001h-1.841v-1.866h1.841
		V291.602z"/>
	<path d="M258.805,295.772c0.899,0.453,1.585,1.039,2.057,1.758c0.454,0.686,0.757,1.485,0.908,2.399
		c0.135,0.626,0.202,1.625,0.202,2.996h-9.89c0.042,1.383,0.365,2.493,0.97,3.329c0.605,0.836,1.541,1.254,2.809,1.254
		c1.185,0,2.129-0.396,2.835-1.186c0.395-0.459,0.675-0.99,0.839-1.594h2.247c-0.06,0.5-0.256,1.056-0.591,1.669
		c-0.334,0.614-0.707,1.115-1.118,1.504c-0.688,0.677-1.542,1.134-2.558,1.371c-0.547,0.135-1.164,0.203-1.853,0.203
		c-1.683,0-3.107-0.616-4.276-1.847c-1.17-1.231-1.754-2.956-1.754-5.173c0-2.184,0.589-3.957,1.767-5.319
		c1.177-1.363,2.717-2.044,4.618-2.044C256.976,295.093,257.904,295.319,258.805,295.772z M259.623,301.11
		c-0.093-0.99-0.307-1.782-0.642-2.374c-0.621-1.1-1.658-1.65-3.109-1.65c-1.041,0-1.914,0.379-2.619,1.136s-1.078,1.72-1.12,2.888
		H259.623z"/>
	<path d="M272.09,295.397h2.26v1.93c0.542-0.668,1.032-1.155,1.473-1.46c0.753-0.516,1.608-0.774,2.564-0.774
		c1.083,0,1.955,0.267,2.615,0.8c0.372,0.305,0.711,0.753,1.016,1.346c0.508-0.728,1.104-1.268,1.79-1.619s1.455-0.527,2.311-0.527
		c1.828,0,3.072,0.66,3.732,1.98c0.355,0.711,0.533,1.667,0.533,2.869v9.052h-2.374v-9.445c0-0.906-0.227-1.528-0.679-1.866
		c-0.453-0.338-1.006-0.508-1.657-0.508c-0.897,0-1.669,0.3-2.317,0.901c-0.646,0.601-0.971,1.604-0.971,3.009v7.909h-2.323v-8.874
		c0-0.922-0.11-1.595-0.33-2.019c-0.347-0.635-0.995-0.952-1.942-0.952c-0.863,0-1.648,0.334-2.355,1.003
		c-0.706,0.668-1.06,1.879-1.06,3.631v7.211h-2.285V295.397z"/>
	<path d="M302.146,295.772c0.899,0.453,1.585,1.039,2.057,1.758c0.454,0.686,0.757,1.485,0.908,2.399
		c0.135,0.626,0.202,1.625,0.202,2.996h-9.89c0.042,1.383,0.365,2.493,0.97,3.329c0.605,0.836,1.541,1.254,2.809,1.254
		c1.185,0,2.129-0.396,2.835-1.186c0.395-0.459,0.675-0.99,0.839-1.594h2.247c-0.06,0.5-0.256,1.056-0.591,1.669
		c-0.334,0.614-0.707,1.115-1.118,1.504c-0.688,0.677-1.542,1.134-2.558,1.371c-0.547,0.135-1.164,0.203-1.853,0.203
		c-1.683,0-3.107-0.616-4.276-1.847c-1.17-1.231-1.754-2.956-1.754-5.173c0-2.184,0.589-3.957,1.767-5.319
		c1.177-1.363,2.717-2.044,4.618-2.044C300.317,295.093,301.246,295.319,302.146,295.772z M302.965,301.11
		c-0.093-0.99-0.307-1.782-0.642-2.374c-0.621-1.1-1.658-1.65-3.109-1.65c-1.041,0-1.914,0.379-2.619,1.136s-1.078,1.72-1.12,2.888
		H302.965z"/>
	<path d="M308.271,295.397h2.171v2.349c0.178-0.457,0.613-1.014,1.308-1.669s1.493-0.984,2.399-0.984
		c0.043,0,0.114,0.004,0.216,0.013s0.274,0.025,0.521,0.051v2.412c-0.135-0.025-0.26-0.042-0.375-0.051
		c-0.113-0.008-0.238-0.013-0.374-0.013c-1.151,0-2.036,0.37-2.653,1.111s-0.927,1.593-0.927,2.558v7.82h-2.285V295.397z"/>
	<path d="M325.265,295.772c0.9,0.453,1.586,1.039,2.057,1.758c0.454,0.686,0.757,1.485,0.908,2.399
		c0.135,0.626,0.202,1.625,0.202,2.996h-9.89c0.042,1.383,0.365,2.493,0.971,3.329c0.604,0.836,1.54,1.254,2.809,1.254
		c1.184,0,2.129-0.396,2.834-1.186c0.395-0.459,0.674-0.99,0.839-1.594h2.247c-0.059,0.5-0.256,1.056-0.59,1.669
		c-0.335,0.614-0.708,1.115-1.119,1.504c-0.689,0.677-1.541,1.134-2.558,1.371c-0.546,0.135-1.163,0.203-1.853,0.203
		c-1.682,0-3.107-0.616-4.277-1.847c-1.168-1.231-1.753-2.956-1.753-5.173c0-2.184,0.589-3.957,1.767-5.319s2.717-2.044,4.617-2.044
		C323.435,295.093,324.364,295.319,325.265,295.772z M326.083,301.11c-0.092-0.99-0.307-1.782-0.643-2.374
		c-0.621-1.1-1.657-1.65-3.109-1.65c-1.04,0-1.913,0.379-2.618,1.136c-0.704,0.757-1.078,1.72-1.12,2.888H326.083z"/>
	<path d="M340.308,296.121c0.961,0.745,1.539,2.027,1.733,3.847h-2.222c-0.135-0.838-0.444-1.534-0.927-2.088
		s-1.257-0.832-2.323-0.832c-1.455,0-2.496,0.71-3.123,2.13c-0.406,0.921-0.609,2.058-0.609,3.411c0,1.361,0.287,2.506,0.863,3.437
		c0.576,0.93,1.48,1.395,2.717,1.395c0.947,0,1.699-0.289,2.254-0.866c0.554-0.578,0.938-1.368,1.148-2.371h2.222
		c-0.254,1.803-0.889,3.121-1.904,3.955s-2.315,1.25-3.897,1.25c-1.777,0-3.195-0.649-4.253-1.949s-1.587-2.922-1.587-4.869
		c0-2.387,0.58-4.245,1.739-5.573s2.636-1.993,4.431-1.993C338.101,295.004,339.348,295.376,340.308,296.121z"/>
	<path d="M352.725,295.772c0.899,0.453,1.585,1.039,2.057,1.758c0.454,0.686,0.757,1.485,0.908,2.399
		c0.135,0.626,0.202,1.625,0.202,2.996h-9.89c0.042,1.383,0.365,2.493,0.97,3.329c0.605,0.836,1.541,1.254,2.809,1.254
		c1.185,0,2.129-0.396,2.835-1.186c0.395-0.459,0.675-0.99,0.839-1.594h2.247c-0.06,0.5-0.256,1.056-0.591,1.669
		c-0.334,0.614-0.707,1.115-1.118,1.504c-0.688,0.677-1.542,1.134-2.558,1.371c-0.547,0.135-1.164,0.203-1.853,0.203
		c-1.683,0-3.107-0.616-4.276-1.847c-1.17-1.231-1.754-2.956-1.754-5.173c0-2.184,0.589-3.957,1.767-5.319
		c1.177-1.363,2.717-2.044,4.618-2.044C350.896,295.093,351.824,295.319,352.725,295.772z M353.543,301.11
		c-0.093-0.99-0.307-1.782-0.642-2.374c-0.621-1.1-1.658-1.65-3.109-1.65c-1.041,0-1.914,0.379-2.619,1.136s-1.078,1.72-1.12,2.888
		H353.543z"/>
	<path d="M360.145,304.729c0.069,0.762,0.263,1.346,0.583,1.752c0.588,0.736,1.607,1.104,3.059,1.104
		c0.863,0,1.623-0.184,2.279-0.552c0.657-0.368,0.985-0.938,0.985-1.708c0-0.584-0.263-1.028-0.787-1.333
		c-0.335-0.186-0.997-0.402-1.987-0.647l-1.845-0.457c-1.179-0.288-2.047-0.609-2.606-0.965c-0.997-0.618-1.496-1.473-1.496-2.564
		c0-1.287,0.47-2.328,1.408-3.123c0.939-0.795,2.203-1.193,3.789-1.193c2.076,0,3.572,0.601,4.49,1.803
		c0.574,0.762,0.854,1.583,0.837,2.463h-2.158c-0.044-0.513-0.229-0.98-0.559-1.401c-0.538-0.598-1.469-0.896-2.794-0.896
		c-0.885,0-1.553,0.165-2.008,0.493c-0.455,0.329-0.683,0.764-0.683,1.303c0,0.59,0.299,1.062,0.896,1.417
		c0.345,0.211,0.854,0.397,1.526,0.558l1.539,0.368c1.673,0.398,2.794,0.783,3.363,1.155c0.889,0.584,1.333,1.502,1.333,2.755
		c0,1.21-0.465,2.255-1.395,3.136s-2.346,1.32-4.248,1.32c-2.048,0-3.498-0.459-4.351-1.377c-0.854-0.918-1.309-2.055-1.369-3.409
		H360.145z"/>
	<path d="M372.332,306.227h2.653v2.768h-2.653V306.227z"/>
</g>
</svg>
