<?xml version="1.0" encoding="utf-8"?>
<!-- Generator: Adobe Illustrator 16.0.0, SVG Export Plug-In . SVG Version: 6.00 Build 0)  -->
<!DOCTYPE svg PUBLIC "-//W3C//DTD SVG 1.1//EN" "http://www.w3.org/Graphics/SVG/1.1/DTD/svg11.dtd">
<svg version="1.1" id="Layer_1" xmlns="http://www.w3.org/2000/svg" xmlns:xlink="http://www.w3.org/1999/xlink" x="0px" y="0px"
	 width="425.2px" height="425.2px" viewBox="0 0 425.2 425.2" enable-background="new 0 0 425.2 425.2" xml:space="preserve">
<g>
	<g>
		<path style="fill:rgba(255,255,255,0.8);" d="M212.6,423.7C96.199,423.7,1.5,329.001,1.5,212.6S96.199,1.5,212.6,1.5s211.1,94.699,211.1,211.1
			S329.001,423.7,212.6,423.7z"/>
		<path fill="#231F20" d="M212.6,3c28.297,0,55.747,5.542,81.584,16.47c24.959,10.557,47.375,25.67,66.625,44.92
			c19.25,19.25,34.364,41.666,44.921,66.625c10.929,25.839,16.47,53.288,16.47,81.585c0,28.297-5.541,55.747-16.47,81.585
			c-10.557,24.958-25.671,47.375-44.921,66.625c-19.25,19.25-41.666,34.364-66.625,44.92c-25.838,10.929-53.287,16.47-81.584,16.47
			s-55.747-5.542-81.585-16.47c-24.958-10.556-47.375-25.669-66.625-44.92c-19.25-19.25-34.364-41.666-44.92-66.625
			C8.542,268.347,3,240.897,3,212.6s5.542-55.746,16.47-81.585c10.557-24.958,25.67-47.375,44.92-66.625
			c19.25-19.25,41.666-34.364,66.625-44.92C156.854,8.542,184.303,3,212.6,3 M212.6,0C95.184,0,0,95.185,0,212.6
			c0,117.417,95.184,212.6,212.6,212.6c117.416,0,212.6-95.183,212.6-212.6C425.2,95.185,330.016,0,212.6,0L212.6,0z"/>
	</g>
	<g>
		
			<circle fill="none" stroke="#231F20" stroke-width="12.546" stroke-miterlimit="10" stroke-dasharray="2.942,5.884" cx="212.6" cy="212.6" r="196.65"/>
	</g>
</g>
<g>
	<path d="M70.279,107.157h13.533v2.285h-11.07v5.662h10.232v2.158H72.742v6.322h11.261v2.222H70.279V107.157z"/>
	<path d="M87.139,107.157h2.285v18.649h-2.285V107.157z"/>
	<path d="M107.545,112.629c0.405,0.254,0.864,0.698,1.378,1.333v-6.868h2.196v18.713h-2.057v-1.892
		c-0.531,0.838-1.16,1.443-1.884,1.815c-0.726,0.373-1.556,0.559-2.492,0.559c-1.509,0-2.816-0.637-3.92-1.911
		s-1.657-2.969-1.657-5.084c0-1.98,0.503-3.696,1.511-5.148c1.007-1.452,2.447-2.177,4.319-2.177
		C105.978,111.969,106.846,112.189,107.545,112.629z M102.444,122.823c0.615,0.982,1.6,1.473,2.956,1.473
		c1.052,0,1.917-0.455,2.596-1.365c0.678-0.91,1.017-2.215,1.017-3.917c0-1.718-0.35-2.99-1.048-3.815
		c-0.699-0.825-1.562-1.238-2.589-1.238c-1.146,0-2.074,0.44-2.785,1.32c-0.712,0.88-1.067,2.175-1.067,3.885
		C101.522,120.623,101.83,121.841,102.444,122.823z"/>
	<path d="M114.535,107.157h2.323v2.59h-2.323V107.157z M114.535,112.273h2.323v13.533h-2.323V112.273z"/>
	<path d="M121.67,121.541c0.069,0.762,0.263,1.346,0.583,1.752c0.587,0.736,1.607,1.104,3.058,1.104c0.864,0,1.624-0.184,2.28-0.552
		s0.985-0.938,0.985-1.708c0-0.584-0.262-1.028-0.787-1.333c-0.335-0.186-0.998-0.402-1.987-0.647l-1.845-0.457
		c-1.178-0.288-2.047-0.609-2.606-0.965c-0.998-0.618-1.497-1.473-1.497-2.564c0-1.287,0.47-2.328,1.409-3.123
		s2.202-1.193,3.789-1.193c2.076,0,3.572,0.601,4.49,1.803c0.575,0.762,0.854,1.583,0.837,2.463h-2.158
		c-0.043-0.513-0.229-0.98-0.559-1.401c-0.538-0.598-1.469-0.896-2.794-0.896c-0.884,0-1.553,0.165-2.008,0.493
		c-0.455,0.329-0.682,0.764-0.682,1.303c0,0.59,0.299,1.062,0.896,1.417c0.345,0.211,0.854,0.397,1.526,0.558l1.539,0.368
		c1.673,0.398,2.794,0.783,3.363,1.155c0.889,0.584,1.333,1.502,1.333,2.755c0,1.21-0.465,2.255-1.395,3.136s-2.346,1.32-4.248,1.32
		c-2.048,0-3.498-0.459-4.351-1.377c-0.853-0.918-1.309-2.055-1.369-3.409H121.67z"/>
	<path d="M141.71,112.584c0.9,0.453,1.585,1.039,2.057,1.758c0.454,0.686,0.757,1.485,0.908,2.399
		c0.135,0.626,0.202,1.625,0.202,2.996h-9.89c0.042,1.383,0.365,2.493,0.97,3.329c0.604,0.836,1.541,1.254,2.809,1.254
		c1.184,0,2.129-0.396,2.834-1.186c0.395-0.459,0.674-0.99,0.839-1.594h2.247c-0.059,0.5-0.256,1.056-0.59,1.669
		s-0.708,1.115-1.119,1.504c-0.689,0.677-1.542,1.134-2.558,1.371c-0.546,0.135-1.164,0.203-1.853,0.203
		c-1.682,0-3.107-0.616-4.277-1.847c-1.169-1.231-1.753-2.956-1.753-5.173c0-2.184,0.589-3.957,1.767-5.319
		c1.177-1.363,2.717-2.044,4.618-2.044C139.88,111.905,140.81,112.132,141.71,112.584z M142.528,117.923
		c-0.092-0.99-0.307-1.782-0.642-2.374c-0.621-1.1-1.658-1.65-3.109-1.65c-1.041,0-1.914,0.379-2.619,1.136
		c-0.705,0.757-1.078,1.72-1.12,2.888H142.528z"/>
	<path d="M147.771,112.21h2.171v1.93c0.643-0.795,1.325-1.367,2.044-1.714s1.519-0.521,2.399-0.521c1.93,0,3.233,0.673,3.91,2.019
		c0.373,0.736,0.559,1.79,0.559,3.161v8.722h-2.323v-8.569c0-0.83-0.123-1.498-0.368-2.006c-0.406-0.846-1.143-1.27-2.209-1.27
		c-0.542,0-0.986,0.055-1.333,0.165c-0.626,0.186-1.176,0.559-1.65,1.117c-0.381,0.449-0.628,0.912-0.743,1.39
		s-0.171,1.162-0.171,2.05v7.122h-2.285V112.21z M154.487,107.995c0.237,0.102,0.453,0.182,0.647,0.241s0.394,0.089,0.597,0.089
		c0.474,0,0.812-0.148,1.016-0.444c0.11-0.161,0.186-0.402,0.229-0.724h1.333c-0.178,1.075-0.519,1.815-1.022,2.222
		s-1.056,0.609-1.657,0.609c-0.186,0-0.423-0.034-0.711-0.102s-0.542-0.144-0.762-0.229l-0.673-0.241
		c-0.398-0.144-0.722-0.252-0.971-0.324s-0.493-0.108-0.73-0.108c-0.296,0-0.54,0.097-0.73,0.292s-0.319,0.491-0.387,0.889h-1.244
		c0.11-0.668,0.292-1.214,0.546-1.638c0.482-0.779,1.198-1.168,2.146-1.168c0.288,0,0.607,0.042,0.958,0.127
		S153.895,107.741,154.487,107.995z"/>
	<path d="M172.083,113.567c1.202,1.167,1.803,2.883,1.803,5.149c0,2.19-0.53,4-1.588,5.429c-1.059,1.429-2.702,2.144-4.929,2.144
		c-1.857,0-3.332-0.632-4.425-1.896s-1.639-2.962-1.639-5.093c0-2.283,0.576-4.102,1.727-5.455c1.151-1.353,2.698-2.029,4.639-2.029
		C169.411,111.816,170.881,112.4,172.083,113.567z M170.664,122.603c0.557-1.145,0.835-2.419,0.835-3.823
		c0-1.268-0.201-2.299-0.603-3.094c-0.636-1.251-1.732-1.877-3.289-1.877c-1.381,0-2.385,0.533-3.013,1.598
		c-0.627,1.065-0.941,2.35-0.941,3.855c0,1.445,0.314,2.65,0.941,3.614c0.627,0.963,1.624,1.445,2.988,1.445
		C169.081,124.321,170.107,123.749,170.664,122.603z"/>
	<path d="M191.385,112.629c0.405,0.254,0.864,0.698,1.378,1.333v-6.868h2.196v18.713h-2.057v-1.892
		c-0.531,0.838-1.16,1.443-1.884,1.815c-0.726,0.373-1.556,0.559-2.492,0.559c-1.509,0-2.816-0.637-3.92-1.911
		s-1.657-2.969-1.657-5.084c0-1.98,0.503-3.696,1.511-5.148c1.007-1.452,2.447-2.177,4.319-2.177
		C189.817,111.969,190.686,112.189,191.385,112.629z M186.284,122.823c0.615,0.982,1.6,1.473,2.956,1.473
		c1.052,0,1.917-0.455,2.596-1.365c0.678-0.91,1.017-2.215,1.017-3.917c0-1.718-0.35-2.99-1.048-3.815
		c-0.699-0.825-1.562-1.238-2.589-1.238c-1.146,0-2.074,0.44-2.785,1.32c-0.712,0.88-1.067,2.175-1.067,3.885
		C185.362,120.623,185.669,121.841,186.284,122.823z"/>
	<path d="M206.773,112.584c0.9,0.453,1.585,1.039,2.057,1.758c0.454,0.686,0.757,1.485,0.908,2.399
		c0.135,0.626,0.202,1.625,0.202,2.996h-9.89c0.042,1.383,0.365,2.493,0.97,3.329c0.604,0.836,1.541,1.254,2.809,1.254
		c1.184,0,2.129-0.396,2.834-1.186c0.395-0.459,0.674-0.99,0.839-1.594h2.247c-0.059,0.5-0.256,1.056-0.59,1.669
		s-0.708,1.115-1.119,1.504c-0.689,0.677-1.542,1.134-2.558,1.371c-0.546,0.135-1.164,0.203-1.853,0.203
		c-1.682,0-3.107-0.616-4.277-1.847c-1.169-1.231-1.753-2.956-1.753-5.173c0-2.184,0.589-3.957,1.767-5.319
		c1.177-1.363,2.717-2.044,4.618-2.044C204.944,111.905,205.873,112.132,206.773,112.584z M207.592,117.923
		c-0.092-0.99-0.307-1.782-0.642-2.374c-0.621-1.1-1.658-1.65-3.109-1.65c-1.041,0-1.914,0.379-2.619,1.136
		c-0.705,0.757-1.078,1.72-1.12,2.888H207.592z"/>
	<path d="M220.122,107.157h2.285v18.649h-2.285V107.157z"/>
	<path d="M233.122,117.578c0.524-0.067,0.876-0.287,1.054-0.659c0.102-0.204,0.152-0.497,0.152-0.879
		c0-0.781-0.277-1.349-0.83-1.701s-1.346-0.529-2.375-0.529c-1.191,0-2.036,0.323-2.534,0.97c-0.278,0.357-0.46,0.889-0.545,1.595
		h-2.133c0.042-1.681,0.585-2.85,1.63-3.507c1.043-0.658,2.254-0.987,3.633-0.987c1.598,0,2.895,0.305,3.893,0.914
		c0.988,0.609,1.483,1.557,1.483,2.844v7.833c0,0.237,0.049,0.428,0.146,0.571c0.098,0.144,0.303,0.215,0.616,0.215
		c0.102,0,0.216-0.006,0.343-0.019s0.262-0.032,0.406-0.057v1.688c-0.355,0.102-0.627,0.165-0.812,0.19s-0.439,0.038-0.762,0.038
		c-0.787,0-1.358-0.279-1.714-0.838c-0.187-0.296-0.317-0.715-0.394-1.256c-0.465,0.609-1.135,1.138-2.006,1.586
		c-0.871,0.449-1.832,0.673-2.882,0.673c-1.261,0-2.292-0.383-3.091-1.147c-0.801-0.765-1.2-1.722-1.2-2.872
		c0-1.259,0.394-2.236,1.181-2.929c0.787-0.693,1.82-1.12,3.098-1.281L233.122,117.578z M228.311,123.751
		c0.482,0.38,1.054,0.57,1.714,0.57c0.804,0,1.583-0.186,2.336-0.558c1.27-0.617,1.904-1.626,1.904-3.029v-1.838
		c-0.278,0.178-0.638,0.327-1.077,0.446c-0.439,0.119-0.869,0.204-1.292,0.254l-1.382,0.177c-0.827,0.11-1.449,0.283-1.867,0.52
		c-0.706,0.397-1.06,1.03-1.06,1.9C227.587,122.852,227.828,123.371,228.311,123.751z"/>
	<path d="M241.653,121.541c0.069,0.762,0.263,1.346,0.583,1.752c0.588,0.736,1.607,1.104,3.059,1.104
		c0.863,0,1.623-0.184,2.279-0.552c0.657-0.368,0.985-0.938,0.985-1.708c0-0.584-0.263-1.028-0.787-1.333
		c-0.335-0.186-0.997-0.402-1.987-0.647l-1.845-0.457c-1.179-0.288-2.047-0.609-2.606-0.965c-0.997-0.618-1.496-1.473-1.496-2.564
		c0-1.287,0.47-2.328,1.408-3.123c0.939-0.795,2.203-1.193,3.789-1.193c2.076,0,3.572,0.601,4.49,1.803
		c0.574,0.762,0.854,1.583,0.837,2.463h-2.158c-0.044-0.513-0.229-0.98-0.559-1.401c-0.538-0.598-1.469-0.896-2.794-0.896
		c-0.885,0-1.553,0.165-2.008,0.493c-0.455,0.329-0.683,0.764-0.683,1.303c0,0.59,0.299,1.062,0.896,1.417
		c0.345,0.211,0.854,0.397,1.526,0.558l1.539,0.368c1.673,0.398,2.794,0.783,3.363,1.155c0.889,0.584,1.333,1.502,1.333,2.755
		c0,1.21-0.465,2.255-1.395,3.136s-2.346,1.32-4.248,1.32c-2.048,0-3.498-0.459-4.351-1.377c-0.854-0.918-1.309-2.055-1.369-3.409
		H241.653z"/>
	<path d="M269.5,112.934c0.961,0.745,1.539,2.027,1.733,3.847h-2.222c-0.135-0.838-0.444-1.534-0.927-2.088
		s-1.257-0.832-2.323-0.832c-1.455,0-2.496,0.71-3.123,2.13c-0.406,0.921-0.609,2.058-0.609,3.411c0,1.361,0.287,2.506,0.863,3.437
		c0.576,0.93,1.48,1.395,2.717,1.395c0.947,0,1.699-0.289,2.254-0.866c0.554-0.578,0.938-1.368,1.148-2.371h2.222
		c-0.254,1.803-0.889,3.121-1.904,3.955s-2.315,1.25-3.897,1.25c-1.777,0-3.195-0.649-4.253-1.949s-1.587-2.922-1.587-4.869
		c0-2.387,0.58-4.245,1.739-5.573s2.636-1.993,4.431-1.993C267.293,111.816,268.54,112.189,269.5,112.934z"/>
	<path d="M280.806,117.578c0.524-0.067,0.876-0.287,1.054-0.659c0.102-0.204,0.152-0.497,0.152-0.879
		c0-0.781-0.277-1.349-0.83-1.701s-1.346-0.529-2.375-0.529c-1.191,0-2.036,0.323-2.534,0.97c-0.278,0.357-0.46,0.889-0.545,1.595
		h-2.133c0.042-1.681,0.585-2.85,1.63-3.507c1.043-0.658,2.254-0.987,3.633-0.987c1.598,0,2.895,0.305,3.893,0.914
		c0.988,0.609,1.483,1.557,1.483,2.844v7.833c0,0.237,0.049,0.428,0.146,0.571c0.098,0.144,0.303,0.215,0.616,0.215
		c0.102,0,0.216-0.006,0.343-0.019s0.262-0.032,0.406-0.057v1.688c-0.355,0.102-0.627,0.165-0.812,0.19s-0.439,0.038-0.762,0.038
		c-0.787,0-1.358-0.279-1.714-0.838c-0.187-0.296-0.317-0.715-0.394-1.256c-0.465,0.609-1.135,1.138-2.006,1.586
		c-0.871,0.449-1.832,0.673-2.882,0.673c-1.261,0-2.292-0.383-3.091-1.147c-0.801-0.765-1.2-1.722-1.2-2.872
		c0-1.259,0.394-2.236,1.181-2.929c0.787-0.693,1.82-1.12,3.098-1.281L280.806,117.578z M275.994,123.751
		c0.482,0.38,1.054,0.57,1.714,0.57c0.804,0,1.583-0.186,2.336-0.558c1.27-0.617,1.904-1.626,1.904-3.029v-1.838
		c-0.278,0.178-0.638,0.327-1.077,0.446c-0.439,0.119-0.869,0.204-1.292,0.254l-1.382,0.177c-0.827,0.11-1.449,0.283-1.867,0.52
		c-0.706,0.397-1.06,1.03-1.06,1.9C275.271,122.852,275.512,123.371,275.994,123.751z"/>
	<path d="M287.788,107.094h2.222v6.767c0.502-0.652,1.1-1.149,1.797-1.492s1.453-0.514,2.269-0.514c1.699,0,3.078,0.582,4.136,1.746
		c1.059,1.164,1.587,2.88,1.587,5.148c0,2.15-0.522,3.936-1.567,5.357s-2.494,2.133-4.346,2.133c-1.037,0-1.912-0.25-2.625-0.749
		c-0.426-0.296-0.88-0.77-1.364-1.422v1.739h-2.107V107.094z M296.525,122.747c0.616-0.982,0.924-2.277,0.924-3.885
		c0-1.43-0.308-2.615-0.924-3.555c-0.615-0.939-1.521-1.409-2.719-1.409c-1.045,0-1.96,0.385-2.746,1.155
		c-0.785,0.77-1.178,2.04-1.178,3.809c0,1.278,0.161,2.315,0.484,3.11c0.603,1.498,1.728,2.247,3.375,2.247
		C294.982,124.22,295.91,123.729,296.525,122.747z"/>
	<path d="M309.726,117.578c0.524-0.067,0.876-0.287,1.054-0.659c0.102-0.204,0.152-0.497,0.152-0.879
		c0-0.781-0.277-1.349-0.83-1.701s-1.346-0.529-2.375-0.529c-1.191,0-2.036,0.323-2.534,0.97c-0.278,0.357-0.46,0.889-0.545,1.595
		h-2.133c0.042-1.681,0.585-2.85,1.63-3.507c1.043-0.658,2.254-0.987,3.633-0.987c1.598,0,2.895,0.305,3.893,0.914
		c0.988,0.609,1.483,1.557,1.483,2.844v7.833c0,0.237,0.049,0.428,0.146,0.571c0.098,0.144,0.303,0.215,0.616,0.215
		c0.102,0,0.216-0.006,0.343-0.019s0.262-0.032,0.406-0.057v1.688c-0.355,0.102-0.627,0.165-0.812,0.19s-0.439,0.038-0.762,0.038
		c-0.787,0-1.358-0.279-1.714-0.838c-0.187-0.296-0.317-0.715-0.394-1.256c-0.465,0.609-1.135,1.138-2.006,1.586
		c-0.871,0.449-1.832,0.673-2.882,0.673c-1.261,0-2.292-0.383-3.091-1.147c-0.801-0.765-1.2-1.722-1.2-2.872
		c0-1.259,0.394-2.236,1.181-2.929c0.787-0.693,1.82-1.12,3.098-1.281L309.726,117.578z M304.914,123.751
		c0.482,0.38,1.054,0.57,1.714,0.57c0.804,0,1.583-0.186,2.336-0.558c1.27-0.617,1.904-1.626,1.904-3.029v-1.838
		c-0.278,0.178-0.638,0.327-1.077,0.446c-0.439,0.119-0.869,0.204-1.292,0.254l-1.382,0.177c-0.827,0.11-1.449,0.283-1.867,0.52
		c-0.706,0.397-1.06,1.03-1.06,1.9C304.19,122.852,304.432,123.371,304.914,123.751z"/>
	<path d="M316.898,112.21h2.171v1.93c0.644-0.795,1.325-1.367,2.044-1.714s1.52-0.521,2.399-0.521c1.93,0,3.233,0.673,3.91,2.019
		c0.372,0.736,0.559,1.79,0.559,3.161v8.722h-2.323v-8.569c0-0.83-0.123-1.498-0.368-2.006c-0.406-0.846-1.143-1.27-2.209-1.27
		c-0.542,0-0.985,0.055-1.333,0.165c-0.627,0.186-1.176,0.559-1.65,1.117c-0.381,0.449-0.629,0.912-0.742,1.39
		c-0.115,0.478-0.172,1.162-0.172,2.05v7.122h-2.285V112.21z M323.614,107.995c0.237,0.102,0.452,0.182,0.647,0.241
		s0.394,0.089,0.597,0.089c0.474,0,0.812-0.148,1.016-0.444c0.11-0.161,0.187-0.402,0.229-0.724h1.333
		c-0.178,1.075-0.519,1.815-1.021,2.222c-0.504,0.406-1.057,0.609-1.657,0.609c-0.187,0-0.423-0.034-0.711-0.102
		s-0.542-0.144-0.762-0.229l-0.673-0.241c-0.398-0.144-0.722-0.252-0.971-0.324c-0.25-0.072-0.494-0.108-0.73-0.108
		c-0.297,0-0.539,0.097-0.73,0.292c-0.189,0.195-0.318,0.491-0.387,0.889h-1.244c0.109-0.668,0.292-1.214,0.546-1.638
		c0.482-0.779,1.198-1.168,2.146-1.168c0.287,0,0.607,0.042,0.959,0.127C322.55,107.572,323.021,107.741,323.614,107.995z"/>
	<path d="M338.646,117.578c0.524-0.067,0.876-0.287,1.054-0.659c0.102-0.204,0.152-0.497,0.152-0.879
		c0-0.781-0.277-1.349-0.83-1.701s-1.346-0.529-2.375-0.529c-1.191,0-2.036,0.323-2.534,0.97c-0.278,0.357-0.46,0.889-0.545,1.595
		h-2.133c0.042-1.681,0.585-2.85,1.63-3.507c1.043-0.658,2.254-0.987,3.633-0.987c1.598,0,2.895,0.305,3.893,0.914
		c0.988,0.609,1.483,1.557,1.483,2.844v7.833c0,0.237,0.049,0.428,0.146,0.571c0.098,0.144,0.303,0.215,0.616,0.215
		c0.102,0,0.216-0.006,0.343-0.019s0.262-0.032,0.406-0.057v1.688c-0.355,0.102-0.627,0.165-0.812,0.19s-0.439,0.038-0.762,0.038
		c-0.787,0-1.358-0.279-1.714-0.838c-0.187-0.296-0.317-0.715-0.394-1.256c-0.465,0.609-1.135,1.138-2.006,1.586
		c-0.871,0.449-1.832,0.673-2.882,0.673c-1.261,0-2.292-0.383-3.091-1.147c-0.801-0.765-1.2-1.722-1.2-2.872
		c0-1.259,0.394-2.236,1.181-2.929c0.787-0.693,1.82-1.12,3.098-1.281L338.646,117.578z M333.834,123.751
		c0.482,0.38,1.054,0.57,1.714,0.57c0.804,0,1.583-0.186,2.336-0.558c1.27-0.617,1.904-1.626,1.904-3.029v-1.838
		c-0.278,0.178-0.638,0.327-1.077,0.446c-0.439,0.119-0.869,0.204-1.292,0.254l-1.382,0.177c-0.827,0.11-1.449,0.283-1.867,0.52
		c-0.706,0.397-1.06,1.03-1.06,1.9C333.11,122.852,333.352,123.371,333.834,123.751z"/>
	<path d="M347.177,121.541c0.069,0.762,0.263,1.346,0.583,1.752c0.588,0.736,1.607,1.104,3.059,1.104
		c0.863,0,1.623-0.184,2.279-0.552c0.657-0.368,0.985-0.938,0.985-1.708c0-0.584-0.263-1.028-0.787-1.333
		c-0.335-0.186-0.997-0.402-1.987-0.647l-1.845-0.457c-1.179-0.288-2.047-0.609-2.606-0.965c-0.997-0.618-1.496-1.473-1.496-2.564
		c0-1.287,0.47-2.328,1.408-3.123c0.939-0.795,2.203-1.193,3.789-1.193c2.076,0,3.572,0.601,4.49,1.803
		c0.574,0.762,0.854,1.583,0.837,2.463h-2.158c-0.044-0.513-0.229-0.98-0.559-1.401c-0.538-0.598-1.469-0.896-2.794-0.896
		c-0.885,0-1.553,0.165-2.008,0.493c-0.455,0.329-0.683,0.764-0.683,1.303c0,0.59,0.299,1.062,0.896,1.417
		c0.345,0.211,0.854,0.397,1.526,0.558l1.539,0.368c1.673,0.398,2.794,0.783,3.363,1.155c0.889,0.584,1.333,1.502,1.333,2.755
		c0,1.21-0.465,2.255-1.395,3.136s-2.346,1.32-4.248,1.32c-2.048,0-3.498-0.459-4.351-1.377c-0.854-0.918-1.309-2.055-1.369-3.409
		H347.177z"/>
	<path d="M99.092,143.785c0.9,0.453,1.585,1.039,2.057,1.758c0.454,0.686,0.757,1.485,0.908,2.399
		c0.135,0.626,0.202,1.625,0.202,2.996h-9.89c0.042,1.383,0.365,2.493,0.97,3.329c0.604,0.836,1.541,1.254,2.809,1.254
		c1.184,0,2.129-0.396,2.834-1.186c0.395-0.459,0.674-0.99,0.839-1.594h2.247c-0.059,0.5-0.256,1.056-0.59,1.669
		s-0.708,1.115-1.119,1.504c-0.689,0.677-1.542,1.134-2.558,1.371c-0.546,0.135-1.164,0.203-1.853,0.203
		c-1.682,0-3.107-0.616-4.277-1.847c-1.169-1.231-1.753-2.956-1.753-5.173c0-2.184,0.589-3.957,1.767-5.319
		c1.177-1.363,2.717-2.044,4.618-2.044C97.262,143.105,98.191,143.332,99.092,143.785z M99.91,149.123
		c-0.092-0.99-0.307-1.782-0.642-2.374c-0.621-1.1-1.658-1.65-3.109-1.65c-1.041,0-1.914,0.379-2.619,1.136
		c-0.705,0.757-1.078,1.72-1.12,2.888H99.91z"/>
	<path d="M106.512,152.741c0.069,0.762,0.263,1.346,0.583,1.752c0.587,0.736,1.607,1.104,3.058,1.104
		c0.864,0,1.624-0.184,2.28-0.552s0.985-0.938,0.985-1.708c0-0.584-0.262-1.028-0.787-1.333c-0.335-0.186-0.998-0.402-1.987-0.647
		l-1.845-0.457c-1.178-0.288-2.047-0.609-2.606-0.965c-0.998-0.618-1.497-1.473-1.497-2.564c0-1.287,0.47-2.328,1.409-3.123
		s2.202-1.193,3.789-1.193c2.076,0,3.572,0.601,4.49,1.803c0.575,0.762,0.854,1.583,0.837,2.463h-2.158
		c-0.043-0.513-0.229-0.98-0.559-1.401c-0.538-0.598-1.469-0.896-2.794-0.896c-0.884,0-1.553,0.165-2.008,0.493
		c-0.455,0.329-0.682,0.764-0.682,1.303c0,0.59,0.299,1.062,0.896,1.417c0.345,0.211,0.854,0.397,1.526,0.558l1.539,0.368
		c1.673,0.398,2.794,0.783,3.363,1.155c0.889,0.584,1.333,1.502,1.333,2.755c0,1.21-0.465,2.255-1.395,3.136s-2.346,1.32-4.248,1.32
		c-2.048,0-3.498-0.459-4.351-1.377c-0.853-0.918-1.309-2.055-1.369-3.409H106.512z"/>
	<path d="M132.664,148.778c0.525-0.067,0.876-0.287,1.054-0.659c0.102-0.204,0.152-0.497,0.152-0.879
		c0-0.781-0.277-1.349-0.83-1.701s-1.345-0.529-2.375-0.529c-1.191,0-2.036,0.323-2.534,0.97c-0.279,0.357-0.46,0.889-0.545,1.595
		h-2.133c0.042-1.681,0.585-2.85,1.629-3.507s2.255-0.987,3.633-0.987c1.598,0,2.896,0.305,3.893,0.914
		c0.989,0.609,1.483,1.557,1.483,2.844v7.833c0,0.237,0.049,0.428,0.146,0.571s0.303,0.215,0.616,0.215
		c0.102,0,0.216-0.006,0.343-0.019s0.262-0.032,0.406-0.057v1.688c-0.355,0.102-0.626,0.165-0.812,0.19s-0.44,0.038-0.762,0.038
		c-0.787,0-1.358-0.279-1.714-0.838c-0.186-0.296-0.317-0.715-0.394-1.256c-0.465,0.609-1.134,1.138-2.006,1.586
		c-0.872,0.449-1.833,0.673-2.882,0.673c-1.261,0-2.292-0.383-3.091-1.147c-0.8-0.765-1.2-1.722-1.2-2.872
		c0-1.259,0.394-2.236,1.181-2.929c0.787-0.693,1.82-1.12,3.098-1.281L132.664,148.778z M127.853,154.952
		c0.482,0.38,1.054,0.57,1.714,0.57c0.804,0,1.583-0.186,2.336-0.558c1.27-0.617,1.904-1.626,1.904-3.029v-1.838
		c-0.279,0.178-0.638,0.327-1.077,0.446c-0.439,0.119-0.87,0.204-1.292,0.254l-1.381,0.177c-0.828,0.11-1.45,0.283-1.867,0.52
		c-0.707,0.397-1.06,1.03-1.06,1.9C127.129,154.052,127.37,154.571,127.853,154.952z"/>
	<path d="M148.819,144.134c0.96,0.745,1.538,2.027,1.733,3.847h-2.222c-0.135-0.838-0.444-1.534-0.927-2.088
		s-1.257-0.832-2.323-0.832c-1.456,0-2.497,0.71-3.123,2.13c-0.406,0.921-0.609,2.058-0.609,3.411c0,1.361,0.288,2.506,0.863,3.437
		c0.576,0.93,1.481,1.395,2.717,1.395c0.948,0,1.699-0.289,2.253-0.866s0.938-1.368,1.149-2.371h2.222
		c-0.254,1.803-0.889,3.121-1.904,3.955s-2.315,1.25-3.897,1.25c-1.777,0-3.195-0.649-4.253-1.949s-1.587-2.922-1.587-4.869
		c0-2.387,0.58-4.245,1.739-5.573s2.636-1.993,4.431-1.993C146.612,143.017,147.858,143.389,148.819,144.134z"/>
	<path d="M162.688,144.767c1.202,1.167,1.803,2.883,1.803,5.149c0,2.19-0.53,4-1.588,5.429c-1.059,1.429-2.702,2.144-4.929,2.144
		c-1.857,0-3.332-0.632-4.425-1.896s-1.639-2.962-1.639-5.093c0-2.283,0.576-4.102,1.727-5.455c1.151-1.353,2.698-2.029,4.639-2.029
		C160.016,143.017,161.487,143.6,162.688,144.767z M161.27,153.803c0.557-1.145,0.835-2.419,0.835-3.823
		c0-1.268-0.201-2.299-0.603-3.094c-0.636-1.251-1.732-1.877-3.289-1.877c-1.381,0-2.385,0.533-3.013,1.598
		c-0.627,1.065-0.941,2.35-0.941,3.855c0,1.445,0.314,2.65,0.941,3.614c0.627,0.963,1.624,1.445,2.988,1.445
		C159.686,155.521,160.713,154.949,161.27,153.803z"/>
	<path d="M174.856,143.956c0.43,0.296,0.868,0.728,1.315,1.295v-1.714h2.107v12.365c0,1.727-0.253,3.089-0.759,4.088
		c-0.945,1.845-2.729,2.768-5.352,2.768c-1.459,0-2.687-0.328-3.682-0.984c-0.995-0.656-1.552-1.682-1.67-3.079h2.323
		c0.109,0.609,0.328,1.079,0.657,1.409c0.513,0.508,1.321,0.762,2.424,0.762c1.743,0,2.883-0.618,3.422-1.854
		c0.32-0.728,0.467-2.027,0.442-3.897c-0.455,0.694-1.003,1.21-1.644,1.549c-0.641,0.338-1.488,0.508-2.542,0.508
		c-1.467,0-2.75-0.522-3.851-1.568s-1.65-2.774-1.65-5.186c0-2.277,0.554-4.054,1.663-5.332c1.108-1.278,2.447-1.917,4.015-1.917
		C173.136,143.169,174.063,143.431,174.856,143.956z M175.135,146.406c-0.69-0.812-1.57-1.219-2.64-1.219
		c-1.6,0-2.695,0.753-3.284,2.26c-0.312,0.804-0.467,1.858-0.467,3.161c0,1.532,0.31,2.698,0.928,3.498
		c0.619,0.8,1.451,1.2,2.495,1.2c1.633,0,2.783-0.741,3.448-2.222c0.371-0.838,0.556-1.815,0.556-2.933
		C176.171,148.467,175.826,147.219,175.135,146.406z"/>
	<path d="M190.155,143.785c0.9,0.453,1.585,1.039,2.057,1.758c0.454,0.686,0.757,1.485,0.908,2.399
		c0.135,0.626,0.202,1.625,0.202,2.996h-9.89c0.042,1.383,0.365,2.493,0.97,3.329c0.604,0.836,1.541,1.254,2.809,1.254
		c1.184,0,2.129-0.396,2.834-1.186c0.395-0.459,0.674-0.99,0.839-1.594h2.247c-0.059,0.5-0.256,1.056-0.59,1.669
		s-0.708,1.115-1.119,1.504c-0.689,0.677-1.542,1.134-2.558,1.371c-0.546,0.135-1.164,0.203-1.853,0.203
		c-1.682,0-3.107-0.616-4.277-1.847c-1.169-1.231-1.753-2.956-1.753-5.173c0-2.184,0.589-3.957,1.767-5.319
		c1.177-1.363,2.717-2.044,4.618-2.044C188.326,143.105,189.255,143.332,190.155,143.785z M190.974,149.123
		c-0.092-0.99-0.307-1.782-0.642-2.374c-0.621-1.1-1.658-1.65-3.109-1.65c-1.041,0-1.914,0.379-2.619,1.136
		c-0.705,0.757-1.078,1.72-1.12,2.888H190.974z"/>
	<path d="M203.687,143.829c0.405,0.254,0.864,0.698,1.378,1.333v-6.868h2.196v18.713h-2.057v-1.892
		c-0.531,0.838-1.16,1.443-1.884,1.815c-0.726,0.373-1.556,0.559-2.492,0.559c-1.509,0-2.816-0.637-3.92-1.911
		s-1.657-2.969-1.657-5.084c0-1.98,0.503-3.696,1.511-5.148c1.007-1.452,2.447-2.177,4.319-2.177
		C202.119,143.169,202.987,143.389,203.687,143.829z M198.586,154.023c0.615,0.982,1.6,1.473,2.956,1.473
		c1.052,0,1.917-0.455,2.596-1.365c0.678-0.91,1.017-2.215,1.017-3.917c0-1.718-0.35-2.99-1.048-3.815
		c-0.699-0.825-1.562-1.238-2.589-1.238c-1.146,0-2.074,0.44-2.785,1.32c-0.712,0.88-1.067,2.175-1.067,3.885
		C197.664,151.823,197.971,153.042,198.586,154.023z"/>
	<path d="M220.528,144.767c1.202,1.167,1.803,2.883,1.803,5.149c0,2.19-0.53,4-1.589,5.429s-2.701,2.144-4.929,2.144
		c-1.857,0-3.332-0.632-4.425-1.896s-1.639-2.962-1.639-5.093c0-2.283,0.576-4.102,1.727-5.455c1.151-1.353,2.698-2.029,4.639-2.029
		C217.855,143.017,219.326,143.6,220.528,144.767z M219.109,153.803c0.557-1.145,0.835-2.419,0.835-3.823
		c0-1.268-0.201-2.299-0.603-3.094c-0.637-1.251-1.732-1.877-3.289-1.877c-1.381,0-2.385,0.533-3.013,1.598
		c-0.627,1.065-0.941,2.35-0.941,3.855c0,1.445,0.314,2.65,0.941,3.614c0.628,0.963,1.624,1.445,2.987,1.445
		C217.525,155.521,218.553,154.949,219.109,153.803z"/>
	<path d="M225.2,143.41h2.171v2.349c0.178-0.457,0.613-1.014,1.308-1.669s1.493-0.984,2.399-0.984c0.043,0,0.114,0.004,0.216,0.013
		s0.274,0.025,0.521,0.051v2.412c-0.135-0.025-0.26-0.042-0.375-0.051c-0.113-0.008-0.238-0.013-0.374-0.013
		c-1.151,0-2.036,0.37-2.653,1.111s-0.927,1.593-0.927,2.558v7.82H225.2V143.41z"/>
	<path d="M248.488,143.829c0.405,0.254,0.865,0.698,1.379,1.333v-6.868h2.196v18.713h-2.057v-1.892
		c-0.531,0.838-1.159,1.443-1.884,1.815c-0.727,0.373-1.557,0.559-2.492,0.559c-1.51,0-2.816-0.637-3.92-1.911
		c-1.105-1.274-1.657-2.969-1.657-5.084c0-1.98,0.503-3.696,1.511-5.148s2.447-2.177,4.319-2.177
		C246.921,143.169,247.789,143.389,248.488,143.829z M243.388,154.023c0.614,0.982,1.601,1.473,2.956,1.473
		c1.053,0,1.918-0.455,2.596-1.365s1.017-2.215,1.017-3.917c0-1.718-0.35-2.99-1.048-3.815c-0.699-0.825-1.562-1.238-2.59-1.238
		c-1.146,0-2.074,0.44-2.785,1.32c-0.712,0.88-1.067,2.175-1.067,3.885C242.466,151.823,242.773,153.042,243.388,154.023z"/>
	<path d="M263.877,143.785c0.9,0.453,1.586,1.039,2.057,1.758c0.454,0.686,0.757,1.485,0.908,2.399
		c0.135,0.626,0.202,1.625,0.202,2.996h-9.89c0.042,1.383,0.365,2.493,0.971,3.329c0.604,0.836,1.54,1.254,2.809,1.254
		c1.184,0,2.129-0.396,2.834-1.186c0.395-0.459,0.674-0.99,0.839-1.594h2.247c-0.059,0.5-0.256,1.056-0.59,1.669
		c-0.335,0.614-0.708,1.115-1.119,1.504c-0.689,0.677-1.541,1.134-2.558,1.371c-0.546,0.135-1.163,0.203-1.853,0.203
		c-1.682,0-3.107-0.616-4.277-1.847c-1.168-1.231-1.753-2.956-1.753-5.173c0-2.184,0.589-3.957,1.767-5.319s2.717-2.044,4.617-2.044
		C262.047,143.105,262.977,143.332,263.877,143.785z M264.695,149.123c-0.092-0.99-0.307-1.782-0.643-2.374
		c-0.621-1.1-1.657-1.65-3.109-1.65c-1.04,0-1.913,0.379-2.618,1.136c-0.704,0.757-1.078,1.72-1.12,2.888H264.695z"/>
	<path d="M285.561,143.785c0.9,0.453,1.586,1.039,2.057,1.758c0.454,0.686,0.757,1.485,0.908,2.399
		c0.135,0.626,0.202,1.625,0.202,2.996h-9.89c0.042,1.383,0.365,2.493,0.971,3.329c0.604,0.836,1.54,1.254,2.809,1.254
		c1.184,0,2.129-0.396,2.834-1.186c0.395-0.459,0.674-0.99,0.839-1.594h2.247c-0.059,0.5-0.256,1.056-0.59,1.669
		c-0.335,0.614-0.708,1.115-1.119,1.504c-0.689,0.677-1.541,1.134-2.558,1.371c-0.546,0.135-1.163,0.203-1.853,0.203
		c-1.682,0-3.107-0.616-4.277-1.847c-1.168-1.231-1.753-2.956-1.753-5.173c0-2.184,0.589-3.957,1.767-5.319s2.717-2.044,4.617-2.044
		C283.73,143.105,284.66,143.332,285.561,143.785z M286.379,149.123c-0.092-0.99-0.307-1.782-0.643-2.374
		c-0.621-1.1-1.657-1.65-3.109-1.65c-1.04,0-1.913,0.379-2.618,1.136c-0.704,0.757-1.078,1.72-1.12,2.888H286.379z"/>
	<path d="M292.98,152.741c0.068,0.762,0.264,1.346,0.583,1.752c0.587,0.736,1.606,1.104,3.058,1.104
		c0.864,0,1.624-0.184,2.281-0.552c0.656-0.368,0.984-0.938,0.984-1.708c0-0.584-0.262-1.028-0.787-1.333
		c-0.336-0.186-0.998-0.402-1.986-0.647l-1.846-0.457c-1.178-0.288-2.047-0.609-2.605-0.965c-0.998-0.618-1.497-1.473-1.497-2.564
		c0-1.287,0.47-2.328,1.409-3.123c0.938-0.795,2.201-1.193,3.789-1.193c2.075,0,3.572,0.601,4.489,1.803
		c0.575,0.762,0.854,1.583,0.837,2.463h-2.158c-0.043-0.513-0.229-0.98-0.559-1.401c-0.537-0.598-1.469-0.896-2.795-0.896
		c-0.883,0-1.553,0.165-2.008,0.493c-0.454,0.329-0.682,0.764-0.682,1.303c0,0.59,0.299,1.062,0.896,1.417
		c0.345,0.211,0.854,0.397,1.526,0.558l1.539,0.368c1.673,0.398,2.794,0.783,3.363,1.155c0.889,0.584,1.333,1.502,1.333,2.755
		c0,1.21-0.465,2.255-1.395,3.136s-2.346,1.32-4.248,1.32c-2.048,0-3.498-0.459-4.351-1.377s-1.31-2.055-1.369-3.409H292.98z"/>
	<path d="M305.079,139.614h2.311v3.796h2.171v1.866h-2.171v8.874c0,0.474,0.161,0.792,0.482,0.952
		c0.178,0.093,0.474,0.14,0.889,0.14c0.11,0,0.229-0.003,0.355-0.008s0.274-0.02,0.444-0.042v1.815
		c-0.262,0.076-0.535,0.131-0.818,0.165c-0.284,0.034-0.591,0.051-0.921,0.051c-1.066,0-1.79-0.273-2.171-0.819
		s-0.571-1.255-0.571-2.126v-9.001h-1.841v-1.866h1.841V139.614z"/>
	<path d="M311.846,138.357h2.323v2.59h-2.323V138.357z M311.846,143.474h2.323v13.533h-2.323V143.474z"/>
	<path d="M317.686,138.357h2.285v18.649h-2.285V138.357z"/>
	<path d="M333.25,144.767c1.201,1.167,1.803,2.883,1.803,5.149c0,2.19-0.529,4-1.588,5.429c-1.06,1.429-2.703,2.144-4.93,2.144
		c-1.857,0-3.332-0.632-4.425-1.896s-1.639-2.962-1.639-5.093c0-2.283,0.575-4.102,1.728-5.455c1.15-1.353,2.697-2.029,4.639-2.029
		C330.578,143.017,332.049,143.6,333.25,144.767z M331.831,153.803c0.557-1.145,0.835-2.419,0.835-3.823
		c0-1.268-0.201-2.299-0.603-3.094c-0.636-1.251-1.732-1.877-3.289-1.877c-1.381,0-2.386,0.533-3.013,1.598
		c-0.627,1.065-0.941,2.35-0.941,3.855c0,1.445,0.314,2.65,0.941,3.614c0.627,0.963,1.623,1.445,2.988,1.445
		C330.248,155.521,331.274,154.949,331.831,153.803z"/>
	<path d="M57.768,175.333c0.96,0.745,1.538,2.027,1.733,3.847h-2.222c-0.135-0.838-0.444-1.534-0.927-2.088
		s-1.257-0.832-2.323-0.832c-1.456,0-2.497,0.71-3.123,2.13c-0.406,0.921-0.609,2.058-0.609,3.411c0,1.361,0.288,2.506,0.863,3.437
		c0.576,0.93,1.481,1.395,2.717,1.395c0.948,0,1.699-0.289,2.253-0.866s0.938-1.368,1.149-2.371h2.222
		c-0.254,1.803-0.889,3.121-1.904,3.955s-2.315,1.25-3.897,1.25c-1.777,0-3.195-0.649-4.253-1.949s-1.587-2.922-1.587-4.869
		c0-2.387,0.58-4.245,1.739-5.573s2.636-1.993,4.431-1.993C55.561,174.216,56.808,174.589,57.768,175.333z"/>
	<path d="M69.073,179.978c0.525-0.067,0.876-0.287,1.054-0.659c0.102-0.204,0.152-0.497,0.152-0.879c0-0.781-0.277-1.349-0.83-1.701
		s-1.345-0.529-2.375-0.529c-1.191,0-2.036,0.323-2.534,0.97c-0.279,0.357-0.46,0.889-0.545,1.595h-2.133
		c0.042-1.681,0.585-2.85,1.629-3.507s2.255-0.987,3.633-0.987c1.598,0,2.896,0.305,3.893,0.914
		c0.989,0.609,1.483,1.557,1.483,2.844v7.833c0,0.237,0.049,0.428,0.146,0.571s0.303,0.215,0.616,0.215
		c0.102,0,0.216-0.006,0.343-0.019s0.262-0.032,0.406-0.057v1.688c-0.355,0.102-0.626,0.165-0.812,0.19s-0.44,0.038-0.762,0.038
		c-0.787,0-1.358-0.279-1.714-0.838c-0.186-0.296-0.317-0.715-0.394-1.256c-0.465,0.609-1.134,1.138-2.006,1.586
		c-0.872,0.449-1.833,0.673-2.882,0.673c-1.261,0-2.292-0.383-3.091-1.147c-0.8-0.765-1.2-1.722-1.2-2.872
		c0-1.259,0.394-2.236,1.181-2.929c0.787-0.693,1.82-1.12,3.098-1.281L69.073,179.978z M64.262,186.151
		c0.482,0.38,1.054,0.57,1.714,0.57c0.804,0,1.583-0.186,2.336-0.558c1.27-0.617,1.904-1.626,1.904-3.029v-1.838
		c-0.279,0.178-0.638,0.327-1.077,0.446c-0.439,0.119-0.87,0.204-1.292,0.254l-1.381,0.177c-0.828,0.11-1.45,0.283-1.867,0.52
		c-0.707,0.397-1.06,1.03-1.06,1.9C63.538,185.252,63.779,185.771,64.262,186.151z"/>
	<path d="M76.246,174.61h2.26v1.93c0.542-0.668,1.033-1.155,1.473-1.46c0.753-0.516,1.608-0.774,2.564-0.774
		c1.083,0,1.955,0.267,2.615,0.8c0.373,0.305,0.711,0.753,1.016,1.346c0.508-0.728,1.104-1.268,1.79-1.619s1.456-0.527,2.311-0.527
		c1.828,0,3.072,0.66,3.732,1.98c0.355,0.711,0.533,1.667,0.533,2.869v9.052h-2.374v-9.445c0-0.906-0.227-1.528-0.679-1.866
		s-1.005-0.508-1.657-0.508c-0.897,0-1.669,0.3-2.317,0.901s-0.971,1.604-0.971,3.009v7.909h-2.323v-8.874
		c0-0.922-0.11-1.595-0.33-2.019c-0.347-0.635-0.995-0.952-1.942-0.952c-0.863,0-1.648,0.334-2.355,1.003s-1.06,1.879-1.06,3.631
		v7.211h-2.285V174.61z"/>
	<path d="M97.714,174.673h2.234v1.803c0.458-0.618,0.959-1.096,1.502-1.435c0.772-0.508,1.68-0.762,2.724-0.762
		c1.544,0,2.855,0.59,3.933,1.771s1.617,2.867,1.617,5.059c0,2.962-0.777,5.078-2.333,6.348c-0.985,0.804-2.133,1.206-3.441,1.206
		c-1.028,0-1.891-0.224-2.587-0.673c-0.408-0.254-0.862-0.69-1.364-1.308v6.944h-2.285V174.673z M106.312,185.331
		c0.709-0.893,1.063-2.228,1.063-4.005c0-1.083-0.157-2.014-0.471-2.793c-0.595-1.498-1.682-2.247-3.261-2.247
		c-1.588,0-2.675,0.792-3.261,2.374c-0.314,0.846-0.471,1.921-0.471,3.225c0,1.049,0.157,1.942,0.471,2.679
		c0.594,1.405,1.682,2.107,3.261,2.107C104.712,186.67,105.602,186.224,106.312,185.331z"/>
	<path d="M112.364,169.557h2.323v2.59h-2.323V169.557z M112.364,174.673h2.323v13.533h-2.323V174.673z"/>
	<path d="M118.204,174.61h2.171v2.349c0.178-0.457,0.614-1.014,1.308-1.669s1.494-0.984,2.399-0.984
		c0.042,0,0.114,0.004,0.216,0.013s0.275,0.025,0.521,0.051v2.412c-0.135-0.025-0.26-0.042-0.375-0.051s-0.239-0.013-0.375-0.013
		c-1.151,0-2.036,0.37-2.653,1.111s-0.927,1.593-0.927,2.558v7.82h-2.285V174.61z"/>
	<path d="M134.086,179.978c0.525-0.067,0.876-0.287,1.054-0.659c0.102-0.204,0.152-0.497,0.152-0.879
		c0-0.781-0.277-1.349-0.83-1.701s-1.345-0.529-2.375-0.529c-1.191,0-2.036,0.323-2.534,0.97c-0.279,0.357-0.46,0.889-0.545,1.595
		h-2.133c0.042-1.681,0.585-2.85,1.629-3.507s2.255-0.987,3.633-0.987c1.598,0,2.896,0.305,3.893,0.914
		c0.989,0.609,1.483,1.557,1.483,2.844v7.833c0,0.237,0.049,0.428,0.146,0.571s0.303,0.215,0.616,0.215
		c0.102,0,0.216-0.006,0.343-0.019s0.262-0.032,0.406-0.057v1.688c-0.355,0.102-0.626,0.165-0.812,0.19s-0.44,0.038-0.762,0.038
		c-0.787,0-1.358-0.279-1.714-0.838c-0.186-0.296-0.317-0.715-0.394-1.256c-0.465,0.609-1.134,1.138-2.006,1.586
		c-0.872,0.449-1.833,0.673-2.882,0.673c-1.261,0-2.292-0.383-3.091-1.147c-0.8-0.765-1.2-1.722-1.2-2.872
		c0-1.259,0.394-2.236,1.181-2.929c0.787-0.693,1.82-1.12,3.098-1.281L134.086,179.978z M129.274,186.151
		c0.482,0.38,1.054,0.57,1.714,0.57c0.804,0,1.583-0.186,2.336-0.558c1.27-0.617,1.904-1.626,1.904-3.029v-1.838
		c-0.279,0.178-0.638,0.327-1.077,0.446c-0.439,0.119-0.87,0.204-1.292,0.254l-1.381,0.177c-0.828,0.11-1.45,0.283-1.867,0.52
		c-0.707,0.397-1.06,1.03-1.06,1.9C128.551,185.252,128.792,185.771,129.274,186.151z"/>
	<path d="M141.259,174.61h2.171v1.93c0.643-0.795,1.325-1.367,2.044-1.714s1.519-0.521,2.399-0.521c1.93,0,3.233,0.673,3.91,2.019
		c0.373,0.736,0.559,1.79,0.559,3.161v8.722h-2.323v-8.569c0-0.83-0.123-1.498-0.368-2.006c-0.406-0.846-1.143-1.27-2.209-1.27
		c-0.542,0-0.986,0.055-1.333,0.165c-0.626,0.186-1.176,0.559-1.65,1.117c-0.381,0.449-0.628,0.912-0.743,1.39
		s-0.171,1.162-0.171,2.05v7.122h-2.285V174.61z"/>
	<path d="M165.57,175.967c1.202,1.167,1.803,2.883,1.803,5.149c0,2.19-0.53,4-1.588,5.429c-1.059,1.429-2.702,2.144-4.929,2.144
		c-1.857,0-3.332-0.632-4.425-1.896s-1.639-2.962-1.639-5.093c0-2.283,0.576-4.102,1.727-5.455c1.151-1.353,2.698-2.029,4.639-2.029
		C162.898,174.216,164.369,174.8,165.57,175.967z M164.151,185.003c0.557-1.145,0.835-2.419,0.835-3.823
		c0-1.268-0.201-2.299-0.603-3.094c-0.636-1.251-1.732-1.877-3.289-1.877c-1.381,0-2.385,0.533-3.013,1.598
		c-0.627,1.065-0.941,2.35-0.941,3.855c0,1.445,0.314,2.65,0.941,3.614c0.627,0.963,1.624,1.445,2.988,1.445
		C162.568,186.721,163.595,186.148,164.151,185.003z"/>
	<path d="M185.801,174.984c0.9,0.453,1.585,1.039,2.057,1.758c0.454,0.686,0.757,1.485,0.908,2.399
		c0.135,0.626,0.202,1.625,0.202,2.996h-9.89c0.042,1.383,0.365,2.493,0.97,3.329c0.604,0.836,1.541,1.254,2.809,1.254
		c1.184,0,2.129-0.396,2.834-1.186c0.395-0.459,0.674-0.99,0.839-1.594h2.247c-0.059,0.5-0.256,1.056-0.59,1.669
		s-0.708,1.115-1.119,1.504c-0.689,0.677-1.542,1.134-2.558,1.371c-0.546,0.135-1.164,0.203-1.853,0.203
		c-1.682,0-3.107-0.616-4.277-1.847c-1.169-1.231-1.753-2.956-1.753-5.173c0-2.184,0.589-3.957,1.767-5.319
		c1.177-1.363,2.717-2.044,4.618-2.044C183.971,174.305,184.9,174.532,185.801,174.984z M186.619,180.323
		c-0.092-0.99-0.307-1.782-0.642-2.374c-0.621-1.1-1.658-1.65-3.109-1.65c-1.041,0-1.914,0.379-2.619,1.136
		c-0.705,0.757-1.078,1.72-1.12,2.888H186.619z"/>
	<path d="M191.926,169.557h2.285v18.649h-2.285V169.557z"/>
	<path d="M213.844,175.333c0.961,0.745,1.539,2.027,1.733,3.847h-2.222c-0.135-0.838-0.444-1.534-0.927-2.088
		s-1.257-0.832-2.323-0.832c-1.456,0-2.497,0.71-3.123,2.13c-0.406,0.921-0.609,2.058-0.609,3.411c0,1.361,0.288,2.506,0.863,3.437
		c0.576,0.93,1.481,1.395,2.717,1.395c0.948,0,1.699-0.289,2.253-0.866s0.938-1.368,1.149-2.371h2.222
		c-0.254,1.803-0.889,3.121-1.904,3.955s-2.315,1.25-3.897,1.25c-1.777,0-3.195-0.649-4.253-1.949s-1.587-2.922-1.587-4.869
		c0-2.387,0.58-4.245,1.739-5.573s2.636-1.993,4.431-1.993C211.637,174.216,212.884,174.589,213.844,175.333z"/>
	<path d="M220.147,174.61v9.026c0,0.694,0.106,1.261,0.321,1.701c0.396,0.812,1.133,1.219,2.213,1.219
		c1.55,0,2.605-0.711,3.166-2.133c0.305-0.762,0.457-1.807,0.457-3.136v-6.678h2.285v13.597h-2.158l0.025-2.006
		c-0.291,0.516-0.652,0.952-1.084,1.308c-0.855,0.711-1.894,1.066-3.114,1.066c-1.901,0-3.198-0.647-3.887-1.942
		c-0.374-0.694-0.561-1.621-0.561-2.78v-9.242H220.147z"/>
	<path d="M239.609,179.978c0.525-0.067,0.876-0.287,1.054-0.659c0.102-0.204,0.152-0.497,0.152-0.879
		c0-0.781-0.276-1.349-0.83-1.701s-1.345-0.529-2.376-0.529c-1.19,0-2.035,0.323-2.533,0.97c-0.279,0.357-0.461,0.889-0.545,1.595
		h-2.133c0.043-1.681,0.586-2.85,1.629-3.507c1.045-0.658,2.256-0.987,3.633-0.987c1.598,0,2.896,0.305,3.894,0.914
		c0.989,0.609,1.483,1.557,1.483,2.844v7.833c0,0.237,0.049,0.428,0.146,0.571c0.097,0.144,0.303,0.215,0.615,0.215
		c0.102,0,0.216-0.006,0.343-0.019s0.263-0.032,0.406-0.057v1.688c-0.355,0.102-0.626,0.165-0.812,0.19s-0.44,0.038-0.762,0.038
		c-0.787,0-1.358-0.279-1.714-0.838c-0.186-0.296-0.317-0.715-0.394-1.256c-0.466,0.609-1.134,1.138-2.006,1.586
		c-0.872,0.449-1.833,0.673-2.882,0.673c-1.262,0-2.291-0.383-3.092-1.147c-0.799-0.765-1.199-1.722-1.199-2.872
		c0-1.259,0.394-2.236,1.181-2.929c0.787-0.693,1.819-1.12,3.098-1.281L239.609,179.978z M234.798,186.151
		c0.482,0.38,1.054,0.57,1.714,0.57c0.805,0,1.582-0.186,2.336-0.558c1.27-0.617,1.904-1.626,1.904-3.029v-1.838
		c-0.279,0.178-0.638,0.327-1.077,0.446c-0.438,0.119-0.87,0.204-1.292,0.254l-1.381,0.177c-0.828,0.11-1.451,0.283-1.867,0.52
		c-0.707,0.397-1.061,1.03-1.061,1.9C234.074,185.252,234.315,185.771,234.798,186.151z"/>
	<path d="M246.846,169.557h2.285v18.649h-2.285V169.557z"/>
	<path d="M259.782,174.61h2.171v1.93c0.643-0.795,1.324-1.367,2.044-1.714s1.519-0.521,2.399-0.521c1.93,0,3.232,0.673,3.91,2.019
		c0.373,0.736,0.559,1.79,0.559,3.161v8.722h-2.323v-8.569c0-0.83-0.122-1.498-0.368-2.006c-0.406-0.846-1.143-1.27-2.209-1.27
		c-0.541,0-0.986,0.055-1.333,0.165c-0.626,0.186-1.177,0.559-1.65,1.117c-0.381,0.449-0.628,0.912-0.743,1.39
		c-0.113,0.478-0.171,1.162-0.171,2.05v7.122h-2.285V174.61z"/>
	<path d="M284.094,175.967c1.201,1.167,1.803,2.883,1.803,5.149c0,2.19-0.529,4-1.588,5.429c-1.06,1.429-2.703,2.144-4.93,2.144
		c-1.857,0-3.332-0.632-4.425-1.896s-1.639-2.962-1.639-5.093c0-2.283,0.575-4.102,1.728-5.455c1.15-1.353,2.697-2.029,4.639-2.029
		C281.422,174.216,282.893,174.8,284.094,175.967z M282.675,185.003c0.557-1.145,0.835-2.419,0.835-3.823
		c0-1.268-0.201-2.299-0.603-3.094c-0.636-1.251-1.732-1.877-3.289-1.877c-1.381,0-2.386,0.533-3.013,1.598
		c-0.627,1.065-0.941,2.35-0.941,3.855c0,1.445,0.314,2.65,0.941,3.614c0.627,0.963,1.623,1.445,2.988,1.445
		C281.092,186.721,282.118,186.148,282.675,185.003z"/>
	<path d="M290.061,183.941c0.068,0.762,0.264,1.346,0.583,1.752c0.587,0.736,1.606,1.104,3.058,1.104
		c0.864,0,1.624-0.184,2.281-0.552c0.656-0.368,0.984-0.938,0.984-1.708c0-0.584-0.262-1.028-0.787-1.333
		c-0.336-0.186-0.998-0.402-1.986-0.647l-1.846-0.457c-1.178-0.288-2.047-0.609-2.605-0.965c-0.998-0.618-1.497-1.473-1.497-2.564
		c0-1.287,0.47-2.328,1.409-3.123c0.938-0.795,2.201-1.193,3.789-1.193c2.075,0,3.572,0.601,4.489,1.803
		c0.575,0.762,0.854,1.583,0.837,2.463h-2.158c-0.043-0.513-0.229-0.98-0.559-1.401c-0.537-0.598-1.469-0.896-2.795-0.896
		c-0.883,0-1.553,0.165-2.008,0.493c-0.454,0.329-0.682,0.764-0.682,1.303c0,0.59,0.299,1.062,0.896,1.417
		c0.345,0.211,0.854,0.397,1.526,0.558l1.539,0.368c1.673,0.398,2.794,0.783,3.363,1.155c0.889,0.584,1.333,1.502,1.333,2.755
		c0,1.21-0.465,2.255-1.395,3.136s-2.346,1.32-4.248,1.32c-2.048,0-3.498-0.459-4.351-1.377s-1.31-2.055-1.369-3.409H290.061z"/>
	<path d="M316.213,179.978c0.525-0.067,0.876-0.287,1.054-0.659c0.102-0.204,0.152-0.497,0.152-0.879
		c0-0.781-0.276-1.349-0.83-1.701s-1.345-0.529-2.376-0.529c-1.19,0-2.035,0.323-2.533,0.97c-0.279,0.357-0.461,0.889-0.545,1.595
		h-2.133c0.043-1.681,0.586-2.85,1.629-3.507c1.045-0.658,2.256-0.987,3.633-0.987c1.598,0,2.896,0.305,3.894,0.914
		c0.989,0.609,1.483,1.557,1.483,2.844v7.833c0,0.237,0.049,0.428,0.146,0.571c0.097,0.144,0.303,0.215,0.615,0.215
		c0.102,0,0.216-0.006,0.343-0.019s0.263-0.032,0.406-0.057v1.688c-0.355,0.102-0.626,0.165-0.812,0.19s-0.44,0.038-0.762,0.038
		c-0.787,0-1.358-0.279-1.714-0.838c-0.186-0.296-0.317-0.715-0.394-1.256c-0.466,0.609-1.134,1.138-2.006,1.586
		c-0.872,0.449-1.833,0.673-2.882,0.673c-1.262,0-2.291-0.383-3.092-1.147c-0.799-0.765-1.199-1.722-1.199-2.872
		c0-1.259,0.394-2.236,1.181-2.929c0.787-0.693,1.819-1.12,3.098-1.281L316.213,179.978z M311.401,186.151
		c0.482,0.38,1.054,0.57,1.714,0.57c0.805,0,1.582-0.186,2.336-0.558c1.27-0.617,1.904-1.626,1.904-3.029v-1.838
		c-0.279,0.178-0.638,0.327-1.077,0.446c-0.438,0.119-0.87,0.204-1.292,0.254l-1.381,0.177c-0.828,0.11-1.451,0.283-1.867,0.52
		c-0.707,0.397-1.061,1.03-1.061,1.9C310.678,185.252,310.919,185.771,311.401,186.151z"/>
	<path d="M331.885,174.61h2.527c-0.322,0.872-1.037,2.862-2.146,5.97c-0.829,2.337-1.523,4.242-2.082,5.715
		c-1.318,3.467-2.248,5.582-2.79,6.343c-0.541,0.761-1.472,1.142-2.79,1.142c-0.322,0-0.568-0.013-0.742-0.038
		s-0.387-0.072-0.641-0.14v-2.082c0.396,0.11,0.685,0.178,0.861,0.203c0.178,0.025,0.334,0.038,0.47,0.038
		c0.422,0,0.732-0.07,0.931-0.209c0.199-0.14,0.366-0.311,0.502-0.513c0.041-0.068,0.193-0.414,0.455-1.039s0.452-1.09,0.57-1.394
		l-5.027-13.997h2.59l3.645,11.075L331.885,174.61z"/>
	<path d="M338.671,174.61v9.026c0,0.694,0.106,1.261,0.321,1.701c0.396,0.812,1.133,1.219,2.213,1.219
		c1.55,0,2.605-0.711,3.166-2.133c0.305-0.762,0.457-1.807,0.457-3.136v-6.678h2.285v13.597h-2.158l0.025-2.006
		c-0.291,0.516-0.652,0.952-1.084,1.308c-0.855,0.711-1.894,1.066-3.114,1.066c-1.901,0-3.198-0.647-3.887-1.942
		c-0.374-0.694-0.561-1.621-0.561-2.78v-9.242H338.671z"/>
	<path d="M358.316,175.029c0.404,0.254,0.863,0.698,1.378,1.333v-6.868h2.196v18.713h-2.057v-1.892
		c-0.531,0.838-1.16,1.443-1.885,1.815s-1.555,0.559-2.491,0.559c-1.509,0-2.815-0.637-3.921-1.911
		c-1.104-1.274-1.656-2.969-1.656-5.084c0-1.98,0.504-3.696,1.512-5.148c1.007-1.452,2.446-2.177,4.318-2.177
		C356.748,174.369,357.616,174.589,358.316,175.029z M353.215,185.223c0.615,0.982,1.6,1.473,2.956,1.473
		c1.052,0,1.917-0.455,2.596-1.365c0.678-0.91,1.017-2.215,1.017-3.917c0-1.718-0.35-2.99-1.049-3.815s-1.562-1.238-2.589-1.238
		c-1.146,0-2.073,0.44-2.785,1.32s-1.067,2.175-1.067,3.885C352.293,183.022,352.6,184.241,353.215,185.223z"/>
	<path d="M372.593,179.978c0.524-0.067,0.876-0.287,1.054-0.659c0.102-0.204,0.152-0.497,0.152-0.879
		c0-0.781-0.277-1.349-0.83-1.701s-1.346-0.529-2.375-0.529c-1.191,0-2.036,0.323-2.534,0.97c-0.278,0.357-0.46,0.889-0.545,1.595
		h-2.133c0.042-1.681,0.585-2.85,1.63-3.507c1.043-0.658,2.254-0.987,3.633-0.987c1.598,0,2.895,0.305,3.893,0.914
		c0.988,0.609,1.483,1.557,1.483,2.844v7.833c0,0.237,0.049,0.428,0.146,0.571c0.098,0.144,0.303,0.215,0.616,0.215
		c0.102,0,0.216-0.006,0.343-0.019s0.262-0.032,0.406-0.057v1.688c-0.355,0.102-0.627,0.165-0.812,0.19s-0.439,0.038-0.762,0.038
		c-0.787,0-1.358-0.279-1.714-0.838c-0.187-0.296-0.317-0.715-0.394-1.256c-0.465,0.609-1.135,1.138-2.006,1.586
		c-0.871,0.449-1.832,0.673-2.882,0.673c-1.261,0-2.292-0.383-3.091-1.147c-0.801-0.765-1.2-1.722-1.2-2.872
		c0-1.259,0.394-2.236,1.181-2.929c0.787-0.693,1.82-1.12,3.098-1.281L372.593,179.978z M367.781,186.151
		c0.482,0.38,1.054,0.57,1.714,0.57c0.804,0,1.583-0.186,2.336-0.558c1.27-0.617,1.904-1.626,1.904-3.029v-1.838
		c-0.278,0.178-0.638,0.327-1.077,0.446c-0.439,0.119-0.869,0.204-1.292,0.254l-1.382,0.177c-0.827,0.11-1.449,0.283-1.867,0.52
		c-0.706,0.397-1.06,1.03-1.06,1.9C367.058,185.252,367.299,185.771,367.781,186.151z"/>
	<path d="M48.133,211.178c0.525-0.067,0.876-0.287,1.054-0.659c0.102-0.204,0.152-0.497,0.152-0.879c0-0.781-0.277-1.349-0.83-1.701
		s-1.345-0.529-2.375-0.529c-1.191,0-2.036,0.323-2.534,0.97c-0.279,0.357-0.46,0.889-0.545,1.595h-2.133
		c0.042-1.681,0.585-2.85,1.629-3.507s2.255-0.987,3.633-0.987c1.598,0,2.896,0.305,3.893,0.914
		c0.989,0.609,1.483,1.557,1.483,2.844v7.833c0,0.237,0.049,0.428,0.146,0.571s0.303,0.215,0.616,0.215
		c0.102,0,0.216-0.006,0.343-0.019s0.262-0.032,0.406-0.057v1.688c-0.355,0.102-0.626,0.165-0.812,0.19s-0.44,0.038-0.762,0.038
		c-0.787,0-1.358-0.279-1.714-0.838c-0.186-0.296-0.317-0.715-0.394-1.256c-0.465,0.609-1.134,1.138-2.006,1.586
		c-0.872,0.449-1.833,0.673-2.882,0.673c-1.261,0-2.292-0.383-3.091-1.147c-0.8-0.765-1.2-1.722-1.2-2.872
		c0-1.259,0.394-2.236,1.181-2.929c0.787-0.693,1.82-1.12,3.098-1.281L48.133,211.178z M43.321,217.352
		c0.482,0.38,1.054,0.57,1.714,0.57c0.804,0,1.583-0.186,2.336-0.558c1.27-0.617,1.904-1.626,1.904-3.029v-1.838
		c-0.279,0.178-0.638,0.327-1.077,0.446c-0.439,0.119-0.87,0.204-1.292,0.254l-1.381,0.177c-0.828,0.11-1.45,0.283-1.867,0.52
		c-0.707,0.397-1.06,1.03-1.06,1.9C42.598,216.452,42.839,216.971,43.321,217.352z"/>
	<path d="M62.593,205.81h2.171v2.349c0.178-0.457,0.614-1.014,1.308-1.669s1.494-0.984,2.399-0.984c0.042,0,0.114,0.004,0.216,0.013
		s0.275,0.025,0.521,0.051v2.412c-0.135-0.025-0.26-0.042-0.375-0.051s-0.239-0.013-0.375-0.013c-1.151,0-2.036,0.37-2.653,1.111
		s-0.927,1.593-0.927,2.558v7.82h-2.285V205.81z"/>
	<path d="M79.586,206.185c0.9,0.453,1.585,1.039,2.057,1.758c0.454,0.686,0.757,1.485,0.908,2.399
		c0.135,0.626,0.202,1.625,0.202,2.996h-9.89c0.042,1.383,0.365,2.493,0.97,3.329c0.604,0.836,1.541,1.254,2.809,1.254
		c1.184,0,2.129-0.396,2.834-1.186c0.395-0.459,0.674-0.99,0.839-1.594h2.247c-0.059,0.5-0.256,1.056-0.59,1.669
		s-0.708,1.115-1.119,1.504c-0.689,0.677-1.542,1.134-2.558,1.371c-0.546,0.135-1.164,0.203-1.853,0.203
		c-1.682,0-3.107-0.616-4.277-1.847c-1.169-1.231-1.753-2.956-1.753-5.173c0-2.184,0.589-3.957,1.767-5.319
		c1.177-1.363,2.717-2.044,4.618-2.044C77.756,205.505,78.686,205.732,79.586,206.185z M80.404,211.523
		c-0.092-0.99-0.307-1.782-0.642-2.374c-0.621-1.1-1.658-1.65-3.109-1.65c-1.041,0-1.914,0.379-2.619,1.136
		c-0.705,0.757-1.078,1.72-1.12,2.888H80.404z"/>
	<path d="M85.711,200.757h2.285v18.649h-2.285V200.757z"/>
	<path d="M98.711,211.178c0.525-0.067,0.876-0.287,1.054-0.659c0.102-0.204,0.152-0.497,0.152-0.879c0-0.781-0.277-1.349-0.83-1.701
		s-1.345-0.529-2.375-0.529c-1.191,0-2.036,0.323-2.534,0.97c-0.279,0.357-0.46,0.889-0.545,1.595H91.5
		c0.042-1.681,0.585-2.85,1.629-3.507s2.255-0.987,3.633-0.987c1.598,0,2.896,0.305,3.893,0.914
		c0.989,0.609,1.483,1.557,1.483,2.844v7.833c0,0.237,0.049,0.428,0.146,0.571s0.303,0.215,0.616,0.215
		c0.102,0,0.216-0.006,0.343-0.019s0.262-0.032,0.406-0.057v1.688c-0.355,0.102-0.626,0.165-0.812,0.19s-0.44,0.038-0.762,0.038
		c-0.787,0-1.358-0.279-1.714-0.838c-0.186-0.296-0.317-0.715-0.394-1.256c-0.465,0.609-1.134,1.138-2.006,1.586
		c-0.872,0.449-1.833,0.673-2.882,0.673c-1.261,0-2.292-0.383-3.091-1.147c-0.8-0.765-1.2-1.722-1.2-2.872
		c0-1.259,0.394-2.236,1.181-2.929c0.787-0.693,1.82-1.12,3.098-1.281L98.711,211.178z M93.899,217.352
		c0.482,0.38,1.054,0.57,1.714,0.57c0.804,0,1.583-0.186,2.336-0.558c1.27-0.617,1.904-1.626,1.904-3.029v-1.838
		c-0.279,0.178-0.638,0.327-1.077,0.446c-0.439,0.119-0.87,0.204-1.292,0.254l-1.381,0.177c-0.828,0.11-1.45,0.283-1.867,0.52
		c-0.707,0.397-1.06,1.03-1.06,1.9C93.176,216.452,93.417,216.971,93.899,217.352z"/>
	<path d="M103.726,222.847c1.024-0.034,1.64-0.125,1.847-0.273s0.311-0.611,0.311-1.39v-15.311h2.285v15.552
		c0,0.99-0.161,1.731-0.482,2.222c-0.533,0.83-1.544,1.244-3.034,1.244c-0.11,0-0.227-0.004-0.349-0.013s-0.315-0.025-0.578-0.051
		V222.847z M108.169,203.398h-2.285v-2.641h2.285V203.398z"/>
	<path d="M118.947,211.178c0.525-0.067,0.876-0.287,1.054-0.659c0.102-0.204,0.152-0.497,0.152-0.879
		c0-0.781-0.277-1.349-0.83-1.701s-1.345-0.529-2.375-0.529c-1.191,0-2.036,0.323-2.534,0.97c-0.279,0.357-0.46,0.889-0.545,1.595
		h-2.133c0.042-1.681,0.585-2.85,1.629-3.507s2.255-0.987,3.633-0.987c1.598,0,2.896,0.305,3.893,0.914
		c0.989,0.609,1.483,1.557,1.483,2.844v7.833c0,0.237,0.049,0.428,0.146,0.571s0.303,0.215,0.616,0.215
		c0.102,0,0.216-0.006,0.343-0.019s0.262-0.032,0.406-0.057v1.688c-0.355,0.102-0.626,0.165-0.812,0.19s-0.44,0.038-0.762,0.038
		c-0.787,0-1.358-0.279-1.714-0.838c-0.186-0.296-0.317-0.715-0.394-1.256c-0.465,0.609-1.134,1.138-2.006,1.586
		c-0.872,0.449-1.833,0.673-2.882,0.673c-1.261,0-2.292-0.383-3.091-1.147c-0.8-0.765-1.2-1.722-1.2-2.872
		c0-1.259,0.394-2.236,1.181-2.929c0.787-0.693,1.82-1.12,3.098-1.281L118.947,211.178z M114.136,217.352
		c0.482,0.38,1.054,0.57,1.714,0.57c0.804,0,1.583-0.186,2.336-0.558c1.27-0.617,1.904-1.626,1.904-3.029v-1.838
		c-0.279,0.178-0.638,0.327-1.077,0.446c-0.439,0.119-0.87,0.204-1.292,0.254l-1.381,0.177c-0.828,0.11-1.45,0.283-1.867,0.52
		c-0.707,0.397-1.06,1.03-1.06,1.9C113.412,216.452,113.653,216.971,114.136,217.352z"/>
	<path d="M126.184,205.81h2.171v2.349c0.178-0.457,0.614-1.014,1.308-1.669s1.494-0.984,2.399-0.984
		c0.042,0,0.114,0.004,0.216,0.013s0.275,0.025,0.521,0.051v2.412c-0.135-0.025-0.26-0.042-0.375-0.051s-0.239-0.013-0.375-0.013
		c-1.151,0-2.036,0.37-2.653,1.111s-0.927,1.593-0.927,2.558v7.82h-2.285V205.81z"/>
	<path d="M134.778,205.81h2.171v1.93c0.643-0.795,1.325-1.367,2.044-1.714s1.519-0.521,2.399-0.521c1.93,0,3.233,0.673,3.91,2.019
		c0.373,0.736,0.559,1.79,0.559,3.161v8.722h-2.323v-8.569c0-0.83-0.123-1.498-0.368-2.006c-0.406-0.846-1.143-1.27-2.209-1.27
		c-0.542,0-0.986,0.055-1.333,0.165c-0.626,0.186-1.176,0.559-1.65,1.117c-0.381,0.449-0.628,0.912-0.743,1.39
		s-0.171,1.162-0.171,2.05v7.122h-2.285V205.81z"/>
	<path d="M159.09,207.167c1.202,1.167,1.803,2.883,1.803,5.149c0,2.19-0.53,4-1.588,5.429c-1.059,1.429-2.702,2.144-4.929,2.144
		c-1.857,0-3.332-0.632-4.425-1.896s-1.639-2.962-1.639-5.093c0-2.283,0.576-4.102,1.727-5.455c1.151-1.353,2.698-2.029,4.639-2.029
		C156.417,205.417,157.888,206,159.09,207.167z M157.671,216.203c0.557-1.145,0.835-2.419,0.835-3.823
		c0-1.268-0.201-2.299-0.603-3.094c-0.636-1.251-1.732-1.877-3.289-1.877c-1.381,0-2.385,0.533-3.013,1.598
		c-0.627,1.065-0.941,2.35-0.941,3.855c0,1.445,0.314,2.65,0.941,3.614c0.627,0.963,1.624,1.445,2.988,1.445
		C156.087,217.921,157.114,217.349,157.671,216.203z"/>
	<path d="M165.057,215.141c0.069,0.762,0.263,1.346,0.583,1.752c0.587,0.736,1.607,1.104,3.058,1.104
		c0.864,0,1.624-0.184,2.28-0.552s0.985-0.938,0.985-1.708c0-0.584-0.262-1.028-0.787-1.333c-0.335-0.186-0.998-0.402-1.987-0.647
		l-1.845-0.457c-1.178-0.288-2.047-0.609-2.606-0.965c-0.998-0.618-1.497-1.473-1.497-2.564c0-1.287,0.47-2.328,1.409-3.123
		s2.202-1.193,3.789-1.193c2.076,0,3.572,0.601,4.49,1.803c0.575,0.762,0.854,1.583,0.837,2.463h-2.158
		c-0.043-0.513-0.229-0.98-0.559-1.401c-0.538-0.598-1.469-0.896-2.794-0.896c-0.884,0-1.553,0.165-2.008,0.493
		c-0.455,0.329-0.682,0.764-0.682,1.303c0,0.59,0.299,1.062,0.896,1.417c0.345,0.211,0.854,0.397,1.526,0.558l1.539,0.368
		c1.673,0.398,2.794,0.783,3.363,1.155c0.889,0.584,1.333,1.502,1.333,2.755c0,1.21-0.465,2.255-1.395,3.136s-2.346,1.32-4.248,1.32
		c-2.048,0-3.498-0.459-4.351-1.377c-0.853-0.918-1.309-2.055-1.369-3.409H165.057z"/>
	<path d="M192.421,205.81h2.526c-0.322,0.872-1.037,2.862-2.146,5.97c-0.83,2.337-1.523,4.242-2.082,5.715
		c-1.319,3.467-2.249,5.582-2.791,6.343c-0.541,0.761-1.471,1.142-2.79,1.142c-0.322,0-0.569-0.013-0.742-0.038
		s-0.387-0.072-0.641-0.14v-2.082c0.397,0.11,0.685,0.178,0.862,0.203s0.333,0.038,0.469,0.038c0.422,0,0.732-0.07,0.931-0.209
		c0.199-0.14,0.366-0.311,0.501-0.513c0.042-0.068,0.194-0.414,0.456-1.039c0.262-0.625,0.452-1.09,0.57-1.394l-5.027-13.997h2.59
		l3.644,11.075L192.421,205.81z"/>
	<path d="M211.616,206.229c0.405,0.254,0.864,0.698,1.378,1.333v-6.868h2.196v18.713h-2.057v-1.892
		c-0.531,0.838-1.16,1.443-1.884,1.815c-0.726,0.373-1.556,0.559-2.492,0.559c-1.509,0-2.816-0.637-3.92-1.911
		s-1.657-2.969-1.657-5.084c0-1.98,0.503-3.696,1.511-5.148c1.007-1.452,2.447-2.177,4.319-2.177
		C210.048,205.569,210.916,205.789,211.616,206.229z M206.515,216.423c0.615,0.982,1.6,1.473,2.956,1.473
		c1.052,0,1.917-0.455,2.596-1.365c0.678-0.91,1.017-2.215,1.017-3.917c0-1.718-0.35-2.99-1.048-3.815
		c-0.699-0.825-1.562-1.238-2.589-1.238c-1.146,0-2.074,0.44-2.785,1.32c-0.712,0.88-1.067,2.175-1.067,3.885
		C205.593,214.223,205.9,215.441,206.515,216.423z"/>
	<path d="M227.004,206.185c0.9,0.453,1.586,1.039,2.057,1.758c0.454,0.686,0.757,1.485,0.908,2.399
		c0.135,0.626,0.202,1.625,0.202,2.996h-9.89c0.042,1.383,0.365,2.493,0.971,3.329c0.604,0.836,1.54,1.254,2.809,1.254
		c1.184,0,2.129-0.396,2.834-1.186c0.395-0.459,0.674-0.99,0.839-1.594h2.247c-0.059,0.5-0.256,1.056-0.59,1.669
		c-0.335,0.614-0.708,1.115-1.119,1.504c-0.689,0.677-1.541,1.134-2.558,1.371c-0.546,0.135-1.163,0.203-1.853,0.203
		c-1.682,0-3.107-0.616-4.277-1.847c-1.168-1.231-1.753-2.956-1.753-5.173c0-2.184,0.589-3.957,1.767-5.319s2.717-2.044,4.617-2.044
		C225.174,205.505,226.104,205.732,227.004,206.185z M227.822,211.523c-0.092-0.99-0.307-1.782-0.643-2.374
		c-0.621-1.1-1.657-1.65-3.109-1.65c-1.04,0-1.913,0.379-2.618,1.136c-0.704,0.757-1.078,1.72-1.12,2.888H227.822z"/>
	<path d="M234.424,215.141c0.068,0.762,0.264,1.346,0.583,1.752c0.587,0.736,1.606,1.104,3.058,1.104
		c0.864,0,1.624-0.184,2.281-0.552c0.656-0.368,0.984-0.938,0.984-1.708c0-0.584-0.262-1.028-0.787-1.333
		c-0.336-0.186-0.998-0.402-1.986-0.647l-1.846-0.457c-1.178-0.288-2.047-0.609-2.605-0.965c-0.998-0.618-1.497-1.473-1.497-2.564
		c0-1.287,0.47-2.328,1.409-3.123c0.938-0.795,2.201-1.193,3.789-1.193c2.075,0,3.572,0.601,4.489,1.803
		c0.575,0.762,0.854,1.583,0.837,2.463h-2.158c-0.043-0.513-0.229-0.98-0.559-1.401c-0.537-0.598-1.469-0.896-2.795-0.896
		c-0.883,0-1.553,0.165-2.008,0.493c-0.454,0.329-0.682,0.764-0.682,1.303c0,0.59,0.299,1.062,0.896,1.417
		c0.345,0.211,0.854,0.397,1.526,0.558l1.539,0.368c1.673,0.398,2.794,0.783,3.363,1.155c0.889,0.584,1.333,1.502,1.333,2.755
		c0,1.21-0.465,2.255-1.395,3.136s-2.346,1.32-4.248,1.32c-2.048,0-3.498-0.459-4.351-1.377s-1.31-2.055-1.369-3.409H234.424z"/>
	<path d="M255.047,206.534c0.961,0.745,1.539,2.027,1.733,3.847h-2.222c-0.135-0.838-0.444-1.534-0.927-2.088
		s-1.257-0.832-2.323-0.832c-1.455,0-2.496,0.71-3.123,2.13c-0.406,0.921-0.609,2.058-0.609,3.411c0,1.361,0.287,2.506,0.863,3.437
		c0.576,0.93,1.48,1.395,2.717,1.395c0.947,0,1.699-0.289,2.254-0.866c0.554-0.578,0.938-1.368,1.148-2.371h2.222
		c-0.254,1.803-0.889,3.121-1.904,3.955s-2.315,1.25-3.897,1.25c-1.777,0-3.195-0.649-4.253-1.949s-1.587-2.922-1.587-4.869
		c0-2.387,0.58-4.245,1.739-5.573s2.636-1.993,4.431-1.993C252.84,205.417,254.087,205.789,255.047,206.534z"/>
	<path d="M268.917,207.167c1.202,1.167,1.803,2.883,1.803,5.149c0,2.19-0.53,4-1.589,5.429s-2.701,2.144-4.929,2.144
		c-1.857,0-3.332-0.632-4.425-1.896s-1.639-2.962-1.639-5.093c0-2.283,0.576-4.102,1.727-5.455c1.152-1.353,2.698-2.029,4.64-2.029
		C266.244,205.417,267.715,206,268.917,207.167z M267.498,216.203c0.557-1.145,0.835-2.419,0.835-3.823
		c0-1.268-0.201-2.299-0.603-3.094c-0.637-1.251-1.732-1.877-3.289-1.877c-1.381,0-2.385,0.533-3.013,1.598
		c-0.628,1.065-0.941,2.35-0.941,3.855c0,1.445,0.313,2.65,0.941,3.614c0.628,0.963,1.624,1.445,2.987,1.445
		C265.914,217.921,266.941,217.349,267.498,216.203z"/>
	<path d="M273.525,205.81h2.171v1.93c0.644-0.795,1.325-1.367,2.044-1.714s1.52-0.521,2.399-0.521c1.93,0,3.233,0.673,3.91,2.019
		c0.372,0.736,0.559,1.79,0.559,3.161v8.722h-2.323v-8.569c0-0.83-0.123-1.498-0.368-2.006c-0.406-0.846-1.143-1.27-2.209-1.27
		c-0.542,0-0.985,0.055-1.333,0.165c-0.627,0.186-1.176,0.559-1.65,1.117c-0.381,0.449-0.629,0.912-0.742,1.39
		c-0.115,0.478-0.172,1.162-0.172,2.05v7.122h-2.285V205.81z"/>
	<path d="M296.384,206.185c0.899,0.453,1.585,1.039,2.057,1.758c0.454,0.686,0.757,1.485,0.908,2.399
		c0.135,0.626,0.202,1.625,0.202,2.996h-9.89c0.042,1.383,0.365,2.493,0.97,3.329c0.605,0.836,1.541,1.254,2.809,1.254
		c1.185,0,2.129-0.396,2.835-1.186c0.395-0.459,0.675-0.99,0.839-1.594h2.247c-0.06,0.5-0.256,1.056-0.591,1.669
		c-0.334,0.614-0.707,1.115-1.118,1.504c-0.688,0.677-1.542,1.134-2.558,1.371c-0.547,0.135-1.164,0.203-1.853,0.203
		c-1.683,0-3.107-0.616-4.276-1.847c-1.17-1.231-1.754-2.956-1.754-5.173c0-2.184,0.589-3.957,1.767-5.319
		c1.177-1.363,2.717-2.044,4.618-2.044C294.555,205.505,295.483,205.732,296.384,206.185z M297.202,211.523
		c-0.093-0.99-0.307-1.782-0.642-2.374c-0.621-1.1-1.658-1.65-3.109-1.65c-1.041,0-1.914,0.379-2.619,1.136s-1.078,1.72-1.12,2.888
		H297.202z"/>
	<path d="M311.428,206.534c0.96,0.745,1.537,2.027,1.732,3.847h-2.222c-0.136-0.838-0.444-1.534-0.927-2.088
		s-1.257-0.832-2.323-0.832c-1.456,0-2.497,0.71-3.123,2.13c-0.406,0.921-0.609,2.058-0.609,3.411c0,1.361,0.288,2.506,0.863,3.437
		c0.575,0.93,1.481,1.395,2.717,1.395c0.948,0,1.699-0.289,2.253-0.866c0.555-0.578,0.938-1.368,1.149-2.371h2.222
		c-0.254,1.803-0.889,3.121-1.904,3.955s-2.314,1.25-3.897,1.25c-1.777,0-3.194-0.649-4.253-1.949s-1.587-2.922-1.587-4.869
		c0-2.387,0.579-4.245,1.739-5.573s2.637-1.993,4.431-1.993C309.221,205.417,310.467,205.789,311.428,206.534z"/>
	<path d="M315.902,202.014h2.311v3.796h2.171v1.866h-2.171v8.874c0,0.474,0.16,0.792,0.482,0.952c0.178,0.093,0.475,0.14,0.889,0.14
		c0.109,0,0.229-0.003,0.355-0.008s0.275-0.02,0.444-0.042v1.815c-0.263,0.076-0.535,0.131-0.819,0.165
		c-0.283,0.034-0.59,0.051-0.92,0.051c-1.066,0-1.79-0.273-2.171-0.819s-0.571-1.255-0.571-2.126v-9.001h-1.841v-1.866h1.841
		V202.014z"/>
	<path d="M329.956,211.178c0.524-0.067,0.876-0.287,1.054-0.659c0.102-0.204,0.152-0.497,0.152-0.879
		c0-0.781-0.277-1.349-0.83-1.701s-1.346-0.529-2.375-0.529c-1.191,0-2.036,0.323-2.534,0.97c-0.278,0.357-0.46,0.889-0.545,1.595
		h-2.133c0.042-1.681,0.585-2.85,1.63-3.507c1.043-0.658,2.254-0.987,3.633-0.987c1.598,0,2.895,0.305,3.893,0.914
		c0.988,0.609,1.483,1.557,1.483,2.844v7.833c0,0.237,0.049,0.428,0.146,0.571c0.098,0.144,0.303,0.215,0.616,0.215
		c0.102,0,0.216-0.006,0.343-0.019s0.262-0.032,0.406-0.057v1.688c-0.355,0.102-0.627,0.165-0.812,0.19s-0.439,0.038-0.762,0.038
		c-0.787,0-1.358-0.279-1.714-0.838c-0.187-0.296-0.317-0.715-0.394-1.256c-0.465,0.609-1.135,1.138-2.006,1.586
		c-0.871,0.449-1.832,0.673-2.882,0.673c-1.261,0-2.292-0.383-3.091-1.147c-0.801-0.765-1.2-1.722-1.2-2.872
		c0-1.259,0.394-2.236,1.181-2.929c0.787-0.693,1.82-1.12,3.098-1.281L329.956,211.178z M325.145,217.352
		c0.482,0.38,1.054,0.57,1.714,0.57c0.804,0,1.583-0.186,2.336-0.558c1.27-0.617,1.904-1.626,1.904-3.029v-1.838
		c-0.278,0.178-0.638,0.327-1.077,0.446c-0.439,0.119-0.869,0.204-1.292,0.254l-1.382,0.177c-0.827,0.11-1.449,0.283-1.867,0.52
		c-0.706,0.397-1.06,1.03-1.06,1.9C324.421,216.452,324.662,216.971,325.145,217.352z"/>
	<path d="M337.192,205.81h2.171v2.349c0.178-0.457,0.613-1.014,1.308-1.669s1.493-0.984,2.399-0.984
		c0.043,0,0.114,0.004,0.216,0.013s0.274,0.025,0.521,0.051v2.412c-0.135-0.025-0.26-0.042-0.375-0.051
		c-0.113-0.008-0.238-0.013-0.374-0.013c-1.151,0-2.036,0.37-2.653,1.111s-0.927,1.593-0.927,2.558v7.82h-2.285V205.81z"/>
	<path d="M345.787,205.81h2.171v1.93c0.644-0.795,1.325-1.367,2.044-1.714s1.52-0.521,2.399-0.521c1.93,0,3.233,0.673,3.91,2.019
		c0.372,0.736,0.559,1.79,0.559,3.161v8.722h-2.323v-8.569c0-0.83-0.123-1.498-0.368-2.006c-0.406-0.846-1.143-1.27-2.209-1.27
		c-0.542,0-0.985,0.055-1.333,0.165c-0.627,0.186-1.176,0.559-1.65,1.117c-0.381,0.449-0.629,0.912-0.742,1.39
		c-0.115,0.478-0.172,1.162-0.172,2.05v7.122h-2.285V205.81z"/>
	<path d="M370.099,207.167c1.202,1.167,1.803,2.883,1.803,5.149c0,2.19-0.53,4-1.589,5.429s-2.701,2.144-4.929,2.144
		c-1.857,0-3.332-0.632-4.425-1.896s-1.639-2.962-1.639-5.093c0-2.283,0.576-4.102,1.727-5.455c1.152-1.353,2.698-2.029,4.64-2.029
		C367.426,205.417,368.896,206,370.099,207.167z M368.68,216.203c0.557-1.145,0.835-2.419,0.835-3.823
		c0-1.268-0.201-2.299-0.603-3.094c-0.637-1.251-1.732-1.877-3.289-1.877c-1.381,0-2.385,0.533-3.013,1.598
		c-0.628,1.065-0.941,2.35-0.941,3.855c0,1.445,0.313,2.65,0.941,3.614c0.628,0.963,1.624,1.445,2.987,1.445
		C367.096,217.921,368.123,217.349,368.68,216.203z"/>
	<path d="M376.065,215.141c0.069,0.762,0.263,1.346,0.583,1.752c0.588,0.736,1.607,1.104,3.059,1.104
		c0.863,0,1.623-0.184,2.279-0.552c0.657-0.368,0.985-0.938,0.985-1.708c0-0.584-0.263-1.028-0.787-1.333
		c-0.335-0.186-0.997-0.402-1.987-0.647l-1.845-0.457c-1.179-0.288-2.047-0.609-2.606-0.965c-0.997-0.618-1.496-1.473-1.496-2.564
		c0-1.287,0.47-2.328,1.408-3.123c0.939-0.795,2.203-1.193,3.789-1.193c2.076,0,3.572,0.601,4.49,1.803
		c0.574,0.762,0.854,1.583,0.837,2.463h-2.158c-0.044-0.513-0.229-0.98-0.559-1.401c-0.538-0.598-1.469-0.896-2.794-0.896
		c-0.885,0-1.553,0.165-2.008,0.493c-0.455,0.329-0.683,0.764-0.683,1.303c0,0.59,0.299,1.062,0.896,1.417
		c0.345,0.211,0.854,0.397,1.526,0.558l1.539,0.368c1.673,0.398,2.794,0.783,3.363,1.155c0.889,0.584,1.333,1.502,1.333,2.755
		c0,1.21-0.465,2.255-1.395,3.136s-2.346,1.32-4.248,1.32c-2.048,0-3.498-0.459-4.351-1.377c-0.854-0.918-1.309-2.055-1.369-3.409
		H376.065z"/>
	<path d="M80.816,237.429c0.405,0.254,0.864,0.698,1.378,1.333v-6.868h2.196v18.713h-2.057v-1.892
		c-0.531,0.838-1.16,1.443-1.884,1.815c-0.726,0.373-1.556,0.559-2.492,0.559c-1.509,0-2.816-0.637-3.92-1.911
		s-1.657-2.969-1.657-5.084c0-1.98,0.503-3.696,1.511-5.148c1.007-1.452,2.447-2.177,4.319-2.177
		C79.248,236.769,80.116,236.989,80.816,237.429z M75.715,247.623c0.615,0.982,1.6,1.473,2.956,1.473
		c1.052,0,1.917-0.455,2.596-1.365c0.678-0.91,1.017-2.215,1.017-3.917c0-1.718-0.35-2.99-1.048-3.815
		c-0.699-0.825-1.562-1.238-2.589-1.238c-1.146,0-2.074,0.44-2.785,1.32c-0.712,0.88-1.067,2.175-1.067,3.885
		C74.793,245.422,75.1,246.641,75.715,247.623z"/>
	<path d="M96.204,237.384c0.9,0.453,1.585,1.039,2.057,1.758c0.454,0.686,0.757,1.485,0.908,2.399
		c0.135,0.626,0.202,1.625,0.202,2.996h-9.89c0.042,1.383,0.365,2.493,0.97,3.329c0.604,0.836,1.541,1.254,2.809,1.254
		c1.184,0,2.129-0.396,2.834-1.186c0.395-0.459,0.674-0.99,0.839-1.594h2.247c-0.059,0.5-0.256,1.056-0.59,1.669
		s-0.708,1.115-1.119,1.504c-0.689,0.677-1.542,1.134-2.558,1.371c-0.546,0.135-1.164,0.203-1.853,0.203
		c-1.682,0-3.107-0.616-4.277-1.847c-1.169-1.231-1.753-2.956-1.753-5.173c0-2.184,0.589-3.957,1.767-5.319
		c1.177-1.363,2.717-2.044,4.618-2.044C94.375,236.705,95.304,236.932,96.204,237.384z M97.022,242.723
		c-0.092-0.99-0.307-1.782-0.642-2.374c-0.621-1.1-1.658-1.65-3.109-1.65c-1.041,0-1.914,0.379-2.619,1.136
		c-0.705,0.757-1.078,1.72-1.12,2.888H97.022z"/>
	<path d="M109.553,231.957h2.285v18.649h-2.285V231.957z"/>
	<path d="M122.553,242.378c0.525-0.067,0.876-0.287,1.054-0.659c0.102-0.204,0.152-0.497,0.152-0.879
		c0-0.781-0.277-1.349-0.83-1.701s-1.345-0.529-2.375-0.529c-1.191,0-2.036,0.323-2.534,0.97c-0.279,0.357-0.46,0.889-0.545,1.595
		h-2.133c0.042-1.681,0.585-2.85,1.629-3.507s2.255-0.987,3.633-0.987c1.598,0,2.896,0.305,3.893,0.914
		c0.989,0.609,1.483,1.557,1.483,2.844v7.833c0,0.237,0.049,0.428,0.146,0.571s0.303,0.215,0.616,0.215
		c0.102,0,0.216-0.006,0.343-0.019s0.262-0.032,0.406-0.057v1.688c-0.355,0.102-0.626,0.165-0.812,0.19s-0.44,0.038-0.762,0.038
		c-0.787,0-1.358-0.279-1.714-0.838c-0.186-0.296-0.317-0.715-0.394-1.256c-0.465,0.609-1.134,1.138-2.006,1.586
		c-0.872,0.449-1.833,0.673-2.882,0.673c-1.261,0-2.292-0.383-3.091-1.147c-0.8-0.765-1.2-1.722-1.2-2.872
		c0-1.259,0.394-2.236,1.181-2.929c0.787-0.693,1.82-1.12,3.098-1.281L122.553,242.378z M117.741,248.551
		c0.482,0.38,1.054,0.57,1.714,0.57c0.804,0,1.583-0.186,2.336-0.558c1.27-0.617,1.904-1.626,1.904-3.029v-1.838
		c-0.279,0.178-0.638,0.327-1.077,0.446c-0.439,0.119-0.87,0.204-1.292,0.254l-1.381,0.177c-0.828,0.11-1.45,0.283-1.867,0.52
		c-0.707,0.397-1.06,1.03-1.06,1.9C117.018,247.652,117.259,248.171,117.741,248.551z"/>
	<path d="M138.073,237.01l3.631,11.07l3.783-11.07h2.501l-5.119,13.597h-2.435l-5.015-13.597H138.073z"/>
	<path d="M149.949,231.957h2.323v2.59h-2.323V231.957z M149.949,237.073h2.323v13.533h-2.323V237.073z"/>
	<path d="M163.196,237.429c0.405,0.254,0.864,0.698,1.378,1.333v-6.868h2.196v18.713h-2.057v-1.892
		c-0.531,0.838-1.16,1.443-1.884,1.815c-0.726,0.373-1.556,0.559-2.492,0.559c-1.509,0-2.816-0.637-3.92-1.911
		s-1.657-2.969-1.657-5.084c0-1.98,0.503-3.696,1.511-5.148c1.007-1.452,2.447-2.177,4.319-2.177
		C161.628,236.769,162.496,236.989,163.196,237.429z M158.095,247.623c0.615,0.982,1.6,1.473,2.956,1.473
		c1.052,0,1.917-0.455,2.596-1.365c0.678-0.91,1.017-2.215,1.017-3.917c0-1.718-0.35-2.99-1.048-3.815
		c-0.699-0.825-1.562-1.238-2.589-1.238c-1.146,0-2.074,0.44-2.785,1.32c-0.712,0.88-1.067,2.175-1.067,3.885
		C157.173,245.422,157.48,246.641,158.095,247.623z"/>
	<path d="M177.473,242.378c0.525-0.067,0.876-0.287,1.054-0.659c0.102-0.204,0.152-0.497,0.152-0.879
		c0-0.781-0.277-1.349-0.83-1.701s-1.345-0.529-2.375-0.529c-1.191,0-2.036,0.323-2.534,0.97c-0.279,0.357-0.46,0.889-0.545,1.595
		h-2.133c0.042-1.681,0.585-2.85,1.629-3.507s2.255-0.987,3.633-0.987c1.598,0,2.896,0.305,3.893,0.914
		c0.989,0.609,1.483,1.557,1.483,2.844v7.833c0,0.237,0.049,0.428,0.146,0.571s0.303,0.215,0.616,0.215
		c0.102,0,0.216-0.006,0.343-0.019s0.262-0.032,0.406-0.057v1.688c-0.355,0.102-0.626,0.165-0.812,0.19s-0.44,0.038-0.762,0.038
		c-0.787,0-1.358-0.279-1.714-0.838c-0.186-0.296-0.317-0.715-0.394-1.256c-0.465,0.609-1.134,1.138-2.006,1.586
		c-0.872,0.449-1.833,0.673-2.882,0.673c-1.261,0-2.292-0.383-3.091-1.147c-0.8-0.765-1.2-1.722-1.2-2.872
		c0-1.259,0.394-2.236,1.181-2.929c0.787-0.693,1.82-1.12,3.098-1.281L177.473,242.378z M172.661,248.551
		c0.482,0.38,1.054,0.57,1.714,0.57c0.804,0,1.583-0.186,2.336-0.558c1.27-0.617,1.904-1.626,1.904-3.029v-1.838
		c-0.279,0.178-0.638,0.327-1.077,0.446c-0.439,0.119-0.87,0.204-1.292,0.254l-1.381,0.177c-0.828,0.11-1.45,0.283-1.867,0.52
		c-0.707,0.397-1.06,1.03-1.06,1.9C171.938,247.652,172.179,248.171,172.661,248.551z"/>
	<path d="M200.851,237.733c0.96,0.745,1.538,2.027,1.733,3.847h-2.222c-0.135-0.838-0.444-1.534-0.927-2.088
		s-1.257-0.832-2.323-0.832c-1.456,0-2.497,0.71-3.123,2.13c-0.406,0.921-0.609,2.058-0.609,3.411c0,1.361,0.288,2.506,0.863,3.437
		c0.576,0.93,1.481,1.395,2.717,1.395c0.948,0,1.699-0.289,2.253-0.866s0.938-1.368,1.149-2.371h2.222
		c-0.254,1.803-0.889,3.121-1.904,3.955s-2.315,1.25-3.897,1.25c-1.777,0-3.195-0.649-4.253-1.949s-1.587-2.922-1.587-4.869
		c0-2.387,0.58-4.245,1.739-5.573s2.636-1.993,4.431-1.993C198.644,236.616,199.891,236.989,200.851,237.733z"/>
	<path d="M214.721,238.367c1.201,1.167,1.803,2.883,1.803,5.149c0,2.19-0.529,4-1.588,5.429c-1.06,1.429-2.703,2.144-4.93,2.144
		c-1.857,0-3.332-0.632-4.425-1.896s-1.639-2.962-1.639-5.093c0-2.283,0.576-4.102,1.727-5.455c1.151-1.353,2.698-2.029,4.639-2.029
		C212.048,236.616,213.519,237.2,214.721,238.367z M213.302,247.403c0.557-1.145,0.835-2.419,0.835-3.823
		c0-1.268-0.201-2.299-0.603-3.094c-0.636-1.251-1.732-1.877-3.289-1.877c-1.381,0-2.385,0.533-3.013,1.598
		c-0.627,1.065-0.941,2.35-0.941,3.855c0,1.445,0.314,2.65,0.941,3.614c0.627,0.963,1.624,1.445,2.988,1.445
		C211.718,249.121,212.745,248.548,213.302,247.403z"/>
	<path d="M219.786,233.214h2.311v3.796h2.171v1.866h-2.171v8.874c0,0.474,0.161,0.792,0.482,0.952
		c0.178,0.093,0.474,0.14,0.889,0.14c0.11,0,0.229-0.003,0.355-0.008s0.274-0.02,0.444-0.042v1.815
		c-0.262,0.076-0.535,0.131-0.818,0.165c-0.284,0.034-0.591,0.051-0.921,0.051c-1.066,0-1.79-0.273-2.171-0.819
		s-0.571-1.255-0.571-2.126v-9.001h-1.841v-1.866h1.841V233.214z"/>
	<path d="M226.553,231.957h2.323v2.59h-2.323V231.957z M226.553,237.073h2.323v13.533h-2.323V237.073z"/>
	<path d="M239.799,237.429c0.405,0.254,0.865,0.698,1.379,1.333v-6.868h2.196v18.713h-2.057v-1.892
		c-0.531,0.838-1.159,1.443-1.884,1.815c-0.727,0.373-1.557,0.559-2.492,0.559c-1.51,0-2.816-0.637-3.92-1.911
		c-1.105-1.274-1.657-2.969-1.657-5.084c0-1.98,0.503-3.696,1.511-5.148s2.447-2.177,4.319-2.177
		C238.231,236.769,239.1,236.989,239.799,237.429z M234.698,247.623c0.614,0.982,1.601,1.473,2.956,1.473
		c1.053,0,1.918-0.455,2.596-1.365s1.017-2.215,1.017-3.917c0-1.718-0.35-2.99-1.048-3.815c-0.699-0.825-1.562-1.238-2.59-1.238
		c-1.146,0-2.074,0.44-2.785,1.32c-0.712,0.88-1.067,2.175-1.067,3.885C233.776,245.422,234.084,246.641,234.698,247.623z"/>
	<path d="M246.789,231.957h2.323v2.59h-2.323V231.957z M246.789,237.073h2.323v13.533h-2.323V237.073z"/>
	<path d="M259.853,242.378c0.524-0.067,0.876-0.287,1.054-0.659c0.102-0.204,0.152-0.497,0.152-0.879
		c0-0.781-0.277-1.349-0.83-1.701s-1.346-0.529-2.375-0.529c-1.191,0-2.036,0.323-2.534,0.97c-0.278,0.357-0.46,0.889-0.545,1.595
		h-2.133c0.042-1.681,0.585-2.85,1.63-3.507c1.043-0.658,2.254-0.987,3.633-0.987c1.598,0,2.895,0.305,3.893,0.914
		c0.988,0.609,1.483,1.557,1.483,2.844v7.833c0,0.237,0.049,0.428,0.146,0.571c0.098,0.144,0.303,0.215,0.616,0.215
		c0.102,0,0.216-0.006,0.343-0.019s0.262-0.032,0.406-0.057v1.688c-0.355,0.102-0.627,0.165-0.812,0.19s-0.439,0.038-0.762,0.038
		c-0.787,0-1.358-0.279-1.714-0.838c-0.187-0.296-0.317-0.715-0.394-1.256c-0.465,0.609-1.135,1.138-2.006,1.586
		c-0.871,0.449-1.832,0.673-2.882,0.673c-1.261,0-2.292-0.383-3.091-1.147c-0.801-0.765-1.2-1.722-1.2-2.872
		c0-1.259,0.394-2.236,1.181-2.929c0.787-0.693,1.82-1.12,3.098-1.281L259.853,242.378z M255.041,248.551
		c0.482,0.38,1.054,0.57,1.714,0.57c0.804,0,1.583-0.186,2.336-0.558c1.27-0.617,1.904-1.626,1.904-3.029v-1.838
		c-0.278,0.178-0.638,0.327-1.077,0.446c-0.439,0.119-0.869,0.204-1.292,0.254l-1.382,0.177c-0.827,0.11-1.449,0.283-1.867,0.52
		c-0.706,0.397-1.06,1.03-1.06,1.9C254.317,247.652,254.559,248.171,255.041,248.551z"/>
	<path d="M267.025,237.01h2.171v1.93c0.644-0.795,1.325-1.367,2.044-1.714s1.52-0.521,2.399-0.521c1.93,0,3.233,0.673,3.91,2.019
		c0.372,0.736,0.559,1.79,0.559,3.161v8.722h-2.323v-8.569c0-0.83-0.123-1.498-0.368-2.006c-0.406-0.846-1.143-1.27-2.209-1.27
		c-0.542,0-0.985,0.055-1.333,0.165c-0.627,0.186-1.176,0.559-1.65,1.117c-0.381,0.449-0.629,0.912-0.742,1.39
		c-0.115,0.478-0.172,1.162-0.172,2.05v7.122h-2.285V237.01z"/>
	<path d="M288.772,242.378c0.524-0.067,0.876-0.287,1.054-0.659c0.102-0.204,0.152-0.497,0.152-0.879
		c0-0.781-0.277-1.349-0.83-1.701s-1.346-0.529-2.375-0.529c-1.191,0-2.036,0.323-2.534,0.97c-0.278,0.357-0.46,0.889-0.545,1.595
		h-2.133c0.042-1.681,0.585-2.85,1.63-3.507c1.043-0.658,2.254-0.987,3.633-0.987c1.598,0,2.895,0.305,3.893,0.914
		c0.988,0.609,1.483,1.557,1.483,2.844v7.833c0,0.237,0.049,0.428,0.146,0.571c0.098,0.144,0.303,0.215,0.616,0.215
		c0.102,0,0.216-0.006,0.343-0.019s0.262-0.032,0.406-0.057v1.688c-0.355,0.102-0.627,0.165-0.812,0.19s-0.439,0.038-0.762,0.038
		c-0.787,0-1.358-0.279-1.714-0.838c-0.187-0.296-0.317-0.715-0.394-1.256c-0.465,0.609-1.135,1.138-2.006,1.586
		c-0.871,0.449-1.832,0.673-2.882,0.673c-1.261,0-2.292-0.383-3.091-1.147c-0.801-0.765-1.2-1.722-1.2-2.872
		c0-1.259,0.394-2.236,1.181-2.929c0.787-0.693,1.82-1.12,3.098-1.281L288.772,242.378z M283.961,248.551
		c0.482,0.38,1.054,0.57,1.714,0.57c0.804,0,1.583-0.186,2.336-0.558c1.27-0.617,1.904-1.626,1.904-3.029v-1.838
		c-0.278,0.178-0.638,0.327-1.077,0.446c-0.439,0.119-0.869,0.204-1.292,0.254l-1.382,0.177c-0.827,0.11-1.449,0.283-1.867,0.52
		c-0.706,0.397-1.06,1.03-1.06,1.9C283.237,247.652,283.479,248.171,283.961,248.551z"/>
	<path d="M302.979,237.073h2.234v1.803c0.458-0.618,0.959-1.096,1.502-1.435c0.771-0.508,1.68-0.762,2.724-0.762
		c1.544,0,2.855,0.59,3.933,1.771c1.078,1.181,1.617,2.867,1.617,5.059c0,2.962-0.777,5.078-2.332,6.348
		c-0.986,0.804-2.133,1.206-3.441,1.206c-1.028,0-1.891-0.224-2.588-0.673c-0.407-0.254-0.861-0.69-1.363-1.308v6.944h-2.285
		V237.073z M311.576,247.731c0.709-0.893,1.063-2.228,1.063-4.005c0-1.083-0.157-2.014-0.472-2.793
		c-0.594-1.498-1.682-2.247-3.261-2.247c-1.588,0-2.675,0.792-3.261,2.374c-0.314,0.846-0.472,1.921-0.472,3.225
		c0,1.049,0.157,1.942,0.472,2.679c0.594,1.405,1.682,2.107,3.261,2.107C309.977,249.07,310.867,248.624,311.576,247.731z"/>
	<path d="M324.916,242.378c0.525-0.067,0.876-0.287,1.054-0.659c0.102-0.204,0.152-0.497,0.152-0.879
		c0-0.781-0.276-1.349-0.83-1.701s-1.345-0.529-2.376-0.529c-1.19,0-2.035,0.323-2.533,0.97c-0.279,0.357-0.461,0.889-0.545,1.595
		h-2.133c0.043-1.681,0.586-2.85,1.629-3.507c1.045-0.658,2.256-0.987,3.633-0.987c1.598,0,2.896,0.305,3.894,0.914
		c0.989,0.609,1.483,1.557,1.483,2.844v7.833c0,0.237,0.049,0.428,0.146,0.571c0.097,0.144,0.303,0.215,0.615,0.215
		c0.102,0,0.216-0.006,0.343-0.019s0.263-0.032,0.406-0.057v1.688c-0.355,0.102-0.626,0.165-0.812,0.19s-0.44,0.038-0.762,0.038
		c-0.787,0-1.358-0.279-1.714-0.838c-0.186-0.296-0.317-0.715-0.394-1.256c-0.466,0.609-1.134,1.138-2.006,1.586
		c-0.872,0.449-1.833,0.673-2.882,0.673c-1.262,0-2.291-0.383-3.092-1.147c-0.799-0.765-1.199-1.722-1.199-2.872
		c0-1.259,0.394-2.236,1.181-2.929c0.787-0.693,1.819-1.12,3.098-1.281L324.916,242.378z M320.104,248.551
		c0.482,0.38,1.054,0.57,1.714,0.57c0.805,0,1.582-0.186,2.336-0.558c1.27-0.617,1.904-1.626,1.904-3.029v-1.838
		c-0.279,0.178-0.638,0.327-1.077,0.446c-0.438,0.119-0.87,0.204-1.292,0.254l-1.381,0.177c-0.828,0.11-1.451,0.283-1.867,0.52
		c-0.707,0.397-1.061,1.03-1.061,1.9C319.381,247.652,319.622,248.171,320.104,248.551z"/>
	<path d="M332.152,237.01h2.171v2.349c0.178-0.457,0.614-1.014,1.308-1.669s1.494-0.984,2.399-0.984
		c0.042,0,0.114,0.004,0.216,0.013s0.275,0.025,0.521,0.051v2.412c-0.136-0.025-0.261-0.042-0.374-0.051
		c-0.115-0.008-0.24-0.013-0.375-0.013c-1.15,0-2.035,0.37-2.653,1.111s-0.927,1.593-0.927,2.558v7.82h-2.285V237.01z"/>
	<path d="M348.034,242.378c0.524-0.067,0.876-0.287,1.054-0.659c0.102-0.204,0.152-0.497,0.152-0.879
		c0-0.781-0.277-1.349-0.83-1.701s-1.346-0.529-2.375-0.529c-1.191,0-2.036,0.323-2.534,0.97c-0.278,0.357-0.46,0.889-0.545,1.595
		h-2.133c0.042-1.681,0.585-2.85,1.63-3.507c1.043-0.658,2.254-0.987,3.633-0.987c1.598,0,2.895,0.305,3.893,0.914
		c0.988,0.609,1.483,1.557,1.483,2.844v7.833c0,0.237,0.049,0.428,0.146,0.571c0.098,0.144,0.303,0.215,0.616,0.215
		c0.102,0,0.216-0.006,0.343-0.019s0.262-0.032,0.406-0.057v1.688c-0.355,0.102-0.627,0.165-0.812,0.19s-0.439,0.038-0.762,0.038
		c-0.787,0-1.358-0.279-1.714-0.838c-0.187-0.296-0.317-0.715-0.394-1.256c-0.465,0.609-1.135,1.138-2.006,1.586
		c-0.871,0.449-1.832,0.673-2.882,0.673c-1.261,0-2.292-0.383-3.091-1.147c-0.801-0.765-1.2-1.722-1.2-2.872
		c0-1.259,0.394-2.236,1.181-2.929c0.787-0.693,1.82-1.12,3.098-1.281L348.034,242.378z M343.223,248.551
		c0.482,0.38,1.054,0.57,1.714,0.57c0.804,0,1.583-0.186,2.336-0.558c1.27-0.617,1.904-1.626,1.904-3.029v-1.838
		c-0.278,0.178-0.638,0.327-1.077,0.446c-0.439,0.119-0.869,0.204-1.292,0.254l-1.382,0.177c-0.827,0.11-1.449,0.283-1.867,0.52
		c-0.706,0.397-1.06,1.03-1.06,1.9C342.499,247.652,342.74,248.171,343.223,248.551z"/>
	<path d="M76.493,268.629c0.405,0.254,0.864,0.698,1.378,1.333v-6.868h2.196v18.713h-2.057v-1.892
		c-0.531,0.838-1.16,1.443-1.884,1.815c-0.726,0.373-1.556,0.559-2.492,0.559c-1.509,0-2.816-0.637-3.92-1.911
		s-1.657-2.969-1.657-5.084c0-1.98,0.503-3.696,1.511-5.148c1.007-1.452,2.447-2.177,4.319-2.177
		C74.925,267.969,75.793,268.189,76.493,268.629z M71.392,278.823c0.615,0.982,1.6,1.473,2.956,1.473
		c1.052,0,1.917-0.455,2.596-1.365c0.678-0.91,1.017-2.215,1.017-3.917c0-1.718-0.35-2.99-1.048-3.815
		c-0.699-0.825-1.562-1.238-2.589-1.238c-1.146,0-2.074,0.44-2.785,1.32c-0.712,0.88-1.067,2.175-1.067,3.885
		C70.47,276.623,70.777,277.841,71.392,278.823z"/>
	<path d="M83.482,263.157h2.323v2.59h-2.323V263.157z M83.482,268.273h2.323v13.533h-2.323V268.273z"/>
	<path d="M90.617,277.541c0.069,0.762,0.263,1.346,0.583,1.752c0.587,0.736,1.607,1.104,3.058,1.104c0.864,0,1.624-0.184,2.28-0.552
		s0.985-0.938,0.985-1.708c0-0.584-0.262-1.028-0.787-1.333c-0.335-0.186-0.998-0.402-1.987-0.647l-1.845-0.457
		c-1.178-0.288-2.047-0.609-2.606-0.965c-0.998-0.618-1.497-1.473-1.497-2.564c0-1.287,0.47-2.328,1.409-3.123
		s2.202-1.193,3.789-1.193c2.076,0,3.572,0.601,4.49,1.803c0.575,0.762,0.854,1.583,0.837,2.463h-2.158
		c-0.043-0.513-0.229-0.98-0.559-1.401c-0.538-0.598-1.469-0.896-2.794-0.896c-0.884,0-1.553,0.165-2.008,0.493
		c-0.455,0.329-0.682,0.764-0.682,1.303c0,0.59,0.299,1.062,0.896,1.417c0.345,0.211,0.854,0.397,1.526,0.558l1.539,0.368
		c1.673,0.398,2.794,0.783,3.363,1.155c0.889,0.584,1.333,1.502,1.333,2.755c0,1.21-0.465,2.255-1.395,3.136s-2.346,1.32-4.248,1.32
		c-2.048,0-3.498-0.459-4.351-1.377c-0.853-0.918-1.309-2.055-1.369-3.409H90.617z"/>
	<path d="M103.325,264.059c0.533-0.779,1.562-1.168,3.085-1.168c0.144,0,0.292,0.004,0.444,0.013s0.326,0.021,0.521,0.038v2.082
		c-0.24-0.017-0.413-0.027-0.52-0.032s-0.208-0.006-0.302-0.006c-0.702,0-1.121,0.18-1.258,0.54
		c-0.137,0.36-0.205,1.276-0.205,2.749h2.285v1.803h-2.285v11.73h-2.26v-11.73h-1.892v-1.803h1.892v-2.133
		C102.864,265.193,103.029,264.499,103.325,264.059z"/>
	<path d="M109.546,268.21h2.171v2.349c0.178-0.457,0.614-1.014,1.308-1.669s1.494-0.984,2.399-0.984
		c0.042,0,0.114,0.004,0.216,0.013s0.275,0.025,0.521,0.051v2.412c-0.135-0.025-0.26-0.042-0.375-0.051s-0.239-0.013-0.375-0.013
		c-1.151,0-2.036,0.37-2.653,1.111s-0.927,1.593-0.927,2.558v7.82h-2.285V268.21z"/>
	<path d="M120.426,268.21v9.026c0,0.694,0.107,1.261,0.322,1.701c0.396,0.812,1.133,1.219,2.213,1.219
		c1.549,0,2.604-0.711,3.165-2.133c0.305-0.762,0.458-1.807,0.458-3.136v-6.678h2.285v13.597h-2.158l0.025-2.006
		c-0.291,0.516-0.652,0.952-1.084,1.308c-0.855,0.711-1.893,1.066-3.114,1.066c-1.902,0-3.198-0.647-3.887-1.942
		c-0.374-0.694-0.561-1.621-0.561-2.78v-9.242H120.426z"/>
	<path d="M133.058,264.414h2.311v3.796h2.171v1.866h-2.171v8.874c0,0.474,0.161,0.792,0.482,0.952
		c0.178,0.093,0.474,0.14,0.889,0.14c0.11,0,0.229-0.003,0.355-0.008s0.275-0.02,0.444-0.042v1.815
		c-0.262,0.076-0.535,0.131-0.819,0.165s-0.59,0.051-0.92,0.051c-1.066,0-1.79-0.273-2.171-0.819s-0.571-1.255-0.571-2.126v-9.001
		h-1.841v-1.866h1.841V264.414z"/>
	<path d="M147.111,273.578c0.525-0.067,0.876-0.287,1.054-0.659c0.102-0.204,0.152-0.497,0.152-0.879
		c0-0.781-0.277-1.349-0.83-1.701s-1.345-0.529-2.375-0.529c-1.191,0-2.036,0.323-2.534,0.97c-0.279,0.357-0.46,0.889-0.545,1.595
		H139.9c0.042-1.681,0.585-2.85,1.629-3.507s2.255-0.987,3.633-0.987c1.598,0,2.896,0.305,3.893,0.914
		c0.989,0.609,1.483,1.557,1.483,2.844v7.833c0,0.237,0.049,0.428,0.146,0.571s0.303,0.215,0.616,0.215
		c0.102,0,0.216-0.006,0.343-0.019s0.262-0.032,0.406-0.057v1.688c-0.355,0.102-0.626,0.165-0.812,0.19s-0.44,0.038-0.762,0.038
		c-0.787,0-1.358-0.279-1.714-0.838c-0.186-0.296-0.317-0.715-0.394-1.256c-0.465,0.609-1.134,1.138-2.006,1.586
		c-0.872,0.449-1.833,0.673-2.882,0.673c-1.261,0-2.292-0.383-3.091-1.147c-0.8-0.765-1.2-1.722-1.2-2.872
		c0-1.259,0.394-2.236,1.181-2.929c0.787-0.693,1.82-1.12,3.098-1.281L147.111,273.578z M142.3,279.751
		c0.482,0.38,1.054,0.57,1.714,0.57c0.804,0,1.583-0.186,2.336-0.558c1.27-0.617,1.904-1.626,1.904-3.029v-1.838
		c-0.279,0.178-0.638,0.327-1.077,0.446c-0.439,0.119-0.87,0.204-1.292,0.254l-1.381,0.177c-0.828,0.11-1.45,0.283-1.867,0.52
		c-0.707,0.397-1.06,1.03-1.06,1.9C141.576,278.852,141.817,279.371,142.3,279.751z"/>
	<path d="M154.348,268.21h2.171v2.349c0.178-0.457,0.614-1.014,1.308-1.669s1.494-0.984,2.399-0.984
		c0.042,0,0.114,0.004,0.216,0.013s0.275,0.025,0.521,0.051v2.412c-0.135-0.025-0.26-0.042-0.375-0.051s-0.239-0.013-0.375-0.013
		c-1.151,0-2.036,0.37-2.653,1.111s-0.927,1.593-0.927,2.558v7.82h-2.285V268.21z"/>
	<path d="M177.636,268.629c0.405,0.254,0.864,0.698,1.378,1.333v-6.868h2.196v18.713h-2.057v-1.892
		c-0.531,0.838-1.16,1.443-1.884,1.815c-0.726,0.373-1.556,0.559-2.492,0.559c-1.509,0-2.816-0.637-3.92-1.911
		s-1.657-2.969-1.657-5.084c0-1.98,0.503-3.696,1.511-5.148c1.007-1.452,2.447-2.177,4.319-2.177
		C176.068,267.969,176.937,268.189,177.636,268.629z M172.535,278.823c0.615,0.982,1.6,1.473,2.956,1.473
		c1.052,0,1.917-0.455,2.596-1.365c0.678-0.91,1.017-2.215,1.017-3.917c0-1.718-0.35-2.99-1.048-3.815
		c-0.699-0.825-1.562-1.238-2.589-1.238c-1.146,0-2.074,0.44-2.785,1.32c-0.712,0.88-1.067,2.175-1.067,3.885
		C171.613,276.623,171.92,277.841,172.535,278.823z"/>
	<path d="M193.024,268.584c0.9,0.453,1.585,1.039,2.057,1.758c0.454,0.686,0.757,1.485,0.908,2.399
		c0.135,0.626,0.202,1.625,0.202,2.996h-9.89c0.042,1.383,0.365,2.493,0.97,3.329c0.604,0.836,1.541,1.254,2.809,1.254
		c1.184,0,2.129-0.396,2.834-1.186c0.395-0.459,0.674-0.99,0.839-1.594h2.247c-0.059,0.5-0.256,1.056-0.59,1.669
		s-0.708,1.115-1.119,1.504c-0.689,0.677-1.542,1.134-2.558,1.371c-0.546,0.135-1.164,0.203-1.853,0.203
		c-1.682,0-3.107-0.616-4.277-1.847c-1.169-1.231-1.753-2.956-1.753-5.173c0-2.184,0.589-3.957,1.767-5.319
		c1.177-1.363,2.717-2.044,4.618-2.044C191.195,267.905,192.124,268.132,193.024,268.584z M193.843,273.923
		c-0.092-0.99-0.307-1.782-0.642-2.374c-0.621-1.1-1.658-1.65-3.109-1.65c-1.041,0-1.914,0.379-2.619,1.136
		c-0.705,0.757-1.078,1.72-1.12,2.888H193.843z"/>
	<path d="M208.595,268.21v9.026c0,0.694,0.107,1.261,0.322,1.701c0.396,0.812,1.133,1.219,2.213,1.219
		c1.549,0,2.605-0.711,3.166-2.133c0.305-0.762,0.457-1.807,0.457-3.136v-6.678h2.285v13.597h-2.158l0.025-2.006
		c-0.291,0.516-0.652,0.952-1.084,1.308c-0.855,0.711-1.894,1.066-3.114,1.066c-1.902,0-3.198-0.647-3.887-1.942
		c-0.374-0.694-0.561-1.621-0.561-2.78v-9.242H208.595z"/>
	<path d="M220.77,268.21h2.171v1.93c0.644-0.795,1.325-1.367,2.044-1.714s1.52-0.521,2.399-0.521c1.93,0,3.233,0.673,3.91,2.019
		c0.372,0.736,0.559,1.79,0.559,3.161v8.722h-2.323v-8.569c0-0.83-0.123-1.498-0.368-2.006c-0.406-0.846-1.143-1.27-2.209-1.27
		c-0.542,0-0.985,0.055-1.333,0.165c-0.627,0.186-1.176,0.559-1.65,1.117c-0.381,0.449-0.629,0.912-0.742,1.39
		c-0.115,0.478-0.172,1.162-0.172,2.05v7.122h-2.285V268.21z"/>
	<path d="M243.576,268.21l3.631,11.07l3.783-11.07h2.502l-5.119,13.597h-2.436l-5.014-13.597H243.576z"/>
	<path d="M263.852,268.584c0.9,0.453,1.586,1.039,2.057,1.758c0.454,0.686,0.757,1.485,0.908,2.399
		c0.135,0.626,0.202,1.625,0.202,2.996h-9.89c0.042,1.383,0.365,2.493,0.971,3.329c0.604,0.836,1.54,1.254,2.809,1.254
		c1.184,0,2.129-0.396,2.834-1.186c0.395-0.459,0.674-0.99,0.839-1.594h2.247c-0.059,0.5-0.256,1.056-0.59,1.669
		c-0.335,0.614-0.708,1.115-1.119,1.504c-0.689,0.677-1.541,1.134-2.558,1.371c-0.546,0.135-1.163,0.203-1.853,0.203
		c-1.682,0-3.107-0.616-4.277-1.847c-1.168-1.231-1.753-2.956-1.753-5.173c0-2.184,0.589-3.957,1.767-5.319s2.717-2.044,4.617-2.044
		C262.021,267.905,262.951,268.132,263.852,268.584z M264.67,273.923c-0.092-0.99-0.307-1.782-0.643-2.374
		c-0.621-1.1-1.657-1.65-3.109-1.65c-1.04,0-1.913,0.379-2.618,1.136c-0.704,0.757-1.078,1.72-1.12,2.888H264.67z"/>
	<path d="M269.977,268.21h2.171v2.349c0.178-0.457,0.614-1.014,1.308-1.669s1.494-0.984,2.399-0.984
		c0.042,0,0.114,0.004,0.216,0.013s0.275,0.025,0.521,0.051v2.412c-0.136-0.025-0.261-0.042-0.374-0.051
		c-0.115-0.008-0.24-0.013-0.375-0.013c-1.15,0-2.035,0.37-2.653,1.111s-0.927,1.593-0.927,2.558v7.82h-2.285V268.21z"/>
	<path d="M286.041,268.629c0.405,0.254,0.865,0.698,1.379,1.333v-6.868h2.196v18.713h-2.057v-1.892
		c-0.531,0.838-1.159,1.443-1.884,1.815c-0.727,0.373-1.557,0.559-2.492,0.559c-1.51,0-2.816-0.637-3.92-1.911
		c-1.105-1.274-1.657-2.969-1.657-5.084c0-1.98,0.503-3.696,1.511-5.148s2.447-2.177,4.319-2.177
		C284.474,267.969,285.342,268.189,286.041,268.629z M280.94,278.823c0.614,0.982,1.601,1.473,2.956,1.473
		c1.053,0,1.918-0.455,2.596-1.365s1.017-2.215,1.017-3.917c0-1.718-0.35-2.99-1.048-3.815c-0.699-0.825-1.562-1.238-2.59-1.238
		c-1.146,0-2.074,0.44-2.785,1.32c-0.712,0.88-1.067,2.175-1.067,3.885C280.019,276.623,280.326,277.841,280.94,278.823z"/>
	<path d="M300.318,273.578c0.525-0.067,0.876-0.287,1.054-0.659c0.102-0.204,0.152-0.497,0.152-0.879
		c0-0.781-0.276-1.349-0.83-1.701s-1.345-0.529-2.376-0.529c-1.19,0-2.035,0.323-2.533,0.97c-0.279,0.357-0.461,0.889-0.545,1.595
		h-2.133c0.043-1.681,0.586-2.85,1.629-3.507c1.045-0.658,2.256-0.987,3.633-0.987c1.598,0,2.896,0.305,3.894,0.914
		c0.989,0.609,1.483,1.557,1.483,2.844v7.833c0,0.237,0.049,0.428,0.146,0.571c0.097,0.144,0.303,0.215,0.615,0.215
		c0.102,0,0.216-0.006,0.343-0.019s0.263-0.032,0.406-0.057v1.688c-0.355,0.102-0.626,0.165-0.812,0.19s-0.44,0.038-0.762,0.038
		c-0.787,0-1.358-0.279-1.714-0.838c-0.186-0.296-0.317-0.715-0.394-1.256c-0.466,0.609-1.134,1.138-2.006,1.586
		c-0.872,0.449-1.833,0.673-2.882,0.673c-1.262,0-2.291-0.383-3.092-1.147c-0.799-0.765-1.199-1.722-1.199-2.872
		c0-1.259,0.394-2.236,1.181-2.929c0.787-0.693,1.819-1.12,3.098-1.281L300.318,273.578z M295.507,279.751
		c0.482,0.38,1.054,0.57,1.714,0.57c0.805,0,1.582-0.186,2.336-0.558c1.27-0.617,1.904-1.626,1.904-3.029v-1.838
		c-0.279,0.178-0.638,0.327-1.077,0.446c-0.438,0.119-0.87,0.204-1.292,0.254l-1.381,0.177c-0.828,0.11-1.451,0.283-1.867,0.52
		c-0.707,0.397-1.061,1.03-1.061,1.9C294.783,278.852,295.024,279.371,295.507,279.751z"/>
	<path d="M314.961,268.629c0.405,0.254,0.865,0.698,1.379,1.333v-6.868h2.196v18.713h-2.057v-1.892
		c-0.531,0.838-1.159,1.443-1.884,1.815c-0.727,0.373-1.557,0.559-2.492,0.559c-1.51,0-2.816-0.637-3.92-1.911
		c-1.105-1.274-1.657-2.969-1.657-5.084c0-1.98,0.503-3.696,1.511-5.148s2.447-2.177,4.319-2.177
		C313.394,267.969,314.262,268.189,314.961,268.629z M309.86,278.823c0.614,0.982,1.601,1.473,2.956,1.473
		c1.053,0,1.918-0.455,2.596-1.365s1.017-2.215,1.017-3.917c0-1.718-0.35-2.99-1.048-3.815c-0.699-0.825-1.562-1.238-2.59-1.238
		c-1.146,0-2.074,0.44-2.785,1.32c-0.712,0.88-1.067,2.175-1.067,3.885C308.938,276.623,309.246,277.841,309.86,278.823z"/>
	<path d="M330.35,268.584c0.9,0.453,1.586,1.039,2.057,1.758c0.454,0.686,0.757,1.485,0.908,2.399
		c0.135,0.626,0.202,1.625,0.202,2.996h-9.89c0.042,1.383,0.365,2.493,0.971,3.329c0.604,0.836,1.54,1.254,2.809,1.254
		c1.184,0,2.129-0.396,2.834-1.186c0.395-0.459,0.674-0.99,0.839-1.594h2.247c-0.059,0.5-0.256,1.056-0.59,1.669
		c-0.335,0.614-0.708,1.115-1.119,1.504c-0.689,0.677-1.541,1.134-2.558,1.371c-0.546,0.135-1.163,0.203-1.853,0.203
		c-1.682,0-3.107-0.616-4.277-1.847c-1.168-1.231-1.753-2.956-1.753-5.173c0-2.184,0.589-3.957,1.767-5.319s2.717-2.044,4.617-2.044
		C328.52,267.905,329.449,268.132,330.35,268.584z M331.168,273.923c-0.092-0.99-0.307-1.782-0.643-2.374
		c-0.621-1.1-1.657-1.65-3.109-1.65c-1.04,0-1.913,0.379-2.618,1.136c-0.704,0.757-1.078,1.72-1.12,2.888H331.168z"/>
	<path d="M336.475,268.21h2.171v2.349c0.178-0.457,0.614-1.014,1.308-1.669s1.494-0.984,2.399-0.984
		c0.042,0,0.114,0.004,0.216,0.013s0.275,0.025,0.521,0.051v2.412c-0.136-0.025-0.261-0.042-0.374-0.051
		c-0.115-0.008-0.24-0.013-0.375-0.013c-1.15,0-2.035,0.37-2.653,1.111s-0.927,1.593-0.927,2.558v7.82h-2.285V268.21z"/>
	<path d="M354.921,269.567c1.202,1.167,1.803,2.883,1.803,5.149c0,2.19-0.53,4-1.589,5.429s-2.701,2.144-4.929,2.144
		c-1.857,0-3.332-0.632-4.425-1.896s-1.639-2.962-1.639-5.093c0-2.283,0.576-4.102,1.727-5.455c1.152-1.353,2.698-2.029,4.64-2.029
		C352.248,267.816,353.719,268.4,354.921,269.567z M353.502,278.603c0.557-1.145,0.835-2.419,0.835-3.823
		c0-1.268-0.201-2.299-0.603-3.094c-0.637-1.251-1.732-1.877-3.289-1.877c-1.381,0-2.385,0.533-3.013,1.598
		c-0.628,1.065-0.941,2.35-0.941,3.855c0,1.445,0.313,2.65,0.941,3.614c0.628,0.963,1.624,1.445,2.987,1.445
		C351.918,280.321,352.945,279.749,353.502,278.603z"/>
	<path d="M75.573,304.778c0.525-0.067,0.876-0.287,1.054-0.659c0.102-0.204,0.152-0.497,0.152-0.879c0-0.781-0.277-1.349-0.83-1.701
		s-1.345-0.529-2.375-0.529c-1.191,0-2.036,0.323-2.534,0.97c-0.279,0.357-0.46,0.889-0.545,1.595h-2.133
		c0.042-1.681,0.585-2.85,1.629-3.507s2.255-0.987,3.633-0.987c1.598,0,2.896,0.305,3.893,0.914
		c0.989,0.609,1.483,1.557,1.483,2.844v7.833c0,0.237,0.049,0.428,0.146,0.571s0.303,0.215,0.616,0.215
		c0.102,0,0.216-0.006,0.343-0.019s0.262-0.032,0.406-0.057v1.688c-0.355,0.102-0.626,0.165-0.812,0.19s-0.44,0.038-0.762,0.038
		c-0.787,0-1.358-0.279-1.714-0.838c-0.186-0.296-0.317-0.715-0.394-1.256c-0.465,0.609-1.134,1.138-2.006,1.586
		c-0.872,0.449-1.833,0.673-2.882,0.673c-1.261,0-2.292-0.383-3.091-1.147c-0.8-0.765-1.2-1.722-1.2-2.872
		c0-1.259,0.394-2.236,1.181-2.929c0.787-0.693,1.82-1.12,3.098-1.281L75.573,304.778z M70.762,310.952
		c0.482,0.38,1.054,0.57,1.714,0.57c0.804,0,1.583-0.186,2.336-0.558c1.27-0.617,1.904-1.626,1.904-3.029v-1.838
		c-0.279,0.178-0.638,0.327-1.077,0.446c-0.439,0.119-0.87,0.204-1.292,0.254l-1.381,0.177c-0.828,0.11-1.45,0.283-1.867,0.52
		c-0.707,0.397-1.06,1.03-1.06,1.9C70.038,310.052,70.279,310.571,70.762,310.952z"/>
	<path d="M82.746,299.41h2.26v1.93c0.542-0.668,1.033-1.155,1.473-1.46c0.753-0.516,1.608-0.774,2.564-0.774
		c1.083,0,1.955,0.267,2.615,0.8c0.373,0.305,0.711,0.753,1.016,1.346c0.508-0.728,1.104-1.268,1.79-1.619s1.456-0.527,2.311-0.527
		c1.828,0,3.072,0.66,3.732,1.98c0.355,0.711,0.533,1.667,0.533,2.869v9.052h-2.374v-9.445c0-0.906-0.227-1.528-0.679-1.866
		s-1.005-0.508-1.657-0.508c-0.897,0-1.669,0.3-2.317,0.901s-0.971,1.604-0.971,3.009v7.909h-2.323v-8.874
		c0-0.922-0.11-1.595-0.33-2.019c-0.347-0.635-0.995-0.952-1.942-0.952c-0.863,0-1.648,0.334-2.355,1.003s-1.06,1.879-1.06,3.631
		v7.211h-2.285V299.41z"/>
	<path d="M104.214,294.294h2.222v6.767c0.501-0.652,1.1-1.149,1.797-1.492s1.453-0.514,2.269-0.514c1.699,0,3.078,0.582,4.136,1.746
		c1.058,1.164,1.587,2.88,1.587,5.148c0,2.15-0.522,3.936-1.568,5.357c-1.045,1.422-2.494,2.133-4.346,2.133
		c-1.037,0-1.912-0.25-2.625-0.749c-0.425-0.296-0.879-0.77-1.364-1.422v1.739h-2.107V294.294z M112.951,309.947
		c0.616-0.982,0.924-2.277,0.924-3.885c0-1.43-0.308-2.615-0.924-3.555c-0.615-0.939-1.522-1.409-2.719-1.409
		c-1.044,0-1.959,0.385-2.745,1.155s-1.178,2.04-1.178,3.809c0,1.278,0.161,2.315,0.484,3.11c0.603,1.498,1.728,2.247,3.375,2.247
		C111.408,311.42,112.336,310.929,112.951,309.947z"/>
	<path d="M118.864,294.357h2.323v2.59h-2.323V294.357z M118.864,299.474h2.323v13.533h-2.323V299.474z"/>
	<path d="M133.039,299.785c0.9,0.453,1.585,1.039,2.057,1.758c0.454,0.686,0.757,1.485,0.908,2.399
		c0.135,0.626,0.202,1.625,0.202,2.996h-9.89c0.042,1.383,0.365,2.493,0.97,3.329c0.604,0.836,1.541,1.254,2.809,1.254
		c1.184,0,2.129-0.396,2.834-1.186c0.395-0.459,0.674-0.99,0.839-1.594h2.247c-0.059,0.5-0.256,1.056-0.59,1.669
		s-0.708,1.115-1.119,1.504c-0.689,0.677-1.542,1.134-2.558,1.371c-0.546,0.135-1.164,0.203-1.853,0.203
		c-1.682,0-3.107-0.616-4.277-1.847c-1.169-1.231-1.753-2.956-1.753-5.173c0-2.184,0.589-3.957,1.767-5.319
		c1.177-1.363,2.717-2.044,4.618-2.044C131.209,299.105,132.139,299.332,133.039,299.785z M133.857,305.123
		c-0.092-0.99-0.307-1.782-0.642-2.374c-0.621-1.1-1.658-1.65-3.109-1.65c-1.041,0-1.914,0.379-2.619,1.136
		c-0.705,0.757-1.078,1.72-1.12,2.888H133.857z"/>
	<path d="M139.101,299.41h2.171v1.93c0.643-0.795,1.325-1.367,2.044-1.714s1.519-0.521,2.399-0.521c1.93,0,3.233,0.673,3.91,2.019
		c0.373,0.736,0.559,1.79,0.559,3.161v8.722h-2.323v-8.569c0-0.83-0.123-1.498-0.368-2.006c-0.406-0.846-1.143-1.27-2.209-1.27
		c-0.542,0-0.986,0.055-1.333,0.165c-0.626,0.186-1.176,0.559-1.65,1.117c-0.381,0.449-0.628,0.912-0.743,1.39
		s-0.171,1.162-0.171,2.05v7.122h-2.285V299.41z"/>
	<path d="M154.018,295.614h2.311v3.796h2.171v1.866h-2.171v8.874c0,0.474,0.161,0.792,0.482,0.952
		c0.178,0.093,0.474,0.14,0.889,0.14c0.11,0,0.229-0.003,0.355-0.008s0.275-0.02,0.444-0.042v1.815
		c-0.262,0.076-0.535,0.131-0.819,0.165s-0.59,0.051-0.92,0.051c-1.066,0-1.79-0.273-2.171-0.819s-0.571-1.255-0.571-2.126v-9.001
		h-1.841v-1.866h1.841V295.614z"/>
	<path d="M169.183,299.785c0.9,0.453,1.585,1.039,2.057,1.758c0.454,0.686,0.757,1.485,0.908,2.399
		c0.135,0.626,0.202,1.625,0.202,2.996h-9.89c0.042,1.383,0.365,2.493,0.97,3.329c0.604,0.836,1.541,1.254,2.809,1.254
		c1.184,0,2.129-0.396,2.834-1.186c0.395-0.459,0.674-0.99,0.839-1.594h2.247c-0.059,0.5-0.256,1.056-0.59,1.669
		s-0.708,1.115-1.119,1.504c-0.689,0.677-1.542,1.134-2.558,1.371c-0.546,0.135-1.164,0.203-1.853,0.203
		c-1.682,0-3.107-0.616-4.277-1.847c-1.169-1.231-1.753-2.956-1.753-5.173c0-2.184,0.589-3.957,1.767-5.319
		c1.177-1.363,2.717-2.044,4.618-2.044C167.353,299.105,168.282,299.332,169.183,299.785z M170.001,305.123
		c-0.092-0.99-0.307-1.782-0.642-2.374c-0.621-1.1-1.658-1.65-3.109-1.65c-1.041,0-1.914,0.379-2.619,1.136
		c-0.705,0.757-1.078,1.72-1.12,2.888H170.001z"/>
	<path d="M189.938,299.829c0.405,0.254,0.864,0.698,1.378,1.333v-6.868h2.196v18.713h-2.057v-1.892
		c-0.531,0.838-1.16,1.443-1.884,1.815c-0.726,0.373-1.556,0.559-2.492,0.559c-1.509,0-2.816-0.637-3.92-1.911
		s-1.657-2.969-1.657-5.084c0-1.98,0.503-3.696,1.511-5.148c1.007-1.452,2.447-2.177,4.319-2.177
		C188.37,299.169,189.238,299.389,189.938,299.829z M184.837,310.023c0.615,0.982,1.6,1.473,2.956,1.473
		c1.052,0,1.917-0.455,2.596-1.365c0.678-0.91,1.017-2.215,1.017-3.917c0-1.718-0.35-2.99-1.048-3.815
		c-0.699-0.825-1.562-1.238-2.589-1.238c-1.146,0-2.074,0.44-2.785,1.32c-0.712,0.88-1.067,2.175-1.067,3.885
		C183.915,307.823,184.222,309.042,184.837,310.023z"/>
	<path d="M205.326,299.785c0.9,0.453,1.585,1.039,2.057,1.758c0.454,0.686,0.757,1.485,0.908,2.399
		c0.135,0.626,0.202,1.625,0.202,2.996h-9.89c0.042,1.383,0.365,2.493,0.97,3.329c0.604,0.836,1.541,1.254,2.809,1.254
		c1.184,0,2.129-0.396,2.834-1.186c0.395-0.459,0.674-0.99,0.839-1.594h2.247c-0.059,0.5-0.256,1.056-0.59,1.669
		s-0.708,1.115-1.119,1.504c-0.689,0.677-1.542,1.134-2.558,1.371c-0.546,0.135-1.164,0.203-1.853,0.203
		c-1.682,0-3.107-0.616-4.277-1.847c-1.169-1.231-1.753-2.956-1.753-5.173c0-2.184,0.589-3.957,1.767-5.319
		c1.177-1.363,2.717-2.044,4.618-2.044C203.497,299.105,204.426,299.332,205.326,299.785z M206.145,305.123
		c-0.092-0.99-0.307-1.782-0.642-2.374c-0.621-1.1-1.658-1.65-3.109-1.65c-1.041,0-1.914,0.379-2.619,1.136
		c-0.705,0.757-1.078,1.72-1.12,2.888H206.145z"/>
	<path d="M219.068,295.614h2.311v3.796h2.171v1.866h-2.171v8.874c0,0.474,0.16,0.792,0.482,0.952c0.178,0.093,0.475,0.14,0.889,0.14
		c0.109,0,0.229-0.003,0.355-0.008s0.275-0.02,0.444-0.042v1.815c-0.263,0.076-0.535,0.131-0.819,0.165
		c-0.283,0.034-0.59,0.051-0.92,0.051c-1.066,0-1.79-0.273-2.171-0.819s-0.571-1.255-0.571-2.126v-9.001h-1.841v-1.866h1.841
		V295.614z"/>
	<path d="M225.898,299.41h2.171v2.349c0.178-0.457,0.614-1.014,1.308-1.669s1.494-0.984,2.399-0.984
		c0.042,0,0.114,0.004,0.216,0.013s0.275,0.025,0.521,0.051v2.412c-0.136-0.025-0.261-0.042-0.374-0.051
		c-0.115-0.008-0.24-0.013-0.375-0.013c-1.15,0-2.035,0.37-2.653,1.111s-0.927,1.593-0.927,2.558v7.82h-2.285V299.41z"/>
	<path d="M241.78,304.778c0.524-0.067,0.876-0.287,1.054-0.659c0.102-0.204,0.152-0.497,0.152-0.879c0-0.781-0.277-1.349-0.83-1.701
		s-1.346-0.529-2.375-0.529c-1.191,0-2.036,0.323-2.534,0.97c-0.278,0.357-0.46,0.889-0.545,1.595h-2.133
		c0.042-1.681,0.585-2.85,1.63-3.507c1.043-0.658,2.254-0.987,3.633-0.987c1.598,0,2.895,0.305,3.893,0.914
		c0.988,0.609,1.483,1.557,1.483,2.844v7.833c0,0.237,0.049,0.428,0.146,0.571c0.098,0.144,0.303,0.215,0.616,0.215
		c0.102,0,0.216-0.006,0.343-0.019s0.262-0.032,0.406-0.057v1.688c-0.355,0.102-0.627,0.165-0.812,0.19s-0.439,0.038-0.762,0.038
		c-0.787,0-1.358-0.279-1.714-0.838c-0.187-0.296-0.317-0.715-0.394-1.256c-0.465,0.609-1.135,1.138-2.006,1.586
		c-0.871,0.449-1.832,0.673-2.882,0.673c-1.261,0-2.292-0.383-3.091-1.147c-0.801-0.765-1.2-1.722-1.2-2.872
		c0-1.259,0.394-2.236,1.181-2.929c0.787-0.693,1.82-1.12,3.098-1.281L241.78,304.778z M236.969,310.952
		c0.482,0.38,1.054,0.57,1.714,0.57c0.804,0,1.583-0.186,2.336-0.558c1.27-0.617,1.904-1.626,1.904-3.029v-1.838
		c-0.278,0.178-0.638,0.327-1.077,0.446c-0.439,0.119-0.869,0.204-1.292,0.254l-1.382,0.177c-0.827,0.11-1.449,0.283-1.867,0.52
		c-0.706,0.397-1.06,1.03-1.06,1.9C236.245,310.052,236.486,310.571,236.969,310.952z"/>
	<path d="M248.953,299.41h2.171v1.93c0.644-0.795,1.325-1.367,2.044-1.714s1.52-0.521,2.399-0.521c1.93,0,3.233,0.673,3.91,2.019
		c0.372,0.736,0.559,1.79,0.559,3.161v8.722h-2.323v-8.569c0-0.83-0.123-1.498-0.368-2.006c-0.406-0.846-1.143-1.27-2.209-1.27
		c-0.542,0-0.985,0.055-1.333,0.165c-0.627,0.186-1.176,0.559-1.65,1.117c-0.381,0.449-0.629,0.912-0.742,1.39
		c-0.115,0.478-0.172,1.162-0.172,2.05v7.122h-2.285V299.41z"/>
	<path d="M271.082,299.956c0.424,0.305,0.829,0.753,1.218,1.346v-1.892h2.158v19.018h-2.285v-6.982
		c-0.38,0.609-0.907,1.094-1.579,1.454s-1.51,0.54-2.516,0.54c-1.445,0-2.739-0.567-3.881-1.701
		c-1.141-1.134-1.711-2.861-1.711-5.18c0-2.175,0.535-3.961,1.604-5.357c1.069-1.396,2.453-2.095,4.152-2.095
		C269.367,299.105,270.313,299.389,271.082,299.956z M265.367,309.351c0.583,1.414,1.627,2.12,3.131,2.12
		c1.588,0,2.682-0.745,3.282-2.234c0.329-0.821,0.494-1.871,0.494-3.148c0-1.176-0.182-2.158-0.545-2.945
		c-0.616-1.346-1.702-2.019-3.257-2.019c-0.988,0-1.836,0.43-2.541,1.289c-0.706,0.859-1.059,2.186-1.059,3.98
		C264.873,307.569,265.037,308.555,265.367,309.351z"/>
	<path d="M280.158,299.41v9.026c0,0.694,0.107,1.261,0.322,1.701c0.395,0.812,1.133,1.219,2.213,1.219
		c1.549,0,2.604-0.711,3.164-2.133c0.306-0.762,0.458-1.807,0.458-3.136v-6.678h2.285v13.597h-2.158l0.025-2.006
		c-0.291,0.516-0.652,0.952-1.085,1.308c-0.854,0.711-1.893,1.066-3.113,1.066c-1.902,0-3.197-0.647-3.887-1.942
		c-0.373-0.694-0.561-1.621-0.561-2.78v-9.242H280.158z"/>
	<path d="M292.333,294.357h2.323v2.59h-2.323V294.357z M292.333,299.474h2.323v13.533h-2.323V299.474z"/>
	<path d="M298.173,294.357h2.285v18.649h-2.285V294.357z"/>
	<path d="M303.886,294.357h2.323v2.59h-2.323V294.357z M303.886,299.474h2.323v13.533h-2.323V299.474z"/>
	<path d="M317.133,299.829c0.404,0.254,0.863,0.698,1.378,1.333v-6.868h2.196v18.713h-2.057v-1.892
		c-0.531,0.838-1.16,1.443-1.885,1.815s-1.555,0.559-2.491,0.559c-1.509,0-2.815-0.637-3.921-1.911
		c-1.104-1.274-1.656-2.969-1.656-5.084c0-1.98,0.504-3.696,1.512-5.148c1.007-1.452,2.446-2.177,4.318-2.177
		C315.564,299.169,316.433,299.389,317.133,299.829z M312.031,310.023c0.615,0.982,1.6,1.473,2.956,1.473
		c1.052,0,1.917-0.455,2.596-1.365c0.678-0.91,1.017-2.215,1.017-3.917c0-1.718-0.35-2.99-1.049-3.815s-1.562-1.238-2.589-1.238
		c-1.146,0-2.073,0.44-2.785,1.32s-1.067,2.175-1.067,3.885C311.109,307.823,311.416,309.042,312.031,310.023z"/>
	<path d="M331.409,304.778c0.524-0.067,0.876-0.287,1.054-0.659c0.102-0.204,0.152-0.497,0.152-0.879
		c0-0.781-0.277-1.349-0.83-1.701s-1.346-0.529-2.375-0.529c-1.191,0-2.036,0.323-2.534,0.97c-0.278,0.357-0.46,0.889-0.545,1.595
		h-2.133c0.042-1.681,0.585-2.85,1.63-3.507c1.043-0.658,2.254-0.987,3.633-0.987c1.598,0,2.895,0.305,3.893,0.914
		c0.988,0.609,1.483,1.557,1.483,2.844v7.833c0,0.237,0.049,0.428,0.146,0.571c0.098,0.144,0.303,0.215,0.616,0.215
		c0.102,0,0.216-0.006,0.343-0.019s0.262-0.032,0.406-0.057v1.688c-0.355,0.102-0.627,0.165-0.812,0.19s-0.439,0.038-0.762,0.038
		c-0.787,0-1.358-0.279-1.714-0.838c-0.187-0.296-0.317-0.715-0.394-1.256c-0.465,0.609-1.135,1.138-2.006,1.586
		c-0.871,0.449-1.832,0.673-2.882,0.673c-1.261,0-2.292-0.383-3.091-1.147c-0.801-0.765-1.2-1.722-1.2-2.872
		c0-1.259,0.394-2.236,1.181-2.929c0.787-0.693,1.82-1.12,3.098-1.281L331.409,304.778z M326.598,310.952
		c0.482,0.38,1.054,0.57,1.714,0.57c0.804,0,1.583-0.186,2.336-0.558c1.27-0.617,1.904-1.626,1.904-3.029v-1.838
		c-0.278,0.178-0.638,0.327-1.077,0.446c-0.439,0.119-0.869,0.204-1.292,0.254l-1.382,0.177c-0.827,0.11-1.449,0.283-1.867,0.52
		c-0.706,0.397-1.06,1.03-1.06,1.9C325.874,310.052,326.115,310.571,326.598,310.952z"/>
	<path d="M346.053,299.829c0.404,0.254,0.863,0.698,1.378,1.333v-6.868h2.196v18.713h-2.057v-1.892
		c-0.531,0.838-1.16,1.443-1.885,1.815s-1.555,0.559-2.491,0.559c-1.509,0-2.815-0.637-3.921-1.911
		c-1.104-1.274-1.656-2.969-1.656-5.084c0-1.98,0.504-3.696,1.512-5.148c1.007-1.452,2.446-2.177,4.318-2.177
		C344.484,299.169,345.353,299.389,346.053,299.829z M340.951,310.023c0.615,0.982,1.6,1.473,2.956,1.473
		c1.052,0,1.917-0.455,2.596-1.365c0.678-0.91,1.017-2.215,1.017-3.917c0-1.718-0.35-2.99-1.049-3.815s-1.562-1.238-2.589-1.238
		c-1.146,0-2.073,0.44-2.785,1.32s-1.067,2.175-1.067,3.885C340.029,307.823,340.336,309.042,340.951,310.023z"/>
	<path d="M353.588,310.239h2.653v2.768h-2.653V310.239z"/>
</g>
</svg>
