<?xml version="1.0" encoding="utf-8"?>
<!-- Generator: Adobe Illustrator 16.0.0, SVG Export Plug-In . SVG Version: 6.00 Build 0)  -->
<!DOCTYPE svg PUBLIC "-//W3C//DTD SVG 1.1//EN" "http://www.w3.org/Graphics/SVG/1.1/DTD/svg11.dtd">
<svg version="1.1" id="Layer_1" xmlns="http://www.w3.org/2000/svg" xmlns:xlink="http://www.w3.org/1999/xlink" x="0px" y="0px"
	 width="425.2px" height="425.2px" viewBox="0 0 425.2 425.2" enable-background="new 0 0 425.2 425.2" xml:space="preserve">
<g>
	<g>
		<path style="fill:rgba(255,255,255,0.8);" d="M212.601,423.7C96.199,423.7,1.5,329.001,1.5,212.6S96.199,1.5,212.601,1.5
			c116.4,0,211.1,94.699,211.1,211.1S329.001,423.7,212.601,423.7z"/>
		<path fill="#231F20" d="M212.601,3c28.297,0,55.746,5.542,81.584,16.47c24.959,10.557,47.375,25.67,66.625,44.92
			c19.25,19.25,34.363,41.666,44.92,66.625c10.93,25.839,16.471,53.288,16.471,81.585c0,28.297-5.541,55.747-16.471,81.585
			c-10.557,24.958-25.67,47.375-44.92,66.625c-19.25,19.25-41.666,34.364-66.625,44.92c-25.838,10.929-53.287,16.47-81.584,16.47
			s-55.746-5.542-81.585-16.47c-24.959-10.556-47.375-25.669-66.625-44.92c-19.25-19.25-34.364-41.666-44.921-66.625
			C8.541,268.347,3,240.897,3,212.6s5.541-55.746,16.47-81.585c10.557-24.958,25.671-47.375,44.921-66.625
			c19.25-19.25,41.666-34.364,66.625-44.92C156.854,8.542,184.304,3,212.601,3 M212.601,0C95.185,0,0,95.185,0,212.6
			c0,117.417,95.185,212.6,212.601,212.6c117.415,0,212.6-95.183,212.6-212.6C425.2,95.185,330.016,0,212.601,0L212.601,0z"/>
	</g>
	<g>
		
			<circle fill="none" stroke="#231F20" stroke-width="12.546" stroke-miterlimit="10" stroke-dasharray="2.942,5.884" cx="212.6" cy="212.6" r="196.651"/>
	</g>
</g>
<g>
	<path d="M41.835,135.657h2.526v16.428h9.356v2.222H41.835V135.657z"/>
	<path d="M63.277,146.078c0.524-0.067,0.876-0.287,1.054-0.659c0.102-0.204,0.152-0.497,0.152-0.879c0-0.781-0.277-1.349-0.83-1.701
		s-1.346-0.529-2.375-0.529c-1.191,0-2.036,0.323-2.534,0.97c-0.278,0.357-0.46,0.889-0.545,1.595h-2.133
		c0.042-1.681,0.585-2.85,1.63-3.507c1.043-0.658,2.254-0.987,3.633-0.987c1.598,0,2.895,0.305,3.893,0.914
		c0.988,0.609,1.483,1.557,1.483,2.844v7.833c0,0.237,0.049,0.428,0.146,0.571c0.098,0.144,0.303,0.215,0.616,0.215
		c0.102,0,0.216-0.006,0.343-0.019s0.262-0.032,0.406-0.057v1.688c-0.355,0.102-0.627,0.165-0.812,0.19s-0.439,0.038-0.762,0.038
		c-0.787,0-1.358-0.279-1.714-0.838c-0.187-0.296-0.317-0.715-0.394-1.256c-0.465,0.609-1.135,1.138-2.006,1.586
		c-0.871,0.449-1.832,0.673-2.882,0.673c-1.261,0-2.292-0.383-3.091-1.147c-0.801-0.765-1.2-1.722-1.2-2.872
		c0-1.259,0.394-2.236,1.181-2.929c0.787-0.693,1.82-1.12,3.098-1.281L63.277,146.078z M58.466,152.251
		c0.482,0.38,1.054,0.57,1.714,0.57c0.804,0,1.583-0.186,2.336-0.558c1.27-0.617,1.904-1.626,1.904-3.029v-1.838
		c-0.278,0.178-0.638,0.327-1.077,0.446c-0.439,0.119-0.869,0.204-1.292,0.254l-1.382,0.177c-0.827,0.11-1.449,0.283-1.867,0.52
		c-0.706,0.397-1.06,1.03-1.06,1.9C57.742,151.352,57.983,151.871,58.466,152.251z"/>
	<path d="M71.809,150.041c0.069,0.762,0.263,1.346,0.583,1.752c0.588,0.736,1.607,1.104,3.059,1.104
		c0.863,0,1.623-0.184,2.279-0.552c0.657-0.368,0.985-0.938,0.985-1.708c0-0.584-0.263-1.028-0.787-1.333
		c-0.335-0.186-0.997-0.402-1.987-0.647l-1.845-0.457c-1.179-0.288-2.047-0.609-2.606-0.965c-0.997-0.618-1.496-1.473-1.496-2.564
		c0-1.287,0.47-2.328,1.408-3.123c0.939-0.795,2.203-1.193,3.789-1.193c2.076,0,3.572,0.601,4.49,1.803
		c0.574,0.762,0.854,1.583,0.837,2.463h-2.158c-0.044-0.513-0.229-0.98-0.559-1.401c-0.538-0.598-1.469-0.896-2.794-0.896
		c-0.885,0-1.553,0.165-2.008,0.493c-0.455,0.329-0.683,0.764-0.683,1.303c0,0.59,0.299,1.062,0.896,1.417
		c0.345,0.211,0.854,0.397,1.526,0.558l1.539,0.368c1.673,0.398,2.794,0.783,3.363,1.155c0.889,0.584,1.333,1.502,1.333,2.755
		c0,1.21-0.465,2.255-1.395,3.136s-2.346,1.32-4.248,1.32c-2.048,0-3.498-0.459-4.351-1.377c-0.854-0.918-1.309-2.055-1.369-3.409
		H71.809z"/>
	<path d="M99.655,141.434c0.961,0.745,1.539,2.027,1.733,3.847h-2.222c-0.135-0.838-0.444-1.534-0.927-2.088
		s-1.257-0.832-2.323-0.832c-1.455,0-2.496,0.71-3.123,2.13c-0.406,0.921-0.609,2.058-0.609,3.411c0,1.361,0.287,2.506,0.863,3.437
		c0.576,0.93,1.48,1.395,2.717,1.395c0.947,0,1.699-0.289,2.254-0.866c0.554-0.578,0.938-1.368,1.148-2.371h2.222
		c-0.254,1.803-0.889,3.121-1.904,3.955s-2.315,1.25-3.897,1.25c-1.777,0-3.195-0.649-4.253-1.949s-1.587-2.922-1.587-4.869
		c0-2.387,0.58-4.245,1.739-5.573s2.636-1.993,4.431-1.993C97.448,140.316,98.695,140.689,99.655,141.434z"/>
	<path d="M110.961,146.078c0.524-0.067,0.876-0.287,1.054-0.659c0.102-0.204,0.152-0.497,0.152-0.879
		c0-0.781-0.277-1.349-0.83-1.701s-1.346-0.529-2.375-0.529c-1.191,0-2.036,0.323-2.534,0.97c-0.278,0.357-0.46,0.889-0.545,1.595
		h-2.133c0.042-1.681,0.585-2.85,1.63-3.507c1.043-0.658,2.254-0.987,3.633-0.987c1.598,0,2.895,0.305,3.893,0.914
		c0.988,0.609,1.483,1.557,1.483,2.844v7.833c0,0.237,0.049,0.428,0.146,0.571c0.098,0.144,0.303,0.215,0.616,0.215
		c0.102,0,0.216-0.006,0.343-0.019s0.262-0.032,0.406-0.057v1.688c-0.355,0.102-0.627,0.165-0.812,0.19s-0.439,0.038-0.762,0.038
		c-0.787,0-1.358-0.279-1.714-0.838c-0.187-0.296-0.317-0.715-0.394-1.256c-0.465,0.609-1.135,1.138-2.006,1.586
		c-0.871,0.449-1.832,0.673-2.882,0.673c-1.261,0-2.292-0.383-3.091-1.147c-0.801-0.765-1.2-1.722-1.2-2.872
		c0-1.259,0.394-2.236,1.181-2.929c0.787-0.693,1.82-1.12,3.098-1.281L110.961,146.078z M106.149,152.251
		c0.482,0.38,1.054,0.57,1.714,0.57c0.804,0,1.583-0.186,2.336-0.558c1.27-0.617,1.904-1.626,1.904-3.029v-1.838
		c-0.278,0.178-0.638,0.327-1.077,0.446c-0.439,0.119-0.869,0.204-1.292,0.254l-1.382,0.177c-0.827,0.11-1.449,0.283-1.867,0.52
		c-0.706,0.397-1.06,1.03-1.06,1.9C105.426,151.352,105.667,151.871,106.149,152.251z"/>
	<path d="M117.943,135.594h2.222v6.767c0.502-0.652,1.1-1.149,1.797-1.492s1.453-0.514,2.269-0.514c1.699,0,3.078,0.582,4.136,1.746
		c1.059,1.164,1.587,2.88,1.587,5.148c0,2.15-0.522,3.936-1.567,5.357s-2.494,2.133-4.346,2.133c-1.037,0-1.912-0.25-2.625-0.749
		c-0.426-0.296-0.88-0.77-1.364-1.422v1.739h-2.107V135.594z M126.681,151.247c0.616-0.982,0.924-2.277,0.924-3.885
		c0-1.43-0.308-2.615-0.924-3.555c-0.615-0.939-1.521-1.409-2.719-1.409c-1.045,0-1.96,0.385-2.746,1.155
		c-0.785,0.77-1.178,2.04-1.178,3.809c0,1.278,0.161,2.315,0.484,3.11c0.603,1.498,1.728,2.247,3.375,2.247
		C125.138,152.72,126.065,152.229,126.681,151.247z"/>
	<path d="M139.881,146.078c0.524-0.067,0.876-0.287,1.054-0.659c0.102-0.204,0.152-0.497,0.152-0.879
		c0-0.781-0.277-1.349-0.83-1.701s-1.346-0.529-2.375-0.529c-1.191,0-2.036,0.323-2.534,0.97c-0.278,0.357-0.46,0.889-0.545,1.595
		h-2.133c0.042-1.681,0.585-2.85,1.63-3.507c1.043-0.658,2.254-0.987,3.633-0.987c1.598,0,2.895,0.305,3.893,0.914
		c0.988,0.609,1.483,1.557,1.483,2.844v7.833c0,0.237,0.049,0.428,0.146,0.571c0.098,0.144,0.303,0.215,0.616,0.215
		c0.102,0,0.216-0.006,0.343-0.019s0.262-0.032,0.406-0.057v1.688c-0.355,0.102-0.627,0.165-0.812,0.19s-0.439,0.038-0.762,0.038
		c-0.787,0-1.358-0.279-1.714-0.838c-0.187-0.296-0.317-0.715-0.394-1.256c-0.465,0.609-1.135,1.138-2.006,1.586
		c-0.871,0.449-1.832,0.673-2.882,0.673c-1.261,0-2.292-0.383-3.091-1.147c-0.801-0.765-1.2-1.722-1.2-2.872
		c0-1.259,0.394-2.236,1.181-2.929c0.787-0.693,1.82-1.12,3.098-1.281L139.881,146.078z M135.069,152.251
		c0.482,0.38,1.054,0.57,1.714,0.57c0.804,0,1.583-0.186,2.336-0.558c1.27-0.617,1.904-1.626,1.904-3.029v-1.838
		c-0.278,0.178-0.638,0.327-1.077,0.446c-0.439,0.119-0.869,0.204-1.292,0.254l-1.382,0.177c-0.827,0.11-1.449,0.283-1.867,0.52
		c-0.706,0.397-1.06,1.03-1.06,1.9C134.346,151.352,134.587,151.871,135.069,152.251z"/>
	<path d="M147.054,140.71h2.171v1.93c0.644-0.795,1.325-1.367,2.044-1.714s1.52-0.521,2.399-0.521c1.93,0,3.233,0.673,3.91,2.019
		c0.372,0.736,0.559,1.79,0.559,3.161v8.722h-2.323v-8.569c0-0.83-0.123-1.498-0.368-2.006c-0.406-0.846-1.143-1.27-2.209-1.27
		c-0.542,0-0.985,0.055-1.333,0.165c-0.627,0.186-1.176,0.559-1.65,1.117c-0.381,0.449-0.629,0.912-0.742,1.39
		c-0.115,0.478-0.172,1.162-0.172,2.05v7.122h-2.285V140.71z M153.77,136.495c0.237,0.102,0.452,0.182,0.647,0.241
		s0.394,0.089,0.597,0.089c0.474,0,0.812-0.148,1.016-0.444c0.11-0.161,0.187-0.402,0.229-0.724h1.333
		c-0.178,1.075-0.519,1.815-1.021,2.222c-0.504,0.406-1.057,0.609-1.657,0.609c-0.187,0-0.423-0.034-0.711-0.102
		s-0.542-0.144-0.762-0.229l-0.673-0.241c-0.398-0.144-0.722-0.252-0.971-0.324c-0.25-0.072-0.494-0.108-0.73-0.108
		c-0.297,0-0.539,0.097-0.73,0.292c-0.189,0.195-0.318,0.491-0.387,0.889h-1.244c0.109-0.668,0.292-1.214,0.546-1.638
		c0.482-0.779,1.198-1.168,2.146-1.168c0.287,0,0.607,0.042,0.959,0.127C152.705,136.072,153.177,136.241,153.77,136.495z"/>
	<path d="M168.801,146.078c0.524-0.067,0.876-0.287,1.054-0.659c0.102-0.204,0.152-0.497,0.152-0.879
		c0-0.781-0.277-1.349-0.83-1.701s-1.346-0.529-2.375-0.529c-1.191,0-2.036,0.323-2.534,0.97c-0.278,0.357-0.46,0.889-0.545,1.595
		h-2.133c0.042-1.681,0.585-2.85,1.63-3.507c1.043-0.658,2.254-0.987,3.633-0.987c1.598,0,2.895,0.305,3.893,0.914
		c0.988,0.609,1.483,1.557,1.483,2.844v7.833c0,0.237,0.049,0.428,0.146,0.571c0.098,0.144,0.303,0.215,0.616,0.215
		c0.102,0,0.216-0.006,0.343-0.019s0.262-0.032,0.406-0.057v1.688c-0.355,0.102-0.627,0.165-0.812,0.19s-0.439,0.038-0.762,0.038
		c-0.787,0-1.358-0.279-1.714-0.838c-0.187-0.296-0.317-0.715-0.394-1.256c-0.465,0.609-1.135,1.138-2.006,1.586
		c-0.871,0.449-1.832,0.673-2.882,0.673c-1.261,0-2.292-0.383-3.091-1.147c-0.801-0.765-1.2-1.722-1.2-2.872
		c0-1.259,0.394-2.236,1.181-2.929c0.787-0.693,1.82-1.12,3.098-1.281L168.801,146.078z M163.989,152.251
		c0.482,0.38,1.054,0.57,1.714,0.57c0.804,0,1.583-0.186,2.336-0.558c1.27-0.617,1.904-1.626,1.904-3.029v-1.838
		c-0.278,0.178-0.638,0.327-1.077,0.446c-0.439,0.119-0.869,0.204-1.292,0.254l-1.382,0.177c-0.827,0.11-1.449,0.283-1.867,0.52
		c-0.706,0.397-1.06,1.03-1.06,1.9C163.266,151.352,163.507,151.871,163.989,152.251z"/>
	<path d="M177.332,150.041c0.069,0.762,0.263,1.346,0.583,1.752c0.588,0.736,1.607,1.104,3.059,1.104
		c0.863,0,1.623-0.184,2.279-0.552c0.657-0.368,0.985-0.938,0.985-1.708c0-0.584-0.263-1.028-0.787-1.333
		c-0.335-0.186-0.997-0.402-1.987-0.647l-1.845-0.457c-1.179-0.288-2.047-0.609-2.606-0.965c-0.997-0.618-1.496-1.473-1.496-2.564
		c0-1.287,0.47-2.328,1.408-3.123c0.939-0.795,2.203-1.193,3.789-1.193c2.076,0,3.572,0.601,4.49,1.803
		c0.574,0.762,0.854,1.583,0.837,2.463h-2.158c-0.044-0.513-0.229-0.98-0.559-1.401c-0.538-0.598-1.469-0.896-2.794-0.896
		c-0.885,0-1.553,0.165-2.008,0.493c-0.455,0.329-0.683,0.764-0.683,1.303c0,0.59,0.299,1.062,0.896,1.417
		c0.345,0.211,0.854,0.397,1.526,0.558l1.539,0.368c1.673,0.398,2.794,0.783,3.363,1.155c0.889,0.584,1.333,1.502,1.333,2.755
		c0,1.21-0.465,2.255-1.395,3.136s-2.346,1.32-4.248,1.32c-2.048,0-3.498-0.459-4.351-1.377c-0.854-0.918-1.309-2.055-1.369-3.409
		H177.332z"/>
	<path d="M204.596,141.084c0.899,0.453,1.585,1.039,2.057,1.758c0.454,0.686,0.757,1.485,0.908,2.399
		c0.135,0.626,0.202,1.625,0.202,2.996h-9.89c0.042,1.383,0.365,2.493,0.97,3.329c0.605,0.836,1.541,1.254,2.809,1.254
		c1.185,0,2.129-0.396,2.835-1.186c0.395-0.459,0.675-0.99,0.839-1.594h2.247c-0.06,0.5-0.256,1.056-0.591,1.669
		c-0.334,0.614-0.707,1.115-1.118,1.504c-0.688,0.677-1.542,1.134-2.558,1.371c-0.547,0.135-1.164,0.203-1.853,0.203
		c-1.683,0-3.107-0.616-4.276-1.847c-1.17-1.231-1.754-2.956-1.754-5.173c0-2.184,0.589-3.957,1.767-5.319
		c1.177-1.363,2.717-2.044,4.618-2.044C202.767,140.405,203.695,140.632,204.596,141.084z M205.414,146.423
		c-0.093-0.99-0.307-1.782-0.642-2.374c-0.621-1.1-1.658-1.65-3.109-1.65c-1.041,0-1.914,0.379-2.619,1.136s-1.078,1.72-1.12,2.888
		H205.414z"/>
	<path d="M212.016,150.041c0.069,0.762,0.263,1.346,0.583,1.752c0.588,0.736,1.607,1.104,3.059,1.104
		c0.863,0,1.623-0.184,2.279-0.552c0.657-0.368,0.985-0.938,0.985-1.708c0-0.584-0.263-1.028-0.787-1.333
		c-0.335-0.186-0.997-0.402-1.987-0.647l-1.845-0.457c-1.179-0.288-2.047-0.609-2.606-0.965c-0.997-0.618-1.496-1.473-1.496-2.564
		c0-1.287,0.47-2.328,1.408-3.123c0.939-0.795,2.203-1.193,3.789-1.193c2.076,0,3.572,0.601,4.49,1.803
		c0.574,0.762,0.854,1.583,0.837,2.463h-2.158c-0.044-0.513-0.229-0.98-0.559-1.401c-0.538-0.598-1.469-0.896-2.794-0.896
		c-0.885,0-1.553,0.165-2.008,0.493c-0.455,0.329-0.683,0.764-0.683,1.303c0,0.59,0.299,1.062,0.896,1.417
		c0.345,0.211,0.854,0.397,1.526,0.558l1.539,0.368c1.673,0.398,2.794,0.783,3.363,1.155c0.889,0.584,1.333,1.502,1.333,2.755
		c0,1.21-0.465,2.255-1.395,3.136s-2.346,1.32-4.248,1.32c-2.048,0-3.498-0.459-4.351-1.377c-0.854-0.918-1.309-2.055-1.369-3.409
		H212.016z"/>
	<path d="M224.114,136.914h2.311v3.796h2.171v1.866h-2.171v8.874c0,0.474,0.16,0.792,0.482,0.952c0.178,0.093,0.475,0.14,0.889,0.14
		c0.109,0,0.229-0.003,0.355-0.008s0.275-0.02,0.444-0.042v1.815c-0.263,0.076-0.535,0.131-0.819,0.165
		c-0.283,0.034-0.59,0.051-0.92,0.051c-1.066,0-1.79-0.273-2.171-0.819s-0.571-1.255-0.571-2.126v-9.001h-1.841v-1.866h1.841
		V136.914z"/>
	<path d="M238.168,146.078c0.524-0.067,0.876-0.287,1.054-0.659c0.102-0.204,0.152-0.497,0.152-0.879
		c0-0.781-0.277-1.349-0.83-1.701s-1.346-0.529-2.375-0.529c-1.191,0-2.036,0.323-2.534,0.97c-0.278,0.357-0.46,0.889-0.545,1.595
		h-2.133c0.042-1.681,0.585-2.85,1.63-3.507c1.043-0.658,2.254-0.987,3.633-0.987c1.598,0,2.895,0.305,3.893,0.914
		c0.988,0.609,1.483,1.557,1.483,2.844v7.833c0,0.237,0.049,0.428,0.146,0.571c0.098,0.144,0.303,0.215,0.616,0.215
		c0.102,0,0.216-0.006,0.343-0.019s0.262-0.032,0.406-0.057v1.688c-0.355,0.102-0.627,0.165-0.812,0.19s-0.439,0.038-0.762,0.038
		c-0.787,0-1.358-0.279-1.714-0.838c-0.187-0.296-0.317-0.715-0.394-1.256c-0.465,0.609-1.135,1.138-2.006,1.586
		c-0.871,0.449-1.832,0.673-2.882,0.673c-1.261,0-2.292-0.383-3.091-1.147c-0.801-0.765-1.2-1.722-1.2-2.872
		c0-1.259,0.394-2.236,1.181-2.929c0.787-0.693,1.82-1.12,3.098-1.281L238.168,146.078z M233.356,152.251
		c0.482,0.38,1.054,0.57,1.714,0.57c0.804,0,1.583-0.186,2.336-0.558c1.27-0.617,1.904-1.626,1.904-3.029v-1.838
		c-0.278,0.178-0.638,0.327-1.077,0.446c-0.439,0.119-0.869,0.204-1.292,0.254l-1.382,0.177c-0.827,0.11-1.449,0.283-1.867,0.52
		c-0.706,0.397-1.06,1.03-1.06,1.9C232.633,151.352,232.874,151.871,233.356,152.251z M239.133,135.238l-3.39,3.669h-1.752
		l2.323-3.669H239.133z"/>
	<path d="M245.341,140.71h2.171v1.93c0.644-0.795,1.325-1.367,2.044-1.714s1.52-0.521,2.399-0.521c1.93,0,3.233,0.673,3.91,2.019
		c0.372,0.736,0.559,1.79,0.559,3.161v8.722h-2.323v-8.569c0-0.83-0.123-1.498-0.368-2.006c-0.406-0.846-1.143-1.27-2.209-1.27
		c-0.542,0-0.985,0.055-1.333,0.165c-0.627,0.186-1.176,0.559-1.65,1.117c-0.381,0.449-0.629,0.912-0.742,1.39
		c-0.115,0.478-0.172,1.162-0.172,2.05v7.122h-2.285V140.71z"/>
	<path d="M275.423,141.084c0.9,0.453,1.586,1.039,2.057,1.758c0.454,0.686,0.757,1.485,0.908,2.399
		c0.135,0.626,0.202,1.625,0.202,2.996h-9.89c0.042,1.383,0.365,2.493,0.971,3.329c0.604,0.836,1.54,1.254,2.809,1.254
		c1.184,0,2.129-0.396,2.834-1.186c0.395-0.459,0.674-0.99,0.839-1.594h2.247c-0.059,0.5-0.256,1.056-0.59,1.669
		c-0.335,0.614-0.708,1.115-1.119,1.504c-0.689,0.677-1.541,1.134-2.558,1.371c-0.546,0.135-1.163,0.203-1.853,0.203
		c-1.682,0-3.107-0.616-4.277-1.847c-1.168-1.231-1.753-2.956-1.753-5.173c0-2.184,0.589-3.957,1.767-5.319s2.717-2.044,4.617-2.044
		C273.593,140.405,274.522,140.632,275.423,141.084z M276.241,146.423c-0.092-0.99-0.307-1.782-0.643-2.374
		c-0.621-1.1-1.657-1.65-3.109-1.65c-1.04,0-1.913,0.379-2.618,1.136c-0.704,0.757-1.078,1.72-1.12,2.888H276.241z"/>
	<path d="M289.153,141.256c0.424,0.305,0.829,0.753,1.218,1.346v-1.892h2.158v19.018h-2.285v-6.982
		c-0.38,0.609-0.907,1.094-1.579,1.454s-1.51,0.54-2.516,0.54c-1.445,0-2.739-0.567-3.881-1.701
		c-1.141-1.134-1.711-2.861-1.711-5.18c0-2.175,0.535-3.961,1.604-5.357c1.069-1.396,2.453-2.095,4.152-2.095
		C287.438,140.405,288.385,140.689,289.153,141.256z M283.438,150.65c0.583,1.414,1.627,2.12,3.131,2.12
		c1.588,0,2.682-0.745,3.282-2.234c0.329-0.821,0.494-1.871,0.494-3.148c0-1.176-0.182-2.158-0.545-2.945
		c-0.616-1.346-1.702-2.019-3.257-2.019c-0.988,0-1.836,0.43-2.541,1.289c-0.706,0.859-1.059,2.186-1.059,3.98
		C282.944,148.869,283.108,149.855,283.438,150.65z"/>
	<path d="M298.229,140.71v9.026c0,0.694,0.107,1.261,0.322,1.701c0.395,0.812,1.133,1.219,2.213,1.219
		c1.549,0,2.604-0.711,3.164-2.133c0.306-0.762,0.458-1.807,0.458-3.136v-6.678h2.285v13.597h-2.158l0.025-2.006
		c-0.291,0.516-0.652,0.952-1.085,1.308c-0.854,0.711-1.893,1.066-3.113,1.066c-1.902,0-3.197-0.647-3.887-1.942
		c-0.373-0.694-0.561-1.621-0.561-2.78v-9.242H298.229z"/>
	<path d="M310.404,135.657h2.323v2.59h-2.323V135.657z M310.404,140.773h2.323v13.533h-2.323V140.773z"/>
	<path d="M315.99,140.773h2.234v1.803c0.458-0.618,0.959-1.096,1.502-1.435c0.772-0.508,1.681-0.762,2.724-0.762
		c1.545,0,2.855,0.59,3.934,1.771c1.077,1.181,1.616,2.867,1.616,5.059c0,2.962-0.777,5.078-2.333,6.348
		c-0.984,0.804-2.133,1.206-3.44,1.206c-1.028,0-1.891-0.224-2.587-0.673c-0.408-0.254-0.863-0.69-1.364-1.308v6.944h-2.285V140.773
		z M324.588,151.431c0.709-0.893,1.063-2.228,1.063-4.005c0-1.083-0.157-2.014-0.471-2.793c-0.596-1.498-1.682-2.247-3.262-2.247
		c-1.588,0-2.676,0.792-3.262,2.374c-0.313,0.846-0.471,1.921-0.471,3.225c0,1.049,0.157,1.942,0.471,2.679
		c0.595,1.405,1.682,2.107,3.262,2.107C322.989,152.771,323.878,152.324,324.588,151.431z"/>
	<path d="M337.928,146.078c0.524-0.067,0.876-0.287,1.054-0.659c0.102-0.204,0.152-0.497,0.152-0.879
		c0-0.781-0.277-1.349-0.83-1.701s-1.346-0.529-2.375-0.529c-1.191,0-2.036,0.323-2.534,0.97c-0.278,0.357-0.46,0.889-0.545,1.595
		h-2.133c0.042-1.681,0.585-2.85,1.63-3.507c1.043-0.658,2.254-0.987,3.633-0.987c1.598,0,2.895,0.305,3.893,0.914
		c0.988,0.609,1.483,1.557,1.483,2.844v7.833c0,0.237,0.049,0.428,0.146,0.571c0.098,0.144,0.303,0.215,0.616,0.215
		c0.102,0,0.216-0.006,0.343-0.019s0.262-0.032,0.406-0.057v1.688c-0.355,0.102-0.627,0.165-0.812,0.19s-0.439,0.038-0.762,0.038
		c-0.787,0-1.358-0.279-1.714-0.838c-0.187-0.296-0.317-0.715-0.394-1.256c-0.465,0.609-1.135,1.138-2.006,1.586
		c-0.871,0.449-1.832,0.673-2.882,0.673c-1.261,0-2.292-0.383-3.091-1.147c-0.801-0.765-1.2-1.722-1.2-2.872
		c0-1.259,0.394-2.236,1.181-2.929c0.787-0.693,1.82-1.12,3.098-1.281L337.928,146.078z M333.116,152.251
		c0.482,0.38,1.054,0.57,1.714,0.57c0.804,0,1.583-0.186,2.336-0.558c1.27-0.617,1.904-1.626,1.904-3.029v-1.838
		c-0.278,0.178-0.638,0.327-1.077,0.446c-0.439,0.119-0.869,0.204-1.292,0.254l-1.382,0.177c-0.827,0.11-1.449,0.283-1.867,0.52
		c-0.706,0.397-1.06,1.03-1.06,1.9C332.393,151.352,332.634,151.871,333.116,152.251z"/>
	<path d="M352.571,141.129c0.404,0.254,0.863,0.698,1.378,1.333v-6.868h2.196v18.713h-2.057v-1.892
		c-0.531,0.838-1.16,1.443-1.885,1.815s-1.555,0.559-2.491,0.559c-1.509,0-2.815-0.637-3.921-1.911
		c-1.104-1.274-1.656-2.969-1.656-5.084c0-1.98,0.504-3.696,1.512-5.148c1.007-1.452,2.446-2.177,4.318-2.177
		C351.003,140.469,351.871,140.689,352.571,141.129z M347.47,151.323c0.615,0.982,1.6,1.473,2.956,1.473
		c1.052,0,1.917-0.455,2.596-1.365c0.678-0.91,1.017-2.215,1.017-3.917c0-1.718-0.35-2.99-1.049-3.815s-1.562-1.238-2.589-1.238
		c-1.146,0-2.073,0.44-2.785,1.32s-1.067,2.175-1.067,3.885C346.548,149.123,346.854,150.341,347.47,151.323z"/>
	<path d="M366.848,146.078c0.524-0.067,0.876-0.287,1.054-0.659c0.102-0.204,0.152-0.497,0.152-0.879
		c0-0.781-0.277-1.349-0.83-1.701s-1.346-0.529-2.375-0.529c-1.191,0-2.036,0.323-2.534,0.97c-0.278,0.357-0.46,0.889-0.545,1.595
		h-2.133c0.042-1.681,0.585-2.85,1.63-3.507c1.043-0.658,2.254-0.987,3.633-0.987c1.598,0,2.895,0.305,3.893,0.914
		c0.988,0.609,1.483,1.557,1.483,2.844v7.833c0,0.237,0.049,0.428,0.146,0.571c0.098,0.144,0.303,0.215,0.616,0.215
		c0.102,0,0.216-0.006,0.343-0.019s0.262-0.032,0.406-0.057v1.688c-0.355,0.102-0.627,0.165-0.812,0.19s-0.439,0.038-0.762,0.038
		c-0.787,0-1.358-0.279-1.714-0.838c-0.187-0.296-0.317-0.715-0.394-1.256c-0.465,0.609-1.135,1.138-2.006,1.586
		c-0.871,0.449-1.832,0.673-2.882,0.673c-1.261,0-2.292-0.383-3.091-1.147c-0.801-0.765-1.2-1.722-1.2-2.872
		c0-1.259,0.394-2.236,1.181-2.929c0.787-0.693,1.82-1.12,3.098-1.281L366.848,146.078z M362.036,152.251
		c0.482,0.38,1.054,0.57,1.714,0.57c0.804,0,1.583-0.186,2.336-0.558c1.27-0.617,1.904-1.626,1.904-3.029v-1.838
		c-0.278,0.178-0.638,0.327-1.077,0.446c-0.439,0.119-0.869,0.204-1.292,0.254l-1.382,0.177c-0.827,0.11-1.449,0.283-1.867,0.52
		c-0.706,0.397-1.06,1.03-1.06,1.9C361.312,151.352,361.554,151.871,362.036,152.251z"/>
	<path d="M375.379,150.041c0.069,0.762,0.263,1.346,0.583,1.752c0.588,0.736,1.607,1.104,3.059,1.104
		c0.863,0,1.623-0.184,2.279-0.552c0.657-0.368,0.985-0.938,0.985-1.708c0-0.584-0.263-1.028-0.787-1.333
		c-0.335-0.186-0.997-0.402-1.987-0.647l-1.845-0.457c-1.179-0.288-2.047-0.609-2.606-0.965c-0.997-0.618-1.496-1.473-1.496-2.564
		c0-1.287,0.47-2.328,1.408-3.123c0.939-0.795,2.203-1.193,3.789-1.193c2.076,0,3.572,0.601,4.49,1.803
		c0.574,0.762,0.854,1.583,0.837,2.463h-2.158c-0.044-0.513-0.229-0.98-0.559-1.401c-0.538-0.598-1.469-0.896-2.794-0.896
		c-0.885,0-1.553,0.165-2.008,0.493c-0.455,0.329-0.683,0.764-0.683,1.303c0,0.59,0.299,1.062,0.896,1.417
		c0.345,0.211,0.854,0.397,1.526,0.558l1.539,0.368c1.673,0.398,2.794,0.783,3.363,1.155c0.889,0.584,1.333,1.502,1.333,2.755
		c0,1.21-0.465,2.255-1.395,3.136s-2.346,1.32-4.248,1.32c-2.048,0-3.498-0.459-4.351-1.377c-0.854-0.918-1.309-2.055-1.369-3.409
		H375.379z"/>
	<path d="M99.675,172.634c0.961,0.745,1.538,2.027,1.732,3.847h-2.221c-0.136-0.838-0.445-1.534-0.928-2.088
		s-1.256-0.832-2.322-0.832c-1.456,0-2.497,0.71-3.123,2.13c-0.406,0.921-0.609,2.058-0.609,3.411c0,1.361,0.287,2.506,0.863,3.437
		c0.575,0.93,1.48,1.395,2.717,1.395c0.947,0,1.699-0.289,2.253-0.866s0.938-1.368,1.149-2.371h2.221
		c-0.254,1.803-0.889,3.121-1.904,3.955s-2.314,1.25-3.896,1.25c-1.777,0-3.195-0.649-4.254-1.949
		c-1.058-1.299-1.586-2.922-1.586-4.869c0-2.387,0.579-4.245,1.738-5.573c1.16-1.329,2.637-1.993,4.432-1.993
		C97.468,171.517,98.714,171.889,99.675,172.634z"/>
	<path d="M113.544,173.267c1.202,1.167,1.803,2.883,1.803,5.149c0,2.19-0.529,4-1.588,5.429s-2.702,2.144-4.93,2.144
		c-1.857,0-3.332-0.632-4.424-1.896c-1.094-1.264-1.639-2.962-1.639-5.093c0-2.283,0.575-4.102,1.727-5.455
		c1.151-1.353,2.697-2.029,4.639-2.029C110.872,171.517,112.343,172.1,113.544,173.267z M112.126,182.303
		c0.557-1.145,0.834-2.419,0.834-3.823c0-1.268-0.201-2.299-0.602-3.094c-0.637-1.251-1.732-1.877-3.289-1.877
		c-1.381,0-2.386,0.533-3.014,1.598c-0.627,1.065-0.941,2.35-0.941,3.855c0,1.445,0.314,2.65,0.941,3.614
		c0.628,0.963,1.624,1.445,2.988,1.445C110.542,184.021,111.569,183.449,112.126,182.303z"/>
	<path d="M118.153,171.91h2.17v1.93c0.644-0.795,1.325-1.367,2.045-1.714c0.719-0.347,1.519-0.521,2.398-0.521
		c1.93,0,3.233,0.673,3.91,2.019c0.373,0.736,0.559,1.79,0.559,3.161v8.722h-2.322v-8.569c0-0.83-0.123-1.498-0.369-2.006
		c-0.406-0.846-1.143-1.27-2.209-1.27c-0.541,0-0.985,0.055-1.332,0.165c-0.627,0.186-1.177,0.559-1.65,1.117
		c-0.381,0.449-0.629,0.912-0.743,1.39s-0.171,1.162-0.171,2.05v7.122h-2.285V171.91z"/>
	<path d="M140.294,168.114h2.311v3.796h2.17v1.866h-2.17v8.874c0,0.474,0.16,0.792,0.482,0.952c0.178,0.093,0.474,0.14,0.889,0.14
		c0.109,0,0.229-0.003,0.355-0.008s0.274-0.02,0.443-0.042v1.815c-0.262,0.076-0.535,0.131-0.818,0.165s-0.59,0.051-0.92,0.051
		c-1.066,0-1.791-0.273-2.172-0.819s-0.57-1.255-0.57-2.126v-9.001h-1.842v-1.866h1.842V168.114z"/>
	<path d="M156.911,173.267c1.202,1.167,1.803,2.883,1.803,5.149c0,2.19-0.529,4-1.588,5.429s-2.702,2.144-4.93,2.144
		c-1.857,0-3.332-0.632-4.424-1.896c-1.094-1.264-1.639-2.962-1.639-5.093c0-2.283,0.575-4.102,1.727-5.455
		c1.151-1.353,2.697-2.029,4.639-2.029C154.239,171.517,155.71,172.1,156.911,173.267z M155.493,182.303
		c0.557-1.145,0.834-2.419,0.834-3.823c0-1.268-0.201-2.299-0.602-3.094c-0.637-1.251-1.732-1.877-3.289-1.877
		c-1.381,0-2.386,0.533-3.014,1.598c-0.627,1.065-0.941,2.35-0.941,3.855c0,1.445,0.314,2.65,0.941,3.614
		c0.628,0.963,1.624,1.445,2.988,1.445C153.909,184.021,154.937,183.449,155.493,182.303z"/>
	<path d="M168.99,172.329c0.405,0.254,0.864,0.698,1.378,1.333v-6.868h2.197v18.713h-2.057v-1.892
		c-0.531,0.838-1.16,1.443-1.885,1.815c-0.726,0.373-1.556,0.559-2.492,0.559c-1.509,0-2.815-0.637-3.92-1.911
		s-1.656-2.969-1.656-5.084c0-1.98,0.503-3.696,1.511-5.148c1.007-1.452,2.446-2.177,4.319-2.177
		C167.423,171.669,168.29,171.889,168.99,172.329z M163.89,182.523c0.614,0.982,1.6,1.473,2.955,1.473
		c1.053,0,1.918-0.455,2.596-1.365s1.018-2.215,1.018-3.917c0-1.718-0.35-2.99-1.049-3.815s-1.562-1.238-2.59-1.238
		c-1.145,0-2.073,0.44-2.785,1.32c-0.711,0.88-1.066,2.175-1.066,3.885C162.968,180.323,163.274,181.542,163.89,182.523z"/>
	<path d="M185.831,173.267c1.202,1.167,1.803,2.883,1.803,5.149c0,2.19-0.529,4-1.588,5.429s-2.702,2.144-4.93,2.144
		c-1.857,0-3.332-0.632-4.424-1.896c-1.094-1.264-1.639-2.962-1.639-5.093c0-2.283,0.575-4.102,1.727-5.455
		c1.151-1.353,2.697-2.029,4.639-2.029C183.159,171.517,184.63,172.1,185.831,173.267z M184.413,182.303
		c0.557-1.145,0.834-2.419,0.834-3.823c0-1.268-0.201-2.299-0.602-3.094c-0.637-1.251-1.732-1.877-3.289-1.877
		c-1.381,0-2.386,0.533-3.014,1.598c-0.627,1.065-0.941,2.35-0.941,3.855c0,1.445,0.314,2.65,0.941,3.614
		c0.628,0.963,1.624,1.445,2.988,1.445C182.829,184.021,183.856,183.449,184.413,182.303z"/>
	<path d="M197.728,166.857h2.285v18.649h-2.285V166.857z"/>
	<path d="M213.292,173.267c1.201,1.167,1.803,2.883,1.803,5.149c0,2.19-0.53,4-1.589,5.429c-1.06,1.429-2.702,2.144-4.929,2.144
		c-1.857,0-3.332-0.632-4.426-1.896c-1.092-1.264-1.639-2.962-1.639-5.093c0-2.283,0.576-4.102,1.728-5.455
		c1.151-1.353,2.698-2.029,4.64-2.029C210.619,171.517,212.09,172.1,213.292,173.267z M211.872,182.303
		c0.557-1.145,0.836-2.419,0.836-3.823c0-1.268-0.201-2.299-0.604-3.094c-0.636-1.251-1.732-1.877-3.289-1.877
		c-1.381,0-2.385,0.533-3.012,1.598c-0.628,1.065-0.941,2.35-0.941,3.855c0,1.445,0.313,2.65,0.941,3.614
		c0.627,0.963,1.623,1.445,2.987,1.445C210.289,184.021,211.315,183.449,211.872,182.303z"/>
	<path d="M225.124,171.91h2.17v1.93c0.644-0.795,1.325-1.367,2.045-1.714c0.719-0.347,1.519-0.521,2.398-0.521
		c1.93,0,3.233,0.673,3.91,2.019c0.373,0.736,0.559,1.79,0.559,3.161v8.722h-2.322v-8.569c0-0.83-0.123-1.498-0.369-2.006
		c-0.406-0.846-1.143-1.27-2.209-1.27c-0.541,0-0.985,0.055-1.332,0.165c-0.627,0.186-1.177,0.559-1.65,1.117
		c-0.381,0.449-0.629,0.912-0.743,1.39s-0.171,1.162-0.171,2.05v7.122h-2.285V171.91z"/>
	<path d="M247.981,172.285c0.9,0.453,1.586,1.039,2.057,1.758c0.455,0.686,0.758,1.485,0.908,2.399
		c0.135,0.626,0.203,1.625,0.203,2.996h-9.891c0.043,1.383,0.365,2.493,0.971,3.329c0.604,0.836,1.541,1.254,2.809,1.254
		c1.184,0,2.129-0.396,2.834-1.186c0.395-0.459,0.675-0.99,0.84-1.594h2.246c-0.059,0.5-0.256,1.056-0.59,1.669
		s-0.707,1.115-1.119,1.504c-0.688,0.677-1.541,1.134-2.557,1.371c-0.547,0.135-1.164,0.203-1.854,0.203
		c-1.682,0-3.107-0.616-4.276-1.847s-1.753-2.956-1.753-5.173c0-2.184,0.588-3.957,1.766-5.319s2.717-2.044,4.618-2.044
		C246.152,171.605,247.081,171.832,247.981,172.285z M248.8,177.623c-0.092-0.99-0.307-1.782-0.642-2.374
		c-0.621-1.1-1.657-1.65-3.109-1.65c-1.04,0-1.913,0.379-2.618,1.136s-1.078,1.72-1.121,2.888H248.8z"/>
	<path d="M263.025,172.634c0.96,0.745,1.538,2.027,1.733,3.847h-2.223c-0.135-0.838-0.443-1.534-0.926-2.088
		s-1.258-0.832-2.324-0.832c-1.455,0-2.496,0.71-3.123,2.13c-0.406,0.921-0.609,2.058-0.609,3.411c0,1.361,0.288,2.506,0.863,3.437
		c0.576,0.93,1.481,1.395,2.717,1.395c0.948,0,1.699-0.289,2.254-0.866s0.938-1.368,1.148-2.371h2.223
		c-0.254,1.803-0.889,3.121-1.904,3.955s-2.315,1.25-3.898,1.25c-1.777,0-3.194-0.649-4.252-1.949
		c-1.059-1.299-1.588-2.922-1.588-4.869c0-2.387,0.58-4.245,1.74-5.573c1.159-1.329,2.636-1.993,4.43-1.993
		C260.818,171.517,262.065,171.889,263.025,172.634z"/>
	<path d="M275.442,172.285c0.899,0.453,1.585,1.039,2.057,1.758c0.453,0.686,0.756,1.485,0.908,2.399
		c0.135,0.626,0.201,1.625,0.201,2.996h-9.889c0.041,1.383,0.365,2.493,0.97,3.329s1.54,1.254,2.809,1.254
		c1.185,0,2.129-0.396,2.835-1.186c0.395-0.459,0.674-0.99,0.838-1.594h2.248c-0.06,0.5-0.256,1.056-0.591,1.669
		s-0.708,1.115-1.118,1.504c-0.689,0.677-1.542,1.134-2.559,1.371c-0.546,0.135-1.163,0.203-1.852,0.203
		c-1.683,0-3.107-0.616-4.277-1.847c-1.169-1.231-1.754-2.956-1.754-5.173c0-2.184,0.59-3.957,1.768-5.319
		c1.177-1.363,2.717-2.044,4.617-2.044C273.612,171.605,274.542,171.832,275.442,172.285z M276.261,177.623
		c-0.093-0.99-0.307-1.782-0.643-2.374c-0.621-1.1-1.658-1.65-3.109-1.65c-1.041,0-1.914,0.379-2.619,1.136
		c-0.704,0.757-1.078,1.72-1.119,2.888H276.261z"/>
	<path d="M282.862,181.241c0.068,0.762,0.263,1.346,0.582,1.752c0.588,0.736,1.607,1.104,3.059,1.104
		c0.863,0,1.623-0.184,2.28-0.552s0.985-0.938,0.985-1.708c0-0.584-0.263-1.028-0.787-1.333c-0.336-0.186-0.998-0.402-1.987-0.647
		l-1.845-0.457c-1.179-0.288-2.047-0.609-2.606-0.965c-0.997-0.618-1.497-1.473-1.497-2.564c0-1.287,0.471-2.328,1.409-3.123
		s2.202-1.193,3.789-1.193c2.075,0,3.572,0.601,4.489,1.803c0.575,0.762,0.854,1.583,0.838,2.463h-2.158
		c-0.044-0.513-0.23-0.98-0.559-1.401c-0.538-0.598-1.469-0.896-2.795-0.896c-0.884,0-1.553,0.165-2.008,0.493
		c-0.455,0.329-0.682,0.764-0.682,1.303c0,0.59,0.299,1.062,0.896,1.417c0.344,0.211,0.854,0.397,1.525,0.558l1.539,0.368
		c1.674,0.398,2.795,0.783,3.363,1.155c0.889,0.584,1.334,1.502,1.334,2.755c0,1.21-0.465,2.255-1.395,3.136s-2.346,1.32-4.248,1.32
		c-2.049,0-3.498-0.459-4.352-1.377c-0.853-0.918-1.309-2.055-1.369-3.409H282.862z"/>
	<path d="M301.79,177.278c0.525-0.067,0.877-0.287,1.055-0.659c0.102-0.204,0.152-0.497,0.152-0.879c0-0.781-0.277-1.349-0.83-1.701
		c-0.554-0.353-1.346-0.529-2.376-0.529c-1.19,0-2.036,0.323-2.534,0.97c-0.278,0.357-0.46,0.889-0.545,1.595h-2.133
		c0.043-1.681,0.586-2.85,1.63-3.507s2.255-0.987,3.633-0.987c1.598,0,2.896,0.305,3.894,0.914c0.988,0.609,1.482,1.557,1.482,2.844
		v7.833c0,0.237,0.049,0.428,0.146,0.571s0.303,0.215,0.615,0.215c0.102,0,0.217-0.006,0.344-0.019s0.262-0.032,0.406-0.057v1.688
		c-0.355,0.102-0.627,0.165-0.812,0.19c-0.187,0.025-0.44,0.038-0.762,0.038c-0.787,0-1.359-0.279-1.715-0.838
		c-0.186-0.296-0.316-0.715-0.393-1.256c-0.466,0.609-1.135,1.138-2.006,1.586c-0.872,0.449-1.833,0.673-2.883,0.673
		c-1.261,0-2.291-0.383-3.091-1.147c-0.8-0.765-1.2-1.722-1.2-2.872c0-1.259,0.395-2.236,1.182-2.929
		c0.787-0.693,1.819-1.12,3.098-1.281L301.79,177.278z M296.979,183.452c0.482,0.38,1.053,0.57,1.713,0.57
		c0.805,0,1.583-0.186,2.336-0.558c1.27-0.617,1.904-1.626,1.904-3.029v-1.838c-0.278,0.178-0.637,0.327-1.076,0.446
		c-0.439,0.119-0.87,0.204-1.293,0.254l-1.381,0.177c-0.828,0.11-1.45,0.283-1.867,0.52c-0.707,0.397-1.061,1.03-1.061,1.9
		C296.255,182.552,296.497,183.071,296.979,183.452z"/>
	<path d="M309.026,171.91h2.172v2.349c0.178-0.457,0.613-1.014,1.307-1.669c0.694-0.656,1.494-0.984,2.4-0.984
		c0.042,0,0.113,0.004,0.215,0.013s0.275,0.025,0.521,0.051v2.412c-0.136-0.025-0.261-0.042-0.375-0.051s-0.239-0.013-0.375-0.013
		c-1.15,0-2.035,0.37-2.652,1.111c-0.618,0.741-0.928,1.593-0.928,2.558v7.82h-2.285V171.91z"/>
	<path d="M317.622,166.857h2.322v2.59h-2.322V166.857z M317.622,171.974h2.322v13.533h-2.322V171.974z"/>
	<path d="M333.249,173.267c1.202,1.167,1.803,2.883,1.803,5.149c0,2.19-0.529,4-1.588,5.429s-2.702,2.144-4.93,2.144
		c-1.857,0-3.332-0.632-4.424-1.896c-1.094-1.264-1.639-2.962-1.639-5.093c0-2.283,0.575-4.102,1.727-5.455
		c1.151-1.353,2.697-2.029,4.639-2.029C330.577,171.517,332.048,172.1,333.249,173.267z M331.831,182.303
		c0.557-1.145,0.834-2.419,0.834-3.823c0-1.268-0.201-2.299-0.602-3.094c-0.637-1.251-1.732-1.877-3.289-1.877
		c-1.381,0-2.386,0.533-3.014,1.598c-0.627,1.065-0.941,2.35-0.941,3.855c0,1.445,0.314,2.65,0.941,3.614
		c0.628,0.963,1.624,1.445,2.988,1.445C330.247,184.021,331.274,183.449,331.831,182.303z"/>
	<path d="M61.589,203.173h2.234v1.803c0.458-0.618,0.959-1.096,1.502-1.435c0.771-0.508,1.68-0.762,2.724-0.762
		c1.544,0,2.855,0.59,3.933,1.771c1.078,1.181,1.617,2.867,1.617,5.059c0,2.962-0.777,5.078-2.332,6.348
		c-0.986,0.804-2.133,1.206-3.441,1.206c-1.028,0-1.891-0.224-2.588-0.673c-0.407-0.254-0.861-0.69-1.363-1.308v6.944h-2.285
		V203.173z M70.187,213.831c0.709-0.893,1.063-2.228,1.063-4.005c0-1.083-0.157-2.014-0.472-2.793
		c-0.594-1.498-1.682-2.247-3.261-2.247c-1.588,0-2.675,0.792-3.261,2.374c-0.314,0.846-0.472,1.921-0.472,3.225
		c0,1.049,0.157,1.942,0.472,2.679c0.594,1.405,1.682,2.107,3.261,2.107C68.587,215.17,69.478,214.724,70.187,213.831z"/>
	<path d="M83.526,208.478c0.525-0.067,0.876-0.287,1.054-0.659c0.102-0.204,0.152-0.497,0.152-0.879c0-0.781-0.276-1.349-0.83-1.701
		s-1.345-0.529-2.376-0.529c-1.19,0-2.035,0.323-2.533,0.97c-0.279,0.357-0.461,0.889-0.545,1.595h-2.133
		c0.043-1.681,0.586-2.85,1.629-3.507c1.045-0.658,2.256-0.987,3.633-0.987c1.598,0,2.896,0.305,3.894,0.914
		c0.989,0.609,1.483,1.557,1.483,2.844v7.833c0,0.237,0.049,0.428,0.146,0.571c0.097,0.144,0.303,0.215,0.615,0.215
		c0.102,0,0.216-0.006,0.343-0.019s0.263-0.032,0.406-0.057v1.688c-0.355,0.102-0.626,0.165-0.812,0.19s-0.44,0.038-0.762,0.038
		c-0.787,0-1.358-0.279-1.714-0.838c-0.186-0.296-0.317-0.715-0.394-1.256c-0.466,0.609-1.134,1.138-2.006,1.586
		c-0.872,0.449-1.833,0.673-2.882,0.673c-1.262,0-2.291-0.383-3.092-1.147c-0.799-0.765-1.199-1.722-1.199-2.872
		c0-1.259,0.394-2.236,1.181-2.929c0.787-0.693,1.819-1.12,3.098-1.281L83.526,208.478z M78.715,214.651
		c0.482,0.38,1.054,0.57,1.714,0.57c0.805,0,1.582-0.186,2.336-0.558c1.27-0.617,1.904-1.626,1.904-3.029v-1.838
		c-0.279,0.178-0.638,0.327-1.077,0.446c-0.438,0.119-0.87,0.204-1.292,0.254l-1.381,0.177c-0.828,0.11-1.451,0.283-1.867,0.52
		c-0.707,0.397-1.061,1.03-1.061,1.9C77.991,213.752,78.232,214.271,78.715,214.651z"/>
	<path d="M90.763,203.11h2.171v2.349c0.178-0.457,0.614-1.014,1.308-1.669s1.494-0.984,2.399-0.984c0.042,0,0.114,0.004,0.216,0.013
		s0.275,0.025,0.521,0.051v2.412c-0.136-0.025-0.261-0.042-0.374-0.051c-0.115-0.008-0.24-0.013-0.375-0.013
		c-1.15,0-2.035,0.37-2.653,1.111s-0.927,1.593-0.927,2.558v7.82h-2.285V203.11z"/>
	<path d="M106.645,208.478c0.524-0.067,0.876-0.287,1.054-0.659c0.102-0.204,0.152-0.497,0.152-0.879
		c0-0.781-0.277-1.349-0.83-1.701s-1.346-0.529-2.375-0.529c-1.191,0-2.036,0.323-2.534,0.97c-0.278,0.357-0.46,0.889-0.545,1.595
		h-2.133c0.042-1.681,0.585-2.85,1.63-3.507c1.043-0.658,2.254-0.987,3.633-0.987c1.598,0,2.895,0.305,3.893,0.914
		c0.988,0.609,1.483,1.557,1.483,2.844v7.833c0,0.237,0.049,0.428,0.146,0.571c0.098,0.144,0.303,0.215,0.616,0.215
		c0.102,0,0.216-0.006,0.343-0.019s0.262-0.032,0.406-0.057v1.688c-0.355,0.102-0.627,0.165-0.812,0.19s-0.439,0.038-0.762,0.038
		c-0.787,0-1.358-0.279-1.714-0.838c-0.187-0.296-0.317-0.715-0.394-1.256c-0.465,0.609-1.135,1.138-2.006,1.586
		c-0.871,0.449-1.832,0.673-2.882,0.673c-1.261,0-2.292-0.383-3.091-1.147c-0.801-0.765-1.2-1.722-1.2-2.872
		c0-1.259,0.394-2.236,1.181-2.929c0.787-0.693,1.82-1.12,3.098-1.281L106.645,208.478z M101.833,214.651
		c0.482,0.38,1.054,0.57,1.714,0.57c0.804,0,1.583-0.186,2.336-0.558c1.27-0.617,1.904-1.626,1.904-3.029v-1.838
		c-0.278,0.178-0.638,0.327-1.077,0.446c-0.439,0.119-0.869,0.204-1.292,0.254l-1.382,0.177c-0.827,0.11-1.449,0.283-1.867,0.52
		c-0.706,0.397-1.06,1.03-1.06,1.9C101.109,213.752,101.351,214.271,101.833,214.651z"/>
	<path d="M129.439,203.484c0.899,0.453,1.585,1.039,2.057,1.758c0.454,0.686,0.757,1.485,0.908,2.399
		c0.135,0.626,0.202,1.625,0.202,2.996h-9.89c0.042,1.383,0.365,2.493,0.97,3.329c0.605,0.836,1.541,1.254,2.809,1.254
		c1.185,0,2.129-0.396,2.835-1.186c0.395-0.459,0.675-0.99,0.839-1.594h2.247c-0.06,0.5-0.256,1.056-0.591,1.669
		c-0.334,0.614-0.707,1.115-1.118,1.504c-0.688,0.677-1.542,1.134-2.558,1.371c-0.547,0.135-1.164,0.203-1.853,0.203
		c-1.683,0-3.107-0.616-4.276-1.847c-1.17-1.231-1.754-2.956-1.754-5.173c0-2.184,0.589-3.957,1.767-5.319
		c1.177-1.363,2.717-2.044,4.618-2.044C127.61,202.805,128.539,203.032,129.439,203.484z M130.258,208.823
		c-0.093-0.99-0.307-1.782-0.642-2.374c-0.621-1.1-1.658-1.65-3.109-1.65c-1.041,0-1.914,0.379-2.619,1.136s-1.078,1.72-1.12,2.888
		H130.258z"/>
	<path d="M135.564,198.057h2.285v18.649h-2.285V198.057z"/>
	<path d="M155.972,203.529c0.404,0.254,0.863,0.698,1.378,1.333v-6.868h2.196v18.713h-2.057v-1.892
		c-0.531,0.838-1.16,1.443-1.885,1.815s-1.555,0.559-2.491,0.559c-1.509,0-2.815-0.637-3.921-1.911
		c-1.104-1.274-1.656-2.969-1.656-5.084c0-1.98,0.504-3.696,1.512-5.148c1.007-1.452,2.446-2.177,4.318-2.177
		C154.403,202.869,155.271,203.089,155.972,203.529z M150.87,213.723c0.615,0.982,1.6,1.473,2.956,1.473
		c1.052,0,1.917-0.455,2.596-1.365c0.678-0.91,1.017-2.215,1.017-3.917c0-1.718-0.35-2.99-1.049-3.815s-1.562-1.238-2.589-1.238
		c-1.146,0-2.073,0.44-2.785,1.32s-1.067,2.175-1.067,3.885C149.948,211.522,150.255,212.741,150.87,213.723z"/>
	<path d="M171.359,203.484c0.899,0.453,1.585,1.039,2.057,1.758c0.454,0.686,0.757,1.485,0.908,2.399
		c0.135,0.626,0.202,1.625,0.202,2.996h-9.89c0.042,1.383,0.365,2.493,0.97,3.329c0.605,0.836,1.541,1.254,2.809,1.254
		c1.185,0,2.129-0.396,2.835-1.186c0.395-0.459,0.675-0.99,0.839-1.594h2.247c-0.06,0.5-0.256,1.056-0.591,1.669
		c-0.334,0.614-0.707,1.115-1.118,1.504c-0.688,0.677-1.542,1.134-2.558,1.371c-0.547,0.135-1.164,0.203-1.853,0.203
		c-1.683,0-3.107-0.616-4.276-1.847c-1.17-1.231-1.754-2.956-1.754-5.173c0-2.184,0.589-3.957,1.767-5.319
		c1.177-1.363,2.717-2.044,4.618-2.044C169.53,202.805,170.459,203.032,171.359,203.484z M172.178,208.823
		c-0.093-0.99-0.307-1.782-0.642-2.374c-0.621-1.1-1.658-1.65-3.109-1.65c-1.041,0-1.914,0.379-2.619,1.136s-1.078,1.72-1.12,2.888
		H172.178z"/>
	<path d="M178.779,212.441c0.069,0.762,0.263,1.346,0.583,1.752c0.588,0.736,1.607,1.104,3.059,1.104
		c0.863,0,1.623-0.184,2.279-0.552c0.657-0.368,0.985-0.938,0.985-1.708c0-0.584-0.263-1.028-0.787-1.333
		c-0.335-0.186-0.997-0.402-1.987-0.647l-1.845-0.457c-1.179-0.288-2.047-0.609-2.606-0.965c-0.997-0.618-1.496-1.473-1.496-2.564
		c0-1.287,0.47-2.328,1.408-3.123c0.939-0.795,2.203-1.193,3.789-1.193c2.076,0,3.572,0.601,4.49,1.803
		c0.574,0.762,0.854,1.583,0.837,2.463h-2.158c-0.044-0.513-0.229-0.98-0.559-1.401c-0.538-0.598-1.469-0.896-2.794-0.896
		c-0.885,0-1.553,0.165-2.008,0.493c-0.455,0.329-0.683,0.764-0.683,1.303c0,0.59,0.299,1.062,0.896,1.417
		c0.345,0.211,0.854,0.397,1.526,0.558l1.539,0.368c1.673,0.398,2.794,0.783,3.363,1.155c0.889,0.584,1.333,1.502,1.333,2.755
		c0,1.21-0.465,2.255-1.395,3.136s-2.346,1.32-4.248,1.32c-2.048,0-3.498-0.459-4.351-1.377c-0.854-0.918-1.309-2.055-1.369-3.409
		H178.779z"/>
	<path d="M199.403,203.833c0.96,0.745,1.537,2.027,1.732,3.847h-2.222c-0.136-0.838-0.444-1.534-0.927-2.088
		s-1.257-0.832-2.323-0.832c-1.456,0-2.497,0.71-3.123,2.13c-0.406,0.921-0.609,2.058-0.609,3.411c0,1.361,0.288,2.506,0.863,3.437
		c0.575,0.93,1.481,1.395,2.717,1.395c0.948,0,1.699-0.289,2.253-0.866c0.555-0.578,0.938-1.368,1.149-2.371h2.222
		c-0.254,1.803-0.889,3.121-1.904,3.955s-2.314,1.25-3.897,1.25c-1.777,0-3.194-0.649-4.253-1.949s-1.587-2.922-1.587-4.869
		c0-2.387,0.579-4.245,1.739-5.573s2.637-1.993,4.431-1.993C197.196,202.716,198.442,203.089,199.403,203.833z"/>
	<path d="M210.708,208.478c0.525-0.067,0.876-0.287,1.054-0.659c0.102-0.204,0.152-0.497,0.152-0.879
		c0-0.781-0.276-1.349-0.83-1.701s-1.345-0.529-2.376-0.529c-1.19,0-2.035,0.323-2.533,0.97c-0.279,0.357-0.461,0.889-0.545,1.595
		h-2.133c0.043-1.681,0.586-2.85,1.629-3.507c1.045-0.658,2.256-0.987,3.633-0.987c1.598,0,2.896,0.305,3.894,0.914
		c0.989,0.609,1.483,1.557,1.483,2.844v7.833c0,0.237,0.049,0.428,0.146,0.571c0.097,0.144,0.303,0.215,0.615,0.215
		c0.102,0,0.216-0.006,0.343-0.019s0.263-0.032,0.406-0.057v1.688c-0.355,0.102-0.626,0.165-0.812,0.19s-0.44,0.038-0.762,0.038
		c-0.787,0-1.358-0.279-1.714-0.838c-0.186-0.296-0.317-0.715-0.394-1.256c-0.466,0.609-1.134,1.138-2.006,1.586
		c-0.872,0.449-1.833,0.673-2.882,0.673c-1.262,0-2.291-0.383-3.092-1.147c-0.799-0.765-1.199-1.722-1.199-2.872
		c0-1.259,0.394-2.236,1.181-2.929c0.787-0.693,1.819-1.12,3.098-1.281L210.708,208.478z M205.896,214.651
		c0.482,0.38,1.054,0.57,1.714,0.57c0.805,0,1.582-0.186,2.336-0.558c1.27-0.617,1.904-1.626,1.904-3.029v-1.838
		c-0.279,0.178-0.638,0.327-1.077,0.446c-0.438,0.119-0.87,0.204-1.292,0.254l-1.381,0.177c-0.828,0.11-1.451,0.283-1.867,0.52
		c-0.707,0.397-1.061,1.03-1.061,1.9C205.173,213.752,205.414,214.271,205.896,214.651z"/>
	<path d="M217.881,203.11h2.171v1.93c0.643-0.795,1.324-1.367,2.044-1.714s1.519-0.521,2.399-0.521c1.93,0,3.232,0.673,3.91,2.019
		c0.373,0.736,0.559,1.79,0.559,3.161v8.722h-2.323v-8.569c0-0.83-0.122-1.498-0.368-2.006c-0.406-0.846-1.143-1.27-2.209-1.27
		c-0.541,0-0.986,0.055-1.333,0.165c-0.626,0.186-1.177,0.559-1.65,1.117c-0.381,0.449-0.628,0.912-0.743,1.39
		c-0.113,0.478-0.171,1.162-0.171,2.05v7.122h-2.285V203.11z"/>
	<path d="M233.699,212.441c0.069,0.762,0.263,1.346,0.583,1.752c0.588,0.736,1.607,1.104,3.059,1.104
		c0.863,0,1.623-0.184,2.279-0.552c0.657-0.368,0.985-0.938,0.985-1.708c0-0.584-0.263-1.028-0.787-1.333
		c-0.335-0.186-0.997-0.402-1.987-0.647l-1.845-0.457c-1.179-0.288-2.047-0.609-2.606-0.965c-0.997-0.618-1.496-1.473-1.496-2.564
		c0-1.287,0.47-2.328,1.408-3.123c0.939-0.795,2.203-1.193,3.789-1.193c2.076,0,3.572,0.601,4.49,1.803
		c0.574,0.762,0.854,1.583,0.837,2.463h-2.158c-0.044-0.513-0.229-0.98-0.559-1.401c-0.538-0.598-1.469-0.896-2.794-0.896
		c-0.885,0-1.553,0.165-2.008,0.493c-0.455,0.329-0.683,0.764-0.683,1.303c0,0.59,0.299,1.062,0.896,1.417
		c0.345,0.211,0.854,0.397,1.526,0.558l1.539,0.368c1.673,0.398,2.794,0.783,3.363,1.155c0.889,0.584,1.333,1.502,1.333,2.755
		c0,1.21-0.465,2.255-1.395,3.136s-2.346,1.32-4.248,1.32c-2.048,0-3.498-0.459-4.351-1.377c-0.854-0.918-1.309-2.055-1.369-3.409
		H233.699z"/>
	<path d="M255.192,204.467c1.201,1.167,1.803,2.883,1.803,5.149c0,2.19-0.529,4-1.588,5.429c-1.06,1.429-2.703,2.144-4.93,2.144
		c-1.857,0-3.332-0.632-4.425-1.896s-1.639-2.962-1.639-5.093c0-2.283,0.575-4.102,1.728-5.455c1.15-1.353,2.697-2.029,4.639-2.029
		C252.521,202.716,253.991,203.3,255.192,204.467z M253.773,213.503c0.557-1.145,0.835-2.419,0.835-3.823
		c0-1.268-0.201-2.299-0.603-3.094c-0.636-1.251-1.732-1.877-3.289-1.877c-1.381,0-2.386,0.533-3.013,1.598
		c-0.627,1.065-0.941,2.35-0.941,3.855c0,1.445,0.314,2.65,0.941,3.614c0.627,0.963,1.623,1.445,2.988,1.445
		C252.19,215.221,253.217,214.648,253.773,213.503z"/>
	<path d="M260.283,219.373c0.584-0.102,0.995-0.515,1.231-1.237c0.127-0.383,0.19-0.753,0.19-1.11c0-0.06-0.002-0.113-0.007-0.159
		c-0.004-0.047-0.014-0.1-0.031-0.16h-1.384v-2.768H263v2.564c0,1.007-0.203,1.892-0.609,2.653s-1.108,1.231-2.107,1.409V219.373z"
		/>
	<path d="M283.229,203.833c0.961,0.745,1.539,2.027,1.733,3.847h-2.222c-0.135-0.838-0.444-1.534-0.927-2.088
		s-1.257-0.832-2.323-0.832c-1.455,0-2.496,0.71-3.123,2.13c-0.406,0.921-0.609,2.058-0.609,3.411c0,1.361,0.287,2.506,0.863,3.437
		c0.576,0.93,1.48,1.395,2.717,1.395c0.947,0,1.699-0.289,2.254-0.866c0.554-0.578,0.938-1.368,1.148-2.371h2.222
		c-0.254,1.803-0.889,3.121-1.904,3.955s-2.315,1.25-3.897,1.25c-1.777,0-3.195-0.649-4.253-1.949s-1.587-2.922-1.587-4.869
		c0-2.387,0.58-4.245,1.739-5.573s2.636-1.993,4.431-1.993C281.022,202.716,282.27,203.089,283.229,203.833z"/>
	<path d="M289.533,203.11v9.026c0,0.694,0.106,1.261,0.321,1.701c0.396,0.812,1.133,1.219,2.213,1.219
		c1.55,0,2.605-0.711,3.166-2.133c0.305-0.762,0.457-1.807,0.457-3.136v-6.678h2.285v13.597h-2.158l0.025-2.006
		c-0.291,0.516-0.652,0.952-1.084,1.308c-0.855,0.711-1.894,1.066-3.114,1.066c-1.901,0-3.198-0.647-3.887-1.942
		c-0.374-0.694-0.561-1.621-0.561-2.78v-9.242H289.533z"/>
	<path d="M310.106,203.484c0.9,0.453,1.586,1.039,2.057,1.758c0.454,0.686,0.757,1.485,0.908,2.399
		c0.135,0.626,0.202,1.625,0.202,2.996h-9.89c0.042,1.383,0.365,2.493,0.971,3.329c0.604,0.836,1.54,1.254,2.809,1.254
		c1.184,0,2.129-0.396,2.834-1.186c0.395-0.459,0.674-0.99,0.839-1.594h2.247c-0.059,0.5-0.256,1.056-0.59,1.669
		c-0.335,0.614-0.708,1.115-1.119,1.504c-0.689,0.677-1.541,1.134-2.558,1.371c-0.546,0.135-1.163,0.203-1.853,0.203
		c-1.682,0-3.107-0.616-4.277-1.847c-1.168-1.231-1.753-2.956-1.753-5.173c0-2.184,0.589-3.957,1.767-5.319s2.717-2.044,4.617-2.044
		C308.276,202.805,309.206,203.032,310.106,203.484z M310.925,208.823c-0.092-0.99-0.307-1.782-0.643-2.374
		c-0.621-1.1-1.657-1.65-3.109-1.65c-1.04,0-1.913,0.379-2.618,1.136c-0.704,0.757-1.078,1.72-1.12,2.888H310.925z"/>
	<path d="M316.168,203.11h2.171v1.93c0.643-0.795,1.324-1.367,2.044-1.714s1.519-0.521,2.399-0.521c1.93,0,3.232,0.673,3.91,2.019
		c0.373,0.736,0.559,1.79,0.559,3.161v8.722h-2.323v-8.569c0-0.83-0.122-1.498-0.368-2.006c-0.406-0.846-1.143-1.27-2.209-1.27
		c-0.541,0-0.986,0.055-1.333,0.165c-0.626,0.186-1.177,0.559-1.65,1.117c-0.381,0.449-0.628,0.912-0.743,1.39
		c-0.113,0.478-0.171,1.162-0.171,2.05v7.122h-2.285V203.11z"/>
	<path d="M331.085,199.314h2.311v3.796h2.171v1.866h-2.171v8.874c0,0.474,0.16,0.792,0.482,0.952c0.178,0.093,0.475,0.14,0.889,0.14
		c0.109,0,0.229-0.003,0.355-0.008s0.275-0.02,0.444-0.042v1.815c-0.263,0.076-0.535,0.131-0.819,0.165
		c-0.283,0.034-0.59,0.051-0.92,0.051c-1.066,0-1.79-0.273-2.171-0.819s-0.571-1.255-0.571-2.126v-9.001h-1.841v-1.866h1.841
		V199.314z"/>
	<path d="M345.139,208.478c0.524-0.067,0.876-0.287,1.054-0.659c0.102-0.204,0.152-0.497,0.152-0.879
		c0-0.781-0.277-1.349-0.83-1.701s-1.346-0.529-2.375-0.529c-1.191,0-2.036,0.323-2.534,0.97c-0.278,0.357-0.46,0.889-0.545,1.595
		h-2.133c0.042-1.681,0.585-2.85,1.63-3.507c1.043-0.658,2.254-0.987,3.633-0.987c1.598,0,2.895,0.305,3.893,0.914
		c0.988,0.609,1.483,1.557,1.483,2.844v7.833c0,0.237,0.049,0.428,0.146,0.571c0.098,0.144,0.303,0.215,0.616,0.215
		c0.102,0,0.216-0.006,0.343-0.019s0.262-0.032,0.406-0.057v1.688c-0.355,0.102-0.627,0.165-0.812,0.19s-0.439,0.038-0.762,0.038
		c-0.787,0-1.358-0.279-1.714-0.838c-0.187-0.296-0.317-0.715-0.394-1.256c-0.465,0.609-1.135,1.138-2.006,1.586
		c-0.871,0.449-1.832,0.673-2.882,0.673c-1.261,0-2.292-0.383-3.091-1.147c-0.801-0.765-1.2-1.722-1.2-2.872
		c0-1.259,0.394-2.236,1.181-2.929c0.787-0.693,1.82-1.12,3.098-1.281L345.139,208.478z M340.327,214.651
		c0.482,0.38,1.054,0.57,1.714,0.57c0.804,0,1.583-0.186,2.336-0.558c1.27-0.617,1.904-1.626,1.904-3.029v-1.838
		c-0.278,0.178-0.638,0.327-1.077,0.446c-0.439,0.119-0.869,0.204-1.292,0.254l-1.382,0.177c-0.827,0.11-1.449,0.283-1.867,0.52
		c-0.706,0.397-1.06,1.03-1.06,1.9C339.604,213.752,339.845,214.271,340.327,214.651z"/>
	<path d="M352.312,203.11h2.171v1.93c0.644-0.795,1.325-1.367,2.044-1.714s1.52-0.521,2.399-0.521c1.93,0,3.233,0.673,3.91,2.019
		c0.372,0.736,0.559,1.79,0.559,3.161v8.722h-2.323v-8.569c0-0.83-0.123-1.498-0.368-2.006c-0.406-0.846-1.143-1.27-2.209-1.27
		c-0.542,0-0.985,0.055-1.333,0.165c-0.627,0.186-1.176,0.559-1.65,1.117c-0.381,0.449-0.629,0.912-0.742,1.39
		c-0.115,0.478-0.172,1.162-0.172,2.05v7.122h-2.285V203.11z"/>
	<path d="M61.417,235.034c0.961,0.745,1.539,2.027,1.733,3.847h-2.222c-0.135-0.838-0.444-1.534-0.927-2.088
		s-1.257-0.832-2.323-0.832c-1.455,0-2.496,0.71-3.123,2.13c-0.406,0.921-0.609,2.058-0.609,3.411c0,1.361,0.287,2.506,0.863,3.437
		c0.576,0.93,1.48,1.395,2.717,1.395c0.947,0,1.699-0.289,2.254-0.866c0.554-0.578,0.938-1.368,1.148-2.371h2.222
		c-0.254,1.803-0.889,3.121-1.904,3.955s-2.315,1.25-3.897,1.25c-1.777,0-3.195-0.649-4.253-1.949s-1.587-2.922-1.587-4.869
		c0-2.387,0.58-4.245,1.739-5.573s2.636-1.993,4.431-1.993C59.21,233.917,60.457,234.289,61.417,235.034z"/>
	<path d="M75.287,235.667c1.202,1.167,1.803,2.883,1.803,5.149c0,2.19-0.53,4-1.589,5.429s-2.701,2.144-4.929,2.144
		c-1.857,0-3.332-0.632-4.425-1.896s-1.639-2.962-1.639-5.093c0-2.283,0.576-4.102,1.727-5.455c1.152-1.353,2.698-2.029,4.64-2.029
		C72.614,233.917,74.085,234.5,75.287,235.667z M73.868,244.703c0.557-1.145,0.835-2.419,0.835-3.823
		c0-1.268-0.201-2.299-0.603-3.094c-0.637-1.251-1.732-1.877-3.289-1.877c-1.381,0-2.385,0.533-3.013,1.598
		c-0.628,1.065-0.941,2.35-0.941,3.855c0,1.445,0.313,2.65,0.941,3.614c0.628,0.963,1.624,1.445,2.987,1.445
		C72.284,246.421,73.312,245.849,73.868,244.703z"/>
	<path d="M79.896,234.31h2.171v1.93c0.644-0.795,1.325-1.367,2.044-1.714s1.52-0.521,2.399-0.521c1.93,0,3.233,0.673,3.91,2.019
		c0.372,0.736,0.559,1.79,0.559,3.161v8.722h-2.323v-8.569c0-0.83-0.123-1.498-0.368-2.006c-0.406-0.846-1.143-1.27-2.209-1.27
		c-0.542,0-0.985,0.055-1.333,0.165c-0.627,0.186-1.176,0.559-1.65,1.117c-0.381,0.449-0.629,0.912-0.742,1.39
		c-0.115,0.478-0.172,1.162-0.172,2.05v7.122h-2.285V234.31z"/>
	<path d="M101.687,243.819c0.563-1.16,1.662-2.213,3.295-3.161l2.438-1.409c1.092-0.635,1.857-1.177,2.298-1.626
		c0.694-0.704,1.041-1.509,1.041-2.417c0-1.06-0.317-1.902-0.952-2.525c-0.635-0.624-1.48-0.935-2.539-0.935
		c-1.566,0-2.648,0.594-3.25,1.783c-0.322,0.637-0.5,1.519-0.533,2.648h-2.323c0.025-1.583,0.317-2.874,0.876-3.872
		c0.99-1.76,2.738-2.641,5.243-2.641c2.082,0,3.604,0.563,4.563,1.688c0.961,1.125,1.441,2.378,1.441,3.758
		c0,1.456-0.512,2.7-1.536,3.732c-0.593,0.601-1.655,1.329-3.187,2.184l-1.739,0.965c-0.829,0.457-1.481,0.893-1.955,1.308
		c-0.847,0.736-1.38,1.553-1.6,2.45h9.928v2.158h-12.479C100.8,246.341,101.124,244.979,101.687,243.819z"/>
	<path d="M132.245,235.034c0.96,0.745,1.537,2.027,1.732,3.847h-2.222c-0.136-0.838-0.444-1.534-0.927-2.088
		s-1.257-0.832-2.323-0.832c-1.456,0-2.497,0.71-3.123,2.13c-0.406,0.921-0.609,2.058-0.609,3.411c0,1.361,0.288,2.506,0.863,3.437
		c0.575,0.93,1.481,1.395,2.717,1.395c0.948,0,1.699-0.289,2.253-0.866c0.555-0.578,0.938-1.368,1.149-2.371h2.222
		c-0.254,1.803-0.889,3.121-1.904,3.955s-2.314,1.25-3.897,1.25c-1.777,0-3.194-0.649-4.253-1.949s-1.587-2.922-1.587-4.869
		c0-2.387,0.579-4.245,1.739-5.573s2.637-1.993,4.431-1.993C130.038,233.917,131.284,234.289,132.245,235.034z"/>
	<path d="M143.55,239.678c0.525-0.067,0.876-0.287,1.054-0.659c0.102-0.204,0.152-0.497,0.152-0.879c0-0.781-0.276-1.349-0.83-1.701
		s-1.345-0.529-2.376-0.529c-1.19,0-2.035,0.323-2.533,0.97c-0.279,0.357-0.461,0.889-0.545,1.595h-2.133
		c0.043-1.681,0.586-2.85,1.629-3.507c1.045-0.658,2.256-0.987,3.633-0.987c1.598,0,2.896,0.305,3.894,0.914
		c0.989,0.609,1.483,1.557,1.483,2.844v7.833c0,0.237,0.049,0.428,0.146,0.571c0.097,0.144,0.303,0.215,0.615,0.215
		c0.102,0,0.216-0.006,0.343-0.019s0.263-0.032,0.406-0.057v1.688c-0.355,0.102-0.626,0.165-0.812,0.19s-0.44,0.038-0.762,0.038
		c-0.787,0-1.358-0.279-1.714-0.838c-0.186-0.296-0.317-0.715-0.394-1.256c-0.466,0.609-1.134,1.138-2.006,1.586
		c-0.872,0.449-1.833,0.673-2.882,0.673c-1.262,0-2.291-0.383-3.092-1.147c-0.799-0.765-1.199-1.722-1.199-2.872
		c0-1.259,0.394-2.236,1.181-2.929c0.787-0.693,1.819-1.12,3.098-1.281L143.55,239.678z M138.738,245.852
		c0.482,0.38,1.054,0.57,1.714,0.57c0.805,0,1.582-0.186,2.336-0.558c1.27-0.617,1.904-1.626,1.904-3.029v-1.838
		c-0.279,0.178-0.638,0.327-1.077,0.446c-0.438,0.119-0.87,0.204-1.292,0.254l-1.381,0.177c-0.828,0.11-1.451,0.283-1.867,0.52
		c-0.707,0.397-1.061,1.03-1.061,1.9C138.015,244.952,138.256,245.471,138.738,245.852z"/>
	<path d="M150.723,234.31h2.26v1.93c0.542-0.668,1.032-1.155,1.473-1.46c0.753-0.516,1.608-0.774,2.564-0.774
		c1.083,0,1.955,0.267,2.615,0.8c0.372,0.305,0.711,0.753,1.016,1.346c0.508-0.728,1.104-1.268,1.79-1.619s1.455-0.527,2.311-0.527
		c1.828,0,3.072,0.66,3.732,1.98c0.355,0.711,0.533,1.667,0.533,2.869v9.052h-2.374v-9.445c0-0.906-0.227-1.528-0.679-1.866
		c-0.453-0.338-1.006-0.508-1.657-0.508c-0.897,0-1.669,0.3-2.317,0.901c-0.646,0.601-0.971,1.604-0.971,3.009v7.909h-2.323v-8.874
		c0-0.922-0.11-1.595-0.33-2.019c-0.347-0.635-0.995-0.952-1.942-0.952c-0.863,0-1.648,0.334-2.355,1.003
		c-0.706,0.668-1.06,1.879-1.06,3.631v7.211h-2.285V234.31z"/>
	<path d="M179.668,239.678c0.524-0.067,0.876-0.287,1.054-0.659c0.102-0.204,0.152-0.497,0.152-0.879
		c0-0.781-0.277-1.349-0.83-1.701s-1.346-0.529-2.375-0.529c-1.191,0-2.036,0.323-2.534,0.97c-0.278,0.357-0.46,0.889-0.545,1.595
		h-2.133c0.042-1.681,0.585-2.85,1.63-3.507c1.043-0.658,2.254-0.987,3.633-0.987c1.598,0,2.895,0.305,3.893,0.914
		c0.988,0.609,1.483,1.557,1.483,2.844v7.833c0,0.237,0.049,0.428,0.146,0.571c0.098,0.144,0.303,0.215,0.616,0.215
		c0.102,0,0.216-0.006,0.343-0.019s0.262-0.032,0.406-0.057v1.688c-0.355,0.102-0.627,0.165-0.812,0.19s-0.439,0.038-0.762,0.038
		c-0.787,0-1.358-0.279-1.714-0.838c-0.187-0.296-0.317-0.715-0.394-1.256c-0.465,0.609-1.135,1.138-2.006,1.586
		c-0.871,0.449-1.832,0.673-2.882,0.673c-1.261,0-2.292-0.383-3.091-1.147c-0.801-0.765-1.2-1.722-1.2-2.872
		c0-1.259,0.394-2.236,1.181-2.929c0.787-0.693,1.82-1.12,3.098-1.281L179.668,239.678z M174.856,245.852
		c0.482,0.38,1.054,0.57,1.714,0.57c0.804,0,1.583-0.186,2.336-0.558c1.27-0.617,1.904-1.626,1.904-3.029v-1.838
		c-0.278,0.178-0.638,0.327-1.077,0.446c-0.439,0.119-0.869,0.204-1.292,0.254l-1.382,0.177c-0.827,0.11-1.449,0.283-1.867,0.52
		c-0.706,0.397-1.06,1.03-1.06,1.9C174.133,244.952,174.374,245.471,174.856,245.852z"/>
	<path d="M188.199,243.641c0.069,0.762,0.263,1.346,0.583,1.752c0.588,0.736,1.607,1.104,3.059,1.104
		c0.863,0,1.623-0.184,2.279-0.552c0.657-0.368,0.985-0.938,0.985-1.708c0-0.584-0.263-1.028-0.787-1.333
		c-0.335-0.186-0.997-0.402-1.987-0.647l-1.845-0.457c-1.179-0.288-2.047-0.609-2.606-0.965c-0.997-0.618-1.496-1.473-1.496-2.564
		c0-1.287,0.47-2.328,1.408-3.123c0.939-0.795,2.203-1.193,3.789-1.193c2.076,0,3.572,0.601,4.49,1.803
		c0.574,0.762,0.854,1.583,0.837,2.463h-2.158c-0.044-0.513-0.229-0.98-0.559-1.401c-0.538-0.598-1.469-0.896-2.794-0.896
		c-0.885,0-1.553,0.165-2.008,0.493c-0.455,0.329-0.683,0.764-0.683,1.303c0,0.59,0.299,1.062,0.896,1.417
		c0.345,0.211,0.854,0.397,1.526,0.558l1.539,0.368c1.673,0.398,2.794,0.783,3.363,1.155c0.889,0.584,1.333,1.502,1.333,2.755
		c0,1.21-0.465,2.255-1.395,3.136s-2.346,1.32-4.248,1.32c-2.048,0-3.498-0.459-4.351-1.377c-0.854-0.918-1.309-2.055-1.369-3.409
		H188.199z"/>
	<path d="M207.064,234.31h2.26v1.93c0.542-0.668,1.032-1.155,1.473-1.46c0.753-0.516,1.608-0.774,2.564-0.774
		c1.083,0,1.955,0.267,2.615,0.8c0.372,0.305,0.711,0.753,1.016,1.346c0.508-0.728,1.104-1.268,1.79-1.619s1.455-0.527,2.311-0.527
		c1.828,0,3.072,0.66,3.732,1.98c0.355,0.711,0.533,1.667,0.533,2.869v9.052h-2.374v-9.445c0-0.906-0.227-1.528-0.679-1.866
		c-0.453-0.338-1.006-0.508-1.657-0.508c-0.897,0-1.669,0.3-2.317,0.901c-0.646,0.601-0.971,1.604-0.971,3.009v7.909h-2.323v-8.874
		c0-0.922-0.11-1.595-0.33-2.019c-0.347-0.635-0.995-0.952-1.942-0.952c-0.863,0-1.648,0.334-2.355,1.003
		c-0.706,0.668-1.06,1.879-1.06,3.631v7.211h-2.285V234.31z"/>
	<path d="M236.01,239.678c0.524-0.067,0.876-0.287,1.054-0.659c0.102-0.204,0.152-0.497,0.152-0.879c0-0.781-0.277-1.349-0.83-1.701
		s-1.346-0.529-2.375-0.529c-1.191,0-2.036,0.323-2.534,0.97c-0.278,0.357-0.46,0.889-0.545,1.595h-2.133
		c0.042-1.681,0.585-2.85,1.63-3.507c1.043-0.658,2.254-0.987,3.633-0.987c1.598,0,2.895,0.305,3.893,0.914
		c0.988,0.609,1.483,1.557,1.483,2.844v7.833c0,0.237,0.049,0.428,0.146,0.571c0.098,0.144,0.303,0.215,0.616,0.215
		c0.102,0,0.216-0.006,0.343-0.019s0.262-0.032,0.406-0.057v1.688c-0.355,0.102-0.627,0.165-0.812,0.19s-0.439,0.038-0.762,0.038
		c-0.787,0-1.358-0.279-1.714-0.838c-0.187-0.296-0.317-0.715-0.394-1.256c-0.465,0.609-1.135,1.138-2.006,1.586
		c-0.871,0.449-1.832,0.673-2.882,0.673c-1.261,0-2.292-0.383-3.091-1.147c-0.801-0.765-1.2-1.722-1.2-2.872
		c0-1.259,0.394-2.236,1.181-2.929c0.787-0.693,1.82-1.12,3.098-1.281L236.01,239.678z M231.198,245.852
		c0.482,0.38,1.054,0.57,1.714,0.57c0.804,0,1.583-0.186,2.336-0.558c1.27-0.617,1.904-1.626,1.904-3.029v-1.838
		c-0.278,0.178-0.638,0.327-1.077,0.446c-0.439,0.119-0.869,0.204-1.292,0.254l-1.382,0.177c-0.827,0.11-1.449,0.283-1.867,0.52
		c-0.706,0.397-1.06,1.03-1.06,1.9C230.475,244.952,230.716,245.471,231.198,245.852z"/>
	<path d="M243.64,230.514h2.311v3.796h2.171v1.866h-2.171v8.874c0,0.474,0.16,0.792,0.482,0.952c0.178,0.093,0.475,0.14,0.889,0.14
		c0.109,0,0.229-0.003,0.355-0.008s0.275-0.02,0.444-0.042v1.815c-0.263,0.076-0.535,0.131-0.819,0.165
		c-0.283,0.034-0.59,0.051-0.92,0.051c-1.066,0-1.79-0.273-2.171-0.819s-0.571-1.255-0.571-2.126v-9.001h-1.841v-1.866h1.841
		V230.514z"/>
	<path d="M250.47,234.31h2.171v2.349c0.178-0.457,0.614-1.014,1.308-1.669s1.494-0.984,2.399-0.984c0.042,0,0.114,0.004,0.216,0.013
		s0.275,0.025,0.521,0.051v2.412c-0.136-0.025-0.261-0.042-0.374-0.051c-0.115-0.008-0.24-0.013-0.375-0.013
		c-1.15,0-2.035,0.37-2.653,1.111s-0.927,1.593-0.927,2.558v7.82h-2.285V234.31z"/>
	<path d="M259.064,229.257h2.323v2.59h-2.323V229.257z M259.064,234.374h2.323v13.533h-2.323V234.374z"/>
	<path d="M264.841,234.31h2.26v1.93c0.541-0.668,1.033-1.155,1.473-1.46c0.754-0.516,1.607-0.774,2.564-0.774
		c1.084,0,1.955,0.267,2.615,0.8c0.373,0.305,0.711,0.753,1.016,1.346c0.508-0.728,1.104-1.268,1.79-1.619s1.456-0.527,2.311-0.527
		c1.828,0,3.072,0.66,3.732,1.98c0.355,0.711,0.533,1.667,0.533,2.869v9.052h-2.374v-9.445c0-0.906-0.227-1.528-0.68-1.866
		c-0.452-0.338-1.004-0.508-1.656-0.508c-0.896,0-1.67,0.3-2.316,0.901c-0.648,0.601-0.972,1.604-0.972,3.009v7.909h-2.323v-8.874
		c0-0.922-0.109-1.595-0.33-2.019c-0.348-0.635-0.994-0.952-1.942-0.952c-0.863,0-1.648,0.334-2.354,1.003
		c-0.707,0.668-1.061,1.879-1.061,3.631v7.211h-2.285V234.31z"/>
	<path d="M296.351,235.667c1.201,1.167,1.803,2.883,1.803,5.149c0,2.19-0.529,4-1.588,5.429c-1.06,1.429-2.703,2.144-4.93,2.144
		c-1.857,0-3.332-0.632-4.425-1.896s-1.639-2.962-1.639-5.093c0-2.283,0.575-4.102,1.728-5.455c1.15-1.353,2.697-2.029,4.639-2.029
		C293.679,233.917,295.149,234.5,296.351,235.667z M294.932,244.703c0.557-1.145,0.835-2.419,0.835-3.823
		c0-1.268-0.201-2.299-0.603-3.094c-0.636-1.251-1.732-1.877-3.289-1.877c-1.381,0-2.386,0.533-3.013,1.598
		c-0.627,1.065-0.941,2.35-0.941,3.855c0,1.445,0.314,2.65,0.941,3.614c0.627,0.963,1.623,1.445,2.988,1.445
		C293.349,246.421,294.375,245.849,294.932,244.703z"/>
	<path d="M300.959,234.31h2.171v1.93c0.643-0.795,1.324-1.367,2.044-1.714s1.519-0.521,2.399-0.521c1.93,0,3.232,0.673,3.91,2.019
		c0.373,0.736,0.559,1.79,0.559,3.161v8.722h-2.323v-8.569c0-0.83-0.122-1.498-0.368-2.006c-0.406-0.846-1.143-1.27-2.209-1.27
		c-0.541,0-0.986,0.055-1.333,0.165c-0.626,0.186-1.177,0.559-1.65,1.117c-0.381,0.449-0.628,0.912-0.743,1.39
		c-0.113,0.478-0.171,1.162-0.171,2.05v7.122h-2.285V234.31z"/>
	<path d="M315.419,229.257h2.323v2.59h-2.323V229.257z M315.419,234.374h2.323v13.533h-2.323V234.374z"/>
	<path d="M328.482,239.678c0.524-0.067,0.876-0.287,1.054-0.659c0.102-0.204,0.152-0.497,0.152-0.879
		c0-0.781-0.277-1.349-0.83-1.701s-1.346-0.529-2.375-0.529c-1.191,0-2.036,0.323-2.534,0.97c-0.278,0.357-0.46,0.889-0.545,1.595
		h-2.133c0.042-1.681,0.585-2.85,1.63-3.507c1.043-0.658,2.254-0.987,3.633-0.987c1.598,0,2.895,0.305,3.893,0.914
		c0.988,0.609,1.483,1.557,1.483,2.844v7.833c0,0.237,0.049,0.428,0.146,0.571c0.098,0.144,0.303,0.215,0.616,0.215
		c0.102,0,0.216-0.006,0.343-0.019s0.262-0.032,0.406-0.057v1.688c-0.355,0.102-0.627,0.165-0.812,0.19s-0.439,0.038-0.762,0.038
		c-0.787,0-1.358-0.279-1.714-0.838c-0.187-0.296-0.317-0.715-0.394-1.256c-0.465,0.609-1.135,1.138-2.006,1.586
		c-0.871,0.449-1.832,0.673-2.882,0.673c-1.261,0-2.292-0.383-3.091-1.147c-0.801-0.765-1.2-1.722-1.2-2.872
		c0-1.259,0.394-2.236,1.181-2.929c0.787-0.693,1.82-1.12,3.098-1.281L328.482,239.678z M323.671,245.852
		c0.482,0.38,1.054,0.57,1.714,0.57c0.804,0,1.583-0.186,2.336-0.558c1.27-0.617,1.904-1.626,1.904-3.029v-1.838
		c-0.278,0.178-0.638,0.327-1.077,0.446c-0.439,0.119-0.869,0.204-1.292,0.254l-1.382,0.177c-0.827,0.11-1.449,0.283-1.867,0.52
		c-0.706,0.397-1.06,1.03-1.06,1.9C322.947,244.952,323.188,245.471,323.671,245.852z"/>
	<path d="M335.719,229.257h2.285v18.649h-2.285V229.257z"/>
	<path d="M349.83,234.685c0.899,0.453,1.585,1.039,2.057,1.758c0.454,0.686,0.757,1.485,0.908,2.399
		c0.135,0.626,0.202,1.625,0.202,2.996h-9.89c0.042,1.383,0.365,2.493,0.97,3.329c0.605,0.836,1.541,1.254,2.809,1.254
		c1.185,0,2.129-0.396,2.835-1.186c0.395-0.459,0.675-0.99,0.839-1.594h2.247c-0.06,0.5-0.256,1.056-0.591,1.669
		c-0.334,0.614-0.707,1.115-1.118,1.504c-0.688,0.677-1.542,1.134-2.558,1.371c-0.547,0.135-1.164,0.203-1.853,0.203
		c-1.683,0-3.107-0.616-4.276-1.847c-1.17-1.231-1.754-2.956-1.754-5.173c0-2.184,0.589-3.957,1.767-5.319
		c1.177-1.363,2.717-2.044,4.618-2.044C348.001,234.005,348.93,234.232,349.83,234.685z M350.648,240.023
		c-0.093-0.99-0.307-1.782-0.642-2.374c-0.621-1.1-1.658-1.65-3.109-1.65c-1.041,0-1.914,0.379-2.619,1.136s-1.078,1.72-1.12,2.888
		H350.648z"/>
	<path d="M357.25,243.641c0.069,0.762,0.263,1.346,0.583,1.752c0.588,0.736,1.607,1.104,3.059,1.104
		c0.863,0,1.623-0.184,2.279-0.552c0.657-0.368,0.985-0.938,0.985-1.708c0-0.584-0.263-1.028-0.787-1.333
		c-0.335-0.186-0.997-0.402-1.987-0.647l-1.845-0.457c-1.179-0.288-2.047-0.609-2.606-0.965c-0.997-0.618-1.496-1.473-1.496-2.564
		c0-1.287,0.47-2.328,1.408-3.123c0.939-0.795,2.203-1.193,3.789-1.193c2.076,0,3.572,0.601,4.49,1.803
		c0.574,0.762,0.854,1.583,0.837,2.463h-2.158c-0.044-0.513-0.229-0.98-0.559-1.401c-0.538-0.598-1.469-0.896-2.794-0.896
		c-0.885,0-1.553,0.165-2.008,0.493c-0.455,0.329-0.683,0.764-0.683,1.303c0,0.59,0.299,1.062,0.896,1.417
		c0.345,0.211,0.854,0.397,1.526,0.558l1.539,0.368c1.673,0.398,2.794,0.783,3.363,1.155c0.889,0.584,1.333,1.502,1.333,2.755
		c0,1.21-0.465,2.255-1.395,3.136s-2.346,1.32-4.248,1.32c-2.048,0-3.498-0.459-4.351-1.377c-0.854-0.918-1.309-2.055-1.369-3.409
		H357.25z"/>
	<path d="M369.374,250.573c0.584-0.102,0.994-0.515,1.231-1.237c0.127-0.383,0.19-0.753,0.19-1.11c0-0.06-0.002-0.113-0.006-0.159
		c-0.005-0.047-0.016-0.1-0.032-0.16h-1.384v-2.768h2.717v2.564c0,1.007-0.203,1.892-0.609,2.653s-1.109,1.231-2.107,1.409V250.573z
		"/>
	<path d="M71.903,260.457h2.324v2.59h-2.324V260.457z M71.903,265.573h2.324v13.533h-2.324V265.573z"/>
	<path d="M85.15,265.929c0.405,0.254,0.864,0.698,1.378,1.333v-6.868h2.197v18.713h-2.057v-1.892
		c-0.531,0.838-1.16,1.443-1.885,1.815c-0.726,0.373-1.556,0.559-2.492,0.559c-1.509,0-2.815-0.637-3.92-1.911
		s-1.656-2.969-1.656-5.084c0-1.98,0.503-3.696,1.511-5.148c1.007-1.452,2.446-2.177,4.319-2.177
		C83.583,265.269,84.45,265.489,85.15,265.929z M80.05,276.123c0.614,0.982,1.6,1.473,2.955,1.473c1.053,0,1.918-0.455,2.596-1.365
		s1.018-2.215,1.018-3.917c0-1.718-0.35-2.99-1.049-3.815s-1.562-1.238-2.59-1.238c-1.145,0-2.073,0.44-2.785,1.32
		c-0.711,0.88-1.066,2.175-1.066,3.885C79.128,273.922,79.435,275.141,80.05,276.123z"/>
	<path d="M100.538,265.884c0.9,0.453,1.586,1.039,2.057,1.758c0.455,0.686,0.758,1.485,0.908,2.399
		c0.135,0.626,0.203,1.625,0.203,2.996h-9.891c0.043,1.383,0.365,2.493,0.971,3.329c0.604,0.836,1.541,1.254,2.809,1.254
		c1.184,0,2.129-0.396,2.834-1.186c0.395-0.459,0.675-0.99,0.84-1.594h2.246c-0.059,0.5-0.256,1.056-0.59,1.669
		s-0.707,1.115-1.119,1.504c-0.688,0.677-1.541,1.134-2.557,1.371c-0.547,0.135-1.164,0.203-1.854,0.203
		c-1.682,0-3.107-0.616-4.276-1.847s-1.753-2.956-1.753-5.173c0-2.184,0.588-3.957,1.766-5.319s2.717-2.044,4.618-2.044
		C98.709,265.205,99.638,265.432,100.538,265.884z M101.356,271.223c-0.092-0.99-0.307-1.782-0.642-2.374
		c-0.621-1.1-1.657-1.65-3.109-1.65c-1.04,0-1.913,0.379-2.618,1.136s-1.078,1.72-1.121,2.888H101.356z"/>
	<path d="M113.888,270.878c0.524-0.067,0.875-0.287,1.053-0.659c0.102-0.204,0.152-0.497,0.152-0.879
		c0-0.781-0.276-1.349-0.83-1.701c-0.553-0.353-1.345-0.529-2.375-0.529c-1.191,0-2.035,0.323-2.533,0.97
		c-0.279,0.357-0.461,0.889-0.545,1.595h-2.133c0.042-1.681,0.585-2.85,1.629-3.507s2.255-0.987,3.633-0.987
		c1.598,0,2.896,0.305,3.893,0.914c0.989,0.609,1.484,1.557,1.484,2.844v7.833c0,0.237,0.049,0.428,0.146,0.571
		s0.303,0.215,0.616,0.215c0.102,0,0.215-0.006,0.342-0.019s0.263-0.032,0.406-0.057v1.688c-0.355,0.102-0.626,0.165-0.812,0.19
		c-0.186,0.025-0.439,0.038-0.762,0.038c-0.787,0-1.357-0.279-1.713-0.838c-0.187-0.296-0.318-0.715-0.395-1.256
		c-0.465,0.609-1.134,1.138-2.006,1.586c-0.871,0.449-1.832,0.673-2.881,0.673c-1.262,0-2.292-0.383-3.092-1.147
		c-0.8-0.765-1.199-1.722-1.199-2.872c0-1.259,0.393-2.236,1.18-2.929c0.787-0.693,1.82-1.12,3.098-1.281L113.888,270.878z
		 M109.075,277.051c0.482,0.38,1.055,0.57,1.715,0.57c0.804,0,1.582-0.186,2.336-0.558c1.27-0.617,1.904-1.626,1.904-3.029v-1.838
		c-0.279,0.178-0.639,0.327-1.078,0.446c-0.438,0.119-0.869,0.204-1.291,0.254l-1.382,0.177c-0.827,0.11-1.45,0.283-1.867,0.52
		c-0.706,0.397-1.06,1.03-1.06,1.9C108.353,276.152,108.593,276.671,109.075,277.051z"/>
	<path d="M121.124,260.457h2.285v18.649h-2.285V260.457z"/>
	<path d="M135.235,265.884c0.899,0.453,1.585,1.039,2.057,1.758c0.453,0.686,0.756,1.485,0.908,2.399
		c0.135,0.626,0.201,1.625,0.201,2.996h-9.889c0.041,1.383,0.365,2.493,0.97,3.329s1.54,1.254,2.809,1.254
		c1.185,0,2.129-0.396,2.835-1.186c0.395-0.459,0.674-0.99,0.838-1.594h2.248c-0.06,0.5-0.256,1.056-0.591,1.669
		s-0.708,1.115-1.118,1.504c-0.689,0.677-1.542,1.134-2.559,1.371c-0.546,0.135-1.163,0.203-1.852,0.203
		c-1.683,0-3.107-0.616-4.277-1.847c-1.169-1.231-1.754-2.956-1.754-5.173c0-2.184,0.59-3.957,1.768-5.319
		c1.177-1.363,2.717-2.044,4.617-2.044C133.405,265.205,134.335,265.432,135.235,265.884z M136.054,271.223
		c-0.093-0.99-0.307-1.782-0.643-2.374c-0.621-1.1-1.658-1.65-3.109-1.65c-1.041,0-1.914,0.379-2.619,1.136
		c-0.704,0.757-1.078,1.72-1.119,2.888H136.054z"/>
	<path d="M142.655,274.841c0.068,0.762,0.263,1.346,0.582,1.752c0.588,0.736,1.607,1.104,3.059,1.104
		c0.863,0,1.623-0.184,2.28-0.552s0.985-0.938,0.985-1.708c0-0.584-0.263-1.028-0.787-1.333c-0.336-0.186-0.998-0.402-1.987-0.647
		L144.942,273c-1.179-0.288-2.047-0.609-2.606-0.965c-0.997-0.618-1.497-1.473-1.497-2.564c0-1.287,0.471-2.328,1.409-3.123
		s2.202-1.193,3.789-1.193c2.075,0,3.572,0.601,4.489,1.803c0.575,0.762,0.854,1.583,0.838,2.463h-2.158
		c-0.044-0.513-0.23-0.98-0.559-1.401c-0.538-0.598-1.469-0.896-2.795-0.896c-0.884,0-1.553,0.165-2.008,0.493
		c-0.455,0.329-0.682,0.764-0.682,1.303c0,0.59,0.299,1.062,0.896,1.417c0.344,0.211,0.854,0.397,1.525,0.558l1.539,0.368
		c1.674,0.398,2.795,0.783,3.363,1.155c0.889,0.584,1.334,1.502,1.334,2.755c0,1.21-0.465,2.255-1.395,3.136s-2.346,1.32-4.248,1.32
		c-2.049,0-3.498-0.459-4.352-1.377c-0.853-0.918-1.309-2.055-1.369-3.409H142.655z"/>
	<path d="M161.329,265.573h2.234v1.803c0.459-0.618,0.959-1.096,1.502-1.435c0.772-0.508,1.681-0.762,2.725-0.762
		c1.544,0,2.855,0.59,3.933,1.771s1.616,2.867,1.616,5.059c0,2.962-0.777,5.078-2.332,6.348c-0.985,0.804-2.133,1.206-3.441,1.206
		c-1.027,0-1.891-0.224-2.587-0.673c-0.407-0.254-0.862-0.69-1.364-1.308v6.944h-2.285V265.573z M169.927,276.231
		c0.709-0.893,1.064-2.228,1.064-4.005c0-1.083-0.158-2.014-0.472-2.793c-0.595-1.498-1.682-2.247-3.261-2.247
		c-1.588,0-2.676,0.792-3.262,2.374c-0.314,0.846-0.471,1.921-0.471,3.225c0,1.049,0.156,1.942,0.471,2.679
		c0.594,1.405,1.682,2.107,3.262,2.107C168.328,277.57,169.218,277.124,169.927,276.231z"/>
	<path d="M183.267,270.878c0.525-0.067,0.877-0.287,1.055-0.659c0.102-0.204,0.152-0.497,0.152-0.879
		c0-0.781-0.277-1.349-0.83-1.701c-0.554-0.353-1.346-0.529-2.376-0.529c-1.19,0-2.036,0.323-2.534,0.97
		c-0.278,0.357-0.46,0.889-0.545,1.595h-2.133c0.043-1.681,0.586-2.85,1.63-3.507s2.255-0.987,3.633-0.987
		c1.598,0,2.896,0.305,3.894,0.914c0.988,0.609,1.482,1.557,1.482,2.844v7.833c0,0.237,0.049,0.428,0.146,0.571
		s0.303,0.215,0.615,0.215c0.102,0,0.217-0.006,0.344-0.019s0.262-0.032,0.406-0.057v1.688c-0.355,0.102-0.627,0.165-0.812,0.19
		c-0.187,0.025-0.44,0.038-0.762,0.038c-0.787,0-1.359-0.279-1.715-0.838c-0.186-0.296-0.316-0.715-0.393-1.256
		c-0.466,0.609-1.135,1.138-2.006,1.586c-0.872,0.449-1.833,0.673-2.883,0.673c-1.261,0-2.291-0.383-3.091-1.147
		c-0.8-0.765-1.2-1.722-1.2-2.872c0-1.259,0.395-2.236,1.182-2.929c0.787-0.693,1.819-1.12,3.098-1.281L183.267,270.878z
		 M178.456,277.051c0.482,0.38,1.053,0.57,1.713,0.57c0.805,0,1.583-0.186,2.336-0.558c1.27-0.617,1.904-1.626,1.904-3.029v-1.838
		c-0.278,0.178-0.637,0.327-1.076,0.446c-0.439,0.119-0.87,0.204-1.293,0.254l-1.381,0.177c-0.828,0.11-1.45,0.283-1.867,0.52
		c-0.707,0.397-1.061,1.03-1.061,1.9C177.731,276.152,177.974,276.671,178.456,277.051z"/>
	<path d="M190.503,265.51h2.172v2.349c0.178-0.457,0.613-1.014,1.307-1.669c0.694-0.656,1.494-0.984,2.4-0.984
		c0.042,0,0.113,0.004,0.215,0.013s0.275,0.025,0.521,0.051v2.412c-0.136-0.025-0.261-0.042-0.375-0.051s-0.239-0.013-0.375-0.013
		c-1.15,0-2.035,0.37-2.652,1.111c-0.618,0.741-0.928,1.593-0.928,2.558v7.82h-2.285V265.51z"/>
	<path d="M206.386,270.878c0.524-0.067,0.875-0.287,1.053-0.659c0.102-0.204,0.152-0.497,0.152-0.879
		c0-0.781-0.276-1.349-0.83-1.701c-0.553-0.353-1.345-0.529-2.375-0.529c-1.191,0-2.035,0.323-2.533,0.97
		c-0.279,0.357-0.461,0.889-0.545,1.595h-2.133c0.042-1.681,0.585-2.85,1.629-3.507s2.255-0.987,3.633-0.987
		c1.598,0,2.896,0.305,3.893,0.914c0.989,0.609,1.484,1.557,1.484,2.844v7.833c0,0.237,0.049,0.428,0.146,0.571
		s0.303,0.215,0.616,0.215c0.102,0,0.215-0.006,0.342-0.019s0.263-0.032,0.406-0.057v1.688c-0.355,0.102-0.626,0.165-0.812,0.19
		c-0.186,0.025-0.439,0.038-0.762,0.038c-0.787,0-1.357-0.279-1.713-0.838c-0.187-0.296-0.318-0.715-0.395-1.256
		c-0.465,0.609-1.134,1.138-2.006,1.586c-0.871,0.449-1.832,0.673-2.881,0.673c-1.262,0-2.292-0.383-3.092-1.147
		c-0.8-0.765-1.199-1.722-1.199-2.872c0-1.259,0.393-2.236,1.18-2.929c0.787-0.693,1.82-1.12,3.098-1.281L206.386,270.878z
		 M201.573,277.051c0.482,0.38,1.055,0.57,1.715,0.57c0.804,0,1.582-0.186,2.336-0.558c1.27-0.617,1.904-1.626,1.904-3.029v-1.838
		c-0.279,0.178-0.639,0.327-1.078,0.446c-0.438,0.119-0.869,0.204-1.291,0.254l-1.382,0.177c-0.827,0.11-1.45,0.283-1.867,0.52
		c-0.706,0.397-1.06,1.03-1.06,1.9C200.851,276.152,201.091,276.671,201.573,277.051z"/>
	<path d="M227.739,279.106v-4.443h-7.973v-2.234l8.328-11.553h1.93v11.794h2.678v1.993h-2.678v4.443H227.739z M227.7,272.67v-8.257
		l-5.826,8.257H227.7z"/>
	<path d="M242.274,265.573h2.234v1.803c0.459-0.618,0.959-1.096,1.502-1.435c0.772-0.508,1.681-0.762,2.725-0.762
		c1.544,0,2.855,0.59,3.933,1.771s1.616,2.867,1.616,5.059c0,2.962-0.777,5.078-2.332,6.348c-0.985,0.804-2.133,1.206-3.441,1.206
		c-1.027,0-1.891-0.224-2.587-0.673c-0.407-0.254-0.862-0.69-1.364-1.308v6.944h-2.285V265.573z M250.872,276.231
		c0.709-0.893,1.064-2.228,1.064-4.005c0-1.083-0.158-2.014-0.472-2.793c-0.595-1.498-1.682-2.247-3.261-2.247
		c-1.588,0-2.676,0.792-3.262,2.374c-0.314,0.846-0.471,1.921-0.471,3.225c0,1.049,0.156,1.942,0.471,2.679
		c0.594,1.405,1.682,2.107,3.262,2.107C249.273,277.57,250.163,277.124,250.872,276.231z"/>
	<path d="M265.323,265.884c0.9,0.453,1.586,1.039,2.057,1.758c0.455,0.686,0.758,1.485,0.908,2.399
		c0.135,0.626,0.203,1.625,0.203,2.996h-9.891c0.043,1.383,0.365,2.493,0.971,3.329c0.604,0.836,1.541,1.254,2.809,1.254
		c1.184,0,2.129-0.396,2.834-1.186c0.395-0.459,0.675-0.99,0.84-1.594h2.246c-0.059,0.5-0.256,1.056-0.59,1.669
		s-0.707,1.115-1.119,1.504c-0.688,0.677-1.541,1.134-2.557,1.371c-0.547,0.135-1.164,0.203-1.854,0.203
		c-1.682,0-3.107-0.616-4.276-1.847s-1.753-2.956-1.753-5.173c0-2.184,0.588-3.957,1.766-5.319s2.717-2.044,4.618-2.044
		C263.494,265.205,264.423,265.432,265.323,265.884z M266.142,271.223c-0.092-0.99-0.307-1.782-0.642-2.374
		c-0.621-1.1-1.657-1.65-3.109-1.65c-1.04,0-1.913,0.379-2.618,1.136s-1.078,1.72-1.121,2.888H266.142z"/>
	<path d="M271.448,265.51h2.172v2.349c0.178-0.457,0.613-1.014,1.307-1.669c0.694-0.656,1.494-0.984,2.4-0.984
		c0.042,0,0.113,0.004,0.215,0.013s0.275,0.025,0.521,0.051v2.412c-0.136-0.025-0.261-0.042-0.375-0.051s-0.239-0.013-0.375-0.013
		c-1.15,0-2.035,0.37-2.652,1.111c-0.618,0.741-0.928,1.593-0.928,2.558v7.82h-2.285V265.51z"/>
	<path d="M281.401,274.841c0.069,0.762,0.264,1.346,0.584,1.752c0.587,0.736,1.606,1.104,3.058,1.104
		c0.864,0,1.624-0.184,2.28-0.552s0.984-0.938,0.984-1.708c0-0.584-0.262-1.028-0.787-1.333c-0.335-0.186-0.997-0.402-1.986-0.647
		L283.688,273c-1.178-0.288-2.047-0.609-2.605-0.965c-0.998-0.618-1.496-1.473-1.496-2.564c0-1.287,0.469-2.328,1.408-3.123
		s2.202-1.193,3.789-1.193c2.076,0,3.572,0.601,4.49,1.803c0.574,0.762,0.854,1.583,0.836,2.463h-2.158
		c-0.043-0.513-0.229-0.98-0.559-1.401c-0.537-0.598-1.469-0.896-2.794-0.896c-0.884,0-1.553,0.165-2.008,0.493
		c-0.454,0.329-0.683,0.764-0.683,1.303c0,0.59,0.299,1.062,0.896,1.417c0.346,0.211,0.854,0.397,1.527,0.558l1.539,0.368
		c1.672,0.398,2.793,0.783,3.363,1.155c0.889,0.584,1.332,1.502,1.332,2.755c0,1.21-0.465,2.255-1.395,3.136s-2.346,1.32-4.248,1.32
		c-2.047,0-3.498-0.459-4.35-1.377c-0.854-0.918-1.31-2.055-1.369-3.409H281.401z"/>
	<path d="M302.896,266.867c1.201,1.167,1.803,2.883,1.803,5.149c0,2.19-0.53,4-1.589,5.429c-1.06,1.429-2.702,2.144-4.929,2.144
		c-1.857,0-3.332-0.632-4.426-1.896c-1.092-1.264-1.639-2.962-1.639-5.093c0-2.283,0.576-4.102,1.728-5.455
		c1.151-1.353,2.698-2.029,4.64-2.029C300.223,265.116,301.693,265.7,302.896,266.867z M301.476,275.903
		c0.557-1.145,0.836-2.419,0.836-3.823c0-1.268-0.201-2.299-0.604-3.094c-0.636-1.251-1.732-1.877-3.289-1.877
		c-1.381,0-2.385,0.533-3.012,1.598c-0.628,1.065-0.941,2.35-0.941,3.855c0,1.445,0.313,2.65,0.941,3.614
		c0.627,0.963,1.623,1.445,2.987,1.445C299.893,277.621,300.919,277.048,301.476,275.903z"/>
	<path d="M307.503,265.51h2.172v1.93c0.643-0.795,1.324-1.367,2.043-1.714c0.72-0.347,1.52-0.521,2.4-0.521
		c1.93,0,3.232,0.673,3.91,2.019c0.372,0.736,0.559,1.79,0.559,3.161v8.722h-2.324v-8.569c0-0.83-0.122-1.498-0.367-2.006
		c-0.406-0.846-1.143-1.27-2.209-1.27c-0.542,0-0.986,0.055-1.334,0.165c-0.626,0.186-1.176,0.559-1.65,1.117
		c-0.381,0.449-0.628,0.912-0.742,1.39s-0.172,1.162-0.172,2.05v7.122h-2.285V265.51z"/>
	<path d="M329.251,270.878c0.524-0.067,0.875-0.287,1.053-0.659c0.102-0.204,0.152-0.497,0.152-0.879
		c0-0.781-0.276-1.349-0.83-1.701c-0.553-0.353-1.345-0.529-2.375-0.529c-1.191,0-2.035,0.323-2.533,0.97
		c-0.279,0.357-0.461,0.889-0.545,1.595h-2.133c0.042-1.681,0.585-2.85,1.629-3.507s2.255-0.987,3.633-0.987
		c1.598,0,2.896,0.305,3.893,0.914c0.989,0.609,1.484,1.557,1.484,2.844v7.833c0,0.237,0.049,0.428,0.146,0.571
		s0.303,0.215,0.616,0.215c0.102,0,0.215-0.006,0.342-0.019s0.263-0.032,0.406-0.057v1.688c-0.355,0.102-0.626,0.165-0.812,0.19
		c-0.186,0.025-0.439,0.038-0.762,0.038c-0.787,0-1.357-0.279-1.713-0.838c-0.187-0.296-0.318-0.715-0.395-1.256
		c-0.465,0.609-1.134,1.138-2.006,1.586c-0.871,0.449-1.832,0.673-2.881,0.673c-1.262,0-2.292-0.383-3.092-1.147
		c-0.8-0.765-1.199-1.722-1.199-2.872c0-1.259,0.393-2.236,1.18-2.929c0.787-0.693,1.82-1.12,3.098-1.281L329.251,270.878z
		 M324.438,277.051c0.482,0.38,1.055,0.57,1.715,0.57c0.804,0,1.582-0.186,2.336-0.558c1.27-0.617,1.904-1.626,1.904-3.029v-1.838
		c-0.279,0.178-0.639,0.327-1.078,0.446c-0.438,0.119-0.869,0.204-1.291,0.254l-1.382,0.177c-0.827,0.11-1.45,0.283-1.867,0.52
		c-0.706,0.397-1.06,1.03-1.06,1.9C323.716,276.152,323.956,276.671,324.438,277.051z"/>
	<path d="M337.782,274.841c0.068,0.762,0.263,1.346,0.582,1.752c0.588,0.736,1.607,1.104,3.059,1.104
		c0.863,0,1.623-0.184,2.28-0.552s0.985-0.938,0.985-1.708c0-0.584-0.263-1.028-0.787-1.333c-0.336-0.186-0.998-0.402-1.987-0.647
		L340.069,273c-1.179-0.288-2.047-0.609-2.606-0.965c-0.997-0.618-1.497-1.473-1.497-2.564c0-1.287,0.471-2.328,1.409-3.123
		s2.202-1.193,3.789-1.193c2.075,0,3.572,0.601,4.489,1.803c0.575,0.762,0.854,1.583,0.838,2.463h-2.158
		c-0.044-0.513-0.23-0.98-0.559-1.401c-0.538-0.598-1.469-0.896-2.795-0.896c-0.884,0-1.553,0.165-2.008,0.493
		c-0.455,0.329-0.682,0.764-0.682,1.303c0,0.59,0.299,1.062,0.896,1.417c0.344,0.211,0.854,0.397,1.525,0.558l1.539,0.368
		c1.674,0.398,2.795,0.783,3.363,1.155c0.889,0.584,1.334,1.502,1.334,2.755c0,1.21-0.465,2.255-1.395,3.136s-2.346,1.32-4.248,1.32
		c-2.049,0-3.498-0.459-4.352-1.377c-0.853-0.918-1.309-2.055-1.369-3.409H337.782z"/>
	<path d="M349.97,276.339h2.652v2.768h-2.652V276.339z"/>
</g>
</svg>
