<?xml version="1.0" encoding="utf-8"?>
<!-- <?xml-stylesheet type="text/css" href="stilosvg.css" ?>   -->
<!-- Generator: Adobe Illustrator 16.0.0, SVG Export Plug-In . SVG Version: 6.00 Build 0)  -->
<!DOCTYPE svg PUBLIC "-//W3C//DTD SVG 1.1//EN" "http://www.w3.org/Graphics/SVG/1.1/DTD/svg11.dtd">

<svg version="1.1" id="Layer_1" xmlns="http://www.w3.org/2000/svg" xmlns:xlink="http://www.w3.org/1999/xlink" x="0px" y="0px"
	 width="425.2px" height="425.2px" viewBox="0 0 425.2 425.2" enable-background="new 0 0 425.2 425.2" xml:space="preserve">
<g>
	<g>
		<path class="bola" style="fill:rgba(255,255,255,0.8);" d="M212.6,423.7C96.199,423.7,1.5,329.001,1.5,212.6S96.199,1.5,212.6,1.5s211.1,94.699,211.1,211.1
			S329.001,423.7,212.6,423.7z"/>
		<path fill="#231F20" d="M212.6,3c28.297,0,55.746,5.542,81.585,16.47c24.958,10.557,47.375,25.67,66.625,44.92
			c19.25,19.25,34.364,41.666,44.92,66.625c10.929,25.839,16.47,53.288,16.47,81.585c0,28.297-5.542,55.747-16.47,81.585
			c-10.557,24.958-25.67,47.375-44.92,66.625c-19.25,19.25-41.666,34.364-66.625,44.92c-25.839,10.929-53.288,16.47-81.585,16.47
			s-55.747-5.542-81.585-16.47c-24.959-10.556-47.375-25.669-66.625-44.92c-19.25-19.25-34.364-41.666-44.92-66.625
			C8.542,268.347,3,240.897,3,212.6s5.542-55.746,16.47-81.585c10.557-24.958,25.67-47.375,44.92-66.625
			c19.25-19.25,41.666-34.364,66.625-44.92C156.854,8.542,184.303,3,212.6,3 M212.6,0C95.184,0,0,95.185,0,212.6
			c0,117.417,95.184,212.6,212.6,212.6c117.416,0,212.6-95.183,212.6-212.6C425.2,95.185,330.016,0,212.6,0L212.6,0z"/>
	</g>
	<g>
		
			<circle fill="none" stroke="#231F20" stroke-width="12.546" stroke-miterlimit="10" stroke-dasharray="2.942,5.884" cx="212.6" cy="212.6" r="196.651"/>
	</g>
</g>
<g>
	<path d="M88.269,123.069h7.454c2.531,0,4.493,0.91,5.888,2.729c1.245,1.642,1.867,3.745,1.867,6.31c0,1.98-0.368,3.771-1.103,5.37
		c-1.294,2.827-3.521,4.24-6.677,4.24h-7.429V123.069z M95.227,139.561c0.836,0,1.523-0.089,2.061-0.267
		c0.96-0.33,1.746-0.965,2.359-1.904c0.488-0.753,0.84-1.718,1.055-2.895c0.124-0.703,0.186-1.354,0.186-1.955
		c0-2.311-0.449-4.105-1.347-5.383c-0.898-1.278-2.344-1.917-4.339-1.917H90.82v14.32H95.227z"/>
	<path d="M106.626,123.069h2.323v2.59h-2.323V123.069z M106.626,128.186h2.323v13.533h-2.323V128.186z"/>
	<path d="M112.402,128.122h2.26v1.93c0.542-0.668,1.033-1.155,1.473-1.46c0.753-0.516,1.608-0.774,2.564-0.774
		c1.083,0,1.955,0.267,2.615,0.8c0.373,0.305,0.711,0.753,1.016,1.346c0.508-0.728,1.104-1.268,1.79-1.619s1.456-0.527,2.311-0.527
		c1.828,0,3.072,0.66,3.732,1.98c0.355,0.711,0.533,1.667,0.533,2.869v9.052h-2.374v-9.445c0-0.906-0.227-1.528-0.679-1.866
		s-1.005-0.508-1.657-0.508c-0.897,0-1.669,0.3-2.317,0.901s-0.971,1.604-0.971,3.009v7.909h-2.323v-8.874
		c0-0.922-0.11-1.595-0.33-2.019c-0.347-0.635-0.995-0.952-1.942-0.952c-0.863,0-1.648,0.334-2.355,1.003s-1.06,1.879-1.06,3.631
		v7.211h-2.285V128.122z"/>
	<path d="M143.912,129.479c1.202,1.167,1.803,2.883,1.803,5.149c0,2.19-0.53,4-1.588,5.429c-1.059,1.429-2.702,2.144-4.929,2.144
		c-1.857,0-3.332-0.632-4.425-1.896s-1.639-2.962-1.639-5.093c0-2.283,0.576-4.102,1.727-5.455c1.151-1.353,2.698-2.029,4.639-2.029
		C141.24,127.729,142.71,128.312,143.912,129.479z M142.493,138.515c0.557-1.145,0.835-2.419,0.835-3.823
		c0-1.268-0.201-2.299-0.603-3.094c-0.636-1.251-1.732-1.877-3.289-1.877c-1.381,0-2.385,0.533-3.013,1.598
		c-0.627,1.065-0.941,2.35-0.941,3.855c0,1.445,0.314,2.65,0.941,3.614c0.627,0.963,1.624,1.445,2.988,1.445
		C140.91,140.233,141.937,139.661,142.493,138.515z"/>
	<path d="M149.879,137.453c0.069,0.762,0.263,1.346,0.583,1.752c0.587,0.736,1.607,1.104,3.058,1.104
		c0.864,0,1.624-0.184,2.28-0.552s0.985-0.938,0.985-1.708c0-0.584-0.262-1.028-0.787-1.333c-0.335-0.186-0.998-0.402-1.987-0.647
		l-1.845-0.457c-1.178-0.288-2.047-0.609-2.606-0.965c-0.998-0.618-1.497-1.473-1.497-2.564c0-1.287,0.47-2.328,1.409-3.123
		s2.202-1.193,3.789-1.193c2.076,0,3.572,0.601,4.49,1.803c0.575,0.762,0.854,1.583,0.837,2.463h-2.158
		c-0.043-0.513-0.229-0.98-0.559-1.401c-0.538-0.598-1.469-0.896-2.794-0.896c-0.884,0-1.553,0.165-2.008,0.493
		c-0.455,0.329-0.682,0.764-0.682,1.303c0,0.59,0.299,1.062,0.896,1.417c0.345,0.211,0.854,0.397,1.526,0.558l1.539,0.368
		c1.673,0.398,2.794,0.783,3.363,1.155c0.889,0.584,1.333,1.502,1.333,2.755c0,1.21-0.465,2.255-1.395,3.136s-2.346,1.32-4.248,1.32
		c-2.048,0-3.498-0.459-4.351-1.377c-0.853-0.918-1.309-2.055-1.369-3.409H149.879z"/>
	<path d="M177.143,128.497c0.9,0.453,1.585,1.039,2.057,1.758c0.454,0.686,0.757,1.485,0.908,2.399
		c0.135,0.626,0.202,1.625,0.202,2.996h-9.89c0.042,1.383,0.365,2.493,0.97,3.329c0.604,0.836,1.541,1.254,2.809,1.254
		c1.184,0,2.129-0.396,2.834-1.186c0.395-0.459,0.674-0.99,0.839-1.594h2.247c-0.059,0.5-0.256,1.056-0.59,1.669
		s-0.708,1.115-1.119,1.504c-0.689,0.677-1.542,1.134-2.558,1.371c-0.546,0.135-1.164,0.203-1.853,0.203
		c-1.682,0-3.107-0.616-4.277-1.847c-1.169-1.231-1.753-2.956-1.753-5.173c0-2.184,0.589-3.957,1.767-5.319
		c1.177-1.363,2.717-2.044,4.618-2.044C175.313,127.817,176.242,128.044,177.143,128.497z M177.961,133.835
		c-0.092-0.99-0.307-1.782-0.642-2.374c-0.621-1.1-1.658-1.65-3.109-1.65c-1.041,0-1.914,0.379-2.619,1.136
		c-0.705,0.757-1.078,1.72-1.12,2.888H177.961z"/>
	<path d="M183.268,123.069h2.285v18.649h-2.285V123.069z"/>
	<path d="M196.014,128.186h2.234v1.803c0.458-0.618,0.959-1.096,1.502-1.435c0.772-0.508,1.68-0.762,2.724-0.762
		c1.544,0,2.855,0.59,3.933,1.771s1.617,2.867,1.617,5.059c0,2.962-0.777,5.078-2.333,6.348c-0.985,0.804-2.133,1.206-3.441,1.206
		c-1.028,0-1.891-0.224-2.587-0.673c-0.408-0.254-0.862-0.69-1.364-1.308v6.944h-2.285V128.186z M204.611,138.843
		c0.709-0.893,1.063-2.228,1.063-4.005c0-1.083-0.157-2.014-0.471-2.793c-0.595-1.498-1.682-2.247-3.261-2.247
		c-1.588,0-2.675,0.792-3.261,2.374c-0.314,0.846-0.471,1.921-0.471,3.225c0,1.049,0.157,1.942,0.471,2.679
		c0.594,1.405,1.682,2.107,3.261,2.107C203.012,140.183,203.902,139.736,204.611,138.843z"/>
	<path d="M210.728,128.122h2.171v2.349c0.178-0.457,0.614-1.014,1.308-1.669s1.494-0.984,2.399-0.984
		c0.042,0,0.114,0.004,0.216,0.013s0.275,0.025,0.521,0.051v2.412c-0.135-0.025-0.26-0.042-0.375-0.051s-0.239-0.013-0.375-0.013
		c-1.151,0-2.036,0.37-2.653,1.111s-0.927,1.593-0.927,2.558v7.82h-2.285V128.122z"/>
	<path d="M219.322,123.069h2.323v2.59h-2.323V123.069z M219.322,128.186h2.323v13.533h-2.323V128.186z"/>
	<path d="M225.099,128.122h2.26v1.93c0.542-0.668,1.033-1.155,1.473-1.46c0.753-0.516,1.608-0.774,2.564-0.774
		c1.083,0,1.955,0.267,2.615,0.8c0.373,0.305,0.711,0.753,1.016,1.346c0.508-0.728,1.104-1.268,1.79-1.619s1.456-0.527,2.311-0.527
		c1.828,0,3.072,0.66,3.732,1.98c0.355,0.711,0.533,1.667,0.533,2.869v9.052h-2.374v-9.445c0-0.906-0.227-1.528-0.679-1.866
		s-1.005-0.508-1.657-0.508c-0.897,0-1.669,0.3-2.317,0.901s-0.971,1.604-0.971,3.009v7.909h-2.323v-8.874
		c0-0.922-0.11-1.595-0.33-2.019c-0.347-0.635-0.995-0.952-1.942-0.952c-0.863,0-1.648,0.334-2.355,1.003s-1.06,1.879-1.06,3.631
		v7.211h-2.285V128.122z"/>
	<path d="M255.155,128.497c0.9,0.453,1.585,1.039,2.057,1.758c0.454,0.686,0.757,1.485,0.908,2.399
		c0.135,0.626,0.202,1.625,0.202,2.996h-9.89c0.042,1.383,0.365,2.493,0.97,3.329c0.604,0.836,1.541,1.254,2.809,1.254
		c1.184,0,2.129-0.396,2.834-1.186c0.395-0.459,0.674-0.99,0.839-1.594h2.247c-0.059,0.5-0.256,1.056-0.59,1.669
		s-0.708,1.115-1.119,1.504c-0.689,0.677-1.542,1.134-2.558,1.371c-0.546,0.135-1.164,0.203-1.853,0.203
		c-1.682,0-3.107-0.616-4.277-1.847c-1.169-1.231-1.753-2.956-1.753-5.173c0-2.184,0.589-3.957,1.767-5.319
		c1.177-1.363,2.717-2.044,4.618-2.044C253.326,127.817,254.255,128.044,255.155,128.497z M255.974,133.835
		c-0.092-0.99-0.307-1.782-0.642-2.374c-0.621-1.1-1.658-1.65-3.109-1.65c-1.041,0-1.914,0.379-2.619,1.136
		c-0.705,0.757-1.078,1.72-1.12,2.888H255.974z"/>
	<path d="M261.28,128.122h2.171v2.349c0.178-0.457,0.614-1.014,1.308-1.669s1.494-0.984,2.399-0.984
		c0.042,0,0.114,0.004,0.216,0.013s0.275,0.025,0.521,0.051v2.412c-0.135-0.025-0.26-0.042-0.375-0.051s-0.239-0.013-0.375-0.013
		c-1.151,0-2.036,0.37-2.653,1.111s-0.927,1.593-0.927,2.558v7.82h-2.285V128.122z"/>
	<path d="M276.908,128.186h2.234v1.803c0.458-0.618,0.959-1.096,1.502-1.435c0.772-0.508,1.68-0.762,2.724-0.762
		c1.544,0,2.855,0.59,3.933,1.771s1.617,2.867,1.617,5.059c0,2.962-0.777,5.078-2.333,6.348c-0.985,0.804-2.133,1.206-3.441,1.206
		c-1.028,0-1.891-0.224-2.587-0.673c-0.408-0.254-0.862-0.69-1.364-1.308v6.944h-2.285V128.186z M285.506,138.843
		c0.709-0.893,1.063-2.228,1.063-4.005c0-1.083-0.157-2.014-0.471-2.793c-0.595-1.498-1.682-2.247-3.261-2.247
		c-1.588,0-2.675,0.792-3.261,2.374c-0.314,0.846-0.471,1.921-0.471,3.225c0,1.049,0.157,1.942,0.471,2.679
		c0.594,1.405,1.682,2.107,3.261,2.107C283.907,140.183,284.796,139.736,285.506,138.843z"/>
	<path d="M298.846,133.49c0.525-0.067,0.876-0.287,1.054-0.659c0.102-0.204,0.152-0.497,0.152-0.879c0-0.781-0.277-1.349-0.83-1.701
		s-1.345-0.529-2.375-0.529c-1.191,0-2.036,0.323-2.534,0.97c-0.279,0.357-0.46,0.889-0.545,1.595h-2.133
		c0.042-1.681,0.585-2.85,1.629-3.507s2.255-0.987,3.633-0.987c1.598,0,2.896,0.305,3.893,0.914
		c0.989,0.609,1.483,1.557,1.483,2.844v7.833c0,0.237,0.049,0.428,0.146,0.571s0.303,0.215,0.616,0.215
		c0.102,0,0.216-0.006,0.343-0.019s0.262-0.032,0.406-0.057v1.688c-0.355,0.102-0.626,0.165-0.812,0.19s-0.44,0.038-0.762,0.038
		c-0.787,0-1.358-0.279-1.714-0.838c-0.186-0.296-0.317-0.715-0.394-1.256c-0.465,0.609-1.134,1.138-2.006,1.586
		c-0.872,0.449-1.833,0.673-2.882,0.673c-1.261,0-2.292-0.383-3.091-1.147c-0.8-0.765-1.2-1.722-1.2-2.872
		c0-1.259,0.394-2.236,1.181-2.929c0.787-0.693,1.82-1.12,3.098-1.281L298.846,133.49z M294.034,139.664
		c0.482,0.38,1.054,0.57,1.714,0.57c0.804,0,1.583-0.186,2.336-0.558c1.27-0.617,1.904-1.626,1.904-3.029v-1.838
		c-0.279,0.178-0.638,0.327-1.077,0.446c-0.439,0.119-0.87,0.204-1.292,0.254l-1.381,0.177c-0.828,0.11-1.45,0.283-1.867,0.52
		c-0.707,0.397-1.06,1.03-1.06,1.9C293.311,138.764,293.552,139.283,294.034,139.664z"/>
	<path d="M307.377,137.453c0.069,0.762,0.263,1.346,0.583,1.752c0.587,0.736,1.607,1.104,3.058,1.104
		c0.864,0,1.624-0.184,2.28-0.552s0.985-0.938,0.985-1.708c0-0.584-0.262-1.028-0.787-1.333c-0.335-0.186-0.998-0.402-1.987-0.647
		l-1.845-0.457c-1.178-0.288-2.047-0.609-2.606-0.965c-0.998-0.618-1.497-1.473-1.497-2.564c0-1.287,0.47-2.328,1.409-3.123
		s2.202-1.193,3.789-1.193c2.076,0,3.572,0.601,4.49,1.803c0.575,0.762,0.854,1.583,0.837,2.463h-2.158
		c-0.043-0.513-0.229-0.98-0.559-1.401c-0.538-0.598-1.469-0.896-2.794-0.896c-0.884,0-1.553,0.165-2.008,0.493
		c-0.455,0.329-0.682,0.764-0.682,1.303c0,0.59,0.299,1.062,0.896,1.417c0.345,0.211,0.854,0.397,1.526,0.558l1.539,0.368
		c1.673,0.398,2.794,0.783,3.363,1.155c0.889,0.584,1.333,1.502,1.333,2.755c0,1.21-0.465,2.255-1.395,3.136s-2.346,1.32-4.248,1.32
		c-2.048,0-3.498-0.459-4.351-1.377c-0.853-0.918-1.309-2.055-1.369-3.409H307.377z"/>
	<path d="M328.87,129.479c1.202,1.167,1.803,2.883,1.803,5.149c0,2.19-0.53,4-1.588,5.429c-1.059,1.429-2.702,2.144-4.929,2.144
		c-1.857,0-3.332-0.632-4.425-1.896s-1.639-2.962-1.639-5.093c0-2.283,0.576-4.102,1.727-5.455c1.151-1.353,2.698-2.029,4.639-2.029
		C326.198,127.729,327.668,128.312,328.87,129.479z M327.451,138.515c0.557-1.145,0.835-2.419,0.835-3.823
		c0-1.268-0.201-2.299-0.603-3.094c-0.636-1.251-1.732-1.877-3.289-1.877c-1.381,0-2.385,0.533-3.013,1.598
		c-0.627,1.065-0.941,2.35-0.941,3.855c0,1.445,0.314,2.65,0.941,3.614c0.627,0.963,1.624,1.445,2.988,1.445
		C325.868,140.233,326.895,139.661,327.451,138.515z"/>
	<path d="M333.961,144.385c0.584-0.102,0.995-0.515,1.231-1.237c0.127-0.383,0.19-0.753,0.19-1.11c0-0.06-0.002-0.113-0.006-0.159
		c-0.004-0.047-0.015-0.1-0.032-0.16h-1.384v-2.768h2.717v2.564c0,1.007-0.203,1.892-0.609,2.653s-1.109,1.231-2.107,1.409V144.385z
		"/>
	<path d="M70.501,154.206h2.285v6.957c0.542-0.686,1.028-1.168,1.46-1.447c0.736-0.482,1.655-0.724,2.755-0.724
		c1.972,0,3.309,0.69,4.012,2.069c0.381,0.753,0.571,1.798,0.571,3.136v8.722h-2.349v-8.569c0-0.999-0.127-1.731-0.381-2.196
		c-0.415-0.745-1.193-1.117-2.336-1.117c-0.948,0-1.807,0.326-2.577,0.978s-1.155,1.883-1.155,3.694v7.211h-2.285V154.206z"/>
	<path d="M92.249,164.69c0.525-0.067,0.876-0.287,1.054-0.659c0.102-0.204,0.152-0.497,0.152-0.879c0-0.781-0.277-1.349-0.83-1.701
		s-1.345-0.529-2.375-0.529c-1.191,0-2.036,0.323-2.534,0.97c-0.279,0.357-0.46,0.889-0.545,1.595h-2.133
		c0.042-1.681,0.585-2.85,1.629-3.507s2.255-0.987,3.633-0.987c1.598,0,2.896,0.305,3.893,0.914
		c0.989,0.609,1.483,1.557,1.483,2.844v7.833c0,0.237,0.049,0.428,0.146,0.571s0.303,0.215,0.616,0.215
		c0.102,0,0.216-0.006,0.343-0.019s0.262-0.032,0.406-0.057v1.688c-0.355,0.102-0.626,0.165-0.812,0.19s-0.44,0.038-0.762,0.038
		c-0.787,0-1.358-0.279-1.714-0.838c-0.186-0.296-0.317-0.715-0.394-1.256c-0.465,0.609-1.134,1.138-2.006,1.586
		c-0.872,0.449-1.833,0.673-2.882,0.673c-1.261,0-2.292-0.383-3.091-1.147c-0.8-0.765-1.2-1.722-1.2-2.872
		c0-1.259,0.394-2.236,1.181-2.929c0.787-0.693,1.82-1.12,3.098-1.281L92.249,164.69z M87.437,170.864
		c0.482,0.38,1.054,0.57,1.714,0.57c0.804,0,1.583-0.186,2.336-0.558c1.27-0.617,1.904-1.626,1.904-3.029v-1.838
		c-0.279,0.178-0.638,0.327-1.077,0.446c-0.439,0.119-0.87,0.204-1.292,0.254l-1.381,0.177c-0.828,0.11-1.45,0.283-1.867,0.52
		c-0.707,0.397-1.06,1.03-1.06,1.9C86.713,169.964,86.955,170.483,87.437,170.864z"/>
	<path d="M108.403,160.046c0.96,0.745,1.538,2.027,1.733,3.847h-2.222c-0.135-0.838-0.444-1.534-0.927-2.088
		s-1.257-0.832-2.323-0.832c-1.456,0-2.497,0.71-3.123,2.13c-0.406,0.921-0.609,2.058-0.609,3.411c0,1.361,0.288,2.506,0.863,3.437
		c0.576,0.93,1.481,1.395,2.717,1.395c0.948,0,1.699-0.289,2.253-0.866s0.938-1.368,1.149-2.371h2.222
		c-0.254,1.803-0.889,3.121-1.904,3.955s-2.315,1.25-3.897,1.25c-1.777,0-3.195-0.649-4.253-1.949s-1.587-2.922-1.587-4.869
		c0-2.387,0.58-4.245,1.739-5.573s2.636-1.993,4.431-1.993C106.196,158.929,107.443,159.301,108.403,160.046z"/>
	<path d="M112.421,154.27h2.323v2.59h-2.323V154.27z M112.421,159.386h2.323v13.533h-2.323V159.386z"/>
	<path d="M125.485,164.69c0.525-0.067,0.876-0.287,1.054-0.659c0.102-0.204,0.152-0.497,0.152-0.879c0-0.781-0.277-1.349-0.83-1.701
		s-1.345-0.529-2.375-0.529c-1.191,0-2.036,0.323-2.534,0.97c-0.279,0.357-0.46,0.889-0.545,1.595h-2.133
		c0.042-1.681,0.585-2.85,1.629-3.507s2.255-0.987,3.633-0.987c1.598,0,2.896,0.305,3.893,0.914
		c0.989,0.609,1.483,1.557,1.483,2.844v7.833c0,0.237,0.049,0.428,0.146,0.571s0.303,0.215,0.616,0.215
		c0.102,0,0.216-0.006,0.343-0.019s0.262-0.032,0.406-0.057v1.688c-0.355,0.102-0.626,0.165-0.812,0.19s-0.44,0.038-0.762,0.038
		c-0.787,0-1.358-0.279-1.714-0.838c-0.186-0.296-0.317-0.715-0.394-1.256c-0.465,0.609-1.134,1.138-2.006,1.586
		c-0.872,0.449-1.833,0.673-2.882,0.673c-1.261,0-2.292-0.383-3.091-1.147c-0.8-0.765-1.2-1.722-1.2-2.872
		c0-1.259,0.394-2.236,1.181-2.929c0.787-0.693,1.82-1.12,3.098-1.281L125.485,164.69z M120.673,170.864
		c0.482,0.38,1.054,0.57,1.714,0.57c0.804,0,1.583-0.186,2.336-0.558c1.27-0.617,1.904-1.626,1.904-3.029v-1.838
		c-0.279,0.178-0.638,0.327-1.077,0.446c-0.439,0.119-0.87,0.204-1.292,0.254l-1.381,0.177c-0.828,0.11-1.45,0.283-1.867,0.52
		c-0.707,0.397-1.06,1.03-1.06,1.9C119.95,169.964,120.191,170.483,120.673,170.864z"/>
	<path d="M142.167,159.322v9.026c0,0.694,0.107,1.261,0.322,1.701c0.396,0.812,1.133,1.219,2.213,1.219
		c1.549,0,2.604-0.711,3.165-2.133c0.305-0.762,0.458-1.807,0.458-3.136v-6.678h2.285v13.597h-2.158l0.025-2.006
		c-0.291,0.516-0.652,0.952-1.084,1.308c-0.855,0.711-1.893,1.066-3.114,1.066c-1.902,0-3.198-0.647-3.887-1.942
		c-0.374-0.694-0.561-1.621-0.561-2.78v-9.242H142.167z"/>
	<path d="M154.341,159.322h2.171v1.93c0.643-0.795,1.325-1.367,2.044-1.714s1.519-0.521,2.399-0.521c1.93,0,3.233,0.673,3.91,2.019
		c0.373,0.736,0.559,1.79,0.559,3.161v8.722h-2.323v-8.569c0-0.83-0.123-1.498-0.368-2.006c-0.406-0.846-1.143-1.27-2.209-1.27
		c-0.542,0-0.986,0.055-1.333,0.165c-0.626,0.186-1.176,0.559-1.65,1.117c-0.381,0.449-0.628,0.912-0.743,1.39
		s-0.171,1.162-0.171,2.05v7.122h-2.285V159.322z"/>
	<path d="M188.744,154.803c1.827,0.973,2.945,2.679,3.354,5.116h-2.501c-0.298-1.363-0.916-2.355-1.853-2.977
		s-2.118-0.933-3.543-0.933c-1.691,0-3.115,0.647-4.271,1.942c-1.156,1.295-1.734,3.225-1.734,5.789
		c0,2.217,0.477,4.022,1.431,5.415c0.954,1.392,2.509,2.088,4.666,2.088c1.65,0,3.017-0.489,4.1-1.466
		c1.082-0.978,1.636-2.558,1.662-4.742h-5.84v-2.095h8.188v9.979h-1.625l-0.609-2.399c-0.841,0.939-1.586,1.591-2.235,1.955
		c-1.091,0.626-2.477,0.939-4.159,0.939c-2.173,0-4.042-0.715-5.607-2.146c-1.707-1.794-2.56-4.257-2.56-7.389
		c0-3.123,0.834-5.607,2.502-7.452c1.585-1.76,3.637-2.641,6.156-2.641C185.991,153.787,187.484,154.125,188.744,154.803z"/>
	<path d="M196.858,154.27h8.477c1.396,0,2.547,0.208,3.453,0.622c1.72,0.795,2.581,2.264,2.581,4.405
		c0,1.117-0.23,2.031-0.692,2.742s-1.106,1.282-1.936,1.714c0.728,0.296,1.276,0.686,1.644,1.168s0.573,1.265,0.616,2.349
		l0.089,2.501c0.025,0.711,0.084,1.24,0.178,1.587c0.152,0.592,0.423,0.973,0.812,1.143v0.419h-3.098
		c-0.084-0.161-0.152-0.368-0.203-0.622s-0.093-0.745-0.127-1.473l-0.152-3.11c-0.058-1.219-0.498-2.036-1.32-2.45
		c-0.469-0.229-1.205-0.343-2.208-0.343h-5.587v7.998h-2.526V154.27z M205.063,162.813c1.152,0,2.063-0.237,2.734-0.711
		s1.006-1.329,1.006-2.564c0-1.329-0.469-2.234-1.407-2.717c-0.502-0.254-1.173-0.381-2.013-0.381h-6v6.373H205.063z"/>
	<path d="M220.772,154.27h2.852l6.769,18.649h-2.768l-1.947-5.586h-7.317l-2.022,5.586h-2.59L220.772,154.27z M224.961,165.276
		l-2.871-8.239l-2.983,8.239H224.961z"/>
	<path d="M232.671,154.27h2.976l9.3,15.068V154.27h2.412v18.649h-2.838l-9.438-15.05v15.05h-2.412V154.27z"/>
	<path d="M260.322,166.901c0.057,1.058,0.297,1.917,0.722,2.577c0.807,1.236,2.229,1.854,4.268,1.854
		c0.913,0,1.745-0.135,2.495-0.406c1.451-0.525,2.177-1.464,2.177-2.818c0-1.016-0.308-1.739-0.922-2.171
		c-0.624-0.423-1.599-0.792-2.927-1.104l-2.447-0.571c-1.599-0.373-2.73-0.783-3.395-1.231c-1.148-0.779-1.722-1.942-1.722-3.491
		c0-1.676,0.564-3.051,1.692-4.126s2.726-1.612,4.793-1.612c1.903,0,3.519,0.472,4.849,1.416s1.995,2.452,1.995,4.526h-2.374
		c-0.122-0.999-0.381-1.765-0.779-2.298c-0.739-0.973-1.992-1.46-3.761-1.46c-1.428,0-2.455,0.313-3.08,0.939
		s-0.937,1.354-0.937,2.184c0,0.914,0.369,1.583,1.107,2.006c0.484,0.271,1.579,0.609,3.285,1.016l2.534,0.597
		c1.222,0.288,2.165,0.681,2.829,1.181c1.148,0.872,1.722,2.137,1.722,3.796c0,2.065-0.732,3.542-2.198,4.431
		c-1.465,0.889-3.167,1.333-5.107,1.333c-2.262,0-4.032-0.592-5.312-1.777c-1.28-1.176-1.907-2.772-1.882-4.786H260.322z"/>
	<path d="M278.743,154.27v11.527c0,1.354,0.256,2.48,0.768,3.377c0.759,1.354,2.039,2.031,3.839,2.031
		c2.158,0,3.625-0.732,4.402-2.196c0.418-0.795,0.627-1.866,0.627-3.212V154.27h2.552v10.474c0,2.293-0.31,4.058-0.93,5.294
		c-1.139,2.251-3.287,3.377-6.446,3.377s-5.304-1.125-6.434-3.377c-0.62-1.236-0.93-3-0.93-5.294V154.27H278.743z"/>
	<path d="M295.031,154.27h13.533v2.285h-11.07v5.662h10.232v2.158h-10.232v6.322h11.261v2.222h-13.724V154.27z"/>
	<path d="M312.131,154.27h2.976l9.3,15.068V154.27h2.412v18.649h-2.838l-9.438-15.05v15.05h-2.412V154.27z M320.333,150.385
		c0.237,0.102,0.453,0.182,0.647,0.241s0.394,0.089,0.597,0.089c0.474,0,0.812-0.148,1.016-0.444
		c0.11-0.161,0.186-0.402,0.229-0.724h1.333c-0.178,1.075-0.519,1.815-1.022,2.222s-1.056,0.609-1.657,0.609
		c-0.186,0-0.423-0.034-0.711-0.102s-0.542-0.144-0.762-0.229l-0.673-0.241c-0.398-0.144-0.722-0.252-0.971-0.324
		s-0.493-0.108-0.73-0.108c-0.296,0-0.54,0.097-0.73,0.292s-0.319,0.491-0.387,0.889h-1.244c0.11-0.668,0.292-1.214,0.546-1.638
		c0.482-0.779,1.198-1.168,2.146-1.168c0.288,0,0.607,0.042,0.958,0.127S319.74,150.131,320.333,150.385z"/>
	<path d="M346.269,156.936c1.236,1.65,1.854,3.762,1.854,6.335c0,2.785-0.707,5.099-2.12,6.944c-1.659,2.167-4.024,3.25-7.097,3.25
		c-2.869,0-5.125-0.948-6.767-2.844c-1.464-1.828-2.196-4.139-2.196-6.932c0-2.522,0.626-4.68,1.879-6.475
		c1.608-2.302,3.986-3.453,7.135-3.453C342.249,153.762,344.687,154.82,346.269,156.936z M344.041,168.823
		c0.995-1.597,1.492-3.433,1.492-5.508c0-2.194-0.573-3.96-1.72-5.298s-2.715-2.008-4.704-2.008c-1.93,0-3.504,0.663-4.723,1.989
		s-1.828,3.28-1.828,5.863c0,2.067,0.522,3.81,1.568,5.229c1.045,1.419,2.74,2.128,5.084,2.128
		C341.437,171.218,343.046,170.419,344.041,168.823z"/>
	<path d="M352.033,159.5h2.704v2.768h-2.704V159.5z M352.033,175.585c0.592-0.111,1.003-0.506,1.231-1.186
		c0.119-0.357,0.178-0.749,0.178-1.174c0-0.042-0.002-0.079-0.006-0.108s-0.011-0.096-0.019-0.198h-1.384v-2.768h2.704v2.564
		c0,0.906-0.131,1.663-0.394,2.272c-0.44,0.999-1.21,1.595-2.311,1.79V175.585z"/>
	<path d="M59.881,190.941c0.405,0.254,0.864,0.698,1.378,1.333v-6.868h2.196v18.713h-2.057v-1.892
		c-0.531,0.838-1.16,1.443-1.884,1.815c-0.726,0.373-1.556,0.559-2.492,0.559c-1.509,0-2.816-0.637-3.92-1.911
		s-1.657-2.969-1.657-5.084c0-1.98,0.503-3.696,1.511-5.148c1.007-1.452,2.447-2.177,4.319-2.177
		C58.313,190.281,59.181,190.501,59.881,190.941z M54.78,201.135c0.615,0.982,1.6,1.473,2.956,1.473
		c1.052,0,1.917-0.455,2.596-1.365c0.678-0.91,1.017-2.215,1.017-3.917c0-1.718-0.35-2.99-1.048-3.815
		c-0.699-0.825-1.562-1.238-2.589-1.238c-1.146,0-2.074,0.44-2.785,1.32c-0.712,0.88-1.067,2.175-1.067,3.885
		C53.858,198.935,54.165,200.153,54.78,201.135z"/>
	<path d="M74.158,195.89c0.525-0.067,0.876-0.287,1.054-0.659c0.102-0.204,0.152-0.497,0.152-0.879c0-0.781-0.277-1.349-0.83-1.701
		s-1.345-0.529-2.375-0.529c-1.191,0-2.036,0.323-2.534,0.97c-0.279,0.357-0.46,0.889-0.545,1.595h-2.133
		c0.042-1.681,0.585-2.85,1.629-3.507s2.255-0.987,3.633-0.987c1.598,0,2.896,0.305,3.893,0.914
		c0.989,0.609,1.483,1.557,1.483,2.844v7.833c0,0.237,0.049,0.428,0.146,0.571s0.303,0.215,0.616,0.215
		c0.102,0,0.216-0.006,0.343-0.019s0.262-0.032,0.406-0.057v1.688c-0.355,0.102-0.626,0.165-0.812,0.19s-0.44,0.038-0.762,0.038
		c-0.787,0-1.358-0.279-1.714-0.838c-0.186-0.296-0.317-0.715-0.394-1.256c-0.465,0.609-1.134,1.138-2.006,1.586
		c-0.872,0.449-1.833,0.673-2.882,0.673c-1.261,0-2.292-0.383-3.091-1.147c-0.8-0.765-1.2-1.722-1.2-2.872
		c0-1.259,0.394-2.236,1.181-2.929c0.787-0.693,1.82-1.12,3.098-1.281L74.158,195.89z M69.346,202.063
		c0.482,0.38,1.054,0.57,1.714,0.57c0.804,0,1.583-0.186,2.336-0.558c1.27-0.617,1.904-1.626,1.904-3.029v-1.838
		c-0.279,0.178-0.638,0.327-1.077,0.446c-0.439,0.119-0.87,0.204-1.292,0.254l-1.381,0.177c-0.828,0.11-1.45,0.283-1.867,0.52
		c-0.707,0.397-1.06,1.03-1.06,1.9C68.623,201.164,68.864,201.683,69.346,202.063z"/>
	<path d="M81.394,190.522h2.171v2.349c0.178-0.457,0.614-1.014,1.308-1.669s1.494-0.984,2.399-0.984
		c0.042,0,0.114,0.004,0.216,0.013s0.275,0.025,0.521,0.051v2.412c-0.135-0.025-0.26-0.042-0.375-0.051s-0.239-0.013-0.375-0.013
		c-1.151,0-2.036,0.37-2.653,1.111s-0.927,1.593-0.927,2.558v7.82h-2.285V190.522z"/>
	<path d="M104.5,195.89c0.525-0.067,0.876-0.287,1.054-0.659c0.102-0.204,0.152-0.497,0.152-0.879c0-0.781-0.277-1.349-0.83-1.701
		s-1.345-0.529-2.375-0.529c-1.191,0-2.036,0.323-2.534,0.97c-0.279,0.357-0.46,0.889-0.545,1.595h-2.133
		c0.042-1.681,0.585-2.85,1.629-3.507s2.255-0.987,3.633-0.987c1.598,0,2.896,0.305,3.893,0.914
		c0.989,0.609,1.483,1.557,1.483,2.844v7.833c0,0.237,0.049,0.428,0.146,0.571s0.303,0.215,0.616,0.215
		c0.102,0,0.216-0.006,0.343-0.019s0.262-0.032,0.406-0.057v1.688c-0.355,0.102-0.626,0.165-0.812,0.19s-0.44,0.038-0.762,0.038
		c-0.787,0-1.358-0.279-1.714-0.838c-0.186-0.296-0.317-0.715-0.394-1.256c-0.465,0.609-1.134,1.138-2.006,1.586
		c-0.872,0.449-1.833,0.673-2.882,0.673c-1.261,0-2.292-0.383-3.091-1.147c-0.8-0.765-1.2-1.722-1.2-2.872
		c0-1.259,0.394-2.236,1.181-2.929c0.787-0.693,1.82-1.12,3.098-1.281L104.5,195.89z M99.688,202.063
		c0.482,0.38,1.054,0.57,1.714,0.57c0.804,0,1.583-0.186,2.336-0.558c1.27-0.617,1.904-1.626,1.904-3.029v-1.838
		c-0.279,0.178-0.638,0.327-1.077,0.446c-0.439,0.119-0.87,0.204-1.292,0.254l-1.381,0.177c-0.828,0.11-1.45,0.283-1.867,0.52
		c-0.707,0.397-1.06,1.03-1.06,1.9C98.964,201.164,99.206,201.683,99.688,202.063z"/>
	<path d="M127.878,191.246c0.96,0.745,1.538,2.027,1.733,3.847h-2.222c-0.135-0.838-0.444-1.534-0.927-2.088
		s-1.257-0.832-2.323-0.832c-1.456,0-2.497,0.71-3.123,2.13c-0.406,0.921-0.609,2.058-0.609,3.411c0,1.361,0.288,2.506,0.863,3.437
		c0.576,0.93,1.481,1.395,2.717,1.395c0.948,0,1.699-0.289,2.253-0.866s0.938-1.368,1.149-2.371h2.222
		c-0.254,1.803-0.889,3.121-1.904,3.955s-2.315,1.25-3.897,1.25c-1.777,0-3.195-0.649-4.253-1.949s-1.587-2.922-1.587-4.869
		c0-2.387,0.58-4.245,1.739-5.573s2.636-1.993,4.431-1.993C125.671,190.128,126.917,190.501,127.878,191.246z"/>
	<path d="M141.748,191.879c1.202,1.167,1.803,2.883,1.803,5.149c0,2.19-0.53,4-1.588,5.429c-1.059,1.429-2.702,2.144-4.929,2.144
		c-1.857,0-3.332-0.632-4.425-1.896s-1.639-2.962-1.639-5.093c0-2.283,0.576-4.102,1.727-5.455c1.151-1.353,2.698-2.029,4.639-2.029
		C139.075,190.128,140.546,190.712,141.748,191.879z M140.329,200.915c0.557-1.145,0.835-2.419,0.835-3.823
		c0-1.268-0.201-2.299-0.603-3.094c-0.636-1.251-1.732-1.877-3.289-1.877c-1.381,0-2.385,0.533-3.013,1.598
		c-0.627,1.065-0.941,2.35-0.941,3.855c0,1.445,0.314,2.65,0.941,3.614c0.627,0.963,1.624,1.445,2.988,1.445
		C138.745,202.633,139.772,202.061,140.329,200.915z"/>
	<path d="M146.356,190.522h2.171v1.93c0.643-0.795,1.325-1.367,2.044-1.714s1.519-0.521,2.399-0.521c1.93,0,3.233,0.673,3.91,2.019
		c0.373,0.736,0.559,1.79,0.559,3.161v8.722h-2.323v-8.569c0-0.83-0.123-1.498-0.368-2.006c-0.406-0.846-1.143-1.27-2.209-1.27
		c-0.542,0-0.986,0.055-1.333,0.165c-0.626,0.186-1.176,0.559-1.65,1.117c-0.381,0.449-0.628,0.912-0.743,1.39
		s-0.171,1.162-0.171,2.05v7.122h-2.285V190.522z"/>
	<path d="M170.667,191.879c1.202,1.167,1.803,2.883,1.803,5.149c0,2.19-0.53,4-1.588,5.429c-1.059,1.429-2.702,2.144-4.929,2.144
		c-1.857,0-3.332-0.632-4.425-1.896s-1.639-2.962-1.639-5.093c0-2.283,0.576-4.102,1.727-5.455c1.151-1.353,2.698-2.029,4.639-2.029
		C167.995,190.128,169.466,190.712,170.667,191.879z M169.249,200.915c0.557-1.145,0.835-2.419,0.835-3.823
		c0-1.268-0.201-2.299-0.603-3.094c-0.636-1.251-1.732-1.877-3.289-1.877c-1.381,0-2.385,0.533-3.013,1.598
		c-0.627,1.065-0.941,2.35-0.941,3.855c0,1.445,0.314,2.65,0.941,3.614c0.627,0.963,1.624,1.445,2.988,1.445
		C167.665,202.633,168.692,202.061,169.249,200.915z"/>
	<path d="M184.258,191.246c0.96,0.745,1.538,2.027,1.733,3.847h-2.222c-0.135-0.838-0.444-1.534-0.927-2.088
		s-1.257-0.832-2.323-0.832c-1.456,0-2.497,0.71-3.123,2.13c-0.406,0.921-0.609,2.058-0.609,3.411c0,1.361,0.288,2.506,0.863,3.437
		c0.576,0.93,1.481,1.395,2.717,1.395c0.948,0,1.699-0.289,2.253-0.866s0.938-1.368,1.149-2.371h2.222
		c-0.254,1.803-0.889,3.121-1.904,3.955s-2.315,1.25-3.897,1.25c-1.777,0-3.195-0.649-4.253-1.949s-1.587-2.922-1.587-4.869
		c0-2.387,0.58-4.245,1.739-5.573s2.636-1.993,4.431-1.993C182.051,190.128,183.297,190.501,184.258,191.246z"/>
	<path d="M196.674,190.896c0.9,0.453,1.585,1.039,2.057,1.758c0.454,0.686,0.757,1.485,0.908,2.399
		c0.135,0.626,0.202,1.625,0.202,2.996h-9.89c0.042,1.383,0.365,2.493,0.97,3.329c0.604,0.836,1.541,1.254,2.809,1.254
		c1.184,0,2.129-0.396,2.834-1.186c0.395-0.459,0.674-0.99,0.839-1.594h2.247c-0.059,0.5-0.256,1.056-0.59,1.669
		s-0.708,1.115-1.119,1.504c-0.689,0.677-1.542,1.134-2.558,1.371c-0.546,0.135-1.164,0.203-1.853,0.203
		c-1.682,0-3.107-0.616-4.277-1.847c-1.169-1.231-1.753-2.956-1.753-5.173c0-2.184,0.589-3.957,1.767-5.319
		c1.177-1.363,2.717-2.044,4.618-2.044C194.845,190.217,195.774,190.444,196.674,190.896z M197.493,196.235
		c-0.092-0.99-0.307-1.782-0.642-2.374c-0.621-1.1-1.658-1.65-3.109-1.65c-1.041,0-1.914,0.379-2.619,1.136
		c-0.705,0.757-1.078,1.72-1.12,2.888H197.493z"/>
	<path d="M202.799,190.522h2.171v2.349c0.178-0.457,0.614-1.014,1.308-1.669s1.494-0.984,2.399-0.984
		c0.042,0,0.114,0.004,0.216,0.013s0.275,0.025,0.521,0.051v2.412c-0.135-0.025-0.26-0.042-0.375-0.051s-0.239-0.013-0.375-0.013
		c-1.151,0-2.036,0.37-2.653,1.111s-0.927,1.593-0.927,2.558v7.82h-2.285V190.522z"/>
	<path d="M227.016,190.896c0.9,0.453,1.585,1.039,2.057,1.758c0.454,0.686,0.757,1.485,0.908,2.399
		c0.135,0.626,0.202,1.625,0.202,2.996h-9.89c0.042,1.383,0.365,2.493,0.97,3.329c0.604,0.836,1.541,1.254,2.809,1.254
		c1.184,0,2.129-0.396,2.834-1.186c0.395-0.459,0.674-0.99,0.839-1.594h2.247c-0.059,0.5-0.256,1.056-0.59,1.669
		s-0.708,1.115-1.119,1.504c-0.689,0.677-1.542,1.134-2.558,1.371c-0.546,0.135-1.164,0.203-1.853,0.203
		c-1.682,0-3.107-0.616-4.277-1.847c-1.169-1.231-1.753-2.956-1.753-5.173c0-2.184,0.589-3.957,1.767-5.319
		c1.177-1.363,2.717-2.044,4.618-2.044C225.187,190.217,226.116,190.444,227.016,190.896z M227.834,196.235
		c-0.092-0.99-0.307-1.782-0.642-2.374c-0.621-1.1-1.658-1.65-3.109-1.65c-1.041,0-1.914,0.379-2.619,1.136
		c-0.705,0.757-1.078,1.72-1.12,2.888H227.834z"/>
	<path d="M234.436,199.853c0.069,0.762,0.263,1.346,0.583,1.752c0.587,0.736,1.607,1.104,3.058,1.104
		c0.864,0,1.624-0.184,2.28-0.552s0.985-0.938,0.985-1.708c0-0.584-0.262-1.028-0.787-1.333c-0.335-0.186-0.998-0.402-1.987-0.647
		l-1.845-0.457c-1.178-0.288-2.047-0.609-2.606-0.965c-0.998-0.618-1.497-1.473-1.497-2.564c0-1.287,0.47-2.328,1.409-3.123
		s2.202-1.193,3.789-1.193c2.076,0,3.572,0.601,4.49,1.803c0.575,0.762,0.854,1.583,0.837,2.463h-2.158
		c-0.043-0.513-0.229-0.98-0.559-1.401c-0.538-0.598-1.469-0.896-2.794-0.896c-0.884,0-1.553,0.165-2.008,0.493
		c-0.455,0.329-0.682,0.764-0.682,1.303c0,0.59,0.299,1.062,0.896,1.417c0.345,0.211,0.854,0.397,1.526,0.558l1.539,0.368
		c1.673,0.398,2.794,0.783,3.363,1.155c0.889,0.584,1.333,1.502,1.333,2.755c0,1.21-0.465,2.255-1.395,3.136s-2.346,1.32-4.248,1.32
		c-2.048,0-3.498-0.459-4.351-1.377c-0.853-0.918-1.309-2.055-1.369-3.409H234.436z"/>
	<path d="M246.535,186.726h2.311v3.796h2.171v1.866h-2.171v8.874c0,0.474,0.161,0.792,0.482,0.952
		c0.178,0.093,0.474,0.14,0.889,0.14c0.11,0,0.229-0.003,0.355-0.008s0.275-0.02,0.444-0.042v1.815
		c-0.262,0.076-0.535,0.131-0.819,0.165s-0.59,0.051-0.92,0.051c-1.066,0-1.79-0.273-2.171-0.819s-0.571-1.255-0.571-2.126v-9.001
		h-1.841v-1.866h1.841V186.726z"/>
	<path d="M261.7,190.896c0.9,0.453,1.585,1.039,2.057,1.758c0.454,0.686,0.757,1.485,0.908,2.399
		c0.135,0.626,0.202,1.625,0.202,2.996h-9.89c0.042,1.383,0.365,2.493,0.97,3.329c0.604,0.836,1.541,1.254,2.809,1.254
		c1.184,0,2.129-0.396,2.834-1.186c0.395-0.459,0.674-0.99,0.839-1.594h2.247c-0.059,0.5-0.256,1.056-0.59,1.669
		s-0.708,1.115-1.119,1.504c-0.689,0.677-1.542,1.134-2.558,1.371c-0.546,0.135-1.164,0.203-1.853,0.203
		c-1.682,0-3.107-0.616-4.277-1.847c-1.169-1.231-1.753-2.956-1.753-5.173c0-2.184,0.589-3.957,1.767-5.319
		c1.177-1.363,2.717-2.044,4.618-2.044C259.87,190.217,260.799,190.444,261.7,190.896z M262.518,196.235
		c-0.092-0.99-0.307-1.782-0.642-2.374c-0.621-1.1-1.658-1.65-3.109-1.65c-1.041,0-1.914,0.379-2.619,1.136
		c-0.705,0.757-1.078,1.72-1.12,2.888H262.518z"/>
	<path d="M274.985,185.406h2.285v6.957c0.542-0.686,1.028-1.168,1.46-1.447c0.736-0.482,1.655-0.724,2.755-0.724
		c1.972,0,3.309,0.69,4.012,2.069c0.381,0.753,0.571,1.798,0.571,3.136v8.722h-2.349v-8.569c0-0.999-0.127-1.731-0.381-2.196
		c-0.415-0.745-1.193-1.117-2.336-1.117c-0.948,0-1.807,0.326-2.577,0.978s-1.155,1.883-1.155,3.694v7.211h-2.285V185.406z"/>
	<path d="M297.843,190.896c0.9,0.453,1.585,1.039,2.057,1.758c0.454,0.686,0.757,1.485,0.908,2.399
		c0.135,0.626,0.202,1.625,0.202,2.996h-9.89c0.042,1.383,0.365,2.493,0.97,3.329c0.604,0.836,1.541,1.254,2.809,1.254
		c1.184,0,2.129-0.396,2.834-1.186c0.395-0.459,0.674-0.99,0.839-1.594h2.247c-0.059,0.5-0.256,1.056-0.59,1.669
		s-0.708,1.115-1.119,1.504c-0.689,0.677-1.542,1.134-2.558,1.371c-0.546,0.135-1.164,0.203-1.853,0.203
		c-1.682,0-3.107-0.616-4.277-1.847c-1.169-1.231-1.753-2.956-1.753-5.173c0-2.184,0.589-3.957,1.767-5.319
		c1.177-1.363,2.717-2.044,4.618-2.044C296.014,190.217,296.943,190.444,297.843,190.896z M298.662,196.235
		c-0.092-0.99-0.307-1.782-0.642-2.374c-0.621-1.1-1.658-1.65-3.109-1.65c-1.041,0-1.914,0.379-2.619,1.136
		c-0.705,0.757-1.078,1.72-1.12,2.888H298.662z"/>
	<path d="M303.968,190.522h2.171v2.349c0.178-0.457,0.614-1.014,1.308-1.669s1.494-0.984,2.399-0.984
		c0.042,0,0.114,0.004,0.216,0.013s0.275,0.025,0.521,0.051v2.412c-0.135-0.025-0.26-0.042-0.375-0.051s-0.239-0.013-0.375-0.013
		c-1.151,0-2.036,0.37-2.653,1.111s-0.927,1.593-0.927,2.558v7.82h-2.285V190.522z"/>
	<path d="M312.563,190.522h2.26v1.93c0.542-0.668,1.033-1.155,1.473-1.46c0.753-0.516,1.608-0.774,2.564-0.774
		c1.083,0,1.955,0.267,2.615,0.8c0.373,0.305,0.711,0.753,1.016,1.346c0.508-0.728,1.104-1.268,1.79-1.619s1.456-0.527,2.311-0.527
		c1.828,0,3.072,0.66,3.732,1.98c0.355,0.711,0.533,1.667,0.533,2.869v9.052h-2.374v-9.445c0-0.906-0.227-1.528-0.679-1.866
		s-1.005-0.508-1.657-0.508c-0.897,0-1.669,0.3-2.317,0.901s-0.971,1.604-0.971,3.009v7.909h-2.323v-8.874
		c0-0.922-0.11-1.595-0.33-2.019c-0.347-0.635-0.995-0.952-1.942-0.952c-0.863,0-1.648,0.334-2.355,1.003s-1.06,1.879-1.06,3.631
		v7.211h-2.285V190.522z"/>
	<path d="M344.073,191.879c1.202,1.167,1.803,2.883,1.803,5.149c0,2.19-0.53,4-1.588,5.429c-1.059,1.429-2.702,2.144-4.929,2.144
		c-1.857,0-3.332-0.632-4.425-1.896s-1.639-2.962-1.639-5.093c0-2.283,0.576-4.102,1.727-5.455c1.151-1.353,2.698-2.029,4.639-2.029
		C341.4,190.128,342.871,190.712,344.073,191.879z M342.654,200.915c0.557-1.145,0.835-2.419,0.835-3.823
		c0-1.268-0.201-2.299-0.603-3.094c-0.636-1.251-1.732-1.877-3.289-1.877c-1.381,0-2.385,0.533-3.013,1.598
		c-0.627,1.065-0.941,2.35-0.941,3.855c0,1.445,0.314,2.65,0.941,3.614c0.627,0.963,1.624,1.445,2.988,1.445
		C341.07,202.633,342.097,202.061,342.654,200.915z"/>
	<path d="M350.04,199.853c0.069,0.762,0.263,1.346,0.583,1.752c0.587,0.736,1.607,1.104,3.058,1.104c0.864,0,1.624-0.184,2.28-0.552
		s0.985-0.938,0.985-1.708c0-0.584-0.262-1.028-0.787-1.333c-0.335-0.186-0.998-0.402-1.987-0.647l-1.845-0.457
		c-1.178-0.288-2.047-0.609-2.606-0.965c-0.998-0.618-1.497-1.473-1.497-2.564c0-1.287,0.47-2.328,1.409-3.123
		s2.202-1.193,3.789-1.193c2.076,0,3.572,0.601,4.49,1.803c0.575,0.762,0.854,1.583,0.837,2.463h-2.158
		c-0.043-0.513-0.229-0.98-0.559-1.401c-0.538-0.598-1.469-0.896-2.794-0.896c-0.884,0-1.553,0.165-2.008,0.493
		c-0.455,0.329-0.682,0.764-0.682,1.303c0,0.59,0.299,1.062,0.896,1.417c0.345,0.211,0.854,0.397,1.526,0.558l1.539,0.368
		c1.673,0.398,2.794,0.783,3.363,1.155c0.889,0.584,1.333,1.502,1.333,2.755c0,1.21-0.465,2.255-1.395,3.136s-2.346,1.32-4.248,1.32
		c-2.048,0-3.498-0.459-4.351-1.377c-0.853-0.918-1.309-2.055-1.369-3.409H350.04z"/>
	<path d="M371.533,191.879c1.202,1.167,1.803,2.883,1.803,5.149c0,2.19-0.53,4-1.588,5.429c-1.059,1.429-2.702,2.144-4.929,2.144
		c-1.857,0-3.332-0.632-4.425-1.896s-1.639-2.962-1.639-5.093c0-2.283,0.576-4.102,1.727-5.455c1.151-1.353,2.698-2.029,4.639-2.029
		C368.86,190.128,370.331,190.712,371.533,191.879z M370.114,200.915c0.557-1.145,0.835-2.419,0.835-3.823
		c0-1.268-0.201-2.299-0.603-3.094c-0.636-1.251-1.732-1.877-3.289-1.877c-1.381,0-2.385,0.533-3.013,1.598
		c-0.627,1.065-0.941,2.35-0.941,3.855c0,1.445,0.314,2.65,0.941,3.614c0.627,0.963,1.624,1.445,2.988,1.445
		C368.53,202.633,369.557,202.061,370.114,200.915z"/>
	<path d="M94.108,221.786h2.234v1.803c0.458-0.618,0.959-1.096,1.502-1.435c0.772-0.508,1.68-0.762,2.724-0.762
		c1.544,0,2.855,0.59,3.933,1.771s1.617,2.867,1.617,5.059c0,2.962-0.777,5.078-2.333,6.348c-0.985,0.804-2.133,1.206-3.441,1.206
		c-1.028,0-1.891-0.224-2.587-0.673c-0.408-0.254-0.862-0.69-1.364-1.308v6.944h-2.285V221.786z M102.706,232.443
		c0.709-0.893,1.063-2.228,1.063-4.005c0-1.083-0.157-2.014-0.471-2.793c-0.595-1.498-1.682-2.247-3.261-2.247
		c-1.588,0-2.675,0.792-3.261,2.374c-0.314,0.846-0.471,1.921-0.471,3.225c0,1.049,0.157,1.942,0.471,2.679
		c0.594,1.405,1.682,2.107,3.261,2.107C101.107,233.783,101.997,233.336,102.706,232.443z"/>
	<path d="M111.044,221.722v9.026c0,0.694,0.107,1.261,0.322,1.701c0.396,0.812,1.133,1.219,2.213,1.219
		c1.549,0,2.604-0.711,3.165-2.133c0.305-0.762,0.458-1.807,0.458-3.136v-6.678h2.285v13.597h-2.158l0.025-2.006
		c-0.291,0.516-0.652,0.952-1.084,1.308c-0.855,0.711-1.893,1.066-3.114,1.066c-1.902,0-3.198-0.647-3.887-1.942
		c-0.374-0.694-0.561-1.621-0.561-2.78v-9.242H111.044z"/>
	<path d="M131.617,222.097c0.9,0.453,1.585,1.039,2.057,1.758c0.454,0.686,0.757,1.485,0.908,2.399
		c0.135,0.626,0.202,1.625,0.202,2.996h-9.89c0.042,1.383,0.365,2.493,0.97,3.329c0.604,0.836,1.541,1.254,2.809,1.254
		c1.184,0,2.129-0.396,2.834-1.186c0.395-0.459,0.674-0.99,0.839-1.594h2.247c-0.059,0.5-0.256,1.056-0.59,1.669
		s-0.708,1.115-1.119,1.504c-0.689,0.677-1.542,1.134-2.558,1.371c-0.546,0.135-1.164,0.203-1.853,0.203
		c-1.682,0-3.107-0.616-4.277-1.847c-1.169-1.231-1.753-2.956-1.753-5.173c0-2.184,0.589-3.957,1.767-5.319
		c1.177-1.363,2.717-2.044,4.618-2.044C129.788,221.417,130.717,221.644,131.617,222.097z M132.436,227.435
		c-0.092-0.99-0.307-1.782-0.642-2.374c-0.621-1.1-1.658-1.65-3.109-1.65c-1.041,0-1.914,0.379-2.619,1.136
		c-0.705,0.757-1.078,1.72-1.12,2.888H132.436z"/>
	<path d="M137.488,216.606h2.222v6.767c0.501-0.652,1.1-1.149,1.797-1.492s1.453-0.514,2.269-0.514c1.699,0,3.078,0.582,4.136,1.746
		c1.058,1.164,1.587,2.88,1.587,5.148c0,2.15-0.522,3.936-1.568,5.357c-1.045,1.422-2.494,2.133-4.346,2.133
		c-1.037,0-1.912-0.25-2.625-0.749c-0.425-0.296-0.879-0.77-1.364-1.422v1.739h-2.107V216.606z M146.226,232.259
		c0.616-0.982,0.924-2.277,0.924-3.885c0-1.43-0.308-2.615-0.924-3.555c-0.615-0.939-1.522-1.409-2.719-1.409
		c-1.044,0-1.959,0.385-2.745,1.155s-1.178,2.04-1.178,3.809c0,1.278,0.161,2.315,0.484,3.11c0.603,1.498,1.728,2.247,3.375,2.247
		C144.682,233.732,145.61,233.241,146.226,232.259z"/>
	<path d="M152.202,216.669h2.285v18.649h-2.285V216.669z"/>
	<path d="M167.767,223.079c1.202,1.167,1.803,2.883,1.803,5.149c0,2.19-0.53,4-1.588,5.429c-1.059,1.429-2.702,2.144-4.929,2.144
		c-1.857,0-3.332-0.632-4.425-1.896s-1.639-2.962-1.639-5.093c0-2.283,0.576-4.102,1.727-5.455c1.151-1.353,2.698-2.029,4.639-2.029
		C165.094,221.329,166.565,221.912,167.767,223.079z M166.348,232.115c0.557-1.145,0.835-2.419,0.835-3.823
		c0-1.268-0.201-2.299-0.603-3.094c-0.636-1.251-1.732-1.877-3.289-1.877c-1.381,0-2.385,0.533-3.013,1.598
		c-0.627,1.065-0.941,2.35-0.941,3.855c0,1.445,0.314,2.65,0.941,3.614c0.627,0.963,1.624,1.445,2.988,1.445
		C164.764,233.833,165.791,233.261,166.348,232.115z"/>
	<path d="M179.408,221.786h2.234v1.803c0.458-0.618,0.959-1.096,1.502-1.435c0.772-0.508,1.68-0.762,2.724-0.762
		c1.544,0,2.855,0.59,3.933,1.771s1.617,2.867,1.617,5.059c0,2.962-0.777,5.078-2.333,6.348c-0.985,0.804-2.133,1.206-3.441,1.206
		c-1.028,0-1.891-0.224-2.587-0.673c-0.408-0.254-0.862-0.69-1.364-1.308v6.944h-2.285V221.786z M188.006,232.443
		c0.709-0.893,1.063-2.228,1.063-4.005c0-1.083-0.157-2.014-0.471-2.793c-0.595-1.498-1.682-2.247-3.261-2.247
		c-1.588,0-2.675,0.792-3.261,2.374c-0.314,0.846-0.471,1.921-0.471,3.225c0,1.049,0.157,1.942,0.471,2.679
		c0.594,1.405,1.682,2.107,3.261,2.107C186.407,233.783,187.296,233.336,188.006,232.443z"/>
	<path d="M194.122,221.722h2.171v2.349c0.178-0.457,0.614-1.014,1.308-1.669s1.494-0.984,2.399-0.984
		c0.042,0,0.114,0.004,0.216,0.013s0.275,0.025,0.521,0.051v2.412c-0.135-0.025-0.26-0.042-0.375-0.051s-0.239-0.013-0.375-0.013
		c-1.151,0-2.036,0.37-2.653,1.111s-0.927,1.593-0.927,2.558v7.82h-2.285V221.722z"/>
	<path d="M211.115,222.097c0.9,0.453,1.585,1.039,2.057,1.758c0.454,0.686,0.757,1.485,0.908,2.399
		c0.135,0.626,0.202,1.625,0.202,2.996h-9.89c0.042,1.383,0.365,2.493,0.97,3.329c0.604,0.836,1.541,1.254,2.809,1.254
		c1.184,0,2.129-0.396,2.834-1.186c0.395-0.459,0.674-0.99,0.839-1.594h2.247c-0.059,0.5-0.256,1.056-0.59,1.669
		s-0.708,1.115-1.119,1.504c-0.689,0.677-1.542,1.134-2.558,1.371c-0.546,0.135-1.164,0.203-1.853,0.203
		c-1.682,0-3.107-0.616-4.277-1.847c-1.169-1.231-1.753-2.956-1.753-5.173c0-2.184,0.589-3.957,1.767-5.319
		c1.177-1.363,2.717-2.044,4.618-2.044C209.286,221.417,210.215,221.644,211.115,222.097z M211.934,227.435
		c-0.092-0.99-0.307-1.782-0.642-2.374c-0.621-1.1-1.658-1.65-3.109-1.65c-1.041,0-1.914,0.379-2.619,1.136
		c-0.705,0.757-1.078,1.72-1.12,2.888H211.934z"/>
	<path d="M217.177,216.606h2.285v6.957c0.542-0.686,1.028-1.168,1.46-1.447c0.736-0.482,1.655-0.724,2.755-0.724
		c1.972,0,3.309,0.69,4.012,2.069c0.381,0.753,0.571,1.798,0.571,3.136v8.722h-2.349v-8.569c0-0.999-0.127-1.731-0.381-2.196
		c-0.415-0.745-1.193-1.117-2.336-1.117c-0.948,0-1.807,0.326-2.577,0.978s-1.155,1.883-1.155,3.694v7.211h-2.285V216.606z"/>
	<path d="M231.637,216.669h2.323v2.59h-2.323V216.669z M231.637,221.786h2.323v13.533h-2.323V221.786z"/>
	<path d="M238.771,231.053c0.069,0.762,0.263,1.346,0.583,1.752c0.587,0.736,1.607,1.104,3.058,1.104
		c0.864,0,1.624-0.184,2.28-0.552s0.985-0.938,0.985-1.708c0-0.584-0.262-1.028-0.787-1.333c-0.335-0.186-0.998-0.402-1.987-0.647
		l-1.845-0.457c-1.178-0.288-2.047-0.609-2.606-0.965c-0.998-0.618-1.497-1.473-1.497-2.564c0-1.287,0.47-2.328,1.409-3.123
		s2.202-1.193,3.789-1.193c2.076,0,3.572,0.601,4.49,1.803c0.575,0.762,0.854,1.583,0.837,2.463h-2.158
		c-0.043-0.513-0.229-0.98-0.559-1.401c-0.538-0.598-1.469-0.896-2.794-0.896c-0.884,0-1.553,0.165-2.008,0.493
		c-0.455,0.329-0.682,0.764-0.682,1.303c0,0.59,0.299,1.062,0.896,1.417c0.345,0.211,0.854,0.397,1.526,0.558l1.539,0.368
		c1.673,0.398,2.794,0.783,3.363,1.155c0.889,0.584,1.333,1.502,1.333,2.755c0,1.21-0.465,2.255-1.395,3.136s-2.346,1.32-4.248,1.32
		c-2.048,0-3.498-0.459-4.351-1.377c-0.853-0.918-1.309-2.055-1.369-3.409H238.771z"/>
	<path d="M250.223,221.786h2.234v1.803c0.458-0.618,0.959-1.096,1.502-1.435c0.772-0.508,1.68-0.762,2.724-0.762
		c1.544,0,2.855,0.59,3.933,1.771s1.617,2.867,1.617,5.059c0,2.962-0.777,5.078-2.333,6.348c-0.985,0.804-2.133,1.206-3.441,1.206
		c-1.028,0-1.891-0.224-2.587-0.673c-0.408-0.254-0.862-0.69-1.364-1.308v6.944h-2.285V221.786z M258.82,232.443
		c0.709-0.893,1.063-2.228,1.063-4.005c0-1.083-0.157-2.014-0.471-2.793c-0.595-1.498-1.682-2.247-3.261-2.247
		c-1.588,0-2.675,0.792-3.261,2.374c-0.314,0.846-0.471,1.921-0.471,3.225c0,1.049,0.157,1.942,0.471,2.679
		c0.594,1.405,1.682,2.107,3.261,2.107C257.221,233.783,258.111,233.336,258.82,232.443z"/>
	<path d="M272.16,227.09c0.525-0.067,0.876-0.287,1.054-0.659c0.102-0.204,0.152-0.497,0.152-0.879c0-0.781-0.277-1.349-0.83-1.701
		s-1.345-0.529-2.375-0.529c-1.191,0-2.036,0.323-2.534,0.97c-0.279,0.357-0.46,0.889-0.545,1.595h-2.133
		c0.042-1.681,0.585-2.85,1.629-3.507s2.255-0.987,3.633-0.987c1.598,0,2.896,0.305,3.893,0.914
		c0.989,0.609,1.483,1.557,1.483,2.844v7.833c0,0.237,0.049,0.428,0.146,0.571s0.303,0.215,0.616,0.215
		c0.102,0,0.216-0.006,0.343-0.019s0.262-0.032,0.406-0.057v1.688c-0.355,0.102-0.626,0.165-0.812,0.19s-0.44,0.038-0.762,0.038
		c-0.787,0-1.358-0.279-1.714-0.838c-0.186-0.296-0.317-0.715-0.394-1.256c-0.465,0.609-1.134,1.138-2.006,1.586
		c-0.872,0.449-1.833,0.673-2.882,0.673c-1.261,0-2.292-0.383-3.091-1.147c-0.8-0.765-1.2-1.722-1.2-2.872
		c0-1.259,0.394-2.236,1.181-2.929c0.787-0.693,1.82-1.12,3.098-1.281L272.16,227.09z M267.349,233.264
		c0.482,0.38,1.054,0.57,1.714,0.57c0.804,0,1.583-0.186,2.336-0.558c1.27-0.617,1.904-1.626,1.904-3.029v-1.838
		c-0.279,0.178-0.638,0.327-1.077,0.446c-0.439,0.119-0.87,0.204-1.292,0.254l-1.381,0.177c-0.828,0.11-1.45,0.283-1.867,0.52
		c-0.707,0.397-1.06,1.03-1.06,1.9C266.625,232.364,266.866,232.883,267.349,233.264z M273.125,216.25l-3.39,3.669h-1.752
		l2.323-3.669H273.125z"/>
	<path d="M279.333,221.722h2.171v1.93c0.643-0.795,1.325-1.367,2.044-1.714s1.519-0.521,2.399-0.521c1.93,0,3.233,0.673,3.91,2.019
		c0.373,0.736,0.559,1.79,0.559,3.161v8.722h-2.323v-8.569c0-0.83-0.123-1.498-0.368-2.006c-0.406-0.846-1.143-1.27-2.209-1.27
		c-0.542,0-0.986,0.055-1.333,0.165c-0.626,0.186-1.176,0.559-1.65,1.117c-0.381,0.449-0.628,0.912-0.743,1.39
		s-0.171,1.162-0.171,2.05v7.122h-2.285V221.722z"/>
	<path d="M293.793,216.669h2.323v2.59h-2.323V216.669z M293.793,221.786h2.323v13.533h-2.323V221.786z"/>
	<path d="M308.551,222.446c0.96,0.745,1.538,2.027,1.733,3.847h-2.222c-0.135-0.838-0.444-1.534-0.927-2.088
		s-1.257-0.832-2.323-0.832c-1.456,0-2.497,0.71-3.123,2.13c-0.406,0.921-0.609,2.058-0.609,3.411c0,1.361,0.288,2.506,0.863,3.437
		c0.576,0.93,1.481,1.395,2.717,1.395c0.948,0,1.699-0.289,2.253-0.866s0.938-1.368,1.149-2.371h2.222
		c-0.254,1.803-0.889,3.121-1.904,3.955s-2.315,1.25-3.897,1.25c-1.777,0-3.195-0.649-4.253-1.949s-1.587-2.922-1.587-4.869
		c0-2.387,0.58-4.245,1.739-5.573s2.636-1.993,4.431-1.993C306.344,221.329,307.591,221.701,308.551,222.446z"/>
	<path d="M322.421,223.079c1.202,1.167,1.803,2.883,1.803,5.149c0,2.19-0.53,4-1.588,5.429c-1.059,1.429-2.702,2.144-4.929,2.144
		c-1.857,0-3.332-0.632-4.425-1.896s-1.639-2.962-1.639-5.093c0-2.283,0.576-4.102,1.727-5.455c1.151-1.353,2.698-2.029,4.639-2.029
		C319.749,221.329,321.219,221.912,322.421,223.079z M321.002,232.115c0.557-1.145,0.835-2.419,0.835-3.823
		c0-1.268-0.201-2.299-0.603-3.094c-0.636-1.251-1.732-1.877-3.289-1.877c-1.381,0-2.385,0.533-3.013,1.598
		c-0.627,1.065-0.941,2.35-0.941,3.855c0,1.445,0.314,2.65,0.941,3.614c0.627,0.963,1.624,1.445,2.988,1.445
		C319.418,233.833,320.445,233.261,321.002,232.115z"/>
	<path d="M327.512,237.985c0.584-0.102,0.995-0.515,1.231-1.237c0.127-0.383,0.19-0.753,0.19-1.11c0-0.06-0.002-0.113-0.006-0.159
		c-0.004-0.047-0.015-0.1-0.032-0.16h-1.384v-2.768h2.717v2.564c0,1.007-0.203,1.892-0.609,2.653s-1.109,1.231-2.107,1.409V237.985z
		"/>
	<path d="M49.231,253.296c0.9,0.453,1.585,1.039,2.057,1.758c0.454,0.686,0.757,1.485,0.908,2.399
		c0.135,0.626,0.202,1.625,0.202,2.996h-9.89c0.042,1.383,0.365,2.493,0.97,3.329c0.604,0.836,1.541,1.254,2.809,1.254
		c1.184,0,2.129-0.396,2.834-1.186c0.395-0.459,0.674-0.99,0.839-1.594h2.247c-0.059,0.5-0.256,1.056-0.59,1.669
		s-0.708,1.115-1.119,1.504c-0.689,0.677-1.542,1.134-2.558,1.371c-0.546,0.135-1.164,0.203-1.853,0.203
		c-1.682,0-3.107-0.616-4.277-1.847c-1.169-1.231-1.753-2.956-1.753-5.173c0-2.184,0.589-3.957,1.767-5.319
		c1.177-1.363,2.717-2.044,4.618-2.044C47.401,252.617,48.331,252.844,49.231,253.296z M50.049,258.635
		c-0.092-0.99-0.307-1.782-0.642-2.374c-0.621-1.1-1.658-1.65-3.109-1.65c-1.041,0-1.914,0.379-2.619,1.136
		c-0.705,0.757-1.078,1.72-1.12,2.888H50.049z"/>
	<path d="M55.292,252.922h2.171v1.93c0.643-0.795,1.325-1.367,2.044-1.714s1.519-0.521,2.399-0.521c1.93,0,3.233,0.673,3.91,2.019
		c0.373,0.736,0.559,1.79,0.559,3.161v8.722h-2.323v-8.569c0-0.83-0.123-1.498-0.368-2.006c-0.406-0.846-1.143-1.27-2.209-1.27
		c-0.542,0-0.986,0.055-1.333,0.165c-0.626,0.186-1.176,0.559-1.65,1.117c-0.381,0.449-0.628,0.912-0.743,1.39
		s-0.171,1.162-0.171,2.05v7.122h-2.285V252.922z"/>
	<path d="M78.734,253.646c0.96,0.745,1.538,2.027,1.733,3.847h-2.222c-0.135-0.838-0.444-1.534-0.927-2.088
		s-1.257-0.832-2.323-0.832c-1.456,0-2.497,0.71-3.123,2.13c-0.406,0.921-0.609,2.058-0.609,3.411c0,1.361,0.288,2.506,0.863,3.437
		c0.576,0.93,1.481,1.395,2.717,1.395c0.948,0,1.699-0.289,2.253-0.866s0.938-1.368,1.149-2.371h2.222
		c-0.254,1.803-0.889,3.121-1.904,3.955s-2.315,1.25-3.897,1.25c-1.777,0-3.195-0.649-4.253-1.949s-1.587-2.922-1.587-4.869
		c0-2.387,0.58-4.245,1.739-5.573s2.636-1.993,4.431-1.993C76.527,252.528,77.774,252.901,78.734,253.646z"/>
	<path d="M82.816,247.869h2.285v18.649h-2.285V247.869z"/>
	<path d="M95.816,258.29c0.525-0.067,0.876-0.287,1.054-0.659c0.102-0.204,0.152-0.497,0.152-0.879c0-0.781-0.277-1.349-0.83-1.701
		s-1.345-0.529-2.375-0.529c-1.191,0-2.036,0.323-2.534,0.97c-0.279,0.357-0.46,0.889-0.545,1.595h-2.133
		c0.042-1.681,0.585-2.85,1.629-3.507s2.255-0.987,3.633-0.987c1.598,0,2.896,0.305,3.893,0.914
		c0.989,0.609,1.483,1.557,1.483,2.844v7.833c0,0.237,0.049,0.428,0.146,0.571s0.303,0.215,0.616,0.215
		c0.102,0,0.216-0.006,0.343-0.019s0.262-0.032,0.406-0.057v1.688c-0.355,0.102-0.626,0.165-0.812,0.19s-0.44,0.038-0.762,0.038
		c-0.787,0-1.358-0.279-1.714-0.838c-0.186-0.296-0.317-0.715-0.394-1.256c-0.465,0.609-1.134,1.138-2.006,1.586
		c-0.872,0.449-1.833,0.673-2.882,0.673c-1.261,0-2.292-0.383-3.091-1.147c-0.8-0.765-1.2-1.722-1.2-2.872
		c0-1.259,0.394-2.236,1.181-2.929c0.787-0.693,1.82-1.12,3.098-1.281L95.816,258.29z M91.004,264.463
		c0.482,0.38,1.054,0.57,1.714,0.57c0.804,0,1.583-0.186,2.336-0.558c1.27-0.617,1.904-1.626,1.904-3.029v-1.838
		c-0.279,0.178-0.638,0.327-1.077,0.446c-0.439,0.119-0.87,0.204-1.292,0.254l-1.381,0.177c-0.828,0.11-1.45,0.283-1.867,0.52
		c-0.707,0.397-1.06,1.03-1.06,1.9C90.281,263.564,90.522,264.083,91.004,264.463z"/>
	<path d="M104.112,252.922l3.631,11.07l3.783-11.07h2.501l-5.119,13.597h-2.435l-5.015-13.597H104.112z"/>
	<path d="M123.276,258.29c0.525-0.067,0.876-0.287,1.054-0.659c0.102-0.204,0.152-0.497,0.152-0.879c0-0.781-0.277-1.349-0.83-1.701
		s-1.345-0.529-2.375-0.529c-1.191,0-2.036,0.323-2.534,0.97c-0.279,0.357-0.46,0.889-0.545,1.595h-2.133
		c0.042-1.681,0.585-2.85,1.629-3.507s2.255-0.987,3.633-0.987c1.598,0,2.896,0.305,3.893,0.914
		c0.989,0.609,1.483,1.557,1.483,2.844v7.833c0,0.237,0.049,0.428,0.146,0.571s0.303,0.215,0.616,0.215
		c0.102,0,0.216-0.006,0.343-0.019s0.262-0.032,0.406-0.057v1.688c-0.355,0.102-0.626,0.165-0.812,0.19s-0.44,0.038-0.762,0.038
		c-0.787,0-1.358-0.279-1.714-0.838c-0.186-0.296-0.317-0.715-0.394-1.256c-0.465,0.609-1.134,1.138-2.006,1.586
		c-0.872,0.449-1.833,0.673-2.882,0.673c-1.261,0-2.292-0.383-3.091-1.147c-0.8-0.765-1.2-1.722-1.2-2.872
		c0-1.259,0.394-2.236,1.181-2.929c0.787-0.693,1.82-1.12,3.098-1.281L123.276,258.29z M118.464,264.463
		c0.482,0.38,1.054,0.57,1.714,0.57c0.804,0,1.583-0.186,2.336-0.558c1.27-0.617,1.904-1.626,1.904-3.029v-1.838
		c-0.279,0.178-0.638,0.327-1.077,0.446c-0.439,0.119-0.87,0.204-1.292,0.254l-1.381,0.177c-0.828,0.11-1.45,0.283-1.867,0.52
		c-0.707,0.397-1.06,1.03-1.06,1.9C117.741,263.564,117.982,264.083,118.464,264.463z"/>
	<path d="M137.919,253.341c0.405,0.254,0.864,0.698,1.378,1.333v-6.868h2.196v18.713h-2.057v-1.892
		c-0.531,0.838-1.16,1.443-1.884,1.815c-0.726,0.373-1.556,0.559-2.492,0.559c-1.509,0-2.816-0.637-3.92-1.911
		s-1.657-2.969-1.657-5.084c0-1.98,0.503-3.696,1.511-5.148c1.007-1.452,2.447-2.177,4.319-2.177
		C136.351,252.681,137.219,252.901,137.919,253.341z M132.818,263.535c0.615,0.982,1.6,1.473,2.956,1.473
		c1.052,0,1.917-0.455,2.596-1.365c0.678-0.91,1.017-2.215,1.017-3.917c0-1.718-0.35-2.99-1.048-3.815
		c-0.699-0.825-1.562-1.238-2.589-1.238c-1.146,0-2.074,0.44-2.785,1.32c-0.712,0.88-1.067,2.175-1.067,3.885
		C131.896,261.334,132.203,262.553,132.818,263.535z"/>
	<path d="M154.76,254.279c1.202,1.167,1.803,2.883,1.803,5.149c0,2.19-0.53,4-1.588,5.429c-1.059,1.429-2.702,2.144-4.929,2.144
		c-1.857,0-3.332-0.632-4.425-1.896s-1.639-2.962-1.639-5.093c0-2.283,0.576-4.102,1.727-5.455c1.151-1.353,2.698-2.029,4.639-2.029
		C152.088,252.528,153.559,253.112,154.76,254.279z M153.341,263.315c0.557-1.145,0.835-2.419,0.835-3.823
		c0-1.268-0.201-2.299-0.603-3.094c-0.636-1.251-1.732-1.877-3.289-1.877c-1.381,0-2.385,0.533-3.013,1.598
		c-0.627,1.065-0.941,2.35-0.941,3.855c0,1.445,0.314,2.65,0.941,3.614c0.627,0.963,1.624,1.445,2.988,1.445
		C151.758,265.033,152.785,264.46,153.341,263.315z"/>
	<path d="M174.991,253.296c0.9,0.453,1.585,1.039,2.057,1.758c0.454,0.686,0.757,1.485,0.908,2.399
		c0.135,0.626,0.202,1.625,0.202,2.996h-9.89c0.042,1.383,0.365,2.493,0.97,3.329c0.604,0.836,1.541,1.254,2.809,1.254
		c1.184,0,2.129-0.396,2.834-1.186c0.395-0.459,0.674-0.99,0.839-1.594h2.247c-0.059,0.5-0.256,1.056-0.59,1.669
		s-0.708,1.115-1.119,1.504c-0.689,0.677-1.542,1.134-2.558,1.371c-0.546,0.135-1.164,0.203-1.853,0.203
		c-1.682,0-3.107-0.616-4.277-1.847c-1.169-1.231-1.753-2.956-1.753-5.173c0-2.184,0.589-3.957,1.767-5.319
		c1.177-1.363,2.717-2.044,4.618-2.044C173.161,252.617,174.09,252.844,174.991,253.296z M175.809,258.635
		c-0.092-0.99-0.307-1.782-0.642-2.374c-0.621-1.1-1.658-1.65-3.109-1.65c-1.041,0-1.914,0.379-2.619,1.136
		c-0.705,0.757-1.078,1.72-1.12,2.888H175.809z"/>
	<path d="M181.052,252.922h2.171v1.93c0.643-0.795,1.325-1.367,2.044-1.714s1.519-0.521,2.399-0.521c1.93,0,3.233,0.673,3.91,2.019
		c0.373,0.736,0.559,1.79,0.559,3.161v8.722h-2.323v-8.569c0-0.83-0.123-1.498-0.368-2.006c-0.406-0.846-1.143-1.27-2.209-1.27
		c-0.542,0-0.986,0.055-1.333,0.165c-0.626,0.186-1.176,0.559-1.65,1.117c-0.381,0.449-0.628,0.912-0.743,1.39
		s-0.171,1.162-0.171,2.05v7.122h-2.285V252.922z"/>
	<path d="M195.969,249.126h2.311v3.796h2.171v1.866h-2.171v8.874c0,0.474,0.161,0.792,0.482,0.952
		c0.178,0.093,0.474,0.14,0.889,0.14c0.11,0,0.229-0.003,0.355-0.008s0.275-0.02,0.444-0.042v1.815
		c-0.262,0.076-0.535,0.131-0.819,0.165s-0.59,0.051-0.92,0.051c-1.066,0-1.79-0.273-2.171-0.819s-0.571-1.255-0.571-2.126v-9.001
		h-1.841v-1.866h1.841V249.126z"/>
	<path d="M202.799,252.922h2.171v2.349c0.178-0.457,0.614-1.014,1.308-1.669s1.494-0.984,2.399-0.984
		c0.042,0,0.114,0.004,0.216,0.013s0.275,0.025,0.521,0.051v2.412c-0.135-0.025-0.26-0.042-0.375-0.051s-0.239-0.013-0.375-0.013
		c-1.151,0-2.036,0.37-2.653,1.111s-0.927,1.593-0.927,2.558v7.82h-2.285V252.922z"/>
	<path d="M219.792,253.296c0.9,0.453,1.585,1.039,2.057,1.758c0.454,0.686,0.757,1.485,0.908,2.399
		c0.135,0.626,0.202,1.625,0.202,2.996h-9.89c0.042,1.383,0.365,2.493,0.97,3.329c0.604,0.836,1.541,1.254,2.809,1.254
		c1.184,0,2.129-0.396,2.834-1.186c0.395-0.459,0.674-0.99,0.839-1.594h2.247c-0.059,0.5-0.256,1.056-0.59,1.669
		s-0.708,1.115-1.119,1.504c-0.689,0.677-1.542,1.134-2.558,1.371c-0.546,0.135-1.164,0.203-1.853,0.203
		c-1.682,0-3.107-0.616-4.277-1.847c-1.169-1.231-1.753-2.956-1.753-5.173c0-2.184,0.589-3.957,1.767-5.319
		c1.177-1.363,2.717-2.044,4.618-2.044C217.963,252.617,218.892,252.844,219.792,253.296z M220.611,258.635
		c-0.092-0.99-0.307-1.782-0.642-2.374c-0.621-1.1-1.658-1.65-3.109-1.65c-1.041,0-1.914,0.379-2.619,1.136
		c-0.705,0.757-1.078,1.72-1.12,2.888H220.611z"/>
	<path d="M233.141,247.869h2.285v18.649h-2.285V247.869z"/>
	<path d="M246.141,258.29c0.525-0.067,0.876-0.287,1.054-0.659c0.102-0.204,0.152-0.497,0.152-0.879c0-0.781-0.277-1.349-0.83-1.701
		s-1.345-0.529-2.375-0.529c-1.191,0-2.036,0.323-2.534,0.97c-0.279,0.357-0.46,0.889-0.545,1.595h-2.133
		c0.042-1.681,0.585-2.85,1.629-3.507s2.255-0.987,3.633-0.987c1.598,0,2.896,0.305,3.893,0.914
		c0.989,0.609,1.483,1.557,1.483,2.844v7.833c0,0.237,0.049,0.428,0.146,0.571s0.303,0.215,0.616,0.215
		c0.102,0,0.216-0.006,0.343-0.019s0.262-0.032,0.406-0.057v1.688c-0.355,0.102-0.626,0.165-0.812,0.19s-0.44,0.038-0.762,0.038
		c-0.787,0-1.358-0.279-1.714-0.838c-0.186-0.296-0.317-0.715-0.394-1.256c-0.465,0.609-1.134,1.138-2.006,1.586
		c-0.872,0.449-1.833,0.673-2.882,0.673c-1.261,0-2.292-0.383-3.091-1.147c-0.8-0.765-1.2-1.722-1.2-2.872
		c0-1.259,0.394-2.236,1.181-2.929c0.787-0.693,1.82-1.12,3.098-1.281L246.141,258.29z M241.33,264.463
		c0.482,0.38,1.054,0.57,1.714,0.57c0.804,0,1.583-0.186,2.336-0.558c1.27-0.617,1.904-1.626,1.904-3.029v-1.838
		c-0.279,0.178-0.638,0.327-1.077,0.446c-0.439,0.119-0.87,0.204-1.292,0.254l-1.381,0.177c-0.828,0.11-1.45,0.283-1.867,0.52
		c-0.707,0.397-1.06,1.03-1.06,1.9C240.606,263.564,240.847,264.083,241.33,264.463z"/>
	<path d="M254.672,262.253c0.069,0.762,0.263,1.346,0.583,1.752c0.587,0.736,1.607,1.104,3.058,1.104
		c0.864,0,1.624-0.184,2.28-0.552s0.985-0.938,0.985-1.708c0-0.584-0.262-1.028-0.787-1.333c-0.335-0.186-0.998-0.402-1.987-0.647
		l-1.845-0.457c-1.178-0.288-2.047-0.609-2.606-0.965c-0.998-0.618-1.497-1.473-1.497-2.564c0-1.287,0.47-2.328,1.409-3.123
		s2.202-1.193,3.789-1.193c2.076,0,3.572,0.601,4.49,1.803c0.575,0.762,0.854,1.583,0.837,2.463h-2.158
		c-0.043-0.513-0.229-0.98-0.559-1.401c-0.538-0.598-1.469-0.896-2.794-0.896c-0.884,0-1.553,0.165-2.008,0.493
		c-0.455,0.329-0.682,0.764-0.682,1.303c0,0.59,0.299,1.062,0.896,1.417c0.345,0.211,0.854,0.397,1.526,0.558l1.539,0.368
		c1.673,0.398,2.794,0.783,3.363,1.155c0.889,0.584,1.333,1.502,1.333,2.755c0,1.21-0.465,2.255-1.395,3.136s-2.346,1.32-4.248,1.32
		c-2.048,0-3.498-0.459-4.351-1.377c-0.853-0.918-1.309-2.055-1.369-3.409H254.672z"/>
	<path d="M273.538,252.922h2.26v1.93c0.542-0.668,1.033-1.155,1.473-1.46c0.753-0.516,1.608-0.774,2.564-0.774
		c1.083,0,1.955,0.267,2.615,0.8c0.373,0.305,0.711,0.753,1.016,1.346c0.508-0.728,1.104-1.268,1.79-1.619s1.456-0.527,2.311-0.527
		c1.828,0,3.072,0.66,3.732,1.98c0.355,0.711,0.533,1.667,0.533,2.869v9.052h-2.374v-9.445c0-0.906-0.227-1.528-0.679-1.866
		s-1.005-0.508-1.657-0.508c-0.897,0-1.669,0.3-2.317,0.901s-0.971,1.604-0.971,3.009v7.909h-2.323v-8.874
		c0-0.922-0.11-1.595-0.33-2.019c-0.347-0.635-0.995-0.952-1.942-0.952c-0.863,0-1.648,0.334-2.355,1.003s-1.06,1.879-1.06,3.631
		v7.211h-2.285V252.922z"/>
	<path d="M305.047,254.279c1.202,1.167,1.803,2.883,1.803,5.149c0,2.19-0.53,4-1.588,5.429c-1.059,1.429-2.702,2.144-4.929,2.144
		c-1.857,0-3.332-0.632-4.425-1.896s-1.639-2.962-1.639-5.093c0-2.283,0.576-4.102,1.727-5.455c1.151-1.353,2.698-2.029,4.639-2.029
		C302.375,252.528,303.846,253.112,305.047,254.279z M303.628,263.315c0.557-1.145,0.835-2.419,0.835-3.823
		c0-1.268-0.201-2.299-0.603-3.094c-0.636-1.251-1.732-1.877-3.289-1.877c-1.381,0-2.385,0.533-3.013,1.598
		c-0.627,1.065-0.941,2.35-0.941,3.855c0,1.445,0.314,2.65,0.941,3.614c0.627,0.963,1.624,1.445,2.988,1.445
		C302.045,265.033,303.072,264.46,303.628,263.315z"/>
	<path d="M309.656,252.922h2.171v1.93c0.643-0.795,1.325-1.367,2.044-1.714s1.519-0.521,2.399-0.521c1.93,0,3.233,0.673,3.91,2.019
		c0.373,0.736,0.559,1.79,0.559,3.161v8.722h-2.323v-8.569c0-0.83-0.123-1.498-0.368-2.006c-0.406-0.846-1.143-1.27-2.209-1.27
		c-0.542,0-0.986,0.055-1.333,0.165c-0.626,0.186-1.176,0.559-1.65,1.117c-0.381,0.449-0.628,0.912-0.743,1.39
		s-0.171,1.162-0.171,2.05v7.122h-2.285V252.922z"/>
	<path d="M324.573,249.126h2.311v3.796h2.171v1.866h-2.171v8.874c0,0.474,0.161,0.792,0.482,0.952
		c0.178,0.093,0.474,0.14,0.889,0.14c0.11,0,0.229-0.003,0.355-0.008s0.275-0.02,0.444-0.042v1.815
		c-0.262,0.076-0.535,0.131-0.819,0.165s-0.59,0.051-0.92,0.051c-1.066,0-1.79-0.273-2.171-0.819s-0.571-1.255-0.571-2.126v-9.001
		h-1.841v-1.866h1.841V249.126z"/>
	<path d="M338.626,258.29c0.525-0.067,0.876-0.287,1.054-0.659c0.102-0.204,0.152-0.497,0.152-0.879c0-0.781-0.277-1.349-0.83-1.701
		s-1.345-0.529-2.375-0.529c-1.191,0-2.036,0.323-2.534,0.97c-0.279,0.357-0.46,0.889-0.545,1.595h-2.133
		c0.042-1.681,0.585-2.85,1.629-3.507s2.255-0.987,3.633-0.987c1.598,0,2.896,0.305,3.893,0.914
		c0.989,0.609,1.483,1.557,1.483,2.844v7.833c0,0.237,0.049,0.428,0.146,0.571s0.303,0.215,0.616,0.215
		c0.102,0,0.216-0.006,0.343-0.019s0.262-0.032,0.406-0.057v1.688c-0.355,0.102-0.626,0.165-0.812,0.19s-0.44,0.038-0.762,0.038
		c-0.787,0-1.358-0.279-1.714-0.838c-0.186-0.296-0.317-0.715-0.394-1.256c-0.465,0.609-1.134,1.138-2.006,1.586
		c-0.872,0.449-1.833,0.673-2.882,0.673c-1.261,0-2.292-0.383-3.091-1.147c-0.8-0.765-1.2-1.722-1.2-2.872
		c0-1.259,0.394-2.236,1.181-2.929c0.787-0.693,1.82-1.12,3.098-1.281L338.626,258.29z M333.815,264.463
		c0.482,0.38,1.054,0.57,1.714,0.57c0.804,0,1.583-0.186,2.336-0.558c1.27-0.617,1.904-1.626,1.904-3.029v-1.838
		c-0.279,0.178-0.638,0.327-1.077,0.446c-0.439,0.119-0.87,0.204-1.292,0.254l-1.381,0.177c-0.828,0.11-1.45,0.283-1.867,0.52
		c-0.707,0.397-1.06,1.03-1.06,1.9C333.091,263.564,333.333,264.083,333.815,264.463z"/>
	<path d="M345.799,252.922h2.171v1.93c0.643-0.795,1.325-1.367,2.044-1.714s1.519-0.521,2.399-0.521c1.93,0,3.233,0.673,3.91,2.019
		c0.373,0.736,0.559,1.79,0.559,3.161v8.722h-2.323v-8.569c0-0.83-0.123-1.498-0.368-2.006c-0.406-0.846-1.143-1.27-2.209-1.27
		c-0.542,0-0.986,0.055-1.333,0.165c-0.626,0.186-1.176,0.559-1.65,1.117c-0.381,0.449-0.628,0.912-0.743,1.39
		s-0.171,1.162-0.171,2.05v7.122h-2.285V252.922z M352.515,248.707c0.237,0.102,0.453,0.182,0.647,0.241s0.394,0.089,0.597,0.089
		c0.474,0,0.812-0.148,1.016-0.444c0.11-0.161,0.186-0.402,0.229-0.724h1.333c-0.178,1.075-0.519,1.815-1.022,2.222
		s-1.056,0.609-1.657,0.609c-0.186,0-0.423-0.034-0.711-0.102s-0.542-0.144-0.762-0.229l-0.673-0.241
		c-0.398-0.144-0.722-0.252-0.971-0.324s-0.493-0.108-0.73-0.108c-0.296,0-0.54,0.097-0.73,0.292s-0.319,0.491-0.387,0.889h-1.244
		c0.11-0.668,0.292-1.214,0.546-1.638c0.482-0.779,1.198-1.168,2.146-1.168c0.288,0,0.607,0.042,0.958,0.127
		S351.923,248.453,352.515,248.707z"/>
	<path d="M367.546,258.29c0.525-0.067,0.876-0.287,1.054-0.659c0.102-0.204,0.152-0.497,0.152-0.879c0-0.781-0.277-1.349-0.83-1.701
		s-1.345-0.529-2.375-0.529c-1.191,0-2.036,0.323-2.534,0.97c-0.279,0.357-0.46,0.889-0.545,1.595h-2.133
		c0.042-1.681,0.585-2.85,1.629-3.507s2.255-0.987,3.633-0.987c1.598,0,2.896,0.305,3.893,0.914
		c0.989,0.609,1.483,1.557,1.483,2.844v7.833c0,0.237,0.049,0.428,0.146,0.571s0.303,0.215,0.616,0.215
		c0.102,0,0.216-0.006,0.343-0.019s0.262-0.032,0.406-0.057v1.688c-0.355,0.102-0.626,0.165-0.812,0.19s-0.44,0.038-0.762,0.038
		c-0.787,0-1.358-0.279-1.714-0.838c-0.186-0.296-0.317-0.715-0.394-1.256c-0.465,0.609-1.134,1.138-2.006,1.586
		c-0.872,0.449-1.833,0.673-2.882,0.673c-1.261,0-2.292-0.383-3.091-1.147c-0.8-0.765-1.2-1.722-1.2-2.872
		c0-1.259,0.394-2.236,1.181-2.929c0.787-0.693,1.82-1.12,3.098-1.281L367.546,258.29z M362.735,264.463
		c0.482,0.38,1.054,0.57,1.714,0.57c0.804,0,1.583-0.186,2.336-0.558c1.27-0.617,1.904-1.626,1.904-3.029v-1.838
		c-0.279,0.178-0.638,0.327-1.077,0.446c-0.439,0.119-0.87,0.204-1.292,0.254l-1.381,0.177c-0.828,0.11-1.45,0.283-1.867,0.52
		c-0.707,0.397-1.06,1.03-1.06,1.9C362.011,263.564,362.252,264.083,362.735,264.463z"/>
	<path d="M376.078,262.253c0.069,0.762,0.263,1.346,0.583,1.752c0.587,0.736,1.607,1.104,3.058,1.104
		c0.864,0,1.624-0.184,2.28-0.552s0.985-0.938,0.985-1.708c0-0.584-0.262-1.028-0.787-1.333c-0.335-0.186-0.998-0.402-1.987-0.647
		l-1.845-0.457c-1.178-0.288-2.047-0.609-2.606-0.965c-0.998-0.618-1.497-1.473-1.497-2.564c0-1.287,0.47-2.328,1.409-3.123
		s2.202-1.193,3.789-1.193c2.076,0,3.572,0.601,4.49,1.803c0.575,0.762,0.854,1.583,0.837,2.463h-2.158
		c-0.043-0.513-0.229-0.98-0.559-1.401c-0.538-0.598-1.469-0.896-2.794-0.896c-0.884,0-1.553,0.165-2.008,0.493
		c-0.455,0.329-0.682,0.764-0.682,1.303c0,0.59,0.299,1.062,0.896,1.417c0.345,0.211,0.854,0.397,1.526,0.558l1.539,0.368
		c1.673,0.398,2.794,0.783,3.363,1.155c0.889,0.584,1.333,1.502,1.333,2.755c0,1.21-0.465,2.255-1.395,3.136s-2.346,1.32-4.248,1.32
		c-2.048,0-3.498-0.459-4.351-1.377c-0.853-0.918-1.309-2.055-1.369-3.409H376.078z"/>
	<path d="M88.058,284.541c0.405,0.254,0.864,0.698,1.378,1.333v-6.868h2.196v18.713h-2.057v-1.892
		c-0.531,0.838-1.16,1.443-1.884,1.815c-0.726,0.373-1.556,0.559-2.492,0.559c-1.509,0-2.816-0.637-3.92-1.911
		s-1.657-2.969-1.657-5.084c0-1.98,0.503-3.696,1.511-5.148c1.007-1.452,2.447-2.177,4.319-2.177
		C86.49,283.881,87.358,284.101,88.058,284.541z M82.957,294.735c0.615,0.982,1.6,1.473,2.956,1.473
		c1.052,0,1.917-0.455,2.596-1.365c0.678-0.91,1.017-2.215,1.017-3.917c0-1.718-0.35-2.99-1.048-3.815
		c-0.699-0.825-1.562-1.238-2.589-1.238c-1.146,0-2.074,0.44-2.785,1.32c-0.712,0.88-1.067,2.175-1.067,3.885
		C82.035,292.535,82.342,293.753,82.957,294.735z"/>
	<path d="M103.446,284.497c0.9,0.453,1.585,1.039,2.057,1.758c0.454,0.686,0.757,1.485,0.908,2.399
		c0.135,0.626,0.202,1.625,0.202,2.996h-9.89c0.042,1.383,0.365,2.493,0.97,3.329c0.604,0.836,1.541,1.254,2.809,1.254
		c1.184,0,2.129-0.396,2.834-1.186c0.395-0.459,0.674-0.99,0.839-1.594h2.247c-0.059,0.5-0.256,1.056-0.59,1.669
		s-0.708,1.115-1.119,1.504c-0.689,0.677-1.542,1.134-2.558,1.371c-0.546,0.135-1.164,0.203-1.853,0.203
		c-1.682,0-3.107-0.616-4.277-1.847c-1.169-1.231-1.753-2.956-1.753-5.173c0-2.184,0.589-3.957,1.767-5.319
		c1.177-1.363,2.717-2.044,4.618-2.044C101.617,283.817,102.546,284.044,103.446,284.497z M104.265,289.835
		c-0.092-0.99-0.307-1.782-0.642-2.374c-0.621-1.1-1.658-1.65-3.109-1.65c-1.041,0-1.914,0.379-2.619,1.136
		c-0.705,0.757-1.078,1.72-1.12,2.888H104.265z"/>
	<path d="M116.795,279.069h2.285v18.649h-2.285V279.069z"/>
	<path d="M129.795,289.49c0.525-0.067,0.876-0.287,1.054-0.659c0.102-0.204,0.152-0.497,0.152-0.879c0-0.781-0.277-1.349-0.83-1.701
		s-1.345-0.529-2.375-0.529c-1.191,0-2.036,0.323-2.534,0.97c-0.279,0.357-0.46,0.889-0.545,1.595h-2.133
		c0.042-1.681,0.585-2.85,1.629-3.507s2.255-0.987,3.633-0.987c1.598,0,2.896,0.305,3.893,0.914
		c0.989,0.609,1.483,1.557,1.483,2.844v7.833c0,0.237,0.049,0.428,0.146,0.571s0.303,0.215,0.616,0.215
		c0.102,0,0.216-0.006,0.343-0.019s0.262-0.032,0.406-0.057v1.688c-0.355,0.102-0.626,0.165-0.812,0.19s-0.44,0.038-0.762,0.038
		c-0.787,0-1.358-0.279-1.714-0.838c-0.186-0.296-0.317-0.715-0.394-1.256c-0.465,0.609-1.134,1.138-2.006,1.586
		c-0.872,0.449-1.833,0.673-2.882,0.673c-1.261,0-2.292-0.383-3.091-1.147c-0.8-0.765-1.2-1.722-1.2-2.872
		c0-1.259,0.394-2.236,1.181-2.929c0.787-0.693,1.82-1.12,3.098-1.281L129.795,289.49z M124.983,295.664
		c0.482,0.38,1.054,0.57,1.714,0.57c0.804,0,1.583-0.186,2.336-0.558c1.27-0.617,1.904-1.626,1.904-3.029v-1.838
		c-0.279,0.178-0.638,0.327-1.077,0.446c-0.439,0.119-0.87,0.204-1.292,0.254l-1.381,0.177c-0.828,0.11-1.45,0.283-1.867,0.52
		c-0.707,0.397-1.06,1.03-1.06,1.9C124.26,294.764,124.501,295.283,124.983,295.664z"/>
	<path d="M145.55,293.453c0.069,0.762,0.263,1.346,0.583,1.752c0.587,0.736,1.607,1.104,3.058,1.104c0.864,0,1.624-0.184,2.28-0.552
		s0.985-0.938,0.985-1.708c0-0.584-0.262-1.028-0.787-1.333c-0.335-0.186-0.998-0.402-1.987-0.647l-1.845-0.457
		c-1.178-0.288-2.047-0.609-2.606-0.965c-0.998-0.618-1.497-1.473-1.497-2.564c0-1.287,0.47-2.328,1.409-3.123
		s2.202-1.193,3.789-1.193c2.076,0,3.572,0.601,4.49,1.803c0.575,0.762,0.854,1.583,0.837,2.463h-2.158
		c-0.043-0.513-0.229-0.98-0.559-1.401c-0.538-0.598-1.469-0.896-2.794-0.896c-0.884,0-1.553,0.165-2.008,0.493
		c-0.455,0.329-0.682,0.764-0.682,1.303c0,0.59,0.299,1.062,0.896,1.417c0.345,0.211,0.854,0.397,1.526,0.558l1.539,0.368
		c1.673,0.398,2.794,0.783,3.363,1.155c0.889,0.584,1.333,1.502,1.333,2.755c0,1.21-0.465,2.255-1.395,3.136s-2.346,1.32-4.248,1.32
		c-2.048,0-3.498-0.459-4.351-1.377c-0.853-0.918-1.309-2.055-1.369-3.409H145.55z"/>
	<path d="M157.191,279.069h2.323v2.59h-2.323V279.069z M157.191,284.186h2.323v13.533h-2.323V284.186z"/>
	<path d="M171.366,284.497c0.9,0.453,1.585,1.039,2.057,1.758c0.454,0.686,0.757,1.485,0.908,2.399
		c0.135,0.626,0.202,1.625,0.202,2.996h-9.89c0.042,1.383,0.365,2.493,0.97,3.329c0.604,0.836,1.541,1.254,2.809,1.254
		c1.184,0,2.129-0.396,2.834-1.186c0.395-0.459,0.674-0.99,0.839-1.594h2.247c-0.059,0.5-0.256,1.056-0.59,1.669
		s-0.708,1.115-1.119,1.504c-0.689,0.677-1.542,1.134-2.558,1.371c-0.546,0.135-1.164,0.203-1.853,0.203
		c-1.682,0-3.107-0.616-4.277-1.847c-1.169-1.231-1.753-2.956-1.753-5.173c0-2.184,0.589-3.957,1.767-5.319
		c1.177-1.363,2.717-2.044,4.618-2.044C169.537,283.817,170.466,284.044,171.366,284.497z M172.185,289.835
		c-0.092-0.99-0.307-1.782-0.642-2.374c-0.621-1.1-1.658-1.65-3.109-1.65c-1.041,0-1.914,0.379-2.619,1.136
		c-0.705,0.757-1.078,1.72-1.12,2.888H172.185z"/>
	<path d="M177.491,284.122h2.171v2.349c0.178-0.457,0.614-1.014,1.308-1.669s1.494-0.984,2.399-0.984
		c0.042,0,0.114,0.004,0.216,0.013s0.275,0.025,0.521,0.051v2.412c-0.135-0.025-0.26-0.042-0.375-0.051s-0.239-0.013-0.375-0.013
		c-1.151,0-2.036,0.37-2.653,1.111s-0.927,1.593-0.927,2.558v7.82h-2.285V284.122z"/>
	<path d="M186.149,284.122h2.171v2.349c0.178-0.457,0.614-1.014,1.308-1.669s1.494-0.984,2.399-0.984
		c0.042,0,0.114,0.004,0.216,0.013s0.275,0.025,0.521,0.051v2.412c-0.135-0.025-0.26-0.042-0.375-0.051s-0.239-0.013-0.375-0.013
		c-1.151,0-2.036,0.37-2.653,1.111s-0.927,1.593-0.927,2.558v7.82h-2.285V284.122z"/>
	<path d="M202.031,289.49c0.525-0.067,0.876-0.287,1.054-0.659c0.102-0.204,0.152-0.497,0.152-0.879c0-0.781-0.277-1.349-0.83-1.701
		s-1.345-0.529-2.375-0.529c-1.191,0-2.036,0.323-2.534,0.97c-0.279,0.357-0.46,0.889-0.545,1.595h-2.133
		c0.042-1.681,0.585-2.85,1.629-3.507s2.255-0.987,3.633-0.987c1.598,0,2.896,0.305,3.893,0.914
		c0.989,0.609,1.483,1.557,1.483,2.844v7.833c0,0.237,0.049,0.428,0.146,0.571s0.303,0.215,0.616,0.215
		c0.102,0,0.216-0.006,0.343-0.019s0.262-0.032,0.406-0.057v1.688c-0.355,0.102-0.626,0.165-0.812,0.19s-0.44,0.038-0.762,0.038
		c-0.787,0-1.358-0.279-1.714-0.838c-0.186-0.296-0.317-0.715-0.394-1.256c-0.465,0.609-1.134,1.138-2.006,1.586
		c-0.872,0.449-1.833,0.673-2.882,0.673c-1.261,0-2.292-0.383-3.091-1.147c-0.8-0.765-1.2-1.722-1.2-2.872
		c0-1.259,0.394-2.236,1.181-2.929c0.787-0.693,1.82-1.12,3.098-1.281L202.031,289.49z M197.22,295.664
		c0.482,0.38,1.054,0.57,1.714,0.57c0.804,0,1.583-0.186,2.336-0.558c1.27-0.617,1.904-1.626,1.904-3.029v-1.838
		c-0.279,0.178-0.638,0.327-1.077,0.446c-0.439,0.119-0.87,0.204-1.292,0.254l-1.381,0.177c-0.828,0.11-1.45,0.283-1.867,0.52
		c-0.707,0.397-1.06,1.03-1.06,1.9C196.496,294.764,196.737,295.283,197.22,295.664z"/>
	<path d="M217.786,293.453c0.069,0.762,0.263,1.346,0.583,1.752c0.587,0.736,1.607,1.104,3.058,1.104
		c0.864,0,1.624-0.184,2.28-0.552s0.985-0.938,0.985-1.708c0-0.584-0.262-1.028-0.787-1.333c-0.335-0.186-0.998-0.402-1.987-0.647
		l-1.845-0.457c-1.178-0.288-2.047-0.609-2.606-0.965c-0.998-0.618-1.497-1.473-1.497-2.564c0-1.287,0.47-2.328,1.409-3.123
		s2.202-1.193,3.789-1.193c2.076,0,3.572,0.601,4.49,1.803c0.575,0.762,0.854,1.583,0.837,2.463h-2.158
		c-0.043-0.513-0.229-0.98-0.559-1.401c-0.538-0.598-1.469-0.896-2.794-0.896c-0.884,0-1.553,0.165-2.008,0.493
		c-0.455,0.329-0.682,0.764-0.682,1.303c0,0.59,0.299,1.062,0.896,1.417c0.345,0.211,0.854,0.397,1.526,0.558l1.539,0.368
		c1.673,0.398,2.794,0.783,3.363,1.155c0.889,0.584,1.333,1.502,1.333,2.755c0,1.21-0.465,2.255-1.395,3.136s-2.346,1.32-4.248,1.32
		c-2.048,0-3.498-0.459-4.351-1.377c-0.853-0.918-1.309-2.055-1.369-3.409H217.786z"/>
	<path d="M229.428,279.069h2.323v2.59h-2.323V279.069z M229.428,284.186h2.323v13.533h-2.323V284.186z"/>
	<path d="M235.204,284.122h2.171v1.93c0.643-0.795,1.325-1.367,2.044-1.714s1.519-0.521,2.399-0.521c1.93,0,3.233,0.673,3.91,2.019
		c0.373,0.736,0.559,1.79,0.559,3.161v8.722h-2.323v-8.569c0-0.83-0.123-1.498-0.368-2.006c-0.406-0.846-1.143-1.27-2.209-1.27
		c-0.542,0-0.986,0.055-1.333,0.165c-0.626,0.186-1.176,0.559-1.65,1.117c-0.381,0.449-0.628,0.912-0.743,1.39
		s-0.171,1.162-0.171,2.05v7.122h-2.285V284.122z"/>
	<path d="M256.951,289.49c0.525-0.067,0.876-0.287,1.054-0.659c0.102-0.204,0.152-0.497,0.152-0.879c0-0.781-0.277-1.349-0.83-1.701
		s-1.345-0.529-2.375-0.529c-1.191,0-2.036,0.323-2.534,0.97c-0.279,0.357-0.46,0.889-0.545,1.595h-2.133
		c0.042-1.681,0.585-2.85,1.629-3.507s2.255-0.987,3.633-0.987c1.598,0,2.896,0.305,3.893,0.914
		c0.989,0.609,1.483,1.557,1.483,2.844v7.833c0,0.237,0.049,0.428,0.146,0.571s0.303,0.215,0.616,0.215
		c0.102,0,0.216-0.006,0.343-0.019s0.262-0.032,0.406-0.057v1.688c-0.355,0.102-0.626,0.165-0.812,0.19s-0.44,0.038-0.762,0.038
		c-0.787,0-1.358-0.279-1.714-0.838c-0.186-0.296-0.317-0.715-0.394-1.256c-0.465,0.609-1.134,1.138-2.006,1.586
		c-0.872,0.449-1.833,0.673-2.882,0.673c-1.261,0-2.292-0.383-3.091-1.147c-0.8-0.765-1.2-1.722-1.2-2.872
		c0-1.259,0.394-2.236,1.181-2.929c0.787-0.693,1.82-1.12,3.098-1.281L256.951,289.49z M252.14,295.664
		c0.482,0.38,1.054,0.57,1.714,0.57c0.804,0,1.583-0.186,2.336-0.558c1.27-0.617,1.904-1.626,1.904-3.029v-1.838
		c-0.279,0.178-0.638,0.327-1.077,0.446c-0.439,0.119-0.87,0.204-1.292,0.254l-1.381,0.177c-0.828,0.11-1.45,0.283-1.867,0.52
		c-0.707,0.397-1.06,1.03-1.06,1.9C251.416,294.764,251.657,295.283,252.14,295.664z"/>
	<path d="M264.188,279.069h2.285v18.649h-2.285V279.069z"/>
	<path d="M279.752,285.479c1.202,1.167,1.803,2.883,1.803,5.149c0,2.19-0.53,4-1.588,5.429c-1.059,1.429-2.702,2.144-4.929,2.144
		c-1.857,0-3.332-0.632-4.425-1.896s-1.639-2.962-1.639-5.093c0-2.283,0.576-4.102,1.727-5.455c1.151-1.353,2.698-2.029,4.639-2.029
		C277.08,283.729,278.55,284.312,279.752,285.479z M278.333,294.515c0.557-1.145,0.835-2.419,0.835-3.823
		c0-1.268-0.201-2.299-0.603-3.094c-0.636-1.251-1.732-1.877-3.289-1.877c-1.381,0-2.385,0.533-3.013,1.598
		c-0.627,1.065-0.941,2.35-0.941,3.855c0,1.445,0.314,2.65,0.941,3.614c0.627,0.963,1.624,1.445,2.988,1.445
		C276.75,296.233,277.776,295.661,278.333,294.515z"/>
	<path d="M292.759,284.497c0.9,0.453,1.585,1.039,2.057,1.758c0.454,0.686,0.757,1.485,0.908,2.399
		c0.135,0.626,0.202,1.625,0.202,2.996h-9.89c0.042,1.383,0.365,2.493,0.97,3.329c0.604,0.836,1.541,1.254,2.809,1.254
		c1.184,0,2.129-0.396,2.834-1.186c0.395-0.459,0.674-0.99,0.839-1.594h2.247c-0.059,0.5-0.256,1.056-0.59,1.669
		s-0.708,1.115-1.119,1.504c-0.689,0.677-1.542,1.134-2.558,1.371c-0.546,0.135-1.164,0.203-1.853,0.203
		c-1.682,0-3.107-0.616-4.277-1.847c-1.169-1.231-1.753-2.956-1.753-5.173c0-2.184,0.589-3.957,1.767-5.319
		c1.177-1.363,2.717-2.044,4.618-2.044C290.929,283.817,291.858,284.044,292.759,284.497z M293.577,289.835
		c-0.092-0.99-0.307-1.782-0.642-2.374c-0.621-1.1-1.658-1.65-3.109-1.65c-1.041,0-1.914,0.379-2.619,1.136
		c-0.705,0.757-1.078,1.72-1.12,2.888H293.577z"/>
	<path d="M298.82,284.122h2.171v1.93c0.643-0.795,1.325-1.367,2.044-1.714s1.519-0.521,2.399-0.521c1.93,0,3.233,0.673,3.91,2.019
		c0.373,0.736,0.559,1.79,0.559,3.161v8.722h-2.323v-8.569c0-0.83-0.123-1.498-0.368-2.006c-0.406-0.846-1.143-1.27-2.209-1.27
		c-0.542,0-0.986,0.055-1.333,0.165c-0.626,0.186-1.176,0.559-1.65,1.117c-0.381,0.449-0.628,0.912-0.743,1.39
		s-0.171,1.162-0.171,2.05v7.122h-2.285V284.122z"/>
	<path d="M314.639,293.453c0.069,0.762,0.263,1.346,0.583,1.752c0.587,0.736,1.607,1.104,3.058,1.104
		c0.864,0,1.624-0.184,2.28-0.552s0.985-0.938,0.985-1.708c0-0.584-0.262-1.028-0.787-1.333c-0.335-0.186-0.998-0.402-1.987-0.647
		l-1.845-0.457c-1.178-0.288-2.047-0.609-2.606-0.965c-0.998-0.618-1.497-1.473-1.497-2.564c0-1.287,0.47-2.328,1.409-3.123
		s2.202-1.193,3.789-1.193c2.076,0,3.572,0.601,4.49,1.803c0.575,0.762,0.854,1.583,0.837,2.463h-2.158
		c-0.043-0.513-0.229-0.98-0.559-1.401c-0.538-0.598-1.469-0.896-2.794-0.896c-0.884,0-1.553,0.165-2.008,0.493
		c-0.455,0.329-0.682,0.764-0.682,1.303c0,0.59,0.299,1.062,0.896,1.417c0.345,0.211,0.854,0.397,1.526,0.558l1.539,0.368
		c1.673,0.398,2.794,0.783,3.363,1.155c0.889,0.584,1.333,1.502,1.333,2.755c0,1.21-0.465,2.255-1.395,3.136s-2.346,1.32-4.248,1.32
		c-2.048,0-3.498-0.459-4.351-1.377c-0.853-0.918-1.309-2.055-1.369-3.409H314.639z"/>
	<path d="M334.679,284.497c0.9,0.453,1.585,1.039,2.057,1.758c0.454,0.686,0.757,1.485,0.908,2.399
		c0.135,0.626,0.202,1.625,0.202,2.996h-9.89c0.042,1.383,0.365,2.493,0.97,3.329c0.604,0.836,1.541,1.254,2.809,1.254
		c1.184,0,2.129-0.396,2.834-1.186c0.395-0.459,0.674-0.99,0.839-1.594h2.247c-0.059,0.5-0.256,1.056-0.59,1.669
		s-0.708,1.115-1.119,1.504c-0.689,0.677-1.542,1.134-2.558,1.371c-0.546,0.135-1.164,0.203-1.853,0.203
		c-1.682,0-3.107-0.616-4.277-1.847c-1.169-1.231-1.753-2.956-1.753-5.173c0-2.184,0.589-3.957,1.767-5.319
		c1.177-1.363,2.717-2.044,4.618-2.044C332.849,283.817,333.778,284.044,334.679,284.497z M335.497,289.835
		c-0.092-0.99-0.307-1.782-0.642-2.374c-0.621-1.1-1.658-1.65-3.109-1.65c-1.041,0-1.914,0.379-2.619,1.136
		c-0.705,0.757-1.078,1.72-1.12,2.888H335.497z"/>
	<path d="M341.286,294.951h2.653v2.768h-2.653V294.951z"/>
</g>
</svg>
