<?xml version="1.0" encoding="utf-8"?>
<!-- Generator: Adobe Illustrator 16.0.0, SVG Export Plug-In . SVG Version: 6.00 Build 0)  -->
<!DOCTYPE svg PUBLIC "-//W3C//DTD SVG 1.1//EN" "http://www.w3.org/Graphics/SVG/1.1/DTD/svg11.dtd">
<svg version="1.1" id="Layer_1" xmlns="http://www.w3.org/2000/svg" xmlns:xlink="http://www.w3.org/1999/xlink" x="0px" y="0px"
	 width="425.2px" height="425.2px" viewBox="0 0 425.2 425.2" enable-background="new 0 0 425.2 425.2" xml:space="preserve">
<g>
	<g>
		<path style="fill:rgba(255,255,255,0.8);" d="M212.6,423.7C96.199,423.7,1.5,329.001,1.5,212.6S96.199,1.5,212.6,1.5s211.1,94.699,211.1,211.1
			S329.001,423.7,212.6,423.7z"/>
		<path fill="#231F20" d="M212.6,3c28.297,0,55.746,5.542,81.584,16.47c24.959,10.557,47.375,25.67,66.625,44.92
			c19.25,19.25,34.364,41.666,44.92,66.625c10.929,25.839,16.47,53.288,16.47,81.585c0,28.297-5.542,55.747-16.47,81.585
			c-10.557,24.958-25.67,47.375-44.92,66.625c-19.25,19.25-41.666,34.364-66.625,44.92c-25.838,10.929-53.287,16.47-81.584,16.47
			s-55.747-5.542-81.585-16.47c-24.958-10.556-47.375-25.669-66.625-44.92c-19.25-19.25-34.364-41.666-44.92-66.625
			C8.542,268.347,3,240.897,3,212.6s5.542-55.746,16.47-81.585c10.557-24.958,25.67-47.375,44.92-66.625
			c19.25-19.25,41.666-34.364,66.625-44.92C156.854,8.542,184.303,3,212.6,3 M212.6,0C95.184,0,0,95.185,0,212.6
			c0,117.417,95.184,212.6,212.6,212.6c117.416,0,212.6-95.183,212.6-212.6C425.2,95.185,330.016,0,212.6,0L212.6,0z"/>
	</g>
	<g>
		
			<circle fill="none" stroke="#231F20" stroke-width="12.546" stroke-miterlimit="10" stroke-dasharray="2.942,5.884" cx="212.6" cy="212.6" r="196.651"/>
	</g>
</g>
<g>
	<path d="M77.528,109.182h8.345c1.65,0,2.982,0.468,3.997,1.403c1.014,0.935,1.521,2.249,1.521,3.942
		c0,1.456-0.453,2.723-1.358,3.802s-2.291,1.619-4.156,1.619h-5.823v7.884h-2.526V109.182z M87.327,111.747
		c-0.555-0.262-1.315-0.394-2.281-0.394h-4.991v6.462h4.991c1.126,0,2.04-0.241,2.741-0.724c0.702-0.482,1.053-1.333,1.053-2.552
		C88.84,113.168,88.335,112.237,87.327,111.747z"/>
	<path d="M104.176,115.592c1.202,1.167,1.803,2.883,1.803,5.149c0,2.19-0.53,4-1.588,5.429c-1.059,1.429-2.702,2.144-4.929,2.144
		c-1.857,0-3.332-0.632-4.425-1.896s-1.639-2.962-1.639-5.093c0-2.283,0.576-4.102,1.727-5.455c1.151-1.353,2.698-2.029,4.639-2.029
		C101.503,113.841,102.974,114.425,104.176,115.592z M102.757,124.628c0.557-1.145,0.835-2.419,0.835-3.823
		c0-1.268-0.201-2.299-0.603-3.094c-0.636-1.251-1.732-1.877-3.289-1.877c-1.381,0-2.385,0.533-3.013,1.598
		c-0.627,1.065-0.941,2.35-0.941,3.855c0,1.445,0.314,2.65,0.941,3.614c0.627,0.963,1.624,1.445,2.988,1.445
		C101.173,126.346,102.2,125.773,102.757,124.628z"/>
	<path d="M108.848,114.235h2.171v2.349c0.178-0.457,0.614-1.014,1.308-1.669s1.494-0.984,2.399-0.984
		c0.042,0,0.114,0.004,0.216,0.013s0.275,0.025,0.521,0.051v2.412c-0.135-0.025-0.26-0.042-0.375-0.051s-0.239-0.013-0.375-0.013
		c-1.151,0-2.036,0.37-2.653,1.111s-0.927,1.593-0.927,2.558v7.82h-2.285V114.235z"/>
	<path d="M126.024,123.566c0.069,0.762,0.263,1.346,0.583,1.752c0.587,0.736,1.607,1.104,3.058,1.104
		c0.864,0,1.624-0.184,2.28-0.552s0.985-0.938,0.985-1.708c0-0.584-0.262-1.028-0.787-1.333c-0.335-0.186-0.998-0.402-1.987-0.647
		l-1.845-0.457c-1.178-0.288-2.047-0.609-2.606-0.965c-0.998-0.618-1.497-1.473-1.497-2.564c0-1.287,0.47-2.328,1.409-3.123
		s2.202-1.193,3.789-1.193c2.076,0,3.572,0.601,4.49,1.803c0.575,0.762,0.854,1.583,0.837,2.463h-2.158
		c-0.043-0.513-0.229-0.98-0.559-1.401c-0.538-0.598-1.469-0.896-2.794-0.896c-0.884,0-1.553,0.165-2.008,0.493
		c-0.455,0.329-0.682,0.764-0.682,1.303c0,0.59,0.299,1.062,0.896,1.417c0.345,0.211,0.854,0.397,1.526,0.558l1.539,0.368
		c1.673,0.398,2.794,0.783,3.363,1.155c0.889,0.584,1.333,1.502,1.333,2.755c0,1.21-0.465,2.255-1.395,3.136s-2.346,1.32-4.248,1.32
		c-2.048,0-3.498-0.459-4.351-1.377c-0.853-0.918-1.309-2.055-1.369-3.409H126.024z"/>
	<path d="M139.951,114.235v9.026c0,0.694,0.107,1.261,0.322,1.701c0.396,0.812,1.133,1.219,2.213,1.219
		c1.549,0,2.604-0.711,3.165-2.133c0.305-0.762,0.458-1.807,0.458-3.136v-6.678h2.285v13.597h-2.158l0.025-2.006
		c-0.291,0.516-0.652,0.952-1.084,1.308c-0.855,0.711-1.893,1.066-3.114,1.066c-1.902,0-3.198-0.647-3.887-1.942
		c-0.374-0.694-0.561-1.621-0.561-2.78v-9.242H139.951z"/>
	<path d="M153.484,123.566c0.069,0.762,0.263,1.346,0.583,1.752c0.587,0.736,1.607,1.104,3.058,1.104
		c0.864,0,1.624-0.184,2.28-0.552s0.985-0.938,0.985-1.708c0-0.584-0.262-1.028-0.787-1.333c-0.335-0.186-0.998-0.402-1.987-0.647
		l-1.845-0.457c-1.178-0.288-2.047-0.609-2.606-0.965c-0.998-0.618-1.497-1.473-1.497-2.564c0-1.287,0.47-2.328,1.409-3.123
		s2.202-1.193,3.789-1.193c2.076,0,3.572,0.601,4.49,1.803c0.575,0.762,0.854,1.583,0.837,2.463h-2.158
		c-0.043-0.513-0.229-0.98-0.559-1.401c-0.538-0.598-1.469-0.896-2.794-0.896c-0.884,0-1.553,0.165-2.008,0.493
		c-0.455,0.329-0.682,0.764-0.682,1.303c0,0.59,0.299,1.062,0.896,1.417c0.345,0.211,0.854,0.397,1.526,0.558l1.539,0.368
		c1.673,0.398,2.794,0.783,3.363,1.155c0.889,0.584,1.333,1.502,1.333,2.755c0,1.21-0.465,2.255-1.395,3.136s-2.346,1.32-4.248,1.32
		c-2.048,0-3.498-0.459-4.351-1.377c-0.853-0.918-1.309-2.055-1.369-3.409H153.484z"/>
	<path d="M173.473,114.235l3.631,11.07l3.783-11.07h2.501l-5.119,13.597h-2.435l-5.015-13.597H173.473z"/>
	<path d="M193.748,114.609c0.9,0.453,1.585,1.039,2.057,1.758c0.454,0.686,0.757,1.485,0.908,2.399
		c0.135,0.626,0.202,1.625,0.202,2.996h-9.89c0.042,1.383,0.365,2.493,0.97,3.329c0.604,0.836,1.541,1.254,2.809,1.254
		c1.184,0,2.129-0.396,2.834-1.186c0.395-0.459,0.674-0.99,0.839-1.594h2.247c-0.059,0.5-0.256,1.056-0.59,1.669
		s-0.708,1.115-1.119,1.504c-0.689,0.677-1.542,1.134-2.558,1.371c-0.546,0.135-1.164,0.203-1.853,0.203
		c-1.682,0-3.107-0.616-4.277-1.847c-1.169-1.231-1.753-2.956-1.753-5.173c0-2.184,0.589-3.957,1.767-5.319
		c1.177-1.363,2.717-2.044,4.618-2.044C191.918,113.93,192.848,114.157,193.748,114.609z M194.566,119.948
		c-0.092-0.99-0.307-1.782-0.642-2.374c-0.621-1.1-1.658-1.65-3.109-1.65c-1.041,0-1.914,0.379-2.619,1.136
		c-0.705,0.757-1.078,1.72-1.12,2.888H194.566z"/>
	<path d="M199.873,114.235h2.171v2.349c0.178-0.457,0.614-1.014,1.308-1.669s1.494-0.984,2.399-0.984
		c0.042,0,0.114,0.004,0.216,0.013s0.275,0.025,0.521,0.051v2.412c-0.135-0.025-0.26-0.042-0.375-0.051s-0.239-0.013-0.375-0.013
		c-1.151,0-2.036,0.37-2.653,1.111s-0.927,1.593-0.927,2.558v7.82h-2.285V114.235z"/>
	<path d="M216.866,114.609c0.9,0.453,1.585,1.039,2.057,1.758c0.454,0.686,0.757,1.485,0.908,2.399
		c0.135,0.626,0.202,1.625,0.202,2.996h-9.89c0.042,1.383,0.365,2.493,0.97,3.329c0.604,0.836,1.541,1.254,2.809,1.254
		c1.184,0,2.129-0.396,2.834-1.186c0.395-0.459,0.674-0.99,0.839-1.594h2.247c-0.059,0.5-0.256,1.056-0.59,1.669
		s-0.708,1.115-1.119,1.504c-0.689,0.677-1.542,1.134-2.558,1.371c-0.546,0.135-1.164,0.203-1.853,0.203
		c-1.682,0-3.107-0.616-4.277-1.847c-1.169-1.231-1.753-2.956-1.753-5.173c0-2.184,0.589-3.957,1.767-5.319
		c1.177-1.363,2.717-2.044,4.618-2.044C215.037,113.93,215.966,114.157,216.866,114.609z M217.685,119.948
		c-0.092-0.99-0.307-1.782-0.642-2.374c-0.621-1.1-1.658-1.65-3.109-1.65c-1.041,0-1.914,0.379-2.619,1.136
		c-0.705,0.757-1.078,1.72-1.12,2.888H217.685z"/>
	<path d="M230.398,114.654c0.405,0.254,0.864,0.698,1.378,1.333v-6.868h2.196v18.713h-2.057v-1.892
		c-0.531,0.838-1.16,1.443-1.884,1.815c-0.726,0.373-1.556,0.559-2.492,0.559c-1.509,0-2.816-0.637-3.92-1.911
		s-1.657-2.969-1.657-5.084c0-1.98,0.503-3.696,1.511-5.148c1.007-1.452,2.447-2.177,4.319-2.177
		C228.83,113.994,229.698,114.214,230.398,114.654z M225.297,124.848c0.615,0.982,1.6,1.473,2.956,1.473
		c1.052,0,1.917-0.455,2.596-1.365c0.678-0.91,1.017-2.215,1.017-3.917c0-1.718-0.35-2.99-1.048-3.815
		c-0.699-0.825-1.562-1.238-2.589-1.238c-1.146,0-2.074,0.44-2.785,1.32c-0.712,0.88-1.067,2.175-1.067,3.885
		C224.375,122.647,224.682,123.866,225.297,124.848z"/>
	<path d="M244.675,119.603c0.525-0.067,0.876-0.287,1.054-0.659c0.102-0.204,0.152-0.497,0.152-0.879
		c0-0.781-0.277-1.349-0.83-1.701s-1.345-0.529-2.375-0.529c-1.191,0-2.036,0.323-2.534,0.97c-0.279,0.357-0.46,0.889-0.545,1.595
		h-2.133c0.042-1.681,0.585-2.85,1.629-3.507s2.255-0.987,3.633-0.987c1.598,0,2.896,0.305,3.893,0.914
		c0.989,0.609,1.483,1.557,1.483,2.844v7.833c0,0.237,0.049,0.428,0.146,0.571s0.303,0.215,0.616,0.215
		c0.102,0,0.216-0.006,0.343-0.019s0.262-0.032,0.406-0.057v1.688c-0.355,0.102-0.626,0.165-0.812,0.19s-0.44,0.038-0.762,0.038
		c-0.787,0-1.358-0.279-1.714-0.838c-0.186-0.296-0.317-0.715-0.394-1.256c-0.465,0.609-1.134,1.138-2.006,1.586
		c-0.872,0.449-1.833,0.673-2.882,0.673c-1.261,0-2.292-0.383-3.091-1.147c-0.8-0.765-1.2-1.722-1.2-2.872
		c0-1.259,0.394-2.236,1.181-2.929c0.787-0.693,1.82-1.12,3.098-1.281L244.675,119.603z M239.863,125.776
		c0.482,0.38,1.054,0.57,1.714,0.57c0.804,0,1.583-0.186,2.336-0.558c1.27-0.617,1.904-1.626,1.904-3.029v-1.838
		c-0.279,0.178-0.638,0.327-1.077,0.446c-0.439,0.119-0.87,0.204-1.292,0.254l-1.381,0.177c-0.828,0.11-1.45,0.283-1.867,0.52
		c-0.707,0.397-1.06,1.03-1.06,1.9C239.14,124.877,239.381,125.396,239.863,125.776z"/>
	<path d="M253.206,123.566c0.069,0.762,0.263,1.346,0.583,1.752c0.587,0.736,1.607,1.104,3.058,1.104
		c0.864,0,1.624-0.184,2.28-0.552s0.985-0.938,0.985-1.708c0-0.584-0.262-1.028-0.787-1.333c-0.335-0.186-0.998-0.402-1.987-0.647
		l-1.845-0.457c-1.178-0.288-2.047-0.609-2.606-0.965c-0.998-0.618-1.497-1.473-1.497-2.564c0-1.287,0.47-2.328,1.409-3.123
		s2.202-1.193,3.789-1.193c2.076,0,3.572,0.601,4.49,1.803c0.575,0.762,0.854,1.583,0.837,2.463h-2.158
		c-0.043-0.513-0.229-0.98-0.559-1.401c-0.538-0.598-1.469-0.896-2.794-0.896c-0.884,0-1.553,0.165-2.008,0.493
		c-0.455,0.329-0.682,0.764-0.682,1.303c0,0.59,0.299,1.062,0.896,1.417c0.345,0.211,0.854,0.397,1.526,0.558l1.539,0.368
		c1.673,0.398,2.794,0.783,3.363,1.155c0.889,0.584,1.333,1.502,1.333,2.755c0,1.21-0.465,2.255-1.395,3.136s-2.346,1.32-4.248,1.32
		c-2.048,0-3.498-0.459-4.351-1.377c-0.853-0.918-1.309-2.055-1.369-3.409H253.206z"/>
	<path d="M271.881,114.298h2.234v1.803c0.458-0.618,0.959-1.096,1.502-1.435c0.772-0.508,1.68-0.762,2.724-0.762
		c1.544,0,2.855,0.59,3.933,1.771s1.617,2.867,1.617,5.059c0,2.962-0.777,5.078-2.333,6.348c-0.985,0.804-2.133,1.206-3.441,1.206
		c-1.028,0-1.891-0.224-2.587-0.673c-0.408-0.254-0.862-0.69-1.364-1.308v6.944h-2.285V114.298z M280.479,124.956
		c0.709-0.893,1.063-2.228,1.063-4.005c0-1.083-0.157-2.014-0.471-2.793c-0.595-1.498-1.682-2.247-3.261-2.247
		c-1.588,0-2.675,0.792-3.261,2.374c-0.314,0.846-0.471,1.921-0.471,3.225c0,1.049,0.157,1.942,0.471,2.679
		c0.594,1.405,1.682,2.107,3.261,2.107C278.879,126.295,279.769,125.849,280.479,124.956z"/>
	<path d="M296.383,115.592c1.202,1.167,1.803,2.883,1.803,5.149c0,2.19-0.53,4-1.588,5.429c-1.059,1.429-2.702,2.144-4.929,2.144
		c-1.857,0-3.332-0.632-4.425-1.896s-1.639-2.962-1.639-5.093c0-2.283,0.576-4.102,1.727-5.455c1.151-1.353,2.698-2.029,4.639-2.029
		C293.71,113.841,295.181,114.425,296.383,115.592z M294.964,124.628c0.557-1.145,0.835-2.419,0.835-3.823
		c0-1.268-0.201-2.299-0.603-3.094c-0.636-1.251-1.732-1.877-3.289-1.877c-1.381,0-2.385,0.533-3.013,1.598
		c-0.627,1.065-0.941,2.35-0.941,3.855c0,1.445,0.314,2.65,0.941,3.614c0.627,0.963,1.624,1.445,2.988,1.445
		C293.38,126.346,294.407,125.773,294.964,124.628z"/>
	<path d="M308.461,114.654c0.405,0.254,0.864,0.698,1.378,1.333v-6.868h2.196v18.713h-2.057v-1.892
		c-0.531,0.838-1.16,1.443-1.884,1.815c-0.726,0.373-1.556,0.559-2.492,0.559c-1.509,0-2.816-0.637-3.92-1.911
		s-1.657-2.969-1.657-5.084c0-1.98,0.503-3.696,1.511-5.148c1.007-1.452,2.447-2.177,4.319-2.177
		C306.894,113.994,307.762,114.214,308.461,114.654z M303.36,124.848c0.615,0.982,1.6,1.473,2.956,1.473
		c1.052,0,1.917-0.455,2.596-1.365c0.678-0.91,1.017-2.215,1.017-3.917c0-1.718-0.35-2.99-1.048-3.815
		c-0.699-0.825-1.562-1.238-2.589-1.238c-1.146,0-2.074,0.44-2.785,1.32c-0.712,0.88-1.067,2.175-1.067,3.885
		C302.438,122.647,302.746,123.866,303.36,124.848z"/>
	<path d="M315.515,114.235h2.171v2.349c0.178-0.457,0.614-1.014,1.308-1.669s1.494-0.984,2.399-0.984
		c0.042,0,0.114,0.004,0.216,0.013s0.275,0.025,0.521,0.051v2.412c-0.135-0.025-0.26-0.042-0.375-0.051s-0.239-0.013-0.375-0.013
		c-1.151,0-2.036,0.37-2.653,1.111s-0.927,1.593-0.927,2.558v7.82h-2.285V114.235z"/>
	<path d="M331.396,119.603c0.525-0.067,0.876-0.287,1.054-0.659c0.102-0.204,0.152-0.497,0.152-0.879
		c0-0.781-0.277-1.349-0.83-1.701s-1.345-0.529-2.375-0.529c-1.191,0-2.036,0.323-2.534,0.97c-0.279,0.357-0.46,0.889-0.545,1.595
		h-2.133c0.042-1.681,0.585-2.85,1.629-3.507s2.255-0.987,3.633-0.987c1.598,0,2.896,0.305,3.893,0.914
		c0.989,0.609,1.483,1.557,1.483,2.844v7.833c0,0.237,0.049,0.428,0.146,0.571s0.303,0.215,0.616,0.215
		c0.102,0,0.216-0.006,0.343-0.019s0.262-0.032,0.406-0.057v1.688c-0.355,0.102-0.626,0.165-0.812,0.19s-0.44,0.038-0.762,0.038
		c-0.787,0-1.358-0.279-1.714-0.838c-0.186-0.296-0.317-0.715-0.394-1.256c-0.465,0.609-1.134,1.138-2.006,1.586
		c-0.872,0.449-1.833,0.673-2.882,0.673c-1.261,0-2.292-0.383-3.091-1.147c-0.8-0.765-1.2-1.722-1.2-2.872
		c0-1.259,0.394-2.236,1.181-2.929c0.787-0.693,1.82-1.12,3.098-1.281L331.396,119.603z M326.585,125.776
		c0.482,0.38,1.054,0.57,1.714,0.57c0.804,0,1.583-0.186,2.336-0.558c1.27-0.617,1.904-1.626,1.904-3.029v-1.838
		c-0.279,0.178-0.638,0.327-1.077,0.446c-0.439,0.119-0.87,0.204-1.292,0.254l-1.381,0.177c-0.828,0.11-1.45,0.283-1.867,0.52
		c-0.707,0.397-1.06,1.03-1.06,1.9C325.861,124.877,326.103,125.396,326.585,125.776z M332.361,108.763l-3.39,3.669h-1.752
		l2.323-3.669H332.361z"/>
	<path d="M339.928,123.566c0.069,0.762,0.263,1.346,0.583,1.752c0.587,0.736,1.607,1.104,3.058,1.104
		c0.864,0,1.624-0.184,2.28-0.552s0.985-0.938,0.985-1.708c0-0.584-0.262-1.028-0.787-1.333c-0.335-0.186-0.998-0.402-1.987-0.647
		l-1.845-0.457c-1.178-0.288-2.047-0.609-2.606-0.965c-0.998-0.618-1.497-1.473-1.497-2.564c0-1.287,0.47-2.328,1.409-3.123
		s2.202-1.193,3.789-1.193c2.076,0,3.572,0.601,4.49,1.803c0.575,0.762,0.854,1.583,0.837,2.463h-2.158
		c-0.043-0.513-0.229-0.98-0.559-1.401c-0.538-0.598-1.469-0.896-2.794-0.896c-0.884,0-1.553,0.165-2.008,0.493
		c-0.455,0.329-0.682,0.764-0.682,1.303c0,0.59,0.299,1.062,0.896,1.417c0.345,0.211,0.854,0.397,1.526,0.558l1.539,0.368
		c1.673,0.398,2.794,0.783,3.363,1.155c0.889,0.584,1.333,1.502,1.333,2.755c0,1.21-0.465,2.255-1.395,3.136s-2.346,1.32-4.248,1.32
		c-2.048,0-3.498-0.459-4.351-1.377c-0.853-0.918-1.309-2.055-1.369-3.409H339.928z"/>
	<path d="M98.176,145.854c0.405,0.254,0.864,0.698,1.378,1.333v-6.868h2.196v18.713h-2.057v-1.892
		c-0.531,0.838-1.16,1.443-1.884,1.815c-0.726,0.373-1.556,0.559-2.492,0.559c-1.509,0-2.816-0.637-3.92-1.911
		s-1.657-2.969-1.657-5.084c0-1.98,0.503-3.696,1.511-5.148c1.007-1.452,2.447-2.177,4.319-2.177
		C96.608,145.194,97.477,145.414,98.176,145.854z M93.075,156.048c0.615,0.982,1.6,1.473,2.956,1.473
		c1.052,0,1.917-0.455,2.596-1.365c0.678-0.91,1.017-2.215,1.017-3.917c0-1.718-0.35-2.99-1.048-3.815
		c-0.699-0.825-1.562-1.238-2.589-1.238c-1.146,0-2.074,0.44-2.785,1.32c-0.712,0.88-1.067,2.175-1.067,3.885
		C92.153,153.848,92.46,155.066,93.075,156.048z"/>
	<path d="M112.453,150.803c0.525-0.067,0.876-0.287,1.054-0.659c0.102-0.204,0.152-0.497,0.152-0.879
		c0-0.781-0.277-1.349-0.83-1.701s-1.345-0.529-2.375-0.529c-1.191,0-2.036,0.323-2.534,0.97c-0.279,0.357-0.46,0.889-0.545,1.595
		h-2.133c0.042-1.681,0.585-2.85,1.629-3.507s2.255-0.987,3.633-0.987c1.598,0,2.896,0.305,3.893,0.914
		c0.989,0.609,1.483,1.557,1.483,2.844v7.833c0,0.237,0.049,0.428,0.146,0.571s0.303,0.215,0.616,0.215
		c0.102,0,0.216-0.006,0.343-0.019s0.262-0.032,0.406-0.057v1.688c-0.355,0.102-0.626,0.165-0.812,0.19s-0.44,0.038-0.762,0.038
		c-0.787,0-1.358-0.279-1.714-0.838c-0.186-0.296-0.317-0.715-0.394-1.256c-0.465,0.609-1.134,1.138-2.006,1.586
		c-0.872,0.449-1.833,0.673-2.882,0.673c-1.261,0-2.292-0.383-3.091-1.147c-0.8-0.765-1.2-1.722-1.2-2.872
		c0-1.259,0.394-2.236,1.181-2.929c0.787-0.693,1.82-1.12,3.098-1.281L112.453,150.803z M107.642,156.977
		c0.482,0.38,1.054,0.57,1.714,0.57c0.804,0,1.583-0.186,2.336-0.558c1.27-0.617,1.904-1.626,1.904-3.029v-1.838
		c-0.279,0.178-0.638,0.327-1.077,0.446c-0.439,0.119-0.87,0.204-1.292,0.254l-1.381,0.177c-0.828,0.11-1.45,0.283-1.867,0.52
		c-0.707,0.397-1.06,1.03-1.06,1.9C106.918,156.077,107.159,156.596,107.642,156.977z"/>
	<path d="M119.689,145.435h2.171v2.349c0.178-0.457,0.614-1.014,1.308-1.669s1.494-0.984,2.399-0.984
		c0.042,0,0.114,0.004,0.216,0.013s0.275,0.025,0.521,0.051v2.412c-0.135-0.025-0.26-0.042-0.375-0.051s-0.239-0.013-0.375-0.013
		c-1.151,0-2.036,0.37-2.653,1.111s-0.927,1.593-0.927,2.558v7.82h-2.285V145.435z"/>
	<path d="M135.317,145.499h2.234v1.803c0.458-0.618,0.959-1.096,1.502-1.435c0.772-0.508,1.68-0.762,2.724-0.762
		c1.544,0,2.855,0.59,3.933,1.771s1.617,2.867,1.617,5.059c0,2.962-0.777,5.078-2.333,6.348c-0.985,0.804-2.133,1.206-3.441,1.206
		c-1.028,0-1.891-0.224-2.587-0.673c-0.408-0.254-0.862-0.69-1.364-1.308v6.944h-2.285V145.499z M143.915,156.156
		c0.709-0.893,1.063-2.228,1.063-4.005c0-1.083-0.157-2.014-0.471-2.793c-0.595-1.498-1.682-2.247-3.261-2.247
		c-1.588,0-2.675,0.792-3.261,2.374c-0.314,0.846-0.471,1.921-0.471,3.225c0,1.049,0.157,1.942,0.471,2.679
		c0.594,1.405,1.682,2.107,3.261,2.107C142.316,157.496,143.206,157.049,143.915,156.156z"/>
	<path d="M157.255,150.803c0.525-0.067,0.876-0.287,1.054-0.659c0.102-0.204,0.152-0.497,0.152-0.879
		c0-0.781-0.277-1.349-0.83-1.701s-1.345-0.529-2.375-0.529c-1.191,0-2.036,0.323-2.534,0.97c-0.279,0.357-0.46,0.889-0.545,1.595
		h-2.133c0.042-1.681,0.585-2.85,1.629-3.507s2.255-0.987,3.633-0.987c1.598,0,2.896,0.305,3.893,0.914
		c0.989,0.609,1.483,1.557,1.483,2.844v7.833c0,0.237,0.049,0.428,0.146,0.571s0.303,0.215,0.616,0.215
		c0.102,0,0.216-0.006,0.343-0.019s0.262-0.032,0.406-0.057v1.688c-0.355,0.102-0.626,0.165-0.812,0.19s-0.44,0.038-0.762,0.038
		c-0.787,0-1.358-0.279-1.714-0.838c-0.186-0.296-0.317-0.715-0.394-1.256c-0.465,0.609-1.134,1.138-2.006,1.586
		c-0.872,0.449-1.833,0.673-2.882,0.673c-1.261,0-2.292-0.383-3.091-1.147c-0.8-0.765-1.2-1.722-1.2-2.872
		c0-1.259,0.394-2.236,1.181-2.929c0.787-0.693,1.82-1.12,3.098-1.281L157.255,150.803z M152.443,156.977
		c0.482,0.38,1.054,0.57,1.714,0.57c0.804,0,1.583-0.186,2.336-0.558c1.27-0.617,1.904-1.626,1.904-3.029v-1.838
		c-0.279,0.178-0.638,0.327-1.077,0.446c-0.439,0.119-0.87,0.204-1.292,0.254l-1.381,0.177c-0.828,0.11-1.45,0.283-1.867,0.52
		c-0.707,0.397-1.06,1.03-1.06,1.9C151.72,156.077,151.961,156.596,152.443,156.977z"/>
	<path d="M165.786,154.766c0.069,0.762,0.263,1.346,0.583,1.752c0.587,0.736,1.607,1.104,3.058,1.104
		c0.864,0,1.624-0.184,2.28-0.552s0.985-0.938,0.985-1.708c0-0.584-0.262-1.028-0.787-1.333c-0.335-0.186-0.998-0.402-1.987-0.647
		l-1.845-0.457c-1.178-0.288-2.047-0.609-2.606-0.965c-0.998-0.618-1.497-1.473-1.497-2.564c0-1.287,0.47-2.328,1.409-3.123
		s2.202-1.193,3.789-1.193c2.076,0,3.572,0.601,4.49,1.803c0.575,0.762,0.854,1.583,0.837,2.463h-2.158
		c-0.043-0.513-0.229-0.98-0.559-1.401c-0.538-0.598-1.469-0.896-2.794-0.896c-0.884,0-1.553,0.165-2.008,0.493
		c-0.455,0.329-0.682,0.764-0.682,1.303c0,0.59,0.299,1.062,0.896,1.417c0.345,0.211,0.854,0.397,1.526,0.558l1.539,0.368
		c1.673,0.398,2.794,0.783,3.363,1.155c0.889,0.584,1.333,1.502,1.333,2.755c0,1.21-0.465,2.255-1.395,3.136s-2.346,1.32-4.248,1.32
		c-2.048,0-3.498-0.459-4.351-1.377c-0.853-0.918-1.309-2.055-1.369-3.409H165.786z"/>
	<path d="M185.826,145.81c0.9,0.453,1.585,1.039,2.057,1.758c0.454,0.686,0.757,1.485,0.908,2.399
		c0.135,0.626,0.202,1.625,0.202,2.996h-9.89c0.042,1.383,0.365,2.493,0.97,3.329c0.604,0.836,1.541,1.254,2.809,1.254
		c1.184,0,2.129-0.396,2.834-1.186c0.395-0.459,0.674-0.99,0.839-1.594h2.247c-0.059,0.5-0.256,1.056-0.59,1.669
		s-0.708,1.115-1.119,1.504c-0.689,0.677-1.542,1.134-2.558,1.371c-0.546,0.135-1.164,0.203-1.853,0.203
		c-1.682,0-3.107-0.616-4.277-1.847c-1.169-1.231-1.753-2.956-1.753-5.173c0-2.184,0.589-3.957,1.767-5.319
		c1.177-1.363,2.717-2.044,4.618-2.044C183.997,145.13,184.926,145.357,185.826,145.81z M186.645,151.148
		c-0.092-0.99-0.307-1.782-0.642-2.374c-0.621-1.1-1.658-1.65-3.109-1.65c-1.041,0-1.914,0.379-2.619,1.136
		c-0.705,0.757-1.078,1.72-1.12,2.888H186.645z"/>
	<path d="M201.739,146.792c1.202,1.167,1.803,2.883,1.803,5.149c0,2.19-0.53,4-1.588,5.429c-1.059,1.429-2.702,2.144-4.929,2.144
		c-1.857,0-3.332-0.632-4.425-1.896s-1.639-2.962-1.639-5.093c0-2.283,0.576-4.102,1.727-5.455c1.151-1.353,2.698-2.029,4.639-2.029
		C199.067,145.042,200.538,145.625,201.739,146.792z M200.32,155.828c0.557-1.145,0.835-2.419,0.835-3.823
		c0-1.268-0.201-2.299-0.603-3.094c-0.636-1.251-1.732-1.877-3.289-1.877c-1.381,0-2.385,0.533-3.013,1.598
		c-0.627,1.065-0.941,2.35-0.941,3.855c0,1.445,0.314,2.65,0.941,3.614c0.627,0.963,1.624,1.445,2.988,1.445
		C198.737,157.546,199.764,156.974,200.32,155.828z"/>
	<path d="M207.706,154.766c0.069,0.762,0.263,1.346,0.583,1.752c0.587,0.736,1.607,1.104,3.058,1.104
		c0.864,0,1.624-0.184,2.28-0.552s0.985-0.938,0.985-1.708c0-0.584-0.262-1.028-0.787-1.333c-0.335-0.186-0.998-0.402-1.987-0.647
		l-1.845-0.457c-1.178-0.288-2.047-0.609-2.606-0.965c-0.998-0.618-1.497-1.473-1.497-2.564c0-1.287,0.47-2.328,1.409-3.123
		s2.202-1.193,3.789-1.193c2.076,0,3.572,0.601,4.49,1.803c0.575,0.762,0.854,1.583,0.837,2.463h-2.158
		c-0.043-0.513-0.229-0.98-0.559-1.401c-0.538-0.598-1.469-0.896-2.794-0.896c-0.884,0-1.553,0.165-2.008,0.493
		c-0.455,0.329-0.682,0.764-0.682,1.303c0,0.59,0.299,1.062,0.896,1.417c0.345,0.211,0.854,0.397,1.526,0.558l1.539,0.368
		c1.673,0.398,2.794,0.783,3.363,1.155c0.889,0.584,1.333,1.502,1.333,2.755c0,1.21-0.465,2.255-1.395,3.136s-2.346,1.32-4.248,1.32
		c-2.048,0-3.498-0.459-4.351-1.377c-0.853-0.918-1.309-2.055-1.369-3.409H207.706z"/>
	<path d="M234.97,145.81c0.9,0.453,1.585,1.039,2.057,1.758c0.454,0.686,0.757,1.485,0.908,2.399
		c0.135,0.626,0.202,1.625,0.202,2.996h-9.89c0.042,1.383,0.365,2.493,0.97,3.329c0.604,0.836,1.541,1.254,2.809,1.254
		c1.184,0,2.129-0.396,2.834-1.186c0.395-0.459,0.674-0.99,0.839-1.594h2.247c-0.059,0.5-0.256,1.056-0.59,1.669
		s-0.708,1.115-1.119,1.504c-0.689,0.677-1.542,1.134-2.558,1.371c-0.546,0.135-1.164,0.203-1.853,0.203
		c-1.682,0-3.107-0.616-4.277-1.847c-1.169-1.231-1.753-2.956-1.753-5.173c0-2.184,0.589-3.957,1.767-5.319
		c1.177-1.363,2.717-2.044,4.618-2.044C233.14,145.13,234.069,145.357,234.97,145.81z M235.788,151.148
		c-0.092-0.99-0.307-1.782-0.642-2.374c-0.621-1.1-1.658-1.65-3.109-1.65c-1.041,0-1.914,0.379-2.619,1.136
		c-0.705,0.757-1.078,1.72-1.12,2.888H235.788z"/>
	<path d="M241.031,145.435h2.171v1.93c0.643-0.795,1.325-1.367,2.044-1.714s1.519-0.521,2.399-0.521c1.93,0,3.233,0.673,3.91,2.019
		c0.373,0.736,0.559,1.79,0.559,3.161v8.722h-2.323v-8.569c0-0.83-0.123-1.498-0.368-2.006c-0.406-0.846-1.143-1.27-2.209-1.27
		c-0.542,0-0.986,0.055-1.333,0.165c-0.626,0.186-1.176,0.559-1.65,1.117c-0.381,0.449-0.628,0.912-0.743,1.39
		s-0.171,1.162-0.171,2.05v7.122h-2.285V145.435z"/>
	<path d="M263.781,141.284c0.533-0.779,1.562-1.168,3.085-1.168c0.144,0,0.292,0.004,0.444,0.013s0.326,0.021,0.521,0.038v2.082
		c-0.24-0.017-0.413-0.027-0.52-0.032s-0.208-0.006-0.302-0.006c-0.702,0-1.121,0.18-1.258,0.54
		c-0.137,0.36-0.205,1.276-0.205,2.749h2.285v1.803h-2.285v11.73h-2.26v-11.73h-1.892v-1.803h1.892v-2.133
		C263.32,142.418,263.485,141.724,263.781,141.284z"/>
	<path d="M277.226,150.803c0.525-0.067,0.876-0.287,1.054-0.659c0.102-0.204,0.152-0.497,0.152-0.879
		c0-0.781-0.277-1.349-0.83-1.701s-1.345-0.529-2.375-0.529c-1.191,0-2.036,0.323-2.534,0.97c-0.279,0.357-0.46,0.889-0.545,1.595
		h-2.133c0.042-1.681,0.585-2.85,1.629-3.507s2.255-0.987,3.633-0.987c1.598,0,2.896,0.305,3.893,0.914
		c0.989,0.609,1.483,1.557,1.483,2.844v7.833c0,0.237,0.049,0.428,0.146,0.571s0.303,0.215,0.616,0.215
		c0.102,0,0.216-0.006,0.343-0.019s0.262-0.032,0.406-0.057v1.688c-0.355,0.102-0.626,0.165-0.812,0.19s-0.44,0.038-0.762,0.038
		c-0.787,0-1.358-0.279-1.714-0.838c-0.186-0.296-0.317-0.715-0.394-1.256c-0.465,0.609-1.134,1.138-2.006,1.586
		c-0.872,0.449-1.833,0.673-2.882,0.673c-1.261,0-2.292-0.383-3.091-1.147c-0.8-0.765-1.2-1.722-1.2-2.872
		c0-1.259,0.394-2.236,1.181-2.929c0.787-0.693,1.82-1.12,3.098-1.281L277.226,150.803z M272.414,156.977
		c0.482,0.38,1.054,0.57,1.714,0.57c0.804,0,1.583-0.186,2.336-0.558c1.27-0.617,1.904-1.626,1.904-3.029v-1.838
		c-0.279,0.178-0.638,0.327-1.077,0.446c-0.439,0.119-0.87,0.204-1.292,0.254l-1.381,0.177c-0.828,0.11-1.45,0.283-1.867,0.52
		c-0.707,0.397-1.06,1.03-1.06,1.9C271.69,156.077,271.932,156.596,272.414,156.977z"/>
	<path d="M284.398,145.435h2.26v1.93c0.542-0.668,1.033-1.155,1.473-1.46c0.753-0.516,1.608-0.774,2.564-0.774
		c1.083,0,1.955,0.267,2.615,0.8c0.373,0.305,0.711,0.753,1.016,1.346c0.508-0.728,1.104-1.268,1.79-1.619s1.456-0.527,2.311-0.527
		c1.828,0,3.072,0.66,3.732,1.98c0.355,0.711,0.533,1.667,0.533,2.869v9.052h-2.374v-9.445c0-0.906-0.227-1.528-0.679-1.866
		s-1.005-0.508-1.657-0.508c-0.897,0-1.669,0.3-2.317,0.901s-0.971,1.604-0.971,3.009v7.909h-2.323v-8.874
		c0-0.922-0.11-1.595-0.33-2.019c-0.347-0.635-0.995-0.952-1.942-0.952c-0.863,0-1.648,0.334-2.355,1.003s-1.06,1.879-1.06,3.631
		v7.211h-2.285V145.435z"/>
	<path d="M306.057,140.382h2.323v2.59h-2.323V140.382z M306.057,145.499h2.323v13.533h-2.323V145.499z"/>
	<path d="M311.896,140.382h2.285v18.649h-2.285V140.382z"/>
	<path d="M317.609,140.382h2.323v2.59h-2.323V140.382z M317.609,145.499h2.323v13.533h-2.323V145.499z"/>
	<path d="M330.673,150.803c0.525-0.067,0.876-0.287,1.054-0.659c0.102-0.204,0.152-0.497,0.152-0.879
		c0-0.781-0.277-1.349-0.83-1.701s-1.345-0.529-2.375-0.529c-1.191,0-2.036,0.323-2.534,0.97c-0.279,0.357-0.46,0.889-0.545,1.595
		h-2.133c0.042-1.681,0.585-2.85,1.629-3.507s2.255-0.987,3.633-0.987c1.598,0,2.896,0.305,3.893,0.914
		c0.989,0.609,1.483,1.557,1.483,2.844v7.833c0,0.237,0.049,0.428,0.146,0.571s0.303,0.215,0.616,0.215
		c0.102,0,0.216-0.006,0.343-0.019s0.262-0.032,0.406-0.057v1.688c-0.355,0.102-0.626,0.165-0.812,0.19s-0.44,0.038-0.762,0.038
		c-0.787,0-1.358-0.279-1.714-0.838c-0.186-0.296-0.317-0.715-0.394-1.256c-0.465,0.609-1.134,1.138-2.006,1.586
		c-0.872,0.449-1.833,0.673-2.882,0.673c-1.261,0-2.292-0.383-3.091-1.147c-0.8-0.765-1.2-1.722-1.2-2.872
		c0-1.259,0.394-2.236,1.181-2.929c0.787-0.693,1.82-1.12,3.098-1.281L330.673,150.803z M325.861,156.977
		c0.482,0.38,1.054,0.57,1.714,0.57c0.804,0,1.583-0.186,2.336-0.558c1.27-0.617,1.904-1.626,1.904-3.029v-1.838
		c-0.279,0.178-0.638,0.327-1.077,0.446c-0.439,0.119-0.87,0.204-1.292,0.254l-1.381,0.177c-0.828,0.11-1.45,0.283-1.867,0.52
		c-0.707,0.397-1.06,1.03-1.06,1.9C325.138,156.077,325.379,156.596,325.861,156.977z"/>
	<path d="M95.511,177.992c1.202,1.167,1.803,2.883,1.803,5.149c0,2.19-0.53,4-1.588,5.429c-1.059,1.429-2.702,2.144-4.929,2.144
		c-1.857,0-3.332-0.632-4.425-1.896s-1.639-2.962-1.639-5.093c0-2.283,0.576-4.102,1.727-5.455c1.151-1.353,2.698-2.029,4.639-2.029
		C92.839,176.241,94.31,176.825,95.511,177.992z M94.092,187.028c0.557-1.145,0.835-2.419,0.835-3.823
		c0-1.268-0.201-2.299-0.603-3.094c-0.636-1.251-1.732-1.877-3.289-1.877c-1.381,0-2.385,0.533-3.013,1.598
		c-0.627,1.065-0.941,2.35-0.941,3.855c0,1.445,0.314,2.65,0.941,3.614c0.627,0.963,1.624,1.445,2.988,1.445
		C92.509,188.746,93.536,188.173,94.092,187.028z"/>
	<path d="M107.153,176.698h2.234v1.803c0.458-0.618,0.959-1.096,1.502-1.435c0.772-0.508,1.68-0.762,2.724-0.762
		c1.544,0,2.855,0.59,3.933,1.771s1.617,2.867,1.617,5.059c0,2.962-0.777,5.078-2.333,6.348c-0.985,0.804-2.133,1.206-3.441,1.206
		c-1.028,0-1.891-0.224-2.587-0.673c-0.408-0.254-0.862-0.69-1.364-1.308v6.944h-2.285V176.698z M115.75,187.356
		c0.709-0.893,1.063-2.228,1.063-4.005c0-1.083-0.157-2.014-0.471-2.793c-0.595-1.498-1.682-2.247-3.261-2.247
		c-1.588,0-2.675,0.792-3.261,2.374c-0.314,0.846-0.471,1.921-0.471,3.225c0,1.049,0.157,1.942,0.471,2.679
		c0.594,1.405,1.682,2.107,3.261,2.107C114.151,188.695,115.041,188.249,115.75,187.356z"/>
	<path d="M129.09,182.003c0.525-0.067,0.876-0.287,1.054-0.659c0.102-0.204,0.152-0.497,0.152-0.879c0-0.781-0.277-1.349-0.83-1.701
		s-1.345-0.529-2.375-0.529c-1.191,0-2.036,0.323-2.534,0.97c-0.279,0.357-0.46,0.889-0.545,1.595h-2.133
		c0.042-1.681,0.585-2.85,1.629-3.507s2.255-0.987,3.633-0.987c1.598,0,2.896,0.305,3.893,0.914
		c0.989,0.609,1.483,1.557,1.483,2.844v7.833c0,0.237,0.049,0.428,0.146,0.571s0.303,0.215,0.616,0.215
		c0.102,0,0.216-0.006,0.343-0.019s0.262-0.032,0.406-0.057v1.688c-0.355,0.102-0.626,0.165-0.812,0.19s-0.44,0.038-0.762,0.038
		c-0.787,0-1.358-0.279-1.714-0.838c-0.186-0.296-0.317-0.715-0.394-1.256c-0.465,0.609-1.134,1.138-2.006,1.586
		c-0.872,0.449-1.833,0.673-2.882,0.673c-1.261,0-2.292-0.383-3.091-1.147c-0.8-0.765-1.2-1.722-1.2-2.872
		c0-1.259,0.394-2.236,1.181-2.929c0.787-0.693,1.82-1.12,3.098-1.281L129.09,182.003z M124.279,188.176
		c0.482,0.38,1.054,0.57,1.714,0.57c0.804,0,1.583-0.186,2.336-0.558c1.27-0.617,1.904-1.626,1.904-3.029v-1.838
		c-0.279,0.178-0.638,0.327-1.077,0.446c-0.439,0.119-0.87,0.204-1.292,0.254l-1.381,0.177c-0.828,0.11-1.45,0.283-1.867,0.52
		c-0.707,0.397-1.06,1.03-1.06,1.9C123.555,187.277,123.796,187.796,124.279,188.176z"/>
	<path d="M136.327,176.635h2.171v2.349c0.178-0.457,0.614-1.014,1.308-1.669s1.494-0.984,2.399-0.984
		c0.042,0,0.114,0.004,0.216,0.013s0.275,0.025,0.521,0.051v2.412c-0.135-0.025-0.26-0.042-0.375-0.051s-0.239-0.013-0.375-0.013
		c-1.151,0-2.036,0.37-2.653,1.111s-0.927,1.593-0.927,2.558v7.82h-2.285V176.635z"/>
	<path d="M153.32,177.009c0.9,0.453,1.585,1.039,2.057,1.758c0.454,0.686,0.757,1.485,0.908,2.399
		c0.135,0.626,0.202,1.625,0.202,2.996h-9.89c0.042,1.383,0.365,2.493,0.97,3.329c0.604,0.836,1.541,1.254,2.809,1.254
		c1.184,0,2.129-0.396,2.834-1.186c0.395-0.459,0.674-0.99,0.839-1.594h2.247c-0.059,0.5-0.256,1.056-0.59,1.669
		s-0.708,1.115-1.119,1.504c-0.689,0.677-1.542,1.134-2.558,1.371c-0.546,0.135-1.164,0.203-1.853,0.203
		c-1.682,0-3.107-0.616-4.277-1.847c-1.169-1.231-1.753-2.956-1.753-5.173c0-2.184,0.589-3.957,1.767-5.319
		c1.177-1.363,2.717-2.044,4.618-2.044C151.49,176.33,152.419,176.557,153.32,177.009z M154.138,182.348
		c-0.092-0.99-0.307-1.782-0.642-2.374c-0.621-1.1-1.658-1.65-3.109-1.65c-1.041,0-1.914,0.379-2.619,1.136
		c-0.705,0.757-1.078,1.72-1.12,2.888H154.138z"/>
	<path d="M157.223,193.672c1.024-0.034,1.64-0.125,1.847-0.273s0.311-0.611,0.311-1.39v-15.311h2.285v15.552
		c0,0.99-0.161,1.731-0.482,2.222c-0.533,0.83-1.544,1.244-3.034,1.244c-0.11,0-0.227-0.004-0.349-0.013s-0.315-0.025-0.578-0.051
		V193.672z M161.667,174.223h-2.285v-2.641h2.285V174.223z"/>
	<path d="M172.445,182.003c0.525-0.067,0.876-0.287,1.054-0.659c0.102-0.204,0.152-0.497,0.152-0.879
		c0-0.781-0.277-1.349-0.83-1.701s-1.345-0.529-2.375-0.529c-1.191,0-2.036,0.323-2.534,0.97c-0.279,0.357-0.46,0.889-0.545,1.595
		h-2.133c0.042-1.681,0.585-2.85,1.629-3.507s2.255-0.987,3.633-0.987c1.598,0,2.896,0.305,3.893,0.914
		c0.989,0.609,1.483,1.557,1.483,2.844v7.833c0,0.237,0.049,0.428,0.146,0.571s0.303,0.215,0.616,0.215
		c0.102,0,0.216-0.006,0.343-0.019s0.262-0.032,0.406-0.057v1.688c-0.355,0.102-0.626,0.165-0.812,0.19s-0.44,0.038-0.762,0.038
		c-0.787,0-1.358-0.279-1.714-0.838c-0.186-0.296-0.317-0.715-0.394-1.256c-0.465,0.609-1.134,1.138-2.006,1.586
		c-0.872,0.449-1.833,0.673-2.882,0.673c-1.261,0-2.292-0.383-3.091-1.147c-0.8-0.765-1.2-1.722-1.2-2.872
		c0-1.259,0.394-2.236,1.181-2.929c0.787-0.693,1.82-1.12,3.098-1.281L172.445,182.003z M167.633,188.176
		c0.482,0.38,1.054,0.57,1.714,0.57c0.804,0,1.583-0.186,2.336-0.558c1.27-0.617,1.904-1.626,1.904-3.029v-1.838
		c-0.279,0.178-0.638,0.327-1.077,0.446c-0.439,0.119-0.87,0.204-1.292,0.254l-1.381,0.177c-0.828,0.11-1.45,0.283-1.867,0.52
		c-0.707,0.397-1.06,1.03-1.06,1.9C166.91,187.277,167.151,187.796,167.633,188.176z"/>
	<path d="M195.341,176.635h2.526c-0.322,0.872-1.037,2.862-2.146,5.97c-0.83,2.337-1.523,4.242-2.082,5.715
		c-1.319,3.467-2.249,5.582-2.791,6.343c-0.541,0.761-1.471,1.142-2.79,1.142c-0.322,0-0.569-0.013-0.742-0.038
		s-0.387-0.072-0.641-0.14v-2.082c0.397,0.11,0.685,0.178,0.862,0.203s0.333,0.038,0.469,0.038c0.422,0,0.732-0.07,0.931-0.209
		c0.199-0.14,0.366-0.311,0.501-0.513c0.042-0.068,0.194-0.414,0.456-1.039c0.262-0.625,0.452-1.09,0.57-1.394l-5.027-13.997h2.59
		l3.644,11.075L195.341,176.635z"/>
	<path d="M214.352,182.003c0.525-0.067,0.876-0.287,1.054-0.659c0.102-0.204,0.152-0.497,0.152-0.879
		c0-0.781-0.277-1.349-0.83-1.701s-1.345-0.529-2.375-0.529c-1.191,0-2.036,0.323-2.534,0.97c-0.279,0.357-0.46,0.889-0.545,1.595
		h-2.133c0.042-1.681,0.585-2.85,1.629-3.507s2.255-0.987,3.633-0.987c1.598,0,2.896,0.305,3.893,0.914
		c0.989,0.609,1.483,1.557,1.483,2.844v7.833c0,0.237,0.049,0.428,0.146,0.571s0.303,0.215,0.616,0.215
		c0.102,0,0.216-0.006,0.343-0.019s0.262-0.032,0.406-0.057v1.688c-0.355,0.102-0.626,0.165-0.812,0.19s-0.44,0.038-0.762,0.038
		c-0.787,0-1.358-0.279-1.714-0.838c-0.186-0.296-0.317-0.715-0.394-1.256c-0.465,0.609-1.134,1.138-2.006,1.586
		c-0.872,0.449-1.833,0.673-2.882,0.673c-1.261,0-2.292-0.383-3.091-1.147c-0.8-0.765-1.2-1.722-1.2-2.872
		c0-1.259,0.394-2.236,1.181-2.929c0.787-0.693,1.82-1.12,3.098-1.281L214.352,182.003z M209.541,188.176
		c0.482,0.38,1.054,0.57,1.714,0.57c0.804,0,1.583-0.186,2.336-0.558c1.27-0.617,1.904-1.626,1.904-3.029v-1.838
		c-0.279,0.178-0.638,0.327-1.077,0.446c-0.439,0.119-0.87,0.204-1.292,0.254l-1.381,0.177c-0.828,0.11-1.45,0.283-1.867,0.52
		c-0.707,0.397-1.06,1.03-1.06,1.9C208.817,187.277,209.058,187.796,209.541,188.176z"/>
	<path d="M222.883,185.966c0.069,0.762,0.263,1.346,0.583,1.752c0.587,0.736,1.607,1.104,3.058,1.104
		c0.864,0,1.624-0.184,2.28-0.552s0.985-0.938,0.985-1.708c0-0.584-0.262-1.028-0.787-1.333c-0.335-0.186-0.998-0.402-1.987-0.647
		l-1.845-0.457c-1.178-0.288-2.047-0.609-2.606-0.965c-0.998-0.618-1.497-1.473-1.497-2.564c0-1.287,0.47-2.328,1.409-3.123
		s2.202-1.193,3.789-1.193c2.076,0,3.572,0.601,4.49,1.803c0.575,0.762,0.854,1.583,0.837,2.463h-2.158
		c-0.043-0.513-0.229-0.98-0.559-1.401c-0.538-0.598-1.469-0.896-2.794-0.896c-0.884,0-1.553,0.165-2.008,0.493
		c-0.455,0.329-0.682,0.764-0.682,1.303c0,0.59,0.299,1.062,0.896,1.417c0.345,0.211,0.854,0.397,1.526,0.558l1.539,0.368
		c1.673,0.398,2.794,0.783,3.363,1.155c0.889,0.584,1.333,1.502,1.333,2.755c0,1.21-0.465,2.255-1.395,3.136s-2.346,1.32-4.248,1.32
		c-2.048,0-3.498-0.459-4.351-1.377c-0.853-0.918-1.309-2.055-1.369-3.409H222.883z"/>
	<path d="M239.298,171.163l-3.39,3.669h-1.752l2.323-3.669H239.298z M235.249,176.698h2.323v13.533h-2.323V176.698z"/>
	<path d="M256.442,177.054c0.405,0.254,0.864,0.698,1.378,1.333v-6.868h2.196v18.713h-2.057v-1.892
		c-0.531,0.838-1.16,1.443-1.884,1.815c-0.726,0.373-1.556,0.559-2.492,0.559c-1.509,0-2.816-0.637-3.92-1.911
		s-1.657-2.969-1.657-5.084c0-1.98,0.503-3.696,1.511-5.148c1.007-1.452,2.447-2.177,4.319-2.177
		C254.875,176.394,255.743,176.614,256.442,177.054z M251.341,187.248c0.615,0.982,1.6,1.473,2.956,1.473
		c1.052,0,1.917-0.455,2.596-1.365c0.678-0.91,1.017-2.215,1.017-3.917c0-1.718-0.35-2.99-1.048-3.815
		c-0.699-0.825-1.562-1.238-2.589-1.238c-1.146,0-2.074,0.44-2.785,1.32c-0.712,0.88-1.067,2.175-1.067,3.885
		C250.419,185.047,250.727,186.266,251.341,187.248z"/>
	<path d="M263.432,171.582h2.323v2.59h-2.323V171.582z M263.432,176.698h2.323v13.533h-2.323V176.698z"/>
	<path d="M270.567,185.966c0.069,0.762,0.263,1.346,0.583,1.752c0.587,0.736,1.607,1.104,3.058,1.104
		c0.864,0,1.624-0.184,2.28-0.552s0.985-0.938,0.985-1.708c0-0.584-0.262-1.028-0.787-1.333c-0.335-0.186-0.998-0.402-1.987-0.647
		l-1.845-0.457c-1.178-0.288-2.047-0.609-2.606-0.965c-0.998-0.618-1.497-1.473-1.497-2.564c0-1.287,0.47-2.328,1.409-3.123
		s2.202-1.193,3.789-1.193c2.076,0,3.572,0.601,4.49,1.803c0.575,0.762,0.854,1.583,0.837,2.463h-2.158
		c-0.043-0.513-0.229-0.98-0.559-1.401c-0.538-0.598-1.469-0.896-2.794-0.896c-0.884,0-1.553,0.165-2.008,0.493
		c-0.455,0.329-0.682,0.764-0.682,1.303c0,0.59,0.299,1.062,0.896,1.417c0.345,0.211,0.854,0.397,1.526,0.558l1.539,0.368
		c1.673,0.398,2.794,0.783,3.363,1.155c0.889,0.584,1.333,1.502,1.333,2.755c0,1.21-0.465,2.255-1.395,3.136s-2.346,1.32-4.248,1.32
		c-2.048,0-3.498-0.459-4.351-1.377c-0.853-0.918-1.309-2.055-1.369-3.409H270.567z"/>
	<path d="M283.275,172.483c0.533-0.779,1.562-1.168,3.085-1.168c0.144,0,0.292,0.004,0.444,0.013s0.326,0.021,0.521,0.038v2.082
		c-0.24-0.017-0.413-0.027-0.52-0.032s-0.208-0.006-0.302-0.006c-0.702,0-1.121,0.18-1.258,0.54
		c-0.137,0.36-0.205,1.276-0.205,2.749h2.285v1.803h-2.285v11.73h-2.26v-11.73h-1.892v-1.803h1.892v-2.133
		C282.813,173.618,282.979,172.923,283.275,172.483z"/>
	<path d="M289.496,176.635h2.171v2.349c0.178-0.457,0.614-1.014,1.308-1.669s1.494-0.984,2.399-0.984
		c0.042,0,0.114,0.004,0.216,0.013s0.275,0.025,0.521,0.051v2.412c-0.135-0.025-0.26-0.042-0.375-0.051s-0.239-0.013-0.375-0.013
		c-1.151,0-2.036,0.37-2.653,1.111s-0.927,1.593-0.927,2.558v7.82h-2.285V176.635z"/>
	<path d="M300.375,176.635v9.026c0,0.694,0.107,1.261,0.322,1.701c0.396,0.812,1.133,1.219,2.213,1.219
		c1.549,0,2.604-0.711,3.165-2.133c0.305-0.762,0.458-1.807,0.458-3.136v-6.678h2.285v13.597h-2.158l0.025-2.006
		c-0.291,0.516-0.652,0.952-1.084,1.308c-0.855,0.711-1.893,1.066-3.114,1.066c-1.902,0-3.198-0.647-3.887-1.942
		c-0.374-0.694-0.561-1.621-0.561-2.78v-9.242H300.375z"/>
	<path d="M313.007,172.839h2.311v3.796h2.171v1.866h-2.171v8.874c0,0.474,0.161,0.792,0.482,0.952
		c0.178,0.093,0.474,0.14,0.889,0.14c0.11,0,0.229-0.003,0.355-0.008s0.275-0.02,0.444-0.042v1.815
		c-0.262,0.076-0.535,0.131-0.819,0.165s-0.59,0.051-0.92,0.051c-1.066,0-1.79-0.273-2.171-0.819s-0.571-1.255-0.571-2.126v-9.001
		h-1.841v-1.866h1.841V172.839z"/>
	<path d="M327.061,182.003c0.525-0.067,0.876-0.287,1.054-0.659c0.102-0.204,0.152-0.497,0.152-0.879
		c0-0.781-0.277-1.349-0.83-1.701s-1.345-0.529-2.375-0.529c-1.191,0-2.036,0.323-2.534,0.97c-0.279,0.357-0.46,0.889-0.545,1.595
		h-2.133c0.042-1.681,0.585-2.85,1.629-3.507s2.255-0.987,3.633-0.987c1.598,0,2.896,0.305,3.893,0.914
		c0.989,0.609,1.483,1.557,1.483,2.844v7.833c0,0.237,0.049,0.428,0.146,0.571s0.303,0.215,0.616,0.215
		c0.102,0,0.216-0.006,0.343-0.019s0.262-0.032,0.406-0.057v1.688c-0.355,0.102-0.626,0.165-0.812,0.19s-0.44,0.038-0.762,0.038
		c-0.787,0-1.358-0.279-1.714-0.838c-0.186-0.296-0.317-0.715-0.394-1.256c-0.465,0.609-1.134,1.138-2.006,1.586
		c-0.872,0.449-1.833,0.673-2.882,0.673c-1.261,0-2.292-0.383-3.091-1.147c-0.8-0.765-1.2-1.722-1.2-2.872
		c0-1.259,0.394-2.236,1.181-2.929c0.787-0.693,1.82-1.12,3.098-1.281L327.061,182.003z M322.25,188.176
		c0.482,0.38,1.054,0.57,1.714,0.57c0.804,0,1.583-0.186,2.336-0.558c1.27-0.617,1.904-1.626,1.904-3.029v-1.838
		c-0.279,0.178-0.638,0.327-1.077,0.446c-0.439,0.119-0.87,0.204-1.292,0.254l-1.381,0.177c-0.828,0.11-1.45,0.283-1.867,0.52
		c-0.707,0.397-1.06,1.03-1.06,1.9C321.526,187.277,321.767,187.796,322.25,188.176z"/>
	<path d="M334.297,176.635h2.171v2.349c0.178-0.457,0.614-1.014,1.308-1.669s1.494-0.984,2.399-0.984
		c0.042,0,0.114,0.004,0.216,0.013s0.275,0.025,0.521,0.051v2.412c-0.135-0.025-0.26-0.042-0.375-0.051s-0.239-0.013-0.375-0.013
		c-1.151,0-2.036,0.37-2.653,1.111s-0.927,1.593-0.927,2.558v7.82h-2.285V176.635z"/>
	<path d="M56.256,208.254c0.405,0.254,0.864,0.698,1.378,1.333v-6.868h2.196v18.713h-2.057v-1.892
		c-0.531,0.838-1.16,1.443-1.884,1.815c-0.726,0.373-1.556,0.559-2.492,0.559c-1.509,0-2.816-0.637-3.92-1.911
		s-1.657-2.969-1.657-5.084c0-1.98,0.503-3.696,1.511-5.148c1.007-1.452,2.447-2.177,4.319-2.177
		C54.688,207.594,55.557,207.814,56.256,208.254z M51.155,218.448c0.615,0.982,1.6,1.473,2.956,1.473
		c1.052,0,1.917-0.455,2.596-1.365c0.678-0.91,1.017-2.215,1.017-3.917c0-1.718-0.35-2.99-1.048-3.815
		c-0.699-0.825-1.562-1.238-2.589-1.238c-1.146,0-2.074,0.44-2.785,1.32c-0.712,0.88-1.067,2.175-1.067,3.885
		C50.233,216.248,50.541,217.466,51.155,218.448z"/>
	<path d="M71.645,208.209c0.9,0.453,1.585,1.039,2.057,1.758c0.454,0.686,0.757,1.485,0.908,2.399
		c0.135,0.626,0.202,1.625,0.202,2.996h-9.89c0.042,1.383,0.365,2.493,0.97,3.329c0.604,0.836,1.541,1.254,2.809,1.254
		c1.184,0,2.129-0.396,2.834-1.186c0.395-0.459,0.674-0.99,0.839-1.594h2.247c-0.059,0.5-0.256,1.056-0.59,1.669
		s-0.708,1.115-1.119,1.504c-0.689,0.677-1.542,1.134-2.558,1.371c-0.546,0.135-1.164,0.203-1.853,0.203
		c-1.682,0-3.107-0.616-4.277-1.847c-1.169-1.231-1.753-2.956-1.753-5.173c0-2.184,0.589-3.957,1.767-5.319
		c1.177-1.363,2.717-2.044,4.618-2.044C69.815,207.53,70.744,207.757,71.645,208.209z M72.463,213.548
		c-0.092-0.99-0.307-1.782-0.642-2.374c-0.621-1.1-1.658-1.65-3.109-1.65c-1.041,0-1.914,0.379-2.619,1.136
		c-0.705,0.757-1.078,1.72-1.12,2.888H72.463z"/>
	<path d="M84.993,202.782h2.285v18.649h-2.285V202.782z"/>
	<path d="M97.993,213.203c0.525-0.067,0.876-0.287,1.054-0.659c0.102-0.204,0.152-0.497,0.152-0.879c0-0.781-0.277-1.349-0.83-1.701
		s-1.345-0.529-2.375-0.529c-1.191,0-2.036,0.323-2.534,0.97c-0.279,0.357-0.46,0.889-0.545,1.595h-2.133
		c0.042-1.681,0.585-2.85,1.629-3.507s2.255-0.987,3.633-0.987c1.598,0,2.896,0.305,3.893,0.914
		c0.989,0.609,1.483,1.557,1.483,2.844v7.833c0,0.237,0.049,0.428,0.146,0.571s0.303,0.215,0.616,0.215
		c0.102,0,0.216-0.006,0.343-0.019s0.262-0.032,0.406-0.057v1.688c-0.355,0.102-0.626,0.165-0.812,0.19s-0.44,0.038-0.762,0.038
		c-0.787,0-1.358-0.279-1.714-0.838c-0.186-0.296-0.317-0.715-0.394-1.256c-0.465,0.609-1.134,1.138-2.006,1.586
		c-0.872,0.449-1.833,0.673-2.882,0.673c-1.261,0-2.292-0.383-3.091-1.147c-0.8-0.765-1.2-1.722-1.2-2.872
		c0-1.259,0.394-2.236,1.181-2.929c0.787-0.693,1.82-1.12,3.098-1.281L97.993,213.203z M93.182,219.376
		c0.482,0.38,1.054,0.57,1.714,0.57c0.804,0,1.583-0.186,2.336-0.558c1.27-0.617,1.904-1.626,1.904-3.029v-1.838
		c-0.279,0.178-0.638,0.327-1.077,0.446c-0.439,0.119-0.87,0.204-1.292,0.254l-1.381,0.177c-0.828,0.11-1.45,0.283-1.867,0.52
		c-0.707,0.397-1.06,1.03-1.06,1.9C92.458,218.477,92.699,218.996,93.182,219.376z"/>
	<path d="M120.788,208.209c0.9,0.453,1.585,1.039,2.057,1.758c0.454,0.686,0.757,1.485,0.908,2.399
		c0.135,0.626,0.202,1.625,0.202,2.996h-9.89c0.042,1.383,0.365,2.493,0.97,3.329c0.604,0.836,1.541,1.254,2.809,1.254
		c1.184,0,2.129-0.396,2.834-1.186c0.395-0.459,0.674-0.99,0.839-1.594h2.247c-0.059,0.5-0.256,1.056-0.59,1.669
		s-0.708,1.115-1.119,1.504c-0.689,0.677-1.542,1.134-2.558,1.371c-0.546,0.135-1.164,0.203-1.853,0.203
		c-1.682,0-3.107-0.616-4.277-1.847c-1.169-1.231-1.753-2.956-1.753-5.173c0-2.184,0.589-3.957,1.767-5.319
		c1.177-1.363,2.717-2.044,4.618-2.044C118.958,207.53,119.888,207.757,120.788,208.209z M121.606,213.548
		c-0.092-0.99-0.307-1.782-0.642-2.374c-0.621-1.1-1.658-1.65-3.109-1.65c-1.041,0-1.914,0.379-2.619,1.136
		c-0.705,0.757-1.078,1.72-1.12,2.888H121.606z"/>
	<path d="M125.555,207.835h2.958l3.123,4.786l3.161-4.786l2.78,0.063l-4.583,6.563l4.786,6.97h-2.92l-3.377-5.104l-3.275,5.104
		h-2.895l4.786-6.97L125.555,207.835z"/>
	<path d="M139.659,207.898h2.234v1.803c0.458-0.618,0.959-1.096,1.502-1.435c0.772-0.508,1.68-0.762,2.724-0.762
		c1.544,0,2.855,0.59,3.933,1.771s1.617,2.867,1.617,5.059c0,2.962-0.777,5.078-2.333,6.348c-0.985,0.804-2.133,1.206-3.441,1.206
		c-1.028,0-1.891-0.224-2.587-0.673c-0.408-0.254-0.862-0.69-1.364-1.308v6.944h-2.285V207.898z M148.257,218.556
		c0.709-0.893,1.063-2.228,1.063-4.005c0-1.083-0.157-2.014-0.471-2.793c-0.595-1.498-1.682-2.247-3.261-2.247
		c-1.588,0-2.675,0.792-3.261,2.374c-0.314,0.846-0.471,1.921-0.471,3.225c0,1.049,0.157,1.942,0.471,2.679
		c0.594,1.405,1.682,2.107,3.261,2.107C146.658,219.896,147.547,219.449,148.257,218.556z"/>
	<path d="M162.708,208.209c0.9,0.453,1.585,1.039,2.057,1.758c0.454,0.686,0.757,1.485,0.908,2.399
		c0.135,0.626,0.202,1.625,0.202,2.996h-9.89c0.042,1.383,0.365,2.493,0.97,3.329c0.604,0.836,1.541,1.254,2.809,1.254
		c1.184,0,2.129-0.396,2.834-1.186c0.395-0.459,0.674-0.99,0.839-1.594h2.247c-0.059,0.5-0.256,1.056-0.59,1.669
		s-0.708,1.115-1.119,1.504c-0.689,0.677-1.542,1.134-2.558,1.371c-0.546,0.135-1.164,0.203-1.853,0.203
		c-1.682,0-3.107-0.616-4.277-1.847c-1.169-1.231-1.753-2.956-1.753-5.173c0-2.184,0.589-3.957,1.767-5.319
		c1.177-1.363,2.717-2.044,4.618-2.044C160.878,207.53,161.808,207.757,162.708,208.209z M163.526,213.548
		c-0.092-0.99-0.307-1.782-0.642-2.374c-0.621-1.1-1.658-1.65-3.109-1.65c-1.041,0-1.914,0.379-2.619,1.136
		c-0.705,0.757-1.078,1.72-1.12,2.888H163.526z"/>
	<path d="M168.833,207.835h2.171v2.349c0.178-0.457,0.614-1.014,1.308-1.669s1.494-0.984,2.399-0.984
		c0.042,0,0.114,0.004,0.216,0.013s0.275,0.025,0.521,0.051v2.412c-0.135-0.025-0.26-0.042-0.375-0.051s-0.239-0.013-0.375-0.013
		c-1.151,0-2.036,0.37-2.653,1.111s-0.927,1.593-0.927,2.558v7.82h-2.285V207.835z"/>
	<path d="M177.428,202.782h2.323v2.59h-2.323V202.782z M177.428,207.898h2.323v13.533h-2.323V207.898z"/>
	<path d="M191.603,208.209c0.9,0.453,1.585,1.039,2.057,1.758c0.454,0.686,0.757,1.485,0.908,2.399
		c0.135,0.626,0.202,1.625,0.202,2.996h-9.89c0.042,1.383,0.365,2.493,0.97,3.329c0.604,0.836,1.541,1.254,2.809,1.254
		c1.184,0,2.129-0.396,2.834-1.186c0.395-0.459,0.674-0.99,0.839-1.594h2.247c-0.059,0.5-0.256,1.056-0.59,1.669
		s-0.708,1.115-1.119,1.504c-0.689,0.677-1.542,1.134-2.558,1.371c-0.546,0.135-1.164,0.203-1.853,0.203
		c-1.682,0-3.107-0.616-4.277-1.847c-1.169-1.231-1.753-2.956-1.753-5.173c0-2.184,0.589-3.957,1.767-5.319
		c1.177-1.363,2.717-2.044,4.618-2.044C189.773,207.53,190.702,207.757,191.603,208.209z M192.421,213.548
		c-0.092-0.99-0.307-1.782-0.642-2.374c-0.621-1.1-1.658-1.65-3.109-1.65c-1.041,0-1.914,0.379-2.619,1.136
		c-0.705,0.757-1.078,1.72-1.12,2.888H192.421z"/>
	<path d="M197.664,207.835h2.171v1.93c0.643-0.795,1.325-1.367,2.044-1.714s1.519-0.521,2.399-0.521c1.93,0,3.233,0.673,3.91,2.019
		c0.373,0.736,0.559,1.79,0.559,3.161v8.722h-2.323v-8.569c0-0.83-0.123-1.498-0.368-2.006c-0.406-0.846-1.143-1.27-2.209-1.27
		c-0.542,0-0.986,0.055-1.333,0.165c-0.626,0.186-1.176,0.559-1.65,1.117c-0.381,0.449-0.628,0.912-0.743,1.39
		s-0.171,1.162-0.171,2.05v7.122h-2.285V207.835z"/>
	<path d="M221.106,208.559c0.96,0.745,1.538,2.027,1.733,3.847h-2.222c-0.135-0.838-0.444-1.534-0.927-2.088
		s-1.257-0.832-2.323-0.832c-1.456,0-2.497,0.71-3.123,2.13c-0.406,0.921-0.609,2.058-0.609,3.411c0,1.361,0.288,2.506,0.863,3.437
		c0.576,0.93,1.481,1.395,2.717,1.395c0.948,0,1.699-0.289,2.253-0.866s0.938-1.368,1.149-2.371h2.222
		c-0.254,1.803-0.889,3.121-1.904,3.955s-2.315,1.25-3.897,1.25c-1.777,0-3.195-0.649-4.253-1.949s-1.587-2.922-1.587-4.869
		c0-2.387,0.58-4.245,1.739-5.573s2.636-1.993,4.431-1.993C218.899,207.441,220.146,207.814,221.106,208.559z"/>
	<path d="M225.124,202.782h2.323v2.59h-2.323V202.782z M225.124,207.898h2.323v13.533h-2.323V207.898z"/>
	<path d="M238.188,213.203c0.525-0.067,0.876-0.287,1.054-0.659c0.102-0.204,0.152-0.497,0.152-0.879
		c0-0.781-0.277-1.349-0.83-1.701s-1.345-0.529-2.375-0.529c-1.191,0-2.036,0.323-2.534,0.97c-0.279,0.357-0.46,0.889-0.545,1.595
		h-2.133c0.042-1.681,0.585-2.85,1.629-3.507s2.255-0.987,3.633-0.987c1.598,0,2.896,0.305,3.893,0.914
		c0.989,0.609,1.483,1.557,1.483,2.844v7.833c0,0.237,0.049,0.428,0.146,0.571s0.303,0.215,0.616,0.215
		c0.102,0,0.216-0.006,0.343-0.019s0.262-0.032,0.406-0.057v1.688c-0.355,0.102-0.626,0.165-0.812,0.19s-0.44,0.038-0.762,0.038
		c-0.787,0-1.358-0.279-1.714-0.838c-0.186-0.296-0.317-0.715-0.394-1.256c-0.465,0.609-1.134,1.138-2.006,1.586
		c-0.872,0.449-1.833,0.673-2.882,0.673c-1.261,0-2.292-0.383-3.091-1.147c-0.8-0.765-1.2-1.722-1.2-2.872
		c0-1.259,0.394-2.236,1.181-2.929c0.787-0.693,1.82-1.12,3.098-1.281L238.188,213.203z M233.376,219.376
		c0.482,0.38,1.054,0.57,1.714,0.57c0.804,0,1.583-0.186,2.336-0.558c1.27-0.617,1.904-1.626,1.904-3.029v-1.838
		c-0.279,0.178-0.638,0.327-1.077,0.446c-0.439,0.119-0.87,0.204-1.292,0.254l-1.381,0.177c-0.828,0.11-1.45,0.283-1.867,0.52
		c-0.707,0.397-1.06,1.03-1.06,1.9C232.652,218.477,232.894,218.996,233.376,219.376z"/>
	<path d="M260.054,208.254c0.405,0.254,0.864,0.698,1.378,1.333v-6.868h2.196v18.713h-2.057v-1.892
		c-0.531,0.838-1.16,1.443-1.884,1.815c-0.726,0.373-1.556,0.559-2.492,0.559c-1.509,0-2.816-0.637-3.92-1.911
		s-1.657-2.969-1.657-5.084c0-1.98,0.503-3.696,1.511-5.148c1.007-1.452,2.447-2.177,4.319-2.177
		C258.486,207.594,259.354,207.814,260.054,208.254z M254.953,218.448c0.615,0.982,1.6,1.473,2.956,1.473
		c1.052,0,1.917-0.455,2.596-1.365c0.678-0.91,1.017-2.215,1.017-3.917c0-1.718-0.35-2.99-1.048-3.815
		c-0.699-0.825-1.562-1.238-2.589-1.238c-1.146,0-2.074,0.44-2.785,1.32c-0.712,0.88-1.067,2.175-1.067,3.885
		C254.031,216.248,254.338,217.466,254.953,218.448z"/>
	<path d="M275.442,208.209c0.9,0.453,1.585,1.039,2.057,1.758c0.454,0.686,0.757,1.485,0.908,2.399
		c0.135,0.626,0.202,1.625,0.202,2.996h-9.89c0.042,1.383,0.365,2.493,0.97,3.329c0.604,0.836,1.541,1.254,2.809,1.254
		c1.184,0,2.129-0.396,2.834-1.186c0.395-0.459,0.674-0.99,0.839-1.594h2.247c-0.059,0.5-0.256,1.056-0.59,1.669
		s-0.708,1.115-1.119,1.504c-0.689,0.677-1.542,1.134-2.558,1.371c-0.546,0.135-1.164,0.203-1.853,0.203
		c-1.682,0-3.107-0.616-4.277-1.847c-1.169-1.231-1.753-2.956-1.753-5.173c0-2.184,0.589-3.957,1.767-5.319
		c1.177-1.363,2.717-2.044,4.618-2.044C273.613,207.53,274.542,207.757,275.442,208.209z M276.261,213.548
		c-0.092-0.99-0.307-1.782-0.642-2.374c-0.621-1.1-1.658-1.65-3.109-1.65c-1.041,0-1.914,0.379-2.619,1.136
		c-0.705,0.757-1.078,1.72-1.12,2.888H276.261z"/>
	<path d="M281.567,202.782h2.285v18.649h-2.285V202.782z"/>
	<path d="M303.486,208.559c0.96,0.745,1.538,2.027,1.733,3.847h-2.222c-0.135-0.838-0.444-1.534-0.927-2.088
		s-1.257-0.832-2.323-0.832c-1.456,0-2.497,0.71-3.123,2.13c-0.406,0.921-0.609,2.058-0.609,3.411c0,1.361,0.288,2.506,0.863,3.437
		c0.576,0.93,1.481,1.395,2.717,1.395c0.948,0,1.699-0.289,2.253-0.866s0.938-1.368,1.149-2.371h2.222
		c-0.254,1.803-0.889,3.121-1.904,3.955s-2.315,1.25-3.897,1.25c-1.777,0-3.195-0.649-4.253-1.949s-1.587-2.922-1.587-4.869
		c0-2.387,0.58-4.245,1.739-5.573s2.636-1.993,4.431-1.993C301.279,207.441,302.525,207.814,303.486,208.559z"/>
	<path d="M314.791,213.203c0.525-0.067,0.876-0.287,1.054-0.659c0.102-0.204,0.152-0.497,0.152-0.879
		c0-0.781-0.277-1.349-0.83-1.701s-1.345-0.529-2.375-0.529c-1.191,0-2.036,0.323-2.534,0.97c-0.279,0.357-0.46,0.889-0.545,1.595
		h-2.133c0.042-1.681,0.585-2.85,1.629-3.507s2.255-0.987,3.633-0.987c1.598,0,2.896,0.305,3.893,0.914
		c0.989,0.609,1.483,1.557,1.483,2.844v7.833c0,0.237,0.049,0.428,0.146,0.571s0.303,0.215,0.616,0.215
		c0.102,0,0.216-0.006,0.343-0.019s0.262-0.032,0.406-0.057v1.688c-0.355,0.102-0.626,0.165-0.812,0.19s-0.44,0.038-0.762,0.038
		c-0.787,0-1.358-0.279-1.714-0.838c-0.186-0.296-0.317-0.715-0.394-1.256c-0.465,0.609-1.134,1.138-2.006,1.586
		c-0.872,0.449-1.833,0.673-2.882,0.673c-1.261,0-2.292-0.383-3.091-1.147c-0.8-0.765-1.2-1.722-1.2-2.872
		c0-1.259,0.394-2.236,1.181-2.929c0.787-0.693,1.82-1.12,3.098-1.281L314.791,213.203z M309.979,219.376
		c0.482,0.38,1.054,0.57,1.714,0.57c0.804,0,1.583-0.186,2.336-0.558c1.27-0.617,1.904-1.626,1.904-3.029v-1.838
		c-0.279,0.178-0.638,0.327-1.077,0.446c-0.439,0.119-0.87,0.204-1.292,0.254l-1.381,0.177c-0.828,0.11-1.45,0.283-1.867,0.52
		c-0.707,0.397-1.06,1.03-1.06,1.9C309.256,218.477,309.497,218.996,309.979,219.376z"/>
	<path d="M321.964,207.835h2.26v1.93c0.542-0.668,1.033-1.155,1.473-1.46c0.753-0.516,1.608-0.774,2.564-0.774
		c1.083,0,1.955,0.267,2.615,0.8c0.373,0.305,0.711,0.753,1.016,1.346c0.508-0.728,1.104-1.268,1.79-1.619s1.456-0.527,2.311-0.527
		c1.828,0,3.072,0.66,3.732,1.98c0.355,0.711,0.533,1.667,0.533,2.869v9.052h-2.374v-9.445c0-0.906-0.227-1.528-0.679-1.866
		s-1.005-0.508-1.657-0.508c-0.897,0-1.669,0.3-2.317,0.901s-0.971,1.604-0.971,3.009v7.909h-2.323v-8.874
		c0-0.922-0.11-1.595-0.33-2.019c-0.347-0.635-0.995-0.952-1.942-0.952c-0.863,0-1.648,0.334-2.355,1.003s-1.06,1.879-1.06,3.631
		v7.211h-2.285V207.835z"/>
	<path d="M343.432,207.898h2.234v1.803c0.458-0.618,0.959-1.096,1.502-1.435c0.772-0.508,1.68-0.762,2.724-0.762
		c1.544,0,2.855,0.59,3.933,1.771s1.617,2.867,1.617,5.059c0,2.962-0.777,5.078-2.333,6.348c-0.985,0.804-2.133,1.206-3.441,1.206
		c-1.028,0-1.891-0.224-2.587-0.673c-0.408-0.254-0.862-0.69-1.364-1.308v6.944h-2.285V207.898z M352.029,218.556
		c0.709-0.893,1.063-2.228,1.063-4.005c0-1.083-0.157-2.014-0.471-2.793c-0.595-1.498-1.682-2.247-3.261-2.247
		c-1.588,0-2.675,0.792-3.261,2.374c-0.314,0.846-0.471,1.921-0.471,3.225c0,1.049,0.157,1.942,0.471,2.679
		c0.594,1.405,1.682,2.107,3.261,2.107C350.43,219.896,351.32,219.449,352.029,218.556z"/>
	<path d="M367.934,209.192c1.202,1.167,1.803,2.883,1.803,5.149c0,2.19-0.53,4-1.588,5.429c-1.059,1.429-2.702,2.144-4.929,2.144
		c-1.857,0-3.332-0.632-4.425-1.896s-1.639-2.962-1.639-5.093c0-2.283,0.576-4.102,1.727-5.455c1.151-1.353,2.698-2.029,4.639-2.029
		C365.261,207.441,366.732,208.025,367.934,209.192z M366.515,218.228c0.557-1.145,0.835-2.419,0.835-3.823
		c0-1.268-0.201-2.299-0.603-3.094c-0.636-1.251-1.732-1.877-3.289-1.877c-1.381,0-2.385,0.533-3.013,1.598
		c-0.627,1.065-0.941,2.35-0.941,3.855c0,1.445,0.314,2.65,0.941,3.614c0.627,0.963,1.624,1.445,2.988,1.445
		C364.931,219.946,365.958,219.374,366.515,218.228z"/>
	<path d="M373.088,218.664h2.653v2.768h-2.653V218.664z"/>
	<path d="M106.552,265.182h2.852l6.769,18.649h-2.768l-1.947-5.586h-7.317l-2.022,5.586h-2.59L106.552,265.182z M110.741,276.189
		l-2.871-8.239l-2.983,8.239H110.741z"/>
	<path d="M118.21,265.182h2.285v18.649h-2.285V265.182z"/>
	<path d="M132.322,270.609c0.9,0.453,1.585,1.039,2.057,1.758c0.454,0.686,0.757,1.485,0.908,2.399
		c0.135,0.626,0.202,1.625,0.202,2.996h-9.89c0.042,1.383,0.365,2.493,0.97,3.329c0.604,0.836,1.541,1.254,2.809,1.254
		c1.184,0,2.129-0.396,2.834-1.186c0.395-0.459,0.674-0.99,0.839-1.594h2.247c-0.059,0.5-0.256,1.056-0.59,1.669
		s-0.708,1.115-1.119,1.504c-0.689,0.677-1.542,1.134-2.558,1.371c-0.546,0.135-1.164,0.203-1.853,0.203
		c-1.682,0-3.107-0.616-4.277-1.847c-1.169-1.231-1.753-2.956-1.753-5.173c0-2.184,0.589-3.957,1.767-5.319
		c1.177-1.363,2.717-2.044,4.618-2.044C130.492,269.93,131.421,270.157,132.322,270.609z M133.14,275.948
		c-0.092-0.99-0.307-1.782-0.642-2.374c-0.621-1.1-1.658-1.65-3.109-1.65c-1.041,0-1.914,0.379-2.619,1.136
		c-0.705,0.757-1.078,1.72-1.12,2.888H133.14z M132.226,264.763l-3.39,3.669h-1.752l2.323-3.669H132.226z"/>
	<path d="M136.225,287.272c1.024-0.034,1.64-0.125,1.847-0.273s0.311-0.611,0.311-1.39v-15.311h2.285v15.552
		c0,0.99-0.161,1.731-0.482,2.222c-0.533,0.83-1.544,1.244-3.034,1.244c-0.11,0-0.227-0.004-0.349-0.013s-0.315-0.025-0.578-0.051
		V287.272z M140.668,267.823h-2.285v-2.641h2.285V267.823z"/>
	<path d="M151.447,275.603c0.525-0.067,0.876-0.287,1.054-0.659c0.102-0.204,0.152-0.497,0.152-0.879
		c0-0.781-0.277-1.349-0.83-1.701s-1.345-0.529-2.375-0.529c-1.191,0-2.036,0.323-2.534,0.97c-0.279,0.357-0.46,0.889-0.545,1.595
		h-2.133c0.042-1.681,0.585-2.85,1.629-3.507s2.255-0.987,3.633-0.987c1.598,0,2.896,0.305,3.893,0.914
		c0.989,0.609,1.483,1.557,1.483,2.844v7.833c0,0.237,0.049,0.428,0.146,0.571s0.303,0.215,0.616,0.215
		c0.102,0,0.216-0.006,0.343-0.019s0.262-0.032,0.406-0.057v1.688c-0.355,0.102-0.626,0.165-0.812,0.19s-0.44,0.038-0.762,0.038
		c-0.787,0-1.358-0.279-1.714-0.838c-0.186-0.296-0.317-0.715-0.394-1.256c-0.465,0.609-1.134,1.138-2.006,1.586
		c-0.872,0.449-1.833,0.673-2.882,0.673c-1.261,0-2.292-0.383-3.091-1.147c-0.8-0.765-1.2-1.722-1.2-2.872
		c0-1.259,0.394-2.236,1.181-2.929c0.787-0.693,1.82-1.12,3.098-1.281L151.447,275.603z M146.635,281.776
		c0.482,0.38,1.054,0.57,1.714,0.57c0.804,0,1.583-0.186,2.336-0.558c1.27-0.617,1.904-1.626,1.904-3.029v-1.838
		c-0.279,0.178-0.638,0.327-1.077,0.446c-0.439,0.119-0.87,0.204-1.292,0.254l-1.381,0.177c-0.828,0.11-1.45,0.283-1.867,0.52
		c-0.707,0.397-1.06,1.03-1.06,1.9C145.912,280.877,146.153,281.396,146.635,281.776z"/>
	<path d="M159.077,266.439h2.311v3.796h2.171v1.866h-2.171v8.874c0,0.474,0.161,0.792,0.482,0.952
		c0.178,0.093,0.474,0.14,0.889,0.14c0.11,0,0.229-0.003,0.355-0.008s0.275-0.02,0.444-0.042v1.815
		c-0.262,0.076-0.535,0.131-0.819,0.165s-0.59,0.051-0.92,0.051c-1.066,0-1.79-0.273-2.171-0.819s-0.571-1.255-0.571-2.126v-9.001
		h-1.841v-1.866h1.841V266.439z"/>
	<path d="M174.242,270.609c0.9,0.453,1.585,1.039,2.057,1.758c0.454,0.686,0.757,1.485,0.908,2.399
		c0.135,0.626,0.202,1.625,0.202,2.996h-9.89c0.042,1.383,0.365,2.493,0.97,3.329c0.604,0.836,1.541,1.254,2.809,1.254
		c1.184,0,2.129-0.396,2.834-1.186c0.395-0.459,0.674-0.99,0.839-1.594h2.247c-0.059,0.5-0.256,1.056-0.59,1.669
		s-0.708,1.115-1.119,1.504c-0.689,0.677-1.542,1.134-2.558,1.371c-0.546,0.135-1.164,0.203-1.853,0.203
		c-1.682,0-3.107-0.616-4.277-1.847c-1.169-1.231-1.753-2.956-1.753-5.173c0-2.184,0.589-3.957,1.767-5.319
		c1.177-1.363,2.717-2.044,4.618-2.044C172.412,269.93,173.341,270.157,174.242,270.609z M175.06,275.948
		c-0.092-0.99-0.307-1.782-0.642-2.374c-0.621-1.1-1.658-1.65-3.109-1.65c-1.041,0-1.914,0.379-2.619,1.136
		c-0.705,0.757-1.078,1.72-1.12,2.888H175.06z"/>
	<path d="M194.997,270.654c0.405,0.254,0.864,0.698,1.378,1.333v-6.868h2.196v18.713h-2.057v-1.892
		c-0.531,0.838-1.16,1.443-1.884,1.815c-0.726,0.373-1.556,0.559-2.492,0.559c-1.509,0-2.816-0.637-3.92-1.911
		s-1.657-2.969-1.657-5.084c0-1.98,0.503-3.696,1.511-5.148c1.007-1.452,2.447-2.177,4.319-2.177
		C193.429,269.994,194.297,270.214,194.997,270.654z M189.896,280.848c0.615,0.982,1.6,1.473,2.956,1.473
		c1.052,0,1.917-0.455,2.596-1.365c0.678-0.91,1.017-2.215,1.017-3.917c0-1.718-0.35-2.99-1.048-3.815
		c-0.699-0.825-1.562-1.238-2.589-1.238c-1.146,0-2.074,0.44-2.785,1.32c-0.712,0.88-1.067,2.175-1.067,3.885
		C188.974,278.647,189.281,279.866,189.896,280.848z"/>
	<path d="M210.385,270.609c0.9,0.453,1.585,1.039,2.057,1.758c0.454,0.686,0.757,1.485,0.908,2.399
		c0.135,0.626,0.202,1.625,0.202,2.996h-9.89c0.042,1.383,0.365,2.493,0.97,3.329c0.604,0.836,1.541,1.254,2.809,1.254
		c1.184,0,2.129-0.396,2.834-1.186c0.395-0.459,0.674-0.99,0.839-1.594h2.247c-0.059,0.5-0.256,1.056-0.59,1.669
		s-0.708,1.115-1.119,1.504c-0.689,0.677-1.542,1.134-2.558,1.371c-0.546,0.135-1.164,0.203-1.853,0.203
		c-1.682,0-3.107-0.616-4.277-1.847c-1.169-1.231-1.753-2.956-1.753-5.173c0-2.184,0.589-3.957,1.767-5.319
		c1.177-1.363,2.717-2.044,4.618-2.044C208.556,269.93,209.485,270.157,210.385,270.609z M211.204,275.948
		c-0.092-0.99-0.307-1.782-0.642-2.374c-0.621-1.1-1.658-1.65-3.109-1.65c-1.041,0-1.914,0.379-2.619,1.136
		c-0.705,0.757-1.078,1.72-1.12,2.888H211.204z"/>
	<path d="M223.734,265.182h2.285v18.649h-2.285V265.182z"/>
	<path d="M236.734,275.603c0.525-0.067,0.876-0.287,1.054-0.659c0.102-0.204,0.152-0.497,0.152-0.879
		c0-0.781-0.277-1.349-0.83-1.701s-1.345-0.529-2.375-0.529c-1.191,0-2.036,0.323-2.534,0.97c-0.279,0.357-0.46,0.889-0.545,1.595
		h-2.133c0.042-1.681,0.585-2.85,1.629-3.507s2.255-0.987,3.633-0.987c1.598,0,2.896,0.305,3.893,0.914
		c0.989,0.609,1.483,1.557,1.483,2.844v7.833c0,0.237,0.049,0.428,0.146,0.571s0.303,0.215,0.616,0.215
		c0.102,0,0.216-0.006,0.343-0.019s0.262-0.032,0.406-0.057v1.688c-0.355,0.102-0.626,0.165-0.812,0.19s-0.44,0.038-0.762,0.038
		c-0.787,0-1.358-0.279-1.714-0.838c-0.186-0.296-0.317-0.715-0.394-1.256c-0.465,0.609-1.134,1.138-2.006,1.586
		c-0.872,0.449-1.833,0.673-2.882,0.673c-1.261,0-2.292-0.383-3.091-1.147c-0.8-0.765-1.2-1.722-1.2-2.872
		c0-1.259,0.394-2.236,1.181-2.929c0.787-0.693,1.82-1.12,3.098-1.281L236.734,275.603z M231.922,281.776
		c0.482,0.38,1.054,0.57,1.714,0.57c0.804,0,1.583-0.186,2.336-0.558c1.27-0.617,1.904-1.626,1.904-3.029v-1.838
		c-0.279,0.178-0.638,0.327-1.077,0.446c-0.439,0.119-0.87,0.204-1.292,0.254l-1.381,0.177c-0.828,0.11-1.45,0.283-1.867,0.52
		c-0.707,0.397-1.06,1.03-1.06,1.9C231.199,280.877,231.44,281.396,231.922,281.776z"/>
	<path d="M260.112,270.958c0.96,0.745,1.538,2.027,1.733,3.847h-2.222c-0.135-0.838-0.444-1.534-0.927-2.088
		s-1.257-0.832-2.323-0.832c-1.456,0-2.497,0.71-3.123,2.13c-0.406,0.921-0.609,2.058-0.609,3.411c0,1.361,0.288,2.506,0.863,3.437
		c0.576,0.93,1.481,1.395,2.717,1.395c0.948,0,1.699-0.289,2.253-0.866s0.938-1.368,1.149-2.371h2.222
		c-0.254,1.803-0.889,3.121-1.904,3.955s-2.315,1.25-3.897,1.25c-1.777,0-3.195-0.649-4.253-1.949s-1.587-2.922-1.587-4.869
		c0-2.387,0.58-4.245,1.739-5.573s2.636-1.993,4.431-1.993C257.905,269.841,259.152,270.214,260.112,270.958z"/>
	<path d="M264.13,265.182h2.323v2.59h-2.323V265.182z M264.13,270.298h2.323v13.533h-2.323V270.298z"/>
	<path d="M272.192,270.235v9.026c0,0.694,0.107,1.261,0.322,1.701c0.396,0.812,1.133,1.219,2.213,1.219
		c1.549,0,2.604-0.711,3.165-2.133c0.305-0.762,0.458-1.807,0.458-3.136v-6.678h2.285v13.597h-2.158l0.025-2.006
		c-0.291,0.516-0.652,0.952-1.084,1.308c-0.855,0.711-1.893,1.066-3.114,1.066c-1.902,0-3.198-0.647-3.887-1.942
		c-0.374-0.694-0.561-1.621-0.561-2.78v-9.242H272.192z"/>
	<path d="M291.837,270.654c0.405,0.254,0.864,0.698,1.378,1.333v-6.868h2.196v18.713h-2.057v-1.892
		c-0.531,0.838-1.16,1.443-1.884,1.815c-0.726,0.373-1.556,0.559-2.492,0.559c-1.509,0-2.816-0.637-3.92-1.911
		s-1.657-2.969-1.657-5.084c0-1.98,0.503-3.696,1.511-5.148c1.007-1.452,2.447-2.177,4.319-2.177
		C290.269,269.994,291.137,270.214,291.837,270.654z M286.736,280.848c0.615,0.982,1.6,1.473,2.956,1.473
		c1.052,0,1.917-0.455,2.596-1.365c0.678-0.91,1.017-2.215,1.017-3.917c0-1.718-0.35-2.99-1.048-3.815
		c-0.699-0.825-1.562-1.238-2.589-1.238c-1.146,0-2.074,0.44-2.785,1.32c-0.712,0.88-1.067,2.175-1.067,3.885
		C285.814,278.647,286.121,279.866,286.736,280.848z"/>
	<path d="M306.114,275.603c0.525-0.067,0.876-0.287,1.054-0.659c0.102-0.204,0.152-0.497,0.152-0.879
		c0-0.781-0.277-1.349-0.83-1.701s-1.345-0.529-2.375-0.529c-1.191,0-2.036,0.323-2.534,0.97c-0.279,0.357-0.46,0.889-0.545,1.595
		h-2.133c0.042-1.681,0.585-2.85,1.629-3.507s2.255-0.987,3.633-0.987c1.598,0,2.896,0.305,3.893,0.914
		c0.989,0.609,1.483,1.557,1.483,2.844v7.833c0,0.237,0.049,0.428,0.146,0.571s0.303,0.215,0.616,0.215
		c0.102,0,0.216-0.006,0.343-0.019s0.262-0.032,0.406-0.057v1.688c-0.355,0.102-0.626,0.165-0.812,0.19s-0.44,0.038-0.762,0.038
		c-0.787,0-1.358-0.279-1.714-0.838c-0.186-0.296-0.317-0.715-0.394-1.256c-0.465,0.609-1.134,1.138-2.006,1.586
		c-0.872,0.449-1.833,0.673-2.882,0.673c-1.261,0-2.292-0.383-3.091-1.147c-0.8-0.765-1.2-1.722-1.2-2.872
		c0-1.259,0.394-2.236,1.181-2.929c0.787-0.693,1.82-1.12,3.098-1.281L306.114,275.603z M301.302,281.776
		c0.482,0.38,1.054,0.57,1.714,0.57c0.804,0,1.583-0.186,2.336-0.558c1.27-0.617,1.904-1.626,1.904-3.029v-1.838
		c-0.279,0.178-0.638,0.327-1.077,0.446c-0.439,0.119-0.87,0.204-1.292,0.254l-1.381,0.177c-0.828,0.11-1.45,0.283-1.867,0.52
		c-0.707,0.397-1.06,1.03-1.06,1.9C300.579,280.877,300.82,281.396,301.302,281.776z"/>
	<path d="M320.757,270.654c0.405,0.254,0.864,0.698,1.378,1.333v-6.868h2.196v18.713h-2.057v-1.892
		c-0.531,0.838-1.16,1.443-1.884,1.815c-0.726,0.373-1.556,0.559-2.492,0.559c-1.509,0-2.816-0.637-3.92-1.911
		s-1.657-2.969-1.657-5.084c0-1.98,0.503-3.696,1.511-5.148c1.007-1.452,2.447-2.177,4.319-2.177
		C319.189,269.994,320.057,270.214,320.757,270.654z M315.656,280.848c0.615,0.982,1.6,1.473,2.956,1.473
		c1.052,0,1.917-0.455,2.596-1.365c0.678-0.91,1.017-2.215,1.017-3.917c0-1.718-0.35-2.99-1.048-3.815
		c-0.699-0.825-1.562-1.238-2.589-1.238c-1.146,0-2.074,0.44-2.785,1.32c-0.712,0.88-1.067,2.175-1.067,3.885
		C314.734,278.647,315.041,279.866,315.656,280.848z"/>
	<path d="M67.397,301.435h2.526c-0.322,0.872-1.037,2.862-2.146,5.97c-0.83,2.337-1.523,4.242-2.082,5.715
		c-1.319,3.467-2.249,5.582-2.791,6.343c-0.541,0.761-1.471,1.142-2.79,1.142c-0.322,0-0.569-0.013-0.742-0.038
		s-0.387-0.072-0.641-0.14v-2.082c0.397,0.11,0.685,0.178,0.862,0.203s0.333,0.038,0.469,0.038c0.422,0,0.732-0.07,0.931-0.209
		c0.199-0.14,0.366-0.311,0.501-0.513c0.042-0.068,0.194-0.414,0.456-1.039c0.262-0.625,0.452-1.09,0.57-1.394l-5.027-13.997h2.59
		l3.644,11.075L67.397,301.435z"/>
	<path d="M87.52,301.81c0.9,0.453,1.585,1.039,2.057,1.758c0.454,0.686,0.757,1.485,0.908,2.399
		c0.135,0.626,0.202,1.625,0.202,2.996h-9.89c0.042,1.383,0.365,2.493,0.97,3.329c0.604,0.836,1.541,1.254,2.809,1.254
		c1.184,0,2.129-0.396,2.834-1.186c0.395-0.459,0.674-0.99,0.839-1.594h2.247c-0.059,0.5-0.256,1.056-0.59,1.669
		s-0.708,1.115-1.119,1.504c-0.689,0.677-1.542,1.134-2.558,1.371c-0.546,0.135-1.164,0.203-1.853,0.203
		c-1.682,0-3.107-0.616-4.277-1.847c-1.169-1.231-1.753-2.956-1.753-5.173c0-2.184,0.589-3.957,1.767-5.319
		c1.177-1.363,2.717-2.044,4.618-2.044C85.69,301.13,86.62,301.357,87.52,301.81z M88.338,307.148
		c-0.092-0.99-0.307-1.782-0.642-2.374c-0.621-1.1-1.658-1.65-3.109-1.65c-1.041,0-1.914,0.379-2.619,1.136
		c-0.705,0.757-1.078,1.72-1.12,2.888H88.338z"/>
	<path d="M94.94,310.766c0.069,0.762,0.263,1.346,0.583,1.752c0.587,0.736,1.607,1.104,3.058,1.104c0.864,0,1.624-0.184,2.28-0.552
		s0.985-0.938,0.985-1.708c0-0.584-0.262-1.028-0.787-1.333c-0.335-0.186-0.998-0.402-1.987-0.647l-1.845-0.457
		c-1.178-0.288-2.047-0.609-2.606-0.965c-0.998-0.618-1.497-1.473-1.497-2.564c0-1.287,0.47-2.328,1.409-3.123
		s2.202-1.193,3.789-1.193c2.076,0,3.572,0.601,4.49,1.803c0.575,0.762,0.854,1.583,0.837,2.463h-2.158
		c-0.043-0.513-0.229-0.98-0.559-1.401c-0.538-0.598-1.469-0.896-2.794-0.896c-0.884,0-1.553,0.165-2.008,0.493
		c-0.455,0.329-0.682,0.764-0.682,1.303c0,0.59,0.299,1.062,0.896,1.417c0.345,0.211,0.854,0.397,1.526,0.558l1.539,0.368
		c1.673,0.398,2.794,0.783,3.363,1.155c0.889,0.584,1.333,1.502,1.333,2.755c0,1.21-0.465,2.255-1.395,3.136s-2.346,1.32-4.248,1.32
		c-2.048,0-3.498-0.459-4.351-1.377c-0.853-0.918-1.309-2.055-1.369-3.409H94.94z"/>
	<path d="M115.563,302.159c0.96,0.745,1.538,2.027,1.733,3.847h-2.222c-0.135-0.838-0.444-1.534-0.927-2.088
		s-1.257-0.832-2.323-0.832c-1.456,0-2.497,0.71-3.123,2.13c-0.406,0.921-0.609,2.058-0.609,3.411c0,1.361,0.288,2.506,0.863,3.437
		c0.576,0.93,1.481,1.395,2.717,1.395c0.948,0,1.699-0.289,2.253-0.866s0.938-1.368,1.149-2.371h2.222
		c-0.254,1.803-0.889,3.121-1.904,3.955s-2.315,1.25-3.897,1.25c-1.777,0-3.195-0.649-4.253-1.949s-1.587-2.922-1.587-4.869
		c0-2.387,0.58-4.245,1.739-5.573s2.636-1.993,4.431-1.993C113.356,301.042,114.603,301.414,115.563,302.159z"/>
	<path d="M126.869,306.803c0.525-0.067,0.876-0.287,1.054-0.659c0.102-0.204,0.152-0.497,0.152-0.879
		c0-0.781-0.277-1.349-0.83-1.701s-1.345-0.529-2.375-0.529c-1.191,0-2.036,0.323-2.534,0.97c-0.279,0.357-0.46,0.889-0.545,1.595
		h-2.133c0.042-1.681,0.585-2.85,1.629-3.507s2.255-0.987,3.633-0.987c1.598,0,2.896,0.305,3.893,0.914
		c0.989,0.609,1.483,1.557,1.483,2.844v7.833c0,0.237,0.049,0.428,0.146,0.571s0.303,0.215,0.616,0.215
		c0.102,0,0.216-0.006,0.343-0.019s0.262-0.032,0.406-0.057v1.688c-0.355,0.102-0.626,0.165-0.812,0.19s-0.44,0.038-0.762,0.038
		c-0.787,0-1.358-0.279-1.714-0.838c-0.186-0.296-0.317-0.715-0.394-1.256c-0.465,0.609-1.134,1.138-2.006,1.586
		c-0.872,0.449-1.833,0.673-2.882,0.673c-1.261,0-2.292-0.383-3.091-1.147c-0.8-0.765-1.2-1.722-1.2-2.872
		c0-1.259,0.394-2.236,1.181-2.929c0.787-0.693,1.82-1.12,3.098-1.281L126.869,306.803z M122.057,312.977
		c0.482,0.38,1.054,0.57,1.714,0.57c0.804,0,1.583-0.186,2.336-0.558c1.27-0.617,1.904-1.626,1.904-3.029v-1.838
		c-0.279,0.178-0.638,0.327-1.077,0.446c-0.439,0.119-0.87,0.204-1.292,0.254l-1.381,0.177c-0.828,0.11-1.45,0.283-1.867,0.52
		c-0.707,0.397-1.06,1.03-1.06,1.9C121.333,312.077,121.575,312.596,122.057,312.977z M127.833,295.963l-3.39,3.669h-1.752
		l2.323-3.669H127.833z"/>
	<path d="M133.851,301.499h2.234v1.803c0.458-0.618,0.959-1.096,1.502-1.435c0.772-0.508,1.68-0.762,2.724-0.762
		c1.544,0,2.855,0.59,3.933,1.771s1.617,2.867,1.617,5.059c0,2.962-0.777,5.078-2.333,6.348c-0.985,0.804-2.133,1.206-3.441,1.206
		c-1.028,0-1.891-0.224-2.587-0.673c-0.408-0.254-0.862-0.69-1.364-1.308v6.944h-2.285V301.499z M142.449,312.156
		c0.709-0.893,1.063-2.228,1.063-4.005c0-1.083-0.157-2.014-0.471-2.793c-0.595-1.498-1.682-2.247-3.261-2.247
		c-1.588,0-2.675,0.792-3.261,2.374c-0.314,0.846-0.471,1.921-0.471,3.225c0,1.049,0.157,1.942,0.471,2.679
		c0.594,1.405,1.682,2.107,3.261,2.107C140.85,313.496,141.739,313.049,142.449,312.156z"/>
	<path d="M155.789,306.803c0.525-0.067,0.876-0.287,1.054-0.659c0.102-0.204,0.152-0.497,0.152-0.879
		c0-0.781-0.277-1.349-0.83-1.701s-1.345-0.529-2.375-0.529c-1.191,0-2.036,0.323-2.534,0.97c-0.279,0.357-0.46,0.889-0.545,1.595
		h-2.133c0.042-1.681,0.585-2.85,1.629-3.507s2.255-0.987,3.633-0.987c1.598,0,2.896,0.305,3.893,0.914
		c0.989,0.609,1.483,1.557,1.483,2.844v7.833c0,0.237,0.049,0.428,0.146,0.571s0.303,0.215,0.616,0.215
		c0.102,0,0.216-0.006,0.343-0.019s0.262-0.032,0.406-0.057v1.688c-0.355,0.102-0.626,0.165-0.812,0.19s-0.44,0.038-0.762,0.038
		c-0.787,0-1.358-0.279-1.714-0.838c-0.186-0.296-0.317-0.715-0.394-1.256c-0.465,0.609-1.134,1.138-2.006,1.586
		c-0.872,0.449-1.833,0.673-2.882,0.673c-1.261,0-2.292-0.383-3.091-1.147c-0.8-0.765-1.2-1.722-1.2-2.872
		c0-1.259,0.394-2.236,1.181-2.929c0.787-0.693,1.82-1.12,3.098-1.281L155.789,306.803z M150.977,312.977
		c0.482,0.38,1.054,0.57,1.714,0.57c0.804,0,1.583-0.186,2.336-0.558c1.27-0.617,1.904-1.626,1.904-3.029v-1.838
		c-0.279,0.178-0.638,0.327-1.077,0.446c-0.439,0.119-0.87,0.204-1.292,0.254l-1.381,0.177c-0.828,0.11-1.45,0.283-1.867,0.52
		c-0.707,0.397-1.06,1.03-1.06,1.9C150.253,312.077,150.495,312.596,150.977,312.977z"/>
	<path d="M163.418,297.639h2.311v3.796h2.171v1.866h-2.171v8.874c0,0.474,0.161,0.792,0.482,0.952
		c0.178,0.093,0.474,0.14,0.889,0.14c0.11,0,0.229-0.003,0.355-0.008s0.275-0.02,0.444-0.042v1.815
		c-0.262,0.076-0.535,0.131-0.819,0.165s-0.59,0.051-0.92,0.051c-1.066,0-1.79-0.273-2.171-0.819s-0.571-1.255-0.571-2.126v-9.001
		h-1.841v-1.866h1.841V297.639z"/>
	<path d="M178.583,301.81c0.9,0.453,1.585,1.039,2.057,1.758c0.454,0.686,0.757,1.485,0.908,2.399
		c0.135,0.626,0.202,1.625,0.202,2.996h-9.89c0.042,1.383,0.365,2.493,0.97,3.329c0.604,0.836,1.541,1.254,2.809,1.254
		c1.184,0,2.129-0.396,2.834-1.186c0.395-0.459,0.674-0.99,0.839-1.594h2.247c-0.059,0.5-0.256,1.056-0.59,1.669
		s-0.708,1.115-1.119,1.504c-0.689,0.677-1.542,1.134-2.558,1.371c-0.546,0.135-1.164,0.203-1.853,0.203
		c-1.682,0-3.107-0.616-4.277-1.847c-1.169-1.231-1.753-2.956-1.753-5.173c0-2.184,0.589-3.957,1.767-5.319
		c1.177-1.363,2.717-2.044,4.618-2.044C176.754,301.13,177.683,301.357,178.583,301.81z M179.402,307.148
		c-0.092-0.99-0.307-1.782-0.642-2.374c-0.621-1.1-1.658-1.65-3.109-1.65c-1.041,0-1.914,0.379-2.619,1.136
		c-0.705,0.757-1.078,1.72-1.12,2.888H179.402z"/>
	<path d="M199.156,306.803c0.525-0.067,0.876-0.287,1.054-0.659c0.102-0.204,0.152-0.497,0.152-0.879
		c0-0.781-0.277-1.349-0.83-1.701s-1.345-0.529-2.375-0.529c-1.191,0-2.036,0.323-2.534,0.97c-0.279,0.357-0.46,0.889-0.545,1.595
		h-2.133c0.042-1.681,0.585-2.85,1.629-3.507s2.255-0.987,3.633-0.987c1.598,0,2.896,0.305,3.893,0.914
		c0.989,0.609,1.483,1.557,1.483,2.844v7.833c0,0.237,0.049,0.428,0.146,0.571s0.303,0.215,0.616,0.215
		c0.102,0,0.216-0.006,0.343-0.019s0.262-0.032,0.406-0.057v1.688c-0.355,0.102-0.626,0.165-0.812,0.19s-0.44,0.038-0.762,0.038
		c-0.787,0-1.358-0.279-1.714-0.838c-0.186-0.296-0.317-0.715-0.394-1.256c-0.465,0.609-1.134,1.138-2.006,1.586
		c-0.872,0.449-1.833,0.673-2.882,0.673c-1.261,0-2.292-0.383-3.091-1.147c-0.8-0.765-1.2-1.722-1.2-2.872
		c0-1.259,0.394-2.236,1.181-2.929c0.787-0.693,1.82-1.12,3.098-1.281L199.156,306.803z M194.344,312.977
		c0.482,0.38,1.054,0.57,1.714,0.57c0.804,0,1.583-0.186,2.336-0.558c1.27-0.617,1.904-1.626,1.904-3.029v-1.838
		c-0.279,0.178-0.638,0.327-1.077,0.446c-0.439,0.119-0.87,0.204-1.292,0.254l-1.381,0.177c-0.828,0.11-1.45,0.283-1.867,0.52
		c-0.707,0.397-1.06,1.03-1.06,1.9C193.621,312.077,193.862,312.596,194.344,312.977z"/>
	<path d="M213.616,296.382h2.285v18.649h-2.285V296.382z"/>
	<path d="M226.616,306.803c0.525-0.067,0.876-0.287,1.054-0.659c0.102-0.204,0.152-0.497,0.152-0.879
		c0-0.781-0.277-1.349-0.83-1.701s-1.345-0.529-2.375-0.529c-1.191,0-2.036,0.323-2.534,0.97c-0.279,0.357-0.46,0.889-0.545,1.595
		h-2.133c0.042-1.681,0.585-2.85,1.629-3.507s2.255-0.987,3.633-0.987c1.598,0,2.896,0.305,3.893,0.914
		c0.989,0.609,1.483,1.557,1.483,2.844v7.833c0,0.237,0.049,0.428,0.146,0.571s0.303,0.215,0.616,0.215
		c0.102,0,0.216-0.006,0.343-0.019s0.262-0.032,0.406-0.057v1.688c-0.355,0.102-0.626,0.165-0.812,0.19s-0.44,0.038-0.762,0.038
		c-0.787,0-1.358-0.279-1.714-0.838c-0.186-0.296-0.317-0.715-0.394-1.256c-0.465,0.609-1.134,1.138-2.006,1.586
		c-0.872,0.449-1.833,0.673-2.882,0.673c-1.261,0-2.292-0.383-3.091-1.147c-0.8-0.765-1.2-1.722-1.2-2.872
		c0-1.259,0.394-2.236,1.181-2.929c0.787-0.693,1.82-1.12,3.098-1.281L226.616,306.803z M221.804,312.977
		c0.482,0.38,1.054,0.57,1.714,0.57c0.804,0,1.583-0.186,2.336-0.558c1.27-0.617,1.904-1.626,1.904-3.029v-1.838
		c-0.279,0.178-0.638,0.327-1.077,0.446c-0.439,0.119-0.87,0.204-1.292,0.254l-1.381,0.177c-0.828,0.11-1.45,0.283-1.867,0.52
		c-0.707,0.397-1.06,1.03-1.06,1.9C221.081,312.077,221.322,312.596,221.804,312.977z"/>
	<path d="M241.012,301.435h2.171v1.93c0.643-0.795,1.325-1.367,2.044-1.714s1.519-0.521,2.399-0.521c1.93,0,3.233,0.673,3.91,2.019
		c0.373,0.736,0.559,1.79,0.559,3.161v8.722h-2.323v-8.569c0-0.83-0.123-1.498-0.368-2.006c-0.406-0.846-1.143-1.27-2.209-1.27
		c-0.542,0-0.986,0.055-1.333,0.165c-0.626,0.186-1.176,0.559-1.65,1.117c-0.381,0.449-0.628,0.912-0.743,1.39
		s-0.171,1.162-0.171,2.05v7.122h-2.285V301.435z"/>
	<path d="M262.759,306.803c0.525-0.067,0.876-0.287,1.054-0.659c0.102-0.204,0.152-0.497,0.152-0.879
		c0-0.781-0.277-1.349-0.83-1.701s-1.345-0.529-2.375-0.529c-1.191,0-2.036,0.323-2.534,0.97c-0.279,0.357-0.46,0.889-0.545,1.595
		h-2.133c0.042-1.681,0.585-2.85,1.629-3.507s2.255-0.987,3.633-0.987c1.598,0,2.896,0.305,3.893,0.914
		c0.989,0.609,1.483,1.557,1.483,2.844v7.833c0,0.237,0.049,0.428,0.146,0.571s0.303,0.215,0.616,0.215
		c0.102,0,0.216-0.006,0.343-0.019s0.262-0.032,0.406-0.057v1.688c-0.355,0.102-0.626,0.165-0.812,0.19s-0.44,0.038-0.762,0.038
		c-0.787,0-1.358-0.279-1.714-0.838c-0.186-0.296-0.317-0.715-0.394-1.256c-0.465,0.609-1.134,1.138-2.006,1.586
		c-0.872,0.449-1.833,0.673-2.882,0.673c-1.261,0-2.292-0.383-3.091-1.147c-0.8-0.765-1.2-1.722-1.2-2.872
		c0-1.259,0.394-2.236,1.181-2.929c0.787-0.693,1.82-1.12,3.098-1.281L262.759,306.803z M257.948,312.977
		c0.482,0.38,1.054,0.57,1.714,0.57c0.804,0,1.583-0.186,2.336-0.558c1.27-0.617,1.904-1.626,1.904-3.029v-1.838
		c-0.279,0.178-0.638,0.327-1.077,0.446c-0.439,0.119-0.87,0.204-1.292,0.254l-1.381,0.177c-0.828,0.11-1.45,0.283-1.867,0.52
		c-0.707,0.397-1.06,1.03-1.06,1.9C257.224,312.077,257.465,312.596,257.948,312.977z"/>
	<path d="M270.389,297.639h2.311v3.796h2.171v1.866H272.7v8.874c0,0.474,0.161,0.792,0.482,0.952c0.178,0.093,0.474,0.14,0.889,0.14
		c0.11,0,0.229-0.003,0.355-0.008s0.275-0.02,0.444-0.042v1.815c-0.262,0.076-0.535,0.131-0.819,0.165s-0.59,0.051-0.92,0.051
		c-1.066,0-1.79-0.273-2.171-0.819s-0.571-1.255-0.571-2.126v-9.001h-1.841v-1.866h1.841V297.639z"/>
	<path d="M279.441,301.435v9.026c0,0.694,0.107,1.261,0.322,1.701c0.396,0.812,1.133,1.219,2.213,1.219
		c1.549,0,2.604-0.711,3.165-2.133c0.305-0.762,0.458-1.807,0.458-3.136v-6.678h2.285v13.597h-2.158l0.025-2.006
		c-0.291,0.516-0.652,0.952-1.084,1.308c-0.855,0.711-1.893,1.066-3.114,1.066c-1.902,0-3.198-0.647-3.887-1.942
		c-0.374-0.694-0.561-1.621-0.561-2.78v-9.242H279.441z"/>
	<path d="M291.679,301.435h2.171v2.349c0.178-0.457,0.614-1.014,1.308-1.669s1.494-0.984,2.399-0.984
		c0.042,0,0.114,0.004,0.216,0.013s0.275,0.025,0.521,0.051v2.412c-0.135-0.025-0.26-0.042-0.375-0.051s-0.239-0.013-0.375-0.013
		c-1.151,0-2.036,0.37-2.653,1.111s-0.927,1.593-0.927,2.558v7.82h-2.285V301.435z"/>
	<path d="M307.561,306.803c0.525-0.067,0.876-0.287,1.054-0.659c0.102-0.204,0.152-0.497,0.152-0.879
		c0-0.781-0.277-1.349-0.83-1.701s-1.345-0.529-2.375-0.529c-1.191,0-2.036,0.323-2.534,0.97c-0.279,0.357-0.46,0.889-0.545,1.595
		h-2.133c0.042-1.681,0.585-2.85,1.629-3.507s2.255-0.987,3.633-0.987c1.598,0,2.896,0.305,3.893,0.914
		c0.989,0.609,1.483,1.557,1.483,2.844v7.833c0,0.237,0.049,0.428,0.146,0.571s0.303,0.215,0.616,0.215
		c0.102,0,0.216-0.006,0.343-0.019s0.262-0.032,0.406-0.057v1.688c-0.355,0.102-0.626,0.165-0.812,0.19s-0.44,0.038-0.762,0.038
		c-0.787,0-1.358-0.279-1.714-0.838c-0.186-0.296-0.317-0.715-0.394-1.256c-0.465,0.609-1.134,1.138-2.006,1.586
		c-0.872,0.449-1.833,0.673-2.882,0.673c-1.261,0-2.292-0.383-3.091-1.147c-0.8-0.765-1.2-1.722-1.2-2.872
		c0-1.259,0.394-2.236,1.181-2.929c0.787-0.693,1.82-1.12,3.098-1.281L307.561,306.803z M302.75,312.977
		c0.482,0.38,1.054,0.57,1.714,0.57c0.804,0,1.583-0.186,2.336-0.558c1.27-0.617,1.904-1.626,1.904-3.029v-1.838
		c-0.279,0.178-0.638,0.327-1.077,0.446c-0.439,0.119-0.87,0.204-1.292,0.254l-1.381,0.177c-0.828,0.11-1.45,0.283-1.867,0.52
		c-0.707,0.397-1.06,1.03-1.06,1.9C302.026,312.077,302.267,312.596,302.75,312.977z"/>
	<path d="M314.797,296.382h2.285v18.649h-2.285V296.382z"/>
	<path d="M328.909,301.81c0.9,0.453,1.585,1.039,2.057,1.758c0.454,0.686,0.757,1.485,0.908,2.399
		c0.135,0.626,0.202,1.625,0.202,2.996h-9.89c0.042,1.383,0.365,2.493,0.97,3.329c0.604,0.836,1.541,1.254,2.809,1.254
		c1.184,0,2.129-0.396,2.834-1.186c0.395-0.459,0.674-0.99,0.839-1.594h2.247c-0.059,0.5-0.256,1.056-0.59,1.669
		s-0.708,1.115-1.119,1.504c-0.689,0.677-1.542,1.134-2.558,1.371c-0.546,0.135-1.164,0.203-1.853,0.203
		c-1.682,0-3.107-0.616-4.277-1.847c-1.169-1.231-1.753-2.956-1.753-5.173c0-2.184,0.589-3.957,1.767-5.319
		c1.177-1.363,2.717-2.044,4.618-2.044C327.079,301.13,328.008,301.357,328.909,301.81z M329.727,307.148
		c-0.092-0.99-0.307-1.782-0.642-2.374c-0.621-1.1-1.658-1.65-3.109-1.65c-1.041,0-1.914,0.379-2.619,1.136
		c-0.705,0.757-1.078,1.72-1.12,2.888H329.727z"/>
	<path d="M333.955,313.229l8.074-9.75h-7.478v-2.044h10.55v1.866l-8.022,9.687h8.263v2.044h-11.388V313.229z"/>
	<path d="M355.257,306.803c0.525-0.067,0.876-0.287,1.054-0.659c0.102-0.204,0.152-0.497,0.152-0.879
		c0-0.781-0.277-1.349-0.83-1.701s-1.345-0.529-2.375-0.529c-1.191,0-2.036,0.323-2.534,0.97c-0.279,0.357-0.46,0.889-0.545,1.595
		h-2.133c0.042-1.681,0.585-2.85,1.629-3.507s2.255-0.987,3.633-0.987c1.598,0,2.896,0.305,3.893,0.914
		c0.989,0.609,1.483,1.557,1.483,2.844v7.833c0,0.237,0.049,0.428,0.146,0.571s0.303,0.215,0.616,0.215
		c0.102,0,0.216-0.006,0.343-0.019s0.262-0.032,0.406-0.057v1.688c-0.355,0.102-0.626,0.165-0.812,0.19s-0.44,0.038-0.762,0.038
		c-0.787,0-1.358-0.279-1.714-0.838c-0.186-0.296-0.317-0.715-0.394-1.256c-0.465,0.609-1.134,1.138-2.006,1.586
		c-0.872,0.449-1.833,0.673-2.882,0.673c-1.261,0-2.292-0.383-3.091-1.147c-0.8-0.765-1.2-1.722-1.2-2.872
		c0-1.259,0.394-2.236,1.181-2.929c0.787-0.693,1.82-1.12,3.098-1.281L355.257,306.803z M350.446,312.977
		c0.482,0.38,1.054,0.57,1.714,0.57c0.804,0,1.583-0.186,2.336-0.558c1.27-0.617,1.904-1.626,1.904-3.029v-1.838
		c-0.279,0.178-0.638,0.327-1.077,0.446c-0.439,0.119-0.87,0.204-1.292,0.254l-1.381,0.177c-0.828,0.11-1.45,0.283-1.867,0.52
		c-0.707,0.397-1.06,1.03-1.06,1.9C349.722,312.077,349.963,312.596,350.446,312.977z"/>
	<path d="M362.976,312.264h2.653v2.768h-2.653V312.264z"/>
</g>
</svg>
