<?xml version="1.0" encoding="utf-8"?>
<!-- Generator: Adobe Illustrator 16.0.0, SVG Export Plug-In . SVG Version: 6.00 Build 0)  -->
<!DOCTYPE svg PUBLIC "-//W3C//DTD SVG 1.1//EN" "http://www.w3.org/Graphics/SVG/1.1/DTD/svg11.dtd">
<svg version="1.1" id="Layer_1" xmlns="http://www.w3.org/2000/svg" xmlns:xlink="http://www.w3.org/1999/xlink" x="0px" y="0px"
	 width="425.2px" height="425.2px" viewBox="0 0 425.2 425.2" enable-background="new 0 0 425.2 425.2" xml:space="preserve">
<g>
	<g>
		<path style="fill:rgba(255,255,255,0.8);" d="M212.6,423.7c-116.4,0-211.1-94.699-211.1-211.1S96.199,1.5,212.6,1.5
			C329.001,1.5,423.7,96.199,423.7,212.6S329.001,423.7,212.6,423.7z"/>
		<path fill="#231F20" d="M212.6,3c28.297,0,55.746,5.542,81.585,16.47c24.959,10.557,47.374,25.67,66.625,44.92
			c19.251,19.25,34.364,41.666,44.921,66.625c10.928,25.839,16.47,53.288,16.47,81.585s-5.542,55.747-16.47,81.585
			c-10.557,24.958-25.67,47.375-44.921,66.625c-19.251,19.25-41.666,34.364-66.625,44.92c-25.839,10.929-53.288,16.47-81.585,16.47
			s-55.746-5.542-81.585-16.47c-24.958-10.556-47.374-25.669-66.624-44.92c-19.25-19.25-34.363-41.666-44.92-66.625
			C8.541,268.347,3,240.897,3,212.6s5.541-55.746,16.471-81.585c10.557-24.958,25.67-47.375,44.92-66.625
			c19.25-19.25,41.666-34.364,66.624-44.92C156.854,8.542,184.303,3,212.6,3 M212.6,0C95.184,0,0,95.185,0,212.6
			c0,117.417,95.184,212.6,212.6,212.6S425.2,330.017,425.2,212.6C425.2,95.185,330.016,0,212.6,0L212.6,0z"/>
	</g>
	<g>
		
			<circle fill="none" stroke="#231F20" stroke-width="12.546" stroke-miterlimit="10" stroke-dasharray="2.942,5.884" cx="212.6" cy="212.6" r="196.65"/>
	</g>
</g>
<g>
	<path d="M90.275,159.964c0.689,0.296,1.273,0.732,1.752,1.308c0.396,0.474,0.711,0.999,0.941,1.574s0.347,1.231,0.347,1.968
		c0,0.889-0.224,1.763-0.673,2.622s-1.189,1.466-2.222,1.822c0.863,0.347,1.475,0.84,1.835,1.479
		c0.359,0.639,0.539,1.614,0.539,2.926v1.257c0,0.855,0.034,1.435,0.104,1.739c0.103,0.482,0.344,0.838,0.722,1.066v0.47h-4.316
		c-0.118-0.415-0.203-0.749-0.254-1.003c-0.102-0.525-0.157-1.062-0.165-1.612l-0.025-1.739c-0.016-1.193-0.223-1.989-0.619-2.387
		c-0.396-0.398-1.139-0.597-2.227-0.597h-3.819v7.338h-3.821v-18.713h8.951C88.603,159.507,89.587,159.667,90.275,159.964z
		 M82.194,162.731v5.027h4.208c0.836,0,1.463-0.102,1.881-0.305c0.74-0.355,1.109-1.058,1.109-2.107
		c0-1.134-0.357-1.896-1.073-2.285c-0.401-0.22-1.005-0.33-1.809-0.33H82.194z"/>
	<path d="M110.898,162.795h-9.902v3.974h9.09v3.25h-9.09v4.812h10.359v3.364H97.175v-18.713h13.724V162.795z"/>
	<path d="M117.221,172.418c0.121,0.855,0.358,1.494,0.713,1.917c0.648,0.77,1.758,1.155,3.332,1.155
		c0.941,0,1.706-0.102,2.293-0.305c1.115-0.389,1.673-1.113,1.673-2.171c0-0.618-0.272-1.096-0.819-1.435
		c-0.546-0.33-1.412-0.622-2.598-0.876l-2.026-0.444c-1.991-0.44-3.358-0.918-4.104-1.435c-1.261-0.863-1.892-2.213-1.892-4.05
		c0-1.676,0.617-3.068,1.851-4.177s3.046-1.663,5.437-1.663c1.996,0,3.699,0.522,5.108,1.568s2.147,2.562,2.217,4.551h-3.758
		c-0.069-1.125-0.573-1.925-1.51-2.399c-0.625-0.313-1.401-0.47-2.329-0.47c-1.033,0-1.857,0.203-2.474,0.609
		s-0.924,0.973-0.924,1.701c0,0.668,0.304,1.168,0.911,1.498c0.391,0.22,1.219,0.478,2.486,0.774l3.283,0.774
		c1.439,0.338,2.519,0.792,3.236,1.358c1.116,0.88,1.674,2.154,1.674,3.821c0,1.709-0.661,3.129-1.982,4.259
		c-1.322,1.13-3.189,1.695-5.602,1.695c-2.463,0-4.4-0.557-5.812-1.669s-2.117-2.643-2.117-4.589H117.221z"/>
	<path d="M145.582,162.795h-9.902v3.974h9.09v3.25h-9.09v4.812h10.359v3.364h-14.181v-18.713h13.724V162.795z"/>
	<path d="M161.078,159.964c0.689,0.296,1.273,0.732,1.752,1.308c0.396,0.474,0.709,0.999,0.94,1.574s0.347,1.231,0.347,1.968
		c0,0.889-0.225,1.763-0.673,2.622s-1.188,1.466-2.222,1.822c0.863,0.347,1.475,0.84,1.834,1.479c0.36,0.639,0.54,1.614,0.54,2.926
		v1.257c0,0.855,0.034,1.435,0.103,1.739c0.104,0.482,0.344,0.838,0.723,1.066v0.47h-4.316c-0.119-0.415-0.203-0.749-0.254-1.003
		c-0.102-0.525-0.156-1.062-0.165-1.612l-0.025-1.739c-0.017-1.193-0.222-1.989-0.618-2.387s-1.139-0.597-2.229-0.597h-3.818v7.338
		h-3.821v-18.713h8.95C159.404,159.507,160.389,159.667,161.078,159.964z M152.996,162.731v5.027h4.208
		c0.836,0,1.463-0.102,1.881-0.305c0.739-0.355,1.109-1.058,1.109-2.107c0-1.134-0.358-1.896-1.073-2.285
		c-0.402-0.22-1.004-0.33-1.809-0.33H152.996z"/>
	<path d="M178.355,159.481h4.062l-6.381,18.713h-3.693l-6.328-18.713h4.176l4.062,14.206L178.355,159.481z"/>
	<path d="M188.182,159.481h4.424l6.621,18.713h-4.24l-1.235-3.847h-6.892l-1.268,3.847h-4.09L188.182,159.481z M187.924,171.123
		h4.792l-2.364-7.363L187.924,171.123z"/>
	<path d="M203.395,161.437c1.506-1.541,3.424-2.311,5.752-2.311c3.114,0,5.393,1.033,6.832,3.098
		c0.796,1.16,1.223,2.323,1.281,3.491h-3.91c-0.248-0.897-0.568-1.574-0.957-2.031c-0.697-0.812-1.729-1.219-3.098-1.219
		c-1.393,0-2.492,0.573-3.296,1.72s-1.206,2.77-1.206,4.869s0.424,3.671,1.273,4.716c0.848,1.045,1.926,1.568,3.234,1.568
		c1.342,0,2.363-0.449,3.067-1.346c0.39-0.482,0.712-1.206,0.969-2.171h3.885c-0.335,2.04-1.191,3.699-2.568,4.977
		c-1.378,1.278-3.142,1.917-5.294,1.917c-2.662,0-4.756-0.863-6.279-2.59c-1.524-1.735-2.286-4.113-2.286-7.135
		C200.794,165.723,201.66,163.206,203.395,161.437z"/>
	<path d="M223.95,178.194h-3.885v-18.713h3.885V178.194z"/>
	<path d="M242.016,176.531c-1.414,1.456-3.457,2.184-6.132,2.184s-4.718-0.728-6.132-2.184c-1.896-1.786-2.844-4.359-2.844-7.719
		c0-3.428,0.947-6,2.844-7.719c1.414-1.456,3.457-2.184,6.132-2.184s4.718,0.728,6.132,2.184c1.887,1.718,2.831,4.291,2.831,7.719
		C244.847,172.172,243.902,174.746,242.016,176.531z M239.572,173.688c0.909-1.143,1.364-2.768,1.364-4.875
		c0-2.099-0.455-3.722-1.364-4.869c-0.91-1.147-2.14-1.72-3.688-1.72s-2.784,0.571-3.707,1.714s-1.384,2.768-1.384,4.875
		s0.461,3.732,1.384,4.875s2.158,1.714,3.707,1.714S238.662,174.83,239.572,173.688z"/>
	<path d="M247.767,159.481h4.099l7.429,13.048v-13.048h3.644v18.713h-3.909l-7.618-13.277v13.277h-3.644V159.481z"/>
	<path d="M280.444,162.795h-9.902v3.974h9.09v3.25h-9.09v4.812h10.359v3.364h-14.181v-18.713h13.724V162.795z"/>
	<path d="M286.767,172.418c0.121,0.855,0.358,1.494,0.713,1.917c0.647,0.77,1.759,1.155,3.331,1.155
		c0.942,0,1.707-0.102,2.295-0.305c1.114-0.389,1.672-1.113,1.672-2.171c0-0.618-0.273-1.096-0.818-1.435
		c-0.547-0.33-1.413-0.622-2.599-0.876l-2.026-0.444c-1.99-0.44-3.359-0.918-4.104-1.435c-1.262-0.863-1.892-2.213-1.892-4.05
		c0-1.676,0.616-3.068,1.851-4.177s3.046-1.663,5.437-1.663c1.996,0,3.698,0.522,5.108,1.568c1.409,1.045,2.148,2.562,2.217,4.551
		h-3.758c-0.069-1.125-0.572-1.925-1.51-2.399c-0.625-0.313-1.401-0.47-2.33-0.47c-1.032,0-1.856,0.203-2.473,0.609
		s-0.924,0.973-0.924,1.701c0,0.668,0.304,1.168,0.911,1.498c0.39,0.22,1.219,0.478,2.485,0.774l3.285,0.774
		c1.439,0.338,2.518,0.792,3.236,1.358c1.115,0.88,1.673,2.154,1.673,3.821c0,1.709-0.661,3.129-1.982,4.259
		s-3.188,1.695-5.601,1.695c-2.465,0-4.402-0.557-5.813-1.669s-2.117-2.643-2.117-4.589H286.767z"/>
	<path d="M312.912,159.481h4.425l6.62,18.713h-4.24l-1.234-3.847h-6.891l-1.27,3.847h-4.09L312.912,159.481z M312.654,171.123h4.793
		l-2.363-7.363L312.654,171.123z"/>
	<path d="M326.338,159.481h3.91v15.349h9.344v3.364h-13.254V159.481z"/>
	<path d="M343.185,164.89h3.847v3.796h-3.847V164.89z M343.185,174.398h3.847v3.796h-3.847V174.398z"/>
	<path d="M104.925,205.003c0-0.456-0.176-0.957-0.527-1.504c-0.599-0.885-1.504-1.328-2.715-1.328c-1.81,0-3.099,1.016-3.867,3.047
		c-0.417,1.12-0.703,2.773-0.859,4.961c0.69-0.82,1.491-1.419,2.402-1.797c0.911-0.377,1.953-0.566,3.125-0.566
		c2.513,0,4.573,0.853,6.182,2.559c1.608,1.706,2.412,3.887,2.412,6.543c0,2.644-0.788,4.974-2.363,6.992
		c-1.575,2.019-4.023,3.027-7.344,3.027c-3.567,0-6.198-1.491-7.891-4.473c-1.315-2.331-1.973-5.338-1.973-9.023
		c0-2.161,0.091-3.919,0.273-5.273c0.325-2.409,0.957-4.414,1.895-6.016c0.808-1.367,1.865-2.467,3.174-3.301
		c1.309-0.833,2.874-1.25,4.697-1.25c2.63,0,4.727,0.674,6.289,2.021s2.441,3.142,2.637,5.381H104.925z M98.323,220.96
		c0.82,0.964,1.862,1.445,3.125,1.445c1.237,0,2.21-0.465,2.92-1.396c0.71-0.931,1.064-2.139,1.064-3.623
		c0-1.653-0.403-2.92-1.211-3.799s-1.797-1.318-2.969-1.318c-0.95,0-1.79,0.287-2.52,0.859c-1.094,0.847-1.641,2.214-1.641,4.102
		C97.093,218.753,97.503,219.997,98.323,220.96z"/>
	<path d="M127.171,205.003c0-0.456-0.176-0.957-0.527-1.504c-0.599-0.885-1.504-1.328-2.715-1.328c-1.81,0-3.099,1.016-3.867,3.047
		c-0.417,1.12-0.703,2.773-0.859,4.961c0.69-0.82,1.491-1.419,2.402-1.797c0.911-0.377,1.953-0.566,3.125-0.566
		c2.513,0,4.573,0.853,6.182,2.559c1.608,1.706,2.412,3.887,2.412,6.543c0,2.644-0.788,4.974-2.363,6.992
		c-1.575,2.019-4.023,3.027-7.344,3.027c-3.567,0-6.198-1.491-7.891-4.473c-1.315-2.331-1.973-5.338-1.973-9.023
		c0-2.161,0.091-3.919,0.273-5.273c0.325-2.409,0.957-4.414,1.895-6.016c0.808-1.367,1.865-2.467,3.174-3.301
		c1.309-0.833,2.874-1.25,4.697-1.25c2.63,0,4.727,0.674,6.289,2.021s2.441,3.142,2.637,5.381H127.171z M120.569,220.96
		c0.82,0.964,1.862,1.445,3.125,1.445c1.237,0,2.21-0.465,2.92-1.396c0.71-0.931,1.064-2.139,1.064-3.623
		c0-1.653-0.403-2.92-1.211-3.799s-1.797-1.318-2.969-1.318c-0.95,0-1.79,0.287-2.52,0.859c-1.094,0.847-1.641,2.214-1.641,4.102
		C119.339,218.753,119.749,219.997,120.569,220.96z"/>
	<path d="M155.843,202.601c-0.835,0.82-1.996,2.282-3.483,4.385c-1.486,2.103-2.732,4.274-3.737,6.514
		c-0.796,1.758-1.514,3.906-2.152,6.445c-0.64,2.539-0.959,4.623-0.959,6.25h-5.781c0.169-5.078,1.837-10.358,5.004-15.84
		c2.046-3.398,3.76-5.768,5.142-7.109h-14.11l0.078-5h20V202.601z"/>
	<path d="M174.632,217.503c0,1.133,0.182,2.07,0.546,2.812c0.676,1.367,1.902,2.051,3.682,2.051c1.092,0,2.043-0.374,2.855-1.123
		c0.812-0.749,1.218-1.826,1.218-3.232c0-1.862-0.753-3.105-2.259-3.73c-0.857-0.352-2.207-0.527-4.05-0.527v-3.984
		c1.804-0.026,3.062-0.202,3.776-0.527c1.232-0.547,1.849-1.653,1.849-3.32c0-1.081-0.315-1.959-0.944-2.637
		c-0.631-0.677-1.518-1.016-2.66-1.016c-1.311,0-2.275,0.417-2.893,1.25c-0.617,0.833-0.912,1.947-0.886,3.34h-5.195
		c0.052-1.406,0.292-2.741,0.722-4.004c0.455-1.106,1.171-2.129,2.146-3.066c0.729-0.664,1.593-1.172,2.595-1.523
		c1.001-0.352,2.23-0.527,3.688-0.527c2.706,0,4.888,0.7,6.546,2.1c1.658,1.4,2.487,3.278,2.487,5.635
		c0,1.667-0.495,3.073-1.484,4.219c-0.625,0.716-1.276,1.205-1.953,1.465c0.508,0,1.237,0.437,2.188,1.309
		c1.419,1.315,2.129,3.112,2.129,5.391c0,2.396-0.829,4.502-2.487,6.318c-1.659,1.816-4.114,2.725-7.366,2.725
		c-4.007,0-6.79-1.309-8.351-3.926c-0.82-1.393-1.275-3.216-1.366-5.469H174.632z"/>
	<path d="M196.878,217.503c0,1.133,0.182,2.07,0.546,2.812c0.676,1.367,1.902,2.051,3.682,2.051c1.092,0,2.043-0.374,2.855-1.123
		c0.812-0.749,1.218-1.826,1.218-3.232c0-1.862-0.753-3.105-2.259-3.73c-0.857-0.352-2.207-0.527-4.05-0.527v-3.984
		c1.804-0.026,3.062-0.202,3.776-0.527c1.232-0.547,1.849-1.653,1.849-3.32c0-1.081-0.315-1.959-0.944-2.637
		c-0.631-0.677-1.518-1.016-2.66-1.016c-1.311,0-2.275,0.417-2.893,1.25c-0.617,0.833-0.912,1.947-0.886,3.34h-5.195
		c0.052-1.406,0.292-2.741,0.722-4.004c0.455-1.106,1.171-2.129,2.146-3.066c0.729-0.664,1.593-1.172,2.595-1.523
		c1.001-0.352,2.23-0.527,3.688-0.527c2.706,0,4.888,0.7,6.546,2.1c1.658,1.4,2.487,3.278,2.487,5.635
		c0,1.667-0.495,3.073-1.484,4.219c-0.625,0.716-1.276,1.205-1.953,1.465c0.508,0,1.237,0.437,2.188,1.309
		c1.419,1.315,2.129,3.112,2.129,5.391c0,2.396-0.829,4.502-2.487,6.318c-1.659,1.816-4.114,2.725-7.366,2.725
		c-4.007,0-6.79-1.309-8.351-3.926c-0.82-1.393-1.275-3.216-1.366-5.469H196.878z"/>
	<path d="M215.159,220.628c0.794-1.888,2.669-3.887,5.625-5.996c2.565-1.836,4.226-3.151,4.98-3.945
		c1.159-1.237,1.738-2.591,1.738-4.062c0-1.198-0.332-2.194-0.996-2.988c-0.664-0.794-1.614-1.191-2.852-1.191
		c-1.692,0-2.845,0.632-3.457,1.895c-0.352,0.729-0.56,1.888-0.625,3.477h-5.41c0.091-2.409,0.528-4.355,1.31-5.84
		c1.486-2.825,4.125-4.238,7.918-4.238c2.998,0,5.384,0.83,7.156,2.49s2.659,3.857,2.659,6.592c0,2.097-0.626,3.958-1.879,5.586
		c-0.821,1.081-2.172,2.285-4.05,3.613l-2.231,1.582c-1.396,0.99-2.351,1.706-2.865,2.148c-0.515,0.443-0.947,0.957-1.299,1.543
		h12.363v4.902h-19.395C213.902,224.163,214.339,222.308,215.159,220.628z"/>
	<path d="M249.778,200.462c1.751-1.881,4.026-2.822,6.826-2.822c4.31,0,7.266,1.908,8.867,5.723
		c0.911,2.162,1.367,5.007,1.367,8.535c0,3.425-0.437,6.283-1.309,8.574c-1.667,4.362-4.727,6.543-9.18,6.543
		c-2.122,0-4.03-0.628-5.723-1.885s-2.663-3.089-2.91-5.498h5.547c0.13,0.833,0.481,1.511,1.055,2.031
		c0.573,0.521,1.335,0.781,2.285,0.781c1.836,0,3.125-1.016,3.867-3.047c0.403-1.12,0.657-2.754,0.762-4.902
		c-0.508,0.638-1.048,1.126-1.621,1.465c-1.042,0.625-2.324,0.938-3.848,0.938c-2.253,0-4.251-0.778-5.996-2.334
		c-1.745-1.556-2.617-3.799-2.617-6.729C247.151,204.801,248.027,202.344,249.778,200.462z M259.144,211.702
		c1.263-0.807,1.895-2.207,1.895-4.199c0-1.602-0.374-2.871-1.123-3.809s-1.774-1.406-3.076-1.406c-0.95,0-1.765,0.267-2.441,0.801
		c-1.067,0.833-1.602,2.246-1.602,4.238c0,1.68,0.342,2.939,1.025,3.779s1.735,1.26,3.154,1.26
		C257.744,212.366,258.467,212.145,259.144,211.702z"/>
	<path d="M289.3,202.601c-0.835,0.82-1.996,2.282-3.483,4.385c-1.486,2.103-2.732,4.274-3.737,6.514
		c-0.796,1.758-1.514,3.906-2.152,6.445c-0.64,2.539-0.959,4.623-0.959,6.25h-5.781c0.169-5.078,1.837-10.358,5.004-15.84
		c2.046-3.398,3.76-5.768,5.142-7.109h-14.11l0.078-5h20V202.601z"/>
	<path d="M311.546,202.601c-0.835,0.82-1.996,2.282-3.483,4.385c-1.486,2.103-2.732,4.274-3.737,6.514
		c-0.796,1.758-1.514,3.906-2.152,6.445c-0.64,2.539-0.959,4.623-0.959,6.25h-5.781c0.169-5.078,1.837-10.358,5.004-15.84
		c2.046-3.398,3.76-5.768,5.142-7.109h-14.11l0.078-5h20V202.601z"/>
	<path d="M331.302,201.487c1.452,2.539,2.178,6.146,2.178,10.82c0,4.675-0.726,8.275-2.178,10.801
		c-1.452,2.526-3.981,3.789-7.588,3.789s-6.136-1.263-7.588-3.789c-1.452-2.526-2.178-6.126-2.178-10.801
		c0-4.674,0.726-8.281,2.178-10.82s3.981-3.809,7.588-3.809S329.85,198.948,331.302,201.487z M320.433,219.778
		c0.534,1.726,1.628,2.588,3.281,2.588s2.737-0.862,3.252-2.588c0.515-1.725,0.771-4.215,0.771-7.471
		c0-3.411-0.257-5.938-0.771-7.578s-1.599-2.461-3.252-2.461s-2.747,0.82-3.281,2.461s-0.801,4.167-0.801,7.578
		C319.632,215.563,319.898,218.053,320.433,219.778z"/>
	<path d="M113.387,251.618c0.121,0.855,0.358,1.494,0.713,1.917c0.648,0.77,1.758,1.155,3.332,1.155
		c0.941,0,1.706-0.102,2.293-0.305c1.115-0.389,1.673-1.113,1.673-2.171c0-0.618-0.272-1.096-0.819-1.435
		c-0.546-0.33-1.412-0.622-2.598-0.876l-2.026-0.444c-1.991-0.44-3.358-0.918-4.104-1.435c-1.261-0.863-1.892-2.213-1.892-4.05
		c0-1.676,0.617-3.068,1.851-4.177s3.046-1.663,5.437-1.663c1.996,0,3.699,0.522,5.108,1.568s2.147,2.562,2.217,4.551h-3.758
		c-0.069-1.125-0.573-1.925-1.51-2.399c-0.625-0.313-1.401-0.47-2.329-0.47c-1.033,0-1.857,0.203-2.474,0.609
		s-0.924,0.973-0.924,1.701c0,0.668,0.304,1.168,0.911,1.498c0.391,0.22,1.219,0.478,2.486,0.774l3.283,0.774
		c1.439,0.338,2.519,0.792,3.236,1.358c1.116,0.88,1.674,2.154,1.674,3.821c0,1.709-0.661,3.129-1.982,4.259
		c-1.322,1.13-3.189,1.695-5.602,1.695c-2.463,0-4.4-0.557-5.812-1.669s-2.117-2.643-2.117-4.589H113.387z"/>
	<path d="M131.478,257.395h-3.885v-18.713h3.885V257.395z"/>
	<path d="M147.715,244.521c-0.297-1.278-1.02-2.171-2.171-2.679c-0.644-0.279-1.358-0.419-2.146-0.419
		c-1.506,0-2.744,0.568-3.713,1.704c-0.97,1.137-1.454,2.845-1.454,5.125c0,2.298,0.524,3.924,1.574,4.878s2.243,1.432,3.58,1.432
		c1.312,0,2.387-0.376,3.225-1.129c0.838-0.753,1.354-1.739,1.549-2.959h-4.329v-3.123h7.795v10.042h-2.59l-0.394-2.336
		c-0.753,0.885-1.431,1.508-2.031,1.871c-1.032,0.632-2.302,0.948-3.809,0.948c-2.479,0-4.511-0.858-6.094-2.576
		c-1.65-1.725-2.476-4.085-2.476-7.079c0-3.028,0.834-5.456,2.501-7.283c1.667-1.827,3.872-2.74,6.614-2.74
		c2.379,0,4.289,0.603,5.732,1.809c1.442,1.206,2.27,2.71,2.481,4.513H147.715z"/>
	<path d="M155.357,238.682h3.974v11.493c0,1.286,0.151,2.224,0.456,2.816c0.472,1.049,1.5,1.573,3.086,1.573
		c1.577,0,2.602-0.524,3.074-1.573c0.303-0.592,0.455-1.53,0.455-2.816v-11.493h3.974v11.502c0,1.989-0.309,3.538-0.925,4.646
		c-1.149,2.031-3.342,3.047-6.578,3.047s-5.434-1.016-6.59-3.047c-0.617-1.109-0.926-2.658-0.926-4.646V238.682z"/>
	<path d="M187.972,241.995h-9.902v3.974h9.09v3.25h-9.09v4.812h10.359v3.364h-14.181v-18.713h13.724V241.995z"/>
	<path d="M191.412,238.682h4.1l7.428,13.048v-13.048h3.644v18.713h-3.909l-7.618-13.277v13.277h-3.644V238.682z"/>
	<path d="M210.188,238.682h4.099l7.429,13.048v-13.048h3.644v18.713h-3.909l-7.618-13.277v13.277h-3.644V238.682z"/>
	<path d="M243.438,255.731c-1.414,1.456-3.457,2.184-6.132,2.184s-4.718-0.728-6.132-2.184c-1.896-1.786-2.844-4.359-2.844-7.719
		c0-3.428,0.947-6,2.844-7.719c1.414-1.456,3.457-2.184,6.132-2.184s4.718,0.728,6.132,2.184c1.887,1.718,2.831,4.291,2.831,7.719
		C246.269,251.373,245.324,253.946,243.438,255.731z M240.994,252.888c0.909-1.143,1.364-2.768,1.364-4.875
		c0-2.099-0.455-3.722-1.364-4.869c-0.91-1.147-2.14-1.72-3.688-1.72s-2.784,0.571-3.707,1.714s-1.384,2.768-1.384,4.875
		s0.461,3.732,1.384,4.875s2.158,1.714,3.707,1.714S240.084,254.03,240.994,252.888z"/>
	<path d="M252.07,251.618c0.121,0.855,0.358,1.494,0.713,1.917c0.648,0.77,1.758,1.155,3.332,1.155c0.941,0,1.706-0.102,2.293-0.305
		c1.115-0.389,1.673-1.113,1.673-2.171c0-0.618-0.272-1.096-0.819-1.435c-0.546-0.33-1.412-0.622-2.598-0.876l-2.026-0.444
		c-1.991-0.44-3.358-0.918-4.104-1.435c-1.261-0.863-1.892-2.213-1.892-4.05c0-1.676,0.617-3.068,1.851-4.177
		s3.046-1.663,5.437-1.663c1.996,0,3.699,0.522,5.108,1.568s2.147,2.562,2.217,4.551h-3.758c-0.069-1.125-0.573-1.925-1.51-2.399
		c-0.625-0.313-1.401-0.47-2.329-0.47c-1.033,0-1.857,0.203-2.474,0.609s-0.924,0.973-0.924,1.701c0,0.668,0.304,1.168,0.911,1.498
		c0.391,0.22,1.219,0.478,2.486,0.774l3.283,0.774c1.439,0.338,2.519,0.792,3.236,1.358c1.116,0.88,1.674,2.154,1.674,3.821
		c0,1.709-0.661,3.129-1.982,4.259c-1.322,1.13-3.189,1.695-5.602,1.695c-2.463,0-4.4-0.557-5.812-1.669s-2.117-2.643-2.117-4.589
		H252.07z"/>
	<path d="M287.655,241.995h-9.902v3.974h9.09v3.25h-9.09v4.812h10.359v3.364h-14.181v-18.713h13.724V241.995z"/>
	<path d="M291.096,238.682h4.1l7.428,13.048v-13.048h3.644v18.713h-3.909l-7.618-13.277v13.277h-3.644V238.682z"/>
	<path d="M310.9,244.09h3.847v3.796H310.9V244.09z M310.9,253.599h3.847v3.796H310.9V253.599z"/>
</g>
<g>
	<path fill="#FFFFFF" d="M243.914,350.06c0,1.578-1.279,2.857-2.857,2.857h-56.913c-1.577,0-2.856-1.279-2.856-2.857v-55.92
		c0-1.578,1.279-2.857,2.856-2.857h56.913c1.578,0,2.857,1.279,2.857,2.857V350.06z"/>
	<g>
		<path d="M243.914,350.06v-55.92c0-1.578-1.279-2.857-2.857-2.857h-5.096h-46.72h-5.098c-1.573,0-2.849,1.272-2.855,2.843v50.837
			l-0.001,5.102c0.002,1.574,1.28,2.852,2.856,2.852h31.606v-24.745h-8.158v-8.525h8.158v-9.259c0-5.548,5.031-9.276,9.09-9.276
			h9.133v7.756h-4.213c-2.076,0-4.844,1.686-4.844,3.758v7.02h8.229v8.525h-8.229v24.745h11.045h5.096
			C242.635,352.917,243.914,351.638,243.914,350.06z"/>
		<path d="M241.057,353.274h-16.498v-25.458h8.229v-7.811h-8.229v-7.377c0-2.216,2.859-4.115,5.201-4.115h3.855v-7.042h-8.775
			c-3.648,0-8.732,3.393-8.732,8.919v9.616h-8.158v7.811h8.158v25.458h-31.964c-1.769,0-3.212-1.439-3.214-3.208l0.001-55.939
			c0.008-1.766,1.448-3.201,3.213-3.201h56.913c1.771,0,3.215,1.442,3.215,3.214v55.92
			C244.271,351.832,242.828,353.274,241.057,353.274z"/>
	</g>
</g>
</svg>
