<?xml version="1.0" encoding="utf-8"?>
<!-- Generator: Adobe Illustrator 16.0.0, SVG Export Plug-In . SVG Version: 6.00 Build 0)  -->
<!DOCTYPE svg PUBLIC "-//W3C//DTD SVG 1.1//EN" "http://www.w3.org/Graphics/SVG/1.1/DTD/svg11.dtd">
<svg version="1.1" id="Layer_1" xmlns="http://www.w3.org/2000/svg" xmlns:xlink="http://www.w3.org/1999/xlink" x="0px" y="0px"
	 width="425.2px" height="425.2px" viewBox="0 0 425.2 425.2" enable-background="new 0 0 425.2 425.2" xml:space="preserve">
<g>
	<g>
		<path style="fill:rgba(255,255,255,0.8);" d="M212.6,423.7C96.199,423.7,1.5,329.001,1.5,212.6S96.199,1.5,212.6,1.5s211.1,94.699,211.1,211.1
			S329.001,423.7,212.6,423.7z"/>
		<path fill="#231F20" d="M212.6,3c28.297,0,55.746,5.542,81.585,16.47c24.958,10.557,47.375,25.67,66.625,44.92
			c19.25,19.25,34.364,41.666,44.92,66.625c10.929,25.839,16.47,53.288,16.47,81.585c0,28.297-5.542,55.747-16.47,81.585
			c-10.557,24.958-25.67,47.375-44.92,66.625c-19.25,19.25-41.666,34.364-66.625,44.92c-25.839,10.929-53.288,16.47-81.585,16.47
			s-55.747-5.542-81.585-16.47c-24.958-10.556-47.375-25.669-66.625-44.92c-19.25-19.25-34.364-41.666-44.92-66.625
			C8.542,268.347,3,240.897,3,212.6s5.542-55.746,16.47-81.585c10.557-24.958,25.67-47.375,44.92-66.625
			c19.25-19.25,41.666-34.364,66.625-44.92C156.854,8.542,184.303,3,212.6,3 M212.6,0C95.184,0,0,95.185,0,212.6
			c0,117.417,95.184,212.6,212.6,212.6c117.416,0,212.6-95.183,212.6-212.6C425.2,95.185,330.016,0,212.6,0L212.6,0z"/>
	</g>
	<g>
		
			<circle fill="none" stroke="#231F20" stroke-width="12.546" stroke-miterlimit="10" stroke-dasharray="2.942,5.884" cx="212.6" cy="212.6" r="196.651"/>
	</g>
</g>
<g>
	<path d="M55.115,123.069h13.533v2.285h-11.07v5.662H67.81v2.158H57.578v6.322h11.261v2.222H55.115V123.069z"/>
	<path d="M71.974,123.069h2.285v18.649h-2.285V123.069z"/>
	<path d="M93.893,128.846c0.96,0.745,1.538,2.027,1.733,3.847h-2.222c-0.135-0.838-0.444-1.534-0.927-2.088
		s-1.257-0.832-2.323-0.832c-1.456,0-2.497,0.71-3.123,2.13c-0.406,0.921-0.609,2.058-0.609,3.411c0,1.361,0.288,2.506,0.863,3.437
		c0.576,0.93,1.481,1.395,2.717,1.395c0.948,0,1.699-0.289,2.253-0.866s0.938-1.368,1.149-2.371h2.222
		c-0.254,1.803-0.889,3.121-1.904,3.955s-2.315,1.25-3.897,1.25c-1.777,0-3.195-0.649-4.253-1.949s-1.587-2.922-1.587-4.869
		c0-2.387,0.58-4.245,1.739-5.573s2.636-1.993,4.431-1.993C91.686,127.729,92.932,128.101,93.893,128.846z"/>
	<path d="M107.762,129.479c1.202,1.167,1.803,2.883,1.803,5.149c0,2.19-0.53,4-1.588,5.429c-1.059,1.429-2.702,2.144-4.929,2.144
		c-1.857,0-3.332-0.632-4.425-1.896s-1.639-2.962-1.639-5.093c0-2.283,0.576-4.102,1.727-5.455c1.151-1.353,2.698-2.029,4.639-2.029
		C105.09,127.729,106.561,128.312,107.762,129.479z M106.343,138.515c0.557-1.145,0.835-2.419,0.835-3.823
		c0-1.268-0.201-2.299-0.603-3.094c-0.636-1.251-1.732-1.877-3.289-1.877c-1.381,0-2.385,0.533-3.013,1.598
		c-0.627,1.065-0.941,2.35-0.941,3.855c0,1.445,0.314,2.65,0.941,3.614c0.627,0.963,1.624,1.445,2.988,1.445
		C104.76,140.233,105.787,139.661,106.343,138.515z"/>
	<path d="M112.371,128.122h2.171v1.93c0.643-0.795,1.325-1.367,2.044-1.714s1.519-0.521,2.399-0.521c1.93,0,3.233,0.673,3.91,2.019
		c0.373,0.736,0.559,1.79,0.559,3.161v8.722h-2.323v-8.569c0-0.83-0.123-1.498-0.368-2.006c-0.406-0.846-1.143-1.27-2.209-1.27
		c-0.542,0-0.986,0.055-1.333,0.165c-0.626,0.186-1.176,0.559-1.65,1.117c-0.381,0.449-0.628,0.912-0.743,1.39
		s-0.171,1.162-0.171,2.05v7.122h-2.285V128.122z"/>
	<path d="M124.672,145.159c1.024-0.034,1.64-0.125,1.847-0.273s0.311-0.611,0.311-1.39v-15.311h2.285v15.552
		c0,0.99-0.161,1.731-0.482,2.222c-0.533,0.83-1.544,1.244-3.034,1.244c-0.11,0-0.227-0.004-0.349-0.013s-0.315-0.025-0.578-0.051
		V145.159z M129.116,125.71h-2.285v-2.641h2.285V125.71z"/>
	<path d="M134.892,128.122v9.026c0,0.694,0.107,1.261,0.322,1.701c0.396,0.812,1.133,1.219,2.213,1.219
		c1.549,0,2.604-0.711,3.165-2.133c0.305-0.762,0.458-1.807,0.458-3.136v-6.678h2.285v13.597h-2.158l0.025-2.006
		c-0.291,0.516-0.652,0.952-1.084,1.308c-0.855,0.711-1.893,1.066-3.114,1.066c-1.902,0-3.198-0.647-3.887-1.942
		c-0.374-0.694-0.561-1.621-0.561-2.78v-9.242H134.892z"/>
	<path d="M147.067,128.122h2.171v1.93c0.643-0.795,1.325-1.367,2.044-1.714s1.519-0.521,2.399-0.521c1.93,0,3.233,0.673,3.91,2.019
		c0.373,0.736,0.559,1.79,0.559,3.161v8.722h-2.323v-8.569c0-0.83-0.123-1.498-0.368-2.006c-0.406-0.846-1.143-1.27-2.209-1.27
		c-0.542,0-0.986,0.055-1.333,0.165c-0.626,0.186-1.176,0.559-1.65,1.117c-0.381,0.449-0.628,0.912-0.743,1.39
		s-0.171,1.162-0.171,2.05v7.122h-2.285V128.122z"/>
	<path d="M161.984,124.326h2.311v3.796h2.171v1.866h-2.171v8.874c0,0.474,0.161,0.792,0.482,0.952
		c0.178,0.093,0.474,0.14,0.889,0.14c0.11,0,0.229-0.003,0.355-0.008s0.275-0.02,0.444-0.042v1.815
		c-0.262,0.076-0.535,0.131-0.819,0.165s-0.59,0.051-0.92,0.051c-1.066,0-1.79-0.273-2.171-0.819s-0.571-1.255-0.571-2.126v-9.001
		h-1.841v-1.866h1.841V124.326z"/>
	<path d="M178.602,129.479c1.202,1.167,1.803,2.883,1.803,5.149c0,2.19-0.53,4-1.588,5.429c-1.059,1.429-2.702,2.144-4.929,2.144
		c-1.857,0-3.332-0.632-4.425-1.896s-1.639-2.962-1.639-5.093c0-2.283,0.576-4.102,1.727-5.455c1.151-1.353,2.698-2.029,4.639-2.029
		C175.93,127.729,177.4,128.312,178.602,129.479z M177.183,138.515c0.557-1.145,0.835-2.419,0.835-3.823
		c0-1.268-0.201-2.299-0.603-3.094c-0.636-1.251-1.732-1.877-3.289-1.877c-1.381,0-2.385,0.533-3.013,1.598
		c-0.627,1.065-0.941,2.35-0.941,3.855c0,1.445,0.314,2.65,0.941,3.614c0.627,0.963,1.624,1.445,2.988,1.445
		C175.6,140.233,176.626,139.661,177.183,138.515z"/>
	<path d="M198.833,128.497c0.9,0.453,1.585,1.039,2.057,1.758c0.454,0.686,0.757,1.485,0.908,2.399
		c0.135,0.626,0.202,1.625,0.202,2.996h-9.89c0.042,1.383,0.365,2.493,0.97,3.329c0.604,0.836,1.541,1.254,2.809,1.254
		c1.184,0,2.129-0.396,2.834-1.186c0.395-0.459,0.674-0.99,0.839-1.594h2.247c-0.059,0.5-0.256,1.056-0.59,1.669
		s-0.708,1.115-1.119,1.504c-0.689,0.677-1.542,1.134-2.558,1.371c-0.546,0.135-1.164,0.203-1.853,0.203
		c-1.682,0-3.107-0.616-4.277-1.847c-1.169-1.231-1.753-2.956-1.753-5.173c0-2.184,0.589-3.957,1.767-5.319
		c1.177-1.363,2.717-2.044,4.618-2.044C197.003,127.817,197.932,128.044,198.833,128.497z M199.651,133.835
		c-0.092-0.99-0.307-1.782-0.642-2.374c-0.621-1.1-1.658-1.65-3.109-1.65c-1.041,0-1.914,0.379-2.619,1.136
		c-0.705,0.757-1.078,1.72-1.12,2.888H199.651z"/>
	<path d="M206.252,137.453c0.069,0.762,0.263,1.346,0.583,1.752c0.587,0.736,1.607,1.104,3.058,1.104
		c0.864,0,1.624-0.184,2.28-0.552s0.985-0.938,0.985-1.708c0-0.584-0.262-1.028-0.787-1.333c-0.335-0.186-0.998-0.402-1.987-0.647
		l-1.845-0.457c-1.178-0.288-2.047-0.609-2.606-0.965c-0.998-0.618-1.497-1.473-1.497-2.564c0-1.287,0.47-2.328,1.409-3.123
		s2.202-1.193,3.789-1.193c2.076,0,3.572,0.601,4.49,1.803c0.575,0.762,0.854,1.583,0.837,2.463h-2.158
		c-0.043-0.513-0.229-0.98-0.559-1.401c-0.538-0.598-1.469-0.896-2.794-0.896c-0.884,0-1.553,0.165-2.008,0.493
		c-0.455,0.329-0.682,0.764-0.682,1.303c0,0.59,0.299,1.062,0.896,1.417c0.345,0.211,0.854,0.397,1.526,0.558l1.539,0.368
		c1.673,0.398,2.794,0.783,3.363,1.155c0.889,0.584,1.333,1.502,1.333,2.755c0,1.21-0.465,2.255-1.395,3.136s-2.346,1.32-4.248,1.32
		c-2.048,0-3.498-0.459-4.351-1.377c-0.853-0.918-1.309-2.055-1.369-3.409H206.252z"/>
	<path d="M218.351,124.326h2.311v3.796h2.171v1.866h-2.171v8.874c0,0.474,0.161,0.792,0.482,0.952
		c0.178,0.093,0.474,0.14,0.889,0.14c0.11,0,0.229-0.003,0.355-0.008s0.275-0.02,0.444-0.042v1.815
		c-0.262,0.076-0.535,0.131-0.819,0.165s-0.59,0.051-0.92,0.051c-1.066,0-1.79-0.273-2.171-0.819s-0.571-1.255-0.571-2.126v-9.001
		h-1.841v-1.866h1.841V124.326z"/>
	<path d="M232.405,133.49c0.525-0.067,0.876-0.287,1.054-0.659c0.102-0.204,0.152-0.497,0.152-0.879c0-0.781-0.277-1.349-0.83-1.701
		s-1.345-0.529-2.375-0.529c-1.191,0-2.036,0.323-2.534,0.97c-0.279,0.357-0.46,0.889-0.545,1.595h-2.133
		c0.042-1.681,0.585-2.85,1.629-3.507s2.255-0.987,3.633-0.987c1.598,0,2.896,0.305,3.893,0.914
		c0.989,0.609,1.483,1.557,1.483,2.844v7.833c0,0.237,0.049,0.428,0.146,0.571s0.303,0.215,0.616,0.215
		c0.102,0,0.216-0.006,0.343-0.019s0.262-0.032,0.406-0.057v1.688c-0.355,0.102-0.626,0.165-0.812,0.19s-0.44,0.038-0.762,0.038
		c-0.787,0-1.358-0.279-1.714-0.838c-0.186-0.296-0.317-0.715-0.394-1.256c-0.465,0.609-1.134,1.138-2.006,1.586
		c-0.872,0.449-1.833,0.673-2.882,0.673c-1.261,0-2.292-0.383-3.091-1.147c-0.8-0.765-1.2-1.722-1.2-2.872
		c0-1.259,0.394-2.236,1.181-2.929c0.787-0.693,1.82-1.12,3.098-1.281L232.405,133.49z M227.593,139.664
		c0.482,0.38,1.054,0.57,1.714,0.57c0.804,0,1.583-0.186,2.336-0.558c1.27-0.617,1.904-1.626,1.904-3.029v-1.838
		c-0.279,0.178-0.638,0.327-1.077,0.446c-0.439,0.119-0.87,0.204-1.292,0.254l-1.381,0.177c-0.828,0.11-1.45,0.283-1.867,0.52
		c-0.707,0.397-1.06,1.03-1.06,1.9C226.87,138.764,227.111,139.283,227.593,139.664z"/>
	<path d="M255.783,128.846c0.96,0.745,1.538,2.027,1.733,3.847h-2.222c-0.135-0.838-0.444-1.534-0.927-2.088
		s-1.257-0.832-2.323-0.832c-1.456,0-2.497,0.71-3.123,2.13c-0.406,0.921-0.609,2.058-0.609,3.411c0,1.361,0.288,2.506,0.863,3.437
		c0.576,0.93,1.481,1.395,2.717,1.395c0.948,0,1.699-0.289,2.253-0.866s0.938-1.368,1.149-2.371h2.222
		c-0.254,1.803-0.889,3.121-1.904,3.955s-2.315,1.25-3.897,1.25c-1.777,0-3.195-0.649-4.253-1.949s-1.587-2.922-1.587-4.869
		c0-2.387,0.58-4.245,1.739-5.573s2.636-1.993,4.431-1.993C253.576,127.729,254.823,128.101,255.783,128.846z"/>
	<path d="M269.653,129.479c1.202,1.167,1.803,2.883,1.803,5.149c0,2.19-0.53,4-1.588,5.429c-1.059,1.429-2.702,2.144-4.929,2.144
		c-1.857,0-3.332-0.632-4.425-1.896s-1.639-2.962-1.639-5.093c0-2.283,0.576-4.102,1.727-5.455c1.151-1.353,2.698-2.029,4.639-2.029
		C266.98,127.729,268.451,128.312,269.653,129.479z M268.234,138.515c0.557-1.145,0.835-2.419,0.835-3.823
		c0-1.268-0.201-2.299-0.603-3.094c-0.636-1.251-1.732-1.877-3.289-1.877c-1.381,0-2.385,0.533-3.013,1.598
		c-0.627,1.065-0.941,2.35-0.941,3.855c0,1.445,0.314,2.65,0.941,3.614c0.627,0.963,1.624,1.445,2.988,1.445
		C266.65,140.233,267.677,139.661,268.234,138.515z"/>
	<path d="M274.261,128.122h2.26v1.93c0.542-0.668,1.033-1.155,1.473-1.46c0.753-0.516,1.608-0.774,2.564-0.774
		c1.083,0,1.955,0.267,2.615,0.8c0.373,0.305,0.711,0.753,1.016,1.346c0.508-0.728,1.104-1.268,1.79-1.619s1.456-0.527,2.311-0.527
		c1.828,0,3.072,0.66,3.732,1.98c0.355,0.711,0.533,1.667,0.533,2.869v9.052h-2.374v-9.445c0-0.906-0.227-1.528-0.679-1.866
		s-1.005-0.508-1.657-0.508c-0.897,0-1.669,0.3-2.317,0.901s-0.971,1.604-0.971,3.009v7.909h-2.323v-8.874
		c0-0.922-0.11-1.595-0.33-2.019c-0.347-0.635-0.995-0.952-1.942-0.952c-0.863,0-1.648,0.334-2.355,1.003s-1.06,1.879-1.06,3.631
		v7.211h-2.285V128.122z"/>
	<path d="M295.729,128.186h2.234v1.803c0.458-0.618,0.959-1.096,1.502-1.435c0.772-0.508,1.68-0.762,2.724-0.762
		c1.544,0,2.855,0.59,3.933,1.771s1.617,2.867,1.617,5.059c0,2.962-0.777,5.078-2.333,6.348c-0.985,0.804-2.133,1.206-3.441,1.206
		c-1.028,0-1.891-0.224-2.587-0.673c-0.408-0.254-0.862-0.69-1.364-1.308v6.944h-2.285V128.186z M304.327,138.843
		c0.709-0.893,1.063-2.228,1.063-4.005c0-1.083-0.157-2.014-0.471-2.793c-0.595-1.498-1.682-2.247-3.261-2.247
		c-1.588,0-2.675,0.792-3.261,2.374c-0.314,0.846-0.471,1.921-0.471,3.225c0,1.049,0.157,1.942,0.471,2.679
		c0.594,1.405,1.682,2.107,3.261,2.107C302.728,140.183,303.617,139.736,304.327,138.843z"/>
	<path d="M312.665,128.122v9.026c0,0.694,0.107,1.261,0.322,1.701c0.396,0.812,1.133,1.219,2.213,1.219
		c1.549,0,2.604-0.711,3.165-2.133c0.305-0.762,0.458-1.807,0.458-3.136v-6.678h2.285v13.597h-2.158l0.025-2.006
		c-0.291,0.516-0.652,0.952-1.084,1.308c-0.855,0.711-1.893,1.066-3.114,1.066c-1.902,0-3.198-0.647-3.887-1.942
		c-0.374-0.694-0.561-1.621-0.561-2.78v-9.242H312.665z"/>
	<path d="M333.238,128.497c0.9,0.453,1.585,1.039,2.057,1.758c0.454,0.686,0.757,1.485,0.908,2.399
		c0.135,0.626,0.202,1.625,0.202,2.996h-9.89c0.042,1.383,0.365,2.493,0.97,3.329c0.604,0.836,1.541,1.254,2.809,1.254
		c1.184,0,2.129-0.396,2.834-1.186c0.395-0.459,0.674-0.99,0.839-1.594h2.247c-0.059,0.5-0.256,1.056-0.59,1.669
		s-0.708,1.115-1.119,1.504c-0.689,0.677-1.542,1.134-2.558,1.371c-0.546,0.135-1.164,0.203-1.853,0.203
		c-1.682,0-3.107-0.616-4.277-1.847c-1.169-1.231-1.753-2.956-1.753-5.173c0-2.184,0.589-3.957,1.767-5.319
		c1.177-1.363,2.717-2.044,4.618-2.044C331.408,127.817,332.337,128.044,333.238,128.497z M334.056,133.835
		c-0.092-0.99-0.307-1.782-0.642-2.374c-0.621-1.1-1.658-1.65-3.109-1.65c-1.041,0-1.914,0.379-2.619,1.136
		c-0.705,0.757-1.078,1.72-1.12,2.888H334.056z"/>
	<path d="M340.658,137.453c0.069,0.762,0.263,1.346,0.583,1.752c0.587,0.736,1.607,1.104,3.058,1.104
		c0.864,0,1.624-0.184,2.28-0.552s0.985-0.938,0.985-1.708c0-0.584-0.262-1.028-0.787-1.333c-0.335-0.186-0.998-0.402-1.987-0.647
		l-1.845-0.457c-1.178-0.288-2.047-0.609-2.606-0.965c-0.998-0.618-1.497-1.473-1.497-2.564c0-1.287,0.47-2.328,1.409-3.123
		s2.202-1.193,3.789-1.193c2.076,0,3.572,0.601,4.49,1.803c0.575,0.762,0.854,1.583,0.837,2.463h-2.158
		c-0.043-0.513-0.229-0.98-0.559-1.401c-0.538-0.598-1.469-0.896-2.794-0.896c-0.884,0-1.553,0.165-2.008,0.493
		c-0.455,0.329-0.682,0.764-0.682,1.303c0,0.59,0.299,1.062,0.896,1.417c0.345,0.211,0.854,0.397,1.526,0.558l1.539,0.368
		c1.673,0.398,2.794,0.783,3.363,1.155c0.889,0.584,1.333,1.502,1.333,2.755c0,1.21-0.465,2.255-1.395,3.136s-2.346,1.32-4.248,1.32
		c-2.048,0-3.498-0.459-4.351-1.377c-0.853-0.918-1.309-2.055-1.369-3.409H340.658z"/>
	<path d="M352.756,124.326h2.311v3.796h2.171v1.866h-2.171v8.874c0,0.474,0.161,0.792,0.482,0.952
		c0.178,0.093,0.474,0.14,0.889,0.14c0.11,0,0.229-0.003,0.355-0.008s0.275-0.02,0.444-0.042v1.815
		c-0.262,0.076-0.535,0.131-0.819,0.165s-0.59,0.051-0.92,0.051c-1.066,0-1.79-0.273-2.171-0.819s-0.571-1.255-0.571-2.126v-9.001
		h-1.841v-1.866h1.841V124.326z"/>
	<path d="M369.375,129.479c1.202,1.167,1.803,2.883,1.803,5.149c0,2.19-0.53,4-1.588,5.429c-1.059,1.429-2.702,2.144-4.929,2.144
		c-1.857,0-3.332-0.632-4.425-1.896s-1.639-2.962-1.639-5.093c0-2.283,0.576-4.102,1.727-5.455c1.151-1.353,2.698-2.029,4.639-2.029
		C366.702,127.729,368.173,128.312,369.375,129.479z M367.956,138.515c0.557-1.145,0.835-2.419,0.835-3.823
		c0-1.268-0.201-2.299-0.603-3.094c-0.636-1.251-1.732-1.877-3.289-1.877c-1.381,0-2.385,0.533-3.013,1.598
		c-0.627,1.065-0.941,2.35-0.941,3.855c0,1.445,0.314,2.65,0.941,3.614c0.627,0.963,1.624,1.445,2.988,1.445
		C366.372,140.233,367.399,139.661,367.956,138.515z"/>
	<path d="M47.136,159.386h2.234v1.803c0.458-0.618,0.959-1.096,1.502-1.435c0.772-0.508,1.68-0.762,2.724-0.762
		c1.544,0,2.855,0.59,3.933,1.771s1.617,2.867,1.617,5.059c0,2.962-0.777,5.078-2.333,6.348c-0.985,0.804-2.133,1.206-3.441,1.206
		c-1.028,0-1.891-0.224-2.587-0.673c-0.408-0.254-0.862-0.69-1.364-1.308v6.944h-2.285V159.386z M55.733,170.043
		c0.709-0.893,1.063-2.228,1.063-4.005c0-1.083-0.157-2.014-0.471-2.793c-0.595-1.498-1.682-2.247-3.261-2.247
		c-1.588,0-2.675,0.792-3.261,2.374c-0.314,0.846-0.471,1.921-0.471,3.225c0,1.049,0.157,1.942,0.471,2.679
		c0.594,1.405,1.682,2.107,3.261,2.107C54.134,171.383,55.024,170.937,55.733,170.043z"/>
	<path d="M71.638,160.679c1.202,1.167,1.803,2.883,1.803,5.149c0,2.19-0.53,4-1.588,5.429c-1.059,1.429-2.702,2.144-4.929,2.144
		c-1.857,0-3.332-0.632-4.425-1.896s-1.639-2.962-1.639-5.093c0-2.283,0.576-4.102,1.727-5.455c1.151-1.353,2.698-2.029,4.639-2.029
		C68.965,158.929,70.436,159.512,71.638,160.679z M70.219,169.715c0.557-1.145,0.835-2.419,0.835-3.823
		c0-1.268-0.201-2.299-0.603-3.094c-0.636-1.251-1.732-1.877-3.289-1.877c-1.381,0-2.385,0.533-3.013,1.598
		c-0.627,1.065-0.941,2.35-0.941,3.855c0,1.445,0.314,2.65,0.941,3.614c0.627,0.963,1.624,1.445,2.988,1.445
		C68.635,171.434,69.662,170.861,70.219,169.715z"/>
	<path d="M76.31,159.322h2.171v2.349c0.178-0.457,0.614-1.014,1.308-1.669s1.494-0.984,2.399-0.984c0.042,0,0.114,0.004,0.216,0.013
		s0.275,0.025,0.521,0.051v2.412c-0.135-0.025-0.26-0.042-0.375-0.051s-0.239-0.013-0.375-0.013c-1.151,0-2.036,0.37-2.653,1.111
		s-0.927,1.593-0.927,2.558v7.82H76.31V159.322z"/>
	<path d="M92.94,160.046v-1.752c1.65-0.161,2.801-0.43,3.453-0.806s1.138-1.268,1.46-2.672h1.803v18.104h-2.438v-12.873H92.94z"/>
	<path d="M117.049,157.646c0.812,1.498,1.219,3.55,1.219,6.157c0,2.471-0.368,4.515-1.104,6.132c-1.066,2.319-2.81,3.479-5.23,3.479
		c-2.184,0-3.809-0.948-4.875-2.844c-0.889-1.583-1.333-3.707-1.333-6.373c0-2.065,0.267-3.838,0.8-5.319
		c0.999-2.759,2.806-4.139,5.421-4.139C114.298,154.739,116,155.708,117.049,157.646z M114.749,169.758
		c0.704-1.049,1.056-3.004,1.056-5.865c0-2.065-0.254-3.764-0.763-5.097c-0.508-1.333-1.496-2-2.963-2
		c-1.348,0-2.333,0.633-2.957,1.898s-0.935,3.129-0.935,5.592c0,1.854,0.199,3.343,0.598,4.469c0.61,1.718,1.653,2.577,3.128,2.577
		C113.1,171.332,114.045,170.807,114.749,169.758z"/>
	<path d="M137.253,160.046c0.96,0.745,1.538,2.027,1.733,3.847h-2.222c-0.135-0.838-0.444-1.534-0.927-2.088
		s-1.257-0.832-2.323-0.832c-1.456,0-2.497,0.71-3.123,2.13c-0.406,0.921-0.609,2.058-0.609,3.411c0,1.361,0.288,2.506,0.863,3.437
		c0.576,0.93,1.481,1.395,2.717,1.395c0.948,0,1.699-0.289,2.253-0.866s0.938-1.368,1.149-2.371h2.222
		c-0.254,1.803-0.889,3.121-1.904,3.955s-2.315,1.25-3.897,1.25c-1.777,0-3.195-0.649-4.253-1.949s-1.587-2.922-1.587-4.869
		c0-2.387,0.58-4.245,1.739-5.573s2.636-1.993,4.431-1.993C135.046,158.929,136.293,159.301,137.253,160.046z"/>
	<path d="M148.559,164.69c0.525-0.067,0.876-0.287,1.054-0.659c0.102-0.204,0.152-0.497,0.152-0.879c0-0.781-0.277-1.349-0.83-1.701
		s-1.345-0.529-2.375-0.529c-1.191,0-2.036,0.323-2.534,0.97c-0.279,0.357-0.46,0.889-0.545,1.595h-2.133
		c0.042-1.681,0.585-2.85,1.629-3.507s2.255-0.987,3.633-0.987c1.598,0,2.896,0.305,3.893,0.914
		c0.989,0.609,1.483,1.557,1.483,2.844v7.833c0,0.237,0.049,0.428,0.146,0.571s0.303,0.215,0.616,0.215
		c0.102,0,0.216-0.006,0.343-0.019s0.262-0.032,0.406-0.057v1.688c-0.355,0.102-0.626,0.165-0.812,0.19s-0.44,0.038-0.762,0.038
		c-0.787,0-1.358-0.279-1.714-0.838c-0.186-0.296-0.317-0.715-0.394-1.256c-0.465,0.609-1.134,1.138-2.006,1.586
		c-0.872,0.449-1.833,0.673-2.882,0.673c-1.261,0-2.292-0.383-3.091-1.147c-0.8-0.765-1.2-1.722-1.2-2.872
		c0-1.259,0.394-2.236,1.181-2.929c0.787-0.693,1.82-1.12,3.098-1.281L148.559,164.69z M143.747,170.864
		c0.482,0.38,1.054,0.57,1.714,0.57c0.804,0,1.583-0.186,2.336-0.558c1.27-0.617,1.904-1.626,1.904-3.029v-1.838
		c-0.279,0.178-0.638,0.327-1.077,0.446c-0.439,0.119-0.87,0.204-1.292,0.254l-1.381,0.177c-0.828,0.11-1.45,0.283-1.867,0.52
		c-0.707,0.397-1.06,1.03-1.06,1.9C143.023,169.964,143.265,170.483,143.747,170.864z"/>
	<path d="M155.541,154.206h2.222v6.767c0.501-0.652,1.1-1.149,1.797-1.492s1.453-0.514,2.269-0.514c1.699,0,3.078,0.582,4.136,1.746
		c1.058,1.164,1.587,2.88,1.587,5.148c0,2.15-0.522,3.936-1.568,5.357c-1.045,1.422-2.494,2.133-4.346,2.133
		c-1.037,0-1.912-0.25-2.625-0.749c-0.425-0.296-0.879-0.77-1.364-1.422v1.739h-2.107V154.206z M164.278,169.859
		c0.616-0.982,0.924-2.277,0.924-3.885c0-1.43-0.308-2.615-0.924-3.555c-0.615-0.939-1.522-1.409-2.719-1.409
		c-1.044,0-1.959,0.385-2.745,1.155s-1.178,2.04-1.178,3.809c0,1.278,0.161,2.315,0.484,3.11c0.603,1.498,1.728,2.247,3.375,2.247
		C162.735,171.332,163.663,170.841,164.278,169.859z"/>
	<path d="M177.479,164.69c0.525-0.067,0.876-0.287,1.054-0.659c0.102-0.204,0.152-0.497,0.152-0.879c0-0.781-0.277-1.349-0.83-1.701
		s-1.345-0.529-2.375-0.529c-1.191,0-2.036,0.323-2.534,0.97c-0.279,0.357-0.46,0.889-0.545,1.595h-2.133
		c0.042-1.681,0.585-2.85,1.629-3.507s2.255-0.987,3.633-0.987c1.598,0,2.896,0.305,3.893,0.914
		c0.989,0.609,1.483,1.557,1.483,2.844v7.833c0,0.237,0.049,0.428,0.146,0.571s0.303,0.215,0.616,0.215
		c0.102,0,0.216-0.006,0.343-0.019s0.262-0.032,0.406-0.057v1.688c-0.355,0.102-0.626,0.165-0.812,0.19s-0.44,0.038-0.762,0.038
		c-0.787,0-1.358-0.279-1.714-0.838c-0.186-0.296-0.317-0.715-0.394-1.256c-0.465,0.609-1.134,1.138-2.006,1.586
		c-0.872,0.449-1.833,0.673-2.882,0.673c-1.261,0-2.292-0.383-3.091-1.147c-0.8-0.765-1.2-1.722-1.2-2.872
		c0-1.259,0.394-2.236,1.181-2.929c0.787-0.693,1.82-1.12,3.098-1.281L177.479,164.69z M172.667,170.864
		c0.482,0.38,1.054,0.57,1.714,0.57c0.804,0,1.583-0.186,2.336-0.558c1.27-0.617,1.904-1.626,1.904-3.029v-1.838
		c-0.279,0.178-0.638,0.327-1.077,0.446c-0.439,0.119-0.87,0.204-1.292,0.254l-1.381,0.177c-0.828,0.11-1.45,0.283-1.867,0.52
		c-0.707,0.397-1.06,1.03-1.06,1.9C171.943,169.964,172.185,170.483,172.667,170.864z"/>
	<path d="M184.651,159.322h2.171v1.93c0.643-0.795,1.325-1.367,2.044-1.714s1.519-0.521,2.399-0.521c1.93,0,3.233,0.673,3.91,2.019
		c0.373,0.736,0.559,1.79,0.559,3.161v8.722h-2.323v-8.569c0-0.83-0.123-1.498-0.368-2.006c-0.406-0.846-1.143-1.27-2.209-1.27
		c-0.542,0-0.986,0.055-1.333,0.165c-0.626,0.186-1.176,0.559-1.65,1.117c-0.381,0.449-0.628,0.912-0.743,1.39
		s-0.171,1.162-0.171,2.05v7.122h-2.285V159.322z M191.367,155.107c0.237,0.102,0.453,0.182,0.647,0.241s0.394,0.089,0.597,0.089
		c0.474,0,0.812-0.148,1.016-0.444c0.11-0.161,0.186-0.402,0.229-0.724h1.333c-0.178,1.075-0.519,1.815-1.022,2.222
		s-1.056,0.609-1.657,0.609c-0.186,0-0.423-0.034-0.711-0.102s-0.542-0.144-0.762-0.229l-0.673-0.241
		c-0.398-0.144-0.722-0.252-0.971-0.324s-0.493-0.108-0.73-0.108c-0.296,0-0.54,0.097-0.73,0.292s-0.319,0.491-0.387,0.889h-1.244
		c0.11-0.668,0.292-1.214,0.546-1.638c0.482-0.779,1.198-1.168,2.146-1.168c0.288,0,0.607,0.042,0.958,0.127
		S190.775,154.854,191.367,155.107z"/>
	<path d="M206.398,164.69c0.525-0.067,0.876-0.287,1.054-0.659c0.102-0.204,0.152-0.497,0.152-0.879c0-0.781-0.277-1.349-0.83-1.701
		s-1.345-0.529-2.375-0.529c-1.191,0-2.036,0.323-2.534,0.97c-0.279,0.357-0.46,0.889-0.545,1.595h-2.133
		c0.042-1.681,0.585-2.85,1.629-3.507s2.255-0.987,3.633-0.987c1.598,0,2.896,0.305,3.893,0.914
		c0.989,0.609,1.483,1.557,1.483,2.844v7.833c0,0.237,0.049,0.428,0.146,0.571s0.303,0.215,0.616,0.215
		c0.102,0,0.216-0.006,0.343-0.019s0.262-0.032,0.406-0.057v1.688c-0.355,0.102-0.626,0.165-0.812,0.19s-0.44,0.038-0.762,0.038
		c-0.787,0-1.358-0.279-1.714-0.838c-0.186-0.296-0.317-0.715-0.394-1.256c-0.465,0.609-1.134,1.138-2.006,1.586
		c-0.872,0.449-1.833,0.673-2.882,0.673c-1.261,0-2.292-0.383-3.091-1.147c-0.8-0.765-1.2-1.722-1.2-2.872
		c0-1.259,0.394-2.236,1.181-2.929c0.787-0.693,1.82-1.12,3.098-1.281L206.398,164.69z M201.587,170.864
		c0.482,0.38,1.054,0.57,1.714,0.57c0.804,0,1.583-0.186,2.336-0.558c1.27-0.617,1.904-1.626,1.904-3.029v-1.838
		c-0.279,0.178-0.638,0.327-1.077,0.446c-0.439,0.119-0.87,0.204-1.292,0.254l-1.381,0.177c-0.828,0.11-1.45,0.283-1.867,0.52
		c-0.707,0.397-1.06,1.03-1.06,1.9C200.863,169.964,201.104,170.483,201.587,170.864z"/>
	<path d="M214.93,168.653c0.069,0.762,0.263,1.346,0.583,1.752c0.587,0.736,1.607,1.104,3.058,1.104c0.864,0,1.624-0.184,2.28-0.552
		s0.985-0.938,0.985-1.708c0-0.584-0.262-1.028-0.787-1.333c-0.335-0.186-0.998-0.402-1.987-0.647l-1.845-0.457
		c-1.178-0.288-2.047-0.609-2.606-0.965c-0.998-0.618-1.497-1.473-1.497-2.564c0-1.287,0.47-2.328,1.409-3.123
		s2.202-1.193,3.789-1.193c2.076,0,3.572,0.601,4.49,1.803c0.575,0.762,0.854,1.583,0.837,2.463h-2.158
		c-0.043-0.513-0.229-0.98-0.559-1.401c-0.538-0.598-1.469-0.896-2.794-0.896c-0.884,0-1.553,0.165-2.008,0.493
		c-0.455,0.329-0.682,0.764-0.682,1.303c0,0.59,0.299,1.062,0.896,1.417c0.345,0.211,0.854,0.397,1.526,0.558l1.539,0.368
		c1.673,0.398,2.794,0.783,3.363,1.155c0.889,0.584,1.333,1.502,1.333,2.755c0,1.21-0.465,2.255-1.395,3.136s-2.346,1.32-4.248,1.32
		c-2.048,0-3.498-0.459-4.351-1.377c-0.853-0.918-1.309-2.055-1.369-3.409H214.93z"/>
	<path d="M242.294,159.322h2.526c-0.322,0.872-1.037,2.862-2.146,5.97c-0.83,2.337-1.523,4.242-2.082,5.715
		c-1.319,3.467-2.249,5.582-2.791,6.343c-0.541,0.761-1.471,1.142-2.79,1.142c-0.322,0-0.569-0.013-0.742-0.038
		s-0.387-0.072-0.641-0.14v-2.082c0.397,0.11,0.685,0.178,0.862,0.203s0.333,0.038,0.469,0.038c0.422,0,0.732-0.07,0.931-0.209
		c0.199-0.14,0.366-0.311,0.501-0.513c0.042-0.068,0.194-0.414,0.456-1.039c0.262-0.625,0.452-1.09,0.57-1.394l-5.027-13.997h2.59
		l3.644,11.075L242.294,159.322z"/>
	<path d="M263,160.046c0.96,0.745,1.538,2.027,1.733,3.847h-2.222c-0.135-0.838-0.444-1.534-0.927-2.088s-1.257-0.832-2.323-0.832
		c-1.456,0-2.497,0.71-3.123,2.13c-0.406,0.921-0.609,2.058-0.609,3.411c0,1.361,0.288,2.506,0.863,3.437
		c0.576,0.93,1.481,1.395,2.717,1.395c0.948,0,1.699-0.289,2.253-0.866s0.938-1.368,1.149-2.371h2.222
		c-0.254,1.803-0.889,3.121-1.904,3.955s-2.315,1.25-3.897,1.25c-1.777,0-3.195-0.649-4.253-1.949s-1.587-2.922-1.587-4.869
		c0-2.387,0.58-4.245,1.739-5.573s2.636-1.993,4.431-1.993C260.793,158.929,262.04,159.301,263,160.046z"/>
	<path d="M269.304,159.322v9.026c0,0.694,0.107,1.261,0.322,1.701c0.396,0.812,1.133,1.219,2.213,1.219
		c1.549,0,2.604-0.711,3.165-2.133c0.305-0.762,0.458-1.807,0.458-3.136v-6.678h2.285v13.597h-2.158l0.025-2.006
		c-0.291,0.516-0.652,0.952-1.084,1.308c-0.855,0.711-1.893,1.066-3.114,1.066c-1.902,0-3.198-0.647-3.887-1.942
		c-0.374-0.694-0.561-1.621-0.561-2.78v-9.242H269.304z"/>
	<path d="M289.877,159.697c0.9,0.453,1.585,1.039,2.057,1.758c0.454,0.686,0.757,1.485,0.908,2.399
		c0.135,0.626,0.202,1.625,0.202,2.996h-9.89c0.042,1.383,0.365,2.493,0.97,3.329c0.604,0.836,1.541,1.254,2.809,1.254
		c1.184,0,2.129-0.396,2.834-1.186c0.395-0.459,0.674-0.99,0.839-1.594h2.247c-0.059,0.5-0.256,1.056-0.59,1.669
		s-0.708,1.115-1.119,1.504c-0.689,0.677-1.542,1.134-2.558,1.371c-0.546,0.135-1.164,0.203-1.853,0.203
		c-1.682,0-3.107-0.616-4.277-1.847c-1.169-1.231-1.753-2.956-1.753-5.173c0-2.184,0.589-3.957,1.767-5.319
		c1.177-1.363,2.717-2.044,4.618-2.044C288.047,159.018,288.977,159.244,289.877,159.697z M290.695,165.035
		c-0.092-0.99-0.307-1.782-0.642-2.374c-0.621-1.1-1.658-1.65-3.109-1.65c-1.041,0-1.914,0.379-2.619,1.136
		c-0.705,0.757-1.078,1.72-1.12,2.888H290.695z"/>
	<path d="M295.938,159.322h2.171v1.93c0.643-0.795,1.325-1.367,2.044-1.714s1.519-0.521,2.399-0.521c1.93,0,3.233,0.673,3.91,2.019
		c0.373,0.736,0.559,1.79,0.559,3.161v8.722h-2.323v-8.569c0-0.83-0.123-1.498-0.368-2.006c-0.406-0.846-1.143-1.27-2.209-1.27
		c-0.542,0-0.986,0.055-1.333,0.165c-0.626,0.186-1.176,0.559-1.65,1.117c-0.381,0.449-0.628,0.912-0.743,1.39
		s-0.171,1.162-0.171,2.05v7.122h-2.285V159.322z"/>
	<path d="M310.855,155.526h2.311v3.796h2.171v1.866h-2.171v8.874c0,0.474,0.161,0.792,0.482,0.952
		c0.178,0.093,0.474,0.14,0.889,0.14c0.11,0,0.229-0.003,0.355-0.008s0.275-0.02,0.444-0.042v1.815
		c-0.262,0.076-0.535,0.131-0.819,0.165s-0.59,0.051-0.92,0.051c-1.066,0-1.79-0.273-2.171-0.819s-0.571-1.255-0.571-2.126v-9.001
		h-1.841v-1.866h1.841V155.526z"/>
	<path d="M324.909,164.69c0.525-0.067,0.876-0.287,1.054-0.659c0.102-0.204,0.152-0.497,0.152-0.879c0-0.781-0.277-1.349-0.83-1.701
		s-1.345-0.529-2.375-0.529c-1.191,0-2.036,0.323-2.534,0.97c-0.279,0.357-0.46,0.889-0.545,1.595h-2.133
		c0.042-1.681,0.585-2.85,1.629-3.507s2.255-0.987,3.633-0.987c1.598,0,2.896,0.305,3.893,0.914
		c0.989,0.609,1.483,1.557,1.483,2.844v7.833c0,0.237,0.049,0.428,0.146,0.571s0.303,0.215,0.616,0.215
		c0.102,0,0.216-0.006,0.343-0.019s0.262-0.032,0.406-0.057v1.688c-0.355,0.102-0.626,0.165-0.812,0.19s-0.44,0.038-0.762,0.038
		c-0.787,0-1.358-0.279-1.714-0.838c-0.186-0.296-0.317-0.715-0.394-1.256c-0.465,0.609-1.134,1.138-2.006,1.586
		c-0.872,0.449-1.833,0.673-2.882,0.673c-1.261,0-2.292-0.383-3.091-1.147c-0.8-0.765-1.2-1.722-1.2-2.872
		c0-1.259,0.394-2.236,1.181-2.929c0.787-0.693,1.82-1.12,3.098-1.281L324.909,164.69z M320.098,170.864
		c0.482,0.38,1.054,0.57,1.714,0.57c0.804,0,1.583-0.186,2.336-0.558c1.27-0.617,1.904-1.626,1.904-3.029v-1.838
		c-0.279,0.178-0.638,0.327-1.077,0.446c-0.439,0.119-0.87,0.204-1.292,0.254l-1.381,0.177c-0.828,0.11-1.45,0.283-1.867,0.52
		c-0.707,0.397-1.06,1.03-1.06,1.9C319.374,169.964,319.615,170.483,320.098,170.864z"/>
	<path d="M348.288,160.046c0.96,0.745,1.538,2.027,1.733,3.847h-2.222c-0.135-0.838-0.444-1.534-0.927-2.088
		s-1.257-0.832-2.323-0.832c-1.456,0-2.497,0.71-3.123,2.13c-0.406,0.921-0.609,2.058-0.609,3.411c0,1.361,0.288,2.506,0.863,3.437
		c0.576,0.93,1.481,1.395,2.717,1.395c0.948,0,1.699-0.289,2.253-0.866s0.938-1.368,1.149-2.371h2.222
		c-0.254,1.803-0.889,3.121-1.904,3.955s-2.315,1.25-3.897,1.25c-1.777,0-3.195-0.649-4.253-1.949s-1.587-2.922-1.587-4.869
		c0-2.387,0.58-4.245,1.739-5.573s2.636-1.993,4.431-1.993C346.081,158.929,347.327,159.301,348.288,160.046z"/>
	<path d="M362.157,160.679c1.202,1.167,1.803,2.883,1.803,5.149c0,2.19-0.53,4-1.588,5.429c-1.059,1.429-2.702,2.144-4.929,2.144
		c-1.857,0-3.332-0.632-4.425-1.896s-1.639-2.962-1.639-5.093c0-2.283,0.576-4.102,1.727-5.455c1.151-1.353,2.698-2.029,4.639-2.029
		C359.485,158.929,360.956,159.512,362.157,160.679z M360.738,169.715c0.557-1.145,0.835-2.419,0.835-3.823
		c0-1.268-0.201-2.299-0.603-3.094c-0.636-1.251-1.732-1.877-3.289-1.877c-1.381,0-2.385,0.533-3.013,1.598
		c-0.627,1.065-0.941,2.35-0.941,3.855c0,1.445,0.314,2.65,0.941,3.614c0.627,0.963,1.624,1.445,2.988,1.445
		C359.155,171.434,360.182,170.861,360.738,169.715z"/>
	<path d="M366.766,159.322h2.171v1.93c0.643-0.795,1.325-1.367,2.044-1.714s1.519-0.521,2.399-0.521c1.93,0,3.233,0.673,3.91,2.019
		c0.373,0.736,0.559,1.79,0.559,3.161v8.722h-2.323v-8.569c0-0.83-0.123-1.498-0.368-2.006c-0.406-0.846-1.143-1.27-2.209-1.27
		c-0.542,0-0.986,0.055-1.333,0.165c-0.626,0.186-1.176,0.559-1.65,1.117c-0.381,0.449-0.628,0.912-0.743,1.39
		s-0.171,1.162-0.171,2.05v7.122h-2.285V159.322z"/>
	<path d="M82.474,190.896c0.9,0.453,1.585,1.039,2.057,1.758c0.454,0.686,0.757,1.485,0.908,2.399
		c0.135,0.626,0.202,1.625,0.202,2.996h-9.89c0.042,1.383,0.365,2.493,0.97,3.329c0.604,0.836,1.541,1.254,2.809,1.254
		c1.184,0,2.129-0.396,2.834-1.186c0.395-0.459,0.674-0.99,0.839-1.594h2.247c-0.059,0.5-0.256,1.056-0.59,1.669
		s-0.708,1.115-1.119,1.504c-0.689,0.677-1.542,1.134-2.558,1.371c-0.546,0.135-1.164,0.203-1.853,0.203
		c-1.682,0-3.107-0.616-4.277-1.847c-1.169-1.231-1.753-2.956-1.753-5.173c0-2.184,0.589-3.957,1.767-5.319
		c1.177-1.363,2.717-2.044,4.618-2.044C80.644,190.217,81.573,190.444,82.474,190.896z M83.292,196.235
		c-0.092-0.99-0.307-1.782-0.642-2.374c-0.621-1.1-1.658-1.65-3.109-1.65c-1.041,0-1.914,0.379-2.619,1.136
		c-0.705,0.757-1.078,1.72-1.12,2.888H83.292z"/>
	<path d="M87.24,190.522h2.958l3.123,4.786l3.161-4.786l2.78,0.063l-4.583,6.563l4.786,6.97h-2.92l-3.377-5.104l-3.275,5.104h-2.895
		l4.786-6.97L87.24,190.522z"/>
	<path d="M110.517,191.246c0.96,0.745,1.538,2.027,1.733,3.847h-2.222c-0.135-0.838-0.444-1.534-0.927-2.088
		s-1.257-0.832-2.323-0.832c-1.456,0-2.497,0.71-3.123,2.13c-0.406,0.921-0.609,2.058-0.609,3.411c0,1.361,0.288,2.506,0.863,3.437
		c0.576,0.93,1.481,1.395,2.717,1.395c0.948,0,1.699-0.289,2.253-0.866s0.938-1.368,1.149-2.371h2.222
		c-0.254,1.803-0.889,3.121-1.904,3.955s-2.315,1.25-3.897,1.25c-1.777,0-3.195-0.649-4.253-1.949s-1.587-2.922-1.587-4.869
		c0-2.387,0.58-4.245,1.739-5.573s2.636-1.993,4.431-1.993C108.31,190.128,109.557,190.501,110.517,191.246z"/>
	<path d="M122.934,190.896c0.9,0.453,1.585,1.039,2.057,1.758c0.454,0.686,0.757,1.485,0.908,2.399
		c0.135,0.626,0.202,1.625,0.202,2.996h-9.89c0.042,1.383,0.365,2.493,0.97,3.329c0.604,0.836,1.541,1.254,2.809,1.254
		c1.184,0,2.129-0.396,2.834-1.186c0.395-0.459,0.674-0.99,0.839-1.594h2.247c-0.059,0.5-0.256,1.056-0.59,1.669
		s-0.708,1.115-1.119,1.504c-0.689,0.677-1.542,1.134-2.558,1.371c-0.546,0.135-1.164,0.203-1.853,0.203
		c-1.682,0-3.107-0.616-4.277-1.847c-1.169-1.231-1.753-2.956-1.753-5.173c0-2.184,0.589-3.957,1.767-5.319
		c1.177-1.363,2.717-2.044,4.618-2.044C121.104,190.217,122.033,190.444,122.934,190.896z M123.752,196.235
		c-0.092-0.99-0.307-1.782-0.642-2.374c-0.621-1.1-1.658-1.65-3.109-1.65c-1.041,0-1.914,0.379-2.619,1.136
		c-0.705,0.757-1.078,1.72-1.12,2.888H123.752z"/>
	<path d="M129.059,185.469h2.285v18.649h-2.285V185.469z"/>
	<path d="M143.17,190.896c0.9,0.453,1.585,1.039,2.057,1.758c0.454,0.686,0.757,1.485,0.908,2.399
		c0.135,0.626,0.202,1.625,0.202,2.996h-9.89c0.042,1.383,0.365,2.493,0.97,3.329c0.604,0.836,1.541,1.254,2.809,1.254
		c1.184,0,2.129-0.396,2.834-1.186c0.395-0.459,0.674-0.99,0.839-1.594h2.247c-0.059,0.5-0.256,1.056-0.59,1.669
		s-0.708,1.115-1.119,1.504c-0.689,0.677-1.542,1.134-2.558,1.371c-0.546,0.135-1.164,0.203-1.853,0.203
		c-1.682,0-3.107-0.616-4.277-1.847c-1.169-1.231-1.753-2.956-1.753-5.173c0-2.184,0.589-3.957,1.767-5.319
		c1.177-1.363,2.717-2.044,4.618-2.044C141.34,190.217,142.27,190.444,143.17,190.896z M143.988,196.235
		c-0.092-0.99-0.307-1.782-0.642-2.374c-0.621-1.1-1.658-1.65-3.109-1.65c-1.041,0-1.914,0.379-2.619,1.136
		c-0.705,0.757-1.078,1.72-1.12,2.888H143.988z"/>
	<path d="M149.231,190.522h2.171v1.93c0.643-0.795,1.325-1.367,2.044-1.714s1.519-0.521,2.399-0.521c1.93,0,3.233,0.673,3.91,2.019
		c0.373,0.736,0.559,1.79,0.559,3.161v8.722h-2.323v-8.569c0-0.83-0.123-1.498-0.368-2.006c-0.406-0.846-1.143-1.27-2.209-1.27
		c-0.542,0-0.986,0.055-1.333,0.165c-0.626,0.186-1.176,0.559-1.65,1.117c-0.381,0.449-0.628,0.912-0.743,1.39
		s-0.171,1.162-0.171,2.05v7.122h-2.285V190.522z"/>
	<path d="M164.148,186.726h2.311v3.796h2.171v1.866h-2.171v8.874c0,0.474,0.161,0.792,0.482,0.952
		c0.178,0.093,0.474,0.14,0.889,0.14c0.11,0,0.229-0.003,0.355-0.008s0.275-0.02,0.444-0.042v1.815
		c-0.262,0.076-0.535,0.131-0.819,0.165s-0.59,0.051-0.92,0.051c-1.066,0-1.79-0.273-2.171-0.819s-0.571-1.255-0.571-2.126v-9.001
		h-1.841v-1.866h1.841V186.726z"/>
	<path d="M179.313,190.896c0.9,0.453,1.585,1.039,2.057,1.758c0.454,0.686,0.757,1.485,0.908,2.399
		c0.135,0.626,0.202,1.625,0.202,2.996h-9.89c0.042,1.383,0.365,2.493,0.97,3.329c0.604,0.836,1.541,1.254,2.809,1.254
		c1.184,0,2.129-0.396,2.834-1.186c0.395-0.459,0.674-0.99,0.839-1.594h2.247c-0.059,0.5-0.256,1.056-0.59,1.669
		s-0.708,1.115-1.119,1.504c-0.689,0.677-1.542,1.134-2.558,1.371c-0.546,0.135-1.164,0.203-1.853,0.203
		c-1.682,0-3.107-0.616-4.277-1.847c-1.169-1.231-1.753-2.956-1.753-5.173c0-2.184,0.589-3.957,1.767-5.319
		c1.177-1.363,2.717-2.044,4.618-2.044C177.484,190.217,178.413,190.444,179.313,190.896z M180.132,196.235
		c-0.092-0.99-0.307-1.782-0.642-2.374c-0.621-1.1-1.658-1.65-3.109-1.65c-1.041,0-1.914,0.379-2.619,1.136
		c-0.705,0.757-1.078,1.72-1.12,2.888H180.132z"/>
	<path d="M186.733,199.853c0.069,0.762,0.263,1.346,0.583,1.752c0.587,0.736,1.607,1.104,3.058,1.104
		c0.864,0,1.624-0.184,2.28-0.552s0.985-0.938,0.985-1.708c0-0.584-0.262-1.028-0.787-1.333c-0.335-0.186-0.998-0.402-1.987-0.647
		l-1.845-0.457c-1.178-0.288-2.047-0.609-2.606-0.965c-0.998-0.618-1.497-1.473-1.497-2.564c0-1.287,0.47-2.328,1.409-3.123
		s2.202-1.193,3.789-1.193c2.076,0,3.572,0.601,4.49,1.803c0.575,0.762,0.854,1.583,0.837,2.463h-2.158
		c-0.043-0.513-0.229-0.98-0.559-1.401c-0.538-0.598-1.469-0.896-2.794-0.896c-0.884,0-1.553,0.165-2.008,0.493
		c-0.455,0.329-0.682,0.764-0.682,1.303c0,0.59,0.299,1.062,0.896,1.417c0.345,0.211,0.854,0.397,1.526,0.558l1.539,0.368
		c1.673,0.398,2.794,0.783,3.363,1.155c0.889,0.584,1.333,1.502,1.333,2.755c0,1.21-0.465,2.255-1.395,3.136s-2.346,1.32-4.248,1.32
		c-2.048,0-3.498-0.459-4.351-1.377c-0.853-0.918-1.309-2.055-1.369-3.409H186.733z"/>
	<path d="M212.886,195.89c0.525-0.067,0.876-0.287,1.054-0.659c0.102-0.204,0.152-0.497,0.152-0.879c0-0.781-0.277-1.349-0.83-1.701
		s-1.345-0.529-2.375-0.529c-1.191,0-2.036,0.323-2.534,0.97c-0.279,0.357-0.46,0.889-0.545,1.595h-2.133
		c0.042-1.681,0.585-2.85,1.629-3.507s2.255-0.987,3.633-0.987c1.598,0,2.896,0.305,3.893,0.914
		c0.989,0.609,1.483,1.557,1.483,2.844v7.833c0,0.237,0.049,0.428,0.146,0.571s0.303,0.215,0.616,0.215
		c0.102,0,0.216-0.006,0.343-0.019s0.262-0.032,0.406-0.057v1.688c-0.355,0.102-0.626,0.165-0.812,0.19s-0.44,0.038-0.762,0.038
		c-0.787,0-1.358-0.279-1.714-0.838c-0.186-0.296-0.317-0.715-0.394-1.256c-0.465,0.609-1.134,1.138-2.006,1.586
		c-0.872,0.449-1.833,0.673-2.882,0.673c-1.261,0-2.292-0.383-3.091-1.147c-0.8-0.765-1.2-1.722-1.2-2.872
		c0-1.259,0.394-2.236,1.181-2.929c0.787-0.693,1.82-1.12,3.098-1.281L212.886,195.89z M208.074,202.063
		c0.482,0.38,1.054,0.57,1.714,0.57c0.804,0,1.583-0.186,2.336-0.558c1.27-0.617,1.904-1.626,1.904-3.029v-1.838
		c-0.279,0.178-0.638,0.327-1.077,0.446c-0.439,0.119-0.87,0.204-1.292,0.254l-1.381,0.177c-0.828,0.11-1.45,0.283-1.867,0.52
		c-0.707,0.397-1.06,1.03-1.06,1.9C207.351,201.164,207.592,201.683,208.074,202.063z"/>
	<path d="M220.059,190.522h2.26v1.93c0.542-0.668,1.033-1.155,1.473-1.46c0.753-0.516,1.608-0.774,2.564-0.774
		c1.083,0,1.955,0.267,2.615,0.8c0.373,0.305,0.711,0.753,1.016,1.346c0.508-0.728,1.104-1.268,1.79-1.619s1.456-0.527,2.311-0.527
		c1.828,0,3.072,0.66,3.732,1.98c0.355,0.711,0.533,1.667,0.533,2.869v9.052h-2.374v-9.445c0-0.906-0.227-1.528-0.679-1.866
		s-1.005-0.508-1.657-0.508c-0.897,0-1.669,0.3-2.317,0.901s-0.971,1.604-0.971,3.009v7.909h-2.323v-8.874
		c0-0.922-0.11-1.595-0.33-2.019c-0.347-0.635-0.995-0.952-1.942-0.952c-0.863,0-1.648,0.334-2.355,1.003s-1.06,1.879-1.06,3.631
		v7.211h-2.285V190.522z"/>
	<path d="M250.115,190.896c0.9,0.453,1.585,1.039,2.057,1.758c0.454,0.686,0.757,1.485,0.908,2.399
		c0.135,0.626,0.202,1.625,0.202,2.996h-9.89c0.042,1.383,0.365,2.493,0.97,3.329c0.604,0.836,1.541,1.254,2.809,1.254
		c1.184,0,2.129-0.396,2.834-1.186c0.395-0.459,0.674-0.99,0.839-1.594h2.247c-0.059,0.5-0.256,1.056-0.59,1.669
		s-0.708,1.115-1.119,1.504c-0.689,0.677-1.542,1.134-2.558,1.371c-0.546,0.135-1.164,0.203-1.853,0.203
		c-1.682,0-3.107-0.616-4.277-1.847c-1.169-1.231-1.753-2.956-1.753-5.173c0-2.184,0.589-3.957,1.767-5.319
		c1.177-1.363,2.717-2.044,4.618-2.044C248.286,190.217,249.215,190.444,250.115,190.896z M250.934,196.235
		c-0.092-0.99-0.307-1.782-0.642-2.374c-0.621-1.1-1.658-1.65-3.109-1.65c-1.041,0-1.914,0.379-2.619,1.136
		c-0.705,0.757-1.078,1.72-1.12,2.888H250.934z"/>
	<path d="M256.177,190.522h2.171v1.93c0.643-0.795,1.325-1.367,2.044-1.714s1.519-0.521,2.399-0.521c1.93,0,3.233,0.673,3.91,2.019
		c0.373,0.736,0.559,1.79,0.559,3.161v8.722h-2.323v-8.569c0-0.83-0.123-1.498-0.368-2.006c-0.406-0.846-1.143-1.27-2.209-1.27
		c-0.542,0-0.986,0.055-1.333,0.165c-0.626,0.186-1.176,0.559-1.65,1.117c-0.381,0.449-0.628,0.912-0.743,1.39
		s-0.171,1.162-0.171,2.05v7.122h-2.285V190.522z"/>
	<path d="M270.637,185.469h2.323v2.59h-2.323V185.469z M270.637,190.585h2.323v13.533h-2.323V190.585z"/>
	<path d="M283.883,190.941c0.405,0.254,0.864,0.698,1.378,1.333v-6.868h2.196v18.713h-2.057v-1.892
		c-0.531,0.838-1.16,1.443-1.884,1.815c-0.726,0.373-1.556,0.559-2.492,0.559c-1.509,0-2.816-0.637-3.92-1.911
		s-1.657-2.969-1.657-5.084c0-1.98,0.503-3.696,1.511-5.148c1.007-1.452,2.447-2.177,4.319-2.177
		C282.315,190.281,283.184,190.501,283.883,190.941z M278.782,201.135c0.615,0.982,1.6,1.473,2.956,1.473
		c1.052,0,1.917-0.455,2.596-1.365c0.678-0.91,1.017-2.215,1.017-3.917c0-1.718-0.35-2.99-1.048-3.815
		c-0.699-0.825-1.562-1.238-2.589-1.238c-1.146,0-2.074,0.44-2.785,1.32c-0.712,0.88-1.067,2.175-1.067,3.885
		C277.86,198.935,278.167,200.153,278.782,201.135z"/>
	<path d="M298.16,195.89c0.525-0.067,0.876-0.287,1.054-0.659c0.102-0.204,0.152-0.497,0.152-0.879c0-0.781-0.277-1.349-0.83-1.701
		s-1.345-0.529-2.375-0.529c-1.191,0-2.036,0.323-2.534,0.97c-0.279,0.357-0.46,0.889-0.545,1.595h-2.133
		c0.042-1.681,0.585-2.85,1.629-3.507s2.255-0.987,3.633-0.987c1.598,0,2.896,0.305,3.893,0.914
		c0.989,0.609,1.483,1.557,1.483,2.844v7.833c0,0.237,0.049,0.428,0.146,0.571s0.303,0.215,0.616,0.215
		c0.102,0,0.216-0.006,0.343-0.019s0.262-0.032,0.406-0.057v1.688c-0.355,0.102-0.626,0.165-0.812,0.19s-0.44,0.038-0.762,0.038
		c-0.787,0-1.358-0.279-1.714-0.838c-0.186-0.296-0.317-0.715-0.394-1.256c-0.465,0.609-1.134,1.138-2.006,1.586
		c-0.872,0.449-1.833,0.673-2.882,0.673c-1.261,0-2.292-0.383-3.091-1.147c-0.8-0.765-1.2-1.722-1.2-2.872
		c0-1.259,0.394-2.236,1.181-2.929c0.787-0.693,1.82-1.12,3.098-1.281L298.16,195.89z M293.349,202.063
		c0.482,0.38,1.054,0.57,1.714,0.57c0.804,0,1.583-0.186,2.336-0.558c1.27-0.617,1.904-1.626,1.904-3.029v-1.838
		c-0.279,0.178-0.638,0.327-1.077,0.446c-0.439,0.119-0.87,0.204-1.292,0.254l-1.381,0.177c-0.828,0.11-1.45,0.283-1.867,0.52
		c-0.707,0.397-1.06,1.03-1.06,1.9C292.625,201.164,292.866,201.683,293.349,202.063z"/>
	<path d="M312.803,190.941c0.405,0.254,0.864,0.698,1.378,1.333v-6.868h2.196v18.713h-2.057v-1.892
		c-0.531,0.838-1.16,1.443-1.884,1.815c-0.726,0.373-1.556,0.559-2.492,0.559c-1.509,0-2.816-0.637-3.92-1.911
		s-1.657-2.969-1.657-5.084c0-1.98,0.503-3.696,1.511-5.148c1.007-1.452,2.447-2.177,4.319-2.177
		C311.235,190.281,312.104,190.501,312.803,190.941z M307.702,201.135c0.615,0.982,1.6,1.473,2.956,1.473
		c1.052,0,1.917-0.455,2.596-1.365c0.678-0.91,1.017-2.215,1.017-3.917c0-1.718-0.35-2.99-1.048-3.815
		c-0.699-0.825-1.562-1.238-2.589-1.238c-1.146,0-2.074,0.44-2.785,1.32c-0.712,0.88-1.067,2.175-1.067,3.885
		C306.78,198.935,307.087,200.153,307.702,201.135z"/>
	<path d="M328.191,190.896c0.9,0.453,1.585,1.039,2.057,1.758c0.454,0.686,0.757,1.485,0.908,2.399
		c0.135,0.626,0.202,1.625,0.202,2.996h-9.89c0.042,1.383,0.365,2.493,0.97,3.329c0.604,0.836,1.541,1.254,2.809,1.254
		c1.184,0,2.129-0.396,2.834-1.186c0.395-0.459,0.674-0.99,0.839-1.594h2.247c-0.059,0.5-0.256,1.056-0.59,1.669
		s-0.708,1.115-1.119,1.504c-0.689,0.677-1.542,1.134-2.558,1.371c-0.546,0.135-1.164,0.203-1.853,0.203
		c-1.682,0-3.107-0.616-4.277-1.847c-1.169-1.231-1.753-2.956-1.753-5.173c0-2.184,0.589-3.957,1.767-5.319
		c1.177-1.363,2.717-2.044,4.618-2.044C326.362,190.217,327.291,190.444,328.191,190.896z M329.01,196.235
		c-0.092-0.99-0.307-1.782-0.642-2.374c-0.621-1.1-1.658-1.65-3.109-1.65c-1.041,0-1.914,0.379-2.619,1.136
		c-0.705,0.757-1.078,1.72-1.12,2.888H329.01z"/>
	<path d="M335.611,199.853c0.069,0.762,0.263,1.346,0.583,1.752c0.587,0.736,1.607,1.104,3.058,1.104
		c0.864,0,1.624-0.184,2.28-0.552s0.985-0.938,0.985-1.708c0-0.584-0.262-1.028-0.787-1.333c-0.335-0.186-0.998-0.402-1.987-0.647
		l-1.845-0.457c-1.178-0.288-2.047-0.609-2.606-0.965c-0.998-0.618-1.497-1.473-1.497-2.564c0-1.287,0.47-2.328,1.409-3.123
		s2.202-1.193,3.789-1.193c2.076,0,3.572,0.601,4.49,1.803c0.575,0.762,0.854,1.583,0.837,2.463h-2.158
		c-0.043-0.513-0.229-0.98-0.559-1.401c-0.538-0.598-1.469-0.896-2.794-0.896c-0.884,0-1.553,0.165-2.008,0.493
		c-0.455,0.329-0.682,0.764-0.682,1.303c0,0.59,0.299,1.062,0.896,1.417c0.345,0.211,0.854,0.397,1.526,0.558l1.539,0.368
		c1.673,0.398,2.794,0.783,3.363,1.155c0.889,0.584,1.333,1.502,1.333,2.755c0,1.21-0.465,2.255-1.395,3.136s-2.346,1.32-4.248,1.32
		c-2.048,0-3.498-0.459-4.351-1.377c-0.853-0.918-1.309-2.055-1.369-3.409H335.611z"/>
	<path d="M348.459,190.7h2.653v2.768h-2.653V190.7z M348.459,201.351h2.653v2.768h-2.653V201.351z"/>
	<path d="M114.662,231.231c0.563-1.16,1.661-2.213,3.294-3.161l2.438-1.409c1.092-0.635,1.858-1.177,2.298-1.626
		c0.694-0.704,1.041-1.509,1.041-2.417c0-1.06-0.317-1.902-0.952-2.525c-0.635-0.624-1.481-0.935-2.539-0.935
		c-1.566,0-2.649,0.594-3.25,1.783c-0.322,0.637-0.5,1.519-0.533,2.648h-2.323c0.025-1.583,0.317-2.874,0.876-3.872
		c0.99-1.76,2.738-2.641,5.243-2.641c2.082,0,3.604,0.563,4.564,1.688s1.441,2.378,1.441,3.758c0,1.456-0.512,2.7-1.536,3.732
		c-0.592,0.601-1.655,1.329-3.187,2.184l-1.739,0.965c-0.83,0.457-1.481,0.893-1.955,1.308c-0.846,0.736-1.379,1.553-1.6,2.45h9.928
		v2.158h-12.479C113.775,233.753,114.099,232.391,114.662,231.231z"/>
	<path d="M143.525,227.09c0.525-0.067,0.876-0.287,1.054-0.659c0.102-0.204,0.152-0.497,0.152-0.879c0-0.781-0.277-1.349-0.83-1.701
		s-1.345-0.529-2.375-0.529c-1.191,0-2.036,0.323-2.534,0.97c-0.279,0.357-0.46,0.889-0.545,1.595h-2.133
		c0.042-1.681,0.585-2.85,1.629-3.507s2.255-0.987,3.633-0.987c1.598,0,2.896,0.305,3.893,0.914
		c0.989,0.609,1.483,1.557,1.483,2.844v7.833c0,0.237,0.049,0.428,0.146,0.571s0.303,0.215,0.616,0.215
		c0.102,0,0.216-0.006,0.343-0.019s0.262-0.032,0.406-0.057v1.688c-0.355,0.102-0.626,0.165-0.812,0.19s-0.44,0.038-0.762,0.038
		c-0.787,0-1.358-0.279-1.714-0.838c-0.186-0.296-0.317-0.715-0.394-1.256c-0.465,0.609-1.134,1.138-2.006,1.586
		c-0.872,0.449-1.833,0.673-2.882,0.673c-1.261,0-2.292-0.383-3.091-1.147c-0.8-0.765-1.2-1.722-1.2-2.872
		c0-1.259,0.394-2.236,1.181-2.929c0.787-0.693,1.82-1.12,3.098-1.281L143.525,227.09z M138.713,233.264
		c0.482,0.38,1.054,0.57,1.714,0.57c0.804,0,1.583-0.186,2.336-0.558c1.27-0.617,1.904-1.626,1.904-3.029v-1.838
		c-0.279,0.178-0.638,0.327-1.077,0.446c-0.439,0.119-0.87,0.204-1.292,0.254l-1.381,0.177c-0.828,0.11-1.45,0.283-1.867,0.52
		c-0.707,0.397-1.06,1.03-1.06,1.9C137.99,232.364,138.231,232.883,138.713,233.264z"/>
	<path d="M150.761,216.669h2.285v18.649h-2.285V216.669z"/>
	<path d="M156.284,216.606h2.222v6.767c0.501-0.652,1.1-1.149,1.797-1.492s1.453-0.514,2.269-0.514c1.699,0,3.078,0.582,4.136,1.746
		c1.058,1.164,1.587,2.88,1.587,5.148c0,2.15-0.522,3.936-1.568,5.357c-1.045,1.422-2.494,2.133-4.346,2.133
		c-1.037,0-1.912-0.25-2.625-0.749c-0.425-0.296-0.879-0.77-1.364-1.422v1.739h-2.107V216.606z M165.021,232.259
		c0.616-0.982,0.924-2.277,0.924-3.885c0-1.43-0.308-2.615-0.924-3.555c-0.615-0.939-1.522-1.409-2.719-1.409
		c-1.044,0-1.959,0.385-2.745,1.155s-1.178,2.04-1.178,3.809c0,1.278,0.161,2.315,0.484,3.11c0.603,1.498,1.728,2.247,3.375,2.247
		C163.478,233.732,164.406,233.241,165.021,232.259z"/>
	<path d="M179.333,222.097c0.9,0.453,1.585,1.039,2.057,1.758c0.454,0.686,0.757,1.485,0.908,2.399
		c0.135,0.626,0.202,1.625,0.202,2.996h-9.89c0.042,1.383,0.365,2.493,0.97,3.329c0.604,0.836,1.541,1.254,2.809,1.254
		c1.184,0,2.129-0.396,2.834-1.186c0.395-0.459,0.674-0.99,0.839-1.594h2.247c-0.059,0.5-0.256,1.056-0.59,1.669
		s-0.708,1.115-1.119,1.504c-0.689,0.677-1.542,1.134-2.558,1.371c-0.546,0.135-1.164,0.203-1.853,0.203
		c-1.682,0-3.107-0.616-4.277-1.847c-1.169-1.231-1.753-2.956-1.753-5.173c0-2.184,0.589-3.957,1.767-5.319
		c1.177-1.363,2.717-2.044,4.618-2.044C177.503,221.417,178.432,221.644,179.333,222.097z M180.151,227.435
		c-0.092-0.99-0.307-1.782-0.642-2.374c-0.621-1.1-1.658-1.65-3.109-1.65c-1.041,0-1.914,0.379-2.619,1.136
		c-0.705,0.757-1.078,1.72-1.12,2.888H180.151z"/>
	<path d="M185.458,221.722h2.171v2.349c0.178-0.457,0.614-1.014,1.308-1.669s1.494-0.984,2.399-0.984
		c0.042,0,0.114,0.004,0.216,0.013s0.275,0.025,0.521,0.051v2.412c-0.135-0.025-0.26-0.042-0.375-0.051s-0.239-0.013-0.375-0.013
		c-1.151,0-2.036,0.37-2.653,1.111s-0.927,1.593-0.927,2.558v7.82h-2.285V221.722z"/>
	<path d="M203.034,222.446c0.96,0.745,1.538,2.027,1.733,3.847h-2.222c-0.135-0.838-0.444-1.534-0.927-2.088
		s-1.257-0.832-2.323-0.832c-1.456,0-2.497,0.71-3.123,2.13c-0.406,0.921-0.609,2.058-0.609,3.411c0,1.361,0.288,2.506,0.863,3.437
		c0.576,0.93,1.481,1.395,2.717,1.395c0.948,0,1.699-0.289,2.253-0.866s0.938-1.368,1.149-2.371h2.222
		c-0.254,1.803-0.889,3.121-1.904,3.955s-2.315,1.25-3.897,1.25c-1.777,0-3.195-0.649-4.253-1.949s-1.587-2.922-1.587-4.869
		c0-2.387,0.58-4.245,1.739-5.573s2.636-1.993,4.431-1.993C200.827,221.329,202.074,221.701,203.034,222.446z"/>
	<path d="M214.339,227.09c0.525-0.067,0.876-0.287,1.054-0.659c0.102-0.204,0.152-0.497,0.152-0.879c0-0.781-0.277-1.349-0.83-1.701
		s-1.345-0.529-2.375-0.529c-1.191,0-2.036,0.323-2.534,0.97c-0.279,0.357-0.46,0.889-0.545,1.595h-2.133
		c0.042-1.681,0.585-2.85,1.629-3.507s2.255-0.987,3.633-0.987c1.598,0,2.896,0.305,3.893,0.914
		c0.989,0.609,1.483,1.557,1.483,2.844v7.833c0,0.237,0.049,0.428,0.146,0.571s0.303,0.215,0.616,0.215
		c0.102,0,0.216-0.006,0.343-0.019s0.262-0.032,0.406-0.057v1.688c-0.355,0.102-0.626,0.165-0.812,0.19s-0.44,0.038-0.762,0.038
		c-0.787,0-1.358-0.279-1.714-0.838c-0.186-0.296-0.317-0.715-0.394-1.256c-0.465,0.609-1.134,1.138-2.006,1.586
		c-0.872,0.449-1.833,0.673-2.882,0.673c-1.261,0-2.292-0.383-3.091-1.147c-0.8-0.765-1.2-1.722-1.2-2.872
		c0-1.259,0.394-2.236,1.181-2.929c0.787-0.693,1.82-1.12,3.098-1.281L214.339,227.09z M209.528,233.264
		c0.482,0.38,1.054,0.57,1.714,0.57c0.804,0,1.583-0.186,2.336-0.558c1.27-0.617,1.904-1.626,1.904-3.029v-1.838
		c-0.279,0.178-0.638,0.327-1.077,0.446c-0.439,0.119-0.87,0.204-1.292,0.254l-1.381,0.177c-0.828,0.11-1.45,0.283-1.867,0.52
		c-0.707,0.397-1.06,1.03-1.06,1.9C208.804,232.364,209.045,232.883,209.528,233.264z"/>
	<path d="M222.871,231.053c0.069,0.762,0.263,1.346,0.583,1.752c0.587,0.736,1.607,1.104,3.058,1.104
		c0.864,0,1.624-0.184,2.28-0.552s0.985-0.938,0.985-1.708c0-0.584-0.262-1.028-0.787-1.333c-0.335-0.186-0.998-0.402-1.987-0.647
		l-1.845-0.457c-1.178-0.288-2.047-0.609-2.606-0.965c-0.998-0.618-1.497-1.473-1.497-2.564c0-1.287,0.47-2.328,1.409-3.123
		s2.202-1.193,3.789-1.193c2.076,0,3.572,0.601,4.49,1.803c0.575,0.762,0.854,1.583,0.837,2.463h-2.158
		c-0.043-0.513-0.229-0.98-0.559-1.401c-0.538-0.598-1.469-0.896-2.794-0.896c-0.884,0-1.553,0.165-2.008,0.493
		c-0.455,0.329-0.682,0.764-0.682,1.303c0,0.59,0.299,1.062,0.896,1.417c0.345,0.211,0.854,0.397,1.526,0.558l1.539,0.368
		c1.673,0.398,2.794,0.783,3.363,1.155c0.889,0.584,1.333,1.502,1.333,2.755c0,1.21-0.465,2.255-1.395,3.136s-2.346,1.32-4.248,1.32
		c-2.048,0-3.498-0.459-4.351-1.377c-0.853-0.918-1.309-2.055-1.369-3.409H222.871z"/>
	<path d="M234.995,237.985c0.584-0.102,0.995-0.515,1.231-1.237c0.127-0.383,0.19-0.753,0.19-1.11c0-0.06-0.002-0.113-0.006-0.159
		c-0.004-0.047-0.015-0.1-0.032-0.16h-1.384v-2.768h2.717v2.564c0,1.007-0.203,1.892-0.609,2.653s-1.109,1.231-2.107,1.409V237.985z
		"/>
	<path d="M256.247,227.09c0.525-0.067,0.876-0.287,1.054-0.659c0.102-0.204,0.152-0.497,0.152-0.879c0-0.781-0.277-1.349-0.83-1.701
		s-1.345-0.529-2.375-0.529c-1.191,0-2.036,0.323-2.534,0.97c-0.279,0.357-0.46,0.889-0.545,1.595h-2.133
		c0.042-1.681,0.585-2.85,1.629-3.507s2.255-0.987,3.633-0.987c1.598,0,2.896,0.305,3.893,0.914
		c0.989,0.609,1.483,1.557,1.483,2.844v7.833c0,0.237,0.049,0.428,0.146,0.571s0.303,0.215,0.616,0.215
		c0.102,0,0.216-0.006,0.343-0.019s0.262-0.032,0.406-0.057v1.688c-0.355,0.102-0.626,0.165-0.812,0.19s-0.44,0.038-0.762,0.038
		c-0.787,0-1.358-0.279-1.714-0.838c-0.186-0.296-0.317-0.715-0.394-1.256c-0.465,0.609-1.134,1.138-2.006,1.586
		c-0.872,0.449-1.833,0.673-2.882,0.673c-1.261,0-2.292-0.383-3.091-1.147c-0.8-0.765-1.2-1.722-1.2-2.872
		c0-1.259,0.394-2.236,1.181-2.929c0.787-0.693,1.82-1.12,3.098-1.281L256.247,227.09z M251.435,233.264
		c0.482,0.38,1.054,0.57,1.714,0.57c0.804,0,1.583-0.186,2.336-0.558c1.27-0.617,1.904-1.626,1.904-3.029v-1.838
		c-0.279,0.178-0.638,0.327-1.077,0.446c-0.439,0.119-0.87,0.204-1.292,0.254l-1.381,0.177c-0.828,0.11-1.45,0.283-1.867,0.52
		c-0.707,0.397-1.06,1.03-1.06,1.9C250.711,232.364,250.953,232.883,251.435,233.264z M257.211,216.25l-3.39,3.669h-1.752
		l2.323-3.669H257.211z"/>
	<path d="M263.483,221.722h2.171v2.349c0.178-0.457,0.614-1.014,1.308-1.669s1.494-0.984,2.399-0.984
		c0.042,0,0.114,0.004,0.216,0.013s0.275,0.025,0.521,0.051v2.412c-0.135-0.025-0.26-0.042-0.375-0.051s-0.239-0.013-0.375-0.013
		c-1.151,0-2.036,0.37-2.653,1.111s-0.927,1.593-0.927,2.558v7.82h-2.285V221.722z"/>
	<path d="M280.476,222.097c0.9,0.453,1.585,1.039,2.057,1.758c0.454,0.686,0.757,1.485,0.908,2.399
		c0.135,0.626,0.202,1.625,0.202,2.996h-9.89c0.042,1.383,0.365,2.493,0.97,3.329c0.604,0.836,1.541,1.254,2.809,1.254
		c1.184,0,2.129-0.396,2.834-1.186c0.395-0.459,0.674-0.99,0.839-1.594h2.247c-0.059,0.5-0.256,1.056-0.59,1.669
		s-0.708,1.115-1.119,1.504c-0.689,0.677-1.542,1.134-2.558,1.371c-0.546,0.135-1.164,0.203-1.853,0.203
		c-1.682,0-3.107-0.616-4.277-1.847c-1.169-1.231-1.753-2.956-1.753-5.173c0-2.184,0.589-3.957,1.767-5.319
		c1.177-1.363,2.717-2.044,4.618-2.044C278.646,221.417,279.576,221.644,280.476,222.097z M281.294,227.435
		c-0.092-0.99-0.307-1.782-0.642-2.374c-0.621-1.1-1.658-1.65-3.109-1.65c-1.041,0-1.914,0.379-2.619,1.136
		c-0.705,0.757-1.078,1.72-1.12,2.888H281.294z"/>
	<path d="M293.825,227.09c0.525-0.067,0.876-0.287,1.054-0.659c0.102-0.204,0.152-0.497,0.152-0.879c0-0.781-0.277-1.349-0.83-1.701
		s-1.345-0.529-2.375-0.529c-1.191,0-2.036,0.323-2.534,0.97c-0.279,0.357-0.46,0.889-0.545,1.595h-2.133
		c0.042-1.681,0.585-2.85,1.629-3.507s2.255-0.987,3.633-0.987c1.598,0,2.896,0.305,3.893,0.914
		c0.989,0.609,1.483,1.557,1.483,2.844v7.833c0,0.237,0.049,0.428,0.146,0.571s0.303,0.215,0.616,0.215
		c0.102,0,0.216-0.006,0.343-0.019s0.262-0.032,0.406-0.057v1.688c-0.355,0.102-0.626,0.165-0.812,0.19s-0.44,0.038-0.762,0.038
		c-0.787,0-1.358-0.279-1.714-0.838c-0.186-0.296-0.317-0.715-0.394-1.256c-0.465,0.609-1.134,1.138-2.006,1.586
		c-0.872,0.449-1.833,0.673-2.882,0.673c-1.261,0-2.292-0.383-3.091-1.147c-0.8-0.765-1.2-1.722-1.2-2.872
		c0-1.259,0.394-2.236,1.181-2.929c0.787-0.693,1.82-1.12,3.098-1.281L293.825,227.09z M289.013,233.264
		c0.482,0.38,1.054,0.57,1.714,0.57c0.804,0,1.583-0.186,2.336-0.558c1.27-0.617,1.904-1.626,1.904-3.029v-1.838
		c-0.279,0.178-0.638,0.327-1.077,0.446c-0.439,0.119-0.87,0.204-1.292,0.254l-1.381,0.177c-0.828,0.11-1.45,0.283-1.867,0.52
		c-0.707,0.397-1.06,1.03-1.06,1.9C288.29,232.364,288.531,232.883,289.013,233.264z"/>
	<path d="M302.356,231.053c0.069,0.762,0.263,1.346,0.583,1.752c0.587,0.736,1.607,1.104,3.058,1.104
		c0.864,0,1.624-0.184,2.28-0.552s0.985-0.938,0.985-1.708c0-0.584-0.262-1.028-0.787-1.333c-0.335-0.186-0.998-0.402-1.987-0.647
		l-1.845-0.457c-1.178-0.288-2.047-0.609-2.606-0.965c-0.998-0.618-1.497-1.473-1.497-2.564c0-1.287,0.47-2.328,1.409-3.123
		s2.202-1.193,3.789-1.193c2.076,0,3.572,0.601,4.49,1.803c0.575,0.762,0.854,1.583,0.837,2.463h-2.158
		c-0.043-0.513-0.229-0.98-0.559-1.401c-0.538-0.598-1.469-0.896-2.794-0.896c-0.884,0-1.553,0.165-2.008,0.493
		c-0.455,0.329-0.682,0.764-0.682,1.303c0,0.59,0.299,1.062,0.896,1.417c0.345,0.211,0.854,0.397,1.526,0.558l1.539,0.368
		c1.673,0.398,2.794,0.783,3.363,1.155c0.889,0.584,1.333,1.502,1.333,2.755c0,1.21-0.465,2.255-1.395,3.136s-2.346,1.32-4.248,1.32
		c-2.048,0-3.498-0.459-4.351-1.377c-0.853-0.918-1.309-2.055-1.369-3.409H302.356z"/>
	<path d="M97.472,253.341c0.405,0.254,0.864,0.698,1.378,1.333v-6.868h2.196v18.713H98.99v-1.892
		c-0.531,0.838-1.16,1.443-1.884,1.815c-0.726,0.373-1.556,0.559-2.492,0.559c-1.509,0-2.816-0.637-3.92-1.911
		s-1.657-2.969-1.657-5.084c0-1.98,0.503-3.696,1.511-5.148c1.007-1.452,2.447-2.177,4.319-2.177
		C95.904,252.681,96.772,252.901,97.472,253.341z M92.371,263.535c0.615,0.982,1.6,1.473,2.956,1.473
		c1.052,0,1.917-0.455,2.596-1.365c0.678-0.91,1.017-2.215,1.017-3.917c0-1.718-0.35-2.99-1.048-3.815
		c-0.699-0.825-1.562-1.238-2.589-1.238c-1.146,0-2.074,0.44-2.785,1.32c-0.712,0.88-1.067,2.175-1.067,3.885
		C91.449,261.334,91.756,262.553,92.371,263.535z"/>
	<path d="M112.86,253.296c0.9,0.453,1.585,1.039,2.057,1.758c0.454,0.686,0.757,1.485,0.908,2.399
		c0.135,0.626,0.202,1.625,0.202,2.996h-9.89c0.042,1.383,0.365,2.493,0.97,3.329c0.604,0.836,1.541,1.254,2.809,1.254
		c1.184,0,2.129-0.396,2.834-1.186c0.395-0.459,0.674-0.99,0.839-1.594h2.247c-0.059,0.5-0.256,1.056-0.59,1.669
		s-0.708,1.115-1.119,1.504c-0.689,0.677-1.542,1.134-2.558,1.371c-0.546,0.135-1.164,0.203-1.853,0.203
		c-1.682,0-3.107-0.616-4.277-1.847c-1.169-1.231-1.753-2.956-1.753-5.173c0-2.184,0.589-3.957,1.767-5.319
		c1.177-1.363,2.717-2.044,4.618-2.044C111.03,252.617,111.959,252.844,112.86,253.296z M113.678,258.635
		c-0.092-0.99-0.307-1.782-0.642-2.374c-0.621-1.1-1.658-1.65-3.109-1.65c-1.041,0-1.914,0.379-2.619,1.136
		c-0.705,0.757-1.078,1.72-1.12,2.888H113.678z"/>
	<path d="M126.208,252.922h2.171v2.349c0.178-0.457,0.614-1.014,1.308-1.669s1.494-0.984,2.399-0.984
		c0.042,0,0.114,0.004,0.216,0.013s0.275,0.025,0.521,0.051v2.412c-0.135-0.025-0.26-0.042-0.375-0.051s-0.239-0.013-0.375-0.013
		c-1.151,0-2.036,0.37-2.653,1.111s-0.927,1.593-0.927,2.558v7.82h-2.285V252.922z"/>
	<path d="M143.202,253.296c0.9,0.453,1.585,1.039,2.057,1.758c0.454,0.686,0.757,1.485,0.908,2.399
		c0.135,0.626,0.202,1.625,0.202,2.996h-9.89c0.042,1.383,0.365,2.493,0.97,3.329c0.604,0.836,1.541,1.254,2.809,1.254
		c1.184,0,2.129-0.396,2.834-1.186c0.395-0.459,0.674-0.99,0.839-1.594h2.247c-0.059,0.5-0.256,1.056-0.59,1.669
		s-0.708,1.115-1.119,1.504c-0.689,0.677-1.542,1.134-2.558,1.371c-0.546,0.135-1.164,0.203-1.853,0.203
		c-1.682,0-3.107-0.616-4.277-1.847c-1.169-1.231-1.753-2.956-1.753-5.173c0-2.184,0.589-3.957,1.767-5.319
		c1.177-1.363,2.717-2.044,4.618-2.044C141.372,252.617,142.301,252.844,143.202,253.296z M144.02,258.635
		c-0.092-0.99-0.307-1.782-0.642-2.374c-0.621-1.1-1.658-1.65-3.109-1.65c-1.041,0-1.914,0.379-2.619,1.136
		c-0.705,0.757-1.078,1.72-1.12,2.888H144.02z"/>
	<path d="M158.245,253.646c0.96,0.745,1.538,2.027,1.733,3.847h-2.222c-0.135-0.838-0.444-1.534-0.927-2.088
		s-1.257-0.832-2.323-0.832c-1.456,0-2.497,0.71-3.123,2.13c-0.406,0.921-0.609,2.058-0.609,3.411c0,1.361,0.288,2.506,0.863,3.437
		c0.576,0.93,1.481,1.395,2.717,1.395c0.948,0,1.699-0.289,2.253-0.866s0.938-1.368,1.149-2.371h2.222
		c-0.254,1.803-0.889,3.121-1.904,3.955s-2.315,1.25-3.897,1.25c-1.777,0-3.195-0.649-4.253-1.949s-1.587-2.922-1.587-4.869
		c0-2.387,0.58-4.245,1.739-5.573s2.636-1.993,4.431-1.993C156.038,252.528,157.285,252.901,158.245,253.646z"/>
	<path d="M162.327,252.922h2.171v2.349c0.178-0.457,0.614-1.014,1.308-1.669s1.494-0.984,2.399-0.984
		c0.042,0,0.114,0.004,0.216,0.013s0.275,0.025,0.521,0.051v2.412c-0.135-0.025-0.26-0.042-0.375-0.051s-0.239-0.013-0.375-0.013
		c-1.151,0-2.036,0.37-2.653,1.111s-0.927,1.593-0.927,2.558v7.82h-2.285V252.922z"/>
	<path d="M179.32,253.296c0.9,0.453,1.585,1.039,2.057,1.758c0.454,0.686,0.757,1.485,0.908,2.399
		c0.135,0.626,0.202,1.625,0.202,2.996h-9.89c0.042,1.383,0.365,2.493,0.97,3.329c0.604,0.836,1.541,1.254,2.809,1.254
		c1.184,0,2.129-0.396,2.834-1.186c0.395-0.459,0.674-0.99,0.839-1.594h2.247c-0.059,0.5-0.256,1.056-0.59,1.669
		s-0.708,1.115-1.119,1.504c-0.689,0.677-1.542,1.134-2.558,1.371c-0.546,0.135-1.164,0.203-1.853,0.203
		c-1.682,0-3.107-0.616-4.277-1.847c-1.169-1.231-1.753-2.956-1.753-5.173c0-2.184,0.589-3.957,1.767-5.319
		c1.177-1.363,2.717-2.044,4.618-2.044C177.49,252.617,178.419,252.844,179.32,253.296z M180.138,258.635
		c-0.092-0.99-0.307-1.782-0.642-2.374c-0.621-1.1-1.658-1.65-3.109-1.65c-1.041,0-1.914,0.379-2.619,1.136
		c-0.705,0.757-1.078,1.72-1.12,2.888H180.138z"/>
	<path d="M192.668,258.29c0.525-0.067,0.876-0.287,1.054-0.659c0.102-0.204,0.152-0.497,0.152-0.879c0-0.781-0.277-1.349-0.83-1.701
		s-1.345-0.529-2.375-0.529c-1.191,0-2.036,0.323-2.534,0.97c-0.279,0.357-0.46,0.889-0.545,1.595h-2.133
		c0.042-1.681,0.585-2.85,1.629-3.507s2.255-0.987,3.633-0.987c1.598,0,2.896,0.305,3.893,0.914
		c0.989,0.609,1.483,1.557,1.483,2.844v7.833c0,0.237,0.049,0.428,0.146,0.571s0.303,0.215,0.616,0.215
		c0.102,0,0.216-0.006,0.343-0.019s0.262-0.032,0.406-0.057v1.688c-0.355,0.102-0.626,0.165-0.812,0.19s-0.44,0.038-0.762,0.038
		c-0.787,0-1.358-0.279-1.714-0.838c-0.186-0.296-0.317-0.715-0.394-1.256c-0.465,0.609-1.134,1.138-2.006,1.586
		c-0.872,0.449-1.833,0.673-2.882,0.673c-1.261,0-2.292-0.383-3.091-1.147c-0.8-0.765-1.2-1.722-1.2-2.872
		c0-1.259,0.394-2.236,1.181-2.929c0.787-0.693,1.82-1.12,3.098-1.281L192.668,258.29z M187.857,264.463
		c0.482,0.38,1.054,0.57,1.714,0.57c0.804,0,1.583-0.186,2.336-0.558c1.27-0.617,1.904-1.626,1.904-3.029v-1.838
		c-0.279,0.178-0.638,0.327-1.077,0.446c-0.439,0.119-0.87,0.204-1.292,0.254l-1.381,0.177c-0.828,0.11-1.45,0.283-1.867,0.52
		c-0.707,0.397-1.06,1.03-1.06,1.9C187.133,263.564,187.375,264.083,187.857,264.463z"/>
	<path d="M208.823,253.646c0.96,0.745,1.538,2.027,1.733,3.847h-2.222c-0.135-0.838-0.444-1.534-0.927-2.088
		s-1.257-0.832-2.323-0.832c-1.456,0-2.497,0.71-3.123,2.13c-0.406,0.921-0.609,2.058-0.609,3.411c0,1.361,0.288,2.506,0.863,3.437
		c0.576,0.93,1.481,1.395,2.717,1.395c0.948,0,1.699-0.289,2.253-0.866s0.938-1.368,1.149-2.371h2.222
		c-0.254,1.803-0.889,3.121-1.904,3.955s-2.315,1.25-3.897,1.25c-1.777,0-3.195-0.649-4.253-1.949s-1.587-2.922-1.587-4.869
		c0-2.387,0.58-4.245,1.739-5.573s2.636-1.993,4.431-1.993C206.616,252.528,207.863,252.901,208.823,253.646z"/>
	<path d="M212.841,247.869h2.323v2.59h-2.323V247.869z M212.841,252.985h2.323v13.533h-2.323V252.985z"/>
	<path d="M228.469,254.279c1.202,1.167,1.803,2.883,1.803,5.149c0,2.19-0.53,4-1.588,5.429c-1.059,1.429-2.702,2.144-4.929,2.144
		c-1.857,0-3.332-0.632-4.425-1.896s-1.639-2.962-1.639-5.093c0-2.283,0.576-4.102,1.727-5.455c1.151-1.353,2.698-2.029,4.639-2.029
		C225.797,252.528,227.268,253.112,228.469,254.279z M227.05,263.315c0.557-1.145,0.835-2.419,0.835-3.823
		c0-1.268-0.201-2.299-0.603-3.094c-0.636-1.251-1.732-1.877-3.289-1.877c-1.381,0-2.385,0.533-3.013,1.598
		c-0.627,1.065-0.941,2.35-0.941,3.855c0,1.445,0.314,2.65,0.941,3.614c0.627,0.963,1.624,1.445,2.988,1.445
		C225.467,265.033,226.494,264.46,227.05,263.315z M226.755,247.45l-3.39,3.669h-1.752l2.323-3.669H226.755z"/>
	<path d="M233.078,252.922h2.171v1.93c0.643-0.795,1.325-1.367,2.044-1.714s1.519-0.521,2.399-0.521c1.93,0,3.233,0.673,3.91,2.019
		c0.373,0.736,0.559,1.79,0.559,3.161v8.722h-2.323v-8.569c0-0.83-0.123-1.498-0.368-2.006c-0.406-0.846-1.143-1.27-2.209-1.27
		c-0.542,0-0.986,0.055-1.333,0.165c-0.626,0.186-1.176,0.559-1.65,1.117c-0.381,0.449-0.628,0.912-0.743,1.39
		s-0.171,1.162-0.171,2.05v7.122h-2.285V252.922z"/>
	<path d="M255.828,248.771c0.533-0.779,1.562-1.168,3.085-1.168c0.144,0,0.292,0.004,0.444,0.013s0.326,0.021,0.521,0.038v2.082
		c-0.24-0.017-0.413-0.027-0.52-0.032s-0.208-0.006-0.302-0.006c-0.702,0-1.121,0.18-1.258,0.54
		c-0.137,0.36-0.205,1.276-0.205,2.749h2.285v1.803h-2.285v11.73h-2.26v-11.73h-1.892v-1.803h1.892v-2.133
		C255.366,249.905,255.531,249.21,255.828,248.771z"/>
	<path d="M269.272,258.29c0.525-0.067,0.876-0.287,1.054-0.659c0.102-0.204,0.152-0.497,0.152-0.879c0-0.781-0.277-1.349-0.83-1.701
		s-1.345-0.529-2.375-0.529c-1.191,0-2.036,0.323-2.534,0.97c-0.279,0.357-0.46,0.889-0.545,1.595h-2.133
		c0.042-1.681,0.585-2.85,1.629-3.507s2.255-0.987,3.633-0.987c1.598,0,2.896,0.305,3.893,0.914
		c0.989,0.609,1.483,1.557,1.483,2.844v7.833c0,0.237,0.049,0.428,0.146,0.571s0.303,0.215,0.616,0.215
		c0.102,0,0.216-0.006,0.343-0.019s0.262-0.032,0.406-0.057v1.688c-0.355,0.102-0.626,0.165-0.812,0.19s-0.44,0.038-0.762,0.038
		c-0.787,0-1.358-0.279-1.714-0.838c-0.186-0.296-0.317-0.715-0.394-1.256c-0.465,0.609-1.134,1.138-2.006,1.586
		c-0.872,0.449-1.833,0.673-2.882,0.673c-1.261,0-2.292-0.383-3.091-1.147c-0.8-0.765-1.2-1.722-1.2-2.872
		c0-1.259,0.394-2.236,1.181-2.929c0.787-0.693,1.82-1.12,3.098-1.281L269.272,258.29z M264.46,264.463
		c0.482,0.38,1.054,0.57,1.714,0.57c0.804,0,1.583-0.186,2.336-0.558c1.27-0.617,1.904-1.626,1.904-3.029v-1.838
		c-0.279,0.178-0.638,0.327-1.077,0.446c-0.439,0.119-0.87,0.204-1.292,0.254l-1.381,0.177c-0.828,0.11-1.45,0.283-1.867,0.52
		c-0.707,0.397-1.06,1.03-1.06,1.9C263.737,263.564,263.978,264.083,264.46,264.463z"/>
	<path d="M276.445,252.922h2.26v1.93c0.542-0.668,1.033-1.155,1.473-1.46c0.753-0.516,1.608-0.774,2.564-0.774
		c1.083,0,1.955,0.267,2.615,0.8c0.373,0.305,0.711,0.753,1.016,1.346c0.508-0.728,1.104-1.268,1.79-1.619s1.456-0.527,2.311-0.527
		c1.828,0,3.072,0.66,3.732,1.98c0.355,0.711,0.533,1.667,0.533,2.869v9.052h-2.374v-9.445c0-0.906-0.227-1.528-0.679-1.866
		s-1.005-0.508-1.657-0.508c-0.897,0-1.669,0.3-2.317,0.901s-0.971,1.604-0.971,3.009v7.909h-2.323v-8.874
		c0-0.922-0.11-1.595-0.33-2.019c-0.347-0.635-0.995-0.952-1.942-0.952c-0.863,0-1.648,0.334-2.355,1.003s-1.06,1.879-1.06,3.631
		v7.211h-2.285V252.922z"/>
	<path d="M298.103,247.869h2.323v2.59h-2.323V247.869z M298.103,252.985h2.323v13.533h-2.323V252.985z"/>
	<path d="M303.943,247.869h2.285v18.649h-2.285V247.869z"/>
	<path d="M309.656,247.869h2.323v2.59h-2.323V247.869z M309.656,252.985h2.323v13.533h-2.323V252.985z"/>
	<path d="M322.719,258.29c0.525-0.067,0.876-0.287,1.054-0.659c0.102-0.204,0.152-0.497,0.152-0.879c0-0.781-0.277-1.349-0.83-1.701
		s-1.345-0.529-2.375-0.529c-1.191,0-2.036,0.323-2.534,0.97c-0.279,0.357-0.46,0.889-0.545,1.595h-2.133
		c0.042-1.681,0.585-2.85,1.629-3.507s2.255-0.987,3.633-0.987c1.598,0,2.896,0.305,3.893,0.914
		c0.989,0.609,1.483,1.557,1.483,2.844v7.833c0,0.237,0.049,0.428,0.146,0.571s0.303,0.215,0.616,0.215
		c0.102,0,0.216-0.006,0.343-0.019s0.262-0.032,0.406-0.057v1.688c-0.355,0.102-0.626,0.165-0.812,0.19s-0.44,0.038-0.762,0.038
		c-0.787,0-1.358-0.279-1.714-0.838c-0.186-0.296-0.317-0.715-0.394-1.256c-0.465,0.609-1.134,1.138-2.006,1.586
		c-0.872,0.449-1.833,0.673-2.882,0.673c-1.261,0-2.292-0.383-3.091-1.147c-0.8-0.765-1.2-1.722-1.2-2.872
		c0-1.259,0.394-2.236,1.181-2.929c0.787-0.693,1.82-1.12,3.098-1.281L322.719,258.29z M317.908,264.463
		c0.482,0.38,1.054,0.57,1.714,0.57c0.804,0,1.583-0.186,2.336-0.558c1.27-0.617,1.904-1.626,1.904-3.029v-1.838
		c-0.279,0.178-0.638,0.327-1.077,0.446c-0.439,0.119-0.87,0.204-1.292,0.254l-1.381,0.177c-0.828,0.11-1.45,0.283-1.867,0.52
		c-0.707,0.397-1.06,1.03-1.06,1.9C317.184,263.564,317.425,264.083,317.908,264.463z"/>
	<path d="M329.956,252.922h2.171v2.349c0.178-0.457,0.614-1.014,1.308-1.669s1.494-0.984,2.399-0.984
		c0.042,0,0.114,0.004,0.216,0.013s0.275,0.025,0.521,0.051v2.412c-0.135-0.025-0.26-0.042-0.375-0.051s-0.239-0.013-0.375-0.013
		c-1.151,0-2.036,0.37-2.653,1.111s-0.927,1.593-0.927,2.558v7.82h-2.285V252.922z"/>
	<path d="M97.028,284.122h2.526c-0.322,0.872-1.037,2.862-2.146,5.97c-0.83,2.337-1.523,4.242-2.082,5.715
		c-1.319,3.467-2.249,5.582-2.791,6.343c-0.541,0.761-1.471,1.142-2.79,1.142c-0.322,0-0.569-0.013-0.742-0.038
		s-0.387-0.072-0.641-0.14v-2.082c0.397,0.11,0.685,0.178,0.862,0.203s0.333,0.038,0.469,0.038c0.422,0,0.732-0.07,0.931-0.209
		c0.199-0.14,0.366-0.311,0.501-0.513c0.042-0.068,0.194-0.414,0.456-1.039c0.262-0.625,0.452-1.09,0.57-1.394l-5.027-13.997h2.59
		l3.644,11.075L97.028,284.122z"/>
	<path d="M107.737,295.916l8.074-9.75h-7.478v-2.044h10.55v1.866l-8.022,9.687h8.263v2.044h-11.388V295.916z"/>
	<path d="M131.604,285.479c1.202,1.167,1.803,2.883,1.803,5.149c0,2.19-0.53,4-1.588,5.429c-1.059,1.429-2.702,2.144-4.929,2.144
		c-1.857,0-3.332-0.632-4.425-1.896s-1.639-2.962-1.639-5.093c0-2.283,0.576-4.102,1.727-5.455c1.151-1.353,2.698-2.029,4.639-2.029
		C128.932,283.729,130.402,284.312,131.604,285.479z M130.185,294.515c0.557-1.145,0.835-2.419,0.835-3.823
		c0-1.268-0.201-2.299-0.603-3.094c-0.636-1.251-1.732-1.877-3.289-1.877c-1.381,0-2.385,0.533-3.013,1.598
		c-0.627,1.065-0.941,2.35-0.941,3.855c0,1.445,0.314,2.65,0.941,3.614c0.627,0.963,1.624,1.445,2.988,1.445
		C128.602,296.233,129.628,295.661,130.185,294.515z"/>
	<path d="M136.212,284.122h2.171v1.93c0.643-0.795,1.325-1.367,2.044-1.714s1.519-0.521,2.399-0.521c1.93,0,3.233,0.673,3.91,2.019
		c0.373,0.736,0.559,1.79,0.559,3.161v8.722h-2.323v-8.569c0-0.83-0.123-1.498-0.368-2.006c-0.406-0.846-1.143-1.27-2.209-1.27
		c-0.542,0-0.986,0.055-1.333,0.165c-0.626,0.186-1.176,0.559-1.65,1.117c-0.381,0.449-0.628,0.912-0.743,1.39
		s-0.171,1.162-0.171,2.05v7.122h-2.285V284.122z"/>
	<path d="M157.959,289.49c0.525-0.067,0.876-0.287,1.054-0.659c0.102-0.204,0.152-0.497,0.152-0.879c0-0.781-0.277-1.349-0.83-1.701
		s-1.345-0.529-2.375-0.529c-1.191,0-2.036,0.323-2.534,0.97c-0.279,0.357-0.46,0.889-0.545,1.595h-2.133
		c0.042-1.681,0.585-2.85,1.629-3.507s2.255-0.987,3.633-0.987c1.598,0,2.896,0.305,3.893,0.914
		c0.989,0.609,1.483,1.557,1.483,2.844v7.833c0,0.237,0.049,0.428,0.146,0.571s0.303,0.215,0.616,0.215
		c0.102,0,0.216-0.006,0.343-0.019s0.262-0.032,0.406-0.057v1.688c-0.355,0.102-0.626,0.165-0.812,0.19s-0.44,0.038-0.762,0.038
		c-0.787,0-1.358-0.279-1.714-0.838c-0.186-0.296-0.317-0.715-0.394-1.256c-0.465,0.609-1.134,1.138-2.006,1.586
		c-0.872,0.449-1.833,0.673-2.882,0.673c-1.261,0-2.292-0.383-3.091-1.147c-0.8-0.765-1.2-1.722-1.2-2.872
		c0-1.259,0.394-2.236,1.181-2.929c0.787-0.693,1.82-1.12,3.098-1.281L157.959,289.49z M153.148,295.664
		c0.482,0.38,1.054,0.57,1.714,0.57c0.804,0,1.583-0.186,2.336-0.558c1.27-0.617,1.904-1.626,1.904-3.029v-1.838
		c-0.279,0.178-0.638,0.327-1.077,0.446c-0.439,0.119-0.87,0.204-1.292,0.254l-1.381,0.177c-0.828,0.11-1.45,0.283-1.867,0.52
		c-0.707,0.397-1.06,1.03-1.06,1.9C152.424,294.764,152.666,295.283,153.148,295.664z"/>
	<path d="M166.491,293.453c0.069,0.762,0.263,1.346,0.583,1.752c0.587,0.736,1.607,1.104,3.058,1.104
		c0.864,0,1.624-0.184,2.28-0.552s0.985-0.938,0.985-1.708c0-0.584-0.262-1.028-0.787-1.333c-0.335-0.186-0.998-0.402-1.987-0.647
		l-1.845-0.457c-1.178-0.288-2.047-0.609-2.606-0.965c-0.998-0.618-1.497-1.473-1.497-2.564c0-1.287,0.47-2.328,1.409-3.123
		s2.202-1.193,3.789-1.193c2.076,0,3.572,0.601,4.49,1.803c0.575,0.762,0.854,1.583,0.837,2.463h-2.158
		c-0.043-0.513-0.229-0.98-0.559-1.401c-0.538-0.598-1.469-0.896-2.794-0.896c-0.884,0-1.553,0.165-2.008,0.493
		c-0.455,0.329-0.682,0.764-0.682,1.303c0,0.59,0.299,1.062,0.896,1.417c0.345,0.211,0.854,0.397,1.526,0.558l1.539,0.368
		c1.673,0.398,2.794,0.783,3.363,1.155c0.889,0.584,1.333,1.502,1.333,2.755c0,1.21-0.465,2.255-1.395,3.136s-2.346,1.32-4.248,1.32
		c-2.048,0-3.498-0.459-4.351-1.377c-0.853-0.918-1.309-2.055-1.369-3.409H166.491z"/>
	<path d="M192.826,284.541c0.405,0.254,0.864,0.698,1.378,1.333v-6.868h2.196v18.713h-2.057v-1.892
		c-0.531,0.838-1.16,1.443-1.884,1.815c-0.726,0.373-1.556,0.559-2.492,0.559c-1.509,0-2.816-0.637-3.92-1.911
		s-1.657-2.969-1.657-5.084c0-1.98,0.503-3.696,1.511-5.148c1.007-1.452,2.447-2.177,4.319-2.177
		C191.258,283.881,192.126,284.101,192.826,284.541z M187.725,294.735c0.615,0.982,1.6,1.473,2.956,1.473
		c1.052,0,1.917-0.455,2.596-1.365c0.678-0.91,1.017-2.215,1.017-3.917c0-1.718-0.35-2.99-1.048-3.815
		c-0.699-0.825-1.562-1.238-2.589-1.238c-1.146,0-2.074,0.44-2.785,1.32c-0.712,0.88-1.067,2.175-1.067,3.885
		C186.803,292.535,187.11,293.753,187.725,294.735z"/>
	<path d="M208.214,284.497c0.9,0.453,1.585,1.039,2.057,1.758c0.454,0.686,0.757,1.485,0.908,2.399
		c0.135,0.626,0.202,1.625,0.202,2.996h-9.89c0.042,1.383,0.365,2.493,0.97,3.329c0.604,0.836,1.541,1.254,2.809,1.254
		c1.184,0,2.129-0.396,2.834-1.186c0.395-0.459,0.674-0.99,0.839-1.594h2.247c-0.059,0.5-0.256,1.056-0.59,1.669
		s-0.708,1.115-1.119,1.504c-0.689,0.677-1.542,1.134-2.558,1.371c-0.546,0.135-1.164,0.203-1.853,0.203
		c-1.682,0-3.107-0.616-4.277-1.847c-1.169-1.231-1.753-2.956-1.753-5.173c0-2.184,0.589-3.957,1.767-5.319
		c1.177-1.363,2.717-2.044,4.618-2.044C206.385,283.817,207.314,284.044,208.214,284.497z M209.033,289.835
		c-0.092-0.99-0.307-1.782-0.642-2.374c-0.621-1.1-1.658-1.65-3.109-1.65c-1.041,0-1.914,0.379-2.619,1.136
		c-0.705,0.757-1.078,1.72-1.12,2.888H209.033z"/>
	<path d="M228.97,284.541c0.405,0.254,0.864,0.698,1.378,1.333v-6.868h2.196v18.713h-2.057v-1.892
		c-0.531,0.838-1.16,1.443-1.884,1.815c-0.726,0.373-1.556,0.559-2.492,0.559c-1.509,0-2.816-0.637-3.92-1.911
		s-1.657-2.969-1.657-5.084c0-1.98,0.503-3.696,1.511-5.148c1.007-1.452,2.447-2.177,4.319-2.177
		C227.402,283.881,228.27,284.101,228.97,284.541z M223.869,294.735c0.615,0.982,1.6,1.473,2.956,1.473
		c1.052,0,1.917-0.455,2.596-1.365c0.678-0.91,1.017-2.215,1.017-3.917c0-1.718-0.35-2.99-1.048-3.815
		c-0.699-0.825-1.562-1.238-2.589-1.238c-1.146,0-2.074,0.44-2.785,1.32c-0.712,0.88-1.067,2.175-1.067,3.885
		C222.947,292.535,223.254,293.753,223.869,294.735z"/>
	<path d="M244.358,284.497c0.9,0.453,1.585,1.039,2.057,1.758c0.454,0.686,0.757,1.485,0.908,2.399
		c0.135,0.626,0.202,1.625,0.202,2.996h-9.89c0.042,1.383,0.365,2.493,0.97,3.329c0.604,0.836,1.541,1.254,2.809,1.254
		c1.184,0,2.129-0.396,2.834-1.186c0.395-0.459,0.674-0.99,0.839-1.594h2.247c-0.059,0.5-0.256,1.056-0.59,1.669
		s-0.708,1.115-1.119,1.504c-0.689,0.677-1.542,1.134-2.558,1.371c-0.546,0.135-1.164,0.203-1.853,0.203
		c-1.682,0-3.107-0.616-4.277-1.847c-1.169-1.231-1.753-2.956-1.753-5.173c0-2.184,0.589-3.957,1.767-5.319
		c1.177-1.363,2.717-2.044,4.618-2.044C242.528,283.817,243.458,284.044,244.358,284.497z M245.176,289.835
		c-0.092-0.99-0.307-1.782-0.642-2.374c-0.621-1.1-1.658-1.65-3.109-1.65c-1.041,0-1.914,0.379-2.619,1.136
		c-0.705,0.757-1.078,1.72-1.12,2.888H245.176z"/>
	<path d="M251.778,293.453c0.069,0.762,0.263,1.346,0.583,1.752c0.587,0.736,1.607,1.104,3.058,1.104
		c0.864,0,1.624-0.184,2.28-0.552s0.985-0.938,0.985-1.708c0-0.584-0.262-1.028-0.787-1.333c-0.335-0.186-0.998-0.402-1.987-0.647
		l-1.845-0.457c-1.178-0.288-2.047-0.609-2.606-0.965c-0.998-0.618-1.497-1.473-1.497-2.564c0-1.287,0.47-2.328,1.409-3.123
		s2.202-1.193,3.789-1.193c2.076,0,3.572,0.601,4.49,1.803c0.575,0.762,0.854,1.583,0.837,2.463h-2.158
		c-0.043-0.513-0.229-0.98-0.559-1.401c-0.538-0.598-1.469-0.896-2.794-0.896c-0.884,0-1.553,0.165-2.008,0.493
		c-0.455,0.329-0.682,0.764-0.682,1.303c0,0.59,0.299,1.062,0.896,1.417c0.345,0.211,0.854,0.397,1.526,0.558l1.539,0.368
		c1.673,0.398,2.794,0.783,3.363,1.155c0.889,0.584,1.333,1.502,1.333,2.755c0,1.21-0.465,2.255-1.395,3.136s-2.346,1.32-4.248,1.32
		c-2.048,0-3.498-0.459-4.351-1.377c-0.853-0.918-1.309-2.055-1.369-3.409H251.778z"/>
	<path d="M272.401,284.846c0.96,0.745,1.538,2.027,1.733,3.847h-2.222c-0.135-0.838-0.444-1.534-0.927-2.088
		s-1.257-0.832-2.323-0.832c-1.456,0-2.497,0.71-3.123,2.13c-0.406,0.921-0.609,2.058-0.609,3.411c0,1.361,0.288,2.506,0.863,3.437
		c0.576,0.93,1.481,1.395,2.717,1.395c0.948,0,1.699-0.289,2.253-0.866s0.938-1.368,1.149-2.371h2.222
		c-0.254,1.803-0.889,3.121-1.904,3.955s-2.315,1.25-3.897,1.25c-1.777,0-3.195-0.649-4.253-1.949s-1.587-2.922-1.587-4.869
		c0-2.387,0.58-4.245,1.739-5.573s2.636-1.993,4.431-1.993C270.194,283.729,271.441,284.101,272.401,284.846z"/>
	<path d="M283.707,289.49c0.525-0.067,0.876-0.287,1.054-0.659c0.102-0.204,0.152-0.497,0.152-0.879c0-0.781-0.277-1.349-0.83-1.701
		s-1.345-0.529-2.375-0.529c-1.191,0-2.036,0.323-2.534,0.97c-0.279,0.357-0.46,0.889-0.545,1.595h-2.133
		c0.042-1.681,0.585-2.85,1.629-3.507s2.255-0.987,3.633-0.987c1.598,0,2.896,0.305,3.893,0.914
		c0.989,0.609,1.483,1.557,1.483,2.844v7.833c0,0.237,0.049,0.428,0.146,0.571s0.303,0.215,0.616,0.215
		c0.102,0,0.216-0.006,0.343-0.019s0.262-0.032,0.406-0.057v1.688c-0.355,0.102-0.626,0.165-0.812,0.19s-0.44,0.038-0.762,0.038
		c-0.787,0-1.358-0.279-1.714-0.838c-0.186-0.296-0.317-0.715-0.394-1.256c-0.465,0.609-1.134,1.138-2.006,1.586
		c-0.872,0.449-1.833,0.673-2.882,0.673c-1.261,0-2.292-0.383-3.091-1.147c-0.8-0.765-1.2-1.722-1.2-2.872
		c0-1.259,0.394-2.236,1.181-2.929c0.787-0.693,1.82-1.12,3.098-1.281L283.707,289.49z M278.895,295.664
		c0.482,0.38,1.054,0.57,1.714,0.57c0.804,0,1.583-0.186,2.336-0.558c1.27-0.617,1.904-1.626,1.904-3.029v-1.838
		c-0.279,0.178-0.638,0.327-1.077,0.446c-0.439,0.119-0.87,0.204-1.292,0.254l-1.381,0.177c-0.828,0.11-1.45,0.283-1.867,0.52
		c-0.707,0.397-1.06,1.03-1.06,1.9C278.171,294.764,278.413,295.283,278.895,295.664z"/>
	<path d="M290.879,284.122h2.171v1.93c0.643-0.795,1.325-1.367,2.044-1.714s1.519-0.521,2.399-0.521c1.93,0,3.233,0.673,3.91,2.019
		c0.373,0.736,0.559,1.79,0.559,3.161v8.722h-2.323v-8.569c0-0.83-0.123-1.498-0.368-2.006c-0.406-0.846-1.143-1.27-2.209-1.27
		c-0.542,0-0.986,0.055-1.333,0.165c-0.626,0.186-1.176,0.559-1.65,1.117c-0.381,0.449-0.628,0.912-0.743,1.39
		s-0.171,1.162-0.171,2.05v7.122h-2.285V284.122z"/>
	<path d="M306.698,293.453c0.069,0.762,0.263,1.346,0.583,1.752c0.587,0.736,1.607,1.104,3.058,1.104
		c0.864,0,1.624-0.184,2.28-0.552s0.985-0.938,0.985-1.708c0-0.584-0.262-1.028-0.787-1.333c-0.335-0.186-0.998-0.402-1.987-0.647
		l-1.845-0.457c-1.178-0.288-2.047-0.609-2.606-0.965c-0.998-0.618-1.497-1.473-1.497-2.564c0-1.287,0.47-2.328,1.409-3.123
		s2.202-1.193,3.789-1.193c2.076,0,3.572,0.601,4.49,1.803c0.575,0.762,0.854,1.583,0.837,2.463h-2.158
		c-0.043-0.513-0.229-0.98-0.559-1.401c-0.538-0.598-1.469-0.896-2.794-0.896c-0.884,0-1.553,0.165-2.008,0.493
		c-0.455,0.329-0.682,0.764-0.682,1.303c0,0.59,0.299,1.062,0.896,1.417c0.345,0.211,0.854,0.397,1.526,0.558l1.539,0.368
		c1.673,0.398,2.794,0.783,3.363,1.155c0.889,0.584,1.333,1.502,1.333,2.755c0,1.21-0.465,2.255-1.395,3.136s-2.346,1.32-4.248,1.32
		c-2.048,0-3.498-0.459-4.351-1.377c-0.853-0.918-1.309-2.055-1.369-3.409H306.698z"/>
	<path d="M328.191,285.479c1.202,1.167,1.803,2.883,1.803,5.149c0,2.19-0.53,4-1.588,5.429c-1.059,1.429-2.702,2.144-4.929,2.144
		c-1.857,0-3.332-0.632-4.425-1.896s-1.639-2.962-1.639-5.093c0-2.283,0.576-4.102,1.727-5.455c1.151-1.353,2.698-2.029,4.639-2.029
		C325.519,283.729,326.989,284.312,328.191,285.479z M326.772,294.515c0.557-1.145,0.835-2.419,0.835-3.823
		c0-1.268-0.201-2.299-0.603-3.094c-0.636-1.251-1.732-1.877-3.289-1.877c-1.381,0-2.385,0.533-3.013,1.598
		c-0.627,1.065-0.941,2.35-0.941,3.855c0,1.445,0.314,2.65,0.941,3.614c0.627,0.963,1.624,1.445,2.988,1.445
		C325.188,296.233,326.215,295.661,326.772,294.515z"/>
	<path d="M333.345,294.951h2.653v2.768h-2.653V294.951z"/>
</g>
</svg>
