<?xml version="1.0" encoding="utf-8"?>
<!-- Generator: Adobe Illustrator 16.0.0, SVG Export Plug-In . SVG Version: 6.00 Build 0)  -->
<!DOCTYPE svg PUBLIC "-//W3C//DTD SVG 1.1//EN" "http://www.w3.org/Graphics/SVG/1.1/DTD/svg11.dtd">
<svg version="1.1" id="Layer_1" xmlns="http://www.w3.org/2000/svg" xmlns:xlink="http://www.w3.org/1999/xlink" x="0px" y="0px"
	 width="425.2px" height="134.556px" viewBox="0 0 425.2 134.556" enable-background="new 0 0 425.2 134.556" xml:space="preserve">
<g>
	<g>
		<path fill="#FFFFFF" d="M61.444,49.521c-2.12,3.3-5.278,4.902-9.426,4.902c-3.3,0-5.939-1.084-7.824-3.3
			c-1.98-2.168-2.923-4.996-2.923-8.483c0-1.792,0.612-4.337,1.933-7.589c1.131-2.97,2.451-5.515,3.865-7.636
			c-1.65,0.849-2.593,1.226-2.781,1.226c-1.32,0-1.933-0.66-1.933-1.98c0-0.896,0.989-1.838,3.017-2.827
			c4.808-2.357,9.145-3.535,13.01-3.535c1.225,0,2.309,0.282,3.252,0.848c0.612,0.378,0.942,0.99,0.942,1.839
			c0,1.131-0.659,1.696-1.933,1.696c-0.235,0-0.565-0.047-1.037-0.235c-0.471-0.095-0.848-0.188-1.084-0.188
			c-2.215,0-4.902,0.519-8.06,1.556c0.329,0.848,0.519,1.414,0.519,1.744c0,0.377-0.189,0.896-0.519,1.508
			c-1.649,2.97-3.017,5.703-4.054,8.154c3.771-1.037,7.07-1.838,9.898-2.404c2.215-0.424,3.676-0.659,4.383-0.659
			c1.227,0,1.886,0.659,1.886,1.979c0,0.942-0.565,1.791-1.696,2.545c-1.132,0.849-1.934,1.226-2.311,1.226
			c-0.801,0-1.508-0.33-2.073-0.989c-4.949,1.084-8.767,2.026-11.407,2.78c-0.094,0.472-0.094,0.943-0.094,1.414
			c0,2.263,0.613,4.054,1.885,5.373c1.32,1.367,3.018,2.027,5.186,2.027c1.555,0,2.828-0.33,3.865-1.037
			c0.848-0.565,1.744-1.556,2.781-3.017c0.564-0.942,1.271-1.414,2.073-1.414c0.377,0,0.802,0.235,1.226,0.613
			c0.377,0.424,0.565,0.848,0.565,1.225C62.576,47.542,62.199,48.438,61.444,49.521z"/>
		<path fill="#FFFFFF" d="M83.126,40.849c-2.168,6.411-3.347,12.68-3.488,18.807c0.142,0.519,0.236,0.99,0.236,1.462
			c0,0.612-0.189,1.319-0.519,2.121c-0.425,0.989-1.037,1.508-1.792,1.508c-0.518,0-0.941-0.235-1.319-0.612
			c-0.377-0.472-0.565-0.943-0.565-1.462c0-5.562,0.99-11.595,2.922-18.288c-2.073,1.98-4.242,2.923-6.41,2.923
			c-1.744,0-3.063-0.472-4.006-1.461c-0.943-0.99-1.414-2.31-1.414-4.007c0-3.3,1.272-6.222,3.865-8.72
			c2.451-2.451,5.279-3.677,8.39-3.677c1.319,0,2.545,0.942,3.582,2.734c0.565-0.378,1.132-0.566,1.696-0.566
			c0.943,0,1.414,0.802,1.509,2.404C84.729,36.418,83.833,38.681,83.126,40.849z M79.308,35.193c-0.424-0.849-0.707-1.32-0.895-1.32
			c-1.744,0-3.441,0.754-5.091,2.263c-1.744,1.649-2.593,3.394-2.593,5.231c0,1.132,0.519,1.697,1.556,1.697
			c3.017,0,5.231-1.886,6.646-5.656c0.095-0.283,0.472-0.66,1.179-1.226C79.732,35.9,79.497,35.57,79.308,35.193z"/>
		<path fill="#FFFFFF" d="M109.379,39.718c-0.377,0.99-0.754,2.828-1.226,5.515c-0.424,2.451-0.613,4.007-0.613,4.666
			c0,0.378,0.048,0.849,0.143,1.414c0.094,0.613,0.141,0.99,0.141,1.132c0,0.707-0.188,1.319-0.565,1.838
			c-0.377,0.565-0.896,0.849-1.556,0.849c-0.565,0-1.084-0.188-1.508-0.472c-0.472-0.282-0.707-0.707-0.707-1.272
			c0-0.377,0.094-0.707,0.33-1.084c0-0.802,0.188-2.733,0.565-5.845c-4.619,5.326-8.154,7.966-10.652,7.966
			c-1.132,0-2.026-0.283-2.733-0.849c-0.755-0.612-1.132-1.461-1.132-2.592c0-0.943,0.282-2.828,0.942-5.704
			c0.66-3.346,1.037-5.373,1.037-6.127c0-0.095,0-0.235,0-0.519c-0.047-0.188-0.047-0.377-0.047-0.519
			c0-0.472,0.188-0.942,0.565-1.414c0.33-0.472,0.707-0.707,1.179-0.707c1.272,0,1.932,1.037,1.932,3.017
			c0,0.849-0.282,2.687-0.848,5.421c-0.613,2.828-0.896,4.571-0.896,5.326c0,0.377,0.188,0.565,0.565,0.565
			c2.215,0,6.27-4.337,12.208-13.057c0.472-0.659,0.942-0.989,1.509-0.989c1.131,0,1.696,0.659,1.696,1.979
			C109.709,38.587,109.567,39.058,109.379,39.718z"/>
		<path fill="#FFFFFF" d="M119.7,42.027c-0.942,3.677-1.461,6.882-1.555,9.71c0.612,0.565,0.941,1.272,0.941,2.121
			c0,0.282-0.188,0.519-0.471,0.801c-0.283,0.283-0.565,0.425-0.849,0.425c-2.168,0-3.205-1.933-3.205-5.798
			c0-1.838,0.612-5.421,1.886-10.747c-0.095-0.565-0.142-0.942-0.142-1.131c0-0.612,0.33-1.131,1.084-1.508
			c2.074,0,3.11,0.989,3.11,2.969L119.7,42.027z M121.114,23.456c-0.142,0-0.424-0.047-0.801-0.188
			c-1.367-0.471-2.027-1.696-2.027-3.676c0-0.99,0.66-1.697,1.98-2.169c1.602,0.188,2.403,1.226,2.403,3.205
			C122.67,22.514,122.151,23.456,121.114,23.456z"/>
		<path fill="#FFFFFF" d="M132.331,49.475c0.143,1.886,0.236,3.818,0.236,5.798c0,2.168-0.236,4.383-0.707,6.552
			c-0.424,1.933-1.131,2.922-2.121,2.922c-0.519,0-0.99-0.235-1.367-0.612c-0.377-0.425-0.565-0.896-0.565-1.414
			c0-0.142,0.142-0.849,0.472-2.121c0.283-1.32,0.471-3.441,0.471-6.458c0-1.508-0.047-2.64-0.141-3.394
			c-1.32-0.094-1.933-0.754-1.933-1.979c0-0.99,0.612-1.697,1.933-2.168c-0.047-0.235-0.047-0.613-0.047-1.084
			c0-3.677,0.564-6.977,1.696-9.852c1.649-4.147,3.96-6.222,6.929-6.222c2.074,0,3.724,0.849,4.855,2.498
			c1.037,1.509,1.555,3.394,1.555,5.656C143.597,42.781,139.826,46.741,132.331,49.475z M139.166,34.438
			c-0.519-0.659-1.179-1.037-1.979-1.037c-1.32,0-2.498,1.414-3.488,4.195c-0.895,2.545-1.319,5.138-1.319,7.683
			c4.949-1.791,7.447-4.619,7.447-8.483C139.826,35.9,139.591,35.099,139.166,34.438z"/>
		<path fill="#FFFFFF" d="M165.09,44.007c-0.66,1.979-0.942,3.865-0.942,5.751c0,0.565,0.094,1.414,0.33,2.498
			c0.188,1.131,0.33,1.696,0.33,1.838c0,0.472-0.236,0.942-0.613,1.319c-0.424,0.283-0.896,0.472-1.367,0.472
			c-1.367,0-2.168-1.838-2.404-5.42c-2.639,2.639-4.996,3.959-7.117,3.959c-1.366,0-2.545-0.565-3.535-1.744
			c-1.037-1.131-1.508-2.403-1.508-3.865c0-2.733,1.603-5.656,4.855-8.673c3.11-2.922,5.938-4.431,8.531-4.431
			c0.612,0,1.225,0.283,1.838,0.755c0.565,0.471,0.896,1.037,0.896,1.603c0,0.235-0.048,0.471-0.095,0.659
			c0.283,0.849,0.472,1.792,0.472,2.876c0.377,0.471,0.612,0.942,0.612,1.366C165.372,43.158,165.278,43.488,165.09,44.007z
			 M160.235,39.859c-0.896,0-2.451,1.084-4.619,3.158c-2.404,2.31-3.582,4.194-3.582,5.703c0,1.178,0.471,1.744,1.461,1.744
			c1.414,0,3.063-1.037,4.854-3.205c1.791-2.169,2.733-4.054,2.733-5.656C161.083,40.472,160.8,39.859,160.235,39.859z"/>
		<path fill="#FFFFFF" d="M187.194,23.645c-0.471,2.64-0.754,4.667-0.754,6.033c-0.047,0.755-0.094,1.32-0.094,1.603
			c-0.142,0.566-0.377,1.037-0.754,1.367c-0.283,4.431-0.377,7.966-0.377,10.559c0,4.901,0.282,8.955,0.848,12.207
			c0.188,1.32,0.33,2.074,0.33,2.263c0,0.472-0.188,0.896-0.566,1.272c-0.424,0.378-0.848,0.566-1.271,0.566
			c-0.943,0-1.509-0.66-1.697-1.886c-0.188-1.037-0.519-3.629-0.99-7.777c-0.66,1.367-1.649,2.64-3.063,3.771
			c-1.509,1.226-2.923,1.839-4.147,1.839c-1.65,0-2.922-0.519-3.818-1.556c-0.896-0.99-1.319-2.356-1.319-4.101
			c0-2.31,1.131-5.044,3.394-8.154c2.215-3.063,4.289-4.619,6.27-4.619c0.707,0,1.555,0.472,2.545,1.319
			c0.565-7.918,1.367-13.999,2.403-18.146c0.188-0.942,0.802-1.414,1.792-1.414c1.131,0,1.696,0.613,1.696,1.838
			C187.619,20.958,187.478,21.948,187.194,23.645z M179.323,41.179c-0.188,0-0.33-0.047-0.33-0.047
			c-0.754,0-2.168,1.414-4.195,4.147c-1.225,1.65-1.791,3.111-1.791,4.384c0,1.179,0.425,1.744,1.273,1.744
			c0.942,0,1.979-0.519,3.063-1.649c0.849-0.896,1.603-1.933,2.168-3.111c0.282-0.66,0.66-1.649,1.132-2.922
			C180.077,43.347,179.653,42.499,179.323,41.179z"/>
		<path fill="#FFFFFF" d="M208.782,44.007c-0.66,1.979-0.943,3.865-0.943,5.751c0,0.565,0.094,1.414,0.33,2.498
			c0.188,1.131,0.33,1.696,0.33,1.838c0,0.472-0.236,0.942-0.613,1.319c-0.424,0.283-0.895,0.472-1.367,0.472
			c-1.366,0-2.168-1.838-2.403-5.42c-2.64,2.639-4.996,3.959-7.117,3.959c-1.366,0-2.546-0.565-3.535-1.744
			c-1.037-1.131-1.509-2.403-1.509-3.865c0-2.733,1.604-5.656,4.855-8.673c3.111-2.922,5.939-4.431,8.531-4.431
			c0.613,0,1.226,0.283,1.838,0.755c0.566,0.471,0.896,1.037,0.896,1.603c0,0.235-0.048,0.471-0.095,0.659
			c0.282,0.849,0.472,1.792,0.472,2.876c0.377,0.471,0.612,0.942,0.612,1.366C209.064,43.158,208.97,43.488,208.782,44.007z
			 M203.927,39.859c-0.896,0-2.451,1.084-4.619,3.158c-2.404,2.31-3.582,4.194-3.582,5.703c0,1.178,0.471,1.744,1.461,1.744
			c1.414,0,3.064-1.037,4.855-3.205c1.791-2.169,2.733-4.054,2.733-5.656C204.775,40.472,204.492,39.859,203.927,39.859z"/>
		<path fill="#FFFFFF" d="M226.786,38.068c-0.377,0.377-0.801,0.519-1.273,0.519c-0.234,0-0.659,0-1.225-0.095
			c-0.566,0-0.99-0.047-1.273-0.047c-1.225,0-1.838,0.472-1.838,1.367c0,0.565,0.566,2.31,1.744,5.231
			c1.131,2.97,1.744,5.185,1.744,6.599c0,1.367-0.566,2.451-1.65,3.347c-1.225,0.896-2.875,1.367-4.949,1.367
			c-3.393,0-5.043-0.707-5.043-2.027c0-0.519,0.142-1.036,0.519-1.508c0.283-0.472,0.66-0.754,1.085-0.754
			c0.094,0,0.612,0.094,1.555,0.188c0.943,0.142,1.744,0.188,2.31,0.188c1.556,0,2.356-0.519,2.356-1.65
			c0-0.659-0.612-2.45-1.744-5.278c-1.131-2.828-1.696-4.949-1.696-6.27c0-2.168,1.084-3.676,3.3-4.478
			c0.471-0.754,1.367-1.178,2.78-1.178c2.169,0,3.347,0.707,3.535,2.12c0.188,0.378,0.283,0.755,0.283,1.085
			C227.305,37.361,227.116,37.785,226.786,38.068z"/>
		<path fill="#8ED8F8" d="M258.466,46.517c0.235,3.145,0.393,6.367,0.393,9.668c0,3.615-0.393,7.31-1.179,10.925
			c-0.708,3.223-1.886,4.873-3.537,4.873c-0.864,0-1.65-0.393-2.279-1.021c-0.629-0.707-0.942-1.493-0.942-2.357
			c0-0.236,0.234-1.415,0.785-3.537c0.472-2.201,0.786-5.738,0.786-10.769c0-2.515-0.079-4.401-0.235-5.658
			c-2.201-0.157-3.223-1.258-3.223-3.302c0-1.65,1.021-2.829,3.223-3.615c-0.079-0.394-0.079-1.021-0.079-1.808
			c0-6.131,0.943-11.633,2.829-16.427c2.752-6.917,6.603-10.375,11.555-10.375c3.458,0,6.209,1.414,8.096,4.165
			c1.729,2.516,2.594,5.659,2.594,9.432C277.251,35.356,270.963,41.958,258.466,46.517z M269.862,21.444
			c-0.865-1.101-1.965-1.729-3.301-1.729c-2.201,0-4.166,2.358-5.816,6.995c-1.494,4.245-2.201,8.567-2.201,12.812
			c8.253-2.986,12.419-7.702,12.419-14.147C270.963,23.881,270.569,22.545,269.862,21.444z"/>
		<path fill="#8ED8F8" d="M313.089,37.399c-1.101,3.302-1.572,6.445-1.572,9.589c0,0.943,0.157,2.358,0.551,4.166
			c0.314,1.887,0.549,2.829,0.549,3.065c0,0.786-0.393,1.572-1.021,2.201c-0.707,0.471-1.493,0.785-2.279,0.785
			c-2.279,0-3.615-3.065-4.008-9.038c-4.402,4.401-8.332,6.602-11.869,6.602c-2.279,0-4.244-0.942-5.895-2.908
			c-1.729-1.886-2.516-4.008-2.516-6.444c0-4.559,2.673-9.432,8.096-14.462c5.188-4.873,9.904-7.389,14.227-7.389
			c1.021,0,2.044,0.472,3.065,1.258c0.943,0.786,1.493,1.729,1.493,2.672c0,0.394-0.078,0.786-0.156,1.101
			c0.471,1.415,0.785,2.986,0.785,4.795c0.629,0.785,1.021,1.571,1.021,2.279C313.56,35.985,313.403,36.535,313.089,37.399z
			 M304.993,30.483c-1.494,0-4.088,1.808-7.703,5.266c-4.008,3.852-5.973,6.995-5.973,9.511c0,1.965,0.785,2.908,2.436,2.908
			c2.358,0,5.109-1.729,8.096-5.345c2.987-3.616,4.559-6.76,4.559-9.432C306.407,31.505,305.937,30.483,304.993,30.483z"/>
		<path fill="#8ED8F8" d="M348.376,29.618c-1.572,0.943-2.986,1.337-4.244,1.337c-0.078,0-0.55-0.157-1.493-0.472
			c-6.366,3.144-10.296,9.51-11.711,19.099c-0.394,2.516-0.708,4.166-0.943,4.952c-0.472,1.415-1.257,2.122-2.2,2.122
			s-1.887-0.55-2.673-1.493c-0.786-1.022-1.101-2.122-1.101-3.459c0-0.235,0.157-1.257,0.629-3.144
			c0.393-1.729,0.629-3.615,0.629-5.737c0-1.887-0.236-4.401-0.551-7.467c-1.414-1.965-2.121-4.716-2.121-8.175
			c0-0.786,0.235-1.571,0.707-2.357c0.393-0.629,0.943-1.022,1.572-1.022c1.493,0,2.672,0.865,3.537,2.438
			c0.628,1.414,1.178,3.772,1.65,7.073c4.794-7.23,10.296-10.847,16.427-10.847c1.021,0,1.965,0.472,2.907,1.415
			c0.865,0.943,1.337,1.965,1.337,3.065C350.734,27.89,349.948,28.832,348.376,29.618z"/>
		<path fill="#8ED8F8" d="M381.855,37.399c-1.101,3.302-1.571,6.445-1.571,9.589c0,0.943,0.156,2.358,0.55,4.166
			c0.314,1.887,0.55,2.829,0.55,3.065c0,0.786-0.393,1.572-1.021,2.201c-0.707,0.471-1.494,0.785-2.279,0.785
			c-2.279,0-3.615-3.065-4.009-9.038c-4.401,4.401-8.331,6.602-11.868,6.602c-2.279,0-4.244-0.942-5.895-2.908
			c-1.729-1.886-2.516-4.008-2.516-6.444c0-4.559,2.672-9.432,8.096-14.462c5.188-4.873,9.903-7.389,14.227-7.389
			c1.021,0,2.043,0.472,3.064,1.258c0.943,0.786,1.494,1.729,1.494,2.672c0,0.394-0.078,0.786-0.157,1.101
			c0.472,1.415,0.786,2.986,0.786,4.795c0.629,0.785,1.021,1.571,1.021,2.279C382.327,35.985,382.17,36.535,381.855,37.399z
			 M373.76,30.483c-1.493,0-4.087,1.808-7.702,5.266c-4.009,3.852-5.974,6.995-5.974,9.511c0,1.965,0.786,2.908,2.437,2.908
			c2.357,0,5.109-1.729,8.096-5.345c2.986-3.616,4.559-6.76,4.559-9.432C375.175,31.505,374.703,30.483,373.76,30.483z"/>
		<path fill="#8ED8F8" d="M62.809,123.436c-5.974,0-10.375-2.672-13.204-8.096h-2.358c-2.044,0-4.009-0.393-6.052-1.258
			c-2.672-1.1-3.93-2.515-3.93-4.244c0-2.2,1.021-3.301,3.064-3.301c0.473,0,1.258,0.393,2.358,1.179s2.122,1.179,3.223,1.179h1.808
			c-0.236-1.336-0.314-2.437-0.314-3.222c0-3.773,0.943-7.311,2.83-10.611c2.2-3.852,4.951-5.816,8.331-5.816
			c1.965,0,3.851,0.943,5.737,2.83c1.887,1.886,2.83,4.008,2.83,6.209c0,5.816-3.93,10.847-11.79,15.091
			c1.886,2.279,3.931,3.38,6.288,3.38c0.629,0,1.65-0.079,2.986-0.236s2.358-0.314,2.986-0.314c0.787,0,1.572,0.394,2.201,1.022
			c0.629,0.786,0.943,1.571,0.943,2.357C70.747,122.1,68.075,123.436,62.809,123.436z M60.136,96.791
			c-0.629-0.472-1.257-0.786-1.886-0.786c-1.415,0-2.515,1.179-3.302,3.537c-0.785,1.965-1.1,4.008-1.1,6.131v1.414
			c4.716-3.065,7.074-5.895,7.074-8.488C60.923,97.97,60.608,97.42,60.136,96.791z"/>
		<path fill="#8ED8F8" d="M89.528,71.246l-0.55,0.786c-2.358,9.039-3.536,18.078-3.536,27.116c0,3.773,0.393,10.532,1.178,20.121
			c0,0.314,0,0.786,0.158,1.494c0.078,0.628,0.156,1.1,0.156,1.336c0,0.393-0.314,0.786-0.785,1.179
			c-0.551,0.472-1.021,0.707-1.415,0.707c-1.571,0-2.908-1.179-4.009-3.458c-1.179-2.279-1.729-4.716-1.729-7.388
			c0-2.437,0.235-4.166,0.785-5.109c-0.314-4.716-0.471-8.41-0.471-11.082c0-10.375,1.493-20.436,4.559-30.182
			c0.864-2.83,1.808-4.323,2.829-4.323c0.943,0,2.044,0.708,3.302,1.965c1.258,1.415,1.965,2.516,1.965,3.459
			C91.966,69.36,91.101,70.461,89.528,71.246z"/>
		<path fill="#FFFFFF" d="M152.796,70.539c-0.786,4.401-1.258,7.781-1.258,10.061c-0.078,1.258-0.156,2.201-0.156,2.673
			c-0.236,0.942-0.629,1.729-1.258,2.279c-0.473,7.388-0.629,13.282-0.629,17.605c0,8.174,0.471,14.934,1.414,20.357
			c0.314,2.2,0.551,3.458,0.551,3.772c0,0.786-0.314,1.493-0.943,2.122c-0.707,0.629-1.414,0.943-2.122,0.943
			c-1.572,0-2.515-1.101-2.829-3.145c-0.314-1.729-0.865-6.052-1.65-12.969c-1.102,2.279-2.752,4.401-5.109,6.288
			c-2.516,2.044-4.873,3.065-6.917,3.065c-2.751,0-4.873-0.864-6.366-2.594c-1.493-1.65-2.201-3.93-2.201-6.838
			c0-3.852,1.887-8.41,5.66-13.598c3.693-5.108,7.152-7.702,10.453-7.702c1.179,0,2.594,0.785,4.244,2.2
			c0.943-13.204,2.279-23.344,4.008-30.26c0.314-1.572,1.337-2.358,2.987-2.358c1.886,0,2.829,1.021,2.829,3.065
			C153.503,66.059,153.268,67.71,152.796,70.539z M139.67,99.777c-0.314,0-0.55-0.078-0.55-0.078c-1.258,0-3.615,2.357-6.996,6.916
			c-2.043,2.751-2.986,5.188-2.986,7.31c0,1.966,0.707,2.908,2.123,2.908c1.571,0,3.301-0.864,5.108-2.751
			c1.415-1.493,2.673-3.222,3.615-5.188c0.472-1.1,1.101-2.751,1.886-4.873C140.928,103.394,140.22,101.979,139.67,99.777z"/>
		<path fill="#FFFFFF" d="M183.996,123.436c-5.974,0-10.375-2.672-13.204-8.096h-2.358c-2.044,0-4.009-0.393-6.052-1.258
			c-2.672-1.1-3.93-2.515-3.93-4.244c0-2.2,1.021-3.301,3.064-3.301c0.473,0,1.258,0.393,2.358,1.179s2.122,1.179,3.223,1.179h1.808
			c-0.236-1.336-0.314-2.437-0.314-3.222c0-3.773,0.943-7.311,2.83-10.611c2.2-3.852,4.951-5.816,8.331-5.816
			c1.965,0,3.851,0.943,5.737,2.83c1.887,1.886,2.83,4.008,2.83,6.209c0,5.816-3.93,10.847-11.79,15.091
			c1.886,2.279,3.931,3.38,6.288,3.38c0.629,0,1.65-0.079,2.986-0.236s2.358-0.314,2.986-0.314c0.787,0,1.572,0.394,2.201,1.022
			c0.629,0.786,0.943,1.571,0.943,2.357C191.935,122.1,189.263,123.436,183.996,123.436z M181.323,96.791
			c-0.629-0.472-1.257-0.786-1.886-0.786c-1.415,0-2.515,1.179-3.302,3.537c-0.785,1.965-1.1,4.008-1.1,6.131v1.414
			c4.716-3.065,7.074-5.895,7.074-8.488C182.11,97.97,181.796,97.42,181.323,96.791z"/>
		<path fill="#FFFFFF" d="M219.283,94.59c-0.629,0.629-1.337,0.865-2.122,0.865c-0.393,0-1.101,0-2.044-0.157
			c-0.942,0-1.65-0.079-2.122-0.079c-2.043,0-3.064,0.786-3.064,2.279c0,0.943,0.942,3.852,2.907,8.725
			c1.887,4.951,2.908,8.646,2.908,11.004c0,2.279-0.942,4.087-2.751,5.58c-2.043,1.493-4.795,2.279-8.252,2.279
			c-5.66,0-8.41-1.179-8.41-3.38c0-0.864,0.235-1.729,0.864-2.515c0.472-0.786,1.101-1.258,1.808-1.258
			c0.157,0,1.021,0.157,2.594,0.314c1.572,0.235,2.908,0.314,3.852,0.314c2.594,0,3.93-0.864,3.93-2.751
			c0-1.101-1.021-4.087-2.908-8.803s-2.83-8.253-2.83-10.454c0-3.615,1.809-6.13,5.502-7.467c0.787-1.257,2.279-1.965,4.638-1.965
			c3.616,0,5.581,1.179,5.896,3.537c0.314,0.629,0.471,1.258,0.471,1.808C220.147,93.411,219.833,94.118,219.283,94.59z"/>
		<path fill="#FFFFFF" d="M247.025,118.877c-2.987,2.357-6.052,3.537-9.038,3.537c-3.302,0-6.053-1.101-8.254-3.223
			c-2.2-2.201-3.301-4.952-3.301-8.41c0-4.873,1.494-9.354,4.559-13.44c3.773-5.108,8.174-7.702,13.126-7.702
			c1.179,0,2.279,0.393,3.302,1.101c0.943,0.785,1.414,1.729,1.414,2.986c0,0.943-0.471,1.808-1.336,2.751
			c-1.021,0.943-2.043,1.336-3.065,1.336c-1.965,0-3.38-0.235-4.323-0.786c-2.121,1.415-3.851,3.38-5.266,5.738
			c-1.414,2.357-2.122,4.794-2.122,7.23c0,3.93,1.493,5.816,4.638,5.816c1.965,0,3.615-0.472,4.951-1.493
			c0.786-0.786,1.729-1.572,2.672-2.358c1.102-1.021,2.044-1.571,2.673-1.571c0.786,0,1.493,0.393,2.122,1.021
			c0.629,0.786,0.943,1.572,0.943,2.357C250.72,115.34,249.462,116.99,247.025,118.877z"/>
		<path fill="#FFFFFF" d="M286.007,104.493c-1.1,3.302-1.572,6.445-1.572,9.589c0,0.943,0.158,2.358,0.551,4.166
			c0.314,1.887,0.55,2.829,0.55,3.065c0,0.786-0.393,1.572-1.021,2.201c-0.708,0.471-1.493,0.785-2.279,0.785
			c-2.279,0-3.616-3.065-4.009-9.038c-4.401,4.401-8.331,6.602-11.868,6.602c-2.279,0-4.244-0.942-5.896-2.908
			c-1.729-1.886-2.515-4.008-2.515-6.444c0-4.559,2.673-9.432,8.096-14.462c5.188-4.873,9.903-7.389,14.227-7.389
			c1.021,0,2.044,0.472,3.065,1.258c0.943,0.786,1.493,1.729,1.493,2.672c0,0.394-0.079,0.786-0.157,1.101
			c0.472,1.415,0.785,2.986,0.785,4.795c0.629,0.785,1.022,1.571,1.022,2.279C286.479,103.079,286.321,103.629,286.007,104.493z
			 M277.911,97.577c-1.493,0-4.087,1.808-7.702,5.266c-4.009,3.852-5.974,6.995-5.974,9.511c0,1.965,0.786,2.908,2.437,2.908
			c2.358,0,5.108-1.729,8.096-5.345c2.987-3.616,4.559-6.76,4.559-9.432C279.326,98.599,278.854,97.577,277.911,97.577z"/>
		<path fill="#FFFFFF" d="M322.08,120.527c-0.157,1.415-0.786,2.201-1.886,2.201c-1.18,0-2.123-0.472-2.908-1.415
			c-0.786-1.021-1.18-2.122-1.18-3.38c0-0.078,0.158-1.572,0.473-4.479l1.178-10.061c-6.523,4.951-11.082,9.589-13.754,13.99
			c-0.551,0.943-1.021,1.965-1.494,2.908c-0.785,1.257-1.571,1.965-2.357,1.965c-3.301,0-4.873-4.638-4.873-13.99
			c0-6.131,0.865-12.341,2.594-18.707c0.314-1.101,0.865-1.729,1.808-1.729c1.179,0,2.2,0.471,2.987,1.336
			c0.785,1.021,1.179,2.122,1.179,3.38c-0.394,1.571-0.786,3.301-1.179,5.188c-0.787,4.165-1.18,8.174-1.18,12.104
			c5.58-6.759,11.555-11.946,17.921-15.483c1.101,0.078,2.122,0.472,3.065,1.179c0.943,0.786,1.493,1.729,1.493,2.908
			C323.967,102.057,323.338,109.445,322.08,120.527z"/>
		<path fill="#FFFFFF" d="M353.517,94.59c-0.629,0.629-1.337,0.865-2.123,0.865c-0.393,0-1.1,0-2.043-0.157
			c-0.943,0-1.65-0.079-2.123-0.079c-2.043,0-3.064,0.786-3.064,2.279c0,0.943,0.943,3.852,2.908,8.725
			c1.887,4.951,2.908,8.646,2.908,11.004c0,2.279-0.943,4.087-2.752,5.58c-2.043,1.493-4.794,2.279-8.252,2.279
			c-5.659,0-8.41-1.179-8.41-3.38c0-0.864,0.236-1.729,0.865-2.515c0.471-0.786,1.1-1.258,1.807-1.258
			c0.158,0,1.022,0.157,2.594,0.314c1.572,0.235,2.908,0.314,3.852,0.314c2.594,0,3.93-0.864,3.93-2.751
			c0-1.101-1.021-4.087-2.908-8.803c-1.886-4.716-2.829-8.253-2.829-10.454c0-3.615,1.808-6.13,5.502-7.467
			c0.786-1.257,2.279-1.965,4.638-1.965c3.615,0,5.58,1.179,5.895,3.537c0.314,0.629,0.472,1.258,0.472,1.808
			C354.381,93.411,354.066,94.118,353.517,94.59z"/>
		<path fill="#FFFFFF" d="M381.729,117.069c-2.594,3.615-5.816,5.345-9.589,5.345c-3.302,0-6.052-1.337-8.253-3.852
			c-2.201-2.594-3.223-5.895-3.223-9.903c0-3.38,0.707-6.603,2.279-9.589c1.572-3.301,3.773-5.659,6.445-6.995
			c0.629-0.236,1.493-0.708,2.594-1.336c0.943-0.629,1.65-1.022,2.279-1.022c0.157,0,0.786,0.157,1.887,0.472
			c2.75,0.943,5.029,2.673,6.838,5.109c1.729,2.515,2.594,5.345,2.594,8.409C385.581,109.052,384.245,113.454,381.729,117.069z
			 M377.093,98.441c-1.258,0-2.279-0.235-3.066-0.707c-2.2,0-4.008,1.336-5.423,3.851c-1.257,2.201-1.808,4.559-1.808,7.074
			c0,1.887,0.472,3.537,1.493,4.951c0.943,1.494,2.201,2.201,3.772,2.201c1.887,0,3.537-1.179,5.109-3.537
			c1.414-2.279,2.201-4.716,2.201-7.388C379.372,101.585,378.585,99.385,377.093,98.441z"/>
	</g>
</g>
</svg>
