<?xml version="1.0" encoding="utf-8"?>
<!-- Generator: Adobe Illustrator 16.0.0, SVG Export Plug-In . SVG Version: 6.00 Build 0)  -->
<!DOCTYPE svg PUBLIC "-//W3C//DTD SVG 1.1//EN" "http://www.w3.org/Graphics/SVG/1.1/DTD/svg11.dtd">
<svg version="1.1" id="Layer_1" xmlns="http://www.w3.org/2000/svg" xmlns:xlink="http://www.w3.org/1999/xlink" x="0px" y="0px"
	 width="425.2px" height="160.625px" viewBox="0 0 425.2 160.625" enable-background="new 0 0 425.2 160.625" xml:space="preserve">
<g>
	<g>
		<path fill="#FFFFFF" d="M42.075,30.412c3.308,1.654,5.954,3.143,7.883,4.576c4.135,3.087,6.23,5.898,6.23,8.49
			c0,1.543-0.662,2.37-1.985,2.37c-1.488,0-2.26-0.827-2.26-2.48c-0.772-1.544-2.812-3.418-6.12-5.568
			c-2.812-1.765-5.237-3.032-7.332-3.804c0,3.308,0.275,6.284,0.716,8.931c0,1.599-0.661,2.426-1.984,2.426
			c-1.158,0-1.819-0.606-1.985-1.709c-0.551-3.143-0.827-6.175-0.827-9.151v-2.481c-1.764,0-2.646-0.717-2.646-2.205
			c0-1.544,0.938-2.37,2.867-2.536c0.221-2.48,0.551-6.284,1.047-11.467c-1.268-0.331-1.984-1.157-2.095-2.536
			c0.11-1.103,0.606-2.095,1.489-2.922c1.929-2.149,4.134-3.858,6.67-5.182c2.481-1.269,4.852-1.93,7.112-1.93
			c2.536,0,4.741,0.937,6.561,2.756c1.819,1.875,2.756,4.245,2.756,7.002C58.173,19.662,52.77,25.45,42.075,30.412z M52.66,9.298
			c-0.938-0.717-2.04-1.103-3.253-1.103c-3.143,0-6.285,1.213-9.482,3.583c-0.11,1.874-0.331,4.796-0.717,8.766
			c-0.11,1.158-0.331,3.197-0.606,6.119c3.638-1.103,7.057-2.977,10.309-5.623c3.473-2.922,5.237-5.679,5.237-8.214
			C54.148,11.393,53.652,10.18,52.66,9.298z"/>
		<path fill="#FFFFFF" d="M79.564,45.242c-4.189,0-7.277-1.874-9.262-5.679h-1.654c-1.434,0-2.812-0.275-4.245-0.882
			c-1.875-0.771-2.756-1.764-2.756-2.977c0-1.544,0.717-2.315,2.15-2.315c0.331,0,0.882,0.275,1.654,0.826
			c0.772,0.552,1.489,0.827,2.261,0.827h1.268c-0.165-0.937-0.22-1.709-0.22-2.26c0-2.646,0.662-5.127,1.984-7.443
			c1.544-2.701,3.474-4.079,5.844-4.079c1.378,0,2.701,0.661,4.024,1.984c1.323,1.323,1.984,2.812,1.984,4.355
			c0,4.08-2.756,7.608-8.27,10.585c1.323,1.599,2.757,2.371,4.411,2.371c0.441,0,1.158-0.056,2.095-0.166
			c0.938-0.11,1.654-0.221,2.095-0.221c0.551,0,1.103,0.276,1.543,0.717c0.441,0.552,0.662,1.103,0.662,1.654
			C85.133,44.305,83.258,45.242,79.564,45.242z M77.69,26.553c-0.441-0.33-0.882-0.551-1.323-0.551c-0.992,0-1.764,0.827-2.315,2.48
			c-0.551,1.379-0.772,2.812-0.772,4.301v0.992c3.308-2.15,4.962-4.135,4.962-5.954C78.242,27.38,78.021,26.994,77.69,26.553z"/>
		<path fill="#FFFFFF" d="M108.564,43.202c-0.11,0.992-0.551,1.544-1.323,1.544c-0.827,0-1.489-0.331-2.04-0.992
			c-0.551-0.717-0.827-1.488-0.827-2.371c0-0.055,0.11-1.103,0.331-3.143l0.827-7.057c-4.576,3.474-7.773,6.727-9.647,9.813
			c-0.386,0.662-0.717,1.378-1.047,2.04c-0.551,0.882-1.103,1.378-1.654,1.378c-2.315,0-3.418-3.252-3.418-9.812
			c0-4.301,0.606-8.656,1.819-13.121c0.221-0.772,0.606-1.213,1.268-1.213c0.827,0,1.543,0.331,2.095,0.937
			c0.552,0.717,0.827,1.489,0.827,2.371c-0.275,1.103-0.551,2.315-0.827,3.639c-0.551,2.922-0.827,5.733-0.827,8.49
			c3.914-4.741,8.104-8.38,12.569-10.861c0.772,0.056,1.489,0.331,2.15,0.827c0.662,0.552,1.047,1.213,1.047,2.04
			C109.887,30.247,109.446,35.429,108.564,43.202z"/>
		<path fill="#FFFFFF" d="M133.814,26.002c-0.441,0.551-0.937,0.827-1.433,0.827c-0.772,0-1.489-0.221-2.04-0.772
			c-0.386,0-1.323,0-2.867-0.055c-1.544,0-2.536-0.056-3.087-0.056c-0.992,4.301-1.599,6.947-1.819,7.994
			c-0.662,3.088-0.992,5.899-1.103,8.325c0.551,0.44,0.827,1.047,0.827,1.929c0,0.552-0.276,1.048-0.772,1.544
			c-0.551,0.441-1.047,0.662-1.599,0.662c-1.819,0-2.702-1.544-2.702-4.521c0-1.653,0.331-4.3,1.048-7.883l1.654-7.939
			c-1.709,0-2.536-0.771-2.536-2.37c0-0.992,0.331-1.654,0.992-1.984c0.441-0.221,1.268-0.387,2.591-0.387
			c1.433-5.844,2.646-10.364,3.639-13.672c0.331-1.157,0.992-1.764,1.984-1.764c1.434,0,2.206,0.826,2.371,2.48
			c-0.331,1.157-0.771,2.48-1.268,4.024c-0.662,2.261-1.378,5.183-2.15,8.82c0.386,0,1.764,0.056,4.08,0.11
			c3.198,0.166,4.796,1.103,4.796,2.867C134.421,24.844,134.2,25.45,133.814,26.002z"/>
		<path fill="#FFFFFF" d="M156.915,31.956c-0.772,2.315-1.103,4.521-1.103,6.726c0,0.662,0.11,1.654,0.386,2.922
			c0.221,1.323,0.386,1.984,0.386,2.15c0,0.551-0.275,1.103-0.716,1.543c-0.497,0.331-1.048,0.552-1.599,0.552
			c-1.599,0-2.536-2.15-2.812-6.34c-3.087,3.087-5.844,4.631-8.325,4.631c-1.599,0-2.977-0.661-4.135-2.04
			c-1.213-1.323-1.764-2.812-1.764-4.521c0-3.197,1.875-6.615,5.679-10.144c3.638-3.418,6.946-5.183,9.979-5.183
			c0.716,0,1.433,0.331,2.15,0.882c0.662,0.552,1.047,1.213,1.047,1.875c0,0.275-0.055,0.551-0.11,0.771
			c0.331,0.992,0.551,2.095,0.551,3.363c0.441,0.551,0.717,1.103,0.717,1.599C157.246,30.964,157.135,31.35,156.915,31.956z
			 M151.236,27.104c-1.047,0-2.867,1.268-5.402,3.693c-2.812,2.702-4.19,4.907-4.19,6.671c0,1.378,0.551,2.04,1.709,2.04
			c1.654,0,3.583-1.213,5.678-3.749c2.095-2.536,3.198-4.741,3.198-6.615C152.229,27.821,151.898,27.104,151.236,27.104z"/>
		<path fill="#FFFFFF" d="M201.627,8.14c-0.551,3.087-0.882,5.458-0.882,7.057c-0.055,0.882-0.11,1.544-0.11,1.874
			c-0.166,0.662-0.441,1.213-0.882,1.6c-0.331,5.182-0.441,9.316-0.441,12.349c0,5.733,0.331,10.475,0.993,14.278
			c0.22,1.544,0.386,2.426,0.386,2.646c0,0.552-0.221,1.048-0.662,1.488c-0.496,0.441-0.992,0.662-1.488,0.662
			c-1.103,0-1.764-0.771-1.985-2.205c-0.221-1.213-0.606-4.245-1.158-9.097c-0.772,1.599-1.93,3.087-3.583,4.41
			c-1.764,1.434-3.418,2.15-4.852,2.15c-1.929,0-3.418-0.606-4.465-1.819c-1.047-1.158-1.543-2.757-1.543-4.796
			c0-2.702,1.323-5.899,3.969-9.538c2.591-3.583,5.017-5.402,7.332-5.402c0.827,0,1.819,0.551,2.977,1.543
			c0.662-9.262,1.599-16.373,2.812-21.225c0.221-1.103,0.938-1.654,2.095-1.654c1.323,0,1.985,0.717,1.985,2.15
			C202.124,4.997,201.958,6.155,201.627,8.14z M192.421,28.648c-0.221,0-0.386-0.056-0.386-0.056c-0.882,0-2.536,1.654-4.907,4.852
			c-1.434,1.93-2.095,3.639-2.095,5.127c0,1.379,0.496,2.04,1.488,2.04c1.103,0,2.315-0.606,3.583-1.93
			c0.992-1.047,1.875-2.26,2.536-3.639c0.331-0.771,0.771-1.93,1.323-3.418C193.303,31.184,192.807,30.191,192.421,28.648z"/>
		<path fill="#FFFFFF" d="M223.516,45.242c-4.189,0-7.277-1.874-9.262-5.679H212.6c-1.434,0-2.812-0.275-4.245-0.882
			c-1.875-0.771-2.756-1.764-2.756-2.977c0-1.544,0.717-2.315,2.15-2.315c0.331,0,0.882,0.275,1.654,0.826
			c0.772,0.552,1.489,0.827,2.261,0.827h1.268c-0.165-0.937-0.22-1.709-0.22-2.26c0-2.646,0.662-5.127,1.984-7.443
			c1.544-2.701,3.474-4.079,5.845-4.079c1.377,0,2.701,0.661,4.023,1.984c1.323,1.323,1.984,2.812,1.984,4.355
			c0,4.08-2.756,7.608-8.27,10.585c1.324,1.599,2.758,2.371,4.411,2.371c0.44,0,1.157-0.056,2.095-0.166s1.654-0.221,2.096-0.221
			c0.551,0,1.102,0.276,1.543,0.717c0.441,0.552,0.662,1.103,0.662,1.654C229.084,44.305,227.209,45.242,223.516,45.242z
			 M221.641,26.553c-0.441-0.33-0.882-0.551-1.322-0.551c-0.992,0-1.765,0.827-2.316,2.48c-0.551,1.379-0.771,2.812-0.771,4.301
			v0.992c3.309-2.15,4.962-4.135,4.962-5.954C222.192,27.38,221.972,26.994,221.641,26.553z"/>
		<path fill="#FFFFFF" d="M286.972,43.809c-2.315,0-3.915-3.804-4.796-11.412c-2.261,2.04-4.521,4.797-6.836,8.215
			c-1.104,1.709-2.15,2.536-3.143,2.536s-1.875-0.662-2.537-1.984c-1.322-2.426-2.094-5.954-2.426-10.53
			c-5.016,3.418-8.27,7.607-9.702,12.569c-0.44,1.544-1.269,2.315-2.426,2.315c-1.709,0-2.536-1.543-2.536-4.631
			c0-1.653,0.387-4.41,1.268-8.38c0.828-3.858,1.269-6.34,1.269-7.553c0-1.047-0.276-2.149-0.827-3.252
			c0.055-0.883,0.441-1.6,1.103-2.15c0.606-0.552,1.269-0.827,1.985-0.827c1.598,0,2.426,1.765,2.426,5.183
			c0,1.433-0.552,4.465-1.6,9.206c6.506-6.119,10.42-9.206,11.854-9.206c0.882,0,1.488,0.386,1.764,1.047
			c0.166,0.441,0.275,1.434,0.275,2.867c0,4.189,0.276,7.167,0.883,8.82c5.182-6.946,9.151-10.475,11.963-10.475
			c1.213,0,1.819,0.662,1.875,1.985c0.221,5.623,0.992,9.482,2.314,11.467c0.552,0.882,0.828,1.434,0.828,1.599
			C289.949,42.981,288.956,43.809,286.972,43.809z"/>
		<path fill="#FFFFFF" d="M309.246,40.776c-1.819,2.536-4.08,3.749-6.726,3.749c-2.315,0-4.245-0.938-5.789-2.701
			c-1.544-1.819-2.261-4.135-2.261-6.946c0-2.371,0.496-4.631,1.6-6.726c1.103-2.315,2.646-3.97,4.521-4.907
			c0.44-0.165,1.048-0.496,1.819-0.937c0.662-0.441,1.158-0.717,1.599-0.717c0.11,0,0.552,0.11,1.323,0.33
			c1.93,0.662,3.528,1.875,4.797,3.584c1.213,1.764,1.818,3.749,1.818,5.898C311.947,35.153,311.01,38.24,309.246,40.776z
			 M305.994,27.711c-0.883,0-1.6-0.165-2.15-0.496c-1.544,0-2.812,0.938-3.805,2.701c-0.882,1.544-1.268,3.197-1.268,4.962
			c0,1.323,0.33,2.48,1.047,3.473c0.662,1.048,1.544,1.544,2.646,1.544c1.323,0,2.48-0.827,3.584-2.48
			c0.992-1.599,1.543-3.308,1.543-5.183C307.592,29.916,307.041,28.372,305.994,27.711z"/>
		<path fill="#FFFFFF" d="M335.93,26.002c-0.44,0.551-0.937,0.827-1.433,0.827c-0.772,0-1.489-0.221-2.04-0.772
			c-0.386,0-1.323,0-2.867-0.055c-1.543,0-2.535-0.056-3.087-0.056c-0.992,4.301-1.599,6.947-1.819,7.994
			c-0.662,3.088-0.992,5.899-1.103,8.325c0.552,0.44,0.827,1.047,0.827,1.929c0,0.552-0.275,1.048-0.771,1.544
			c-0.552,0.441-1.048,0.662-1.6,0.662c-1.818,0-2.701-1.544-2.701-4.521c0-1.653,0.331-4.3,1.048-7.883l1.653-7.939
			c-1.709,0-2.535-0.771-2.535-2.37c0-0.992,0.33-1.654,0.992-1.984c0.441-0.221,1.268-0.387,2.591-0.387
			c1.434-5.844,2.646-10.364,3.639-13.672c0.331-1.157,0.992-1.764,1.984-1.764c1.434,0,2.206,0.826,2.37,2.48
			c-0.33,1.157-0.771,2.48-1.268,4.024c-0.661,2.261-1.378,5.183-2.15,8.82c0.387,0,1.765,0.056,4.08,0.11
			c3.197,0.166,4.797,1.103,4.797,2.867C336.537,24.844,336.316,25.45,335.93,26.002z"/>
		<path fill="#FFFFFF" d="M354.124,40.776c-1.819,2.536-4.079,3.749-6.726,3.749c-2.316,0-4.245-0.938-5.789-2.701
			c-1.543-1.819-2.26-4.135-2.26-6.946c0-2.371,0.496-4.631,1.599-6.726c1.103-2.315,2.646-3.97,4.521-4.907
			c0.441-0.165,1.047-0.496,1.819-0.937c0.661-0.441,1.157-0.717,1.599-0.717c0.11,0,0.551,0.11,1.323,0.33
			c1.929,0.662,3.528,1.875,4.796,3.584c1.213,1.764,1.819,3.749,1.819,5.898C356.825,35.153,355.889,38.24,354.124,40.776z
			 M350.871,27.711c-0.882,0-1.599-0.165-2.15-0.496c-1.543,0-2.811,0.938-3.803,2.701c-0.883,1.544-1.269,3.197-1.269,4.962
			c0,1.323,0.331,2.48,1.048,3.473c0.661,1.048,1.543,1.544,2.646,1.544c1.322,0,2.48-0.827,3.583-2.48
			c0.992-1.599,1.544-3.308,1.544-5.183C352.471,29.916,351.919,28.372,350.871,27.711z"/>
		<path fill="#FFFFFF" d="M377.611,25.01c-0.441,0.44-0.938,0.606-1.489,0.606c-0.275,0-0.772,0-1.434-0.11
			c-0.661,0-1.157-0.056-1.488-0.056c-1.434,0-2.149,0.552-2.149,1.6c0,0.661,0.661,2.701,2.039,6.119
			c1.323,3.473,2.04,6.064,2.04,7.718c0,1.599-0.661,2.867-1.93,3.914c-1.434,1.048-3.362,1.6-5.788,1.6
			c-3.97,0-5.899-0.827-5.899-2.371c0-0.606,0.165-1.213,0.606-1.764c0.33-0.552,0.771-0.883,1.268-0.883
			c0.111,0,0.717,0.11,1.82,0.221c1.102,0.166,2.039,0.221,2.701,0.221c1.818,0,2.756-0.606,2.756-1.93
			c0-0.771-0.717-2.866-2.039-6.175c-1.324-3.308-1.985-5.788-1.985-7.332c0-2.536,1.269-4.3,3.859-5.237
			c0.552-0.882,1.599-1.378,3.253-1.378c2.535,0,3.914,0.827,4.135,2.48c0.221,0.441,0.33,0.882,0.33,1.269
			C378.217,24.183,377.996,24.679,377.611,25.01z"/>
		<path fill="#FFFFFF" d="M387.535,49.267c-1.489,2.371-3.033,4.41-4.631,6.119c-0.552,0.552-1.158,0.827-1.875,0.827
			c-1.268,0-1.93-0.717-1.93-2.149c0-0.662,0.221-1.269,0.662-1.765c1.818-2.04,3.473-4.355,4.906-6.946
			c0.33-3.804,1.543-5.733,3.639-5.733c1.599,0,2.426,0.827,2.426,2.426C390.732,43.368,389.629,45.738,387.535,49.267z"/>
		<path fill="#FFFFFF" d="M77.713,79.354c3.068,1.534,5.522,2.915,7.312,4.244c3.835,2.863,5.778,5.472,5.778,7.875
			c0,1.432-0.614,2.198-1.841,2.198c-1.38,0-2.096-0.767-2.096-2.301c-0.716-1.432-2.608-3.17-5.676-5.164
			c-2.608-1.637-4.858-2.812-6.801-3.528c0,3.067,0.256,5.829,0.665,8.283c0,1.482-0.613,2.25-1.84,2.25
			c-1.074,0-1.688-0.562-1.841-1.585c-0.511-2.915-0.767-5.728-0.767-8.488v-2.301c-1.636,0-2.455-0.665-2.455-2.045
			c0-1.433,0.87-2.199,2.659-2.353c0.205-2.301,0.511-5.829,0.971-10.636c-1.176-0.307-1.84-1.073-1.943-2.352
			c0.103-1.022,0.562-1.943,1.381-2.71c1.79-1.994,3.834-3.58,6.187-4.807c2.301-1.176,4.5-1.79,6.596-1.79
			c2.352,0,4.397,0.869,6.085,2.557c1.688,1.738,2.557,3.938,2.557,6.494C92.644,69.383,87.632,74.752,77.713,79.354z M87.53,59.771
			c-0.869-0.665-1.892-1.022-3.017-1.022c-2.915,0-5.829,1.125-8.794,3.323c-0.103,1.738-0.307,4.448-0.665,8.13
			c-0.102,1.074-0.307,2.966-0.562,5.676c3.375-1.022,6.545-2.761,9.562-5.216c3.221-2.71,4.857-5.267,4.857-7.618
			C88.911,61.713,88.451,60.589,87.53,59.771z"/>
		<path fill="#FFFFFF" d="M118.465,89.58c-1.022,0.512-2.812,1.177-5.369,1.943c-2.403,0.716-4.857,1.125-7.312,1.125
			c-2.454,0-4.448-0.512-5.982-1.432c-1.841-1.176-2.71-2.966-2.71-5.369c0-2.557,2.097-6.801,6.34-12.731
			c2.812-3.938,6.034-7.926,9.613-11.965c-4.959,0.664-8.437,0.971-10.38,0.971c-1.994,0-3.63-0.153-4.857-0.562
			c-1.022-0.307-1.534-0.971-1.534-1.994c0-0.562,0.153-1.073,0.562-1.533c0.358-0.461,0.818-0.716,1.432-0.716
			c1.738,0.255,3.17,0.357,4.244,0.357c3.068,0,8.284-0.46,15.595-1.432c1.33,0,2.045,0.767,2.045,2.198
			c0,0.818-0.716,1.943-2.147,3.478c-11.147,11.862-16.669,19.941-16.669,24.288c0,1.432,1.483,2.147,4.448,2.147
			c3.17,0,6.443-0.716,9.817-2.25c0.767-0.512,1.79-1.022,3.119-1.637c0.614,0,1.125,0.256,1.585,0.716
			c0.409,0.461,0.665,0.972,0.665,1.534C120.971,87.842,120.102,88.763,118.465,89.58z"/>
		<path fill="#FFFFFF" d="M133.907,79.354c3.068,1.534,5.522,2.915,7.312,4.244c3.835,2.863,5.778,5.472,5.778,7.875
			c0,1.432-0.614,2.198-1.841,2.198c-1.38,0-2.096-0.767-2.096-2.301c-0.716-1.432-2.608-3.17-5.676-5.164
			c-2.608-1.637-4.858-2.812-6.801-3.528c0,3.067,0.256,5.829,0.665,8.283c0,1.482-0.613,2.25-1.84,2.25
			c-1.074,0-1.688-0.562-1.841-1.585c-0.511-2.915-0.767-5.728-0.767-8.488v-2.301c-1.636,0-2.455-0.665-2.455-2.045
			c0-1.433,0.87-2.199,2.659-2.353c0.205-2.301,0.511-5.829,0.971-10.636c-1.176-0.307-1.84-1.073-1.943-2.352
			c0.103-1.022,0.562-1.943,1.381-2.71c1.79-1.994,3.834-3.58,6.187-4.807c2.301-1.176,4.5-1.79,6.596-1.79
			c2.352,0,4.397,0.869,6.085,2.557c1.688,1.738,2.557,3.938,2.557,6.494C148.838,69.383,143.827,74.752,133.907,79.354z
			 M143.725,59.771c-0.869-0.665-1.892-1.022-3.017-1.022c-2.915,0-5.829,1.125-8.794,3.323c-0.103,1.738-0.307,4.448-0.665,8.13
			c-0.102,1.074-0.307,2.966-0.562,5.676c3.375-1.022,6.545-2.761,9.562-5.216c3.221-2.71,4.857-5.267,4.857-7.618
			C145.105,61.713,144.645,60.589,143.725,59.771z"/>
		<path fill="#FFFFFF" d="M158.093,96.841c-1.381,2.199-2.812,4.091-4.295,5.676c-0.511,0.512-1.074,0.768-1.738,0.768
			c-1.176,0-1.79-0.665-1.79-1.994c0-0.614,0.205-1.177,0.613-1.637c1.688-1.892,3.222-4.039,4.551-6.442
			c0.307-3.528,1.432-5.318,3.375-5.318c1.483,0,2.25,0.768,2.25,2.25C161.059,91.37,160.036,93.568,158.093,96.841z"/>
		<path fill="#8ED8F8" d="M199.152,90.143c-1.943,1.534-3.937,2.301-5.88,2.301c-2.147,0-3.937-0.716-5.369-2.096
			c-1.432-1.432-2.147-3.222-2.147-5.472c0-3.17,0.971-6.084,2.965-8.743c2.455-3.324,5.318-5.011,8.539-5.011
			c0.767,0,1.483,0.255,2.148,0.716c0.613,0.511,0.92,1.125,0.92,1.942c0,0.614-0.307,1.177-0.869,1.79
			c-0.665,0.613-1.329,0.869-1.994,0.869c-1.278,0-2.199-0.153-2.812-0.512c-1.381,0.921-2.505,2.199-3.426,3.733
			c-0.92,1.533-1.381,3.119-1.381,4.704c0,2.557,0.972,3.783,3.017,3.783c1.278,0,2.352-0.307,3.221-0.972
			c0.511-0.511,1.125-1.022,1.738-1.533c0.716-0.665,1.33-1.023,1.739-1.023c0.511,0,0.971,0.256,1.38,0.665
			c0.409,0.512,0.614,1.022,0.614,1.534C201.556,87.842,200.737,88.916,199.152,90.143z"/>
		<path fill="#8ED8F8" d="M224.514,80.786c-0.717,2.147-1.023,4.192-1.023,6.237c0,0.614,0.103,1.534,0.358,2.71
			c0.204,1.228,0.358,1.841,0.358,1.994c0,0.512-0.256,1.023-0.665,1.433c-0.46,0.307-0.972,0.511-1.483,0.511
			c-1.482,0-2.352-1.994-2.607-5.88c-2.863,2.863-5.42,4.295-7.721,4.295c-1.483,0-2.761-0.613-3.835-1.892
			c-1.125-1.228-1.636-2.608-1.636-4.193c0-2.966,1.738-6.136,5.267-9.408c3.375-3.17,6.443-4.807,9.255-4.807
			c0.664,0,1.328,0.307,1.994,0.818c0.613,0.512,0.971,1.125,0.971,1.738c0,0.256-0.051,0.512-0.102,0.716
			c0.307,0.921,0.511,1.943,0.511,3.119c0.409,0.512,0.665,1.022,0.665,1.483C224.82,79.865,224.718,80.224,224.514,80.786z
			 M219.246,76.286c-0.971,0-2.658,1.176-5.01,3.426c-2.608,2.506-3.887,4.551-3.887,6.187c0,1.278,0.511,1.893,1.585,1.893
			c1.534,0,3.323-1.125,5.267-3.478c1.943-2.352,2.966-4.397,2.966-6.136C220.167,76.951,219.86,76.286,219.246,76.286z"/>
		<path fill="#8ED8F8" d="M244.608,89.171c-4.039,3.018-7.618,4.551-10.687,4.551c-1.892,0-3.017-0.817-3.375-2.454
			c0.103-0.92,0.562-1.585,1.381-2.097c-0.205-1.84-0.256-3.834-0.256-6.033c0-3.222,0.205-7.107,0.613-11.607
			c0.614-5.828,1.432-10.584,2.455-14.266c0.664-2.557,1.482-3.835,2.506-3.835c1.432,0,2.198,0.921,2.198,2.762
			c0,1.329-0.358,3.374-1.073,6.136c-0.154,0.511-0.562,0.972-1.177,1.329c-0.613,4.5-1.073,9.869-1.483,16.106
			c3.375-4.09,6.597-6.187,9.613-6.187c1.586,0,2.966,0.613,4.091,1.789c1.125,1.125,1.688,2.557,1.688,4.244
			C251.103,82.78,248.904,85.95,244.608,89.171z M245.068,78.075c-0.818,0-1.994,0.665-3.477,1.943
			c-1.533,1.278-2.863,2.659-3.887,4.193c-1.176,1.636-1.738,2.812-1.738,3.477v1.329c1.381-0.408,2.608-0.92,3.682-1.636
			c4.96-2.915,7.466-5.472,7.466-7.67C247.114,78.638,246.398,78.075,245.068,78.075z"/>
		<path fill="#8ED8F8" d="M274.061,80.786c-0.715,2.147-1.021,4.192-1.021,6.237c0,0.614,0.102,1.534,0.357,2.71
			c0.205,1.228,0.357,1.841,0.357,1.994c0,0.512-0.256,1.023-0.664,1.433c-0.461,0.307-0.972,0.511-1.482,0.511
			c-1.483,0-2.353-1.994-2.608-5.88c-2.863,2.863-5.42,4.295-7.721,4.295c-1.483,0-2.761-0.613-3.835-1.892
			c-1.125-1.228-1.637-2.608-1.637-4.193c0-2.966,1.738-6.136,5.268-9.408c3.374-3.17,6.441-4.807,9.254-4.807
			c0.665,0,1.33,0.307,1.994,0.818c0.613,0.512,0.972,1.125,0.972,1.738c0,0.256-0.051,0.512-0.103,0.716
			c0.307,0.921,0.512,1.943,0.512,3.119c0.409,0.512,0.665,1.022,0.665,1.483C274.368,79.865,274.266,80.224,274.061,80.786z
			 M268.795,76.286c-0.972,0-2.659,1.176-5.012,3.426c-2.607,2.506-3.886,4.551-3.886,6.187c0,1.278,0.511,1.893,1.585,1.893
			c1.534,0,3.324-1.125,5.267-3.478c1.943-2.352,2.966-4.397,2.966-6.136C269.715,76.951,269.408,76.286,268.795,76.286z"/>
		<path fill="#8ED8F8" d="M288.021,59.157l-0.358,0.511c-1.533,5.88-2.301,11.761-2.301,17.641c0,2.454,0.256,6.852,0.768,13.09
			c0,0.205,0,0.512,0.102,0.972c0.052,0.409,0.104,0.716,0.104,0.869c0,0.256-0.205,0.512-0.512,0.767
			c-0.358,0.308-0.665,0.461-0.921,0.461c-1.022,0-1.892-0.768-2.607-2.25c-0.767-1.483-1.125-3.068-1.125-4.807
			c0-1.585,0.153-2.71,0.511-3.323c-0.204-3.068-0.307-5.472-0.307-7.21c0-6.749,0.972-13.294,2.966-19.635
			c0.562-1.841,1.177-2.812,1.841-2.812c0.613,0,1.33,0.461,2.148,1.278c0.817,0.921,1.277,1.637,1.277,2.25
			C289.605,57.93,289.043,58.646,288.021,59.157z"/>
		<path fill="#8ED8F8" d="M301.673,59.157l-0.358,0.511c-1.533,5.88-2.301,11.761-2.301,17.641c0,2.454,0.256,6.852,0.768,13.09
			c0,0.205,0,0.512,0.102,0.972c0.052,0.409,0.104,0.716,0.104,0.869c0,0.256-0.205,0.512-0.512,0.767
			c-0.358,0.308-0.665,0.461-0.921,0.461c-1.022,0-1.892-0.768-2.607-2.25c-0.767-1.483-1.125-3.068-1.125-4.807
			c0-1.585,0.153-2.71,0.511-3.323c-0.204-3.068-0.307-5.472-0.307-7.21c0-6.749,0.972-13.294,2.966-19.635
			c0.562-1.841,1.177-2.812,1.841-2.812c0.613,0,1.33,0.461,2.148,1.278c0.817,0.921,1.277,1.637,1.277,2.25
			C303.258,57.93,302.695,58.646,301.673,59.157z"/>
		<path fill="#8ED8F8" d="M320.592,88.967c-1.688,2.353-3.783,3.477-6.238,3.477c-2.147,0-3.938-0.869-5.369-2.505
			c-1.432-1.688-2.096-3.835-2.096-6.442c0-2.199,0.46-4.296,1.482-6.238c1.023-2.147,2.455-3.682,4.193-4.551
			c0.408-0.153,0.971-0.46,1.688-0.869c0.613-0.409,1.073-0.665,1.482-0.665c0.102,0,0.512,0.103,1.227,0.307
			c1.79,0.613,3.273,1.738,4.449,3.323c1.125,1.637,1.688,3.478,1.688,5.472C323.098,83.751,322.229,86.615,320.592,88.967z
			 M317.575,76.849c-0.818,0-1.483-0.153-1.994-0.46c-1.432,0-2.608,0.869-3.528,2.505c-0.818,1.432-1.176,2.966-1.176,4.603
			c0,1.227,0.307,2.301,0.971,3.221c0.614,0.972,1.433,1.432,2.455,1.432c1.227,0,2.301-0.767,3.324-2.301
			c0.92-1.482,1.432-3.067,1.432-4.807C319.059,78.894,318.547,77.462,317.575,76.849z"/>
		<path fill="#8ED8F8" d="M342.375,74.343c-0.409,0.409-0.869,0.562-1.381,0.562c-0.256,0-0.716,0-1.329-0.103
			c-0.614,0-1.074-0.051-1.381-0.051c-1.329,0-1.994,0.512-1.994,1.483c0,0.613,0.614,2.505,1.892,5.675
			c1.228,3.222,1.893,5.625,1.893,7.159c0,1.482-0.613,2.658-1.79,3.63c-1.329,0.972-3.119,1.483-5.368,1.483
			c-3.682,0-5.472-0.768-5.472-2.199c0-0.562,0.153-1.125,0.562-1.636c0.307-0.512,0.716-0.818,1.176-0.818
			c0.103,0,0.665,0.103,1.688,0.204c1.022,0.153,1.892,0.205,2.505,0.205c1.688,0,2.557-0.562,2.557-1.79
			c0-0.716-0.664-2.658-1.892-5.727s-1.841-5.369-1.841-6.801c0-2.352,1.176-3.988,3.58-4.857c0.511-0.818,1.482-1.278,3.016-1.278
			c2.353,0,3.631,0.767,3.836,2.301c0.204,0.409,0.307,0.818,0.307,1.177C342.938,73.576,342.732,74.036,342.375,74.343z"/>
		<path fill="#8ED8F8" d="M351.578,96.841c-1.381,2.199-2.812,4.091-4.295,5.676c-0.512,0.512-1.074,0.768-1.738,0.768
			c-1.176,0-1.789-0.665-1.789-1.994c0-0.614,0.204-1.177,0.613-1.637c1.688-1.892,3.221-4.039,4.551-6.442
			c0.307-3.528,1.432-5.318,3.375-5.318c1.482,0,2.249,0.768,2.249,2.25C354.544,91.37,353.521,93.568,351.578,96.841z"/>
		<path fill="#8ED8F8" d="M110.001,124.087c-2.869,1.274-5.632,2.178-8.395,2.763c1.647,1.912,4.941,5.207,9.829,9.936
			c1.7,1.646,2.55,2.71,2.55,3.241c0,1.54-0.85,2.337-2.444,2.337c-0.584,0-1.859-0.956-3.772-2.922
			c-1.806-1.753-4.622-4.729-8.554-8.926c-0.106,2.019-0.106,3.666-0.106,5.047c0,0.479,0,1.169,0.053,2.02
			c0.053,0.85,0.106,1.435,0.106,1.7c0,0.638-0.266,1.169-0.69,1.594c-0.425,0.425-0.903,0.638-1.541,0.638
			c-1.753,0-2.604-1.541-2.604-4.622c0-0.213,0.053-0.585,0.266-1.062c0.159-0.426,0.266-0.691,0.266-0.903
			c0-0.213-0.053-0.851-0.106-1.913c-0.053-1.01-0.053-1.647-0.053-1.966c0-1.116,0.16-3.879,0.584-8.235
			c0.425-4.782,0.797-8.554,1.222-11.317c0.159-1.062,0.425-2.391,0.744-3.984c0.106-0.85,0.266-2.125,0.531-3.719
			c0.213-1.223,0.903-1.86,2.072-1.86c1.381,0,2.125,0.691,2.125,2.02c0,0.318-0.266,2.072-0.744,5.207
			c-0.797,4.835-1.381,9.351-1.7,13.602c5.738-1.435,10.042-3.188,12.805-5.313c0.584-0.425,1.009-0.69,1.275-0.69
			c1.647,0,2.498,0.743,2.498,2.178C116.217,120.58,114.145,122.28,110.001,124.087z"/>
		<path fill="#8ED8F8" d="M139.277,130.356c-0.744,2.231-1.063,4.356-1.063,6.481c0,0.638,0.106,1.594,0.372,2.816
			c0.212,1.275,0.372,1.912,0.372,2.072c0,0.531-0.266,1.062-0.691,1.487c-0.478,0.318-1.009,0.531-1.541,0.531
			c-1.541,0-2.444-2.072-2.709-6.11c-2.975,2.976-5.632,4.463-8.023,4.463c-1.541,0-2.869-0.637-3.985-1.966
			c-1.168-1.274-1.7-2.709-1.7-4.356c0-3.081,1.807-6.376,5.473-9.776c3.507-3.294,6.695-4.994,9.617-4.994
			c0.691,0,1.381,0.319,2.072,0.851c0.638,0.531,1.009,1.169,1.009,1.807c0,0.266-0.053,0.531-0.106,0.743
			c0.319,0.956,0.531,2.02,0.531,3.241c0.425,0.531,0.69,1.062,0.69,1.541C139.596,129.399,139.49,129.771,139.277,130.356z
			 M133.805,125.681c-1.01,0-2.763,1.222-5.207,3.56c-2.709,2.604-4.038,4.729-4.038,6.429c0,1.328,0.532,1.966,1.647,1.966
			c1.594,0,3.453-1.169,5.472-3.612c2.019-2.444,3.082-4.569,3.082-6.376C134.761,126.371,134.442,125.681,133.805,125.681z"/>
		<path fill="#8ED8F8" d="M158.352,149.536c-3.294,2.763-7.491,4.197-12.698,4.197c-3.294,0-4.941-1.009-4.941-2.922
			c0-1.381,0.69-2.072,2.019-2.125c0.637,0.053,1.594,0.159,2.869,0.318c8.129-0.106,12.805-3.666,14.08-10.732
			c0.266-1.646,0.425-3.347,0.425-5.153c-2.816,3.932-5.579,5.897-8.289,5.897c-1.7,0-2.975-0.531-3.932-1.7
			c-1.009-1.116-1.487-2.551-1.487-4.304c0-1.062,0.106-2.763,0.372-4.994s0.425-3.825,0.425-4.889c0-0.318-0.106-0.743-0.266-1.381
			c-0.213-0.638-0.266-1.062-0.266-1.382c0-1.328,0.744-2.019,2.337-2.019c0.85,0,1.541,0.584,2.019,1.753
			c0.425,0.957,0.638,2.126,0.638,3.4c0,0.479-0.212,1.966-0.531,4.41s-0.478,4.091-0.478,4.941c0,0.956,0.372,1.435,1.222,1.435
			c1.169,0,2.391-0.797,3.666-2.392c0.957-1.168,2.231-3.24,3.879-6.163c0.797-1.381,1.594-2.125,2.444-2.125
			c1.647,0,2.497,1.913,2.497,5.632v3.56C164.355,140.61,162.336,146.136,158.352,149.536z"/>
		<path fill="#8ED8F8" d="M188.743,130.356c-0.744,2.231-1.063,4.356-1.063,6.481c0,0.638,0.106,1.594,0.372,2.816
			c0.212,1.275,0.372,1.912,0.372,2.072c0,0.531-0.266,1.062-0.691,1.487c-0.478,0.318-1.009,0.531-1.541,0.531
			c-1.541,0-2.444-2.072-2.709-6.11c-2.975,2.976-5.632,4.463-8.023,4.463c-1.541,0-2.869-0.637-3.985-1.966
			c-1.168-1.274-1.7-2.709-1.7-4.356c0-3.081,1.807-6.376,5.473-9.776c3.507-3.294,6.695-4.994,9.617-4.994
			c0.691,0,1.381,0.319,2.072,0.851c0.638,0.531,1.009,1.169,1.009,1.807c0,0.266-0.053,0.531-0.106,0.743
			c0.319,0.956,0.531,2.02,0.531,3.241c0.425,0.531,0.69,1.062,0.69,1.541C189.062,129.399,188.956,129.771,188.743,130.356z
			 M183.271,125.681c-1.01,0-2.763,1.222-5.207,3.56c-2.709,2.604-4.038,4.729-4.038,6.429c0,1.328,0.532,1.966,1.647,1.966
			c1.594,0,3.453-1.169,5.472-3.612c2.019-2.444,3.082-4.569,3.082-6.376C184.227,126.371,183.908,125.681,183.271,125.681z"/>
		<path fill="#8ED8F8" d="M210.05,124.087c-2.869,1.274-5.632,2.178-8.395,2.763c1.647,1.912,4.941,5.207,9.829,9.936
			c1.7,1.646,2.55,2.71,2.55,3.241c0,1.54-0.85,2.337-2.444,2.337c-0.584,0-1.859-0.956-3.772-2.922
			c-1.806-1.753-4.622-4.729-8.554-8.926c-0.106,2.019-0.106,3.666-0.106,5.047c0,0.479,0,1.169,0.053,2.02
			c0.053,0.85,0.106,1.435,0.106,1.7c0,0.638-0.266,1.169-0.69,1.594c-0.425,0.425-0.903,0.638-1.541,0.638
			c-1.753,0-2.604-1.541-2.604-4.622c0-0.213,0.053-0.585,0.266-1.062c0.159-0.426,0.266-0.691,0.266-0.903
			c0-0.213-0.053-0.851-0.106-1.913c-0.053-1.01-0.053-1.647-0.053-1.966c0-1.116,0.16-3.879,0.584-8.235
			c0.425-4.782,0.797-8.554,1.222-11.317c0.159-1.062,0.425-2.391,0.744-3.984c0.106-0.85,0.266-2.125,0.531-3.719
			c0.213-1.223,0.903-1.86,2.072-1.86c1.381,0,2.125,0.691,2.125,2.02c0,0.318-0.266,2.072-0.744,5.207
			c-0.797,4.835-1.381,9.351-1.7,13.602c5.738-1.435,10.042-3.188,12.805-5.313c0.584-0.425,1.009-0.69,1.275-0.69
			c1.647,0,2.497,0.743,2.497,2.178C216.266,120.58,214.193,122.28,210.05,124.087z"/>
		<path fill="#8ED8F8" d="M225.086,147.039c-1.434,2.285-2.922,4.251-4.463,5.897c-0.531,0.531-1.115,0.797-1.807,0.797
			c-1.222,0-1.859-0.69-1.859-2.071c0-0.638,0.213-1.223,0.638-1.7c1.753-1.966,3.347-4.198,4.729-6.695
			c0.319-3.666,1.487-5.525,3.507-5.525c1.541,0,2.338,0.797,2.338,2.338C228.168,141.354,227.105,143.639,225.086,147.039z"/>
		<path fill="#8ED8F8" d="M269.559,143.161c-4.039,0-7.014-1.807-8.927-5.473h-1.594c-1.382,0-2.71-0.266-4.091-0.851
			c-1.807-0.743-2.656-1.7-2.656-2.869c0-1.487,0.689-2.231,2.072-2.231c0.318,0,0.85,0.266,1.594,0.797
			c0.743,0.531,1.434,0.797,2.178,0.797h1.223c-0.16-0.902-0.213-1.646-0.213-2.178c0-2.551,0.637-4.941,1.912-7.173
			c1.488-2.604,3.348-3.932,5.633-3.932c1.328,0,2.604,0.638,3.878,1.912c1.275,1.275,1.913,2.71,1.913,4.198
			c0,3.932-2.656,7.332-7.97,10.201c1.274,1.54,2.656,2.284,4.251,2.284c0.424,0,1.115-0.053,2.019-0.159s1.594-0.213,2.019-0.213
			c0.531,0,1.062,0.266,1.488,0.69c0.425,0.532,0.637,1.063,0.637,1.595C274.924,142.258,273.117,143.161,269.559,143.161z
			 M267.752,125.149c-0.426-0.319-0.851-0.531-1.275-0.531c-0.957,0-1.7,0.797-2.231,2.391c-0.531,1.328-0.744,2.71-0.744,4.145
			v0.956c3.188-2.072,4.782-3.984,4.782-5.738C268.283,125.946,268.07,125.574,267.752,125.149z"/>
		<path fill="#8ED8F8" d="M296.496,124.618c-0.425,0.531-0.903,0.797-1.381,0.797c-0.744,0-1.436-0.213-1.967-0.744
			c-0.371,0-1.274,0-2.762-0.053c-1.488,0-2.445-0.054-2.977-0.054c-0.955,4.145-1.54,6.695-1.753,7.704
			c-0.638,2.976-0.956,5.686-1.062,8.023c0.531,0.425,0.797,1.009,0.797,1.859c0,0.531-0.266,1.01-0.743,1.487
			c-0.531,0.426-1.01,0.638-1.541,0.638c-1.754,0-2.604-1.487-2.604-4.356c0-1.594,0.318-4.145,1.01-7.598l1.594-7.651
			c-1.647,0-2.444-0.743-2.444-2.284c0-0.957,0.319-1.594,0.956-1.913c0.426-0.212,1.223-0.372,2.498-0.372
			c1.381-5.632,2.55-9.988,3.506-13.176c0.318-1.116,0.957-1.7,1.913-1.7c1.382,0,2.125,0.797,2.284,2.391
			c-0.318,1.115-0.744,2.391-1.222,3.878c-0.638,2.179-1.328,4.995-2.072,8.501c0.372,0,1.7,0.054,3.932,0.106
			c3.082,0.16,4.622,1.062,4.622,2.763C297.08,123.502,296.868,124.087,296.496,124.618z"/>
		<path fill="#8ED8F8" d="M313.711,140.079c-2.02,1.594-4.091,2.391-6.109,2.391c-2.232,0-4.092-0.743-5.579-2.178
			c-1.487-1.488-2.231-3.348-2.231-5.686c0-3.294,1.01-6.322,3.082-9.085c2.55-3.454,5.525-5.207,8.872-5.207
			c0.797,0,1.541,0.266,2.231,0.744c0.638,0.531,0.957,1.169,0.957,2.019c0,0.638-0.319,1.222-0.904,1.859
			c-0.689,0.638-1.381,0.903-2.071,0.903c-1.329,0-2.284-0.159-2.923-0.531c-1.434,0.956-2.604,2.285-3.56,3.879
			s-1.435,3.241-1.435,4.888c0,2.656,1.01,3.932,3.135,3.932c1.328,0,2.444-0.318,3.348-1.01c0.531-0.531,1.168-1.062,1.807-1.594
			c0.744-0.69,1.381-1.062,1.807-1.062c0.531,0,1.009,0.266,1.434,0.69c0.426,0.531,0.638,1.063,0.638,1.595
			C316.208,137.688,315.358,138.804,313.711,140.079z"/>
		<path fill="#8ED8F8" d="M328.375,142.948c-0.425,1.275-1.222,1.966-2.391,1.966c-0.797,0-1.541-0.531-2.231-1.487
			c-0.69-0.957-1.009-1.754-1.009-2.338c0-0.851,0.371-1.807,1.168-2.763c0.744-0.957,1.541-1.435,2.498-1.435
			c1.753,0,2.656,1.169,2.656,3.4C329.066,140.558,328.801,141.461,328.375,142.948z"/>
	</g>
</g>
</svg>
