<?xml version="1.0" encoding="utf-8"?>
<!-- Generator: Adobe Illustrator 16.0.0, SVG Export Plug-In . SVG Version: 6.00 Build 0)  -->
<!DOCTYPE svg PUBLIC "-//W3C//DTD SVG 1.1//EN" "http://www.w3.org/Graphics/SVG/1.1/DTD/svg11.dtd">
<svg version="1.1" id="Layer_1" xmlns="http://www.w3.org/2000/svg" xmlns:xlink="http://www.w3.org/1999/xlink" x="0px" y="0px"
	 width="425.2px" height="153.057px" viewBox="0 0 425.2 153.057" enable-background="new 0 0 425.2 153.057" xml:space="preserve">
<g>
	<g>
		<path fill="#8ED8F8" d="M72.358,47.713c-2.997,4.661-7.458,6.925-13.317,6.925c-4.662,0-8.391-1.531-11.055-4.661
			c-2.797-3.063-4.129-7.059-4.129-11.986c0-2.53,0.866-6.126,2.73-10.721c1.598-4.195,3.463-7.791,5.461-10.787
			c-2.331,1.198-3.662,1.731-3.93,1.731c-1.863,0-2.729-0.933-2.729-2.797c0-1.266,1.398-2.598,4.262-3.996
			c6.792-3.329,12.919-4.994,18.378-4.994c1.732,0,3.264,0.399,4.596,1.199c0.865,0.532,1.332,1.398,1.332,2.597
			c0,1.599-0.934,2.397-2.73,2.397c-0.334,0-0.799-0.066-1.465-0.333c-0.666-0.134-1.199-0.267-1.532-0.267
			c-3.13,0-6.925,0.732-11.387,2.197c0.466,1.199,0.732,1.998,0.732,2.464c0,0.533-0.267,1.266-0.732,2.131
			c-2.331,4.195-4.262,8.058-5.727,11.521c5.327-1.465,9.988-2.598,13.983-3.396c3.13-0.6,5.194-0.933,6.193-0.933
			c1.73,0,2.664,0.933,2.664,2.797c0,1.332-0.8,2.53-2.398,3.596c-1.598,1.199-2.729,1.731-3.262,1.731
			c-1.133,0-2.131-0.466-2.931-1.398c-6.991,1.532-12.386,2.863-16.114,3.929c-0.133,0.666-0.133,1.332-0.133,1.998
			c0,3.196,0.865,5.727,2.663,7.591c1.864,1.932,4.262,2.863,7.325,2.863c2.197,0,3.994-0.466,5.46-1.465
			c1.198-0.799,2.464-2.197,3.929-4.262c0.799-1.331,1.798-1.997,2.93-1.997c0.533,0,1.133,0.333,1.731,0.865
			c0.532,0.6,0.8,1.199,0.8,1.731C73.957,44.916,73.424,46.181,72.358,47.713z"/>
		<path fill="#8ED8F8" d="M99.062,31.531c-0.532,0.532-1.132,0.732-1.798,0.732c-0.333,0-0.932,0-1.731-0.133
			c-0.8,0-1.398-0.067-1.798-0.067c-1.731,0-2.598,0.666-2.598,1.932c0,0.799,0.8,3.263,2.465,7.392
			c1.598,4.195,2.463,7.324,2.463,9.322c0,1.931-0.799,3.463-2.33,4.728c-1.731,1.266-4.062,1.932-6.992,1.932
			c-4.795,0-7.125-0.999-7.125-2.863c0-0.732,0.199-1.465,0.732-2.131c0.4-0.666,0.933-1.065,1.531-1.065
			c0.134,0,0.866,0.133,2.197,0.266c1.332,0.2,2.465,0.267,3.264,0.267c2.197,0,3.33-0.732,3.33-2.33
			c0-0.933-0.866-3.463-2.465-7.458c-1.598-3.996-2.396-6.992-2.396-8.856c0-3.063,1.531-5.194,4.66-6.326
			c0.666-1.065,1.932-1.665,3.93-1.665c3.062,0,4.728,0.999,4.994,2.997c0.266,0.532,0.399,1.065,0.399,1.531
			C99.794,30.532,99.527,31.132,99.062,31.531z"/>
		<path fill="#8ED8F8" d="M113.312,47.646c0.199,2.664,0.332,5.395,0.332,8.19c0,3.063-0.332,6.193-0.998,9.257
			c-0.6,2.729-1.598,4.128-2.996,4.128c-0.732,0-1.398-0.333-1.932-0.865c-0.533-0.6-0.799-1.266-0.799-1.998
			c0-0.2,0.199-1.198,0.666-2.996c0.398-1.865,0.666-4.861,0.666-9.123c0-2.131-0.067-3.729-0.2-4.795
			c-1.864-0.133-2.73-1.065-2.73-2.796c0-1.398,0.866-2.397,2.73-3.063c-0.067-0.333-0.067-0.866-0.067-1.531
			c0-5.194,0.8-9.855,2.398-13.918c2.33-5.859,5.593-8.789,9.788-8.789c2.93,0,5.261,1.198,6.858,3.529
			c1.465,2.131,2.197,4.794,2.197,7.99C129.227,38.19,123.9,43.784,113.312,47.646z M122.968,26.404
			c-0.733-0.933-1.665-1.466-2.797-1.466c-1.864,0-3.529,1.998-4.928,5.927c-1.265,3.596-1.864,7.259-1.864,10.854
			c6.992-2.53,10.521-6.526,10.521-11.986C123.9,28.468,123.566,27.336,122.968,26.404z"/>
		<path fill="#8ED8F8" d="M155.531,55.97c-5.061,0-8.79-2.265-11.188-6.859h-1.998c-1.73,0-3.396-0.332-5.127-1.064
			c-2.264-0.933-3.33-2.131-3.33-3.597c0-1.864,0.866-2.796,2.598-2.796c0.399,0,1.065,0.332,1.998,0.998
			c0.932,0.666,1.797,0.999,2.73,0.999h1.531c-0.2-1.132-0.267-2.064-0.267-2.73c0-3.196,0.799-6.192,2.397-8.989
			c1.864-3.263,4.195-4.928,7.059-4.928c1.664,0,3.262,0.799,4.86,2.397s2.397,3.396,2.397,5.261c0,4.928-3.33,9.189-9.988,12.785
			c1.598,1.931,3.329,2.863,5.326,2.863c0.533,0,1.398-0.066,2.531-0.2c1.132-0.133,1.998-0.266,2.53-0.266
			c0.666,0,1.331,0.333,1.864,0.865c0.533,0.666,0.799,1.332,0.799,1.998C162.256,54.838,159.992,55.97,155.531,55.97z
			 M153.267,33.396c-0.532-0.399-1.065-0.666-1.599-0.666c-1.197,0-2.131,0.999-2.796,2.997c-0.666,1.665-0.933,3.396-0.933,5.193
			v1.199c3.996-2.597,5.993-4.994,5.993-7.191C153.933,34.395,153.666,33.929,153.267,33.396z"/>
		<path fill="#8ED8F8" d="M184.631,52.107c-2.529,1.998-5.127,2.996-7.657,2.996c-2.796,0-5.128-0.932-6.991-2.729
			c-1.865-1.865-2.797-4.195-2.797-7.125c0-4.129,1.265-7.925,3.861-11.387c3.197-4.329,6.926-6.526,11.121-6.526
			c0.998,0,1.931,0.333,2.797,0.933c0.799,0.666,1.198,1.465,1.198,2.53c0,0.799-0.399,1.531-1.132,2.331
			c-0.865,0.799-1.731,1.132-2.598,1.132c-1.664,0-2.863-0.2-3.662-0.666c-1.798,1.198-3.263,2.863-4.461,4.86
			c-1.199,1.998-1.799,4.062-1.799,6.127c0,3.329,1.266,4.928,3.93,4.928c1.664,0,3.062-0.4,4.195-1.266
			c0.666-0.666,1.465-1.332,2.264-1.998c0.932-0.865,1.73-1.331,2.264-1.331c0.666,0,1.266,0.333,1.799,0.865
			c0.531,0.666,0.799,1.332,0.799,1.998C187.762,49.11,186.695,50.509,184.631,52.107z"/>
		<path fill="#8ED8F8" d="M215.996,32.729c-0.533,0.666-1.133,0.999-1.732,0.999c-0.932,0-1.797-0.267-2.463-0.932
			c-0.467,0-1.599,0-3.463-0.067c-1.865,0-3.063-0.066-3.729-0.066c-1.199,5.194-1.932,8.391-2.198,9.655
			c-0.799,3.729-1.198,7.125-1.331,10.056c0.665,0.532,0.998,1.265,0.998,2.33c0,0.666-0.333,1.266-0.932,1.865
			c-0.666,0.532-1.266,0.799-1.932,0.799c-2.197,0-3.263-1.865-3.263-5.461c0-1.997,0.399-5.193,1.265-9.521l1.998-9.589
			c-2.064,0-3.062-0.933-3.062-2.864c0-1.198,0.398-1.997,1.198-2.396c0.532-0.267,1.531-0.467,3.13-0.467
			c1.73-7.058,3.195-12.519,4.395-16.514c0.399-1.398,1.199-2.131,2.396-2.131c1.732,0,2.664,0.999,2.864,2.996
			c-0.399,1.398-0.933,2.997-1.532,4.861c-0.799,2.73-1.664,6.26-2.597,10.654c0.466,0,2.131,0.066,4.928,0.133
			c3.862,0.2,5.794,1.332,5.794,3.463C216.729,31.331,216.461,32.063,215.996,32.729z"/>
		<path fill="#8ED8F8" d="M243.896,39.922c-0.932,2.796-1.332,5.46-1.332,8.124c0,0.799,0.134,1.997,0.467,3.528
			c0.267,1.599,0.467,2.397,0.467,2.598c0,0.666-0.334,1.331-0.866,1.864c-0.599,0.399-1.265,0.666-1.931,0.666
			c-1.932,0-3.063-2.597-3.396-7.658c-3.729,3.729-7.059,5.594-10.055,5.594c-1.932,0-3.596-0.799-4.994-2.464
			c-1.465-1.598-2.131-3.396-2.131-5.46c0-3.862,2.264-7.991,6.858-12.253c4.396-4.128,8.39-6.259,12.053-6.259
			c0.866,0,1.731,0.399,2.597,1.065c0.799,0.665,1.266,1.465,1.266,2.264c0,0.333-0.066,0.666-0.133,0.933
			c0.398,1.198,0.665,2.53,0.665,4.062c0.532,0.666,0.866,1.332,0.866,1.931C244.297,38.723,244.164,39.189,243.896,39.922z
			 M237.038,34.062c-1.265,0-3.462,1.531-6.525,4.462c-3.396,3.263-5.062,5.926-5.062,8.057c0,1.665,0.666,2.464,2.064,2.464
			c1.998,0,4.328-1.465,6.859-4.527c2.53-3.063,3.861-5.728,3.861-7.991C238.236,34.928,237.838,34.062,237.038,34.062z"/>
		<path fill="#8ED8F8" d="M268.536,52.107c-2.53,1.998-5.128,2.996-7.657,2.996c-2.797,0-5.128-0.932-6.992-2.729
			c-1.865-1.865-2.797-4.195-2.797-7.125c0-4.129,1.266-7.925,3.862-11.387c3.196-4.329,6.925-6.526,11.12-6.526
			c0.999,0,1.932,0.333,2.797,0.933c0.799,0.666,1.199,1.465,1.199,2.53c0,0.799-0.4,1.531-1.133,2.331
			c-0.865,0.799-1.73,1.132-2.597,1.132c-1.665,0-2.863-0.2-3.663-0.666c-1.797,1.198-3.262,2.863-4.461,4.86
			c-1.199,1.998-1.798,4.062-1.798,6.127c0,3.329,1.265,4.928,3.929,4.928c1.665,0,3.062-0.4,4.195-1.266
			c0.666-0.666,1.465-1.332,2.264-1.998c0.933-0.865,1.731-1.331,2.264-1.331c0.666,0,1.266,0.333,1.799,0.865
			c0.533,0.666,0.799,1.332,0.799,1.998C271.666,49.11,270.601,50.509,268.536,52.107z"/>
		<path fill="#8ED8F8" d="M305.36,33.862c-0.532,1.398-1.065,3.995-1.731,7.791c-0.6,3.462-0.865,5.659-0.865,6.592
			c0,0.533,0.066,1.198,0.199,1.998c0.134,0.865,0.2,1.398,0.2,1.598c0,0.999-0.267,1.864-0.8,2.598
			c-0.531,0.799-1.265,1.198-2.197,1.198c-0.799,0-1.531-0.267-2.131-0.666c-0.666-0.399-0.998-0.999-0.998-1.798
			c0-0.533,0.133-0.999,0.466-1.531c0-1.133,0.267-3.862,0.8-8.258c-6.526,7.525-11.521,11.254-15.05,11.254
			c-1.599,0-2.863-0.399-3.862-1.198c-1.065-0.866-1.598-2.064-1.598-3.663c0-1.331,0.398-3.995,1.332-8.057
			c0.932-4.729,1.465-7.592,1.465-8.657c0-0.133,0-0.333,0-0.732c-0.066-0.267-0.066-0.532-0.066-0.732
			c0-0.666,0.266-1.332,0.799-1.997c0.466-0.666,0.998-0.999,1.664-0.999c1.799,0,2.73,1.465,2.73,4.262
			c0,1.198-0.4,3.795-1.199,7.657c-0.865,3.996-1.265,6.459-1.265,7.525c0,0.532,0.267,0.799,0.799,0.799
			c3.13,0,8.856-6.127,17.247-18.445c0.666-0.933,1.332-1.398,2.131-1.398c1.598,0,2.396,0.932,2.396,2.797
			C305.826,32.264,305.627,32.93,305.36,33.862z"/>
		<path fill="#8ED8F8" d="M322.275,11.754l-0.467,0.666c-1.998,7.658-2.996,15.315-2.996,22.974c0,3.196,0.332,8.923,0.998,17.047
			c0,0.267,0,0.666,0.134,1.265c0.066,0.533,0.134,0.933,0.134,1.133c0,0.333-0.268,0.665-0.666,0.998
			c-0.467,0.4-0.866,0.6-1.199,0.6c-1.332,0-2.464-0.999-3.396-2.93c-0.998-1.932-1.465-3.995-1.465-6.26
			c0-2.064,0.2-3.529,0.666-4.328c-0.266-3.995-0.399-7.125-0.399-9.389c0-8.79,1.265-17.313,3.862-25.57
			c0.732-2.397,1.531-3.663,2.396-3.663c0.8,0,1.732,0.6,2.797,1.665c1.066,1.198,1.666,2.131,1.666,2.93
			C324.34,10.156,323.607,11.088,322.275,11.754z"/>
		<path fill="#8ED8F8" d="M352.84,39.922c-0.932,2.796-1.332,5.46-1.332,8.124c0,0.799,0.134,1.997,0.467,3.528
			c0.267,1.599,0.467,2.397,0.467,2.598c0,0.666-0.334,1.331-0.866,1.864c-0.599,0.399-1.265,0.666-1.931,0.666
			c-1.932,0-3.063-2.597-3.396-7.658c-3.729,3.729-7.059,5.594-10.055,5.594c-1.932,0-3.596-0.799-4.994-2.464
			c-1.465-1.598-2.131-3.396-2.131-5.46c0-3.862,2.264-7.991,6.858-12.253c4.396-4.128,8.39-6.259,12.053-6.259
			c0.866,0,1.731,0.399,2.597,1.065c0.799,0.665,1.266,1.465,1.266,2.264c0,0.333-0.066,0.666-0.133,0.933
			c0.398,1.198,0.665,2.53,0.665,4.062c0.532,0.666,0.866,1.332,0.866,1.931C353.24,38.723,353.107,39.189,352.84,39.922z
			 M345.981,34.062c-1.265,0-3.462,1.531-6.525,4.462c-3.396,3.263-5.062,5.926-5.062,8.057c0,1.665,0.666,2.464,2.064,2.464
			c1.998,0,4.328-1.465,6.859-4.527c2.53-3.063,3.861-5.728,3.861-7.991C347.18,34.928,346.781,34.062,345.981,34.062z"/>
		<path fill="#8ED8F8" d="M382.74,33.329c-1.332,0.799-2.531,1.132-3.596,1.132c-0.067,0-0.467-0.133-1.266-0.399
			c-5.395,2.664-8.723,8.058-9.922,16.182c-0.333,2.131-0.6,3.529-0.799,4.195c-0.4,1.198-1.066,1.798-1.865,1.798
			s-1.598-0.467-2.264-1.266c-0.666-0.865-0.932-1.798-0.932-2.93c0-0.2,0.133-1.065,0.532-2.664
			c0.333-1.465,0.532-3.062,0.532-4.86c0-1.599-0.199-3.729-0.466-6.326c-1.198-1.665-1.798-3.996-1.798-6.926
			c0-0.666,0.199-1.332,0.6-1.997c0.332-0.533,0.799-0.866,1.332-0.866c1.265,0,2.264,0.732,2.996,2.064
			c0.533,1.198,0.998,3.196,1.398,5.993c4.062-6.126,8.723-9.189,13.917-9.189c0.866,0,1.665,0.399,2.464,1.198
			c0.732,0.8,1.132,1.665,1.132,2.598C384.737,31.864,384.072,32.663,382.74,33.329z"/>
		<path fill="#FFFFFF" d="M176.799,79.342c-3.301,4.166-6.287,9.039-8.959,14.619c-2.044,4.245-4.088,8.41-6.053,12.654
			c-2.357,4.873-4.559,8.961-6.602,12.183c-1.729,2.673-3.223,4.088-4.48,4.088c-1.415,0-2.986-1.494-4.638-4.402
			c-3.93-6.602-7.31-14.068-10.14-22.558c-3.222-9.432-4.794-17.37-4.794-23.814c0-5.974,1.101-9.039,3.38-9.039
			c1.336,0,2.357,0.55,2.986,1.65c1.729,3.145,2.594,7.074,2.594,11.79c0,2.357-0.629,4.087-1.729,5.03
			c2.829,12.104,6.995,22.872,12.497,32.382c3.38-6.995,8.724-17.448,16.034-31.36c0.314-1.886,1.1-3.537,2.279-4.951
			c2.357-2.908,4.166-4.401,5.58-4.401c2.043,0,3.065,1.179,3.065,3.536C177.821,77.613,177.428,78.478,176.799,79.342z"/>
		<path fill="#FFFFFF" d="M193.693,101.192c-1.572,6.131-2.438,11.476-2.594,16.191c1.021,0.943,1.572,2.122,1.572,3.537
			c0,0.471-0.314,0.864-0.787,1.336c-0.471,0.472-0.943,0.707-1.414,0.707c-3.615,0-5.345-3.223-5.345-9.667
			c0-3.065,1.021-9.039,3.144-17.921c-0.156-0.943-0.235-1.572-0.235-1.887c0-1.021,0.55-1.886,1.808-2.515
			c3.459,0,5.188,1.65,5.188,4.951L193.693,101.192z M196.051,70.225c-0.236,0-0.707-0.078-1.336-0.314
			c-2.279-0.786-3.38-2.829-3.38-6.131c0-1.65,1.101-2.829,3.302-3.615c2.672,0.314,4.008,2.044,4.008,5.345
			C198.645,68.652,197.78,70.225,196.051,70.225z"/>
		<path fill="#FFFFFF" d="M226.623,94.59c-0.629,0.629-1.336,0.865-2.121,0.865c-0.394,0-1.102,0-2.045-0.157
			c-0.942,0-1.65-0.079-2.121-0.079c-2.044,0-3.065,0.786-3.065,2.279c0,0.943,0.942,3.852,2.907,8.725
			c1.887,4.951,2.908,8.646,2.908,11.004c0,2.279-0.942,4.087-2.75,5.58c-2.044,1.493-4.795,2.279-8.253,2.279
			c-5.659,0-8.41-1.179-8.41-3.38c0-0.864,0.235-1.729,0.864-2.515c0.472-0.786,1.101-1.258,1.809-1.258
			c0.156,0,1.021,0.157,2.594,0.314c1.571,0.235,2.908,0.314,3.851,0.314c2.594,0,3.931-0.864,3.931-2.751
			c0-1.101-1.022-4.087-2.908-8.803c-1.887-4.716-2.83-8.253-2.83-10.454c0-3.615,1.808-6.13,5.502-7.467
			c0.786-1.257,2.279-1.965,4.637-1.965c3.616,0,5.581,1.179,5.896,3.537c0.314,0.629,0.472,1.258,0.472,1.808
			C227.488,93.411,227.174,94.118,226.623,94.59z"/>
		<path fill="#FFFFFF" d="M259.867,96.005c-0.629,0.786-1.336,1.179-2.043,1.179c-1.101,0-2.122-0.314-2.908-1.101
			c-0.551,0-1.887,0-4.087-0.078c-2.2,0-3.616-0.079-4.401-0.079c-1.415,6.131-2.279,9.904-2.594,11.397
			c-0.943,4.401-1.415,8.41-1.572,11.868c0.786,0.629,1.18,1.493,1.18,2.751c0,0.786-0.394,1.493-1.102,2.2
			c-0.785,0.629-1.492,0.943-2.279,0.943c-2.594,0-3.852-2.2-3.852-6.445c0-2.357,0.473-6.13,1.494-11.239l2.357-11.318
			c-2.436,0-3.615-1.1-3.615-3.379c0-1.415,0.472-2.358,1.415-2.83c0.629-0.314,1.808-0.55,3.694-0.55
			c2.043-8.332,3.772-14.776,5.188-19.492c0.471-1.651,1.414-2.516,2.829-2.516c2.044,0,3.144,1.179,3.38,3.537
			c-0.472,1.65-1.101,3.537-1.809,5.737c-0.942,3.223-1.965,7.389-3.064,12.576c0.551,0,2.516,0.078,5.816,0.157
			c4.559,0.235,6.838,1.571,6.838,4.087C260.732,94.354,260.418,95.219,259.867,96.005z"/>
		<path fill="#FFFFFF" d="M292.797,104.493c-1.1,3.302-1.571,6.445-1.571,9.589c0,0.943,0.157,2.358,0.55,4.166
			c0.314,1.887,0.551,2.829,0.551,3.065c0,0.786-0.393,1.572-1.021,2.201c-0.708,0.471-1.494,0.785-2.279,0.785
			c-2.279,0-3.616-3.065-4.01-9.038c-4.4,4.401-8.33,6.602-11.867,6.602c-2.279,0-4.244-0.942-5.896-2.908
			c-1.729-1.886-2.515-4.008-2.515-6.444c0-4.559,2.672-9.432,8.096-14.462c5.188-4.873,9.902-7.389,14.227-7.389
			c1.021,0,2.043,0.472,3.064,1.258c0.943,0.786,1.494,1.729,1.494,2.672c0,0.394-0.079,0.786-0.158,1.101
			c0.473,1.415,0.786,2.986,0.786,4.795c0.629,0.785,1.022,1.571,1.022,2.279C293.27,103.079,293.111,103.629,292.797,104.493z
			 M284.701,97.577c-1.492,0-4.086,1.808-7.701,5.266c-4.01,3.852-5.975,6.995-5.975,9.511c0,1.965,0.787,2.908,2.438,2.908
			c2.357,0,5.108-1.729,8.096-5.345c2.986-3.616,4.559-6.76,4.559-9.432C286.117,98.599,285.645,97.577,284.701,97.577z"/>
	</g>
</g>
</svg>
