<?xml version="1.0" encoding="utf-8"?>
<!-- Generator: Adobe Illustrator 16.0.0, SVG Export Plug-In . SVG Version: 6.00 Build 0)  -->
<!DOCTYPE svg PUBLIC "-//W3C//DTD SVG 1.1//EN" "http://www.w3.org/Graphics/SVG/1.1/DTD/svg11.dtd">
<svg version="1.1" id="Layer_1" xmlns="http://www.w3.org/2000/svg" xmlns:xlink="http://www.w3.org/1999/xlink" x="0px" y="0px"
	 width="425.2px" height="160.625px" viewBox="0 0 425.2 160.625" enable-background="new 0 0 425.2 160.625" xml:space="preserve">
<g>
	<g>
		<path fill="#FFFFFF" d="M41.367,35.021c3.149,1.575,5.669,2.992,7.506,4.357c3.938,2.939,5.932,5.616,5.932,8.083
			c0,1.47-0.63,2.257-1.89,2.257c-1.417,0-2.152-0.787-2.152-2.361c-0.734-1.47-2.677-3.255-5.826-5.302
			c-2.677-1.68-4.986-2.887-6.981-3.622c0,3.149,0.263,5.984,0.683,8.504c0,1.521-0.63,2.31-1.89,2.31
			c-1.103,0-1.732-0.577-1.89-1.628c-0.524-2.991-0.787-5.879-0.787-8.713v-2.362c-1.68,0-2.52-0.683-2.52-2.1
			c0-1.47,0.892-2.257,2.729-2.414c0.21-2.362,0.524-5.984,0.997-10.918c-1.207-0.315-1.89-1.103-1.995-2.415
			c0.105-1.05,0.578-1.994,1.418-2.781c1.837-2.048,3.937-3.675,6.352-4.935c2.361-1.207,4.619-1.837,6.771-1.837
			c2.415,0,4.515,0.893,6.247,2.624c1.731,1.785,2.624,4.042,2.624,6.667C56.694,24.785,51.551,30.297,41.367,35.021z
			 M51.445,14.917c-0.893-0.682-1.942-1.05-3.097-1.05c-2.992,0-5.984,1.155-9.028,3.412c-0.105,1.784-0.315,4.566-0.683,8.346
			c-0.104,1.103-0.315,3.045-0.577,5.827c3.464-1.051,6.719-2.835,9.815-5.354c3.307-2.782,4.986-5.406,4.986-7.821
			C52.862,16.912,52.391,15.757,51.445,14.917z"/>
		<path fill="#FFFFFF" d="M77.058,49.141c-3.989,0-6.929-1.784-8.818-5.406h-1.574c-1.365,0-2.677-0.263-4.042-0.84
			c-1.785-0.735-2.625-1.68-2.625-2.835c0-1.469,0.683-2.204,2.048-2.204c0.314,0,0.84,0.263,1.574,0.787
			c0.735,0.525,1.417,0.788,2.152,0.788h1.207c-0.157-0.893-0.21-1.628-0.21-2.152c0-2.52,0.63-4.882,1.89-7.086
			c1.47-2.572,3.308-3.885,5.564-3.885c1.312,0,2.571,0.63,3.831,1.89s1.891,2.677,1.891,4.146c0,3.885-2.625,7.244-7.874,10.078
			c1.26,1.522,2.624,2.257,4.199,2.257c0.42,0,1.103-0.052,1.995-0.157c0.892-0.104,1.574-0.21,1.994-0.21
			c0.525,0,1.05,0.263,1.47,0.683c0.42,0.524,0.63,1.05,0.63,1.575C82.359,48.249,80.574,49.141,77.058,49.141z M75.273,31.347
			c-0.42-0.314-0.84-0.525-1.26-0.525c-0.945,0-1.68,0.788-2.205,2.362c-0.524,1.312-0.734,2.677-0.734,4.095v0.944
			c3.149-2.047,4.724-3.937,4.724-5.669C75.798,32.134,75.588,31.767,75.273,31.347z"/>
		<path fill="#FFFFFF" d="M100.624,29.877c-0.42,0.42-0.893,0.577-1.417,0.577c-0.263,0-0.735,0-1.365-0.104
			c-0.63,0-1.103-0.053-1.417-0.053c-1.365,0-2.048,0.524-2.048,1.522c0,0.63,0.631,2.572,1.942,5.826
			c1.26,3.307,1.942,5.773,1.942,7.349c0,1.522-0.63,2.729-1.837,3.727c-1.365,0.997-3.202,1.522-5.512,1.522
			c-3.779,0-5.616-0.787-5.616-2.257c0-0.577,0.157-1.155,0.577-1.68c0.315-0.525,0.735-0.84,1.207-0.84
			c0.105,0,0.683,0.104,1.732,0.21c1.05,0.157,1.942,0.21,2.572,0.21c1.731,0,2.624-0.577,2.624-1.837
			c0-0.735-0.682-2.73-1.941-5.879c-1.26-3.15-1.891-5.512-1.891-6.981c0-2.415,1.208-4.095,3.675-4.987
			c0.524-0.84,1.522-1.312,3.097-1.312c2.415,0,3.727,0.787,3.938,2.362c0.209,0.42,0.314,0.84,0.314,1.207
			C101.201,29.09,100.991,29.562,100.624,29.877z"/>
		<path fill="#FFFFFF" d="M120.936,49.141c-3.989,0-6.929-1.784-8.818-5.406h-1.574c-1.365,0-2.678-0.263-4.042-0.84
			c-1.784-0.735-2.624-1.68-2.624-2.835c0-1.469,0.682-2.204,2.047-2.204c0.314,0,0.84,0.263,1.574,0.787
			c0.735,0.525,1.418,0.788,2.152,0.788h1.207c-0.157-0.893-0.21-1.628-0.21-2.152c0-2.52,0.63-4.882,1.89-7.086
			c1.47-2.572,3.307-3.885,5.564-3.885c1.312,0,2.572,0.63,3.832,1.89s1.889,2.677,1.889,4.146c0,3.885-2.624,7.244-7.873,10.078
			c1.26,1.522,2.625,2.257,4.199,2.257c0.42,0,1.103-0.052,1.994-0.157c0.893-0.104,1.575-0.21,1.995-0.21
			c0.524,0,1.05,0.263,1.47,0.683c0.42,0.524,0.63,1.05,0.63,1.575C126.237,48.249,124.453,49.141,120.936,49.141z M119.151,31.347
			c-0.42-0.314-0.84-0.525-1.26-0.525c-0.945,0-1.68,0.788-2.205,2.362c-0.524,1.312-0.734,2.677-0.734,4.095v0.944
			c3.149-2.047,4.724-3.937,4.724-5.669C119.676,32.134,119.466,31.767,119.151,31.347z"/>
		<path fill="#FFFFFF" d="M148.019,31.294c-1.05,0.63-1.995,0.893-2.835,0.893c-0.052,0-0.367-0.105-0.997-0.314
			c-4.251,2.1-6.876,6.351-7.821,12.755c-0.262,1.68-0.472,2.782-0.629,3.307c-0.315,0.944-0.84,1.417-1.471,1.417
			c-0.629,0-1.26-0.367-1.784-0.997c-0.524-0.683-0.735-1.417-0.735-2.31c0-0.157,0.105-0.84,0.42-2.1
			c0.263-1.154,0.42-2.414,0.42-3.832c0-1.26-0.157-2.939-0.367-4.986c-0.944-1.312-1.417-3.149-1.417-5.459
			c0-0.525,0.157-1.05,0.473-1.574c0.263-0.42,0.63-0.683,1.05-0.683c0.997,0,1.784,0.577,2.361,1.627
			c0.42,0.944,0.788,2.52,1.103,4.724c3.202-4.828,6.876-7.243,10.971-7.243c0.683,0,1.312,0.315,1.942,0.944
			c0.577,0.631,0.893,1.312,0.893,2.048C149.594,30.14,149.068,30.77,148.019,31.294z"/>
		<path fill="#FFFFFF" d="M171.111,32.344c-4.776,5.092-8.45,9.921-11.075,14.54c-0.892,1.522-1.784,2.31-2.624,2.31
			c-1.207,0-2.152-1.207-2.835-3.517c-0.997-3.149-1.89-7.559-2.677-13.28c-0.21-1.26-0.263-2.152-0.263-2.624
			c0-0.525,0.21-1.051,0.63-1.471c0.473-0.42,0.945-0.629,1.365-0.629c0.524,0,0.997,0.209,1.417,0.577
			c0.42,0.42,0.63,0.84,0.735,1.312c0.787,5.512,1.469,9.606,1.994,12.336c3.569-4.882,7.401-9.554,11.495-14.016
			c0-0.629,0.21-1.207,0.63-1.731c0.367-0.42,0.84-0.683,1.47-0.683c0.577,0,1.103,0.21,1.628,0.63
			c0.42,0.42,0.682,0.944,0.682,1.575C173.684,28.933,172.791,30.507,171.111,32.344z"/>
		<path fill="#FFFFFF" d="M195.676,36.491c-0.734,2.204-1.05,4.304-1.05,6.403c0,0.63,0.104,1.575,0.367,2.782
			c0.21,1.26,0.368,1.89,0.368,2.047c0,0.525-0.263,1.05-0.683,1.47c-0.473,0.315-0.997,0.524-1.522,0.524
			c-1.522,0-2.414-2.047-2.677-6.036c-2.939,2.939-5.564,4.409-7.927,4.409c-1.521,0-2.834-0.63-3.937-1.941
			c-1.154-1.26-1.68-2.678-1.68-4.305c0-3.045,1.785-6.299,5.407-9.658c3.464-3.254,6.613-4.934,9.5-4.934
			c0.683,0,1.365,0.314,2.047,0.84c0.631,0.524,0.998,1.154,0.998,1.784c0,0.263-0.053,0.524-0.105,0.735
			c0.315,0.944,0.525,1.994,0.525,3.201c0.42,0.525,0.682,1.05,0.682,1.522C195.99,35.546,195.886,35.913,195.676,36.491z
			 M190.27,31.872c-0.998,0-2.729,1.207-5.145,3.517c-2.677,2.571-3.989,4.671-3.989,6.351c0,1.312,0.525,1.942,1.628,1.942
			c1.574,0,3.411-1.154,5.406-3.569c1.994-2.414,3.044-4.514,3.044-6.299C191.214,32.554,190.899,31.872,190.27,31.872z"/>
		<path fill="#FFFFFF" d="M215.096,46.097c-1.995,1.574-4.042,2.361-6.037,2.361c-2.204,0-4.041-0.734-5.511-2.151
			c-1.47-1.47-2.205-3.308-2.205-5.616c0-3.255,0.997-6.247,3.045-8.977c2.52-3.412,5.459-5.144,8.766-5.144
			c0.787,0,1.522,0.263,2.204,0.734c0.631,0.525,0.945,1.155,0.945,1.995c0,0.63-0.314,1.207-0.893,1.837
			c-0.682,0.63-1.364,0.893-2.047,0.893c-1.312,0-2.257-0.157-2.887-0.525c-1.418,0.945-2.572,2.257-3.518,3.832
			c-0.944,1.575-1.417,3.202-1.417,4.829c0,2.625,0.997,3.885,3.097,3.885c1.312,0,2.415-0.315,3.308-0.998
			c0.524-0.524,1.154-1.05,1.784-1.574c0.735-0.683,1.365-1.05,1.785-1.05c0.524,0,0.997,0.263,1.417,0.683
			c0.42,0.524,0.63,1.049,0.63,1.574C217.562,43.734,216.723,44.837,215.096,46.097z"/>
		<path fill="#FFFFFF" d="M229.213,34.286c-1.05,4.094-1.627,7.664-1.732,10.812c0.683,0.631,1.05,1.418,1.05,2.362
			c0,0.315-0.21,0.577-0.524,0.893c-0.315,0.315-0.631,0.473-0.945,0.473c-2.414,0-3.569-2.152-3.569-6.456
			c0-2.048,0.683-6.037,2.1-11.969c-0.104-0.629-0.157-1.049-0.157-1.26c0-0.682,0.367-1.26,1.207-1.68
			c2.31,0,3.465,1.103,3.465,3.308L229.213,34.286z M230.787,13.604c-0.157,0-0.473-0.052-0.893-0.209
			c-1.521-0.525-2.257-1.891-2.257-4.095c0-1.103,0.735-1.89,2.205-2.415c1.784,0.211,2.677,1.365,2.677,3.57
			C232.52,12.556,231.942,13.604,230.787,13.604z"/>
		<path fill="#FFFFFF" d="M250.89,44.89c-1.731,2.414-3.884,3.568-6.403,3.568c-2.205,0-4.042-0.892-5.512-2.571
			c-1.47-1.732-2.152-3.937-2.152-6.614c0-2.257,0.473-4.409,1.522-6.403c1.05-2.205,2.52-3.779,4.304-4.672
			c0.42-0.157,0.998-0.473,1.732-0.893c0.63-0.42,1.103-0.683,1.522-0.683c0.104,0,0.524,0.105,1.26,0.315
			c1.837,0.63,3.359,1.784,4.566,3.412c1.155,1.68,1.732,3.569,1.732,5.616C253.462,39.535,252.569,42.475,250.89,44.89z
			 M247.793,32.449c-0.84,0-1.522-0.157-2.047-0.473c-1.47,0-2.678,0.893-3.622,2.572c-0.84,1.47-1.207,3.044-1.207,4.724
			c0,1.26,0.314,2.362,0.997,3.307c0.63,0.998,1.47,1.471,2.52,1.471c1.26,0,2.362-0.788,3.412-2.362
			c0.944-1.522,1.47-3.149,1.47-4.935C249.315,34.549,248.79,33.079,247.793,32.449z"/>
		<path fill="#FFFFFF" d="M277.291,47.198c-0.105,0.945-0.525,1.471-1.26,1.471c-0.788,0-1.418-0.315-1.942-0.945
			c-0.525-0.683-0.788-1.417-0.788-2.257c0-0.053,0.105-1.05,0.315-2.992l0.787-6.719c-4.356,3.307-7.401,6.403-9.186,9.343
			c-0.367,0.631-0.683,1.312-0.997,1.942c-0.525,0.84-1.05,1.312-1.575,1.312c-2.204,0-3.254-3.097-3.254-9.343
			c0-4.095,0.577-8.241,1.731-12.493c0.211-0.735,0.578-1.155,1.208-1.155c0.787,0,1.47,0.315,1.994,0.893
			c0.525,0.683,0.788,1.418,0.788,2.258c-0.263,1.049-0.525,2.204-0.788,3.464c-0.524,2.782-0.787,5.459-0.787,8.083
			c3.727-4.514,7.716-7.979,11.968-10.34c0.734,0.053,1.417,0.314,2.047,0.787c0.63,0.525,0.998,1.154,0.998,1.942
			C278.551,34.863,278.131,39.798,277.291,47.198z"/>
		<path fill="#FFFFFF" d="M299.439,49.141c-3.989,0-6.929-1.784-8.818-5.406h-1.574c-1.365,0-2.678-0.263-4.042-0.84
			c-1.784-0.735-2.624-1.68-2.624-2.835c0-1.469,0.682-2.204,2.047-2.204c0.314,0,0.84,0.263,1.574,0.787
			c0.735,0.525,1.418,0.788,2.152,0.788h1.207c-0.157-0.893-0.21-1.628-0.21-2.152c0-2.52,0.63-4.882,1.89-7.086
			c1.47-2.572,3.307-3.885,5.564-3.885c1.312,0,2.572,0.63,3.832,1.89s1.889,2.677,1.889,4.146c0,3.885-2.624,7.244-7.873,10.078
			c1.26,1.522,2.625,2.257,4.199,2.257c0.42,0,1.103-0.052,1.994-0.157c0.893-0.104,1.575-0.21,1.995-0.21
			c0.524,0,1.05,0.263,1.47,0.683c0.42,0.524,0.63,1.05,0.63,1.575C304.741,48.249,302.957,49.141,299.439,49.141z M297.655,31.347
			c-0.42-0.314-0.84-0.525-1.26-0.525c-0.945,0-1.68,0.788-2.205,2.362c-0.524,1.312-0.734,2.677-0.734,4.095v0.944
			c3.149-2.047,4.724-3.937,4.724-5.669C298.18,32.134,297.97,31.767,297.655,31.347z"/>
		<path fill="#FFFFFF" d="M323.006,29.877c-0.42,0.42-0.893,0.577-1.418,0.577c-0.262,0-0.734,0-1.364-0.104
			c-0.63,0-1.103-0.053-1.417-0.053c-1.365,0-2.047,0.524-2.047,1.522c0,0.63,0.629,2.572,1.941,5.826
			c1.26,3.307,1.942,5.773,1.942,7.349c0,1.522-0.63,2.729-1.837,3.727c-1.365,0.997-3.202,1.522-5.512,1.522
			c-3.779,0-5.616-0.787-5.616-2.257c0-0.577,0.157-1.155,0.577-1.68c0.314-0.525,0.734-0.84,1.207-0.84
			c0.105,0,0.683,0.104,1.732,0.21c1.05,0.157,1.942,0.21,2.572,0.21c1.732,0,2.624-0.577,2.624-1.837
			c0-0.735-0.683-2.73-1.942-5.879c-1.26-3.15-1.889-5.512-1.889-6.981c0-2.415,1.207-4.095,3.674-4.987
			c0.525-0.84,1.522-1.312,3.097-1.312c2.415,0,3.728,0.787,3.937,2.362c0.211,0.42,0.315,0.84,0.315,1.207
			C323.583,29.09,323.373,29.562,323.006,29.877z"/>
		<path fill="#FFFFFF" d="M364.47,36.491c-0.735,2.204-1.05,4.304-1.05,6.403c0,0.63,0.105,1.575,0.367,2.782
			c0.21,1.26,0.367,1.89,0.367,2.047c0,0.525-0.262,1.05-0.682,1.47c-0.473,0.315-0.998,0.524-1.522,0.524
			c-1.522,0-2.415-2.047-2.677-6.036c-2.939,2.939-5.564,4.409-7.926,4.409c-1.522,0-2.835-0.63-3.938-1.941
			c-1.154-1.26-1.68-2.678-1.68-4.305c0-3.045,1.785-6.299,5.406-9.658c3.465-3.254,6.614-4.934,9.501-4.934
			c0.683,0,1.365,0.314,2.048,0.84c0.629,0.524,0.997,1.154,0.997,1.784c0,0.263-0.053,0.524-0.105,0.735
			c0.315,0.944,0.525,1.994,0.525,3.201c0.42,0.525,0.683,1.05,0.683,1.522C364.785,35.546,364.68,35.913,364.47,36.491z
			 M359.063,31.872c-0.997,0-2.729,1.207-5.145,3.517c-2.677,2.571-3.989,4.671-3.989,6.351c0,1.312,0.525,1.942,1.627,1.942
			c1.575,0,3.412-1.154,5.407-3.569c1.994-2.414,3.044-4.514,3.044-6.299C360.008,32.554,359.693,31.872,359.063,31.872z"/>
		<path fill="#FFFFFF" d="M378.797,14.287l-0.367,0.525c-1.575,6.036-2.362,12.072-2.362,18.108c0,2.52,0.263,7.034,0.787,13.438
			c0,0.211,0,0.525,0.105,0.998c0.052,0.42,0.104,0.734,0.104,0.893c0,0.262-0.21,0.524-0.524,0.787
			c-0.368,0.314-0.683,0.473-0.945,0.473c-1.05,0-1.942-0.788-2.677-2.311c-0.787-1.521-1.154-3.148-1.154-4.934
			c0-1.627,0.157-2.782,0.524-3.412c-0.21-3.149-0.315-5.616-0.315-7.4c0-6.93,0.998-13.648,3.045-20.156
			c0.577-1.891,1.207-2.888,1.89-2.888c0.63,0,1.364,0.473,2.204,1.312c0.84,0.944,1.312,1.68,1.312,2.31
			C380.424,13.027,379.847,13.763,378.797,14.287z"/>
		<path fill="#FFFFFF" d="M390.868,32.187c-0.524,0.577-1.103,0.945-1.731,1.05c-1.26-0.21-2.311-0.944-3.045-2.204
			c-0.21-0.315-0.314-0.631-0.314-0.945c0-0.63,0.262-1.312,0.84-2.152c0.524-0.84,1.102-1.26,1.627-1.26
			c0.787,0,1.521,0.42,2.257,1.207c0.63,0.735,0.997,1.522,0.997,2.362C391.498,30.979,391.288,31.609,390.868,32.187z
			 M389.188,49.351c-0.314,0-0.734-0.157-1.207-0.367c-1.364-0.683-2.047-1.522-2.047-2.625c0-0.734,0.157-1.521,0.577-2.361
			c0.42-0.787,0.893-1.312,1.47-1.522c0.263-0.104,0.63-0.157,1.05-0.157c1.47,0,2.257,1.521,2.257,4.566
			C391.288,48.511,390.554,49.351,389.188,49.351z"/>
		<path fill="#8ED8F8" d="M56.914,65.113c-0.808,0.615-1.501,1.347-2.078,2.193c-1.424,1.963-2.54,4.387-3.31,7.312
			c-0.77,2.771-1.154,5.426-1.154,7.966c0,2.463,0.27,4.849,0.885,7.158c0.654,2.731,1.616,4.926,2.925,6.657
			c0.693,0.885,1.693,1.771,3.002,2.617c0.654,0.461,1,1.077,1,1.924c0,1.116-0.538,1.693-1.616,1.693
			c-0.692,0-1.424-0.347-2.193-0.962c-2.347-1.925-4.156-4.811-5.464-8.659c-1.155-3.387-1.693-6.965-1.693-10.698
			c0-3.078,0.5-6.234,1.501-9.505c1-3.387,2.386-6.195,4.117-8.466c0.115-0.424,0.577-1.039,1.347-1.81
			c0.77-0.77,1.616-1.192,2.463-1.192c1.231,0,1.848,0.615,1.848,1.771C58.492,63.65,57.953,64.344,56.914,65.113z"/>
		<path fill="#8ED8F8" d="M76.311,93.513c-2.001,1.732-4.041,2.617-6.157,2.617c-2.655,0-4.618-1.462-5.888-4.31
			c-1.231-0.077-1.848-0.577-1.848-1.501c0-0.501,0.385-1.039,1.154-1.616c-0.076-0.424-0.076-0.924-0.076-1.463
			c0-3.04,0.423-6.118,1.27-9.235c0.924-3.464,2.193-6.234,3.81-8.351c0.847-1.155,1.54-1.732,2.04-1.732
			c1,0,1.539,0.539,1.539,1.616c0,0.385-0.347,0.924-1,1.655c-0.424,0.462-0.731,0.847-0.924,1.116
			c-0.385,0.461-0.693,1.039-0.962,1.654c-1.848,3.926-2.771,8.273-2.771,12.969c1.963-1.077,3.387-1.809,4.233-2.193
			c1.693-0.692,3.232-1.078,4.618-1.078c2.732,0,4.117,1.309,4.117,3.887C79.466,89.703,78.389,91.704,76.311,93.513z
			 M75.079,86.625c-1.154,0-2.578,0.423-4.271,1.231c-1.616,0.77-2.925,1.616-3.849,2.463c0.231,0.692,0.577,1.309,1.116,1.847
			c0.539,0.577,1.116,0.847,1.731,0.847c1.54,0,3.079-0.577,4.541-1.731c1.463-1.116,2.193-2.386,2.193-3.771
			C76.541,86.933,76.041,86.625,75.079,86.625z"/>
		<path fill="#8ED8F8" d="M99.286,93.513c-2.001,1.732-4.041,2.617-6.157,2.617c-2.655,0-4.618-1.462-5.888-4.31
			c-1.231-0.077-1.848-0.577-1.848-1.501c0-0.501,0.385-1.039,1.154-1.616c-0.076-0.424-0.076-0.924-0.076-1.463
			c0-3.04,0.423-6.118,1.27-9.235c0.924-3.464,2.193-6.234,3.81-8.351c0.847-1.155,1.54-1.732,2.04-1.732
			c1,0,1.539,0.539,1.539,1.616c0,0.385-0.347,0.924-1.001,1.655c-0.423,0.462-0.73,0.847-0.923,1.116
			c-0.385,0.461-0.693,1.039-0.962,1.654c-1.848,3.926-2.771,8.273-2.771,12.969c1.963-1.077,3.387-1.809,4.233-2.193
			c1.693-0.692,3.232-1.078,4.618-1.078c2.732,0,4.117,1.309,4.117,3.887C102.441,89.703,101.364,91.704,99.286,93.513z
			 M98.055,86.625c-1.154,0-2.578,0.423-4.271,1.231c-1.616,0.77-2.925,1.616-3.849,2.463c0.231,0.692,0.577,1.309,1.116,1.847
			c0.539,0.577,1.116,0.847,1.731,0.847c1.54,0,3.079-0.577,4.541-1.731c1.463-1.116,2.193-2.386,2.193-3.771
			C99.517,86.933,99.017,86.625,98.055,86.625z"/>
		<path fill="#8ED8F8" d="M127.381,82.161c-0.347,0.346-0.77,0.538-1.27,0.538l-6.081,0.424c-1.308,4.502-2.154,7.966-2.463,10.429
			c-0.153,1.154-0.654,1.731-1.5,1.731c-1.155,0-1.693-0.462-1.693-1.385c0-1.386,0.808-4.888,2.501-10.545
			c-1.039,0.077-2.578,0.192-4.579,0.308c-0.424,0.039-0.962,0.27-1.578,0.693c-0.692,0.462-1.424,0.654-2.193,0.654
			c-1.231,0-1.848-0.539-1.848-1.616c0-1.309,1.039-2.078,3.117-2.232c1.271-0.077,3.887-0.27,7.89-0.5
			c0.615-2.386,0.962-4.271,0.962-5.734c0-2.116-1.925-3.193-5.734-3.193c-0.847,0-2.116,0.076-3.81,0.23
			c-1.116,0.154-1.693,0.192-1.771,0.192c-0.385,0-0.73-0.154-1-0.462s-0.385-0.654-0.385-1.077c0-0.886,0.577-1.424,1.809-1.578
			c2.424-0.308,4.232-0.462,5.426-0.462c5.58,0,8.39,2.193,8.39,6.504c0,1.424-0.27,3.232-0.809,5.388
			c3.079-0.154,5.003-0.27,5.811-0.27c0.809,0,1.231,0.385,1.231,1.154C127.804,81.66,127.65,81.93,127.381,82.161z"/>
		<path fill="#8ED8F8" d="M139.004,93.052c-1.309,3.887-3.155,6.811-5.541,8.773c-0.809,0.616-1.54,0.962-2.194,0.962
			c-1.115,0-1.654-0.577-1.654-1.731c0-0.847,0.308-1.501,1.001-1.963c0.653-0.423,1.154-0.73,1.462-0.962
			c0.616-0.538,1.154-1.077,1.616-1.654c2.501-3.31,3.771-7.966,3.771-13.893c0-3.155-0.539-6.312-1.578-9.544
			c-1.231-3.694-2.925-6.388-5.003-8.004c-1.039-0.77-1.539-1.463-1.539-2.04c0-1.154,0.616-1.77,1.848-1.77
			c0.847,0,1.693,0.423,2.501,1.192c0.385,0.424,0.654,0.693,0.77,0.809c0.231,0.346,0.424,0.654,0.577,0.962
			c1.732,2.309,3.117,5.195,4.156,8.581c1.001,3.271,1.501,6.466,1.501,9.544C140.697,86.086,140.12,89.665,139.004,93.052z"/>
		<path fill="#8ED8F8" d="M167.121,69.651c-0.84,0.944-2.52,2.257-4.935,4.041l-3.464,2.52c7.139,0.578,10.707,3.202,10.707,7.821
			c0,3.149-1.574,5.774-4.619,7.821c-2.729,1.837-5.879,2.729-9.447,2.729c-1.785,0-3.359-0.21-4.725-0.525
			c-2.205-0.524-3.307-1.364-3.307-2.571c0-1.575,0.682-2.415,2.1-2.415c0.314,0,1.417,0.263,3.201,0.683
			c1.155,0.314,2.205,0.42,3.098,0.42c2.204,0,4.356-0.63,6.456-1.89c2.047-1.26,3.097-2.52,3.097-3.779
			c0-2.835-3.621-4.305-10.76-4.305c-0.315,0-0.735,0-1.26,0c-0.525,0.053-0.945,0.053-1.208,0.053c-0.577,0-1.05-0.157-1.364-0.524
			c-0.367-0.368-0.525-0.84-0.525-1.418c0-0.787,1.207-2.047,3.622-3.727l7.401-5.092c1.47-0.997,2.467-1.784,2.992-2.414
			c0.787-0.84,1.207-1.732,1.207-2.729c0-1.155-1.207-1.785-3.569-1.785c-3.569,0-7.087,0.788-10.604,2.257
			c-0.314,0.211-0.683,0.368-0.997,0.525c-0.42,0.21-0.734,0.314-0.997,0.314c-0.577,0-1.103-0.157-1.575-0.577
			c-0.473-0.367-0.682-0.84-0.682-1.47c0-0.944,0.367-1.68,1.102-2.204c1.47-0.997,3.675-1.837,6.614-2.52
			c2.624-0.577,4.986-0.893,7.139-0.893c1.994,0,3.779,0.473,5.249,1.364c1.732,1.103,2.624,2.625,2.624,4.567
			C169.692,66.029,168.801,67.919,167.121,69.651z"/>
		<path fill="#8ED8F8" d="M198.455,69.651c-0.84,0.944-2.52,2.257-4.935,4.041l-3.464,2.52c7.139,0.578,10.707,3.202,10.707,7.821
			c0,3.149-1.574,5.774-4.619,7.821c-2.729,1.837-5.879,2.729-9.447,2.729c-1.785,0-3.359-0.21-4.725-0.525
			c-2.205-0.524-3.307-1.364-3.307-2.571c0-1.575,0.682-2.415,2.1-2.415c0.314,0,1.417,0.263,3.201,0.683
			c1.155,0.314,2.205,0.42,3.098,0.42c2.204,0,4.356-0.63,6.456-1.89c2.047-1.26,3.097-2.52,3.097-3.779
			c0-2.835-3.621-4.305-10.76-4.305c-0.315,0-0.735,0-1.26,0c-0.525,0.053-0.945,0.053-1.208,0.053c-0.577,0-1.05-0.157-1.364-0.524
			c-0.367-0.368-0.525-0.84-0.525-1.418c0-0.787,1.207-2.047,3.622-3.727l7.401-5.092c1.47-0.997,2.467-1.784,2.992-2.414
			c0.787-0.84,1.207-1.732,1.207-2.729c0-1.155-1.207-1.785-3.569-1.785c-3.569,0-7.087,0.788-10.604,2.257
			c-0.314,0.211-0.683,0.368-0.997,0.525c-0.42,0.21-0.734,0.314-0.997,0.314c-0.577,0-1.103-0.157-1.575-0.577
			c-0.473-0.367-0.682-0.84-0.682-1.47c0-0.944,0.367-1.68,1.102-2.204c1.47-0.997,3.675-1.837,6.614-2.52
			c2.624-0.577,4.986-0.893,7.139-0.893c1.994,0,3.779,0.473,5.249,1.364c1.732,1.103,2.624,2.625,2.624,4.567
			C201.026,66.029,200.135,67.919,198.455,69.651z"/>
		<path fill="#8ED8F8" d="M229.894,93.114c-2.939,0.63-6.142,0.893-9.711,0.893c-4.882,0-7.296-1.575-7.296-4.83
			c0-1.68,0.945-3.988,2.834-6.823c0.42-0.524,1.942-2.572,4.672-6.142c3.885-5.092,5.879-8.766,5.879-10.971
			c0-1.312-0.682-1.994-1.941-1.994c-2.415,0-5.459,1.207-9.081,3.517c-1.575,1.05-2.625,1.575-3.097,1.575
			c-1.418,0-2.1-0.84-2.1-2.572c0-0.734,0.472-1.522,1.469-2.31c0.578-0.524,1.365-0.84,2.362-0.997
			c4.515-2.362,8.084-3.569,10.708-3.569c3.989,0,6.037,1.994,6.037,5.983c0,1.89-0.683,4.042-1.995,6.352
			c-0.683,1.207-2.31,3.622-4.882,7.296c-1.26,1.628-2.467,3.255-3.674,4.882c-1.785,2.467-2.729,4.199-2.835,5.196
			c0,0.683,1.312,0.997,4.042,0.997c2.414,0,4.619-0.157,6.719-0.524c0.105,0,0.42-0.104,0.84-0.21
			c0.367-0.105,0.683-0.21,0.893-0.21c1.47,0,2.204,0.787,2.204,2.257C231.94,92.064,231.258,92.799,229.894,93.114z"/>
		<path fill="#8ED8F8" d="M280.123,73.745c-0.945,7.033-2.048,12.021-3.255,14.96c-2.31,5.511-5.983,8.241-10.918,8.241
			c-1.207,0-2.257-0.211-3.149-0.631c-1.05-0.524-1.574-1.26-1.574-2.1c0-1.364,0.577-2.1,1.731-2.1c0.315,0,0.893,0.158,1.68,0.368
			c0.735,0.21,1.26,0.314,1.68,0.314c2.835,0,5.145-1.942,6.929-5.879c1.365-3.149,2.258-7.401,2.678-12.649
			c-3.15,4.094-6.614,6.088-10.341,6.088c-1.785,0-3.202-0.629-4.199-1.994c-0.945-1.207-1.365-2.782-1.365-4.672
			c0-3.517,1.05-6.876,3.255-10.025c2.467-3.465,5.406-5.196,8.871-5.196c0.944,0,2.047,0.263,3.201,0.787
			c1.155,0.524,1.995,1.103,2.625,1.732c0.63,0.734,0.944,1.364,0.944,1.89c0,0.944-0.263,1.732-0.683,2.257
			c1.575,0.524,2.362,1.522,2.362,2.887C280.595,69.389,280.438,71.331,280.123,73.745z M274.086,63.72
			c-0.577-0.525-1.417-0.84-2.572-0.84c-1.994,0-3.779,1.26-5.301,3.674c-1.418,2.31-2.1,4.566-2.1,6.771
			c0,1.732,0.734,2.572,2.204,2.572c1.522,0,3.202-0.735,5.039-2.258c1.522-1.26,2.782-2.729,3.728-4.356
			c0.42-1.05,1.049-2.362,1.889-3.937C275.608,65.032,274.611,64.507,274.086,63.72z"/>
		<path fill="#8ED8F8" d="M315.917,77.734c-0.472,0.473-1.05,0.735-1.731,0.735l-8.294,0.577
			c-1.784,6.142-2.939,10.865-3.359,14.225c-0.21,1.575-0.893,2.362-2.047,2.362c-1.575,0-2.31-0.63-2.31-1.89
			c0-1.89,1.102-6.667,3.412-14.383c-1.418,0.105-3.518,0.263-6.247,0.42c-0.577,0.053-1.312,0.368-2.151,0.945
			c-0.945,0.63-1.942,0.892-2.992,0.892c-1.68,0-2.52-0.734-2.52-2.204c0-1.784,1.417-2.835,4.252-3.044
			c1.731-0.105,5.301-0.368,10.76-0.683c0.84-3.255,1.312-5.827,1.312-7.821c0-2.887-2.625-4.356-7.821-4.356
			c-1.154,0-2.887,0.104-5.196,0.314c-1.522,0.21-2.31,0.263-2.414,0.263c-0.525,0-0.998-0.21-1.365-0.63s-0.525-0.893-0.525-1.47
			c0-1.207,0.788-1.942,2.468-2.152c3.307-0.42,5.773-0.63,7.401-0.63c7.61,0,11.442,2.992,11.442,8.871
			c0,1.942-0.367,4.409-1.103,7.349c4.199-0.21,6.824-0.367,7.926-0.367c1.103,0,1.68,0.524,1.68,1.574
			C316.494,77.052,316.285,77.419,315.917,77.734z"/>
		<path fill="#8ED8F8" d="M347.251,77.734c-0.472,0.473-1.05,0.735-1.731,0.735l-8.294,0.577
			c-1.784,6.142-2.939,10.865-3.359,14.225c-0.21,1.575-0.893,2.362-2.047,2.362c-1.575,0-2.31-0.63-2.31-1.89
			c0-1.89,1.102-6.667,3.412-14.383c-1.418,0.105-3.518,0.263-6.247,0.42c-0.577,0.053-1.312,0.368-2.151,0.945
			c-0.945,0.63-1.942,0.892-2.992,0.892c-1.68,0-2.52-0.734-2.52-2.204c0-1.784,1.417-2.835,4.252-3.044
			c1.731-0.105,5.301-0.368,10.76-0.683c0.84-3.255,1.312-5.827,1.312-7.821c0-2.887-2.625-4.356-7.821-4.356
			c-1.154,0-2.887,0.104-5.196,0.314c-1.522,0.21-2.31,0.263-2.414,0.263c-0.525,0-0.998-0.21-1.365-0.63s-0.525-0.893-0.525-1.47
			c0-1.207,0.788-1.942,2.468-2.152c3.307-0.42,5.773-0.63,7.401-0.63c7.61,0,11.442,2.992,11.442,8.871
			c0,1.942-0.367,4.409-1.103,7.349c4.199-0.21,6.824-0.367,7.926-0.367c1.103,0,1.68,0.524,1.68,1.574
			C347.828,77.052,347.619,77.419,347.251,77.734z"/>
		<path fill="#8ED8F8" d="M373.126,91.276c-2.362,3.098-5.563,4.672-9.605,4.672c-3.884,0-6.876-1.47-8.871-4.356
			c-1.837-2.572-2.729-6.142-2.729-10.655c0-4.095,0.998-7.664,2.992-10.813s4.619-5.354,7.979-6.666
			c0.105-1.627,0.945-2.467,2.52-2.467c3.359,0,6.089,2.1,8.293,6.299c1.891,3.674,2.888,7.559,2.888,11.758
			C376.591,84.086,375.436,88.18,373.126,91.276z M371.446,72.38c-0.84-2.729-1.942-4.828-3.411-6.193
			c-0.525,0.63-1.208,0.893-2.048,0.893c-2.571,0-4.882,1.47-6.929,4.409s-3.044,6.036-3.044,9.396c0,3.307,0.63,5.932,1.942,7.821
			c1.364,2.151,3.307,3.202,5.931,3.202c2.205,0,4.199-1.208,5.984-3.622c1.784-2.415,2.677-5.354,2.677-8.767
			C372.549,77.157,372.182,74.795,371.446,72.38z"/>
		<path fill="#FFFFFF" d="M89.681,113.058c-2.834,0.63-5.459,1.784-7.926,3.412c-3.044,1.994-4.566,3.988-4.566,6.088
			c0,1.365,1.837,2.992,5.563,4.777c2.31,1.154,3.989,2.204,4.986,3.149c1.575,1.522,2.362,3.359,2.362,5.511
			c0,3.098-1.574,5.722-4.619,7.821c-2.782,1.942-5.722,2.939-8.766,2.939c-3.202,0-4.776-0.892-4.776-2.677
			c0-0.63,0.21-1.154,0.63-1.574c0.367-0.525,0.84-0.788,1.47-0.788c0.314,0,0.787,0.105,1.47,0.263
			c0.577,0.157,1.05,0.21,1.364,0.21c1.838,0,3.727-0.524,5.669-1.627c2.152-1.26,3.255-2.835,3.255-4.619
			c0-1.47-1.942-3.149-5.722-4.935c-2.362-1.05-3.989-2.047-4.829-2.887c-1.574-1.47-2.362-3.307-2.362-5.616
			c0-2.782,1.365-5.407,4.199-7.874c2.048-1.89,4.619-3.412,7.769-4.672c0.683-1.154,1.838-1.731,3.465-1.731
			c0.734,0,1.47,0.263,2.1,0.683c0.524,0.472,0.84,1.102,0.84,1.941C91.256,112.06,90.73,112.795,89.681,113.058z"/>
		<path fill="#FFFFFF" d="M102.959,131.901c-1.05,4.094-1.627,7.664-1.732,10.812c0.683,0.631,1.05,1.418,1.05,2.362
			c0,0.315-0.21,0.577-0.524,0.893c-0.315,0.315-0.631,0.473-0.945,0.473c-2.414,0-3.569-2.152-3.569-6.456
			c0-2.048,0.683-6.037,2.1-11.969c-0.104-0.629-0.157-1.049-0.157-1.26c0-0.682,0.367-1.26,1.207-1.68
			c2.31,0,3.465,1.103,3.465,3.308L102.959,131.901z M104.533,111.22c-0.157,0-0.473-0.052-0.893-0.209
			c-1.521-0.525-2.257-1.891-2.257-4.095c0-1.103,0.735-1.89,2.205-2.415c1.784,0.211,2.677,1.365,2.677,3.57
			C106.266,110.171,105.688,111.22,104.533,111.22z"/>
		<path fill="#FFFFFF" d="M127.523,132.794c-0.263,0.524-0.42,1.89-0.525,4.146c-0.473,10.708-5.039,17.322-13.647,19.842
			c-1.05,0.262-2.047,0.42-2.992,0.42c-1.47,0-2.204-0.788-2.204-2.311c0-0.682,0.262-1.312,0.893-1.889
			c0.629-0.631,1.312-0.893,1.941-0.893c0.473,0,0.893,0.053,1.207,0.21c6.194-1.05,9.658-5.092,10.394-12.021
			c-1.575,1.522-3.464,2.257-5.669,2.257c-1.89,0-3.412-0.577-4.462-1.784c-1.103-1.155-1.627-2.782-1.627-4.829
			c0-3.465,1.155-6.614,3.517-9.448c2.467-2.992,5.459-4.515,8.977-4.515c1.469,0,2.729,0.577,3.674,1.68
			c0.893,1.103,1.365,2.572,1.365,4.356c0.314,0.42,0.472,0.84,0.472,1.26C128.835,129.959,128.363,131.114,127.523,132.794z
			 M121.959,127.02c-1.785,0-3.412,1.05-4.829,3.097c-1.312,1.891-1.942,3.779-1.942,5.617c0,1.89,0.63,2.834,1.995,2.834
			c1.68,0,3.149-0.84,4.356-2.572c0.945-1.312,1.574-3.097,1.89-5.406c0-0.21,0.157-0.577,0.367-1.102
			C123.691,127.859,123.062,127.02,121.959,127.02z"/>
		<path fill="#FFFFFF" d="M155.393,129.329c-0.42,1.103-0.84,3.149-1.365,6.142c-0.473,2.729-0.682,4.462-0.682,5.196
			c0,0.42,0.052,0.945,0.157,1.575c0.104,0.683,0.157,1.103,0.157,1.26c0,0.787-0.21,1.47-0.63,2.047
			c-0.42,0.63-0.997,0.944-1.732,0.944c-0.63,0-1.207-0.209-1.68-0.524c-0.524-0.315-0.787-0.787-0.787-1.417
			c0-0.42,0.104-0.787,0.367-1.207c0-0.893,0.21-3.045,0.63-6.51c-5.144,5.932-9.08,8.871-11.862,8.871
			c-1.26,0-2.257-0.314-3.045-0.944c-0.84-0.683-1.26-1.628-1.26-2.888c0-1.049,0.315-3.148,1.05-6.351
			c0.735-3.728,1.155-5.984,1.155-6.824c0-0.104,0-0.263,0-0.577c-0.053-0.21-0.053-0.42-0.053-0.577c0-0.525,0.21-1.05,0.63-1.575
			c0.367-0.524,0.787-0.787,1.312-0.787c1.417,0,2.152,1.154,2.152,3.359c0,0.945-0.315,2.992-0.945,6.036
			c-0.683,3.149-0.997,5.092-0.997,5.932c0,0.42,0.21,0.63,0.63,0.63c2.467,0,6.98-4.829,13.595-14.54
			c0.524-0.734,1.05-1.103,1.68-1.103c1.26,0,1.89,0.735,1.89,2.205C155.76,128.069,155.603,128.595,155.393,129.329z"/>
		<path fill="#FFFFFF" d="M175.599,146.756c-3.989,0-6.929-1.784-8.818-5.406h-1.574c-1.365,0-2.677-0.263-4.042-0.84
			c-1.785-0.735-2.625-1.68-2.625-2.835c0-1.469,0.683-2.204,2.048-2.204c0.314,0,0.84,0.263,1.574,0.787
			c0.735,0.525,1.417,0.788,2.152,0.788h1.207c-0.157-0.893-0.21-1.628-0.21-2.152c0-2.52,0.63-4.882,1.89-7.086
			c1.47-2.572,3.308-3.885,5.564-3.885c1.312,0,2.571,0.63,3.831,1.89s1.891,2.677,1.891,4.146c0,3.885-2.625,7.244-7.874,10.078
			c1.26,1.522,2.624,2.257,4.199,2.257c0.42,0,1.103-0.052,1.995-0.157c0.892-0.104,1.574-0.21,1.994-0.21
			c0.525,0,1.05,0.263,1.47,0.683c0.42,0.524,0.63,1.05,0.63,1.575C180.9,145.864,179.115,146.756,175.599,146.756z
			 M173.814,128.962c-0.42-0.314-0.84-0.525-1.26-0.525c-0.945,0-1.68,0.788-2.205,2.362c-0.524,1.312-0.734,2.677-0.734,4.095
			v0.944c3.149-2.047,4.724-3.937,4.724-5.669C174.339,129.749,174.129,129.382,173.814,128.962z"/>
		<path fill="#FFFFFF" d="M203.207,144.813c-0.105,0.945-0.525,1.471-1.26,1.471c-0.788,0-1.418-0.315-1.942-0.945
			c-0.525-0.683-0.788-1.417-0.788-2.257c0-0.053,0.105-1.05,0.315-2.992l0.787-6.719c-4.356,3.307-7.401,6.403-9.186,9.343
			c-0.367,0.631-0.683,1.312-0.997,1.942c-0.525,0.84-1.05,1.312-1.575,1.312c-2.204,0-3.254-3.097-3.254-9.343
			c0-4.095,0.577-8.241,1.731-12.493c0.211-0.735,0.578-1.155,1.208-1.155c0.787,0,1.47,0.315,1.994,0.893
			c0.525,0.683,0.788,1.418,0.788,2.258c-0.263,1.049-0.525,2.204-0.788,3.464c-0.524,2.782-0.787,5.459-0.787,8.083
			c3.727-4.514,7.716-7.979,11.968-10.34c0.734,0.053,1.417,0.314,2.047,0.787c0.63,0.525,0.998,1.154,0.998,1.942
			C204.467,132.479,204.047,137.413,203.207,144.813z"/>
		<path fill="#FFFFFF" d="M228.242,144.813c-0.104,0.945-0.524,1.471-1.26,1.471c-0.787,0-1.417-0.315-1.941-0.945
			c-0.525-0.683-0.787-1.417-0.787-2.257c0-0.053,0.104-1.05,0.314-2.992l0.787-6.719c-4.356,3.307-7.4,6.403-9.186,9.343
			c-0.367,0.631-0.683,1.312-0.997,1.942c-0.525,0.84-1.05,1.312-1.575,1.312c-2.204,0-3.254-3.097-3.254-9.343
			c0-4.095,0.577-8.241,1.732-12.493c0.209-0.735,0.577-1.155,1.207-1.155c0.787,0,1.47,0.315,1.994,0.893
			c0.525,0.683,0.787,1.418,0.787,2.258c-0.262,1.049-0.524,2.204-0.787,3.464c-0.524,2.782-0.787,5.459-0.787,8.083
			c3.727-4.514,7.716-7.979,11.968-10.34c0.735,0.053,1.417,0.314,2.047,0.787c0.63,0.525,0.997,1.154,0.997,1.942
			C229.502,132.479,229.082,137.413,228.242,144.813z"/>
		<path fill="#FFFFFF" d="M248.921,142.505c-1.731,2.414-3.884,3.568-6.403,3.568c-2.205,0-4.042-0.892-5.512-2.571
			c-1.47-1.732-2.152-3.937-2.152-6.614c0-2.257,0.473-4.409,1.522-6.403c1.05-2.205,2.52-3.779,4.304-4.672
			c0.42-0.157,0.998-0.473,1.732-0.893c0.63-0.42,1.103-0.683,1.522-0.683c0.104,0,0.524,0.105,1.26,0.315
			c1.837,0.63,3.359,1.784,4.566,3.412c1.155,1.68,1.732,3.569,1.732,5.616C251.493,137.15,250.601,140.09,248.921,142.505z
			 M245.824,130.064c-0.84,0-1.522-0.157-2.047-0.473c-1.47,0-2.678,0.893-3.622,2.572c-0.84,1.47-1.207,3.044-1.207,4.724
			c0,1.26,0.314,2.362,0.997,3.307c0.63,0.998,1.47,1.471,2.52,1.471c1.26,0,2.362-0.788,3.412-2.362
			c0.944-1.522,1.47-3.149,1.47-4.935C247.347,132.164,246.821,130.694,245.824,130.064z"/>
		<path fill="#FFFFFF" d="M271.28,127.492c-0.42,0.42-0.893,0.577-1.417,0.577c-0.263,0-0.735,0-1.365-0.104
			c-0.63,0-1.103-0.053-1.417-0.053c-1.365,0-2.048,0.524-2.048,1.522c0,0.63,0.631,2.572,1.942,5.826
			c1.26,3.307,1.942,5.773,1.942,7.349c0,1.522-0.63,2.729-1.837,3.727c-1.365,0.997-3.202,1.522-5.512,1.522
			c-3.779,0-5.616-0.787-5.616-2.257c0-0.577,0.157-1.155,0.577-1.68c0.315-0.525,0.735-0.84,1.207-0.84
			c0.105,0,0.683,0.104,1.732,0.21c1.05,0.157,1.942,0.21,2.572,0.21c1.731,0,2.624-0.577,2.624-1.837
			c0-0.735-0.682-2.73-1.941-5.879c-1.26-3.15-1.891-5.512-1.891-6.981c0-2.415,1.208-4.095,3.675-4.987
			c0.524-0.84,1.522-1.312,3.097-1.312c2.415,0,3.727,0.787,3.938,2.362c0.209,0.42,0.314,0.84,0.314,1.207
			C271.857,126.705,271.647,127.177,271.28,127.492z"/>
		<path fill="#FFFFFF" d="M309.542,146.756c-3.989,0-6.929-1.784-8.818-5.406h-1.574c-1.365,0-2.677-0.263-4.042-0.84
			c-1.785-0.735-2.625-1.68-2.625-2.835c0-1.469,0.683-2.204,2.048-2.204c0.314,0,0.84,0.263,1.574,0.787
			c0.735,0.525,1.417,0.788,2.152,0.788h1.207c-0.157-0.893-0.21-1.628-0.21-2.152c0-2.52,0.63-4.882,1.89-7.086
			c1.47-2.572,3.308-3.885,5.564-3.885c1.312,0,2.571,0.63,3.831,1.89s1.891,2.677,1.891,4.146c0,3.885-2.625,7.244-7.874,10.078
			c1.26,1.522,2.624,2.257,4.199,2.257c0.42,0,1.103-0.052,1.995-0.157c0.892-0.104,1.574-0.21,1.994-0.21
			c0.525,0,1.05,0.263,1.47,0.683c0.42,0.524,0.63,1.05,0.63,1.575C314.844,145.864,313.059,146.756,309.542,146.756z
			 M307.758,128.962c-0.42-0.314-0.84-0.525-1.26-0.525c-0.945,0-1.68,0.788-2.205,2.362c-0.524,1.312-0.734,2.677-0.734,4.095
			v0.944c3.149-2.047,4.724-3.937,4.724-5.669C308.282,129.749,308.072,129.382,307.758,128.962z"/>
		<path fill="#FFFFFF" d="M337.15,144.813c-0.105,0.945-0.525,1.471-1.26,1.471c-0.788,0-1.418-0.315-1.942-0.945
			c-0.525-0.683-0.788-1.417-0.788-2.257c0-0.053,0.105-1.05,0.315-2.992l0.787-6.719c-4.356,3.307-7.401,6.403-9.186,9.343
			c-0.367,0.631-0.683,1.312-0.997,1.942c-0.525,0.84-1.05,1.312-1.575,1.312c-2.204,0-3.254-3.097-3.254-9.343
			c0-4.095,0.577-8.241,1.731-12.493c0.211-0.735,0.578-1.155,1.208-1.155c0.787,0,1.47,0.315,1.994,0.893
			c0.525,0.683,0.788,1.418,0.788,2.258c-0.263,1.049-0.525,2.204-0.788,3.464c-0.524,2.782-0.787,5.459-0.787,8.083
			c3.727-4.514,7.716-7.979,11.968-10.34c0.734,0.053,1.417,0.314,2.047,0.787c0.63,0.525,0.998,1.154,0.998,1.942
			C338.41,132.479,337.99,137.413,337.15,144.813z"/>
		<path fill="#FFFFFF" d="M350.48,129.802c-0.524,0.577-1.102,0.945-1.732,1.05c-1.26-0.21-2.309-0.944-3.044-2.204
			c-0.21-0.315-0.315-0.631-0.315-0.945c0-0.63,0.263-1.312,0.84-2.152c0.525-0.84,1.103-1.26,1.628-1.26
			c0.787,0,1.522,0.42,2.257,1.207c0.63,0.735,0.997,1.522,0.997,2.362C351.11,128.595,350.9,129.225,350.48,129.802z
			 M348.801,146.966c-0.314,0-0.734-0.157-1.207-0.367c-1.365-0.683-2.047-1.522-2.047-2.625c0-0.734,0.157-1.521,0.577-2.361
			c0.42-0.787,0.893-1.312,1.47-1.522c0.263-0.104,0.63-0.157,1.05-0.157c1.47,0,2.257,1.521,2.257,4.566
			C350.9,146.126,350.166,146.966,348.801,146.966z"/>
	</g>
</g>
</svg>
