<?xml version="1.0" encoding="utf-8"?>
<!-- Generator: Adobe Illustrator 16.0.0, SVG Export Plug-In . SVG Version: 6.00 Build 0)  -->
<!DOCTYPE svg PUBLIC "-//W3C//DTD SVG 1.1//EN" "http://www.w3.org/Graphics/SVG/1.1/DTD/svg11.dtd">
<svg version="1.1" id="Layer_1" xmlns="http://www.w3.org/2000/svg" xmlns:xlink="http://www.w3.org/1999/xlink" x="0px" y="0px"
	 width="425.2px" height="138.761px" viewBox="0 0 425.2 138.761" enable-background="new 0 0 425.2 138.761" xml:space="preserve">
<g>
	<g>
		<path fill="#FFFFFF" d="M54.543,19.733c-1.979,2.498-3.771,5.421-5.374,8.768c-1.225,2.545-2.45,5.043-3.629,7.588
			c-1.414,2.923-2.734,5.374-3.959,7.307c-1.037,1.603-1.933,2.45-2.688,2.45c-0.848,0-1.791-0.896-2.78-2.639
			c-2.356-3.96-4.384-8.438-6.08-13.528c-1.933-5.656-2.876-10.416-2.876-14.281c0-3.582,0.66-5.421,2.027-5.421
			c0.801,0,1.414,0.33,1.791,0.99c1.037,1.885,1.556,4.242,1.556,7.07c0,1.414-0.378,2.45-1.037,3.017
			c1.696,7.259,4.194,13.716,7.494,19.419c2.026-4.195,5.231-10.464,9.616-18.807c0.188-1.131,0.659-2.121,1.366-2.97
			c1.414-1.743,2.498-2.64,3.347-2.64c1.226,0,1.838,0.707,1.838,2.121C55.155,18.696,54.92,19.215,54.543,19.733z"/>
		<path fill="#FFFFFF" d="M64.675,32.837c-0.941,3.677-1.461,6.882-1.555,9.71c0.613,0.565,0.942,1.272,0.942,2.121
			c0,0.282-0.188,0.519-0.472,0.801c-0.282,0.283-0.564,0.425-0.848,0.425c-2.168,0-3.205-1.933-3.205-5.798
			c0-1.838,0.612-5.421,1.885-10.747c-0.094-0.565-0.141-0.942-0.141-1.131c0-0.612,0.33-1.131,1.084-1.508
			c2.073,0,3.11,0.989,3.11,2.969L64.675,32.837z M66.089,14.266c-0.141,0-0.424-0.047-0.801-0.188
			c-1.367-0.471-2.027-1.696-2.027-3.676c0-0.99,0.66-1.697,1.98-2.169c1.603,0.188,2.404,1.226,2.404,3.205
			C67.646,13.323,67.126,14.266,66.089,14.266z"/>
		<path fill="#FFFFFF" d="M88.996,31.093c-4.289,4.572-7.589,8.908-9.945,13.057c-0.802,1.367-1.603,2.073-2.356,2.073
			c-1.084,0-1.933-1.084-2.545-3.157c-0.896-2.828-1.697-6.788-2.404-11.925c-0.188-1.132-0.236-1.933-0.236-2.357
			c0-0.471,0.189-0.942,0.566-1.319c0.424-0.377,0.848-0.565,1.225-0.565c0.473,0,0.896,0.188,1.273,0.519
			c0.377,0.377,0.565,0.754,0.66,1.178c0.707,4.949,1.319,8.626,1.791,11.077c3.205-4.384,6.646-8.579,10.322-12.585
			c0-0.566,0.188-1.084,0.565-1.556c0.33-0.377,0.754-0.613,1.319-0.613c0.52,0,0.99,0.189,1.461,0.566
			c0.378,0.377,0.613,0.848,0.613,1.414C91.306,28.029,90.505,29.443,88.996,31.093z"/>
		<path fill="#FFFFFF" d="M108.179,46.176c-3.582,0-6.222-1.603-7.918-4.854h-1.414c-1.227,0-2.404-0.235-3.63-0.754
			c-1.603-0.66-2.356-1.509-2.356-2.546c0-1.319,0.613-1.979,1.838-1.979c0.283,0,0.754,0.235,1.414,0.707s1.273,0.707,1.933,0.707
			h1.084c-0.142-0.801-0.188-1.461-0.188-1.933c0-2.263,0.566-4.383,1.697-6.363c1.319-2.31,2.969-3.487,4.996-3.487
			c1.178,0,2.31,0.565,3.44,1.696c1.132,1.132,1.697,2.404,1.697,3.724c0,3.488-2.356,6.505-7.07,9.05
			c1.132,1.367,2.356,2.027,3.771,2.027c0.377,0,0.99-0.048,1.791-0.142c0.802-0.095,1.414-0.188,1.791-0.188
			c0.472,0,0.943,0.235,1.32,0.612c0.377,0.472,0.565,0.943,0.565,1.414C112.939,45.375,111.337,46.176,108.179,46.176z
			 M106.576,30.197c-0.377-0.282-0.754-0.471-1.131-0.471c-0.849,0-1.509,0.707-1.979,2.12c-0.472,1.179-0.66,2.404-0.66,3.677
			v0.849c2.828-1.838,4.242-3.535,4.242-5.091C107.048,30.904,106.858,30.574,106.576,30.197z"/>
		<path fill="#FFFFFF" d="M140.323,14.879l-0.33,0.472c-1.414,5.42-2.121,10.841-2.121,16.261c0,2.263,0.235,6.316,0.707,12.066
			c0,0.188,0,0.472,0.094,0.896c0.047,0.377,0.094,0.66,0.094,0.802c0,0.235-0.188,0.471-0.471,0.707
			c-0.33,0.282-0.613,0.424-0.849,0.424c-0.942,0-1.743-0.707-2.403-2.074c-0.707-1.366-1.037-2.828-1.037-4.431
			c0-1.461,0.141-2.498,0.471-3.063c-0.188-2.828-0.282-5.043-0.282-6.646c0-6.222,0.896-12.255,2.733-18.1
			c0.519-1.697,1.084-2.593,1.697-2.593c0.565,0,1.225,0.424,1.979,1.179c0.754,0.849,1.179,1.508,1.179,2.073
			C141.784,13.747,141.265,14.407,140.323,14.879z"/>
		<path fill="#FFFFFF" d="M161.958,34.816c-0.66,1.979-0.943,3.865-0.943,5.751c0,0.565,0.094,1.414,0.33,2.498
			c0.188,1.131,0.33,1.696,0.33,1.838c0,0.472-0.236,0.942-0.613,1.319c-0.424,0.283-0.895,0.472-1.367,0.472
			c-1.366,0-2.168-1.838-2.403-5.42c-2.64,2.639-4.996,3.959-7.117,3.959c-1.366,0-2.546-0.565-3.535-1.744
			c-1.037-1.131-1.509-2.403-1.509-3.865c0-2.733,1.604-5.656,4.855-8.673c3.111-2.922,5.939-4.431,8.531-4.431
			c0.613,0,1.226,0.283,1.838,0.755c0.566,0.471,0.896,1.037,0.896,1.603c0,0.235-0.048,0.471-0.095,0.659
			c0.282,0.849,0.472,1.792,0.472,2.876c0.377,0.471,0.612,0.942,0.612,1.366C162.24,33.968,162.146,34.298,161.958,34.816z
			 M157.103,30.669c-0.896,0-2.451,1.084-4.619,3.158c-2.404,2.31-3.582,4.194-3.582,5.703c0,1.178,0.471,1.744,1.461,1.744
			c1.414,0,3.064-1.037,4.855-3.205c1.791-2.169,2.733-4.054,2.733-5.656C157.951,31.281,157.668,30.669,157.103,30.669z"/>
		<path fill="#FFFFFF" d="M197.118,46.176c-3.582,0-6.223-1.603-7.919-4.854h-1.414c-1.226,0-2.403-0.235-3.63-0.754
			c-1.602-0.66-2.355-1.509-2.355-2.546c0-1.319,0.612-1.979,1.838-1.979c0.283,0,0.754,0.235,1.414,0.707s1.272,0.707,1.932,0.707
			h1.084c-0.141-0.801-0.188-1.461-0.188-1.933c0-2.263,0.565-4.383,1.696-6.363c1.319-2.31,2.97-3.487,4.997-3.487
			c1.178,0,2.309,0.565,3.439,1.696c1.132,1.132,1.697,2.404,1.697,3.724c0,3.488-2.356,6.505-7.07,9.05
			c1.132,1.367,2.357,2.027,3.771,2.027c0.377,0,0.99-0.048,1.791-0.142c0.801-0.095,1.414-0.188,1.791-0.188
			c0.471,0,0.942,0.235,1.32,0.612c0.377,0.472,0.564,0.943,0.564,1.414C201.878,45.375,200.276,46.176,197.118,46.176z
			 M195.515,30.197c-0.377-0.282-0.754-0.471-1.131-0.471c-0.848,0-1.508,0.707-1.979,2.12c-0.472,1.179-0.659,2.404-0.659,3.677
			v0.849c2.828-1.838,4.242-3.535,4.242-5.091C195.987,30.904,195.798,30.574,195.515,30.197z"/>
		<path fill="#FFFFFF" d="M223.371,31.47c-1.414,1.226-3.394,2.876-5.938,4.855c0.895,1.508,1.696,2.875,2.356,4.194
			c0.849,1.791,1.319,2.876,1.319,3.253c0,0.471-0.235,0.942-0.66,1.319c-0.424,0.377-0.848,0.565-1.271,0.565
			c-0.896,0-1.557-0.424-1.934-1.226c-0.848-1.885-1.838-3.724-2.922-5.608c-2.545,2.073-4.666,3.959-6.363,5.75
			c-0.565,0.565-1.131,0.849-1.603,0.849c-1.319,0-1.979-0.707-1.979-2.026c0-0.755,0.754-1.886,2.31-3.347
			c1.179-1.132,2.97-2.687,5.421-4.667c-0.283-0.424-0.707-0.942-1.179-1.555c-0.377-0.095-0.66-0.283-0.896-0.566
			c-0.472-0.377-1.037-1.131-1.791-2.262c-0.896-1.272-1.32-2.121-1.32-2.498c0-1.462,0.707-2.216,2.216-2.216
			c0.565,0,1.461,0.707,2.64,2.121c1.178,1.414,2.309,2.923,3.44,4.525c1.272-1.037,3.063-2.404,5.374-4.195
			c0.848-0.613,1.366-0.942,1.648-0.942c0.52,0,0.99,0.188,1.414,0.565c0.425,0.377,0.66,0.801,0.66,1.319
			C224.313,30.339,223.983,30.951,223.371,31.47z"/>
		<path fill="#FFFFFF" d="M233.976,40.284c0.141,1.886,0.235,3.818,0.235,5.798c0,2.168-0.235,4.383-0.707,6.552
			c-0.425,1.933-1.132,2.922-2.121,2.922c-0.519,0-0.989-0.235-1.366-0.612c-0.377-0.425-0.566-0.896-0.566-1.414
			c0-0.142,0.142-0.849,0.472-2.121c0.282-1.32,0.472-3.441,0.472-6.458c0-1.508-0.047-2.64-0.143-3.394
			c-1.318-0.094-1.932-0.754-1.932-1.979c0-0.99,0.613-1.697,1.932-2.168c-0.047-0.235-0.047-0.613-0.047-1.084
			c0-3.677,0.566-6.977,1.697-9.852c1.65-4.147,3.959-6.222,6.929-6.222c2.074,0,3.724,0.849,4.854,2.498
			c1.037,1.509,1.556,3.394,1.556,5.656C245.24,33.591,241.47,37.551,233.976,40.284z M240.81,25.248
			c-0.518-0.659-1.178-1.037-1.979-1.037c-1.319,0-2.498,1.414-3.487,4.195c-0.896,2.545-1.32,5.138-1.32,7.683
			c4.949-1.791,7.447-4.619,7.447-8.483C241.47,26.71,241.233,25.908,240.81,25.248z"/>
		<path fill="#FFFFFF" d="M263.858,46.176c-3.582,0-6.223-1.603-7.919-4.854h-1.414c-1.226,0-2.403-0.235-3.63-0.754
			c-1.602-0.66-2.355-1.509-2.355-2.546c0-1.319,0.612-1.979,1.838-1.979c0.283,0,0.754,0.235,1.414,0.707s1.272,0.707,1.932,0.707
			h1.084c-0.141-0.801-0.188-1.461-0.188-1.933c0-2.263,0.565-4.383,1.696-6.363c1.319-2.31,2.97-3.487,4.997-3.487
			c1.178,0,2.309,0.565,3.439,1.696c1.132,1.132,1.697,2.404,1.697,3.724c0,3.488-2.356,6.505-7.07,9.05
			c1.132,1.367,2.357,2.027,3.771,2.027c0.377,0,0.99-0.048,1.791-0.142c0.801-0.095,1.414-0.188,1.791-0.188
			c0.471,0,0.942,0.235,1.32,0.612c0.377,0.472,0.564,0.943,0.564,1.414C268.618,45.375,267.017,46.176,263.858,46.176z
			 M262.255,30.197c-0.377-0.282-0.754-0.471-1.131-0.471c-0.848,0-1.508,0.707-1.979,2.12c-0.472,1.179-0.659,2.404-0.659,3.677
			v0.849c2.828-1.838,4.242-3.535,4.242-5.091C262.728,30.904,262.538,30.574,262.255,30.197z"/>
		<path fill="#FFFFFF" d="M288.179,30.15c-0.943,0.565-1.791,0.801-2.545,0.801c-0.048,0-0.33-0.094-0.896-0.282
			c-3.818,1.885-6.174,5.703-7.023,11.453c-0.234,1.509-0.424,2.498-0.564,2.97c-0.283,0.849-0.755,1.272-1.32,1.272
			s-1.131-0.33-1.603-0.896c-0.472-0.612-0.659-1.272-0.659-2.073c0-0.142,0.094-0.755,0.377-1.886
			c0.234-1.037,0.377-2.168,0.377-3.44c0-1.132-0.143-2.64-0.33-4.479c-0.849-1.178-1.273-2.828-1.273-4.901
			c0-0.472,0.143-0.943,0.425-1.414c0.235-0.377,0.565-0.613,0.942-0.613c0.896,0,1.603,0.519,2.121,1.461
			c0.377,0.849,0.707,2.263,0.99,4.242c2.875-4.336,6.174-6.504,9.851-6.504c0.612,0,1.179,0.282,1.744,0.849
			c0.519,0.565,0.802,1.178,0.802,1.838C289.593,29.113,289.121,29.679,288.179,30.15z"/>
		<path fill="#FFFFFF" d="M297.558,32.837c-0.943,3.677-1.461,6.882-1.556,9.71c0.612,0.565,0.942,1.272,0.942,2.121
			c0,0.282-0.188,0.519-0.471,0.801c-0.283,0.283-0.566,0.425-0.85,0.425c-2.168,0-3.205-1.933-3.205-5.798
			c0-1.838,0.613-5.421,1.886-10.747c-0.095-0.565-0.142-0.942-0.142-1.131c0-0.612,0.33-1.131,1.084-1.508
			c2.074,0,3.111,0.989,3.111,2.969L297.558,32.837z M298.972,14.266c-0.142,0-0.425-0.047-0.802-0.188
			c-1.366-0.471-2.026-1.696-2.026-3.676c0-0.99,0.66-1.697,1.979-2.169c1.603,0.188,2.403,1.226,2.403,3.205
			C300.526,13.323,300.009,14.266,298.972,14.266z"/>
		<path fill="#FFFFFF" d="M318.343,46.176c-3.582,0-6.223-1.603-7.919-4.854h-1.414c-1.226,0-2.403-0.235-3.63-0.754
			c-1.602-0.66-2.355-1.509-2.355-2.546c0-1.319,0.612-1.979,1.838-1.979c0.283,0,0.754,0.235,1.414,0.707s1.272,0.707,1.932,0.707
			h1.084c-0.141-0.801-0.188-1.461-0.188-1.933c0-2.263,0.565-4.383,1.696-6.363c1.319-2.31,2.97-3.487,4.997-3.487
			c1.178,0,2.309,0.565,3.439,1.696c1.132,1.132,1.697,2.404,1.697,3.724c0,3.488-2.356,6.505-7.07,9.05
			c1.132,1.367,2.357,2.027,3.771,2.027c0.377,0,0.99-0.048,1.791-0.142c0.801-0.095,1.414-0.188,1.791-0.188
			c0.471,0,0.942,0.235,1.32,0.612c0.377,0.472,0.564,0.943,0.564,1.414C323.103,45.375,321.501,46.176,318.343,46.176z
			 M316.739,30.197c-0.377-0.282-0.754-0.471-1.131-0.471c-0.848,0-1.508,0.707-1.979,2.12c-0.472,1.179-0.659,2.404-0.659,3.677
			v0.849c2.828-1.838,4.242-3.535,4.242-5.091C317.212,30.904,317.022,30.574,316.739,30.197z"/>
		<path fill="#FFFFFF" d="M343.135,44.432c-0.095,0.849-0.472,1.32-1.132,1.32c-0.707,0-1.272-0.283-1.744-0.849
			c-0.471-0.612-0.707-1.272-0.707-2.026c0-0.048,0.095-0.943,0.283-2.688l0.707-6.033c-3.912,2.97-6.646,5.751-8.248,8.391
			c-0.33,0.565-0.613,1.178-0.896,1.744c-0.471,0.754-0.941,1.178-1.414,1.178c-1.979,0-2.922-2.78-2.922-8.39
			c0-3.677,0.519-7.4,1.556-11.218c0.188-0.66,0.519-1.037,1.084-1.037c0.707,0,1.319,0.283,1.791,0.801
			c0.472,0.613,0.707,1.273,0.707,2.027c-0.235,0.942-0.472,1.979-0.707,3.11c-0.472,2.498-0.707,4.902-0.707,7.259
			c3.347-4.054,6.929-7.164,10.747-9.285c0.66,0.047,1.272,0.283,1.838,0.707c0.566,0.472,0.896,1.037,0.896,1.744
			C344.266,33.355,343.889,37.786,343.135,44.432z"/>
		<path fill="#FFFFFF" d="M361.421,43.442c-1.791,1.414-3.629,2.121-5.42,2.121c-1.979,0-3.629-0.66-4.949-1.933
			c-1.319-1.32-1.979-2.97-1.979-5.044c0-2.922,0.896-5.608,2.733-8.06c2.263-3.063,4.902-4.619,7.872-4.619
			c0.707,0,1.366,0.235,1.979,0.66c0.565,0.471,0.849,1.037,0.849,1.791c0,0.565-0.283,1.084-0.802,1.649
			c-0.612,0.565-1.225,0.802-1.838,0.802c-1.179,0-2.027-0.142-2.592-0.472c-1.273,0.849-2.311,2.026-3.158,3.44
			c-0.85,1.414-1.273,2.876-1.273,4.337c0,2.356,0.896,3.487,2.781,3.487c1.178,0,2.168-0.282,2.969-0.896
			c0.473-0.471,1.037-0.942,1.604-1.414c0.66-0.612,1.225-0.942,1.603-0.942c0.472,0,0.896,0.235,1.272,0.613
			c0.377,0.471,0.565,0.942,0.565,1.414C363.637,41.321,362.883,42.311,361.421,43.442z"/>
		<path fill="#FFFFFF" d="M374.1,32.837c-0.942,3.677-1.461,6.882-1.556,9.71c0.613,0.565,0.943,1.272,0.943,2.121
			c0,0.282-0.189,0.519-0.472,0.801c-0.282,0.283-0.565,0.425-0.849,0.425c-2.168,0-3.205-1.933-3.205-5.798
			c0-1.838,0.613-5.421,1.886-10.747c-0.095-0.565-0.142-0.942-0.142-1.131c0-0.612,0.33-1.131,1.084-1.508
			c2.074,0,3.111,0.989,3.111,2.969L374.1,32.837z M375.514,14.266c-0.142,0-0.425-0.047-0.802-0.188
			c-1.366-0.471-2.026-1.696-2.026-3.676c0-0.99,0.66-1.697,1.979-2.169c1.604,0.188,2.404,1.226,2.404,3.205
			C377.069,13.323,376.551,14.266,375.514,14.266z"/>
		<path fill="#FFFFFF" d="M397.761,34.816c-0.66,1.979-0.943,3.865-0.943,5.751c0,0.565,0.094,1.414,0.33,2.498
			c0.188,1.131,0.33,1.696,0.33,1.838c0,0.472-0.236,0.942-0.613,1.319c-0.424,0.283-0.895,0.472-1.367,0.472
			c-1.366,0-2.168-1.838-2.403-5.42c-2.64,2.639-4.996,3.959-7.117,3.959c-1.366,0-2.546-0.565-3.535-1.744
			c-1.037-1.131-1.509-2.403-1.509-3.865c0-2.733,1.604-5.656,4.855-8.673c3.111-2.922,5.939-4.431,8.531-4.431
			c0.613,0,1.226,0.283,1.838,0.755c0.566,0.471,0.896,1.037,0.896,1.603c0,0.235-0.048,0.471-0.095,0.659
			c0.282,0.849,0.472,1.792,0.472,2.876c0.377,0.471,0.612,0.942,0.612,1.366C398.043,33.968,397.948,34.298,397.761,34.816z
			 M392.905,30.669c-0.896,0-2.451,1.084-4.619,3.158c-2.404,2.31-3.582,4.194-3.582,5.703c0,1.178,0.471,1.744,1.461,1.744
			c1.414,0,3.064-1.037,4.855-3.205c1.791-2.169,2.733-4.054,2.733-5.656C393.754,31.281,393.471,30.669,392.905,30.669z"/>
		<path fill="#8ED8F8" d="M71.218,114.245c-5.974,0-10.375-2.672-13.205-8.096h-2.357c-2.044,0-4.009-0.393-6.053-1.258
			c-2.672-1.1-3.93-2.515-3.93-4.244c0-2.2,1.021-3.301,3.065-3.301c0.472,0,1.258,0.393,2.358,1.179
			c1.1,0.786,2.121,1.179,3.223,1.179h1.807c-0.235-1.336-0.314-2.437-0.314-3.222c0-3.773,0.943-7.311,2.83-10.611
			c2.201-3.852,4.951-5.816,8.332-5.816c1.965,0,3.851,0.943,5.737,2.83c1.886,1.886,2.829,4.008,2.829,6.209
			c0,5.816-3.93,10.847-11.789,15.091c1.886,2.279,3.93,3.38,6.287,3.38c0.629,0,1.65-0.079,2.986-0.236
			c1.337-0.157,2.358-0.314,2.987-0.314c0.786,0,1.572,0.394,2.2,1.022c0.629,0.786,0.943,1.571,0.943,2.357
			C79.155,112.909,76.483,114.245,71.218,114.245z M68.545,87.601c-0.629-0.472-1.257-0.786-1.886-0.786
			c-1.415,0-2.516,1.179-3.302,3.537c-0.786,1.965-1.101,4.008-1.101,6.131v1.414c4.717-3.065,7.074-5.895,7.074-8.488
			C69.331,88.779,69.017,88.229,68.545,87.601z"/>
		<path fill="#8ED8F8" d="M112.557,111.337c-0.157,1.415-0.786,2.201-1.886,2.201c-1.18,0-2.123-0.472-2.908-1.415
			c-0.786-1.021-1.18-2.122-1.18-3.38c0-0.078,0.158-1.572,0.473-4.479l1.178-10.061c-6.523,4.951-11.082,9.589-13.754,13.99
			c-0.551,0.943-1.021,1.965-1.494,2.908c-0.785,1.257-1.571,1.965-2.357,1.965c-3.301,0-4.873-4.638-4.873-13.99
			c0-6.131,0.865-12.341,2.594-18.707c0.314-1.101,0.865-1.729,1.808-1.729c1.179,0,2.2,0.471,2.987,1.336
			c0.785,1.021,1.179,2.122,1.179,3.38c-0.394,1.571-0.786,3.301-1.179,5.188c-0.787,4.165-1.18,8.174-1.18,12.104
			c5.58-6.759,11.555-11.946,17.921-15.483c1.101,0.078,2.122,0.472,3.065,1.179c0.943,0.786,1.493,1.729,1.493,2.908
			C114.443,92.866,113.814,100.255,112.557,111.337z"/>
		<path fill="#8ED8F8" d="M182.581,59.776c-5.423,1.101-9.273,3.537-11.632,7.31c-4.009,6.445-6.603,14.069-7.702,22.872
			c5.816-1.414,10.139-2.357,13.047-2.908c2.201-0.393,3.852-0.628,4.951-0.628c2.201,0,3.301,1.1,3.301,3.222
			c0,1.258-0.549,2.201-1.571,2.987c-0.943,0.786-2.044,1.179-3.302,1.179c-0.471,0-0.942-0.078-1.414-0.235
			c-2.201,0.393-7.389,1.571-15.72,3.458c-1.415,13.99-3.615,23.658-6.603,29.317c-1.258,2.357-2.515,3.536-3.615,3.536
			c-0.943,0-1.887-0.393-2.672-1.179c-0.786-0.864-1.101-1.886-1.101-2.986s0.628-2.279,1.965-3.459
			c2.044-1.729,3.93-9.667,5.502-23.814c-2.358,0.472-3.772,0.629-4.166,0.629c-0.707,0-1.336-0.314-1.965-1.101
			c-0.629-0.708-0.864-1.493-0.864-2.279c0-2.122,0.785-3.223,2.516-3.223c0.863,0,2.593-0.314,5.266-0.943
			c1.808-15.641,6.445-26.802,13.99-33.482c1.1-1.022,2.908-2.044,5.266-3.145c2.279-1.1,4.009-1.65,5.267-1.65
			c2.515,0,3.851,0.864,3.851,2.516C185.175,58.126,184.311,59.462,182.581,59.776z"/>
		<path fill="#8ED8F8" d="M215.511,95.303c-1.101,3.302-1.572,6.445-1.572,9.589c0,0.943,0.157,2.358,0.551,4.166
			c0.314,1.887,0.549,2.829,0.549,3.065c0,0.786-0.393,1.572-1.021,2.201c-0.707,0.471-1.493,0.785-2.279,0.785
			c-2.279,0-3.615-3.065-4.008-9.038c-4.402,4.401-8.332,6.602-11.869,6.602c-2.279,0-4.244-0.942-5.895-2.908
			c-1.729-1.886-2.516-4.008-2.516-6.444c0-4.559,2.673-9.432,8.096-14.462c5.188-4.873,9.904-7.389,14.227-7.389
			c1.021,0,2.044,0.472,3.065,1.258c0.943,0.786,1.493,1.729,1.493,2.672c0,0.394-0.078,0.786-0.156,1.101
			c0.471,1.415,0.785,2.986,0.785,4.795c0.629,0.785,1.021,1.571,1.021,2.279C215.981,93.889,215.825,94.438,215.511,95.303z
			 M207.415,88.387c-1.494,0-4.088,1.808-7.703,5.266c-4.008,3.852-5.973,6.995-5.973,9.511c0,1.965,0.785,2.908,2.436,2.908
			c2.358,0,5.109-1.729,8.096-5.345c2.987-3.616,4.559-6.76,4.559-9.432C208.829,89.408,208.358,88.387,207.415,88.387z"/>
		<path fill="#8ED8F8" d="M273.827,112.201c-3.301,0-5.58-5.423-6.838-16.27c-3.223,2.908-6.445,6.838-9.746,11.711
			c-1.572,2.437-3.066,3.616-4.48,3.616s-2.672-0.943-3.615-2.83c-1.887-3.458-2.986-8.488-3.459-15.012
			c-7.152,4.873-11.789,10.847-13.833,17.92c-0.628,2.201-1.808,3.301-3.458,3.301c-2.437,0-3.615-2.2-3.615-6.602
			c0-2.358,0.55-6.288,1.807-11.947c1.18-5.502,1.809-9.039,1.809-10.768c0-1.493-0.393-3.065-1.18-4.638
			c0.079-1.258,0.629-2.279,1.572-3.065c0.865-0.786,1.809-1.179,2.83-1.179c2.279,0,3.458,2.516,3.458,7.389
			c0,2.043-0.786,6.366-2.279,13.125c9.274-8.724,14.854-13.125,16.898-13.125c1.258,0,2.122,0.55,2.515,1.493
			c0.236,0.629,0.394,2.043,0.394,4.087c0,5.974,0.394,10.218,1.258,12.575c7.388-9.903,13.047-14.934,17.056-14.934
			c1.729,0,2.594,0.943,2.672,2.83c0.314,8.017,1.415,13.519,3.301,16.349c0.787,1.257,1.18,2.043,1.18,2.279
			C278.071,111.022,276.656,112.201,273.827,112.201z"/>
		<path fill="#8ED8F8" d="M294.729,92.002c-1.571,6.131-2.437,11.476-2.594,16.191c1.022,0.943,1.572,2.122,1.572,3.537
			c0,0.471-0.314,0.864-0.786,1.336s-0.943,0.707-1.414,0.707c-3.616,0-5.346-3.223-5.346-9.667c0-3.065,1.021-9.039,3.145-17.921
			c-0.157-0.943-0.236-1.572-0.236-1.887c0-1.021,0.551-1.886,1.809-2.515c3.458,0,5.188,1.65,5.188,4.951L294.729,92.002z
			 M297.087,61.034c-0.236,0-0.707-0.078-1.336-0.314c-2.279-0.786-3.381-2.829-3.381-6.131c0-1.65,1.102-2.829,3.302-3.615
			c2.673,0.314,4.009,2.044,4.009,5.345C299.681,59.462,298.815,61.034,297.087,61.034z"/>
		<path fill="#8ED8F8" d="M319.092,62.056l-0.55,0.786c-2.358,9.039-3.537,18.078-3.537,27.116c0,3.773,0.393,10.532,1.179,20.121
			c0,0.314,0,0.786,0.157,1.494c0.078,0.628,0.157,1.1,0.157,1.336c0,0.393-0.314,0.786-0.786,1.179
			c-0.55,0.472-1.021,0.707-1.414,0.707c-1.572,0-2.908-1.179-4.009-3.458c-1.179-2.279-1.729-4.716-1.729-7.388
			c0-2.437,0.236-4.166,0.786-5.109c-0.314-4.716-0.472-8.41-0.472-11.082c0-10.375,1.494-20.436,4.559-30.182
			c0.865-2.83,1.809-4.323,2.83-4.323c0.943,0,2.043,0.708,3.301,1.965c1.258,1.415,1.965,2.516,1.965,3.459
			C321.528,60.17,320.664,61.271,319.092,62.056z"/>
		<path fill="#8ED8F8" d="M337.325,92.002c-1.572,6.131-2.438,11.476-2.594,16.191c1.021,0.943,1.572,2.122,1.572,3.537
			c0,0.471-0.314,0.864-0.787,1.336c-0.471,0.472-0.943,0.707-1.414,0.707c-3.615,0-5.345-3.223-5.345-9.667
			c0-3.065,1.021-9.039,3.144-17.921c-0.156-0.943-0.235-1.572-0.235-1.887c0-1.021,0.55-1.886,1.808-2.515
			c3.458,0,5.188,1.65,5.188,4.951L337.325,92.002z M339.683,61.034c-0.235,0-0.707-0.078-1.336-0.314
			c-2.279-0.786-3.38-2.829-3.38-6.131c0-1.65,1.101-2.829,3.302-3.615c2.672,0.314,4.008,2.044,4.008,5.345
			C342.276,59.462,341.412,61.034,339.683,61.034z"/>
		<path fill="#8ED8F8" d="M376.779,95.303c-1.101,3.302-1.571,6.445-1.571,9.589c0,0.943,0.156,2.358,0.55,4.166
			c0.314,1.887,0.55,2.829,0.55,3.065c0,0.786-0.393,1.572-1.021,2.201c-0.707,0.471-1.494,0.785-2.279,0.785
			c-2.279,0-3.615-3.065-4.009-9.038c-4.401,4.401-8.331,6.602-11.868,6.602c-2.279,0-4.244-0.942-5.895-2.908
			c-1.729-1.886-2.516-4.008-2.516-6.444c0-4.559,2.672-9.432,8.096-14.462c5.188-4.873,9.903-7.389,14.227-7.389
			c1.021,0,2.043,0.472,3.064,1.258c0.943,0.786,1.494,1.729,1.494,2.672c0,0.394-0.078,0.786-0.157,1.101
			c0.472,1.415,0.786,2.986,0.786,4.795c0.629,0.785,1.021,1.571,1.021,2.279C377.251,93.889,377.094,94.438,376.779,95.303z
			 M368.684,88.387c-1.493,0-4.087,1.808-7.702,5.266c-4.009,3.852-5.974,6.995-5.974,9.511c0,1.965,0.786,2.908,2.437,2.908
			c2.357,0,5.109-1.729,8.096-5.345c2.986-3.616,4.559-6.76,4.559-9.432C370.099,89.408,369.627,88.387,368.684,88.387z"/>
	</g>
</g>
</svg>
