<?xml version="1.0" encoding="utf-8"?>
<!-- Generator: Adobe Illustrator 16.0.0, SVG Export Plug-In . SVG Version: 6.00 Build 0)  -->
<!DOCTYPE svg PUBLIC "-//W3C//DTD SVG 1.1//EN" "http://www.w3.org/Graphics/SVG/1.1/DTD/svg11.dtd">
<svg version="1.1" id="Layer_1" xmlns="http://www.w3.org/2000/svg" xmlns:xlink="http://www.w3.org/1999/xlink" x="0px" y="0px"
	 width="425.2px" height="127.827px" viewBox="0 0 425.2 127.827" enable-background="new 0 0 425.2 127.827" xml:space="preserve">
<g>
	<g>
		<path fill="#FFFFFF" d="M39.385,32.762c0,0.092,0,1.06,0.046,2.81c0,1.842,0,2.993,0,3.546c0,3.592-1.105,7.184-3.315,10.729
			c-2.533,4.099-5.526,6.125-8.934,6.125c-3.546,0-6.217-1.612-8.013-4.928c-1.474-2.671-2.21-6.125-2.21-10.27
			c0-1.243,0.092-3.131,0.276-5.618c0.138-2.532,0.23-4.421,0.23-5.71c0-0.276-0.046-0.783-0.046-1.474
			c-0.092-0.645-0.092-1.105-0.092-1.428c0-0.414,0.185-0.783,0.599-1.151c0.322-0.276,0.69-0.461,1.151-0.461
			c1.474,0,2.21,1.244,2.21,3.639c0,1.013-0.138,3.27-0.322,6.77c-0.276,3.5-0.415,5.618-0.415,6.354
			c0,3.316,0.691,5.94,2.119,7.967c1.197,1.796,2.671,2.671,4.329,2.671c2.763,0,5.02-1.796,6.77-5.434
			c1.474-3.132,2.256-6.585,2.256-10.407c0-2.533-0.322-5.757-0.967-9.625c-0.185-1.151-0.46-2.671-0.783-4.513
			c0.138-1.197,0.783-1.843,1.98-1.843c0.737,0,1.243,0.415,1.565,1.197c1.151,2.855,1.75,5.849,1.75,8.98
			C39.569,31.288,39.477,31.979,39.385,32.762z"/>
		<path fill="#FFFFFF" d="M60.479,54.59c-0.092,0.829-0.46,1.289-1.105,1.289c-0.691,0-1.243-0.275-1.704-0.828
			c-0.461-0.599-0.691-1.244-0.691-1.98c0-0.046,0.092-0.921,0.276-2.625l0.69-5.895c-3.822,2.901-6.493,5.618-8.059,8.197
			c-0.322,0.553-0.599,1.151-0.875,1.704c-0.46,0.736-0.921,1.151-1.382,1.151c-1.934,0-2.855-2.718-2.855-8.197
			c0-3.592,0.507-7.23,1.52-10.961c0.185-0.645,0.507-1.013,1.06-1.013c0.69,0,1.289,0.276,1.75,0.783
			c0.461,0.599,0.691,1.243,0.691,1.979c-0.23,0.922-0.46,1.935-0.691,3.04c-0.46,2.44-0.69,4.789-0.69,7.092
			c3.27-3.961,6.77-7,10.5-9.072c0.645,0.046,1.243,0.276,1.796,0.69c0.553,0.461,0.875,1.014,0.875,1.704
			C61.583,43.768,61.215,48.097,60.479,54.59z"/>
		<path fill="#8ED8F8" d="M105.246,13.658c-3.642,0.81-7.014,2.293-10.184,4.384c-3.912,2.562-5.868,5.126-5.868,7.823
			c0,1.754,2.36,3.845,7.149,6.138c2.967,1.483,5.125,2.832,6.407,4.047c2.023,1.955,3.035,4.316,3.035,7.081
			c0,3.979-2.023,7.352-5.935,10.049c-3.574,2.496-7.351,3.777-11.263,3.777c-4.114,0-6.138-1.146-6.138-3.439
			c0-0.81,0.27-1.484,0.81-2.023c0.472-0.675,1.079-1.012,1.888-1.012c0.405,0,1.012,0.135,1.889,0.337
			c0.742,0.202,1.349,0.271,1.753,0.271c2.36,0,4.789-0.675,7.284-2.091c2.765-1.619,4.182-3.643,4.182-5.936
			c0-1.889-2.496-4.047-7.351-6.34c-3.035-1.349-5.126-2.63-6.205-3.709c-2.023-1.889-3.035-4.249-3.035-7.217
			c0-3.574,1.754-6.946,5.396-10.116c2.63-2.429,5.935-4.384,9.982-6.003c0.876-1.483,2.36-2.226,4.451-2.226
			c0.944,0,1.889,0.337,2.698,0.877c0.674,0.606,1.079,1.416,1.079,2.495C107.269,12.377,106.595,13.32,105.246,13.658z"/>
		<path fill="#8ED8F8" d="M141.465,34.565c-0.54,1.417-1.079,4.047-1.753,7.892c-0.607,3.507-0.877,5.732-0.877,6.677
			c0,0.539,0.067,1.214,0.203,2.023c0.135,0.876,0.202,1.416,0.202,1.618c0,1.012-0.27,1.889-0.81,2.631
			c-0.539,0.809-1.281,1.214-2.226,1.214c-0.809,0-1.551-0.271-2.158-0.675c-0.674-0.404-1.012-1.012-1.012-1.821
			c0-0.539,0.135-1.012,0.472-1.551c0-1.146,0.27-3.912,0.81-8.363c-6.609,7.621-11.668,11.398-15.242,11.398
			c-1.619,0-2.9-0.405-3.912-1.214c-1.079-0.877-1.619-2.091-1.619-3.71c0-1.349,0.405-4.047,1.349-8.16
			c0.944-4.789,1.484-7.689,1.484-8.769c0-0.135,0-0.337,0-0.741c-0.067-0.271-0.067-0.54-0.067-0.742
			c0-0.675,0.27-1.349,0.809-2.023c0.472-0.674,1.012-1.012,1.686-1.012c1.821,0,2.765,1.484,2.765,4.316
			c0,1.214-0.405,3.845-1.214,7.756c-0.877,4.047-1.281,6.542-1.281,7.622c0,0.539,0.27,0.809,0.809,0.809
			c3.17,0,8.97-6.205,17.468-18.682c0.675-0.944,1.349-1.416,2.158-1.416c1.619,0,2.428,0.943,2.428,2.832
			C141.938,32.947,141.735,33.621,141.465,34.565z"/>
		<path fill="#8ED8F8" d="M167.434,56.957c-5.125,0-8.902-2.293-11.331-6.947h-2.023c-1.754,0-3.44-0.337-5.193-1.078
			c-2.293-0.944-3.372-2.158-3.372-3.643c0-1.889,0.876-2.832,2.63-2.832c0.404,0,1.079,0.337,2.023,1.011
			c0.944,0.675,1.821,1.012,2.765,1.012h1.551c-0.202-1.146-0.27-2.091-0.27-2.765c0-3.237,0.809-6.272,2.428-9.105
			c1.889-3.305,4.249-4.99,7.149-4.99c1.686,0,3.305,0.809,4.923,2.428s2.428,3.439,2.428,5.328c0,4.991-3.372,9.308-10.116,12.949
			c1.618,1.956,3.372,2.9,5.396,2.9c0.539,0,1.416-0.067,2.562-0.203c1.146-0.135,2.023-0.27,2.563-0.27
			c0.674,0,1.349,0.338,1.888,0.877c0.54,0.675,0.81,1.349,0.81,2.023C174.246,55.811,171.953,56.957,167.434,56.957z
			 M165.141,34.094c-0.54-0.405-1.079-0.675-1.619-0.675c-1.214,0-2.158,1.012-2.833,3.035c-0.674,1.687-0.944,3.439-0.944,5.261
			v1.214c4.047-2.63,6.07-5.059,6.07-7.284C165.815,35.105,165.545,34.633,165.141,34.094z"/>
		<path fill="#8ED8F8" d="M202.912,54.462c-0.135,1.214-0.674,1.888-1.619,1.888c-1.012,0-1.821-0.404-2.495-1.214
			c-0.675-0.877-1.012-1.82-1.012-2.899c0-0.068,0.135-1.35,0.405-3.845l1.011-8.633c-5.598,4.249-9.509,8.229-11.802,12.005
			c-0.472,0.81-0.877,1.687-1.282,2.495c-0.674,1.079-1.349,1.687-2.023,1.687c-2.833,0-4.181-3.979-4.181-12.005
			c0-5.261,0.742-10.589,2.226-16.052c0.27-0.944,0.742-1.483,1.551-1.483c1.011,0,1.888,0.404,2.562,1.146
			c0.675,0.876,1.012,1.82,1.012,2.899c-0.337,1.35-0.674,2.833-1.012,4.451c-0.674,3.575-1.011,7.015-1.011,10.387
			c4.788-5.8,9.914-10.251,15.377-13.286c0.944,0.067,1.821,0.404,2.63,1.012c0.809,0.674,1.281,1.483,1.281,2.495
			C204.53,38.612,203.991,44.952,202.912,54.462z M202.575,19.256c-2.63,2.226-4.586,3.305-5.935,3.305
			c-1.214,0-2.293-0.539-3.17-1.618c-1.079-1.282-1.956-1.956-2.496-1.956c-1.079,0-2.495,1.012-4.384,3.035
			c-0.81,0.943-1.417,1.349-1.956,1.349s-0.944-0.202-1.349-0.742c-0.405-0.404-0.54-0.944-0.54-1.483
			c0-0.54,0.135-1.012,0.472-1.417c2.833-3.372,5.463-5.125,7.958-5.125c1.282,0,2.428,0.539,3.507,1.551
			c0.944,1.012,1.686,1.483,2.226,1.483c0.674,0,1.686-0.606,3.103-1.82c0.674-0.607,1.349-0.944,1.888-0.944
			c1.282,0,1.956,0.742,1.956,2.158C203.856,17.84,203.384,18.581,202.575,19.256z"/>
		<path fill="#8ED8F8" d="M229.487,51.494c-2.226,3.103-4.991,4.586-8.228,4.586c-2.833,0-5.193-1.146-7.082-3.305
			c-1.888-2.226-2.765-5.059-2.765-8.498c0-2.9,0.607-5.665,1.956-8.228c1.349-2.833,3.237-4.856,5.53-6.003
			c0.54-0.202,1.282-0.607,2.226-1.146c0.81-0.54,1.417-0.877,1.956-0.877c0.135,0,0.674,0.135,1.619,0.404
			c2.36,0.81,4.316,2.294,5.868,4.385c1.484,2.158,2.226,4.586,2.226,7.216C232.792,44.615,231.646,48.392,229.487,51.494z
			 M225.508,35.51c-1.079,0-1.956-0.202-2.63-0.607c-1.889,0-3.44,1.147-4.654,3.306c-1.079,1.888-1.551,3.911-1.551,6.069
			c0,1.619,0.405,3.035,1.282,4.249c0.809,1.281,1.888,1.889,3.237,1.889c1.618,0,3.035-1.012,4.384-3.035
			c1.214-1.956,1.888-4.047,1.888-6.34C227.464,38.208,226.79,36.319,225.508,35.51z"/>
		<path fill="#FFFFFF" d="M286.617,57.361c-2.833,0-4.316-3.17-4.586-9.645l-0.337-8.16c-6.07,4.519-9.981,8.363-11.735,11.533
			c-0.472,1.078-0.944,2.158-1.484,3.169c-0.81,1.484-1.417,2.226-1.956,2.226c-1.012,0-1.888-0.404-2.63-1.214
			c-0.674-0.876-1.012-1.82-1.012-2.765c0-0.135,0-0.742,0-1.821c-0.067-1.012-0.067-1.753-0.067-2.158
			c0-6.475,0.54-12.814,1.754-19.019l3.912-21.515c0.405-2.226,1.146-3.373,2.226-3.373c0.877,0,1.619,0.473,2.226,1.417
			c0.674,0.944,1.012,1.889,1.012,2.832c0,0.338-0.202,1.417-0.54,3.305c-0.405,1.956-1.012,4.856-1.686,8.769l-2.023,10.588
			c-0.337,1.754-0.876,5.733-1.619,11.938c1.484-1.82,4.047-4.181,7.824-7.081c3.912-3.103,6.542-4.653,7.756-4.653
			c1.012,0,1.821,0.472,2.496,1.281c0.674,0.944,1.079,1.956,1.079,3.035c0,0.202-0.135,1.146-0.27,2.832
			c-0.135,1.687-0.135,2.766-0.135,3.17c0,2.833,0.202,5.8,0.607,8.97c0.135,1.215,0.337,2.631,0.54,4.385
			C287.831,56.688,287.426,57.361,286.617,57.361z"/>
		<path fill="#FFFFFF" d="M314.811,56.957c-5.125,0-8.902-2.293-11.331-6.947h-2.023c-1.754,0-3.44-0.337-5.193-1.078
			c-2.293-0.944-3.372-2.158-3.372-3.643c0-1.889,0.876-2.832,2.63-2.832c0.404,0,1.079,0.337,2.023,1.011
			c0.944,0.675,1.821,1.012,2.765,1.012h1.551c-0.202-1.146-0.27-2.091-0.27-2.765c0-3.237,0.809-6.272,2.428-9.105
			c1.889-3.305,4.249-4.99,7.149-4.99c1.686,0,3.305,0.809,4.923,2.428s2.428,3.439,2.428,5.328c0,4.991-3.372,9.308-10.116,12.949
			c1.618,1.956,3.372,2.9,5.396,2.9c0.539,0,1.416-0.067,2.562-0.203c1.146-0.135,2.023-0.27,2.563-0.27
			c0.674,0,1.349,0.338,1.888,0.877c0.54,0.675,0.81,1.349,0.81,2.023C321.623,55.811,319.33,56.957,314.811,56.957z
			 M312.518,34.094c-0.54-0.405-1.079-0.675-1.619-0.675c-1.214,0-2.158,1.012-2.833,3.035c-0.674,1.687-0.944,3.439-0.944,5.261
			v1.214c4.047-2.63,6.07-5.059,6.07-7.284C313.192,35.105,312.922,34.633,312.518,34.094z"/>
		<path fill="#FFFFFF" d="M344.287,53.045c-2.563,2.023-5.193,3.035-7.756,3.035c-2.833,0-5.193-0.944-7.082-2.765
			c-1.889-1.889-2.833-4.249-2.833-7.217c0-4.182,1.282-8.026,3.912-11.533c3.237-4.384,7.014-6.609,11.263-6.609
			c1.011,0,1.956,0.337,2.833,0.944c0.809,0.675,1.214,1.483,1.214,2.562c0,0.81-0.405,1.552-1.146,2.361
			c-0.877,0.809-1.753,1.146-2.63,1.146c-1.686,0-2.9-0.203-3.709-0.675c-1.821,1.214-3.305,2.9-4.519,4.923
			c-1.214,2.023-1.821,4.114-1.821,6.205c0,3.372,1.282,4.991,3.979,4.991c1.686,0,3.102-0.405,4.249-1.281
			c0.674-0.675,1.483-1.35,2.293-2.023c0.944-0.877,1.753-1.349,2.293-1.349c0.674,0,1.282,0.337,1.821,0.876
			c0.54,0.675,0.81,1.35,0.81,2.023C347.457,50.01,346.377,51.427,344.287,53.045z"/>
		<path fill="#FFFFFF" d="M377.47,57.361c-2.833,0-4.316-3.17-4.586-9.645l-0.337-8.16c-6.07,4.519-9.981,8.363-11.735,11.533
			c-0.472,1.078-0.944,2.158-1.484,3.169c-0.81,1.484-1.417,2.226-1.956,2.226c-1.012,0-1.888-0.404-2.63-1.214
			c-0.674-0.876-1.012-1.82-1.012-2.765c0-0.135,0-0.742,0-1.821c-0.067-1.012-0.067-1.753-0.067-2.158
			c0-6.475,0.54-12.814,1.754-19.019l3.912-21.515c0.405-2.226,1.146-3.373,2.226-3.373c0.877,0,1.619,0.473,2.226,1.417
			c0.674,0.944,1.012,1.889,1.012,2.832c0,0.338-0.202,1.417-0.54,3.305c-0.405,1.956-1.012,4.856-1.686,8.769l-2.023,10.588
			c-0.337,1.754-0.876,5.733-1.619,11.938c1.484-1.82,4.047-4.181,7.824-7.081c3.912-3.103,6.542-4.653,7.756-4.653
			c1.012,0,1.821,0.472,2.496,1.281c0.674,0.944,1.079,1.956,1.079,3.035c0,0.202-0.135,1.146-0.27,2.832
			c-0.135,1.687-0.135,2.766-0.135,3.17c0,2.833,0.202,5.8,0.607,8.97c0.135,1.215,0.337,2.631,0.54,4.385
			C378.685,56.688,378.28,57.361,377.47,57.361z"/>
		<path fill="#FFFFFF" d="M403.776,51.494c-2.226,3.103-4.991,4.586-8.228,4.586c-2.833,0-5.193-1.146-7.082-3.305
			c-1.888-2.226-2.765-5.059-2.765-8.498c0-2.9,0.607-5.665,1.956-8.228c1.349-2.833,3.237-4.856,5.53-6.003
			c0.54-0.202,1.282-0.607,2.226-1.146c0.81-0.54,1.417-0.877,1.956-0.877c0.135,0,0.674,0.135,1.619,0.404
			c2.36,0.81,4.316,2.294,5.868,4.385c1.484,2.158,2.226,4.586,2.226,7.216C407.081,44.615,405.935,48.392,403.776,51.494z
			 M399.797,35.51c-1.079,0-1.956-0.202-2.63-0.607c-1.889,0-3.44,1.147-4.654,3.306c-1.079,1.888-1.551,3.911-1.551,6.069
			c0,1.619,0.405,3.035,1.282,4.249c0.809,1.281,1.888,1.889,3.237,1.889c1.618,0,3.035-1.012,4.384-3.035
			c1.214-1.956,1.888-4.047,1.888-6.34C401.753,38.208,401.079,36.319,399.797,35.51z"/>
		<path fill="#ABE1FA" d="M128.522,94.216c-1.349,0.809-2.563,1.146-3.642,1.146c-0.067,0-0.472-0.135-1.281-0.405
			c-5.463,2.698-8.835,8.161-10.049,16.39c-0.337,2.158-0.607,3.574-0.809,4.249c-0.405,1.214-1.079,1.82-1.889,1.82
			c-0.809,0-1.619-0.472-2.293-1.281c-0.674-0.877-0.944-1.821-0.944-2.968c0-0.202,0.135-1.079,0.54-2.697
			c0.337-1.484,0.54-3.103,0.54-4.924c0-1.618-0.202-3.776-0.472-6.407c-1.214-1.686-1.821-4.047-1.821-7.014
			c0-0.675,0.202-1.35,0.607-2.023c0.337-0.54,0.81-0.877,1.349-0.877c1.281,0,2.293,0.742,3.035,2.091
			c0.54,1.214,1.012,3.237,1.417,6.07c4.114-6.205,8.835-9.308,14.096-9.308c0.877,0,1.686,0.404,2.496,1.214
			c0.742,0.81,1.146,1.687,1.146,2.631C130.546,92.731,129.872,93.541,128.522,94.216z"/>
		<path fill="#ABE1FA" d="M153.141,117.146c-5.125,0-8.902-2.293-11.331-6.947h-2.023c-1.754,0-3.44-0.337-5.193-1.078
			c-2.293-0.944-3.372-2.158-3.372-3.643c0-1.889,0.876-2.832,2.63-2.832c0.404,0,1.079,0.337,2.023,1.011
			c0.944,0.675,1.821,1.012,2.766,1.012h1.551c-0.202-1.146-0.27-2.091-0.27-2.765c0-3.237,0.809-6.272,2.428-9.105
			c1.889-3.305,4.249-4.99,7.149-4.99c1.686,0,3.305,0.809,4.923,2.428s2.428,3.439,2.428,5.328c0,4.991-3.372,9.308-10.117,12.949
			c1.619,1.956,3.373,2.9,5.396,2.9c0.54,0,1.417-0.067,2.563-0.203c1.146-0.135,2.023-0.27,2.563-0.27
			c0.674,0,1.349,0.338,1.889,0.877c0.539,0.675,0.809,1.349,0.809,2.023C159.953,116,157.66,117.146,153.141,117.146z
			 M150.848,94.283c-0.54-0.405-1.079-0.675-1.619-0.675c-1.214,0-2.158,1.012-2.833,3.035c-0.674,1.687-0.944,3.439-0.944,5.261
			v1.214c4.047-2.63,6.07-5.059,6.07-7.284C151.522,95.295,151.253,94.822,150.848,94.283z"/>
		<path fill="#ABE1FA" d="M189.024,100.893c-0.944,2.832-1.349,5.53-1.349,8.229c0,0.809,0.135,2.022,0.472,3.574
			c0.27,1.618,0.472,2.428,0.472,2.63c0,0.675-0.337,1.349-0.876,1.889c-0.607,0.404-1.282,0.675-1.956,0.675
			c-1.956,0-3.103-2.631-3.439-7.757c-3.777,3.777-7.149,5.666-10.184,5.666c-1.956,0-3.642-0.81-5.059-2.496
			c-1.483-1.618-2.158-3.439-2.158-5.53c0-3.911,2.293-8.093,6.947-12.409c4.452-4.182,8.498-6.34,12.208-6.34
			c0.877,0,1.753,0.404,2.63,1.079c0.809,0.674,1.281,1.483,1.281,2.293c0,0.337-0.067,0.675-0.135,0.944
			c0.405,1.214,0.674,2.562,0.674,4.114c0.54,0.674,0.877,1.349,0.877,1.955C189.429,99.679,189.294,100.15,189.024,100.893z
			 M182.078,94.957c-1.281,0-3.507,1.552-6.609,4.52c-3.439,3.305-5.126,6.002-5.126,8.16c0,1.687,0.675,2.495,2.091,2.495
			c2.023,0,4.384-1.483,6.947-4.586s3.912-5.8,3.912-8.093C183.292,95.834,182.887,94.957,182.078,94.957z"/>
		<path fill="#ABE1FA" d="M207.439,72.363l-0.472,0.675c-2.023,7.756-3.035,15.512-3.035,23.269c0,3.237,0.337,9.037,1.011,17.266
			c0,0.27,0,0.674,0.135,1.281c0.067,0.539,0.135,0.944,0.135,1.146c0,0.337-0.27,0.674-0.674,1.012
			c-0.472,0.404-0.877,0.606-1.214,0.606c-1.349,0-2.495-1.012-3.439-2.967c-1.012-1.956-1.484-4.047-1.484-6.34
			c0-2.091,0.203-3.575,0.674-4.384c-0.27-4.047-0.404-7.217-0.404-9.51c0-8.902,1.281-17.535,3.912-25.898
			c0.742-2.428,1.551-3.71,2.428-3.71c0.809,0,1.753,0.607,2.833,1.687c1.079,1.214,1.686,2.158,1.686,2.968
			C209.53,70.745,208.788,71.689,207.439,72.363z"/>
		<path fill="#ABE1FA" d="M223.088,98.06c-1.349,5.261-2.091,9.847-2.226,13.894c0.877,0.81,1.349,1.821,1.349,3.035
			c0,0.404-0.27,0.742-0.674,1.146c-0.405,0.404-0.81,0.607-1.214,0.607c-3.103,0-4.586-2.766-4.586-8.296
			c0-2.631,0.877-7.756,2.698-15.377c-0.135-0.81-0.202-1.35-0.202-1.619c0-0.877,0.472-1.618,1.551-2.158
			c2.968,0,4.452,1.416,4.452,4.249L223.088,98.06z M225.111,71.487c-0.202,0-0.607-0.067-1.146-0.271
			c-1.956-0.674-2.9-2.428-2.9-5.26c0-1.417,0.944-2.429,2.833-3.103c2.293,0.27,3.439,1.753,3.439,4.586
			C227.336,70.138,226.595,71.487,225.111,71.487z"/>
		<path fill="#ABE1FA" d="M257.215,71.757c-0.674,3.776-1.079,6.677-1.079,8.633c-0.067,1.079-0.135,1.889-0.135,2.293
			c-0.202,0.81-0.54,1.483-1.079,1.956c-0.404,6.34-0.54,11.397-0.54,15.107c0,7.014,0.405,12.814,1.214,17.468
			c0.27,1.889,0.472,2.968,0.472,3.237c0,0.675-0.27,1.281-0.809,1.821c-0.607,0.539-1.214,0.809-1.821,0.809
			c-1.349,0-2.158-0.943-2.428-2.697c-0.27-1.483-0.742-5.193-1.417-11.128c-0.944,1.955-2.36,3.776-4.384,5.396
			c-2.158,1.753-4.182,2.63-5.935,2.63c-2.36,0-4.181-0.742-5.463-2.226c-1.281-1.416-1.888-3.372-1.888-5.867
			c0-3.306,1.619-7.217,4.856-11.668c3.169-4.384,6.137-6.609,8.97-6.609c1.012,0,2.226,0.674,3.642,1.888
			c0.81-11.33,1.956-20.03,3.439-25.966c0.27-1.349,1.146-2.023,2.563-2.023c1.619,0,2.428,0.877,2.428,2.631
			C257.823,67.912,257.62,69.329,257.215,71.757z M245.953,96.846c-0.27,0-0.472-0.067-0.472-0.067
			c-1.079,0-3.103,2.023-6.002,5.936c-1.754,2.36-2.563,4.451-2.563,6.271c0,1.687,0.607,2.496,1.821,2.496
			c1.349,0,2.833-0.742,4.384-2.36c1.214-1.282,2.293-2.766,3.103-4.452c0.405-0.944,0.944-2.36,1.619-4.181
			C247.032,99.948,246.424,98.734,245.953,96.846z"/>
		<path fill="#ABE1FA" d="M288.107,100.893c-0.944,2.832-1.349,5.53-1.349,8.229c0,0.809,0.135,2.022,0.472,3.574
			c0.27,1.618,0.472,2.428,0.472,2.63c0,0.675-0.337,1.349-0.876,1.889c-0.607,0.404-1.282,0.675-1.956,0.675
			c-1.956,0-3.103-2.631-3.439-7.757c-3.777,3.777-7.149,5.666-10.184,5.666c-1.956,0-3.642-0.81-5.059-2.496
			c-1.483-1.618-2.158-3.439-2.158-5.53c0-3.911,2.293-8.093,6.947-12.409c4.452-4.182,8.498-6.34,12.208-6.34
			c0.877,0,1.753,0.404,2.63,1.079c0.809,0.674,1.281,1.483,1.281,2.293c0,0.337-0.067,0.675-0.135,0.944
			c0.405,1.214,0.674,2.562,0.674,4.114c0.54,0.674,0.877,1.349,0.877,1.955C288.512,99.679,288.377,100.15,288.107,100.893z
			 M281.161,94.957c-1.281,0-3.507,1.552-6.609,4.52c-3.439,3.305-5.126,6.002-5.126,8.16c0,1.687,0.675,2.495,2.091,2.495
			c2.023,0,4.384-1.483,6.947-4.586s3.912-5.8,3.912-8.093C282.375,95.834,281.97,94.957,281.161,94.957z"/>
		<path fill="#ABE1FA" d="M319.742,71.757c-0.675,3.776-1.079,6.677-1.079,8.633c-0.068,1.079-0.135,1.889-0.135,2.293
			c-0.202,0.81-0.54,1.483-1.079,1.956c-0.405,6.34-0.54,11.397-0.54,15.107c0,7.014,0.405,12.814,1.214,17.468
			c0.27,1.889,0.472,2.968,0.472,3.237c0,0.675-0.27,1.281-0.809,1.821c-0.607,0.539-1.214,0.809-1.821,0.809
			c-1.349,0-2.158-0.943-2.428-2.697c-0.27-1.483-0.742-5.193-1.417-11.128c-0.944,1.955-2.36,3.776-4.384,5.396
			c-2.158,1.753-4.181,2.63-5.935,2.63c-2.36,0-4.182-0.742-5.463-2.226c-1.281-1.416-1.888-3.372-1.888-5.867
			c0-3.306,1.619-7.217,4.856-11.668c3.17-4.384,6.137-6.609,8.97-6.609c1.012,0,2.226,0.674,3.642,1.888
			c0.809-11.33,1.956-20.03,3.439-25.966c0.27-1.349,1.147-2.023,2.563-2.023c1.619,0,2.428,0.877,2.428,2.631
			C320.349,67.912,320.146,69.329,319.742,71.757z M308.479,96.846c-0.27,0-0.472-0.067-0.472-0.067
			c-1.079,0-3.103,2.023-6.002,5.936c-1.754,2.36-2.563,4.451-2.563,6.271c0,1.687,0.607,2.496,1.821,2.496
			c1.349,0,2.833-0.742,4.384-2.36c1.214-1.282,2.293-2.766,3.103-4.452c0.405-0.944,0.944-2.36,1.619-4.181
			C309.558,99.948,308.951,98.734,308.479,96.846z"/>
	</g>
</g>
</svg>
