<?xml version="1.0" encoding="utf-8"?>
<!-- Generator: Adobe Illustrator 16.0.0, SVG Export Plug-In . SVG Version: 6.00 Build 0)  -->
<!DOCTYPE svg PUBLIC "-//W3C//DTD SVG 1.1//EN" "http://www.w3.org/Graphics/SVG/1.1/DTD/svg11.dtd">
<svg version="1.1" id="Layer_1" xmlns="http://www.w3.org/2000/svg" xmlns:xlink="http://www.w3.org/1999/xlink" x="0px" y="0px"
	 width="425.2px" height="124.464px" viewBox="0 0 425.2 124.464" enable-background="new 0 0 425.2 124.464" xml:space="preserve">
<g>
	<g>
		<path fill="#FFFFFF" d="M54.791,47.941c-2.973,4.624-7.398,6.87-13.211,6.87c-4.624,0-8.323-1.52-10.965-4.624
			c-2.774-3.038-4.096-7.002-4.096-11.89c0-2.51,0.859-6.077,2.708-10.635c1.585-4.162,3.435-7.729,5.417-10.701
			c-2.312,1.188-3.633,1.718-3.897,1.718c-1.85,0-2.708-0.925-2.708-2.774c0-1.255,1.387-2.576,4.228-3.964
			c6.737-3.303,12.814-4.954,18.231-4.954c1.718,0,3.237,0.396,4.558,1.189c0.858,0.528,1.321,1.387,1.321,2.576
			c0,1.585-0.924,2.378-2.708,2.378c-0.33,0-0.792-0.066-1.453-0.33c-0.661-0.133-1.189-0.265-1.52-0.265
			c-3.104,0-6.87,0.727-11.295,2.18c0.462,1.189,0.727,1.981,0.727,2.444c0,0.528-0.264,1.255-0.727,2.113
			c-2.312,4.162-4.228,7.993-5.681,11.428c5.284-1.453,9.908-2.576,13.872-3.368c3.104-0.595,5.152-0.925,6.143-0.925
			c1.718,0,2.642,0.925,2.642,2.773c0,1.321-0.792,2.511-2.378,3.567c-1.585,1.189-2.708,1.718-3.236,1.718
			c-1.123,0-2.114-0.463-2.907-1.388c-6.936,1.52-12.286,2.841-15.985,3.897c-0.132,0.66-0.132,1.321-0.132,1.981
			c0,3.171,0.858,5.681,2.642,7.53c1.85,1.916,4.228,2.841,7.266,2.841c2.18,0,3.963-0.463,5.417-1.453
			c1.189-0.793,2.444-2.18,3.897-4.228c0.793-1.321,1.784-1.981,2.907-1.981c0.528,0,1.123,0.33,1.717,0.858
			c0.528,0.595,0.792,1.188,0.792,1.718C56.376,45.168,55.848,46.423,54.791,47.941z"/>
		<path fill="#FFFFFF" d="M81.278,31.891c-0.528,0.528-1.123,0.727-1.783,0.727c-0.331,0-0.925,0-1.717-0.132
			c-0.793,0-1.387-0.066-1.784-0.066c-1.717,0-2.576,0.66-2.576,1.915c0,0.793,0.792,3.237,2.444,7.333
			c1.585,4.161,2.444,7.266,2.444,9.247c0,1.916-0.793,3.436-2.312,4.69c-1.717,1.255-4.029,1.915-6.936,1.915
			c-4.756,0-7.068-0.99-7.068-2.84c0-0.727,0.198-1.453,0.727-2.114c0.396-0.66,0.925-1.057,1.52-1.057
			c0.132,0,0.859,0.132,2.18,0.265c1.321,0.197,2.444,0.264,3.237,0.264c2.18,0,3.303-0.727,3.303-2.312
			c0-0.925-0.859-3.436-2.444-7.398c-1.585-3.963-2.378-6.936-2.378-8.785c0-3.039,1.52-5.152,4.624-6.275
			c0.661-1.057,1.916-1.651,3.897-1.651c3.039,0,4.69,0.99,4.954,2.973c0.264,0.528,0.396,1.057,0.396,1.519
			C82.005,30.899,81.741,31.494,81.278,31.891z"/>
		<path fill="#FFFFFF" d="M104.595,52.302c-2.51,1.981-5.086,2.973-7.596,2.973c-2.774,0-5.086-0.925-6.936-2.709
			c-1.85-1.85-2.774-4.161-2.774-7.067c0-4.096,1.255-7.861,3.832-11.296c3.17-4.293,6.87-6.474,11.031-6.474
			c0.991,0,1.916,0.331,2.774,0.925c0.793,0.661,1.189,1.453,1.189,2.511c0,0.792-0.396,1.519-1.123,2.312
			c-0.859,0.793-1.718,1.123-2.576,1.123c-1.651,0-2.84-0.198-3.633-0.66c-1.783,1.188-3.237,2.84-4.426,4.821
			c-1.189,1.982-1.783,4.029-1.783,6.077c0,3.303,1.255,4.889,3.897,4.889c1.651,0,3.039-0.396,4.162-1.255
			c0.661-0.661,1.453-1.321,2.246-1.982c0.925-0.858,1.717-1.32,2.246-1.32c0.661,0,1.255,0.33,1.784,0.858
			c0.528,0.66,0.792,1.321,0.792,1.981C107.7,49.329,106.643,50.716,104.595,52.302z"/>
		<path fill="#FFFFFF" d="M137.358,40.213c-0.925,2.774-1.321,5.417-1.321,8.06c0,0.792,0.132,1.981,0.462,3.501
			c0.264,1.585,0.462,2.378,0.462,2.576c0,0.66-0.33,1.32-0.859,1.85c-0.594,0.396-1.255,0.66-1.916,0.66
			c-1.916,0-3.039-2.576-3.369-7.597c-3.699,3.699-7.002,5.549-9.975,5.549c-1.916,0-3.567-0.793-4.954-2.444
			c-1.453-1.585-2.114-3.368-2.114-5.416c0-3.831,2.246-7.927,6.804-12.154c4.36-4.096,8.323-6.209,11.956-6.209
			c0.859,0,1.718,0.396,2.576,1.057c0.793,0.66,1.255,1.453,1.255,2.246c0,0.33-0.066,0.66-0.132,0.925
			c0.396,1.188,0.661,2.51,0.661,4.029c0.528,0.66,0.858,1.321,0.858,1.915C137.754,39.024,137.622,39.486,137.358,40.213z
			 M130.554,34.4c-1.255,0-3.435,1.52-6.474,4.426c-3.369,3.236-5.02,5.879-5.02,7.993c0,1.651,0.661,2.443,2.048,2.443
			c1.981,0,4.293-1.453,6.804-4.491c2.51-3.039,3.831-5.681,3.831-7.927C131.743,35.259,131.347,34.4,130.554,34.4z M130.884,19.67
			c-0.396,0.396-1.123,0.991-2.048,1.784c-1.916,1.519-3.435,2.245-4.624,2.245c-0.528,0-1.057-0.198-1.453-0.66
			c-0.462-0.396-0.661-0.858-0.661-1.52c0-0.528,0.264-1.057,0.925-1.585c1.85-1.52,3.303-2.973,4.293-4.359
			c0.661-1.058,1.519-1.586,2.444-1.586c1.52,0,2.312,0.991,2.378,2.973C131.941,18.15,131.545,19.01,130.884,19.67z"/>
		<path fill="#FFFFFF" d="M152.616,47.876c0.198,2.642,0.33,5.351,0.33,8.125c0,3.038-0.33,6.143-0.991,9.182
			c-0.594,2.708-1.585,4.095-2.973,4.095c-0.727,0-1.387-0.33-1.916-0.858c-0.528-0.595-0.792-1.255-0.792-1.981
			c0-0.198,0.198-1.189,0.661-2.973c0.396-1.85,0.661-4.822,0.661-9.05c0-2.113-0.066-3.699-0.198-4.756
			c-1.85-0.132-2.708-1.057-2.708-2.774c0-1.387,0.859-2.378,2.708-3.038c-0.066-0.331-0.066-0.859-0.066-1.52
			c0-5.152,0.793-9.776,2.378-13.806c2.312-5.812,5.548-8.719,9.71-8.719c2.906,0,5.218,1.188,6.804,3.5
			c1.453,2.114,2.18,4.757,2.18,7.927C168.403,38.496,163.119,44.045,152.616,47.876z M162.194,26.804
			c-0.727-0.925-1.651-1.453-2.774-1.453c-1.85,0-3.501,1.982-4.888,5.879c-1.255,3.567-1.85,7.2-1.85,10.768
			c6.936-2.511,10.437-6.474,10.437-11.891C163.119,28.852,162.789,27.729,162.194,26.804z"/>
		<path fill="#FFFFFF" d="M198.525,40.213c-0.925,2.774-1.321,5.417-1.321,8.06c0,0.792,0.132,1.981,0.462,3.501
			c0.264,1.585,0.462,2.378,0.462,2.576c0,0.66-0.33,1.32-0.859,1.85c-0.594,0.396-1.255,0.66-1.916,0.66
			c-1.916,0-3.039-2.576-3.369-7.597c-3.699,3.699-7.002,5.549-9.975,5.549c-1.916,0-3.567-0.793-4.954-2.444
			c-1.453-1.585-2.114-3.368-2.114-5.416c0-3.831,2.246-7.927,6.804-12.154c4.36-4.096,8.323-6.209,11.956-6.209
			c0.859,0,1.718,0.396,2.576,1.057c0.793,0.66,1.255,1.453,1.255,2.246c0,0.33-0.066,0.66-0.132,0.925
			c0.396,1.188,0.661,2.51,0.661,4.029c0.528,0.66,0.858,1.321,0.858,1.915C198.921,39.024,198.789,39.486,198.525,40.213z
			 M191.721,34.4c-1.255,0-3.435,1.52-6.474,4.426c-3.369,3.236-5.02,5.879-5.02,7.993c0,1.651,0.661,2.443,2.048,2.443
			c1.981,0,4.293-1.453,6.804-4.491c2.51-3.039,3.831-5.681,3.831-7.927C192.91,35.259,192.514,34.4,191.721,34.4z"/>
		<path fill="#FFFFFF" d="M227.589,33.079c-0.529,0.661-1.123,0.991-1.718,0.991c-0.925,0-1.783-0.265-2.444-0.925
			c-0.462,0-1.585,0-3.435-0.066c-1.849,0-3.039-0.065-3.699-0.065c-1.189,5.152-1.916,8.322-2.18,9.578
			c-0.792,3.698-1.189,7.067-1.321,9.974c0.661,0.528,0.991,1.255,0.991,2.312c0,0.66-0.33,1.255-0.925,1.85
			c-0.661,0.528-1.255,0.792-1.916,0.792c-2.18,0-3.237-1.85-3.237-5.416c0-1.981,0.396-5.152,1.255-9.446l1.982-9.512
			c-2.048,0-3.039-0.925-3.039-2.841c0-1.188,0.396-1.981,1.189-2.378c0.528-0.264,1.519-0.462,3.104-0.462
			c1.718-7.002,3.171-12.419,4.36-16.382c0.396-1.388,1.189-2.114,2.378-2.114c1.717,0,2.642,0.991,2.84,2.973
			c-0.396,1.388-0.925,2.973-1.52,4.822c-0.792,2.708-1.651,6.209-2.576,10.569c0.462,0,2.114,0.065,4.888,0.132
			c3.832,0.198,5.747,1.321,5.747,3.435C228.315,31.692,228.051,32.419,227.589,33.079z"/>
		<path fill="#FFFFFF" d="M251.236,56.133c-5.021,0-8.72-2.246-11.098-6.804h-1.981c-1.717,0-3.369-0.33-5.086-1.057
			c-2.246-0.925-3.303-2.114-3.303-3.567c0-1.85,0.859-2.774,2.576-2.774c0.396,0,1.057,0.33,1.982,0.991
			c0.925,0.66,1.783,0.99,2.708,0.99h1.52c-0.198-1.123-0.265-2.048-0.265-2.708c0-3.171,0.793-6.144,2.378-8.917
			c1.849-3.237,4.161-4.889,7.001-4.889c1.651,0,3.237,0.793,4.822,2.378c1.585,1.586,2.378,3.369,2.378,5.219
			c0,4.888-3.303,9.115-9.908,12.683c1.585,1.915,3.303,2.84,5.284,2.84c0.529,0,1.387-0.065,2.51-0.198
			c1.123-0.132,1.981-0.264,2.51-0.264c0.661,0,1.321,0.33,1.85,0.858c0.528,0.661,0.792,1.321,0.792,1.981
			C257.908,55.01,255.662,56.133,251.236,56.133z M248.99,33.74c-0.528-0.396-1.057-0.661-1.585-0.661
			c-1.189,0-2.114,0.991-2.774,2.973c-0.66,1.651-0.924,3.369-0.924,5.152v1.189c3.963-2.576,5.945-4.954,5.945-7.135
			C249.651,34.73,249.387,34.269,248.99,33.74z"/>
		<path fill="#FFFFFF" d="M302.694,39.922c-0.944,2.832-1.349,5.53-1.349,8.229c0,0.809,0.135,2.022,0.472,3.574
			c0.27,1.618,0.472,2.428,0.472,2.63c0,0.675-0.337,1.349-0.876,1.889c-0.607,0.404-1.282,0.675-1.956,0.675
			c-1.956,0-3.103-2.631-3.439-7.757c-3.777,3.777-7.149,5.666-10.184,5.666c-1.956,0-3.642-0.81-5.059-2.496
			c-1.483-1.618-2.158-3.439-2.158-5.53c0-3.911,2.293-8.093,6.947-12.409c4.452-4.182,8.498-6.34,12.208-6.34
			c0.877,0,1.753,0.404,2.63,1.079c0.809,0.674,1.281,1.483,1.281,2.293c0,0.337-0.067,0.675-0.135,0.944
			c0.405,1.214,0.674,2.562,0.674,4.114c0.54,0.674,0.877,1.349,0.877,1.955C303.099,38.708,302.964,39.18,302.694,39.922z
			 M295.748,33.986c-1.281,0-3.507,1.552-6.609,4.52c-3.439,3.305-5.126,6.002-5.126,8.16c0,1.687,0.675,2.495,2.091,2.495
			c2.023,0,4.384-1.483,6.947-4.586s3.912-5.8,3.912-8.093C296.961,34.863,296.557,33.986,295.748,33.986z"/>
		<path fill="#FFFFFF" d="M344.177,11.393l-0.472,0.675c-2.023,7.756-3.035,15.512-3.035,23.269c0,3.237,0.337,9.037,1.012,17.266
			c0,0.27,0,0.674,0.135,1.281c0.067,0.539,0.135,0.944,0.135,1.146c0,0.337-0.27,0.674-0.674,1.012
			c-0.472,0.404-0.877,0.606-1.214,0.606c-1.349,0-2.495-1.012-3.439-2.967c-1.012-1.956-1.484-4.047-1.484-6.34
			c0-2.091,0.203-3.575,0.675-4.384c-0.27-4.047-0.405-7.217-0.405-9.51c0-8.902,1.281-17.535,3.912-25.898
			c0.742-2.428,1.551-3.71,2.428-3.71c0.81,0,1.754,0.607,2.833,1.687c1.079,1.214,1.686,2.158,1.686,2.968
			C346.268,9.774,345.526,10.719,344.177,11.393z"/>
		<path fill="#FFFFFF" d="M375.135,39.922c-0.944,2.832-1.349,5.53-1.349,8.229c0,0.809,0.135,2.022,0.472,3.574
			c0.27,1.618,0.472,2.428,0.472,2.63c0,0.675-0.337,1.349-0.876,1.889c-0.607,0.404-1.282,0.675-1.956,0.675
			c-1.956,0-3.103-2.631-3.439-7.757c-3.777,3.777-7.149,5.666-10.184,5.666c-1.956,0-3.642-0.81-5.059-2.496
			c-1.483-1.618-2.158-3.439-2.158-5.53c0-3.911,2.293-8.093,6.947-12.409c4.451-4.182,8.498-6.34,12.208-6.34
			c0.876,0,1.753,0.404,2.63,1.079c0.809,0.674,1.281,1.483,1.281,2.293c0,0.337-0.067,0.675-0.135,0.944
			c0.405,1.214,0.674,2.562,0.674,4.114c0.54,0.674,0.877,1.349,0.877,1.955C375.54,38.708,375.405,39.18,375.135,39.922z
			 M368.188,33.986c-1.281,0-3.507,1.552-6.609,4.52c-3.44,3.305-5.126,6.002-5.126,8.16c0,1.687,0.675,2.495,2.091,2.495
			c2.023,0,4.384-1.483,6.947-4.586s3.912-5.8,3.912-8.093C369.402,34.863,368.998,33.986,368.188,33.986z"/>
		<path fill="#ABE1FA" d="M89.941,113.87c-0.135,1.214-0.674,1.888-1.619,1.888c-1.012,0-1.821-0.404-2.495-1.214
			c-0.675-0.877-1.012-1.82-1.012-2.899c0-0.068,0.135-1.35,0.405-3.845l1.011-8.633c-5.598,4.249-9.509,8.229-11.802,12.005
			c-0.472,0.81-0.877,1.687-1.282,2.495c-0.674,1.079-1.349,1.687-2.023,1.687c-2.833,0-4.181-3.979-4.181-12.005
			c0-5.261,0.742-10.589,2.226-16.052c0.27-0.944,0.742-1.483,1.551-1.483c1.011,0,1.888,0.404,2.562,1.146
			c0.675,0.876,1.012,1.82,1.012,2.899c-0.337,1.35-0.674,2.833-1.012,4.451c-0.674,3.575-1.011,7.015-1.011,10.387
			c4.788-5.8,9.914-10.251,15.377-13.286c0.944,0.067,1.821,0.404,2.63,1.012c0.809,0.674,1.281,1.483,1.281,2.495
			C91.56,98.021,91.02,104.36,89.941,113.87z"/>
		<path fill="#ABE1FA" d="M122.519,100.111c-0.944,2.832-1.349,5.53-1.349,8.229c0,0.809,0.135,2.022,0.472,3.574
			c0.27,1.618,0.472,2.428,0.472,2.63c0,0.675-0.337,1.349-0.876,1.889c-0.607,0.404-1.282,0.675-1.956,0.675
			c-1.956,0-3.103-2.631-3.439-7.757c-3.777,3.777-7.149,5.666-10.184,5.666c-1.956,0-3.642-0.81-5.059-2.496
			c-1.483-1.618-2.158-3.439-2.158-5.53c0-3.911,2.293-8.093,6.947-12.409c4.451-4.182,8.498-6.34,12.208-6.34
			c0.876,0,1.753,0.404,2.63,1.079c0.809,0.674,1.281,1.483,1.281,2.293c0,0.337-0.067,0.675-0.135,0.944
			c0.405,1.214,0.674,2.562,0.674,4.114c0.54,0.674,0.877,1.349,0.877,1.955C122.924,98.897,122.789,99.369,122.519,100.111z
			 M115.572,94.176c-1.281,0-3.507,1.552-6.609,4.52c-3.44,3.305-5.126,6.002-5.126,8.16c0,1.687,0.675,2.495,2.091,2.495
			c2.023,0,4.384-1.483,6.947-4.586s3.912-5.8,3.912-8.093C116.786,95.053,116.382,94.176,115.572,94.176z"/>
		<path fill="#ABE1FA" d="M152.197,92.827c-0.54,0.675-1.146,1.012-1.753,1.012c-0.944,0-1.821-0.27-2.496-0.944
			c-0.472,0-1.619,0-3.507-0.067c-1.888,0-3.102-0.067-3.776-0.067c-1.214,5.261-1.956,8.498-2.226,9.779
			c-0.809,3.777-1.214,7.217-1.349,10.185c0.674,0.539,1.012,1.281,1.012,2.36c0,0.674-0.337,1.281-0.944,1.889
			c-0.674,0.539-1.281,0.809-1.956,0.809c-2.226,0-3.305-1.889-3.305-5.53c0-2.023,0.405-5.261,1.282-9.645l2.023-9.712
			c-2.09,0-3.102-0.944-3.102-2.9c0-1.214,0.404-2.022,1.214-2.428c0.54-0.27,1.551-0.472,3.17-0.472
			c1.753-7.149,3.237-12.68,4.451-16.727c0.405-1.416,1.214-2.158,2.428-2.158c1.754,0,2.698,1.012,2.9,3.035
			c-0.405,1.416-0.944,3.035-1.551,4.924c-0.809,2.765-1.686,6.34-2.63,10.791c0.472,0,2.158,0.067,4.991,0.135
			c3.912,0.202,5.868,1.349,5.868,3.507C152.939,91.411,152.669,92.152,152.197,92.827z"/>
		<path fill="#ABE1FA" d="M184.303,93.974c-0.54,1.417-1.079,4.047-1.753,7.892c-0.607,3.507-0.877,5.732-0.877,6.677
			c0,0.539,0.067,1.214,0.203,2.023c0.135,0.876,0.202,1.416,0.202,1.618c0,1.012-0.27,1.889-0.809,2.631
			c-0.54,0.809-1.282,1.214-2.226,1.214c-0.809,0-1.551-0.271-2.158-0.675c-0.674-0.404-1.011-1.012-1.011-1.821
			c0-0.539,0.135-1.012,0.472-1.551c0-1.146,0.27-3.912,0.81-8.363c-6.609,7.621-11.668,11.398-15.242,11.398
			c-1.619,0-2.9-0.405-3.912-1.214c-1.079-0.877-1.619-2.091-1.619-3.71c0-1.349,0.405-4.047,1.349-8.16
			c0.944-4.789,1.484-7.689,1.484-8.769c0-0.135,0-0.337,0-0.741c-0.068-0.271-0.068-0.54-0.068-0.742
			c0-0.675,0.27-1.349,0.81-2.023c0.472-0.674,1.012-1.012,1.686-1.012c1.821,0,2.765,1.484,2.765,4.316
			c0,1.214-0.404,3.845-1.214,7.756c-0.877,4.047-1.281,6.542-1.281,7.622c0,0.539,0.27,0.809,0.809,0.809
			c3.17,0,8.97-6.205,17.468-18.682c0.674-0.944,1.349-1.416,2.158-1.416c1.618,0,2.428,0.943,2.428,2.832
			C184.775,92.355,184.573,93.029,184.303,93.974z"/>
		<path fill="#ABE1FA" d="M213.306,93.435c-1.349,0.809-2.563,1.146-3.642,1.146c-0.067,0-0.472-0.135-1.281-0.405
			c-5.463,2.698-8.835,8.161-10.049,16.39c-0.337,2.158-0.607,3.574-0.809,4.249c-0.405,1.214-1.079,1.82-1.889,1.82
			c-0.809,0-1.619-0.472-2.293-1.281c-0.674-0.877-0.944-1.821-0.944-2.968c0-0.202,0.135-1.079,0.54-2.697
			c0.337-1.484,0.54-3.103,0.54-4.924c0-1.618-0.202-3.776-0.472-6.407c-1.214-1.686-1.821-4.047-1.821-7.014
			c0-0.675,0.202-1.35,0.607-2.023c0.337-0.54,0.81-0.877,1.349-0.877c1.281,0,2.293,0.742,3.035,2.091
			c0.54,1.214,1.012,3.237,1.417,6.07c4.114-6.205,8.835-9.308,14.096-9.308c0.877,0,1.686,0.404,2.496,1.214
			c0.742,0.81,1.146,1.687,1.146,2.631C215.33,91.95,214.655,92.76,213.306,93.435z"/>
		<path fill="#ABE1FA" d="M242.039,100.111c-0.944,2.832-1.349,5.53-1.349,8.229c0,0.809,0.135,2.022,0.472,3.574
			c0.27,1.618,0.472,2.428,0.472,2.63c0,0.675-0.337,1.349-0.876,1.889c-0.607,0.404-1.282,0.675-1.956,0.675
			c-1.956,0-3.103-2.631-3.439-7.757c-3.777,3.777-7.149,5.666-10.184,5.666c-1.956,0-3.642-0.81-5.059-2.496
			c-1.483-1.618-2.158-3.439-2.158-5.53c0-3.911,2.293-8.093,6.947-12.409c4.452-4.182,8.498-6.34,12.208-6.34
			c0.877,0,1.753,0.404,2.63,1.079c0.809,0.674,1.281,1.483,1.281,2.293c0,0.337-0.067,0.675-0.135,0.944
			c0.405,1.214,0.674,2.562,0.674,4.114c0.54,0.674,0.877,1.349,0.877,1.955C242.444,98.897,242.309,99.369,242.039,100.111z
			 M235.092,94.176c-1.281,0-3.507,1.552-6.609,4.52c-3.439,3.305-5.126,6.002-5.126,8.16c0,1.687,0.675,2.495,2.091,2.495
			c2.023,0,4.384-1.483,6.947-4.586s3.912-5.8,3.912-8.093C236.306,95.053,235.902,94.176,235.092,94.176z"/>
		<path fill="#ABE1FA" d="M260.454,71.582l-0.472,0.675c-2.023,7.756-3.035,15.512-3.035,23.269c0,3.237,0.337,9.037,1.012,17.266
			c0,0.27,0,0.674,0.135,1.281c0.067,0.539,0.135,0.944,0.135,1.146c0,0.337-0.27,0.674-0.674,1.012
			c-0.472,0.404-0.877,0.606-1.214,0.606c-1.349,0-2.495-1.012-3.439-2.967c-1.012-1.956-1.484-4.047-1.484-6.34
			c0-2.091,0.203-3.575,0.675-4.384c-0.27-4.047-0.405-7.217-0.405-9.51c0-8.902,1.281-17.535,3.912-25.898
			c0.742-2.428,1.551-3.71,2.428-3.71c0.81,0,1.754,0.607,2.833,1.687c1.079,1.214,1.686,2.158,1.686,2.968
			C262.545,69.964,261.803,70.908,260.454,71.582z"/>
		<path fill="#ABE1FA" d="M287.298,116.365c-5.125,0-8.902-2.293-11.331-6.947h-2.023c-1.754,0-3.44-0.337-5.193-1.078
			c-2.293-0.944-3.372-2.158-3.372-3.643c0-1.889,0.876-2.832,2.63-2.832c0.404,0,1.079,0.337,2.023,1.011
			c0.944,0.675,1.821,1.012,2.766,1.012h1.551c-0.202-1.146-0.27-2.091-0.27-2.765c0-3.237,0.809-6.272,2.428-9.105
			c1.889-3.305,4.249-4.99,7.149-4.99c1.686,0,3.305,0.809,4.923,2.428s2.428,3.439,2.428,5.328c0,4.991-3.372,9.308-10.117,12.949
			c1.619,1.956,3.373,2.9,5.396,2.9c0.54,0,1.417-0.067,2.563-0.203c1.146-0.135,2.023-0.27,2.563-0.27
			c0.674,0,1.349,0.338,1.889,0.877c0.539,0.675,0.809,1.349,0.809,2.023C294.11,115.219,291.817,116.365,287.298,116.365z
			 M285.005,93.502c-0.54-0.405-1.079-0.675-1.619-0.675c-1.214,0-2.158,1.012-2.833,3.035c-0.674,1.687-0.944,3.439-0.944,5.261
			v1.214c4.047-2.63,6.07-5.059,6.07-7.284C285.68,94.514,285.41,94.041,285.005,93.502z"/>
		<path fill="#ABE1FA" d="M326.756,112.318c-1.889,0.81-4.384,1.484-7.486,2.091c-3.103,0.607-5.666,0.944-7.621,0.944
			c-2.428,0-4.452-0.472-6.138-1.281c-2.091-1.079-3.103-2.563-3.103-4.586c0-2.563,1.821-5.531,5.463-9.038
			c1.146-1.079,4.046-3.439,8.633-7.081c-1.484-0.135-2.765-0.271-3.777-0.271c-2.361,0-5.935,0.473-10.791,1.282
			c-1.349,0.27-2.226,0.404-2.496,0.404c-1.619,0-2.428-0.877-2.428-2.698c0-1.079,0.337-1.82,1.012-2.36
			c0.405-0.27,1.214-0.539,2.563-0.877c4.316-0.943,8.228-1.416,11.87-1.416c3.372,0,6.137,0.404,8.295,1.146
			c2.158,0.81,3.237,2.023,3.237,3.507c0,1.215-1.079,2.766-3.237,4.587c-2.36,1.888-4.721,3.709-7.149,5.598
			c-3.844,3.103-5.732,5.126-5.732,6.138c0,0.943,1.011,1.349,3.035,1.349c1.686,0,3.979-0.202,6.879-0.607
			c3.237-0.472,5.396-1.012,6.542-1.686c1.349-0.675,2.158-1.079,2.496-1.079c1.821,0,2.765,0.944,2.765,2.832
			C329.589,110.565,328.645,111.576,326.756,112.318z"/>
		<path fill="#ABE1FA" d="M358.524,100.111c-0.944,2.832-1.349,5.53-1.349,8.229c0,0.809,0.135,2.022,0.472,3.574
			c0.27,1.618,0.472,2.428,0.472,2.63c0,0.675-0.337,1.349-0.876,1.889c-0.607,0.404-1.282,0.675-1.956,0.675
			c-1.956,0-3.103-2.631-3.439-7.757c-3.777,3.777-7.149,5.666-10.184,5.666c-1.956,0-3.642-0.81-5.059-2.496
			c-1.483-1.618-2.158-3.439-2.158-5.53c0-3.911,2.293-8.093,6.947-12.409c4.452-4.182,8.498-6.34,12.208-6.34
			c0.877,0,1.753,0.404,2.63,1.079c0.809,0.674,1.281,1.483,1.281,2.293c0,0.337-0.067,0.675-0.135,0.944
			c0.405,1.214,0.674,2.562,0.674,4.114c0.54,0.674,0.877,1.349,0.877,1.955C358.929,98.897,358.794,99.369,358.524,100.111z
			 M351.578,94.176c-1.281,0-3.507,1.552-6.609,4.52c-3.439,3.305-5.126,6.002-5.126,8.16c0,1.687,0.675,2.495,2.091,2.495
			c2.023,0,4.384-1.483,6.947-4.586s3.912-5.8,3.912-8.093C352.792,95.053,352.387,94.176,351.578,94.176z"/>
	</g>
</g>
</svg>
