<?xml version="1.0" encoding="utf-8"?>
<!-- Generator: Adobe Illustrator 16.0.0, SVG Export Plug-In . SVG Version: 6.00 Build 0)  -->
<!DOCTYPE svg PUBLIC "-//W3C//DTD SVG 1.1//EN" "http://www.w3.org/Graphics/SVG/1.1/DTD/svg11.dtd">
<svg version="1.1" id="Layer_1" xmlns="http://www.w3.org/2000/svg" xmlns:xlink="http://www.w3.org/1999/xlink" x="0px" y="0px"
	 width="425.2px" height="145.487px" viewBox="0 0 425.2 145.487" enable-background="new 0 0 425.2 145.487" xml:space="preserve">
<g>
	<g>
		<path fill="#FFFFFF" d="M72.902,15.238c-2.567,15.268-3.817,28.299-3.817,39.025c0,0.658,0,1.58,0.065,2.83
			c0,1.251,0.066,1.975,0.066,2.237c0,0.725-0.263,1.383-0.79,1.975c-0.526,0.526-1.185,0.79-1.843,0.79
			c-2.04,0-3.027-1.843-3.027-5.396c0-5.067,0.395-12.373,1.316-21.981c-5.396,1.316-11.32,2.304-17.901,2.83
			c-0.395,5.199-0.79,12.109-1.185,20.797c-0.066,0.921-0.329,1.776-0.855,2.5c-0.592,0.658-1.25,1.054-1.975,1.054
			c-0.724,0-1.316-0.329-1.777-0.987c-0.526-0.658-0.724-1.316-0.724-2.106c0-5.265,0.329-12.307,1.119-21.125
			c-0.263,0-0.724,0.065-1.25,0.065c-0.658,0-1.119,0-1.382,0c-3.027,0-4.475-0.921-4.475-2.896c0-0.658,0.197-1.25,0.658-1.843
			c0.395-0.526,0.921-0.855,1.58-0.855c0.198,0,0.987,0.065,2.369,0.132c1.382,0.132,2.369,0.197,2.896,0.197
			c0.987-9.345,2.632-17.177,4.87-23.494c0.526-1.712,0.921-2.698,1.119-3.027c0.592-1.119,1.382-1.712,2.435-1.712
			c1.711,0,2.632,0.922,2.632,2.698c0,0.461-0.592,2.436-1.711,5.857c-0.395,0.987-0.921,2.962-1.58,5.989
			c-1.053,4.212-1.843,8.687-2.369,13.359c6.976-0.395,13.03-1.447,18.164-3.29c0.658-5.528,1.316-9.872,1.975-13.031
			c0.131-1.053,0.46-2.566,0.921-4.541c0.329-1.382,1.119-2.105,2.369-2.105c0.658,0,1.316,0.329,1.843,0.855
			c0.526,0.592,0.79,1.25,0.79,1.908L72.902,15.238z"/>
		<path fill="#FFFFFF" d="M99.682,60.121c-5.001,0-8.687-2.237-11.056-6.778h-1.975c-1.711,0-3.356-0.329-5.067-1.053
			c-2.237-0.922-3.291-2.106-3.291-3.554c0-1.843,0.855-2.765,2.567-2.765c0.395,0,1.053,0.329,1.974,0.987s1.777,0.987,2.698,0.987
			h1.514c-0.197-1.119-0.263-2.04-0.263-2.698c0-3.159,0.79-6.12,2.369-8.885c1.843-3.225,4.146-4.87,6.976-4.87
			c1.645,0,3.225,0.79,4.804,2.369c1.58,1.58,2.369,3.356,2.369,5.199c0,4.87-3.291,9.082-9.872,12.636
			c1.58,1.908,3.291,2.83,5.265,2.83c0.527,0,1.382-0.065,2.501-0.197s1.974-0.264,2.501-0.264c0.658,0,1.316,0.329,1.843,0.855
			c0.526,0.658,0.79,1.316,0.79,1.975C106.329,59.002,104.091,60.121,99.682,60.121z M97.445,37.812
			c-0.527-0.396-1.053-0.658-1.58-0.658c-1.185,0-2.106,0.987-2.764,2.961c-0.658,1.646-0.921,3.356-0.921,5.134v1.185
			c3.949-2.566,5.923-4.936,5.923-7.107C98.103,38.799,97.839,38.338,97.445,37.812z"/>
		<path fill="#FFFFFF" d="M133.637,37.745c-1.316,0.79-2.5,1.119-3.554,1.119c-0.066,0-0.46-0.132-1.25-0.395
			c-5.331,2.632-8.621,7.963-9.806,15.992c-0.329,2.105-0.592,3.487-0.79,4.146c-0.395,1.185-1.053,1.777-1.842,1.777
			c-0.79,0-1.58-0.461-2.238-1.251c-0.658-0.855-0.921-1.776-0.921-2.896c0-0.197,0.132-1.053,0.526-2.633
			c0.329-1.447,0.527-3.027,0.527-4.804c0-1.579-0.198-3.686-0.461-6.252c-1.185-1.646-1.777-3.949-1.777-6.845
			c0-0.658,0.197-1.316,0.592-1.975c0.329-0.526,0.79-0.855,1.316-0.855c1.25,0,2.237,0.725,2.961,2.04
			c0.526,1.186,0.987,3.159,1.382,5.924c4.015-6.055,8.622-9.082,13.754-9.082c0.856,0,1.646,0.395,2.435,1.185
			c0.724,0.789,1.119,1.646,1.119,2.566C135.612,36.298,134.954,37.087,133.637,37.745z"/>
		<path fill="#FFFFFF" d="M179.899,58.41c-2.764,0-4.672-4.541-5.726-13.623c-2.698,2.436-5.396,5.726-8.161,9.806
			c-1.316,2.04-2.566,3.027-3.751,3.027s-2.238-0.789-3.027-2.369c-1.58-2.896-2.501-7.107-2.896-12.569
			c-5.989,4.08-9.872,9.081-11.583,15.005c-0.526,1.843-1.514,2.764-2.896,2.764c-2.041,0-3.027-1.843-3.027-5.528
			c0-1.974,0.46-5.265,1.514-10.003c0.987-4.606,1.514-7.568,1.514-9.017c0-1.25-0.329-2.566-0.987-3.883
			c0.066-1.053,0.526-1.908,1.316-2.566c0.724-0.658,1.514-0.987,2.37-0.987c1.908,0,2.896,2.106,2.896,6.187
			c0,1.711-0.658,5.331-1.909,10.99c7.766-7.305,12.438-10.99,14.149-10.99c1.053,0,1.777,0.461,2.106,1.25
			c0.198,0.526,0.329,1.712,0.329,3.423c0,5.001,0.329,8.555,1.053,10.529c6.186-8.292,10.924-12.504,14.281-12.504
			c1.448,0,2.172,0.79,2.238,2.369c0.263,6.713,1.185,11.319,2.764,13.688c0.658,1.054,0.987,1.711,0.987,1.909
			C183.453,57.423,182.269,58.41,179.899,58.41z"/>
		<path fill="#FFFFFF" d="M206.482,54.79c-2.172,3.027-4.87,4.476-8.029,4.476c-2.764,0-5.067-1.119-6.91-3.225
			c-1.843-2.172-2.698-4.936-2.698-8.292c0-2.83,0.592-5.528,1.908-8.029c1.316-2.764,3.159-4.738,5.397-5.857
			c0.526-0.197,1.25-0.592,2.171-1.118c0.79-0.527,1.382-0.855,1.909-0.855c0.132,0,0.658,0.131,1.58,0.395
			c2.303,0.79,4.212,2.237,5.726,4.277c1.448,2.106,2.172,4.476,2.172,7.042C209.707,48.078,208.588,51.763,206.482,54.79z
			 M202.599,39.193c-1.053,0-1.909-0.197-2.566-0.593c-1.843,0-3.356,1.119-4.541,3.226c-1.053,1.842-1.514,3.816-1.514,5.923
			c0,1.579,0.395,2.961,1.25,4.146c0.79,1.251,1.843,1.843,3.159,1.843c1.58,0,2.961-0.987,4.278-2.961
			c1.185-1.909,1.843-3.949,1.843-6.187C204.508,41.826,203.85,39.983,202.599,39.193z"/>
		<path fill="#FFFFFF" d="M234.515,35.969c-0.526,0.526-1.119,0.724-1.777,0.724c-0.329,0-0.921,0-1.711-0.132
			c-0.79,0-1.382-0.065-1.777-0.065c-1.711,0-2.566,0.658-2.566,1.908c0,0.79,0.79,3.225,2.435,7.306
			c1.58,4.146,2.435,7.239,2.435,9.213c0,1.909-0.79,3.423-2.304,4.673c-1.711,1.25-4.014,1.908-6.91,1.908
			c-4.738,0-7.042-0.987-7.042-2.829c0-0.725,0.197-1.448,0.724-2.106c0.395-0.658,0.921-1.053,1.514-1.053
			c0.132,0,0.856,0.132,2.172,0.263c1.316,0.198,2.435,0.264,3.225,0.264c2.172,0,3.291-0.724,3.291-2.304
			c0-0.921-0.855-3.422-2.435-7.371c-1.58-3.948-2.37-6.91-2.37-8.752c0-3.027,1.514-5.134,4.607-6.253
			c0.658-1.053,1.909-1.645,3.883-1.645c3.027,0,4.673,0.987,4.936,2.961c0.263,0.526,0.395,1.053,0.395,1.514
			C235.239,34.981,234.976,35.573,234.515,35.969z"/>
		<path fill="#FFFFFF" d="M258.138,54.79c-2.172,3.027-4.87,4.476-8.029,4.476c-2.764,0-5.067-1.119-6.91-3.225
			c-1.843-2.172-2.698-4.936-2.698-8.292c0-2.83,0.592-5.528,1.908-8.029c1.316-2.764,3.159-4.738,5.397-5.857
			c0.526-0.197,1.25-0.592,2.171-1.118c0.79-0.527,1.382-0.855,1.909-0.855c0.132,0,0.658,0.131,1.58,0.395
			c2.303,0.79,4.212,2.237,5.726,4.277c1.448,2.106,2.172,4.476,2.172,7.042C261.363,48.078,260.244,51.763,258.138,54.79z
			 M254.255,39.193c-1.053,0-1.909-0.197-2.566-0.593c-1.843,0-3.356,1.119-4.541,3.226c-1.053,1.842-1.514,3.816-1.514,5.923
			c0,1.579,0.395,2.961,1.25,4.146c0.79,1.251,1.843,1.843,3.159,1.843c1.58,0,2.961-0.987,4.278-2.961
			c1.185-1.909,1.843-3.949,1.843-6.187C256.164,41.826,255.506,39.983,254.255,39.193z"/>
		<path fill="#FFFFFF" d="M301.503,16.423l-0.461,0.658c-1.974,7.568-2.961,15.136-2.961,22.704c0,3.159,0.329,8.819,0.987,16.848
			c0,0.264,0,0.658,0.131,1.251c0.066,0.526,0.132,0.921,0.132,1.118c0,0.329-0.263,0.658-0.658,0.987
			c-0.46,0.396-0.855,0.593-1.185,0.593c-1.316,0-2.435-0.987-3.356-2.896c-0.987-1.909-1.448-3.949-1.448-6.187
			c0-2.04,0.197-3.488,0.658-4.277c-0.263-3.949-0.395-7.042-0.395-9.28c0-8.687,1.25-17.11,3.817-25.271
			c0.724-2.369,1.514-3.619,2.37-3.619c0.79,0,1.711,0.592,2.764,1.646c1.053,1.185,1.646,2.105,1.646,2.896
			C303.543,14.843,302.819,15.765,301.503,16.423z"/>
		<path fill="#FFFFFF" d="M331.709,44.261c-0.921,2.764-1.316,5.396-1.316,8.029c0,0.789,0.132,1.974,0.461,3.487
			c0.263,1.58,0.46,2.369,0.46,2.567c0,0.657-0.329,1.315-0.855,1.842c-0.592,0.396-1.25,0.658-1.909,0.658
			c-1.908,0-3.027-2.566-3.356-7.568c-3.685,3.686-6.976,5.528-9.938,5.528c-1.908,0-3.554-0.789-4.936-2.435
			c-1.448-1.58-2.106-3.356-2.106-5.396c0-3.817,2.237-7.897,6.778-12.109c4.344-4.08,8.292-6.187,11.912-6.187
			c0.855,0,1.711,0.396,2.566,1.053c0.79,0.658,1.25,1.448,1.25,2.238c0,0.329-0.066,0.658-0.132,0.921
			c0.395,1.185,0.658,2.501,0.658,4.015c0.527,0.658,0.855,1.316,0.855,1.908C332.104,43.076,331.972,43.537,331.709,44.261z
			 M324.93,38.47c-1.25,0-3.422,1.514-6.449,4.409c-3.356,3.225-5.002,5.857-5.002,7.963c0,1.646,0.658,2.435,2.041,2.435
			c1.974,0,4.277-1.447,6.778-4.475s3.817-5.66,3.817-7.897C326.115,39.325,325.72,38.47,324.93,38.47z"/>
		<path fill="#FFFFFF" d="M360.07,42.615c-0.329,0.658-0.526,2.369-0.658,5.199c-0.592,13.426-6.318,21.718-17.111,24.877
			c-1.316,0.329-2.566,0.526-3.751,0.526c-1.843,0-2.764-0.987-2.764-2.896c0-0.855,0.329-1.646,1.119-2.369
			c0.79-0.79,1.646-1.119,2.435-1.119c0.592,0,1.119,0.065,1.514,0.264c7.766-1.316,12.109-6.384,13.031-15.071
			c-1.975,1.908-4.344,2.83-7.108,2.83c-2.369,0-4.277-0.724-5.594-2.237c-1.382-1.448-2.04-3.488-2.04-6.055
			c0-4.344,1.448-8.293,4.409-11.847c3.093-3.751,6.844-5.659,11.254-5.659c1.843,0,3.422,0.724,4.606,2.105
			c1.119,1.382,1.711,3.225,1.711,5.463c0.395,0.526,0.592,1.053,0.592,1.579C361.716,39.062,361.124,40.51,360.07,42.615z
			 M353.094,35.376c-2.237,0-4.277,1.316-6.054,3.883c-1.646,2.369-2.435,4.738-2.435,7.042c0,2.369,0.79,3.554,2.5,3.554
			c2.106,0,3.949-1.053,5.462-3.225c1.185-1.646,1.975-3.883,2.369-6.778c0-0.264,0.198-0.724,0.461-1.382
			C355.266,36.429,354.477,35.376,353.094,35.376z"/>
		<path fill="#FFFFFF" d="M385.404,54.79c-2.172,3.027-4.87,4.476-8.029,4.476c-2.764,0-5.067-1.119-6.91-3.225
			c-1.843-2.172-2.698-4.936-2.698-8.292c0-2.83,0.592-5.528,1.909-8.029c1.316-2.764,3.159-4.738,5.396-5.857
			c0.526-0.197,1.25-0.592,2.171-1.118c0.79-0.527,1.382-0.855,1.909-0.855c0.132,0,0.658,0.131,1.58,0.395
			c2.303,0.79,4.212,2.237,5.726,4.277c1.448,2.106,2.171,4.476,2.171,7.042C388.629,48.078,387.51,51.763,385.404,54.79z
			 M381.521,39.193c-1.053,0-1.909-0.197-2.566-0.593c-1.843,0-3.356,1.119-4.541,3.226c-1.053,1.842-1.514,3.816-1.514,5.923
			c0,1.579,0.395,2.961,1.25,4.146c0.79,1.251,1.842,1.843,3.159,1.843c1.58,0,2.961-0.987,4.278-2.961
			c1.185-1.909,1.843-3.949,1.843-6.187C383.43,41.826,382.772,39.983,381.521,39.193z"/>
		<path fill="#FFFFFF" d="M40.694,105.373c-0.244,0.306-0.519,0.458-0.793,0.458c-0.427,0-0.823-0.122-1.128-0.427
			c-0.213,0-0.731,0-1.585-0.031c-0.854,0-1.402-0.03-1.707-0.03c-0.549,2.378-0.884,3.842-1.006,4.421
			c-0.366,1.707-0.549,3.262-0.609,4.604c0.305,0.244,0.457,0.579,0.457,1.067c0,0.305-0.152,0.579-0.427,0.854
			c-0.305,0.244-0.579,0.365-0.884,0.365c-1.006,0-1.494-0.854-1.494-2.5c0-0.914,0.183-2.378,0.579-4.359l0.915-4.39
			c-0.945,0-1.402-0.427-1.402-1.312c0-0.549,0.183-0.914,0.549-1.098c0.244-0.121,0.701-0.213,1.433-0.213
			c0.792-3.231,1.463-5.731,2.012-7.561c0.183-0.641,0.549-0.976,1.098-0.976c0.793,0,1.22,0.457,1.311,1.371
			c-0.183,0.641-0.427,1.372-0.701,2.226c-0.366,1.25-0.762,2.866-1.189,4.878c0.213,0,0.976,0.031,2.256,0.062
			c1.769,0.092,2.652,0.609,2.652,1.585C41.029,104.733,40.908,105.068,40.694,105.373z"/>
		<path fill="#FFFFFF" d="M52.981,105.647c-0.61,0.366-1.159,0.519-1.646,0.519c-0.031,0-0.213-0.061-0.579-0.183
			c-2.47,1.22-3.994,3.688-4.543,7.408c-0.152,0.976-0.274,1.616-0.366,1.921c-0.183,0.549-0.488,0.823-0.854,0.823
			s-0.732-0.214-1.037-0.58c-0.305-0.396-0.427-0.822-0.427-1.341c0-0.092,0.061-0.488,0.244-1.22
			c0.153-0.671,0.244-1.402,0.244-2.226c0-0.731-0.091-1.707-0.213-2.896c-0.549-0.762-0.823-1.829-0.823-3.17
			c0-0.306,0.091-0.61,0.274-0.915c0.152-0.244,0.366-0.396,0.61-0.396c0.579,0,1.037,0.336,1.372,0.945
			c0.244,0.549,0.458,1.463,0.641,2.744c1.859-2.805,3.994-4.207,6.372-4.207c0.396,0,0.762,0.183,1.128,0.548
			c0.335,0.366,0.519,0.763,0.519,1.189C53.896,104.978,53.591,105.343,52.981,105.647z"/>
		<path fill="#FFFFFF" d="M65.969,108.666c-0.427,1.28-0.609,2.5-0.609,3.72c0,0.365,0.061,0.914,0.213,1.615
			c0.122,0.732,0.213,1.098,0.213,1.189c0,0.305-0.152,0.609-0.396,0.854c-0.274,0.183-0.579,0.305-0.884,0.305
			c-0.884,0-1.403-1.188-1.555-3.506c-1.707,1.707-3.231,2.561-4.604,2.561c-0.884,0-1.646-0.365-2.287-1.128
			c-0.67-0.731-0.976-1.555-0.976-2.5c0-1.768,1.037-3.658,3.14-5.609c2.012-1.89,3.841-2.865,5.519-2.865
			c0.396,0,0.792,0.183,1.189,0.487c0.366,0.305,0.579,0.671,0.579,1.037c0,0.152-0.03,0.305-0.061,0.427
			c0.183,0.548,0.305,1.158,0.305,1.859c0.244,0.305,0.396,0.609,0.396,0.884C66.152,108.117,66.091,108.331,65.969,108.666z
			 M62.829,105.983c-0.579,0-1.585,0.701-2.987,2.042c-1.555,1.494-2.317,2.714-2.317,3.689c0,0.762,0.305,1.128,0.945,1.128
			c0.915,0,1.981-0.671,3.14-2.073s1.768-2.622,1.768-3.658C63.377,106.38,63.195,105.983,62.829,105.983z"/>
		<path fill="#FFFFFF" d="M77.616,104.825c-0.244,0.243-0.518,0.335-0.823,0.335c-0.152,0-0.427,0-0.792-0.062
			c-0.366,0-0.64-0.03-0.823-0.03c-0.792,0-1.189,0.305-1.189,0.885c0,0.365,0.366,1.493,1.128,3.384
			c0.732,1.921,1.128,3.354,1.128,4.268c0,0.885-0.366,1.586-1.067,2.165c-0.792,0.579-1.86,0.884-3.201,0.884
			c-2.195,0-3.262-0.457-3.262-1.311c0-0.335,0.092-0.671,0.335-0.976c0.183-0.305,0.427-0.488,0.701-0.488
			c0.061,0,0.396,0.062,1.006,0.122c0.609,0.092,1.128,0.122,1.494,0.122c1.006,0,1.524-0.335,1.524-1.066
			c0-0.427-0.396-1.586-1.128-3.415c-0.732-1.829-1.098-3.201-1.098-4.055c0-1.402,0.701-2.378,2.134-2.896
			c0.305-0.487,0.884-0.762,1.799-0.762c1.402,0,2.165,0.457,2.286,1.372c0.122,0.243,0.183,0.487,0.183,0.701
			C77.952,104.367,77.83,104.642,77.616,104.825z"/>
		<path fill="#FFFFFF" d="M95.849,95.771l-0.214,0.305c-0.915,3.506-1.372,7.012-1.372,10.518c0,1.464,0.152,4.086,0.457,7.805
			c0,0.122,0,0.305,0.061,0.579c0.031,0.244,0.061,0.427,0.061,0.519c0,0.152-0.122,0.305-0.305,0.457
			c-0.213,0.184-0.396,0.274-0.549,0.274c-0.61,0-1.128-0.457-1.555-1.341c-0.457-0.885-0.67-1.829-0.67-2.866
			c0-0.945,0.091-1.615,0.305-1.981c-0.122-1.829-0.183-3.262-0.183-4.299c0-4.024,0.579-7.927,1.768-11.707
			c0.335-1.098,0.701-1.677,1.098-1.677c0.366,0,0.792,0.274,1.28,0.763c0.488,0.548,0.762,0.975,0.762,1.341
			C96.793,95.038,96.458,95.465,95.849,95.771z"/>
		<path fill="#FFFFFF" d="M109.843,108.666c-0.427,1.28-0.61,2.5-0.61,3.72c0,0.365,0.061,0.914,0.213,1.615
			c0.122,0.732,0.213,1.098,0.213,1.189c0,0.305-0.152,0.609-0.396,0.854c-0.274,0.183-0.579,0.305-0.884,0.305
			c-0.884,0-1.402-1.188-1.555-3.506c-1.707,1.707-3.231,2.561-4.604,2.561c-0.884,0-1.646-0.365-2.287-1.128
			c-0.67-0.731-0.976-1.555-0.976-2.5c0-1.768,1.037-3.658,3.14-5.609c2.012-1.89,3.842-2.865,5.519-2.865
			c0.396,0,0.792,0.183,1.189,0.487c0.366,0.305,0.579,0.671,0.579,1.037c0,0.152-0.031,0.305-0.061,0.427
			c0.183,0.548,0.305,1.158,0.305,1.859c0.244,0.305,0.396,0.609,0.396,0.884C110.025,108.117,109.964,108.331,109.843,108.666z
			 M106.702,105.983c-0.579,0-1.585,0.701-2.987,2.042c-1.555,1.494-2.317,2.714-2.317,3.689c0,0.762,0.305,1.128,0.945,1.128
			c0.915,0,1.981-0.671,3.14-2.073s1.768-2.622,1.768-3.658C107.251,106.38,107.068,105.983,106.702,105.983z"/>
		<path fill="#8ED8F8" d="M183.126,139.585c-0.708,0.629-1.493,1.021-2.358,1.021c-1.808,0-3.615-1.65-5.345-4.794
			c-2.672-4.716-4.873-11.869-6.445-21.301c-0.472-2.594-1.415-10.296-2.908-23.187c-3.616,9.118-6.288,17.37-7.938,24.602
			c-0.472,2.201-1.572,3.223-3.144,3.223c-1.179,0-2.515-0.707-3.93-2.279c-2.908-2.987-5.738-7.467-8.489-13.598
			c-2.672-5.659-4.48-10.847-5.423-15.562c-1.808,6.681-3.065,12.969-3.772,18.863c-0.629,5.109-1.022,10.611-1.179,16.428
			c-0.157,3.144-1.1,4.716-2.986,4.716c-1.572,0-2.83-1.572-3.694-4.716c-0.629-2.358-0.865-5.109-0.865-8.096
			c0-1.572,0.314-5.267,0.943-11.161c0.472-4.401,0.786-7.938,0.786-10.768c0-0.551-0.079-1.337-0.079-2.437
			c-0.079-0.943-0.079-1.729-0.079-2.358c0-2.044,1.021-3.144,3.144-3.144c0.628,0,1.336,0.235,2.122,0.707
			c1.1-3.223,2.279-6.052,3.458-8.567c0.55-1.179,1.572-1.808,3.065-1.808c1.572,0,2.594,0.943,3.065,2.751
			c3.458,14.384,7.545,24.837,12.34,31.36c3.144-11.239,6.838-20.593,11.083-28.138c0.55-1.021,1.415-1.572,2.672-1.572
			c1.415,0,2.437,0.865,2.986,2.516c1.572,4.716,2.751,10.847,3.694,18.549c0.943,8.017,1.729,13.44,2.201,16.191
			c1.179,6.603,2.594,11.396,4.323,14.226c1.101,0.472,2.043,1.572,2.751,3.223c0.629,1.651,1.022,2.594,1.022,2.751
			C184.148,138.013,183.755,138.799,183.126,139.585z"/>
		<path fill="#8ED8F8" d="M209.216,127.245c-2.594,3.615-5.816,5.345-9.589,5.345c-3.301,0-6.052-1.337-8.253-3.852
			c-2.201-2.594-3.223-5.895-3.223-9.903c0-3.38,0.708-6.603,2.279-9.589c1.572-3.301,3.773-5.659,6.445-6.995
			c0.629-0.236,1.493-0.708,2.594-1.336c0.943-0.629,1.65-1.022,2.279-1.022c0.157,0,0.786,0.157,1.886,0.472
			c2.751,0.943,5.03,2.673,6.838,5.109c1.729,2.515,2.594,5.345,2.594,8.409C213.067,119.228,211.731,123.63,209.216,127.245z
			 M204.579,108.617c-1.258,0-2.279-0.235-3.065-0.707c-2.201,0-4.008,1.336-5.423,3.851c-1.257,2.201-1.808,4.559-1.808,7.074
			c0,1.887,0.472,3.537,1.493,4.951c0.943,1.494,2.201,2.201,3.773,2.201c1.886,0,3.537-1.179,5.109-3.537
			c1.415-2.279,2.201-4.716,2.201-7.388C206.858,111.761,206.072,109.561,204.579,108.617z"/>
		<path fill="#8ED8F8" d="M248.748,130.703c-0.157,1.415-0.786,2.201-1.886,2.201c-1.179,0-2.122-0.472-2.908-1.415
			c-0.786-1.021-1.179-2.122-1.179-3.38c0-0.078,0.157-1.572,0.472-4.479l1.179-10.061c-6.523,4.951-11.082,9.589-13.754,13.99
			c-0.55,0.943-1.022,1.965-1.494,2.908c-0.786,1.257-1.572,1.965-2.358,1.965c-3.301,0-4.873-4.638-4.873-13.99
			c0-6.131,0.865-12.341,2.594-18.707c0.314-1.101,0.865-1.729,1.808-1.729c1.179,0,2.201,0.471,2.987,1.336
			c0.786,1.021,1.179,2.122,1.179,3.38c-0.393,1.571-0.786,3.301-1.179,5.188c-0.786,4.165-1.179,8.174-1.179,12.104
			c5.58-6.759,11.554-11.946,17.92-15.483c1.101,0.078,2.123,0.472,3.065,1.179c0.943,0.786,1.494,1.729,1.494,2.908
			C250.634,112.232,250.005,119.621,248.748,130.703z"/>
		<path fill="#8ED8F8" d="M284.742,106.181c-0.629,0.786-1.336,1.179-2.043,1.179c-1.101,0-2.122-0.314-2.908-1.101
			c-0.55,0-1.886,0-4.087-0.078c-2.201,0-3.616-0.079-4.402-0.079c-1.415,6.131-2.279,9.904-2.594,11.397
			c-0.943,4.401-1.415,8.41-1.572,11.868c0.786,0.629,1.179,1.493,1.179,2.751c0,0.786-0.393,1.493-1.101,2.2
			c-0.786,0.629-1.493,0.943-2.279,0.943c-2.594,0-3.852-2.2-3.852-6.445c0-2.357,0.472-6.13,1.494-11.239l2.358-11.318
			c-2.437,0-3.616-1.1-3.616-3.379c0-1.415,0.472-2.358,1.415-2.83c0.629-0.314,1.808-0.55,3.694-0.55
			c2.044-8.332,3.773-14.776,5.188-19.492c0.472-1.651,1.415-2.516,2.83-2.516c2.043,0,3.144,1.179,3.38,3.537
			c-0.472,1.65-1.101,3.537-1.808,5.737c-0.943,3.223-1.965,7.389-3.065,12.576c0.55,0,2.515,0.078,5.816,0.157
			c4.559,0.235,6.838,1.571,6.838,4.087C285.607,104.53,285.292,105.395,284.742,106.181z"/>
		<path fill="#8ED8F8" d="M317.672,114.669c-1.1,3.302-1.572,6.445-1.572,9.589c0,0.943,0.157,2.358,0.55,4.166
			c0.314,1.887,0.55,2.829,0.55,3.065c0,0.786-0.393,1.572-1.021,2.201c-0.708,0.471-1.494,0.785-2.279,0.785
			c-2.279,0-3.616-3.065-4.009-9.038c-4.401,4.401-8.331,6.602-11.868,6.602c-2.279,0-4.244-0.942-5.895-2.908
			c-1.729-1.886-2.515-4.008-2.515-6.444c0-4.559,2.672-9.432,8.096-14.462c5.188-4.873,9.903-7.389,14.227-7.389
			c1.021,0,2.043,0.472,3.065,1.258c0.943,0.786,1.494,1.729,1.494,2.672c0,0.394-0.079,0.786-0.157,1.101
			c0.472,1.415,0.786,2.986,0.786,4.795c0.629,0.785,1.022,1.571,1.022,2.279C318.144,113.255,317.987,113.805,317.672,114.669z
			 M309.577,107.753c-1.493,0-4.087,1.808-7.702,5.266c-4.009,3.852-5.974,6.995-5.974,9.511c0,1.965,0.786,2.908,2.437,2.908
			c2.358,0,5.109-1.729,8.096-5.345c2.987-3.616,4.559-6.76,4.559-9.432C310.992,108.774,310.52,107.753,309.577,107.753z"/>
		<path fill="#8ED8F8" d="M353.746,130.703c-0.157,1.415-0.786,2.201-1.886,2.201c-1.179,0-2.122-0.472-2.908-1.415
			c-0.786-1.021-1.179-2.122-1.179-3.38c0-0.078,0.157-1.572,0.472-4.479l1.179-10.061c-6.523,4.951-11.082,9.589-13.754,13.99
			c-0.55,0.943-1.022,1.965-1.494,2.908c-0.786,1.257-1.572,1.965-2.358,1.965c-3.301,0-4.873-4.638-4.873-13.99
			c0-6.131,0.865-12.341,2.594-18.707c0.314-1.101,0.865-1.729,1.808-1.729c1.179,0,2.201,0.471,2.987,1.336
			c0.786,1.021,1.179,2.122,1.179,3.38c-0.393,1.571-0.786,3.301-1.179,5.188c-0.786,4.165-1.179,8.174-1.179,12.104
			c5.58-6.759,11.554-11.946,17.92-15.483c1.101,0.078,2.123,0.472,3.065,1.179c0.943,0.786,1.494,1.729,1.494,2.908
			C355.632,112.232,355.003,119.621,353.746,130.703z M353.353,89.675c-3.065,2.594-5.345,3.852-6.917,3.852
			c-1.415,0-2.672-0.629-3.694-1.887c-1.258-1.493-2.279-2.279-2.908-2.279c-1.258,0-2.908,1.18-5.109,3.537
			c-0.943,1.101-1.65,1.572-2.279,1.572s-1.101-0.236-1.572-0.865c-0.472-0.471-0.629-1.1-0.629-1.729s0.157-1.179,0.55-1.65
			c3.301-3.931,6.366-5.974,9.274-5.974c1.493,0,2.83,0.629,4.087,1.808c1.101,1.179,1.965,1.729,2.594,1.729
			c0.786,0,1.965-0.708,3.616-2.122c0.786-0.708,1.572-1.101,2.201-1.101c1.493,0,2.279,0.864,2.279,2.515
			C354.846,88.024,354.296,88.889,353.353,89.675z"/>
		<path fill="#8ED8F8" d="M391.705,114.669c-1.1,3.302-1.572,6.445-1.572,9.589c0,0.943,0.157,2.358,0.55,4.166
			c0.314,1.887,0.55,2.829,0.55,3.065c0,0.786-0.393,1.572-1.021,2.201c-0.708,0.471-1.494,0.785-2.279,0.785
			c-2.279,0-3.616-3.065-4.009-9.038c-4.401,4.401-8.331,6.602-11.868,6.602c-2.279,0-4.244-0.942-5.895-2.908
			c-1.729-1.886-2.515-4.008-2.515-6.444c0-4.559,2.672-9.432,8.096-14.462c5.188-4.873,9.903-7.389,14.227-7.389
			c1.021,0,2.043,0.472,3.065,1.258c0.943,0.786,1.494,1.729,1.494,2.672c0,0.394-0.079,0.786-0.157,1.101
			c0.472,1.415,0.786,2.986,0.786,4.795c0.629,0.785,1.022,1.571,1.022,2.279C392.177,113.255,392.02,113.805,391.705,114.669z
			 M383.609,107.753c-1.493,0-4.087,1.808-7.702,5.266c-4.009,3.852-5.974,6.995-5.974,9.511c0,1.965,0.786,2.908,2.437,2.908
			c2.358,0,5.109-1.729,8.096-5.345c2.987-3.616,4.559-6.76,4.559-9.432C385.024,108.774,384.553,107.753,383.609,107.753z"/>
	</g>
</g>
</svg>
