<?xml version="1.0" encoding="utf-8"?>
<!-- Generator: Adobe Illustrator 16.0.0, SVG Export Plug-In . SVG Version: 6.00 Build 0)  -->
<!DOCTYPE svg PUBLIC "-//W3C//DTD SVG 1.1//EN" "http://www.w3.org/Graphics/SVG/1.1/DTD/svg11.dtd">
<svg version="1.1" id="Layer_1" xmlns="http://www.w3.org/2000/svg" xmlns:xlink="http://www.w3.org/1999/xlink" x="0px" y="0px"
	 width="425.2px" height="143.807px" viewBox="0 0 425.2 143.807" enable-background="new 0 0 425.2 143.807" xml:space="preserve">
<g>
	<g>
		<path fill="#FFFFFF" d="M63.833,29.883c-2.69,4.951-4.279,13.265-4.829,25.001c0.917,0.733,1.406,1.65,1.406,2.75
			c0,3.118-0.183,5.257-0.55,6.357c-0.428,1.223-1.039,1.772-1.895,1.772c-2.14,0-3.301-0.855-3.484-2.628
			c-0.122-1.101-0.184-3.117-0.184-6.052c0-9.047,1.101-17.299,3.301-24.817c-0.917,0.244-3.484,1.345-7.702,3.423
			c-1.956,0.979-3.118,1.467-3.362,1.467c-1.528,0-2.262-0.794-2.262-2.444c0-1.223,0.794-2.201,2.506-3.057
			c1.65-0.795,4.218-2.018,7.702-3.606c0.794-0.244,1.956-0.733,3.484-1.406c2.506-1.223,4.034-1.895,4.523-1.895
			c0.611,0,1.161,0.244,1.711,0.733c0.489,0.489,0.794,1.039,0.794,1.59C64.994,27.438,64.566,28.416,63.833,29.883z"/>
		<path fill="#FFFFFF" d="M103.568,61.975c-2.751,3.606-6.479,5.439-11.187,5.439c-4.523,0-8.007-1.711-10.33-5.073
			c-2.14-2.995-3.179-7.151-3.179-12.408c0-4.769,1.161-8.925,3.484-12.593c2.323-3.667,5.379-6.234,9.291-7.763
			c0.122-1.896,1.1-2.873,2.934-2.873c3.912,0,7.091,2.445,9.658,7.335c2.2,4.279,3.362,8.803,3.362,13.692
			C107.603,53.6,106.258,58.368,103.568,61.975z M101.612,39.969c-0.978-3.179-2.262-5.624-3.974-7.213
			c-0.611,0.733-1.406,1.039-2.384,1.039c-2.995,0-5.685,1.711-8.069,5.135c-2.384,3.423-3.545,7.029-3.545,10.941
			c0,3.851,0.734,6.907,2.262,9.107c1.589,2.507,3.851,3.729,6.908,3.729c2.567,0,4.89-1.406,6.968-4.218
			c2.078-2.812,3.117-6.235,3.117-10.208C102.896,45.531,102.468,42.78,101.612,39.969z"/>
		<path fill="#8ED8F8" d="M163.949,62.769c-2.201,1.415-5.03,2.594-8.567,3.615c-3.38,0.943-6.052,1.415-7.938,1.415
			c-5.345,0-9.432-2.122-12.261-6.209c-2.358-3.615-3.537-8.41-3.537-14.305c0-8.41,2.044-16.506,6.209-24.366
			c4.716-8.803,10.454-13.204,17.056-13.204c1.65,0,3.537,0.629,5.581,1.887c1.808,1.179,3.301,2.515,4.401,3.93
			c1.101,1.415,1.729,2.672,1.729,3.772c0,1.021-0.393,1.887-1.021,2.516c-0.786,0.707-1.65,1.021-2.594,1.021
			s-2.201-0.943-3.93-2.908c-1.729-1.887-3.458-2.908-5.188-2.908c-3.458,0-6.917,3.458-10.296,10.297
			c-3.38,6.916-5.03,13.833-5.03,20.671c0,8.488,2.986,12.654,8.96,12.654c3.773,0,8.174-1.415,13.126-4.323
			c1.572-0.942,2.594-1.493,2.987-1.493c0.786,0,1.572,0.394,2.358,1.179c0.786,0.786,1.179,1.651,1.179,2.516
			C167.171,60.018,166.071,61.433,163.949,62.769z"/>
		<path fill="#8ED8F8" d="M203.323,49.014c-1.1,3.302-1.572,6.445-1.572,9.589c0,0.943,0.157,2.358,0.55,4.166
			c0.314,1.887,0.55,2.829,0.55,3.065c0,0.786-0.393,1.572-1.021,2.201c-0.708,0.471-1.494,0.785-2.279,0.785
			c-2.279,0-3.616-3.065-4.009-9.038c-4.401,4.401-8.331,6.602-11.868,6.602c-2.279,0-4.244-0.942-5.895-2.908
			c-1.729-1.886-2.515-4.008-2.515-6.444c0-4.559,2.672-9.432,8.096-14.462c5.188-4.873,9.903-7.389,14.227-7.389
			c1.021,0,2.043,0.472,3.065,1.258c0.943,0.786,1.494,1.729,1.494,2.672c0,0.394-0.079,0.786-0.157,1.101
			c0.472,1.415,0.786,2.986,0.786,4.795c0.629,0.785,1.022,1.571,1.022,2.279C203.794,47.6,203.637,48.149,203.323,49.014z
			 M195.227,42.098c-1.493,0-4.087,1.808-7.702,5.266c-4.009,3.852-5.974,6.995-5.974,9.511c0,1.965,0.786,2.908,2.437,2.908
			c2.358,0,5.109-1.729,8.096-5.345c2.987-3.616,4.559-6.76,4.559-9.432C196.642,43.119,196.17,42.098,195.227,42.098z"/>
		<path fill="#8ED8F8" d="M234.209,61.904c-6.209,4.637-11.711,6.995-16.427,6.995c-2.908,0-4.637-1.258-5.188-3.772
			c0.157-1.415,0.865-2.437,2.122-3.223c-0.314-2.83-0.393-5.896-0.393-9.274c0-4.952,0.314-10.926,0.943-17.842
			c0.943-8.961,2.201-16.271,3.773-21.93c1.021-3.93,2.279-5.895,3.851-5.895c2.201,0,3.38,1.415,3.38,4.244
			c0,2.044-0.55,5.188-1.651,9.432c-0.236,0.786-0.864,1.494-1.808,2.044c-0.943,6.917-1.65,15.17-2.279,24.759
			c5.188-6.288,10.139-9.511,14.776-9.511c2.437,0,4.559,0.943,6.288,2.751c1.729,1.729,2.594,3.93,2.594,6.523
			C244.191,52.079,240.811,56.952,234.209,61.904z M234.916,44.849c-1.257,0-3.065,1.021-5.345,2.986
			c-2.358,1.965-4.401,4.087-5.973,6.445c-1.808,2.515-2.672,4.322-2.672,5.345v2.043c2.122-0.629,4.008-1.414,5.659-2.515
			c7.624-4.48,11.475-8.41,11.475-11.79C238.06,45.713,236.959,44.849,234.916,44.849z"/>
		<path fill="#8ED8F8" d="M279.478,49.014c-1.1,3.302-1.572,6.445-1.572,9.589c0,0.943,0.157,2.358,0.55,4.166
			c0.314,1.887,0.55,2.829,0.55,3.065c0,0.786-0.393,1.572-1.021,2.201c-0.708,0.471-1.494,0.785-2.279,0.785
			c-2.279,0-3.616-3.065-4.009-9.038c-4.401,4.401-8.331,6.602-11.868,6.602c-2.279,0-4.244-0.942-5.895-2.908
			c-1.729-1.886-2.515-4.008-2.515-6.444c0-4.559,2.672-9.432,8.096-14.462c5.188-4.873,9.903-7.389,14.227-7.389
			c1.021,0,2.043,0.472,3.065,1.258c0.943,0.786,1.494,1.729,1.494,2.672c0,0.394-0.079,0.786-0.157,1.101
			c0.472,1.415,0.786,2.986,0.786,4.795c0.629,0.785,1.022,1.571,1.022,2.279C279.95,47.6,279.792,48.149,279.478,49.014z
			 M271.382,42.098c-1.493,0-4.087,1.808-7.702,5.266c-4.009,3.852-5.974,6.995-5.974,9.511c0,1.965,0.786,2.908,2.437,2.908
			c2.358,0,5.109-1.729,8.096-5.345c2.987-3.616,4.559-6.76,4.559-9.432C272.797,43.119,272.326,42.098,271.382,42.098z"/>
		<path fill="#8ED8F8" d="M315.552,65.048c-0.157,1.415-0.786,2.201-1.886,2.201c-1.179,0-2.122-0.472-2.908-1.415
			c-0.786-1.021-1.179-2.122-1.179-3.38c0-0.078,0.157-1.572,0.472-4.479l1.179-10.061c-6.523,4.951-11.082,9.589-13.754,13.99
			c-0.55,0.943-1.022,1.965-1.494,2.908c-0.786,1.257-1.572,1.965-2.358,1.965c-3.301,0-4.873-4.638-4.873-13.99
			c0-6.131,0.865-12.341,2.594-18.707c0.314-1.101,0.865-1.729,1.808-1.729c1.179,0,2.201,0.471,2.987,1.336
			c0.786,1.021,1.179,2.122,1.179,3.38c-0.393,1.571-0.786,3.301-1.179,5.188c-0.786,4.165-1.179,8.174-1.179,12.104
			c5.58-6.759,11.554-11.946,17.92-15.483c1.1,0.078,2.122,0.472,3.065,1.179c0.943,0.786,1.494,1.729,1.494,2.908
			C317.438,46.577,316.81,53.966,315.552,65.048z M315.159,24.02c-3.065,2.594-5.345,3.852-6.917,3.852
			c-1.415,0-2.672-0.629-3.694-1.887c-1.258-1.493-2.279-2.279-2.908-2.279c-1.258,0-2.908,1.18-5.109,3.537
			c-0.943,1.101-1.65,1.572-2.279,1.572s-1.101-0.236-1.572-0.865c-0.472-0.471-0.629-1.1-0.629-1.729s0.157-1.179,0.55-1.65
			c3.301-3.931,6.366-5.974,9.274-5.974c1.493,0,2.83,0.629,4.087,1.808c1.101,1.179,1.965,1.729,2.594,1.729
			c0.786,0,1.965-0.708,3.616-2.122c0.786-0.708,1.572-1.101,2.201-1.101c1.493,0,2.279,0.864,2.279,2.515
			C316.652,22.369,316.102,23.233,315.159,24.02z"/>
		<path fill="#8ED8F8" d="M353.511,49.014c-1.1,3.302-1.572,6.445-1.572,9.589c0,0.943,0.157,2.358,0.55,4.166
			c0.314,1.887,0.55,2.829,0.55,3.065c0,0.786-0.393,1.572-1.021,2.201c-0.708,0.471-1.494,0.785-2.279,0.785
			c-2.279,0-3.616-3.065-4.009-9.038c-4.401,4.401-8.331,6.602-11.868,6.602c-2.279,0-4.244-0.942-5.895-2.908
			c-1.729-1.886-2.515-4.008-2.515-6.444c0-4.559,2.672-9.432,8.096-14.462c5.188-4.873,9.903-7.389,14.227-7.389
			c1.021,0,2.043,0.472,3.065,1.258c0.943,0.786,1.494,1.729,1.494,2.672c0,0.394-0.079,0.786-0.157,1.101
			c0.472,1.415,0.786,2.986,0.786,4.795c0.629,0.785,1.022,1.571,1.022,2.279C353.983,47.6,353.826,48.149,353.511,49.014z
			 M345.416,42.098c-1.493,0-4.087,1.808-7.702,5.266c-4.009,3.852-5.974,6.995-5.974,9.511c0,1.965,0.786,2.908,2.437,2.908
			c2.358,0,5.109-1.729,8.096-5.345c2.987-3.616,4.559-6.76,4.559-9.432C346.831,43.119,346.359,42.098,345.416,42.098z"/>
		<path fill="#8ED8F8" d="M383.533,39.11c-0.629,0.629-1.336,0.865-2.122,0.865c-0.393,0-1.101,0-2.043-0.157
			c-0.943,0-1.651-0.079-2.123-0.079c-2.043,0-3.065,0.786-3.065,2.279c0,0.943,0.943,3.852,2.908,8.725
			c1.887,4.951,2.908,8.646,2.908,11.004c0,2.279-0.943,4.087-2.751,5.58c-2.043,1.493-4.794,2.279-8.252,2.279
			c-5.659,0-8.41-1.179-8.41-3.38c0-0.864,0.236-1.729,0.865-2.515c0.471-0.786,1.1-1.258,1.808-1.258
			c0.157,0,1.022,0.157,2.594,0.314c1.572,0.235,2.908,0.314,3.851,0.314c2.594,0,3.93-0.864,3.93-2.751
			c0-1.101-1.022-4.087-2.908-8.803s-2.83-8.253-2.83-10.454c0-3.615,1.808-6.13,5.502-7.467c0.786-1.257,2.279-1.965,4.637-1.965
			c3.616,0,5.581,1.179,5.895,3.537c0.314,0.629,0.472,1.258,0.472,1.808C384.397,37.932,384.083,38.639,383.533,39.11z"/>
		<path fill="#8ED8F8" d="M80.924,132.806c-4.401,0.943-9.196,1.336-14.541,1.336c-7.31,0-10.925-2.357-10.925-7.23
			c0-2.516,1.415-5.974,4.244-10.218c0.629-0.786,2.908-3.852,6.995-9.196c5.816-7.624,8.803-13.126,8.803-16.427
			c0-1.965-1.022-2.987-2.908-2.987c-3.616,0-8.174,1.808-13.598,5.267c-2.358,1.571-3.93,2.357-4.637,2.357
			c-2.122,0-3.144-1.258-3.144-3.852c0-1.1,0.708-2.279,2.201-3.458c0.865-0.786,2.044-1.258,3.537-1.493
			c6.759-3.537,12.104-5.345,16.034-5.345c5.973,0,9.039,2.986,9.039,8.96c0,2.83-1.022,6.053-2.987,9.511
			c-1.021,1.808-3.458,5.423-7.31,10.925c-1.886,2.437-3.694,4.873-5.502,7.31c-2.672,3.694-4.087,6.288-4.244,7.781
			c0,1.022,1.965,1.493,6.052,1.493c3.616,0,6.917-0.235,10.061-0.785c0.157,0,0.629-0.157,1.258-0.314
			c0.55-0.157,1.022-0.314,1.336-0.314c2.201,0,3.301,1.179,3.301,3.38C83.99,131.233,82.968,132.334,80.924,132.806z"/>
		<path fill="#FFFFFF" d="M150.005,118.107c-1.1,3.302-1.572,6.445-1.572,9.589c0,0.943,0.157,2.358,0.55,4.166
			c0.314,1.887,0.55,2.829,0.55,3.065c0,0.786-0.393,1.572-1.021,2.201c-0.708,0.471-1.494,0.785-2.279,0.785
			c-2.279,0-3.616-3.065-4.009-9.038c-4.401,4.401-8.331,6.602-11.868,6.602c-2.279,0-4.244-0.942-5.895-2.908
			c-1.729-1.886-2.515-4.008-2.515-6.444c0-4.559,2.672-9.432,8.096-14.462c5.188-4.873,9.903-7.389,14.227-7.389
			c1.021,0,2.043,0.472,3.065,1.258c0.943,0.786,1.494,1.729,1.494,2.672c0,0.394-0.079,0.786-0.157,1.101
			c0.472,1.415,0.786,2.986,0.786,4.795c0.629,0.785,1.022,1.571,1.022,2.279C150.477,116.693,150.319,117.243,150.005,118.107z
			 M141.909,111.191c-1.493,0-4.087,1.808-7.702,5.266c-4.009,3.852-5.974,6.995-5.974,9.511c0,1.965,0.786,2.908,2.437,2.908
			c2.358,0,5.109-1.729,8.096-5.345c2.987-3.616,4.559-6.76,4.559-9.432C143.324,112.213,142.853,111.191,141.909,111.191z"/>
		<path fill="#FFFFFF" d="M171.459,84.86l-0.55,0.786c-2.358,9.039-3.537,18.078-3.537,27.116c0,3.773,0.393,10.532,1.179,20.121
			c0,0.314,0,0.786,0.157,1.494c0.079,0.628,0.157,1.1,0.157,1.336c0,0.393-0.314,0.786-0.786,1.179
			c-0.55,0.472-1.022,0.707-1.415,0.707c-1.572,0-2.908-1.179-4.008-3.458c-1.179-2.279-1.729-4.716-1.729-7.388
			c0-2.437,0.236-4.166,0.786-5.109c-0.314-4.716-0.472-8.41-0.472-11.082c0-10.375,1.494-20.436,4.559-30.182
			c0.864-2.83,1.808-4.323,2.829-4.323c0.943,0,2.044,0.708,3.301,1.965c1.258,1.415,1.965,2.516,1.965,3.459
			C173.896,82.975,173.032,84.075,171.459,84.86z"/>
		<path fill="#FFFFFF" d="M201.875,130.998c-6.209,4.637-11.711,6.995-16.427,6.995c-2.908,0-4.637-1.258-5.188-3.772
			c0.157-1.415,0.865-2.437,2.122-3.223c-0.314-2.83-0.393-5.896-0.393-9.274c0-4.952,0.314-10.926,0.943-17.842
			c0.943-8.961,2.201-16.271,3.773-21.93c1.021-3.93,2.279-5.895,3.851-5.895c2.201,0,3.38,1.415,3.38,4.244
			c0,2.044-0.55,5.188-1.651,9.432c-0.236,0.786-0.864,1.494-1.808,2.044c-0.943,6.917-1.65,15.17-2.279,24.759
			c5.188-6.288,10.139-9.511,14.776-9.511c2.437,0,4.559,0.943,6.288,2.751c1.729,1.729,2.594,3.93,2.594,6.523
			C211.857,121.173,208.478,126.046,201.875,130.998z M202.583,113.942c-1.257,0-3.065,1.021-5.345,2.986
			c-2.358,1.965-4.401,4.087-5.973,6.445c-1.808,2.515-2.672,4.322-2.672,5.345v2.043c2.122-0.629,4.008-1.414,5.659-2.515
			c7.624-4.48,11.475-8.41,11.475-11.79C205.727,114.807,204.626,113.942,202.583,113.942z"/>
		<path fill="#FFFFFF" d="M242.35,137.05c-5.973,0-10.375-2.672-13.205-8.096h-2.358c-2.043,0-4.008-0.393-6.052-1.258
			c-2.672-1.1-3.93-2.515-3.93-4.244c0-2.2,1.022-3.301,3.065-3.301c0.472,0,1.258,0.393,2.358,1.179
			c1.101,0.786,2.122,1.179,3.223,1.179h1.808c-0.236-1.336-0.314-2.437-0.314-3.222c0-3.773,0.943-7.311,2.83-10.611
			c2.201-3.852,4.952-5.816,8.332-5.816c1.965,0,3.851,0.943,5.738,2.83c1.886,1.886,2.829,4.008,2.829,6.209
			c0,5.816-3.93,10.847-11.79,15.091c1.886,2.279,3.93,3.38,6.288,3.38c0.628,0,1.65-0.079,2.986-0.236
			c1.336-0.157,2.358-0.314,2.987-0.314c0.786,0,1.572,0.394,2.201,1.022c0.629,0.786,0.943,1.571,0.943,2.357
			C250.289,135.714,247.616,137.05,242.35,137.05z M239.678,110.405c-0.629-0.472-1.257-0.786-1.886-0.786
			c-1.415,0-2.515,1.179-3.301,3.537c-0.786,1.965-1.1,4.008-1.1,6.131v1.414c4.716-3.065,7.074-5.895,7.074-8.488
			C240.464,111.584,240.149,111.034,239.678,110.405z"/>
		<path fill="#FFFFFF" d="M282.903,110.326c-1.572,0.943-2.987,1.337-4.245,1.337c-0.079,0-0.55-0.157-1.493-0.472
			c-6.366,3.144-10.296,9.51-11.711,19.099c-0.393,2.516-0.708,4.166-0.943,4.952c-0.472,1.415-1.257,2.122-2.201,2.122
			s-1.886-0.55-2.672-1.493c-0.786-1.022-1.101-2.122-1.101-3.459c0-0.235,0.157-1.257,0.629-3.144
			c0.393-1.729,0.629-3.615,0.629-5.737c0-1.887-0.236-4.401-0.55-7.467c-1.415-1.965-2.122-4.716-2.122-8.175
			c0-0.786,0.236-1.571,0.708-2.357c0.393-0.629,0.943-1.022,1.572-1.022c1.493,0,2.672,0.865,3.537,2.438
			c0.628,1.414,1.179,3.772,1.65,7.073c4.794-7.23,10.296-10.847,16.427-10.847c1.022,0,1.965,0.472,2.908,1.415
			c0.865,0.943,1.336,1.965,1.336,3.065C285.261,108.598,284.475,109.54,282.903,110.326z"/>
		<path fill="#FFFFFF" d="M308.916,132.491c-2.987,2.357-6.052,3.537-9.039,3.537c-3.301,0-6.052-1.101-8.253-3.223
			c-2.201-2.201-3.301-4.952-3.301-8.41c0-4.873,1.494-9.354,4.559-13.44c3.772-5.108,8.174-7.702,13.125-7.702
			c1.179,0,2.279,0.393,3.301,1.101c0.943,0.785,1.415,1.729,1.415,2.986c0,0.943-0.471,1.808-1.336,2.751
			c-1.022,0.943-2.043,1.336-3.065,1.336c-1.965,0-3.379-0.235-4.323-0.786c-2.122,1.415-3.851,3.38-5.266,5.738
			c-1.415,2.357-2.122,4.794-2.122,7.23c0,3.93,1.493,5.816,4.637,5.816c1.965,0,3.616-0.472,4.952-1.493
			c0.786-0.786,1.729-1.572,2.672-2.358c1.101-1.021,2.043-1.571,2.672-1.571c0.786,0,1.493,0.393,2.122,1.021
			c0.629,0.786,0.943,1.572,0.943,2.357C312.61,128.954,311.353,130.604,308.916,132.491z"/>
		<path fill="#FFFFFF" d="M347.897,118.107c-1.1,3.302-1.572,6.445-1.572,9.589c0,0.943,0.157,2.358,0.55,4.166
			c0.314,1.887,0.55,2.829,0.55,3.065c0,0.786-0.393,1.572-1.021,2.201c-0.708,0.471-1.494,0.785-2.279,0.785
			c-2.279,0-3.616-3.065-4.009-9.038c-4.401,4.401-8.331,6.602-11.868,6.602c-2.279,0-4.244-0.942-5.895-2.908
			c-1.729-1.886-2.515-4.008-2.515-6.444c0-4.559,2.672-9.432,8.096-14.462c5.188-4.873,9.903-7.389,14.227-7.389
			c1.021,0,2.043,0.472,3.065,1.258c0.943,0.786,1.494,1.729,1.494,2.672c0,0.394-0.079,0.786-0.157,1.101
			c0.472,1.415,0.786,2.986,0.786,4.795c0.629,0.785,1.022,1.571,1.022,2.279C348.369,116.693,348.211,117.243,347.897,118.107z
			 M339.801,111.191c-1.493,0-4.087,1.808-7.702,5.266c-4.009,3.852-5.974,6.995-5.974,9.511c0,1.965,0.786,2.908,2.437,2.908
			c2.358,0,5.109-1.729,8.096-5.345c2.987-3.616,4.559-6.76,4.559-9.432C341.216,112.213,340.745,111.191,339.801,111.191z"/>
		<path fill="#FFFFFF" d="M377.919,108.204c-0.629,0.629-1.336,0.865-2.122,0.865c-0.393,0-1.101,0-2.044-0.157
			c-0.943,0-1.65-0.079-2.122-0.079c-2.043,0-3.065,0.786-3.065,2.279c0,0.943,0.943,3.852,2.908,8.725
			c1.887,4.951,2.908,8.646,2.908,11.004c0,2.279-0.943,4.087-2.751,5.58c-2.043,1.493-4.794,2.279-8.252,2.279
			c-5.659,0-8.41-1.179-8.41-3.38c0-0.864,0.236-1.729,0.865-2.515c0.471-0.786,1.1-1.258,1.808-1.258
			c0.157,0,1.021,0.157,2.594,0.314c1.572,0.235,2.908,0.314,3.851,0.314c2.594,0,3.93-0.864,3.93-2.751
			c0-1.101-1.022-4.087-2.908-8.803s-2.83-8.253-2.83-10.454c0-3.615,1.808-6.13,5.502-7.467c0.786-1.257,2.279-1.965,4.637-1.965
			c3.616,0,5.581,1.179,5.895,3.537c0.314,0.629,0.471,1.258,0.471,1.808C378.783,107.025,378.469,107.732,377.919,108.204z"/>
	</g>
</g>
</svg>
