<?xml version="1.0" encoding="utf-8"?>
<!-- Generator: Adobe Illustrator 16.0.0, SVG Export Plug-In . SVG Version: 6.00 Build 0)  -->
<!DOCTYPE svg PUBLIC "-//W3C//DTD SVG 1.1//EN" "http://www.w3.org/Graphics/SVG/1.1/DTD/svg11.dtd">
<svg version="1.1" id="Layer_1" xmlns="http://www.w3.org/2000/svg" xmlns:xlink="http://www.w3.org/1999/xlink" x="0px" y="0px"
	 width="425.2px" height="211.084px" viewBox="0 0 425.2 211.084" enable-background="new 0 0 425.2 211.084" xml:space="preserve">
<g>
	<g>
		<path fill="#FFFFFF" d="M108.552,21.085c-2.94,3.71-5.601,8.051-7.981,13.021c-1.82,3.78-3.64,7.49-5.391,11.271
			c-2.1,4.341-4.06,7.981-5.88,10.852c-1.54,2.38-2.871,3.64-3.991,3.64c-1.26,0-2.66-1.33-4.13-3.92
			c-3.5-5.881-6.51-12.531-9.031-20.092c-2.87-8.401-4.271-15.472-4.271-21.213c0-5.32,0.98-8.051,3.01-8.051
			c1.19,0,2.1,0.49,2.661,1.471c1.54,2.8,2.31,6.301,2.31,10.501c0,2.101-0.56,3.641-1.54,4.48
			c2.52,10.781,6.23,20.372,11.131,28.843c3.01-6.23,7.771-15.541,14.282-27.933c0.28-1.681,0.98-3.15,2.03-4.411
			c2.1-2.59,3.71-3.92,4.97-3.92c1.82,0,2.73,1.05,2.73,3.15C109.462,19.544,109.112,20.314,108.552,21.085z"/>
		<path fill="#FFFFFF" d="M135.219,60.358c-5.32,0-9.241-2.38-11.761-7.211h-2.1c-1.82,0-3.57-0.35-5.391-1.119
			c-2.38-0.98-3.5-2.24-3.5-3.781c0-1.96,0.91-2.939,2.73-2.939c0.42,0,1.12,0.35,2.1,1.05s1.89,1.05,2.871,1.05h1.61
			c-0.21-1.19-0.28-2.17-0.28-2.87c0-3.36,0.84-6.511,2.52-9.451c1.96-3.431,4.411-5.181,7.421-5.181c1.75,0,3.43,0.84,5.11,2.521
			s2.521,3.57,2.521,5.53c0,5.181-3.5,9.661-10.501,13.441c1.681,2.03,3.5,3.011,5.601,3.011c0.561,0,1.47-0.07,2.661-0.21
			c1.19-0.141,2.1-0.28,2.66-0.28c0.7,0,1.4,0.351,1.96,0.91c0.56,0.7,0.84,1.4,0.84,2.101
			C142.29,59.169,139.91,60.358,135.219,60.358z M132.839,36.626c-0.56-0.42-1.12-0.7-1.68-0.7c-1.26,0-2.24,1.051-2.94,3.15
			c-0.7,1.751-0.98,3.57-0.98,5.461v1.26c4.201-2.729,6.301-5.25,6.301-7.561C133.539,37.677,133.259,37.187,132.839,36.626z"/>
		<path fill="#FFFFFF" d="M171.339,36.557c-1.4,0.84-2.66,1.189-3.78,1.189c-0.07,0-0.49-0.14-1.33-0.42
			c-5.671,2.801-9.171,8.471-10.431,17.012c-0.35,2.24-0.63,3.711-0.84,4.411c-0.42,1.26-1.12,1.89-1.96,1.89
			c-0.84,0-1.68-0.49-2.38-1.33c-0.7-0.91-0.98-1.891-0.98-3.08c0-0.21,0.14-1.12,0.56-2.801c0.35-1.54,0.56-3.22,0.56-5.11
			c0-1.68-0.21-3.92-0.49-6.65c-1.26-1.75-1.89-4.201-1.89-7.281c0-0.7,0.21-1.4,0.63-2.1c0.35-0.561,0.84-0.91,1.4-0.91
			c1.33,0,2.38,0.77,3.15,2.17c0.56,1.26,1.05,3.36,1.47,6.301c4.271-6.44,9.171-9.661,14.631-9.661c0.91,0,1.75,0.42,2.59,1.26
			c0.77,0.841,1.19,1.751,1.19,2.73C173.439,35.016,172.739,35.856,171.339,36.557z"/>
		<path fill="#FFFFFF" d="M201.438,13.244c-0.7,3.92-1.12,6.931-1.12,8.961c-0.07,1.12-0.14,1.96-0.14,2.38
			c-0.21,0.84-0.56,1.54-1.12,2.03c-0.42,6.581-0.56,11.831-0.56,15.682c0,7.28,0.42,13.302,1.26,18.132
			c0.28,1.96,0.49,3.08,0.49,3.36c0,0.7-0.28,1.33-0.84,1.891c-0.63,0.56-1.26,0.84-1.891,0.84c-1.4,0-2.24-0.98-2.52-2.801
			c-0.28-1.54-0.77-5.391-1.47-11.551c-0.98,2.03-2.45,3.92-4.55,5.601c-2.24,1.82-4.34,2.73-6.161,2.73
			c-2.45,0-4.341-0.771-5.671-2.311c-1.33-1.47-1.96-3.5-1.96-6.091c0-3.431,1.68-7.49,5.041-12.111
			c3.291-4.55,6.371-6.86,9.311-6.86c1.05,0,2.31,0.7,3.78,1.96c0.84-11.761,2.03-20.792,3.57-26.953c0.28-1.399,1.19-2.1,2.66-2.1
			c1.68,0,2.521,0.91,2.521,2.73C202.068,9.253,201.858,10.724,201.438,13.244z M189.747,39.286c-0.28,0-0.49-0.069-0.49-0.069
			c-1.12,0-3.22,2.1-6.23,6.16c-1.82,2.45-2.66,4.621-2.66,6.511c0,1.75,0.63,2.591,1.89,2.591c1.4,0,2.94-0.771,4.55-2.45
			c1.26-1.331,2.38-2.871,3.22-4.621c0.42-0.98,0.98-2.45,1.68-4.34C190.867,42.507,190.237,41.247,189.747,39.286z"/>
		<path fill="#FFFFFF" d="M233.498,43.487c-0.98,2.939-1.4,5.74-1.4,8.541c0,0.84,0.14,2.1,0.49,3.71
			c0.279,1.68,0.49,2.521,0.49,2.73c0,0.7-0.351,1.399-0.91,1.96c-0.631,0.42-1.33,0.7-2.031,0.7c-2.029,0-3.22-2.73-3.57-8.051
			c-3.92,3.92-7.42,5.881-10.57,5.881c-2.031,0-3.781-0.841-5.251-2.591c-1.54-1.68-2.24-3.57-2.24-5.74
			c0-4.061,2.38-8.401,7.211-12.882c4.62-4.34,8.821-6.58,12.671-6.58c0.91,0,1.82,0.42,2.73,1.12c0.84,0.699,1.33,1.54,1.33,2.38
			c0,0.35-0.07,0.7-0.14,0.98c0.42,1.26,0.7,2.66,0.7,4.271c0.56,0.699,0.91,1.399,0.91,2.029
			C233.918,42.227,233.777,42.717,233.498,43.487z M226.287,37.326c-1.33,0-3.641,1.61-6.861,4.69c-3.57,3.431-5.32,6.23-5.32,8.471
			c0,1.751,0.7,2.591,2.17,2.591c2.101,0,4.551-1.54,7.211-4.761s4.061-6.021,4.061-8.4
			C227.547,38.236,227.127,37.326,226.287,37.326z"/>
		<path fill="#FFFFFF" d="M266.327,13.244c-0.7,3.92-1.12,6.931-1.12,8.961c-0.07,1.12-0.14,1.96-0.14,2.38
			c-0.21,0.84-0.56,1.54-1.12,2.03c-0.42,6.581-0.561,11.831-0.561,15.682c0,7.28,0.42,13.302,1.261,18.132
			c0.28,1.96,0.489,3.08,0.489,3.36c0,0.7-0.279,1.33-0.84,1.891c-0.63,0.56-1.26,0.84-1.89,0.84c-1.4,0-2.24-0.98-2.521-2.801
			c-0.28-1.54-0.77-5.391-1.471-11.551c-0.979,2.03-2.449,3.92-4.55,5.601c-2.24,1.82-4.341,2.73-6.161,2.73
			c-2.449,0-4.34-0.771-5.67-2.311c-1.33-1.47-1.961-3.5-1.961-6.091c0-3.431,1.681-7.49,5.041-12.111
			c3.29-4.55,6.371-6.86,9.311-6.86c1.051,0,2.311,0.7,3.781,1.96c0.84-11.761,2.029-20.792,3.57-26.953
			c0.279-1.399,1.189-2.1,2.66-2.1c1.68,0,2.52,0.91,2.52,2.73C266.957,9.253,266.748,10.724,266.327,13.244z M254.637,39.286
			c-0.281,0-0.49-0.069-0.49-0.069c-1.121,0-3.221,2.1-6.23,6.16c-1.82,2.45-2.66,4.621-2.66,6.511c0,1.75,0.629,2.591,1.89,2.591
			c1.399,0,2.94-0.771,4.55-2.45c1.261-1.331,2.381-2.871,3.221-4.621c0.42-0.98,0.98-2.45,1.68-4.34
			C255.756,42.507,255.126,41.247,254.637,39.286z"/>
		<path fill="#FFFFFF" d="M294.116,60.358c-5.32,0-9.241-2.38-11.761-7.211h-2.101c-1.82,0-3.57-0.35-5.391-1.119
			c-2.38-0.98-3.501-2.24-3.501-3.781c0-1.96,0.91-2.939,2.73-2.939c0.42,0,1.121,0.35,2.101,1.05s1.89,1.05,2.87,1.05h1.61
			c-0.21-1.19-0.28-2.17-0.28-2.87c0-3.36,0.84-6.511,2.521-9.451c1.96-3.431,4.411-5.181,7.421-5.181c1.75,0,3.43,0.84,5.11,2.521
			s2.521,3.57,2.521,5.53c0,5.181-3.5,9.661-10.501,13.441c1.68,2.03,3.5,3.011,5.601,3.011c0.56,0,1.47-0.07,2.66-0.21
			c1.189-0.141,2.1-0.28,2.66-0.28c0.7,0,1.4,0.351,1.96,0.91c0.561,0.7,0.841,1.4,0.841,2.101
			C301.188,59.169,298.807,60.358,294.116,60.358z M291.736,36.626c-0.561-0.42-1.121-0.7-1.681-0.7c-1.26,0-2.24,1.051-2.94,3.15
			c-0.699,1.751-0.98,3.57-0.98,5.461v1.26c4.201-2.729,6.301-5.25,6.301-7.561C292.436,37.677,292.156,37.187,291.736,36.626z"/>
		<path fill="#FFFFFF" d="M330.236,36.557c-1.4,0.84-2.66,1.189-3.781,1.189c-0.07,0-0.49-0.14-1.33-0.42
			c-5.67,2.801-9.171,8.471-10.431,17.012c-0.351,2.24-0.63,3.711-0.841,4.411c-0.42,1.26-1.119,1.89-1.959,1.89
			c-0.841,0-1.681-0.49-2.381-1.33c-0.7-0.91-0.98-1.891-0.98-3.08c0-0.21,0.141-1.12,0.561-2.801c0.35-1.54,0.561-3.22,0.561-5.11
			c0-1.68-0.211-3.92-0.49-6.65c-1.261-1.75-1.891-4.201-1.891-7.281c0-0.7,0.21-1.4,0.63-2.1c0.351-0.561,0.841-0.91,1.4-0.91
			c1.33,0,2.38,0.77,3.15,2.17c0.56,1.26,1.05,3.36,1.47,6.301c4.271-6.44,9.172-9.661,14.632-9.661c0.91,0,1.75,0.42,2.591,1.26
			c0.77,0.841,1.189,1.751,1.189,2.73C332.336,35.016,331.636,35.856,330.236,36.557z"/>
		<path fill="#FFFFFF" d="M353.824,54.688c-2.311,3.22-5.18,4.76-8.541,4.76c-2.939,0-5.391-1.189-7.351-3.43
			c-1.96-2.311-2.87-5.251-2.87-8.821c0-3.011,0.63-5.881,2.03-8.541c1.4-2.94,3.36-5.04,5.741-6.23c0.56-0.21,1.33-0.63,2.31-1.19
			c0.841-0.56,1.47-0.91,2.03-0.91c0.141,0,0.7,0.141,1.68,0.42c2.451,0.841,4.48,2.381,6.092,4.551
			c1.539,2.24,2.31,4.761,2.31,7.491C357.255,47.548,356.064,51.468,353.824,54.688z M349.694,38.097c-1.12,0-2.03-0.21-2.73-0.631
			c-1.96,0-3.57,1.19-4.831,3.431c-1.119,1.96-1.609,4.061-1.609,6.301c0,1.681,0.42,3.15,1.33,4.41
			c0.84,1.33,1.96,1.961,3.36,1.961c1.68,0,3.149-1.051,4.55-3.15c1.261-2.03,1.961-4.201,1.961-6.581
			C351.725,40.896,351.024,38.937,349.694,38.097z"/>
		<path fill="#8ED8F8" d="M94.284,106.776c-1.1,3.302-1.572,6.445-1.572,9.589c0,0.943,0.157,2.358,0.55,4.166
			c0.314,1.887,0.55,2.829,0.55,3.065c0,0.786-0.393,1.572-1.021,2.201c-0.708,0.471-1.494,0.785-2.279,0.785
			c-2.279,0-3.616-3.065-4.009-9.038c-4.401,4.401-8.331,6.602-11.868,6.602c-2.279,0-4.244-0.942-5.895-2.908
			c-1.729-1.886-2.515-4.008-2.515-6.444c0-4.559,2.672-9.432,8.096-14.462c5.188-4.873,9.903-7.389,14.227-7.389
			c1.021,0,2.043,0.472,3.065,1.258c0.943,0.786,1.494,1.729,1.494,2.672c0,0.394-0.079,0.786-0.157,1.101
			c0.472,1.415,0.786,2.986,0.786,4.795c0.629,0.785,1.022,1.571,1.022,2.279C94.755,105.362,94.598,105.912,94.284,106.776z
			 M86.188,99.86c-1.493,0-4.087,1.808-7.702,5.266c-4.009,3.852-5.974,6.995-5.974,9.511c0,1.965,0.786,2.908,2.437,2.908
			c2.358,0,5.109-1.729,8.096-5.345c2.987-3.616,4.559-6.76,4.559-9.432C87.603,100.882,87.131,99.86,86.188,99.86z"/>
		<path fill="#8ED8F8" d="M152.601,123.675c-3.301,0-5.581-5.423-6.838-16.27c-3.222,2.908-6.445,6.838-9.746,11.711
			c-1.572,2.437-3.065,3.616-4.48,3.616s-2.672-0.943-3.616-2.83c-1.886-3.458-2.986-8.488-3.458-15.012
			c-7.152,4.873-11.79,10.847-13.833,17.92c-0.628,2.201-1.808,3.301-3.458,3.301c-2.437,0-3.616-2.2-3.616-6.602
			c0-2.358,0.55-6.288,1.808-11.947c1.179-5.502,1.808-9.039,1.808-10.768c0-1.493-0.393-3.065-1.179-4.638
			c0.079-1.258,0.629-2.279,1.572-3.065c0.865-0.786,1.808-1.179,2.83-1.179c2.279,0,3.458,2.516,3.458,7.389
			c0,2.043-0.786,6.366-2.279,13.125c9.274-8.724,14.855-13.125,16.898-13.125c1.258,0,2.122,0.55,2.515,1.493
			c0.236,0.629,0.393,2.043,0.393,4.087c0,5.974,0.393,10.218,1.258,12.575c7.388-9.903,13.047-14.934,17.056-14.934
			c1.729,0,2.594,0.943,2.672,2.83c0.314,8.017,1.415,13.519,3.301,16.349c0.786,1.257,1.179,2.043,1.179,2.279
			C156.845,122.496,155.43,123.675,152.601,123.675z"/>
		<path fill="#8ED8F8" d="M185.685,119.667c-6.209,4.637-11.711,6.995-16.427,6.995c-2.908,0-4.637-1.258-5.188-3.772
			c0.157-1.415,0.865-2.437,2.122-3.223c-0.314-2.83-0.393-5.896-0.393-9.274c0-4.952,0.314-10.926,0.943-17.842
			c0.943-8.961,2.201-16.271,3.773-21.93c1.021-3.93,2.279-5.895,3.851-5.895c2.201,0,3.38,1.415,3.38,4.244
			c0,2.044-0.55,5.188-1.651,9.432c-0.236,0.786-0.864,1.494-1.808,2.044c-0.943,6.917-1.65,15.17-2.279,24.759
			c5.188-6.288,10.139-9.511,14.776-9.511c2.437,0,4.559,0.943,6.288,2.751c1.729,1.729,2.594,3.93,2.594,6.523
			C195.667,109.842,192.287,114.715,185.685,119.667z M186.392,102.611c-1.257,0-3.065,1.021-5.345,2.986
			c-2.358,1.965-4.401,4.087-5.973,6.445c-1.808,2.515-2.672,4.322-2.672,5.345v2.043c2.122-0.629,4.008-1.414,5.659-2.515
			c7.624-4.48,11.475-8.41,11.475-11.79C189.536,103.476,188.436,102.611,186.392,102.611z"/>
		<path fill="#8ED8F8" d="M213.112,103.476c-1.572,6.131-2.437,11.476-2.594,16.191c1.022,0.943,1.572,2.122,1.572,3.537
			c0,0.471-0.314,0.864-0.786,1.336s-0.943,0.707-1.415,0.707c-3.616,0-5.345-3.223-5.345-9.667c0-3.065,1.021-9.039,3.144-17.921
			c-0.157-0.943-0.236-1.572-0.236-1.887c0-1.021,0.55-1.886,1.808-2.515c3.458,0,5.188,1.65,5.188,4.951L213.112,103.476z
			 M215.471,72.508c-0.236,0-0.707-0.078-1.336-0.314c-2.28-0.786-3.38-2.829-3.38-6.131c0-1.65,1.101-2.829,3.301-3.615
			c2.673,0.314,4.009,2.044,4.009,5.345C218.064,70.936,217.199,72.508,215.471,72.508z"/>
		<path fill="#8ED8F8" d="M247.772,125.719c-5.974,0-10.375-2.672-13.204-8.096h-2.358c-2.044,0-4.009-0.393-6.052-1.258
			c-2.672-1.1-3.93-2.515-3.93-4.244c0-2.2,1.021-3.301,3.064-3.301c0.473,0,1.258,0.393,2.358,1.179s2.122,1.179,3.223,1.179h1.808
			c-0.236-1.336-0.314-2.437-0.314-3.222c0-3.773,0.943-7.311,2.83-10.611c2.2-3.852,4.951-5.816,8.331-5.816
			c1.965,0,3.851,0.943,5.737,2.83c1.887,1.886,2.83,4.008,2.83,6.209c0,5.816-3.93,10.847-11.79,15.091
			c1.886,2.279,3.931,3.38,6.288,3.38c0.629,0,1.65-0.079,2.986-0.236s2.358-0.314,2.986-0.314c0.787,0,1.572,0.394,2.201,1.022
			c0.629,0.786,0.943,1.571,0.943,2.357C255.711,124.383,253.039,125.719,247.772,125.719z M245.1,99.074
			c-0.629-0.472-1.257-0.786-1.886-0.786c-1.415,0-2.515,1.179-3.302,3.537c-0.785,1.965-1.1,4.008-1.1,6.131v1.414
			c4.716-3.065,7.074-5.895,7.074-8.488C245.887,100.253,245.572,99.703,245.1,99.074z"/>
		<path fill="#8ED8F8" d="M289.111,122.811c-0.157,1.415-0.785,2.201-1.887,2.201c-1.178,0-2.121-0.472-2.908-1.415
			c-0.785-1.021-1.178-2.122-1.178-3.38c0-0.078,0.156-1.572,0.471-4.479l1.18-10.061c-6.523,4.951-11.082,9.589-13.755,13.99
			c-0.55,0.943-1.022,1.965-1.493,2.908c-0.786,1.257-1.572,1.965-2.358,1.965c-3.302,0-4.873-4.638-4.873-13.99
			c0-6.131,0.864-12.341,2.594-18.707c0.314-1.101,0.864-1.729,1.808-1.729c1.18,0,2.201,0.471,2.986,1.336
			c0.787,1.021,1.18,2.122,1.18,3.38c-0.393,1.571-0.786,3.301-1.18,5.188c-0.785,4.165-1.178,8.174-1.178,12.104
			c5.58-6.759,11.553-11.946,17.92-15.483c1.1,0.078,2.122,0.472,3.064,1.179c0.943,0.786,1.494,1.729,1.494,2.908
			C290.998,104.34,290.369,111.729,289.111,122.811z"/>
		<path fill="#8ED8F8" d="M325.105,98.288c-0.629,0.786-1.336,1.179-2.043,1.179c-1.101,0-2.122-0.314-2.908-1.101
			c-0.551,0-1.887,0-4.087-0.078c-2.201,0-3.616-0.079-4.401-0.079c-1.415,6.131-2.279,9.904-2.594,11.397
			c-0.943,4.401-1.415,8.41-1.572,11.868c0.786,0.629,1.18,1.493,1.18,2.751c0,0.786-0.394,1.493-1.102,2.2
			c-0.785,0.629-1.492,0.943-2.279,0.943c-2.594,0-3.852-2.2-3.852-6.445c0-2.357,0.473-6.13,1.494-11.239l2.357-11.318
			c-2.436,0-3.615-1.1-3.615-3.379c0-1.415,0.472-2.358,1.415-2.83c0.629-0.314,1.808-0.55,3.694-0.55
			c2.043-8.332,3.772-14.776,5.188-19.492c0.471-1.651,1.414-2.516,2.829-2.516c2.044,0,3.144,1.179,3.38,3.537
			c-0.472,1.65-1.101,3.537-1.808,5.737c-0.943,3.223-1.966,7.389-3.065,12.576c0.55,0,2.516,0.078,5.816,0.157
			c4.559,0.235,6.838,1.571,6.838,4.087C325.971,96.638,325.656,97.502,325.105,98.288z"/>
		<path fill="#8ED8F8" d="M353.241,125.719c-5.974,0-10.375-2.672-13.204-8.096h-2.358c-2.044,0-4.009-0.393-6.052-1.258
			c-2.672-1.1-3.93-2.515-3.93-4.244c0-2.2,1.021-3.301,3.064-3.301c0.473,0,1.258,0.393,2.358,1.179s2.122,1.179,3.223,1.179h1.808
			c-0.236-1.336-0.314-2.437-0.314-3.222c0-3.773,0.943-7.311,2.83-10.611c2.2-3.852,4.951-5.816,8.331-5.816
			c1.965,0,3.851,0.943,5.737,2.83c1.887,1.886,2.83,4.008,2.83,6.209c0,5.816-3.93,10.847-11.79,15.091
			c1.886,2.279,3.931,3.38,6.288,3.38c0.629,0,1.65-0.079,2.986-0.236s2.358-0.314,2.986-0.314c0.787,0,1.572,0.394,2.201,1.022
			c0.629,0.786,0.943,1.571,0.943,2.357C361.18,124.383,358.508,125.719,353.241,125.719z M350.568,99.074
			c-0.629-0.472-1.257-0.786-1.886-0.786c-1.415,0-2.515,1.179-3.302,3.537c-0.785,1.965-1.1,4.008-1.1,6.131v1.414
			c4.716-3.065,7.074-5.895,7.074-8.488C351.355,100.253,351.041,99.703,350.568,99.074z"/>
		<path fill="#FFFFFF" d="M80.02,185.625c-2.201,1.415-5.03,2.594-8.567,3.615c-3.38,0.943-6.052,1.415-7.938,1.415
			c-5.345,0-9.432-2.122-12.261-6.209c-2.358-3.615-3.537-8.41-3.537-14.305c0-8.41,2.044-16.506,6.209-24.366
			c4.716-8.803,10.454-13.204,17.056-13.204c1.651,0,3.537,0.629,5.581,1.887c1.808,1.179,3.301,2.515,4.401,3.93
			c1.101,1.415,1.729,2.672,1.729,3.772c0,1.021-0.393,1.887-1.022,2.516c-0.786,0.707-1.65,1.021-2.594,1.021
			s-2.201-0.943-3.93-2.908c-1.729-1.887-3.458-2.908-5.187-2.908c-3.458,0-6.917,3.458-10.296,10.297
			c-3.38,6.916-5.03,13.833-5.03,20.671c0,8.488,2.986,12.654,8.96,12.654c3.773,0,8.174-1.415,13.126-4.323
			c1.572-0.942,2.594-1.493,2.987-1.493c0.786,0,1.572,0.394,2.358,1.179c0.786,0.786,1.179,1.651,1.179,2.516
			C83.242,182.874,82.142,184.289,80.02,185.625z"/>
		<path fill="#FFFFFF" d="M119.394,171.87c-1.1,3.302-1.572,6.445-1.572,9.589c0,0.943,0.157,2.358,0.55,4.166
			c0.314,1.887,0.55,2.829,0.55,3.065c0,0.786-0.393,1.572-1.021,2.201c-0.708,0.471-1.494,0.785-2.279,0.785
			c-2.279,0-3.616-3.065-4.009-9.038c-4.401,4.401-8.331,6.602-11.868,6.602c-2.279,0-4.244-0.942-5.895-2.908
			c-1.729-1.886-2.515-4.008-2.515-6.444c0-4.559,2.672-9.432,8.096-14.462c5.188-4.873,9.903-7.389,14.227-7.389
			c1.021,0,2.043,0.472,3.065,1.258c0.943,0.786,1.494,1.729,1.494,2.672c0,0.394-0.079,0.786-0.157,1.101
			c0.472,1.415,0.786,2.986,0.786,4.795c0.629,0.785,1.022,1.571,1.022,2.279C119.865,170.456,119.708,171.006,119.394,171.87z
			 M111.298,164.954c-1.493,0-4.087,1.808-7.702,5.266c-4.009,3.852-5.974,6.995-5.974,9.511c0,1.965,0.786,2.908,2.437,2.908
			c2.358,0,5.109-1.729,8.096-5.345c2.987-3.616,4.559-6.76,4.559-9.432C112.713,165.976,112.241,164.954,111.298,164.954z"/>
		<path fill="#FFFFFF" d="M177.71,188.769c-3.301,0-5.581-5.423-6.838-16.27c-3.222,2.908-6.445,6.838-9.746,11.711
			c-1.572,2.437-3.065,3.616-4.48,3.616s-2.672-0.943-3.616-2.83c-1.886-3.458-2.986-8.488-3.458-15.012
			c-7.152,4.873-11.79,10.847-13.833,17.92c-0.628,2.201-1.808,3.301-3.458,3.301c-2.437,0-3.616-2.2-3.616-6.602
			c0-2.358,0.55-6.288,1.808-11.947c1.179-5.502,1.808-9.039,1.808-10.768c0-1.493-0.393-3.065-1.179-4.638
			c0.079-1.258,0.629-2.279,1.572-3.065c0.864-0.786,1.808-1.179,2.829-1.179c2.279,0,3.458,2.516,3.458,7.389
			c0,2.043-0.786,6.366-2.279,13.125c9.274-8.724,14.855-13.125,16.898-13.125c1.258,0,2.122,0.55,2.515,1.493
			c0.236,0.629,0.393,2.043,0.393,4.087c0,5.974,0.393,10.218,1.258,12.575c7.388-9.903,13.047-14.934,17.056-14.934
			c1.729,0,2.594,0.943,2.672,2.83c0.314,8.017,1.415,13.519,3.301,16.349c0.786,1.257,1.179,2.043,1.179,2.279
			C181.955,187.59,180.54,188.769,177.71,188.769z"/>
		<path fill="#FFFFFF" d="M198.062,180.987c0.235,3.145,0.393,6.367,0.393,9.668c0,3.615-0.393,7.31-1.179,10.925
			c-0.708,3.223-1.886,4.873-3.537,4.873c-0.864,0-1.65-0.393-2.279-1.021c-0.629-0.707-0.943-1.493-0.943-2.357
			c0-0.236,0.235-1.415,0.786-3.537c0.472-2.201,0.786-5.738,0.786-10.769c0-2.515-0.079-4.401-0.236-5.658
			c-2.201-0.157-3.223-1.258-3.223-3.302c0-1.65,1.022-2.829,3.223-3.615c-0.079-0.394-0.079-1.021-0.079-1.808
			c0-6.131,0.943-11.633,2.83-16.427c2.751-6.917,6.602-10.375,11.554-10.375c3.458,0,6.209,1.414,8.096,4.165
			c1.729,2.516,2.594,5.659,2.594,9.432C216.847,169.827,210.559,176.429,198.062,180.987z M209.458,155.915
			c-0.865-1.101-1.965-1.729-3.301-1.729c-2.201,0-4.166,2.358-5.816,6.995c-1.494,4.245-2.201,8.567-2.201,12.812
			c8.252-2.986,12.418-7.702,12.418-14.147C210.559,158.352,210.166,157.016,209.458,155.915z"/>
		<path fill="#FFFFFF" d="M234.843,168.569c-1.571,6.131-2.437,11.476-2.594,16.191c1.022,0.943,1.572,2.122,1.572,3.537
			c0,0.471-0.314,0.864-0.786,1.336s-0.943,0.707-1.414,0.707c-3.616,0-5.346-3.223-5.346-9.667c0-3.065,1.021-9.039,3.145-17.921
			c-0.157-0.943-0.236-1.572-0.236-1.887c0-1.021,0.551-1.886,1.809-2.515c3.458,0,5.188,1.65,5.188,4.951L234.843,168.569z
			 M237.201,137.602c-0.236,0-0.707-0.078-1.336-0.314c-2.279-0.786-3.381-2.829-3.381-6.131c0-1.65,1.102-2.829,3.302-3.615
			c2.673,0.314,4.009,2.044,4.009,5.345C239.795,136.029,238.93,137.602,237.201,137.602z"/>
		<path fill="#FFFFFF" d="M273.039,164.089c-1.572,0.943-2.986,1.337-4.244,1.337c-0.078,0-0.55-0.157-1.493-0.472
			c-6.366,3.144-10.296,9.51-11.711,19.099c-0.394,2.516-0.708,4.166-0.943,4.952c-0.472,1.415-1.257,2.122-2.2,2.122
			s-1.887-0.55-2.673-1.493c-0.786-1.022-1.101-2.122-1.101-3.459c0-0.235,0.157-1.257,0.629-3.144
			c0.393-1.729,0.629-3.615,0.629-5.737c0-1.887-0.236-4.401-0.551-7.467c-1.414-1.965-2.121-4.716-2.121-8.175
			c0-0.786,0.235-1.571,0.707-2.357c0.393-0.629,0.943-1.022,1.572-1.022c1.493,0,2.672,0.865,3.537,2.438
			c0.628,1.414,1.178,3.772,1.65,7.073c4.794-7.23,10.296-10.847,16.427-10.847c1.021,0,1.965,0.472,2.907,1.415
			c0.865,0.943,1.337,1.965,1.337,3.065C275.397,162.36,274.611,163.303,273.039,164.089z"/>
		<path fill="#FFFFFF" d="M306.52,171.87c-1.101,3.302-1.572,6.445-1.572,9.589c0,0.943,0.157,2.358,0.551,4.166
			c0.314,1.887,0.549,2.829,0.549,3.065c0,0.786-0.393,1.572-1.021,2.201c-0.707,0.471-1.493,0.785-2.279,0.785
			c-2.279,0-3.615-3.065-4.008-9.038c-4.402,4.401-8.332,6.602-11.869,6.602c-2.279,0-4.244-0.942-5.895-2.908
			c-1.729-1.886-2.516-4.008-2.516-6.444c0-4.559,2.673-9.432,8.096-14.462c5.188-4.873,9.904-7.389,14.227-7.389
			c1.021,0,2.044,0.472,3.065,1.258c0.943,0.786,1.493,1.729,1.493,2.672c0,0.394-0.078,0.786-0.156,1.101
			c0.471,1.415,0.785,2.986,0.785,4.795c0.629,0.785,1.021,1.571,1.021,2.279C306.99,170.456,306.834,171.006,306.52,171.87z
			 M298.424,164.954c-1.494,0-4.088,1.808-7.703,5.266c-4.008,3.852-5.973,6.995-5.973,9.511c0,1.965,0.785,2.908,2.436,2.908
			c2.358,0,5.109-1.729,8.096-5.345c2.987-3.616,4.559-6.76,4.559-9.432C299.838,165.976,299.367,164.954,298.424,164.954z"/>
		<path fill="#FFFFFF" d="M342.592,187.904c-0.156,1.415-0.785,2.201-1.886,2.201c-1.179,0-2.122-0.472-2.908-1.415
			c-0.786-1.021-1.179-2.122-1.179-3.38c0-0.078,0.157-1.572,0.472-4.479l1.179-10.061c-6.523,4.951-11.082,9.589-13.754,13.99
			c-0.551,0.943-1.022,1.965-1.494,2.908c-0.785,1.257-1.572,1.965-2.357,1.965c-3.302,0-4.873-4.638-4.873-13.99
			c0-6.131,0.864-12.341,2.594-18.707c0.314-1.101,0.864-1.729,1.807-1.729c1.18,0,2.201,0.471,2.987,1.336
			c0.786,1.021,1.179,2.122,1.179,3.38c-0.393,1.571-0.785,3.301-1.179,5.188c-0.786,4.165-1.179,8.174-1.179,12.104
			c5.58-6.759,11.554-11.946,17.92-15.483c1.101,0.078,2.123,0.472,3.065,1.179c0.943,0.786,1.493,1.729,1.493,2.908
			C344.479,169.434,343.85,176.822,342.592,187.904z"/>
		<path fill="#FFFFFF" d="M373.557,184.446c-2.594,3.615-5.816,5.345-9.589,5.345c-3.302,0-6.052-1.337-8.253-3.852
			c-2.201-2.594-3.223-5.895-3.223-9.903c0-3.38,0.707-6.603,2.279-9.589c1.572-3.301,3.773-5.659,6.445-6.995
			c0.629-0.236,1.493-0.708,2.594-1.336c0.943-0.629,1.65-1.022,2.279-1.022c0.157,0,0.786,0.157,1.887,0.472
			c2.75,0.943,5.029,2.673,6.838,5.109c1.729,2.515,2.594,5.345,2.594,8.409C377.408,176.429,376.072,180.831,373.557,184.446z
			 M368.92,165.818c-1.258,0-2.279-0.235-3.066-0.707c-2.2,0-4.008,1.336-5.423,3.851c-1.257,2.201-1.808,4.559-1.808,7.074
			c0,1.887,0.472,3.537,1.493,4.951c0.943,1.494,2.201,2.201,3.772,2.201c1.887,0,3.537-1.179,5.109-3.537
			c1.414-2.279,2.201-4.716,2.201-7.388C371.199,168.962,370.412,166.762,368.92,165.818z"/>
	</g>
</g>
</svg>
