<?xml version="1.0" encoding="utf-8"?>
<!-- Generator: Adobe Illustrator 16.0.0, SVG Export Plug-In . SVG Version: 6.00 Build 0)  -->
<!DOCTYPE svg PUBLIC "-//W3C//DTD SVG 1.1//EN" "http://www.w3.org/Graphics/SVG/1.1/DTD/svg11.dtd">
<svg version="1.1" id="Layer_1" xmlns="http://www.w3.org/2000/svg" xmlns:xlink="http://www.w3.org/1999/xlink" x="0px" y="0px"
	 width="566.93px" height="566.93px" viewBox="0 0 566.93 566.93" enable-background="new 0 0 566.93 566.93" xml:space="preserve">
<g>
	<circle fill="#FFFFFF" cx="283.465" cy="283.465" r="276.139"/>
	<g>
		
			<circle fill="none" stroke="#231F20" stroke-width="16.5607" stroke-miterlimit="10" stroke-dasharray="3.8834,7.7669" cx="283.465" cy="283.465" r="259.578"/>
	</g>
	<g>
		<path fill-rule="evenodd" clip-rule="evenodd" fill="#231F20" d="M172.067,408.645l0.967,13.979l-4.269,0.584
			c-11.426,1.544-22.835,3.211-34.202,5.157c-11.407,1.943-22.745,4.197-34.057,6.641l-7.411,1.596l2.016-7.313l7.225-26.202
			l-22.103-24.739l7.96-1.526l50.333-9.658v-14.294l3.806-0.674c46.613-8.236,93.842-11.288,141.133-11.288
			c47.287,0,94.523,3.052,141.131,11.288l3.809,0.674v14.294l58.291,11.185l-22.104,24.739l9.244,33.516l-7.405-1.596
			c-11.315-2.443-22.654-4.697-34.062-6.641c-11.366-1.946-22.773-3.613-34.2-5.157l-4.27-0.584l0.301-4.276l0.668-9.703
			c-36.975-4.31-74.186-6.393-111.403-6.393C246.245,402.252,209.033,404.335,172.067,408.645L172.067,408.645z"/>
		<path fill-rule="evenodd" clip-rule="evenodd" fill="#FFFFFF" d="M172.062,408.641c0.326,4.664,0.646,9.321,0.972,13.987
			c-11.135-3.357-22.268-6.708-33.403-10.065C150.44,411.253,161.253,409.947,172.062,408.641L172.062,408.641z"/>
		<path fill-rule="evenodd" clip-rule="evenodd" fill="#FFFFFF" d="M394.869,408.641c-0.323,4.664-0.652,9.321-0.975,13.987
			c11.143-3.357,22.273-6.708,33.408-10.065C416.491,411.253,405.682,409.947,394.869,408.641L394.869,408.641z"/>
	</g>
	<path fill="#FFFFFF" d="M138.409,407.561l3.805-0.677c23.328-4.12,46.814-6.945,70.379-8.734
		c23.575-1.797,47.22-2.556,70.873-2.556c23.653,0,47.302,0.759,70.871,2.556c23.568,1.789,47.058,4.614,70.382,8.734l3.808,0.677
		l-0.241,1.35l-3.806-0.671c-23.28-4.116-46.717-6.932-70.244-8.723c-23.521-1.786-47.134-2.544-70.77-2.544
		c-23.633,0-47.25,0.758-70.769,2.544c-23.522,1.791-46.958,4.606-70.24,8.723l-3.808,0.671L138.409,407.561L138.409,407.561z
		 M138.409,357.334l3.805-0.671c23.328-4.124,46.814-6.946,70.379-8.738c23.575-1.794,47.22-2.559,70.873-2.559
		c23.653,0,47.302,0.765,70.871,2.559c23.568,1.792,47.058,4.614,70.382,8.738l3.808,0.671l-0.241,1.355l-3.806-0.677
		c-23.28-4.111-46.717-6.93-70.244-8.716c-23.521-1.79-47.134-2.551-70.77-2.551c-23.633,0-47.25,0.761-70.769,2.551
		c-23.522,1.786-46.958,4.604-70.24,8.716l-3.808,0.677L138.409,357.334L138.409,357.334z"/>
	<polygon fill="#231F20" points="149.808,223.215 283.435,336.449 417.121,223.215 	"/>
	<g>
		<polygon fill="#231F20" points="201.696,94.799 204.408,100.291 210.467,101.17 206.081,105.441 207.114,111.479 201.696,108.629 
			196.28,111.479 197.314,105.441 192.934,101.17 198.983,100.291 		"/>
		<polygon fill="#231F20" points="365.226,94.799 367.935,100.291 373.996,101.17 369.607,105.441 370.64,111.479 365.226,108.629 
			359.807,111.479 360.835,105.441 356.462,101.17 362.507,100.291 		"/>
		<polygon fill="#231F20" points="324.344,81.19 328.674,89.969 338.368,91.379 331.353,98.216 333.012,107.869 324.344,103.311 
			315.676,107.869 317.325,98.216 310.316,91.379 320.011,89.969 		"/>
		<polygon fill="#231F20" points="242.574,81.19 246.911,89.974 256.605,91.379 249.592,98.216 251.248,107.869 242.574,103.312 
			233.905,107.869 235.569,98.216 228.557,91.379 238.245,89.974 		"/>
		<polygon fill="#231F20" points="283.469,68.854 289.009,80.085 301.403,81.896 292.438,90.638 294.559,102.983 283.469,97.153 
			272.375,102.983 274.497,90.638 265.523,81.896 277.921,80.085 		"/>
	</g>
	<path fill="#FFFFFF" stroke="#231F20" stroke-width="2.8401" stroke-miterlimit="10" d="M398.347,177.336
		C390.707,186.5,376,205.013,376,205.013l-43.306-71.889l-24.446,45.587l-24.785-54.41l-30.292,54.555l-34.313-34.786
		l-37.303,56.809l-12.97-23.542l-18.776,40.569h20.564h20.562h226.187C417.121,217.905,404.868,190.836,398.347,177.336z"/>
	<g>
		<rect x="80.233" y="273.548" fill="#231F20" width="107.211" height="1.473"/>
		<rect x="111.818" y="323.477" fill="#231F20" width="132.392" height="1.47"/>
		<rect x="325.532" y="322.168" fill="#231F20" width="132.398" height="1.47"/>
		<rect x="379.482" y="273.548" fill="#231F20" width="107.214" height="1.473"/>
	</g>
	<g>
		<path fill="#231F20" d="M114.084,281.527h7.134c2.74,0,4.834,0.765,6.284,2.291c1.448,1.528,2.173,3.661,2.173,6.4v15.733
			c0,3.149-0.764,5.472-2.292,6.968c-1.528,1.497-3.725,2.245-6.59,2.245h-6.708V281.527z M118.903,310.629h2.22
			c1.354,0,2.315-0.339,2.882-1.016c0.567-0.678,0.85-1.739,0.85-3.189v-16.205c0-1.322-0.268-2.346-0.803-3.07
			c-0.536-0.723-1.512-1.087-2.929-1.087h-2.22V310.629z"/>
		<path fill="#231F20" d="M134.209,281.527h14.362v4.534h-9.543v9.875h8.315v4.536h-8.315v9.873h9.543v4.819h-14.362V281.527z"/>
		<path fill="#231F20" d="M167.279,291.213h-4.818v-1.087c0-1.102-0.26-2.055-0.779-2.857c-0.52-0.805-1.394-1.207-2.623-1.207
			c-0.661,0-1.204,0.128-1.629,0.379c-0.425,0.253-0.756,0.575-0.992,0.969s-0.402,0.851-0.496,1.37s-0.142,1.063-0.142,1.63
			c0,0.66,0.024,1.22,0.071,1.677c0.048,0.456,0.166,0.851,0.354,1.182s0.464,0.622,0.827,0.873
			c0.362,0.253,0.858,0.504,1.488,0.757l3.685,1.464c1.07,0.41,1.937,0.89,2.599,1.441c0.661,0.551,1.173,1.197,1.536,1.938
			c0.361,0.74,0.606,1.591,0.732,2.552c0.125,0.96,0.188,2.055,0.188,3.281c0,1.418-0.142,2.732-0.425,3.946
			c-0.284,1.212-0.749,2.251-1.394,3.117c-0.646,0.867-1.504,1.552-2.575,2.055c-1.071,0.504-2.378,0.757-3.921,0.757
			c-1.166,0-2.252-0.205-3.26-0.614c-1.008-0.409-1.875-0.969-2.598-1.679c-0.725-0.707-1.299-1.55-1.725-2.526
			c-0.425-0.976-0.638-2.032-0.638-3.166v-1.794h4.819v1.511c0,0.883,0.26,1.678,0.779,2.386c0.52,0.71,1.394,1.063,2.622,1.063
			c0.819,0,1.457-0.118,1.913-0.354c0.456-0.236,0.804-0.567,1.04-0.993c0.236-0.425,0.385-0.952,0.449-1.581
			c0.063-0.63,0.095-1.324,0.095-2.08c0-0.881-0.032-1.605-0.095-2.173c-0.063-0.566-0.197-1.023-0.401-1.37
			c-0.206-0.346-0.489-0.63-0.851-0.851c-0.362-0.221-0.843-0.456-1.44-0.709l-3.449-1.418c-2.079-0.849-3.472-1.975-4.181-3.377
			c-0.708-1.4-1.062-3.156-1.062-5.267c0-1.26,0.173-2.458,0.52-3.592c0.346-1.133,0.857-2.108,1.535-2.929
			c0.677-0.818,1.536-1.472,2.575-1.96c1.04-0.488,2.251-0.732,3.638-0.732c1.196,0,2.291,0.221,3.283,0.661
			c0.992,0.441,1.842,1.023,2.551,1.749c0.708,0.724,1.252,1.534,1.629,2.433c0.378,0.897,0.567,1.818,0.567,2.763V291.213z"/>
		<path fill="#231F20" d="M170.87,281.527h7.134c2.74,0,4.834,0.765,6.283,2.291c1.448,1.528,2.173,3.661,2.173,6.4v15.733
			c0,3.149-0.764,5.472-2.291,6.968c-1.528,1.497-3.725,2.245-6.59,2.245h-6.709V281.527z M175.689,310.629h2.22
			c1.354,0,2.315-0.339,2.882-1.016c0.567-0.678,0.851-1.739,0.851-3.189v-16.205c0-1.322-0.268-2.346-0.803-3.07
			c-0.536-0.723-1.512-1.087-2.929-1.087h-2.22V310.629z"/>
		<path fill="#231F20" d="M190.995,281.527h14.362v4.534h-9.543v9.875h8.315v4.536h-8.315v9.873h9.543v4.819h-14.362V281.527z"/>
	</g>
	<g>
		<path fill="#231F20" d="M375.602,310.629l8.693-16.394c0.44-0.817,0.692-1.535,0.756-2.149c0.062-0.615,0.095-1.378,0.095-2.291
			c0-0.409-0.017-0.843-0.048-1.3c-0.031-0.456-0.118-0.857-0.26-1.204s-0.37-0.638-0.685-0.873
			c-0.315-0.238-0.772-0.356-1.37-0.356c-0.725,0-1.3,0.206-1.725,0.615c-0.426,0.409-0.638,1.008-0.638,1.796v2.74h-4.819v-2.647
			c0-1.006,0.189-1.952,0.567-2.833c0.378-0.883,0.889-1.655,1.535-2.315c0.646-0.661,1.41-1.188,2.292-1.582
			c0.881-0.394,1.826-0.591,2.834-0.591c1.259,0,2.339,0.229,3.236,0.685c0.897,0.457,1.637,1.079,2.22,1.866
			s1.008,1.685,1.276,2.693c0.268,1.008,0.401,2.077,0.401,3.212c0,0.819-0.017,1.505-0.047,2.055
			c-0.032,0.552-0.095,1.08-0.189,1.583c-0.094,0.504-0.252,1.008-0.473,1.513c-0.221,0.504-0.52,1.118-0.897,1.842l-7.086,13.653
			h8.692v4.819h-14.362V310.629z"/>
		<path fill="#231F20" d="M393.176,288.473c0-1.134,0.196-2.143,0.591-3.023c0.394-0.883,0.922-1.638,1.583-2.269
			c0.661-0.629,1.424-1.109,2.29-1.44c0.867-0.33,1.772-0.496,2.718-0.496c0.944,0,1.849,0.166,2.716,0.496
			c0.865,0.331,1.63,0.812,2.292,1.44c0.661,0.631,1.188,1.386,1.582,2.269c0.394,0.881,0.59,1.89,0.59,3.023v19.748
			c0,1.134-0.196,2.142-0.59,3.022c-0.395,0.881-0.921,1.639-1.582,2.269c-0.662,0.63-1.427,1.109-2.292,1.44
			c-0.867,0.331-1.771,0.496-2.716,0.496c-0.945,0-1.851-0.165-2.718-0.496c-0.866-0.331-1.629-0.811-2.29-1.44
			s-1.189-1.388-1.583-2.269c-0.395-0.881-0.591-1.889-0.591-3.022V288.473z M397.995,308.221c0,0.692,0.22,1.267,0.661,1.724
			c0.44,0.456,1.007,0.685,1.701,0.685c0.692,0,1.259-0.229,1.7-0.685c0.44-0.457,0.661-1.031,0.661-1.724v-19.748
			c0-0.692-0.221-1.268-0.661-1.726c-0.441-0.455-1.008-0.686-1.7-0.686c-0.694,0-1.261,0.23-1.701,0.686
			c-0.441,0.458-0.661,1.033-0.661,1.726V308.221z"/>
		<path fill="#231F20" d="M416.467,286.629l-4.818,3.545v-5.104l4.818-3.543h4.819v33.638h-4.819V286.629z"/>
		<path fill="#231F20" d="M434.041,295.701c1.448,0,2.448-0.174,3-0.52c0.551-0.347,0.827-1.149,0.827-2.411v-4.346
			c0-0.692-0.214-1.26-0.639-1.701c-0.426-0.441-1-0.662-1.724-0.662c-0.851,0-1.458,0.269-1.819,0.804
			c-0.362,0.536-0.543,1.056-0.543,1.56v2.74h-4.819v-2.787c0-0.977,0.189-1.905,0.566-2.788c0.379-0.881,0.898-1.637,1.56-2.267
			s1.433-1.135,2.315-1.512c0.881-0.379,1.826-0.567,2.834-0.567c1.323,0,2.417,0.26,3.284,0.779c0.865,0.52,1.519,1.047,1.96,1.583
			c0.314,0.378,0.591,0.764,0.827,1.158c0.236,0.394,0.425,0.849,0.566,1.369c0.142,0.52,0.252,1.149,0.331,1.89
			c0.078,0.74,0.118,1.646,0.118,2.717c0,1.165-0.024,2.11-0.07,2.833c-0.048,0.726-0.175,1.332-0.379,1.819
			c-0.205,0.489-0.504,0.905-0.897,1.252c-0.394,0.348-0.938,0.725-1.63,1.134c0.756,0.474,1.33,0.915,1.725,1.322
			c0.394,0.411,0.685,0.891,0.874,1.442s0.299,1.212,0.331,1.984c0.03,0.771,0.047,1.756,0.047,2.953c0,1.102-0.024,2.015-0.07,2.74
			c-0.048,0.725-0.118,1.329-0.214,1.818c-0.094,0.489-0.221,0.905-0.377,1.252c-0.158,0.347-0.363,0.708-0.615,1.087
			c-0.598,0.881-1.369,1.613-2.314,2.195c-0.944,0.584-2.157,0.875-3.638,0.875c-0.755,0-1.56-0.127-2.41-0.379
			c-0.849-0.251-1.621-0.662-2.314-1.227c-0.692-0.567-1.268-1.308-1.724-2.223c-0.457-0.911-0.686-2.03-0.686-3.353v-2.741h4.819
			v2.504c0,0.757,0.212,1.379,0.638,1.866c0.425,0.489,0.999,0.732,1.725,0.732c0.724,0,1.298-0.243,1.724-0.732
			c0.425-0.487,0.639-1.142,0.639-1.96v-4.819c0-0.662-0.056-1.196-0.166-1.605s-0.308-0.732-0.591-0.969s-0.669-0.394-1.156-0.472
			c-0.489-0.08-1.127-0.12-1.914-0.12V295.701z"/>
	</g>
	<g>
		<polygon fill="#231F20" points="365.234,472.131 362.521,466.639 356.463,465.76 360.849,461.488 359.815,455.451 
			365.234,458.301 370.65,455.451 369.616,461.488 373.996,465.76 367.946,466.639 		"/>
		<polygon fill="#231F20" points="201.704,472.131 198.995,466.639 192.934,465.76 197.322,461.488 196.29,455.451 201.704,458.301 
			207.123,455.451 206.095,461.488 210.468,465.76 204.423,466.639 		"/>
		<polygon fill="#231F20" points="242.585,485.739 238.256,476.962 228.562,475.551 235.577,468.715 233.918,459.061 
			242.585,463.619 251.254,459.061 249.604,468.715 256.614,475.551 246.919,476.962 		"/>
		<polygon fill="#231F20" points="324.355,485.739 320.019,476.957 310.324,475.551 317.338,468.715 315.682,459.061 
			324.355,463.618 333.025,459.061 331.36,468.715 338.372,475.551 328.686,476.957 		"/>
		<polygon fill="#231F20" points="283.461,498.076 277.92,486.845 265.527,485.034 274.492,476.293 272.372,463.946 
			283.461,469.777 294.555,463.946 292.433,476.293 301.407,485.034 289.008,486.845 		"/>
	</g>
	<g>
		<g>
			<path fill="#FFFFFF" d="M155.254,389.897c0.105,0.908,0.055,1.788-0.148,2.646c-0.203,0.856-0.533,1.632-0.986,2.311
				c-0.453,0.679-1.01,1.243-1.668,1.697c-0.659,0.455-1.394,0.732-2.204,0.83c-0.691,0.084-1.406,0.061-2.148-0.07
				c-0.742-0.131-1.433-0.433-2.072-0.896c-0.64-0.464-1.199-1.11-1.68-1.942c-0.48-0.831-0.806-1.918-0.976-3.263
				c-0.815-6.454-1.223-9.681-2.039-16.136c-0.122-0.961-0.089-1.871,0.1-2.731c0.188-0.86,0.515-1.625,0.976-2.295
				c0.462-0.671,1.046-1.226,1.75-1.66c0.703-0.435,1.507-0.71,2.413-0.819c0.856-0.104,1.673-0.025,2.448,0.23
				c0.775,0.256,1.47,0.664,2.079,1.218c0.61,0.555,1.117,1.248,1.523,2.078c0.405,0.83,0.666,1.754,0.783,2.769
				c0.076,0.66,0.114,0.99,0.19,1.65c-1.487,0.172-2.23,0.258-3.717,0.435c-0.066-0.561-0.1-0.838-0.166-1.398
				c-0.098-0.824-0.391-1.517-0.877-2.071c-0.485-0.554-1.083-0.79-1.79-0.704c-0.927,0.112-1.503,0.511-1.729,1.193
				c-0.226,0.683-0.277,1.521-0.155,2.509c0.738,5.996,1.107,8.993,1.844,14.989c0.104,0.851,0.354,1.544,0.748,2.08
				c0.394,0.538,1.009,0.753,1.847,0.651c0.239-0.029,0.49-0.107,0.753-0.236c0.262-0.128,0.496-0.317,0.698-0.563
				c0.201-0.246,0.351-0.572,0.449-0.974c0.098-0.403,0.112-0.892,0.043-1.47c-0.068-0.576-0.103-0.86-0.171-1.437
				c1.47-0.175,2.205-0.263,3.676-0.433C155.128,388.81,155.17,389.173,155.254,389.897z"/>
			<path fill="#FFFFFF" d="M159.819,366.296c1.249-0.137,1.874-0.202,3.123-0.335c2.987,9.579,5.928,19.173,8.819,28.781
				c-1.461,0.148-2.193,0.223-3.654,0.375c-0.694-2.48-1.042-3.72-1.74-6.199c-2.002,0.211-3.002,0.319-5.003,0.54
				c-0.154,2.571-0.229,3.857-0.379,6.429c-1.46,0.162-2.189,0.243-3.649,0.41C158.111,386.292,158.942,376.292,159.819,366.296z
				 M162.311,374.581c-0.029,0.003-0.044,0.007-0.073,0.01c-0.27,4.336-0.403,6.503-0.66,10.839c1.474-0.161,2.21-0.24,3.685-0.396
				C164.088,380.852,163.499,378.76,162.311,374.581z"/>
			<path fill="#FFFFFF" d="M170.622,365.169c2.191-0.219,3.287-0.324,5.479-0.532c1.201-0.114,2.247-0.003,3.129,0.332
				c0.883,0.335,1.625,0.824,2.226,1.464c0.6,0.64,1.057,1.397,1.369,2.271c0.312,0.876,0.511,1.797,0.597,2.76
				c0.038,0.43,0.057,0.643,0.095,1.072c0.071,0.8,0.076,1.479,0.016,2.04c-0.06,0.562-0.182,1.06-0.364,1.493
				c-0.181,0.432-0.416,0.82-0.702,1.166c-0.287,0.346-1.011,0.978-1.01,0.984c0.02,0.141,1.62,1.029,2.113,1.914
				c0.494,0.886,0.809,2.101,0.946,3.644c0.059,0.661,0.089,0.993,0.147,1.654c0.23,2.59-0.142,4.622-1.106,6.098
				c-0.965,1.476-2.638,2.321-5.026,2.549c-1.992,0.189-2.987,0.286-4.979,0.484C172.575,384.765,171.598,374.967,170.622,365.169z
				 M175.534,376.858c0.669-0.064,1.004-0.096,1.674-0.159c1.237-0.117,2.036-0.543,2.395-1.284
				c0.359-0.742,0.479-1.789,0.354-3.139c-0.122-1.322-0.451-2.295-0.988-2.91c-0.538-0.617-1.43-0.865-2.676-0.747
				c-0.616,0.059-0.923,0.087-1.539,0.146C175.066,372.003,175.222,373.621,175.534,376.858z M176.798,389.993
				c0.633-0.061,0.951-0.092,1.584-0.152c0.743-0.07,1.312-0.25,1.708-0.536c0.396-0.286,0.684-0.662,0.859-1.123
				c0.175-0.459,0.26-0.997,0.252-1.605c-0.008-0.61-0.045-1.272-0.111-1.988c-0.068-0.743-0.163-1.386-0.286-1.93
				s-0.317-0.994-0.581-1.345c-0.264-0.351-0.609-0.604-1.038-0.758c-0.429-0.154-0.984-0.2-1.66-0.136
				c-0.653,0.062-0.979,0.095-1.632,0.157C176.255,384.344,176.435,386.227,176.798,389.993z"/>
			<path fill="#FFFFFF" d="M190.008,363.402c1.251-0.104,1.876-0.154,3.127-0.254c2.736,9.654,5.417,19.323,8.055,29.004
				c-1.464,0.109-2.195,0.165-3.659,0.279c-0.628-2.498-0.943-3.745-1.576-6.242c-2.005,0.158-3.008,0.24-5.013,0.407
				c-0.222,2.566-0.332,3.85-0.548,6.416c-1.463,0.123-2.195,0.186-3.658,0.313C187.775,383.346,188.871,373.372,190.008,363.402z
				 M192.278,371.751c-0.029,0.002-0.044,0.003-0.073,0.005c-0.384,4.327-0.572,6.489-0.942,10.817
				c1.477-0.122,2.215-0.183,3.692-0.3C193.892,378.062,193.355,375.96,192.278,371.751z"/>
			<path fill="#FFFFFF" d="M200.685,362.572c1.443-0.105,2.165-0.157,3.608-0.259c2.766,6.942,4.133,10.417,6.829,17.376
				c0.029-0.002,0.043,0,0.072-0.002c-0.462-7.104-0.692-10.658-1.154-17.763c1.503-0.098,2.253-0.145,3.757-0.237
				c0.608,9.828,1.214,19.655,1.821,29.483c-1.378,0.085-2.068,0.129-3.446,0.218c-2.699-6.943-4.067-10.41-6.837-17.337
				c-0.029,0.002-0.042,0.002-0.071,0.004c0.496,7.086,0.743,10.629,1.238,17.715c-1.464,0.103-2.197,0.155-3.661,0.263
				C202.122,382.213,201.402,372.393,200.685,362.572z M213.1,355.203c-0.084,0.644-0.195,1.246-0.333,1.809
				c-0.138,0.564-0.342,1.063-0.612,1.496c-0.269,0.432-0.607,0.785-1.009,1.06c-0.402,0.275-0.897,0.434-1.488,0.472
				c-0.295,0.02-0.702-0.04-1.217-0.172c-0.516-0.132-1.052-0.285-1.607-0.455c-0.556-0.17-1.073-0.327-1.553-0.475
				c-0.48-0.146-0.831-0.213-1.053-0.197c-0.517,0.036-0.899,0.235-1.146,0.6c-0.247,0.366-0.363,0.826-0.348,1.379
				c-0.752,0.054-1.128,0.081-1.881,0.136c0.052-0.643,0.15-1.246,0.295-1.812c0.145-0.564,0.351-1.064,0.617-1.499
				c0.266-0.437,0.6-0.791,1.002-1.069c0.401-0.277,0.899-0.438,1.492-0.479c0.296-0.021,0.705,0.042,1.224,0.187
				c0.518,0.145,1.055,0.3,1.61,0.471s1.082,0.323,1.573,0.457s0.837,0.196,1.034,0.184c0.518-0.034,0.9-0.235,1.149-0.598
				c0.249-0.362,0.37-0.819,0.36-1.372C211.966,355.274,212.344,355.25,213.1,355.203z"/>
			<path fill="#FFFFFF" d="M221.353,361.246c1.253-0.069,1.879-0.104,3.132-0.169c2.467,9.727,4.886,19.465,7.257,29.215
				c-1.466,0.069-2.2,0.105-3.665,0.18c-0.559-2.515-0.839-3.77-1.403-6.283c-2.008,0.104-3.013,0.156-5.021,0.269
				c-0.292,2.56-0.436,3.839-0.723,6.398c-1.465,0.083-2.197,0.126-3.662,0.214C218.581,381.122,219.94,371.18,221.353,361.246z
				 M223.394,369.652c-0.029,0.002-0.044,0.004-0.073,0.006c-0.502,4.315-0.749,6.47-1.237,10.786
				c1.479-0.082,2.218-0.122,3.697-0.199C224.833,376.007,224.355,373.889,223.394,369.652z"/>
			<path fill="#FFFFFF" d="M244.655,368.707c-1.493,0.053-2.24,0.081-3.733,0.139c-0.015-0.381-0.022-0.571-0.037-0.952
				c-0.037-0.968-0.271-1.796-0.702-2.486c-0.431-0.688-1.125-1.015-2.081-0.976c-0.515,0.021-0.931,0.15-1.252,0.385
				s-0.568,0.528-0.737,0.882c-0.169,0.354-0.281,0.759-0.334,1.217c-0.054,0.46-0.068,0.938-0.047,1.436
				c0.025,0.58,0.062,1.069,0.116,1.468c0.054,0.4,0.162,0.743,0.32,1.025c0.159,0.284,0.381,0.53,0.669,0.739
				c0.289,0.209,0.682,0.416,1.178,0.616c1.159,0.468,1.739,0.701,2.896,1.172c0.84,0.327,1.524,0.725,2.051,1.188
				c0.527,0.464,0.942,1.02,1.244,1.657c0.302,0.64,0.517,1.382,0.643,2.219c0.126,0.841,0.208,1.799,0.245,2.878
				c0.043,1.243-0.024,2.4-0.204,3.472c-0.179,1.073-0.501,1.998-0.965,2.775c-0.464,0.779-1.096,1.403-1.893,1.876
				c-0.798,0.474-1.782,0.734-2.955,0.782c-0.886,0.036-1.718-0.11-2.5-0.437s-1.462-0.784-2.042-1.382
				c-0.58-0.598-1.051-1.318-1.415-2.16c-0.364-0.842-0.57-1.76-0.616-2.755c-0.029-0.63-0.044-0.945-0.073-1.575
				c1.477-0.068,2.216-0.102,3.692-0.165c0.023,0.531,0.033,0.797,0.056,1.328c0.033,0.774,0.261,1.464,0.685,2.069
				c0.423,0.604,1.104,0.886,2.042,0.848c0.625-0.025,1.106-0.148,1.447-0.369c0.34-0.221,0.592-0.521,0.758-0.901
				s0.264-0.85,0.291-1.403c0.027-0.556,0.027-1.163,0.001-1.827c-0.03-0.772-0.077-1.408-0.144-1.904
				c-0.068-0.496-0.187-0.892-0.355-1.19c-0.169-0.299-0.397-0.54-0.683-0.722c-0.284-0.181-0.664-0.372-1.132-0.574
				c-1.081-0.454-1.622-0.683-2.706-1.135c-1.632-0.68-2.751-1.616-3.354-2.82s-0.948-2.733-1.034-4.585
				c-0.051-1.104,0.035-2.161,0.259-3.169s0.583-1.882,1.08-2.623c0.495-0.741,1.138-1.348,1.93-1.811
				c0.792-0.463,1.731-0.717,2.812-0.761c0.934-0.038,1.796,0.124,2.585,0.481c0.788,0.357,1.471,0.842,2.046,1.458
				c0.575,0.614,1.024,1.313,1.346,2.09c0.322,0.778,0.497,1.58,0.526,2.41C244.611,367.464,244.626,367.878,244.655,368.707z"/>
			<path fill="#FFFFFF" d="M256.586,363.83c-1.735,0.043-2.603,0.064-4.337,0.113c-0.045-1.593-0.067-2.39-0.112-3.982
				c4.986-0.141,7.479-0.198,12.465-0.285c0.028,1.593,0.043,2.394,0.071,3.986c-1.735,0.03-2.603,0.045-4.337,0.082
				c0.217,10.221,0.325,15.329,0.542,25.551c-1.466,0.031-2.199,0.048-3.665,0.084C256.962,379.158,256.836,374.05,256.586,363.83z"
				/>
			<path fill="#FFFFFF" d="M268.4,359.617c1.254-0.018,1.881-0.026,3.135-0.041c2.065,9.819,4.085,19.648,6.052,29.488
				c-1.466,0.009-2.2,0.018-3.666,0.031c-0.456-2.535-0.685-3.804-1.146-6.338c-2.009,0.021-3.015,0.034-5.024,0.064
				c-0.396,2.545-0.591,3.817-0.981,6.363c-1.466,0.023-2.199,0.034-3.666,0.062C264.819,379.362,266.586,369.485,268.4,359.617z
				 M270.096,368.102c-0.029,0-0.044,0-0.073,0c-0.678,4.291-1.013,6.435-1.677,10.727c1.48-0.021,2.219-0.03,3.699-0.047
				C271.272,374.507,270.882,372.374,270.096,368.102z"/>
			<path fill="#FFFFFF" d="M291.066,382.463c-0.005,0.914-0.161,1.783-0.466,2.611c-0.305,0.826-0.724,1.555-1.254,2.174
				s-1.151,1.116-1.857,1.488c-0.707,0.372-1.469,0.557-2.282,0.557c-0.694,0-1.401-0.112-2.122-0.332
				c-0.719-0.22-1.368-0.599-1.945-1.136c-0.578-0.537-1.052-1.248-1.428-2.133c-0.376-0.883-0.57-2.003-0.577-3.358
				c-0.032-6.506-0.048-9.758-0.08-16.264c-0.005-0.969,0.138-1.866,0.429-2.697c0.29-0.831,0.705-1.553,1.243-2.162
				c0.538-0.611,1.181-1.09,1.931-1.437c0.749-0.347,1.579-0.522,2.489-0.522c0.862,0,1.662,0.175,2.398,0.522
				s1.374,0.833,1.911,1.456s0.956,1.377,1.258,2.25s0.45,1.822,0.444,2.844c-0.004,0.664-0.007,0.998-0.011,1.662
				c-1.494-0.009-2.24-0.012-3.734-0.016c0.001-0.564,0.003-0.848,0.004-1.412c0.002-0.83-0.204-1.551-0.619-2.159
				c-0.415-0.607-0.979-0.913-1.689-0.913c-0.933,0-1.551,0.325-1.856,0.976s-0.456,1.471-0.454,2.467
				c0.01,6.041,0.014,9.062,0.023,15.103c0.001,0.857,0.167,1.575,0.492,2.154c0.326,0.58,0.906,0.875,1.747,0.875
				c0.241,0,0.502-0.051,0.778-0.146s0.526-0.254,0.757-0.475c0.229-0.221,0.419-0.523,0.563-0.909
				c0.146-0.387,0.22-0.872,0.221-1.454c0.001-0.58,0.001-0.872,0.002-1.452c1.478,0.004,2.217,0.007,3.694,0.016
				C291.073,381.369,291.07,381.733,291.066,382.463z"/>
			<path fill="#FFFFFF" d="M305.995,382.607c-0.019,0.969-0.191,1.863-0.519,2.688s-0.768,1.541-1.318,2.154
				s-1.188,1.094-1.912,1.441s-1.495,0.515-2.31,0.504c-0.813-0.011-1.576-0.198-2.29-0.566c-0.715-0.368-1.343-0.865-1.877-1.494
				s-0.952-1.357-1.257-2.189s-0.453-1.732-0.445-2.701c0.076-9.16,0.115-13.74,0.191-22.9c1.505,0.013,2.258,0.02,3.763,0.037
				c-0.104,8.995-0.158,13.491-0.263,22.486c-0.013,1.051,0.196,1.827,0.623,2.33s0.963,0.759,1.612,0.768
				c0.65,0.009,1.196-0.231,1.637-0.723s0.667-1.262,0.684-2.312c0.141-8.994,0.212-13.49,0.353-22.484
				c1.505,0.023,2.258,0.034,3.763,0.062C306.256,368.867,306.168,373.447,305.995,382.607z"/>
			<path fill="#FFFFFF" d="M310.082,359.785c1.505,0.033,2.258,0.05,3.763,0.088c-0.251,9.844-0.501,19.688-0.748,29.531
				c-1.466-0.037-2.199-0.056-3.666-0.088C309.647,379.473,309.858,369.629,310.082,359.785z"/>
			<path fill="#FFFFFF" d="M328.547,383.301c-0.035,0.913-0.221,1.777-0.553,2.596c-0.332,0.816-0.772,1.529-1.323,2.131
				c-0.55,0.601-1.188,1.076-1.907,1.424c-0.721,0.35-1.488,0.506-2.302,0.479c-0.694-0.023-1.394-0.157-2.105-0.4
				c-0.711-0.243-1.349-0.642-1.907-1.198c-0.56-0.557-1.01-1.283-1.356-2.18c-0.347-0.895-0.504-2.021-0.466-3.376
				c0.185-6.504,0.276-9.755,0.461-16.258c0.027-0.969,0.2-1.862,0.518-2.684c0.318-0.821,0.757-1.524,1.315-2.115
				c0.559-0.593,1.216-1.052,1.978-1.374c0.76-0.322,1.596-0.469,2.506-0.438c0.86,0.029,1.654,0.23,2.379,0.603
				c0.726,0.372,1.344,0.878,1.859,1.519c0.516,0.642,0.915,1.406,1.188,2.289s0.387,1.837,0.347,2.857
				c-0.025,0.664-0.042,0.996-0.067,1.66c-1.493-0.059-2.239-0.085-3.732-0.139c0.021-0.563,0.031-0.847,0.052-1.41
				c0.029-0.829-0.152-1.557-0.547-2.179c-0.395-0.621-0.947-0.943-1.657-0.968c-0.932-0.031-1.562,0.269-1.889,0.909
				s-0.504,1.459-0.535,2.455c-0.191,6.038-0.286,9.057-0.478,15.095c-0.027,0.857,0.112,1.58,0.418,2.17
				c0.306,0.591,0.877,0.899,1.718,0.928c0.24,0.008,0.503-0.032,0.782-0.119c0.278-0.087,0.536-0.236,0.772-0.449
				s0.434-0.508,0.592-0.89c0.158-0.384,0.25-0.864,0.271-1.446c0.021-0.58,0.032-0.87,0.053-1.45
				c1.477,0.053,2.214,0.081,3.69,0.139C328.591,382.209,328.575,382.571,328.547,383.301z"/>
			<path fill="#FFFFFF" d="M332.5,360.5c1.504,0.062,2.258,0.096,3.762,0.163c-0.227,5.057-0.342,7.584-0.568,12.641
				c1.838,0.083,2.757,0.125,4.595,0.215c0.247-5.056,0.372-7.583,0.619-12.639c1.505,0.073,2.257,0.113,3.761,0.192
				c-0.518,9.832-1.028,19.665-1.542,29.498c-1.466-0.076-2.197-0.111-3.663-0.184c0.258-5.255,0.383-7.882,0.641-13.137
				c-1.832-0.09-2.747-0.134-4.579-0.216c-0.236,5.256-0.354,7.883-0.59,13.139c-1.466-0.065-2.198-0.098-3.663-0.159
				C331.682,380.176,332.089,370.338,332.5,360.5z"/>
			<path fill="#FFFFFF" d="M352.37,361.501c1.253,0.074,1.878,0.109,3.131,0.187c1.346,9.943,2.64,19.894,3.89,29.85
				c-1.464-0.098-2.197-0.144-3.662-0.236c-0.27-2.562-0.405-3.841-0.68-6.402c-2.007-0.126-3.013-0.186-5.021-0.302
				c-0.581,2.51-0.867,3.762-1.443,6.272c-1.465-0.084-2.197-0.124-3.663-0.203C347.355,380.932,349.837,371.21,352.37,361.501z
				 M353.444,370.084c-0.029-0.002-0.046-0.002-0.075-0.004c-0.989,4.23-1.482,6.344-2.458,10.576
				c1.479,0.087,2.219,0.133,3.697,0.225C354.148,376.562,353.918,374.402,353.444,370.084z"/>
			<path fill="#FFFFFF" d="M363.201,362.19c1.444,0.099,2.168,0.148,3.612,0.252c1.482,6.379,2.209,9.571,3.639,15.954
				c0.029,0.002,0.044,0.004,0.073,0.006c2.362-6.095,3.556-9.143,5.97-15.226c1.458,0.117,2.188,0.179,3.646,0.3
				c-0.82,9.812-1.636,19.624-2.453,29.436c-1.463-0.122-2.196-0.182-3.66-0.299c0.573-7.163,0.86-10.743,1.434-17.906
				c-0.029-0.002-0.044-0.004-0.073-0.006c-1.877,4.944-2.807,7.419-4.651,12.371c-0.735-0.057-1.103-0.086-1.838-0.141
				c-1.062-5.172-1.601-7.757-2.695-12.927c-0.029-0.002-0.042-0.003-0.071-0.005c-0.515,7.168-0.773,10.752-1.288,17.92
				c-1.464-0.105-2.194-0.159-3.658-0.26C361.855,381.837,362.531,372.014,363.201,362.19z"/>
			<path fill="#FFFFFF" d="M382.852,370.7c0.103-1.183,0.376-2.216,0.822-3.093c0.445-0.877,0.992-1.586,1.645-2.126
				c0.651-0.539,1.365-0.927,2.142-1.163c0.774-0.236,1.544-0.32,2.305-0.251s1.498,0.293,2.218,0.666s1.354,0.886,1.896,1.534
				c0.543,0.649,0.955,1.445,1.233,2.389s0.359,2.011,0.244,3.192c-0.604,6.211-0.908,9.315-1.513,15.526
				c-0.118,1.211-0.4,2.246-0.846,3.105s-0.992,1.559-1.634,2.094c-0.643,0.536-1.342,0.925-2.099,1.158
				c-0.756,0.233-1.506,0.317-2.246,0.249s-1.463-0.287-2.164-0.654c-0.703-0.369-1.319-0.876-1.854-1.52
				c-0.533-0.643-0.939-1.43-1.222-2.355c-0.283-0.927-0.374-1.998-0.27-3.21C382.047,380.025,382.315,376.917,382.852,370.7z
				 M385.191,386.566c-0.091,1.02,0.087,1.792,0.535,2.318s1.009,0.82,1.68,0.882c0.672,0.062,1.275-0.125,1.812-0.562
				c0.536-0.437,0.852-1.163,0.947-2.182c0.584-6.213,0.878-9.318,1.462-15.531c0.096-1.019-0.085-1.793-0.54-2.32
				c-0.456-0.529-1.025-0.827-1.71-0.89c-0.684-0.062-1.299,0.127-1.843,0.563c-0.543,0.436-0.861,1.162-0.952,2.182
				C386.026,377.242,385.748,380.352,385.191,386.566z"/>
			<path fill="#FFFFFF" d="M399.193,365.224c1.441,0.145,2.161,0.219,3.602,0.367c1.532,7.314,2.28,10.973,3.741,18.292
				c0.028,0.003,0.044,0.005,0.072,0.008c0.767-7.077,1.151-10.617,1.918-17.693c1.499,0.162,2.249,0.244,3.748,0.411
				c-1.099,9.785-2.186,19.571-3.277,29.357c-1.374-0.153-2.063-0.229-3.438-0.378c-1.467-7.304-2.22-10.955-3.758-18.256
				c-0.029-0.003-0.042-0.006-0.071-0.009c-0.73,7.065-1.097,10.601-1.827,17.665c-1.461-0.151-2.189-0.225-3.651-0.371
				C397.23,384.819,398.207,375.021,399.193,365.224z"/>
			<path fill="#FFFFFF" d="M419.8,367.476c1.248,0.147,1.87,0.223,3.118,0.374c0.76,10.006,1.473,20.016,2.133,30.028
				c-1.458-0.185-2.187-0.273-3.645-0.453c-0.119-2.572-0.183-3.86-0.307-6.434c-1.999-0.244-2.997-0.363-4.997-0.599
				c-0.728,2.471-1.089,3.706-1.812,6.178c-1.46-0.17-2.188-0.254-3.647-0.419C413.647,386.578,416.694,377.017,419.8,367.476z
				 M420.369,376.108c-0.029-0.004-0.046-0.006-0.075-0.01c-1.237,4.165-1.853,6.249-3.076,10.416
				c1.473,0.174,2.209,0.262,3.681,0.44C420.692,382.616,420.589,380.447,420.369,376.108z"/>
		</g>
	</g>
</g>
</svg>
